<svg width="400" height="325" viewBox="0 0 400 325" fill="none" xmlns="http://www.w3.org/2000/svg">
<g clip-path="url(#clip0_6402_6015)">
<path d="M400 288.559H0V288.759H400V288.559Z" fill="#EBEBEB"/>
<path d="M359.918 301.438H333.422V301.638H359.918V301.438Z" fill="#EBEBEB"/>
<path d="M218.578 298.926H208.266V299.126H218.578V298.926Z" fill="#EBEBEB"/>
<path d="M279.735 299.773H258.023V299.973H279.735V299.773Z" fill="#EBEBEB"/>
<path d="M332.622 294.008H287.734V294.208H332.622V294.008Z" fill="#EBEBEB"/>
<path d="M63.1927 303.262H41.9688V303.462H63.1927V303.262Z" fill="#EBEBEB"/>
<path d="M88.7125 303.262H70.3125V303.462H88.7125V303.262Z" fill="#EBEBEB"/>
<path d="M153.449 298.828H104.801V299.028H153.449V298.828Z" fill="#EBEBEB"/>
<path d="M189.61 252.878H35.1383C32.6183 252.878 30.5703 250.83 30.5703 248.31V31.1657C30.5703 28.6457 32.6183 26.5977 35.1383 26.5977H189.618C192.138 26.5977 194.186 28.6457 194.186 31.1657V248.31C194.178 250.83 192.13 252.878 189.61 252.878ZM35.1383 26.7977C32.7303 26.7977 30.7703 28.7577 30.7703 31.1657V248.31C30.7703 250.718 32.7303 252.678 35.1383 252.678H189.618C192.026 252.678 193.986 250.718 193.986 248.31V31.1657C193.986 28.7577 192.026 26.7977 189.618 26.7977H35.1383Z" fill="#EBEBEB"/>
<path d="M362.65 252.878H208.17C205.65 252.878 203.602 250.83 203.602 248.31V31.1657C203.602 28.6457 205.65 26.5977 208.17 26.5977H362.65C365.17 26.5977 367.218 28.6457 367.218 31.1657V248.31C367.218 250.83 365.17 252.878 362.65 252.878ZM208.17 26.7977C205.762 26.7977 203.802 28.7577 203.802 31.1657V248.31C203.802 250.718 205.762 252.678 208.17 252.678H362.65C365.058 252.678 367.018 250.718 367.018 248.31V31.1657C367.018 28.7577 365.058 26.7977 362.65 26.7977H208.17Z" fill="#EBEBEB"/>
<path d="M373.654 137.973C376.254 128.949 375.782 119.765 372.862 111.541C375.142 108.277 376.942 104.589 378.11 100.549C383.47 81.9728 373.702 62.6288 356.078 55.6608C352.678 31.3248 335.406 10.0608 310.278 2.81276C290.414 -2.91525 270.038 1.38875 254.542 12.7248C250.662 8.66876 245.702 5.54076 239.926 3.87676C222.502 -1.14725 204.302 8.90076 199.278 26.3248C198.438 29.2368 198.03 32.1728 197.998 35.0688C180.462 38.6048 165.446 51.5248 160.15 69.9008C155.39 86.4048 159.606 103.373 169.902 115.589C168.574 117.997 167.478 120.581 166.686 123.333C160.982 143.117 172.39 163.773 192.174 169.477C198.694 171.357 205.31 171.365 211.454 169.845C218.726 179.869 229.262 187.645 242.078 191.341C258.582 196.101 275.47 193.141 288.91 184.613C294.926 198.605 299.87 219.597 289.23 240.181C327.902 236.389 355.838 199.293 350.142 165.301C361.174 160.221 370.022 150.565 373.654 137.973Z" fill="#EBEBEB"/>
<path d="M299.462 232.499C299.254 232.499 299.046 232.419 298.894 232.267C298.686 232.059 298.606 231.763 298.686 231.475C304.134 212.499 299.166 194.307 294.046 182.387L291.446 176.347L285.894 179.867C277.518 185.187 267.878 187.995 258.03 187.995C253.174 187.995 248.326 187.307 243.614 185.947C232.39 182.707 222.83 175.995 215.966 166.539L213.75 163.483L210.086 164.395C204.71 165.731 199.054 165.627 193.702 164.083C185.574 161.739 178.846 156.371 174.75 148.963C170.662 141.555 169.702 133.003 172.046 124.867C172.702 122.595 173.622 120.379 174.782 118.283L176.646 114.907L174.158 111.963C164.67 100.707 161.43 85.5549 165.502 71.4349C170.062 55.6349 182.926 43.7948 199.078 40.5388L203.518 39.6428L203.566 35.1148C203.59 32.6508 203.95 30.2108 204.63 27.8588C207.998 16.2828 218.758 8.17881 230.806 8.17881C233.35 8.17881 235.894 8.53881 238.366 9.25082C242.982 10.5868 247.174 13.1228 250.486 16.5868L253.878 20.1388L257.838 17.2428C267.862 9.91482 280.158 5.88281 292.478 5.88281C297.95 5.88281 303.414 6.65881 308.726 8.19481C330.926 14.5948 347.334 33.5308 350.534 56.4349L350.982 59.6669L354.022 60.8669C369.222 66.8749 377.27 83.2669 372.734 98.9949C371.766 102.339 370.27 105.475 368.278 108.331L366.63 110.691L367.59 113.411C370.238 120.859 370.47 128.819 368.278 136.419C365.238 146.947 357.774 155.619 347.798 160.211L343.91 162.003L344.614 166.227C347.046 180.731 342.678 196.571 332.63 209.691C324.262 220.619 312.566 228.707 299.686 232.467C299.614 232.491 299.534 232.499 299.462 232.499ZM291.822 174.379C291.902 174.379 291.982 174.387 292.062 174.411C292.286 174.483 292.47 174.643 292.558 174.859L295.526 181.755C300.63 193.619 305.566 211.587 300.622 230.499C312.63 226.667 323.502 218.971 331.366 208.707C341.142 195.939 345.398 180.547 343.046 166.483L342.238 161.659C342.182 161.299 342.366 160.955 342.694 160.803L347.142 158.755C356.702 154.355 363.846 146.051 366.758 135.971C368.854 128.691 368.63 121.075 366.094 113.939L364.99 110.835C364.902 110.595 364.942 110.323 365.086 110.107L366.974 107.403C368.87 104.691 370.294 101.707 371.206 98.5389C375.51 83.6109 367.878 68.0509 353.446 62.3469L349.974 60.9789C349.71 60.8749 349.518 60.6349 349.478 60.3469L348.958 56.6509C345.846 34.3708 329.886 15.9468 308.294 9.72282C303.118 8.23481 297.798 7.48281 292.478 7.48281C280.494 7.48281 268.534 11.4108 258.798 18.5308L254.27 21.8428C253.942 22.0828 253.494 22.0428 253.222 21.7468L249.342 17.6908C246.222 14.4268 242.278 12.0428 237.934 10.7868C235.606 10.1148 233.214 9.77082 230.814 9.77082C219.47 9.77082 209.342 17.3948 206.198 28.3148C205.558 30.5308 205.222 32.8268 205.198 35.1388L205.142 40.3148C205.134 40.6908 204.87 41.0188 204.502 41.0908L199.422 42.1148C183.854 45.2508 171.462 56.6589 167.07 71.8829C163.15 85.4909 166.262 100.083 175.414 110.931L178.254 114.299C178.47 114.555 178.502 114.915 178.342 115.203L176.206 119.059C175.102 121.051 174.23 123.155 173.606 125.315C171.382 133.035 172.294 141.155 176.174 148.187C180.062 155.219 186.446 160.315 194.166 162.547C199.246 164.011 204.614 164.107 209.718 162.843L213.91 161.803C214.222 161.723 214.558 161.843 214.75 162.107L217.286 165.603C223.934 174.771 233.198 181.275 244.078 184.411C248.646 185.731 253.35 186.395 258.054 186.395C267.598 186.395 276.934 183.667 285.062 178.515L291.406 174.491C291.518 174.427 291.67 174.379 291.822 174.379Z" fill="white"/>
<path d="M243.354 99.5868L221.914 96.2508L222.25 94.1068C222.818 90.4588 223.69 87.5628 224.874 85.4108C226.058 83.2668 227.61 81.3788 229.538 79.7468C231.466 78.1228 235.658 75.3788 242.114 71.5308C245.546 69.5228 247.426 67.4828 247.746 65.4188C248.066 63.3468 247.706 61.6428 246.666 60.3068C245.618 58.9708 243.858 58.1068 241.378 57.7228C238.706 57.3068 236.362 57.8508 234.338 59.3388C232.314 60.8348 230.714 63.7468 229.538 68.0748L208.066 61.9548C210.074 54.0188 214.002 47.9948 219.866 43.8827C225.73 39.7627 233.922 38.5307 244.458 40.1707C252.658 41.4507 259.01 44.1947 263.522 48.3948C269.65 54.0908 272.114 60.7948 270.914 68.4988C270.418 71.6988 269.05 74.6428 266.818 77.3388C264.586 80.0348 260.41 83.1068 254.29 86.5388C250.018 88.9548 247.25 91.0028 245.97 92.6668C244.682 94.3548 243.81 96.6508 243.354 99.5868ZM220.29 101.835L243.258 105.411L240.106 125.667L217.138 122.091L220.29 101.835Z" fill="white"/>
<path d="M298.074 130.98L286.17 121.34L287.138 120.148C288.778 118.124 290.338 116.66 291.826 115.772C293.306 114.884 294.93 114.284 296.682 113.972C298.434 113.66 301.97 113.476 307.274 113.42C310.082 113.412 311.954 112.836 312.882 111.684C313.81 110.532 314.194 109.364 314.034 108.18C313.874 106.996 313.098 105.844 311.722 104.724C310.242 103.524 308.618 103.02 306.85 103.212C305.082 103.404 303.074 104.612 300.826 106.844L289.89 95.492C293.93 91.364 298.466 89.076 303.506 88.644C308.546 88.212 313.986 90.364 319.834 95.1C324.386 98.788 327.29 102.716 328.554 106.884C330.274 112.532 329.402 117.5 325.93 121.78C324.49 123.556 322.61 124.868 320.298 125.724C317.978 126.58 314.338 126.972 309.386 126.9C305.922 126.86 303.506 127.124 302.13 127.692C300.746 128.252 299.394 129.348 298.074 130.98ZM283.202 124.172L295.954 134.5L286.842 145.748L274.09 135.42L283.202 124.172Z" fill="white"/>
<path d="M301.407 61.6846L296.255 54.6445L296.959 54.1325C298.159 53.2525 299.231 52.6766 300.175 52.4046C301.119 52.1326 302.095 52.0365 303.111 52.1165C304.119 52.2045 306.095 52.6126 309.023 53.3486C310.567 53.7486 311.679 53.7086 312.359 53.2046C313.039 52.7086 313.415 52.1165 313.503 51.4445C313.583 50.7645 313.327 50.0205 312.735 49.2045C312.095 48.3245 311.271 47.8125 310.271 47.6685C309.271 47.5165 307.991 47.8925 306.431 48.7885L302.055 40.9565C304.879 39.2685 307.703 38.6685 310.543 39.1645C313.383 39.6605 316.063 41.6285 318.591 45.0845C320.559 47.7725 321.591 50.3566 321.679 52.8366C321.807 56.1966 320.607 58.8046 318.071 60.6526C317.023 61.4206 315.799 61.8686 314.399 62.0046C312.999 62.1406 310.943 61.8286 308.223 61.0686C306.319 60.5486 304.951 60.3406 304.111 60.4526C303.271 60.5646 302.375 60.9726 301.407 61.6846ZM294.207 55.7726L299.727 63.3086L293.079 68.1726L287.559 60.6366L294.207 55.7726Z" fill="white"/>
<path d="M102.679 161.5C96.0625 161.5 89.4066 159.692 83.5106 156.172C75.3905 151.332 69.6545 143.836 67.7106 135.54C61.1185 135.068 55.0466 131.828 50.9986 126.612C48.0626 122.836 46.3905 118.34 46.1425 113.572C44.4065 112.388 42.8705 110.948 41.5745 109.292C35.2625 101.172 36.0545 89.7719 43.3745 82.6199C40.3265 69.6119 45.1345 55.9719 55.6866 47.7719C63.9666 41.3399 74.5106 39.0759 84.7026 41.5319C85.8866 38.8279 87.7346 36.4599 90.0706 34.6439C93.8226 31.7239 98.4945 30.4439 103.215 31.0359C107.935 31.6279 112.143 34.0199 115.055 37.7799C115.935 38.9159 116.671 40.1479 117.263 41.4599C126.887 39.8839 136.527 43.6439 142.519 51.3639C147.879 58.2599 149.495 67.2999 146.871 75.6279C147.919 76.5239 148.871 77.5159 149.703 78.5879C156.511 87.3479 154.927 100.02 146.159 106.828C143.487 108.908 140.319 110.276 136.975 110.812C135.231 117.34 131.495 122.98 126.143 127.132C119.391 132.38 110.743 134.572 102.311 133.196C102.223 140.964 104.031 151.5 112.727 159.036C112.903 159.188 112.975 159.42 112.927 159.644C112.879 159.868 112.711 160.052 112.487 160.116C109.303 161.036 105.991 161.492 102.679 161.5ZM76.5906 41.8199C69.3666 41.8199 62.3186 44.2039 56.4466 48.7639C46.1906 56.7399 41.5666 70.0519 44.6706 82.6759C44.7266 82.8919 44.6546 83.1239 44.4946 83.2839C37.4065 89.9719 36.5745 100.82 42.5585 108.524C43.8305 110.164 45.3585 111.572 47.0865 112.708C47.2545 112.82 47.3586 113.004 47.3666 113.212C47.5426 117.828 49.1425 122.196 51.9745 125.852C55.9025 130.908 61.8306 133.996 68.2386 134.324C68.5186 134.34 68.7585 134.54 68.8225 134.82C70.5905 142.956 76.1746 150.348 84.1506 155.1C92.3746 159.996 102.111 161.476 111.055 159.212C102.471 151.18 100.871 140.284 101.079 132.436C101.087 132.252 101.167 132.076 101.311 131.964C101.455 131.852 101.639 131.804 101.823 131.836C110.135 133.396 118.719 131.324 125.383 126.148C130.615 122.076 134.247 116.532 135.871 110.1C135.935 109.852 136.143 109.668 136.391 109.628C139.663 109.18 142.775 107.868 145.391 105.836C153.607 99.4519 155.095 87.5719 148.711 79.3559C147.847 78.2439 146.847 77.2199 145.743 76.3159C145.543 76.1479 145.463 75.8759 145.543 75.6359C148.215 67.5959 146.711 58.8119 141.519 52.1319C135.711 44.6599 126.311 41.0759 116.983 42.7799C116.687 42.8359 116.399 42.6759 116.287 42.4039C115.719 41.0199 114.967 39.7239 114.055 38.5479C111.343 35.0599 107.431 32.8279 103.047 32.2839C98.6626 31.7319 94.3186 32.9239 90.8306 35.6359C88.5266 37.4279 86.7266 39.8039 85.6386 42.5079C85.5186 42.8039 85.1986 42.9559 84.9026 42.8839C82.1426 42.1719 79.3506 41.8199 76.5906 41.8199Z" fill="#E6E6E6"/>
<path d="M80.4739 94.6029L69.4259 97.2029L69.1619 96.0989C68.7219 94.2189 68.5699 92.6429 68.7219 91.3709C68.8739 90.0989 69.2579 88.8749 69.8739 87.7069C70.4899 86.5389 71.9859 84.3869 74.3539 81.2509C75.6259 79.6029 76.1299 78.2429 75.8819 77.1789C75.6339 76.1149 75.1219 75.3549 74.3539 74.9149C73.5859 74.4749 72.5619 74.4029 71.2819 74.6989C69.9059 75.0269 68.8739 75.7469 68.1859 76.8669C67.4979 77.9869 67.2979 79.7149 67.5779 82.0429L55.9699 83.3069C55.3779 79.0669 56.0979 75.3709 58.1299 72.2269C60.1619 69.0749 63.8899 66.8669 69.3219 65.5869C73.5459 64.5949 77.1699 64.6749 80.1779 65.8269C84.2659 67.3789 86.7779 70.1469 87.7139 74.1149C88.1059 75.7629 88.0179 77.4589 87.4739 79.2029C86.9219 80.9469 85.5059 83.2589 83.2099 86.1309C81.6179 88.1469 80.6739 89.6829 80.3859 90.7389C80.0899 91.8029 80.1219 93.0909 80.4739 94.6029ZM69.7379 100.227L81.5699 97.4429L84.0259 107.883L72.1939 110.667L69.7379 100.227Z" fill="#EBEBEB"/>
<path d="M108.601 71.2658L100.929 68.9378L101.161 68.1698C101.561 66.8658 102.025 65.8498 102.569 65.1298C103.113 64.4018 103.777 63.7938 104.569 63.2978C105.361 62.8018 107.033 62.0178 109.593 60.9458C110.953 60.3858 111.745 59.7378 111.969 59.0018C112.193 58.2658 112.153 57.6178 111.841 57.0738C111.529 56.5298 110.929 56.1218 110.041 55.8498C109.089 55.5618 108.201 55.6338 107.385 56.0738C106.569 56.5138 105.833 57.4978 105.177 59.0178L97.6406 55.6658C98.7846 52.8658 100.537 50.8658 102.889 49.6658C105.249 48.4658 108.305 48.4338 112.073 49.5778C115.009 50.4658 117.185 51.8018 118.617 53.5778C120.561 55.9778 121.113 58.5538 120.281 61.3138C119.937 62.4578 119.281 63.4658 118.329 64.3378C117.377 65.2098 115.689 66.1138 113.273 67.0578C111.585 67.7218 110.465 68.3218 109.913 68.8658C109.361 69.4178 108.921 70.2178 108.601 71.2658ZM100.057 70.8898L108.273 73.3858L106.073 80.6338L97.8566 78.1378L100.057 70.8898Z" fill="#EBEBEB"/>
<path d="M199.999 324.686C285.665 324.686 355.111 320.632 355.111 315.63C355.111 310.629 285.665 306.574 199.999 306.574C114.333 306.574 44.8867 310.629 44.8867 315.63C44.8867 320.632 114.333 324.686 199.999 324.686Z" fill="#F5F5F5"/>
<path d="M126.086 180.59L125.35 180.278C126.014 178.718 126.39 177.414 126.51 176.31L127.302 176.398C127.182 177.582 126.782 178.95 126.086 180.59ZM125.774 171.43C124.222 168.022 121.334 165.87 117.43 165.214L117.566 164.422C121.75 165.126 124.838 167.438 126.502 171.102L125.774 171.43Z" fill="#005490"/>
<path d="M121.583 188.636L113.711 192.22L113.351 191.436C112.743 190.1 112.399 188.94 112.319 187.964C112.239 186.988 112.351 186.02 112.631 185.06C112.919 184.1 113.711 182.268 115.023 179.572C115.727 178.148 115.903 177.06 115.559 176.3C115.215 175.54 114.719 175.052 114.079 174.836C113.439 174.62 112.663 174.716 111.751 175.132C110.767 175.58 110.111 176.276 109.759 177.212C109.415 178.156 109.519 179.476 110.071 181.172L101.599 183.836C100.527 180.756 100.519 177.892 101.575 175.236C102.623 172.58 105.087 170.372 108.951 168.612C111.959 167.244 114.679 166.764 117.103 167.18C120.391 167.732 122.679 169.428 123.967 172.26C124.503 173.436 124.695 174.716 124.543 176.1C124.391 177.484 123.671 179.42 122.383 181.908C121.495 183.652 121.015 184.932 120.951 185.772C120.879 186.604 121.095 187.556 121.583 188.636ZM114.399 194.436L122.831 190.596L126.215 198.028L117.783 201.868L114.399 194.436Z" fill="#005490"/>
<path d="M102.111 206.42L98.1026 211.852L97.5586 211.452C96.6306 210.772 95.9586 210.116 95.5346 209.476C95.1106 208.844 94.8146 208.14 94.6466 207.372C94.4786 206.604 94.3266 205.052 94.1906 202.724C94.1266 201.484 93.8386 200.676 93.3106 200.292C92.7826 199.908 92.2626 199.764 91.7426 199.852C91.2226 199.948 90.7346 200.308 90.2706 200.94C89.7746 201.62 89.5826 202.34 89.7026 203.116C89.8226 203.892 90.3986 204.748 91.4226 205.692L86.6466 210.74C84.7426 209.044 83.6466 207.092 83.3586 204.884C83.0626 202.676 83.9026 200.236 85.8706 197.564C87.3986 195.484 89.0706 194.124 90.8786 193.484C93.3266 192.612 95.5346 192.9 97.4866 194.34C98.2946 194.94 98.9106 195.74 99.3346 196.74C99.7586 197.74 100.007 199.34 100.071 201.516C100.127 203.044 100.287 204.1 100.567 204.692C100.855 205.308 101.367 205.876 102.111 206.42ZM99.4146 213.108L103.703 207.284L108.839 211.068L104.551 216.892L99.4146 213.108Z" fill="#005490"/>
<path d="M187.276 312.749C185.98 312.749 184.724 312.045 184.084 310.813C180.868 304.605 176.828 297.317 169.564 289.429C168.716 288.509 168.404 287.205 168.756 286.005C171.452 276.637 175.692 263.829 175.732 263.701C176.356 261.821 178.388 260.797 180.268 261.421C182.148 262.045 183.172 264.077 182.548 265.957C182.508 266.077 178.86 277.109 176.212 286.085C182.892 293.661 187.012 300.853 190.468 307.517C191.38 309.277 190.692 311.445 188.932 312.349C188.396 312.621 187.828 312.749 187.276 312.749Z" fill="#407BFF"/>
<path d="M193.25 315.63H165.418L180.17 307.262L192.53 307.742L193.25 315.63Z" fill="#263238"/>
<path d="M190.585 281.941C203.253 277.981 210.863 266.259 207.581 255.758C204.299 245.257 191.369 239.954 178.7 243.913C166.032 247.872 158.422 259.595 161.704 270.096C164.986 280.597 177.916 285.9 190.585 281.941Z" fill="#263238"/>
<path d="M121.321 249.825C119.913 249.825 118.577 248.993 118.001 247.609C117.241 245.777 118.113 243.681 119.945 242.921C122.033 242.057 122.321 239.929 122.321 239.905C122.473 238.305 123.673 236.993 125.257 236.705C126.113 236.553 126.937 236.305 127.897 236.033C132.761 234.609 138.777 232.849 157.745 238.161C176.449 227.697 176.665 208.081 176.665 207.233C176.665 205.257 178.265 203.641 180.241 203.641C180.241 203.641 180.249 203.641 180.257 203.641C182.225 203.641 183.833 205.225 183.841 207.201C183.849 208.241 183.729 232.865 159.809 245.201C158.993 245.625 158.049 245.713 157.169 245.457C139.097 240.233 134.001 241.721 129.913 242.921C129.553 243.025 129.185 243.137 128.809 243.241C127.921 245.521 126.081 248.153 122.697 249.553C122.249 249.737 121.785 249.825 121.321 249.825Z" fill="#263238"/>
<path d="M163.266 224.151C156.458 197.095 138.322 127.303 196.442 123.039C248.586 119.215 262.898 188.615 266.37 212.663C268.394 226.679 269.082 239.383 269.194 249.319C269.346 262.127 260.346 273.175 247.786 275.727C219.378 281.495 192.49 282.319 174.386 275.175C169.49 273.239 166.53 268.255 167.002 263.015C167.706 255.231 167.722 241.863 163.266 224.151Z" fill="#407BFF"/>
<path opacity="0.1" d="M266.368 212.655C263.088 189.999 250.192 127.023 205.04 123.087C199.784 122.631 194.6 125.215 192.184 129.903C190.168 133.807 190.232 138.535 193.248 143.215C203.2 158.647 226.936 211.983 223.352 241.047C221.72 254.271 213.424 264.831 220.64 279.695C229.352 278.975 238.488 277.623 247.792 275.727C260.352 273.183 269.352 262.135 269.2 249.319C269.08 239.383 268.4 226.671 266.368 212.655Z" fill="black"/>
<path d="M258.591 249.67C258.391 249.67 258.231 249.51 258.231 249.318C258.087 236.958 257.135 224.638 255.407 212.71C246.767 152.99 223.503 122.782 188.127 125.39C187.935 125.414 187.759 125.254 187.743 125.062C187.727 124.862 187.879 124.694 188.071 124.678C223.871 122.038 247.407 152.454 256.111 212.614C257.839 224.574 258.791 236.926 258.943 249.318C258.951 249.51 258.791 249.67 258.591 249.67Z" fill="#263238"/>
<path d="M258.042 283.855C270.71 279.895 278.32 268.173 275.038 257.672C271.756 247.171 258.826 241.868 246.157 245.827C233.489 249.787 225.879 261.509 229.161 272.01C232.443 282.511 245.373 287.814 258.042 283.855Z" fill="#263238"/>
<path d="M260.241 312.749C258.945 312.749 257.689 312.045 257.049 310.813C253.833 304.605 249.793 297.317 242.529 289.429C241.681 288.509 241.369 287.205 241.721 286.005C244.417 276.637 248.657 263.829 248.697 263.701C249.321 261.821 251.345 260.797 253.233 261.421C255.113 262.045 256.137 264.077 255.513 265.957C255.473 266.077 251.825 277.109 249.177 286.085C255.857 293.661 259.977 300.853 263.433 307.517C264.345 309.277 263.657 311.445 261.897 312.349C261.353 312.621 260.793 312.749 260.241 312.749Z" fill="#407BFF"/>
<path d="M252.705 203.366C251.417 203.366 250.169 202.67 249.521 201.446C248.601 199.694 249.273 197.526 251.025 196.606C251.713 196.238 267.337 187.702 271.729 167.19C261.313 162.83 242.593 152.998 238.497 148.054C238.097 147.574 237.833 146.998 237.729 146.39C237.633 145.854 236.961 141.606 238.529 137.59L236.641 133.942C235.729 132.182 236.417 130.014 238.177 129.102C239.937 128.19 242.105 128.878 243.017 130.638L245.737 135.886C246.321 137.006 246.265 138.358 245.601 139.43C244.745 140.814 244.633 142.838 244.705 144.158C249.313 148.326 267.937 158.19 277.049 161.574C278.649 162.166 279.609 163.806 279.345 165.486C275.289 191.702 255.233 202.502 254.377 202.95C253.833 203.23 253.265 203.366 252.705 203.366Z" fill="#263238"/>
<path d="M241.259 147.557C240.923 147.557 240.579 147.461 240.275 147.261C239.443 146.717 239.211 145.605 239.755 144.781C239.875 144.589 242.843 140.117 247.355 138.909C248.307 138.653 249.299 139.221 249.555 140.181C249.811 141.141 249.243 142.125 248.283 142.381C245.131 143.229 242.779 146.717 242.755 146.749C242.419 147.269 241.843 147.557 241.259 147.557Z" fill="#263238"/>
<path d="M266.219 315.63H238.387L253.139 307.262L265.499 307.742L266.219 315.63Z" fill="#263238"/>
<path d="M207.94 208.438C218.467 207.506 226.321 199.069 225.482 189.594C224.643 180.118 215.429 173.193 204.901 174.125C194.374 175.057 186.52 183.494 187.359 192.969C188.198 202.445 197.412 209.371 207.94 208.438Z" fill="white"/>
<path d="M204.36 202.178C207.152 201.382 208.241 196.618 206.794 191.536C205.346 186.454 201.909 182.979 199.117 183.775C196.326 184.57 195.236 189.335 196.684 194.416C198.132 199.498 201.569 202.973 204.36 202.178Z" fill="#263238"/>
<path d="M184.645 194.527C196.725 192.975 220.653 186.151 224.597 183.399C221.485 174.311 207.029 166.535 194.093 170.911C182.429 174.863 184.645 194.527 184.645 194.527Z" fill="#263238"/>
<path d="M186.988 200.368C201.98 197.52 221.476 192.736 227.052 189.664C226.708 199.448 223.868 209.36 208.556 212.704C196.052 215.448 186.988 200.368 186.988 200.368Z" fill="#263238"/>
<path d="M174.636 209.768C180.061 206.179 180.776 197.705 176.234 190.84C171.692 183.975 163.612 181.319 158.188 184.908C152.764 188.497 152.049 196.971 156.591 203.836C161.133 210.701 169.212 213.357 174.636 209.768Z" fill="white"/>
<path d="M166.673 197.582C167.585 201.87 166.801 205.446 164.921 205.566C163.041 205.694 160.777 202.318 159.873 198.03C158.961 193.742 159.745 190.166 161.625 190.046C163.497 189.926 165.761 193.294 166.673 197.582Z" fill="#263238"/>
<path d="M151.804 195.941C159.908 196.901 176.004 195.829 178.676 194.365C176.7 186.605 167.116 177.829 158.404 178.949C150.548 179.973 151.804 195.941 151.804 195.941Z" fill="#263238"/>
<path d="M153.305 200.989C163.377 201.445 176.481 201.189 180.249 199.773C179.905 207.461 177.889 214.789 167.601 214.669C159.193 214.573 153.305 200.989 153.305 200.989Z" fill="#263238"/>
<path d="M211.274 166.077C196.162 166.077 186.122 158.613 185.626 158.237C184.05 157.037 183.738 154.789 184.938 153.205C186.13 151.629 188.378 151.317 189.954 152.509C190.13 152.637 202.058 161.341 218.626 158.197C220.578 157.829 222.45 159.109 222.818 161.053C223.186 162.997 221.906 164.877 219.962 165.245C216.914 165.829 214.01 166.077 211.274 166.077Z" fill="#263238"/>
<path d="M147.105 159.894C146.705 159.894 146.289 159.831 145.889 159.687C144.025 159.015 143.057 156.958 143.729 155.094C145.633 149.798 148.785 146.358 153.105 144.878C160.937 142.182 169.369 147.422 169.721 147.646C171.393 148.702 171.897 150.918 170.841 152.598C169.785 154.27 167.577 154.774 165.897 153.718C164.265 152.702 159.201 150.35 155.417 151.67C153.241 152.43 151.625 154.342 150.481 157.518C149.953 158.982 148.577 159.894 147.105 159.894Z" fill="#263238"/>
<path d="M175.385 220.438C175.289 220.438 175.185 220.422 175.089 220.398C174.521 220.23 174.193 219.654 174.353 219.086C174.377 218.99 175.057 216.662 178.001 215.142C182.121 213.022 188.393 213.462 196.649 216.446C197.209 216.646 197.497 217.27 197.297 217.822C197.097 218.382 196.481 218.67 195.921 218.47C186.457 215.038 181.537 215.782 179.081 217.006C176.937 218.078 176.449 219.606 176.425 219.67C176.281 220.134 175.849 220.438 175.385 220.438Z" fill="#263238"/>
<path d="M141.508 216.496C120.628 218.368 105.676 227.016 105.676 227.016C111.86 225.848 133.964 253.2 139.644 274.288C150.124 270.4 162.348 267.752 175.388 265.688C167.492 243.952 153.052 219.32 141.508 216.496Z" fill="#407BFF"/>
<path opacity="0.6" d="M141.508 216.496C120.628 218.368 105.676 227.016 105.676 227.016C111.86 225.848 133.964 253.2 139.644 274.288C150.124 270.4 162.348 267.752 175.388 265.688C167.492 243.952 153.052 219.32 141.508 216.496Z" fill="white"/>
<path d="M141.506 216.495C127.842 214.951 105.658 226.391 105.658 226.391C101.73 228.895 102.794 233.599 104.938 235.583C106.994 232.631 129.922 224.951 138.546 223.919C134.258 219.951 138.242 217.071 141.506 216.495Z" fill="#407BFF"/>
<path opacity="0.2" d="M141.506 216.495C127.842 214.951 105.658 226.391 105.658 226.391C101.73 228.895 102.794 233.599 104.938 235.583C106.994 232.631 129.922 224.951 138.546 223.919C134.258 219.951 138.242 217.071 141.506 216.495Z" fill="white"/>
<path d="M121.331 249.822C120.155 249.822 119.011 249.246 118.323 248.19C115.723 244.206 117.347 238.118 117.699 236.942C118.267 235.046 120.267 233.966 122.163 234.534C124.059 235.102 125.139 237.094 124.579 238.99C123.995 240.998 123.875 243.566 124.339 244.27C125.419 245.926 124.955 248.15 123.291 249.238C122.683 249.638 122.003 249.822 121.331 249.822Z" fill="#263238"/>
<path d="M176.711 73.5391H196.519V78.6431H184.119V82.4431H195.623V87.3231H184.119V92.0351H196.879V97.4511H176.711V73.5391Z" fill="#263238"/>
<path d="M200.957 97.4591V73.5391H213.277C215.565 73.5391 217.309 73.7311 218.517 74.1231C219.725 74.5151 220.701 75.2431 221.437 76.2991C222.173 77.3631 222.549 78.6511 222.549 80.1711C222.549 81.4991 222.269 82.6431 221.701 83.6031C221.133 84.5631 220.357 85.3471 219.365 85.9471C218.733 86.3311 217.869 86.6431 216.773 86.8911C217.653 87.1871 218.293 87.4831 218.693 87.7711C218.965 87.9711 219.357 88.3871 219.877 89.0271C220.397 89.6671 220.741 90.1631 220.909 90.5151L224.485 97.4431H216.133L212.181 90.1311C211.677 89.1871 211.237 88.5711 210.845 88.2911C210.309 87.9231 209.709 87.7391 209.037 87.7391H208.381V97.4511H200.957V97.4591ZM208.381 83.2351H211.501C211.837 83.2351 212.493 83.1231 213.461 82.9071C213.949 82.8111 214.349 82.5631 214.661 82.1551C214.973 81.7551 215.125 81.2911 215.125 80.7711C215.125 80.0031 214.877 79.4031 214.389 78.9951C213.901 78.5791 212.981 78.3711 211.629 78.3711H208.381V83.2351Z" fill="#263238"/>
<path d="M226.953 97.4591V73.5391H239.273C241.561 73.5391 243.305 73.7311 244.513 74.1231C245.721 74.5151 246.697 75.2431 247.433 76.2991C248.169 77.3631 248.545 78.6511 248.545 80.1711C248.545 81.4991 248.265 82.6431 247.697 83.6031C247.129 84.5631 246.353 85.3471 245.361 85.9471C244.729 86.3311 243.865 86.6431 242.769 86.8911C243.649 87.1871 244.289 87.4831 244.689 87.7711C244.961 87.9711 245.353 88.3871 245.873 89.0271C246.393 89.6671 246.737 90.1631 246.905 90.5151L250.481 97.4431H242.129L238.177 90.1311C237.673 89.1871 237.233 88.5711 236.841 88.2911C236.305 87.9231 235.705 87.7391 235.033 87.7391H234.377V97.4511H226.953V97.4591ZM234.377 83.2351H237.497C237.833 83.2351 238.489 83.1231 239.457 82.9071C239.945 82.8111 240.345 82.5631 240.657 82.1551C240.969 81.7551 241.121 81.2911 241.121 80.7711C241.121 80.0031 240.873 79.4031 240.385 78.9951C239.897 78.5791 238.977 78.3711 237.625 78.3711H234.377V83.2351Z" fill="#263238"/>
<path d="M251.344 85.5168C251.344 81.6128 252.432 78.5728 254.608 76.3968C256.784 74.2208 259.816 73.1328 263.696 73.1328C267.68 73.1328 270.744 74.2048 272.896 76.3408C275.048 78.4768 276.128 81.4768 276.128 85.3248C276.128 88.1168 275.656 90.4128 274.72 92.2048C273.776 93.9968 272.416 95.3888 270.64 96.3808C268.864 97.3728 266.648 97.8768 263.992 97.8768C261.296 97.8768 259.064 97.4448 257.296 96.5888C255.528 95.7328 254.096 94.3728 253 92.5088C251.896 90.6448 251.344 88.3168 251.344 85.5168ZM258.736 85.5488C258.736 87.9648 259.184 89.7008 260.08 90.7568C260.976 91.8128 262.2 92.3408 263.744 92.3408C265.336 92.3408 266.56 91.8208 267.432 90.7888C268.304 89.7568 268.736 87.9008 268.736 85.2208C268.736 82.9728 268.28 81.3248 267.376 80.2848C266.464 79.2448 265.232 78.7248 263.68 78.7248C262.192 78.7248 260.992 79.2528 260.088 80.3088C259.192 81.3728 258.736 83.1168 258.736 85.5488Z" fill="#263238"/>
<path d="M280.215 97.4591V73.5391H292.535C294.823 73.5391 296.567 73.7311 297.775 74.1231C298.983 74.5151 299.959 75.2431 300.695 76.2991C301.431 77.3631 301.807 78.6511 301.807 80.1711C301.807 81.4991 301.527 82.6431 300.959 83.6031C300.391 84.5631 299.615 85.3471 298.623 85.9471C297.991 86.3311 297.127 86.6431 296.031 86.8911C296.911 87.1871 297.551 87.4831 297.951 87.7711C298.223 87.9711 298.615 88.3871 299.135 89.0271C299.655 89.6671 299.999 90.1631 300.167 90.5151L303.743 97.4431H295.391L291.439 90.1311C290.935 89.1871 290.495 88.5711 290.103 88.2911C289.567 87.9231 288.967 87.7391 288.295 87.7391H287.639V97.4511H280.215V97.4591ZM287.639 83.2351H290.759C291.095 83.2351 291.751 83.1231 292.719 82.9071C293.207 82.8111 293.607 82.5631 293.919 82.1551C294.231 81.7551 294.383 81.2911 294.383 80.7711C294.383 80.0031 294.135 79.4031 293.647 78.9951C293.159 78.5791 292.239 78.3711 290.887 78.3711H287.639V83.2351Z" fill="#263238"/>
<path d="M105.378 97.1016V91.7405H93.4726V87.7475C93.6945 87.3531 93.9779 86.8724 94.323 86.3055C94.6927 85.7386 95.1241 85.0854 95.6171 84.346L103.566 72.6996H110.998V87.3777H114.732V91.7405H110.998V97.1016H105.378ZM98.5749 87.3777H105.452V79.9832C105.452 79.4902 105.464 78.9849 105.489 78.4673C105.513 77.925 105.538 77.3828 105.563 76.8405H105.489C105.242 77.3581 104.947 77.9004 104.601 78.4673C104.281 79.0096 103.973 79.5025 103.677 79.9462L99.3513 86.2685C99.2281 86.4657 99.1048 86.6506 98.9816 86.8231C98.8583 86.9957 98.7228 87.1805 98.5749 87.3777ZM127.69 97.4713C124.363 97.4713 121.836 96.4114 120.111 94.2916C118.41 92.1719 117.56 89.0415 117.56 84.9006C117.56 80.7596 118.41 77.6292 120.111 75.5095C121.836 73.3897 124.363 72.3298 127.69 72.3298C131.018 72.3298 133.532 73.3897 135.233 75.5095C136.958 77.6292 137.821 80.7596 137.821 84.9006C137.821 89.0415 136.958 92.1719 135.233 94.2916C133.532 96.4114 131.018 97.4713 127.69 97.4713ZM127.69 92.5169C128.602 92.5169 129.342 92.2705 129.909 91.7775C130.476 91.2599 130.882 90.4465 131.129 89.3373C131.4 88.2035 131.536 86.7245 131.536 84.9006C131.536 83.0766 131.4 81.61 131.129 80.5008C130.882 79.367 130.476 78.5536 129.909 78.0606C129.342 77.543 128.602 77.2842 127.69 77.2842C126.803 77.2842 126.064 77.543 125.472 78.0606C124.905 78.5536 124.486 79.367 124.215 80.5008C123.968 81.61 123.845 83.0766 123.845 84.9006C123.845 86.7245 123.968 88.2035 124.215 89.3373C124.486 90.4465 124.905 91.2599 125.472 91.7775C126.064 92.2705 126.803 92.5169 127.69 92.5169ZM153.074 97.1016V91.7405H141.169V87.7475C141.391 87.3531 141.674 86.8724 142.019 86.3055C142.389 85.7386 142.82 85.0854 143.313 84.346L151.262 72.6996H158.694V87.3777H162.428V91.7405H158.694V97.1016H153.074ZM146.271 87.3777H153.148V79.9832C153.148 79.4902 153.16 78.9849 153.185 78.4673C153.21 77.925 153.234 77.3828 153.259 76.8405H153.185C152.939 77.3581 152.643 77.9004 152.298 78.4673C151.977 79.0096 151.669 79.5025 151.373 79.9462L147.048 86.2685C146.924 86.4657 146.801 86.6506 146.678 86.8231C146.555 86.9957 146.419 87.1805 146.271 87.3777Z" fill="#005490"/>
</g>
<defs>
<clipPath id="clip0_6402_6015">
<rect width="400" height="324.4" fill="white" transform="translate(0 0.285156)"/>
</clipPath>
</defs>
</svg>
