<svg width="152" height="51" viewBox="0 0 152 51" fill="none" xmlns="http://www.w3.org/2000/svg">
<path d="M139.26 0.0353218H12.0562C11.5925 0.0353218 11.1344 0.0353218 10.6719 0.0378682C10.2848 0.0404146 9.90079 0.047812 9.50996 0.0540381C8.6609 0.0640988 7.81383 0.139313 6.97612 0.279028C6.13959 0.421785 5.32926 0.690921 4.57255 1.07734C3.81676 1.46702 3.12617 1.97337 2.52584 2.57802C1.92235 3.18098 1.4193 3.87791 1.03603 4.64202C0.6517 5.40462 0.385204 6.2218 0.245747 7.06536C0.104964 7.90786 0.0292069 8.76007 0.0191565 9.61434C0.00742235 10.0047 0.00618318 10.3964 0 10.7868V40.2163C0.00618318 40.6116 0.00742235 40.9946 0.0191565 41.39C0.0292099 42.2443 0.104967 43.0964 0.245747 43.9389C0.384819 44.7829 0.651331 45.6006 1.03603 46.3635C1.41913 47.1251 1.92225 47.8192 2.52584 48.4188C3.12389 49.0262 3.81493 49.5329 4.57255 49.9196C5.32926 50.307 6.1395 50.5778 6.97612 50.7227C7.81397 50.8613 8.66096 50.9366 9.50996 50.9478C9.90079 50.9565 10.2848 50.9615 10.6719 50.9615C11.1344 50.964 11.5925 50.964 12.0562 50.964H139.26C139.715 50.964 140.177 50.964 140.631 50.9615C141.016 50.9615 141.412 50.9565 141.797 50.9478C142.644 50.9372 143.49 50.8619 144.326 50.7227C145.165 50.5767 145.978 50.3061 146.739 49.9196C147.495 49.5326 148.186 49.026 148.783 48.4188C149.385 47.8169 149.89 47.1233 150.277 46.3635C150.659 45.6 150.923 44.7825 151.06 43.9389C151.201 43.0963 151.28 42.2443 151.295 41.39C151.3 40.9946 151.3 40.6116 151.3 40.2163C151.31 39.7537 151.31 39.2937 151.31 38.8236V12.1769C151.31 11.7106 151.31 11.2481 151.3 10.7868C151.3 10.3964 151.3 10.0047 151.295 9.61429C151.28 8.75994 151.201 7.90792 151.06 7.06531C150.923 6.22224 150.659 5.40512 150.277 4.64197C149.497 3.11039 148.259 1.86369 146.739 1.07722C145.978 0.691751 145.165 0.422686 144.326 0.278914C143.49 0.138583 142.644 0.0633424 141.797 0.0538598C141.412 0.0476465 141.016 0.0401855 140.631 0.0377027C140.177 0.0351562 139.715 0.0351562 139.26 0.0351562V0.0353218Z" fill="#A6A6A6"/>
<path d="M10.6773 49.849C10.292 49.849 9.91605 49.844 9.53382 49.8353C8.74199 49.825 7.95202 49.7555 7.17037 49.6277C6.44153 49.5013 5.73548 49.2662 5.0755 48.9301C4.42158 48.5968 3.82515 48.1598 3.30906 47.6357C2.7855 47.1179 2.34961 46.5173 2.01867 45.8577C1.68408 45.1938 1.45253 44.4822 1.33207 43.7477C1.20199 42.9585 1.13161 42.1604 1.12154 41.3604C1.11352 41.0919 1.10303 40.1979 1.10303 40.1979V10.7858C1.10303 10.7858 1.11421 9.90553 1.1216 9.6469C1.13124 8.84819 1.20122 8.05138 1.33091 7.26335C1.45159 6.52682 1.68332 5.81318 2.01809 5.14714C2.34781 4.48801 2.78128 3.88695 3.30169 3.36725C3.82151 2.84261 4.41985 2.40332 5.07488 2.06542C5.73334 1.73042 6.43806 1.49696 7.16543 1.37287C7.94964 1.24372 8.74236 1.1739 9.53693 1.16398L10.6779 1.14844H140.624L141.779 1.16461C142.566 1.17403 143.351 1.24323 144.128 1.37162C144.863 1.49727 145.575 1.73235 146.241 2.06915C147.554 2.75013 148.621 3.82749 149.295 5.15025C149.624 5.81169 149.853 6.51951 149.972 7.24968C150.103 8.04417 150.176 8.84725 150.191 9.65251C150.195 10.0131 150.195 10.4004 150.195 10.7858C150.205 11.2633 150.205 11.7178 150.205 12.1759V38.8227C150.205 39.2852 150.205 39.7366 150.195 40.1916C150.195 40.6057 150.195 40.985 150.19 41.3753C150.175 42.1662 150.103 42.955 149.974 43.7352C149.856 44.4751 149.626 45.1922 149.291 45.8615C148.958 46.5139 148.525 47.1093 148.007 47.6258C147.491 48.1526 146.893 48.5922 146.238 48.9277C145.573 49.2663 144.862 49.5023 144.128 49.6277C143.347 49.7562 142.557 49.8256 141.765 49.8353C141.395 49.844 141.007 49.849 140.63 49.849L139.26 49.8515L10.6773 49.849Z" fill="black"/>
<path d="M31.3184 25.8807C31.332 24.818 31.6124 23.776 32.1334 22.8517C32.6543 21.9274 33.3991 21.1509 34.2982 20.5942C33.727 19.7728 32.9735 19.0968 32.0974 18.6199C31.2214 18.143 30.2469 17.8784 29.2516 17.8471C27.1282 17.6226 25.0698 19.1264 23.9878 19.1264C22.8848 19.1264 21.2189 17.8693 19.425 17.9065C18.2646 17.9442 17.1338 18.284 16.1426 18.8927C15.1514 19.5014 14.3337 20.3582 13.7692 21.3797C11.3237 25.6429 13.1478 31.9085 15.4904 35.3546C16.6624 37.0421 18.0321 38.927 19.8244 38.8601C21.5783 38.7869 22.2333 37.734 24.3504 37.734C26.4478 37.734 27.0624 38.8601 28.8911 38.8176C30.7731 38.7869 31.9588 37.1227 33.0897 35.4192C33.9318 34.2169 34.5798 32.888 35.0097 31.4818C33.9163 31.0162 32.9832 30.2367 32.3268 29.2407C31.6704 28.2447 31.3197 27.0761 31.3184 25.8807V25.8807Z" fill="white"/>
<path d="M27.8644 15.581C28.8905 14.3407 29.3961 12.7464 29.2737 11.1367C27.706 11.3025 26.2578 12.057 25.2178 13.2498C24.7093 13.8325 24.3199 14.5104 24.0717 15.2447C23.8236 15.9791 23.7216 16.7555 23.7717 17.5295C24.5558 17.5377 25.3315 17.3665 26.0405 17.029C26.7494 16.6915 27.373 16.1964 27.8644 15.581Z" fill="white"/>
<path d="M53.4888 34.5881H47.5037L46.0663 38.8616H43.5312L49.2003 23.0508H51.8342L57.5032 38.8616H54.9249L53.4888 34.5881ZM48.1235 32.6161H52.8678L50.529 25.6805H50.4636L48.1235 32.6161Z" fill="white"/>
<path d="M69.7466 33.1019C69.7466 36.684 67.8425 38.9855 64.9691 38.9855C64.2412 39.0239 63.5173 38.855 62.8803 38.4984C62.2433 38.1417 61.7189 37.6116 61.3671 36.9688H61.3128V42.6783H58.9629V27.3376H61.2375V29.2549H61.2807C61.6486 28.6151 62.1818 28.0878 62.8237 27.7289C63.4656 27.3701 64.1921 27.1931 64.9259 27.217C67.8313 27.217 69.7466 29.5297 69.7466 33.1019ZM67.3313 33.1019C67.3313 30.7681 66.1335 29.2337 64.306 29.2337C62.5106 29.2337 61.3029 30.8004 61.3029 33.1019C61.3029 35.4245 62.5106 36.98 64.306 36.98C66.1335 36.98 67.3313 35.4568 67.3313 33.1019Z" fill="white"/>
<path d="M82.3467 33.1019C82.3467 36.684 80.4426 38.9855 77.5692 38.9855C76.8413 39.0239 76.1174 38.855 75.4804 38.4983C74.8434 38.1417 74.319 37.6116 73.9672 36.9687H73.9129V42.6783H71.563V27.3376H73.8375V29.2549H73.8807C74.2486 28.6151 74.7819 28.0878 75.4238 27.7289C76.0657 27.3701 76.7921 27.1931 77.5259 27.217C80.4315 27.217 82.3467 29.5296 82.3467 33.1019ZM79.9314 33.1019C79.9314 30.7681 78.7336 29.2337 76.9061 29.2337C75.1107 29.2337 73.903 30.8004 73.903 33.1019C73.903 35.4245 75.1107 36.98 76.9061 36.98C78.7336 36.98 79.9314 35.4568 79.9314 33.1019H79.9314Z" fill="white"/>
<path d="M90.674 34.4582C90.8481 36.0261 92.3608 37.0556 94.4279 37.0556C96.4085 37.0556 97.8335 36.0261 97.8335 34.6123C97.8335 33.3851 96.9741 32.6503 94.9391 32.1467L92.9041 31.6531C90.0208 30.9518 88.6823 29.5941 88.6823 27.3908C88.6823 24.6628 91.0432 22.7891 94.3958 22.7891C97.7137 22.7891 99.9883 24.6628 100.065 27.3908H97.6927C97.5507 25.813 96.2554 24.8605 94.3624 24.8605C92.4694 24.8605 91.1741 25.8242 91.1741 27.2267C91.1741 28.3445 92.0014 29.0022 94.0253 29.5057L95.7553 29.9335C98.9769 30.7006 100.315 32.0037 100.315 34.3164C100.315 37.2743 97.9755 39.127 94.2537 39.127C90.7715 39.127 88.4204 37.3179 88.2686 34.4581L90.674 34.4582Z" fill="white"/>
<path d="M105.387 24.6055V27.3334H107.564V29.2072H105.387V35.5621C105.387 36.5493 105.823 37.0094 106.78 37.0094C107.038 37.0048 107.296 36.9866 107.553 36.9546V38.8172C107.122 38.8982 106.685 38.9348 106.248 38.9266C103.93 38.9266 103.026 38.05 103.026 35.8145V29.2072H101.361V27.3334H103.026V24.6055H105.387Z" fill="white"/>
<path d="M108.824 33.0974C108.824 29.4705 110.946 27.1914 114.254 27.1914C117.573 27.1914 119.684 29.4705 119.684 33.0974C119.684 36.7343 117.584 39.0035 114.254 39.0035C110.925 39.0035 108.824 36.7343 108.824 33.0974ZM117.29 33.0974C117.29 30.6094 116.158 29.141 114.254 29.141C112.35 29.141 111.219 30.6206 111.219 33.0974C111.219 35.5954 112.35 37.0526 114.254 37.0526C116.158 37.0526 117.29 35.5954 117.29 33.0974H117.29Z" fill="white"/>
<path d="M121.623 27.3375H123.864V29.2995H123.918C124.07 28.6867 124.426 28.1452 124.928 27.7659C125.429 27.3866 126.045 27.1928 126.672 27.2168C126.943 27.2159 127.213 27.2455 127.477 27.3051V29.5183C127.135 29.4132 126.778 29.3649 126.421 29.3754C126.08 29.3614 125.739 29.422 125.423 29.553C125.108 29.684 124.824 29.8823 124.591 30.1343C124.358 30.3862 124.183 30.6859 124.076 31.0127C123.969 31.3395 123.934 31.6857 123.972 32.0275V38.8648H121.623L121.623 27.3375Z" fill="white"/>
<path d="M138.311 35.4748C137.995 37.5674 135.971 39.0035 133.381 39.0035C130.051 39.0035 127.984 36.7567 127.984 33.1521C127.984 29.5364 130.062 27.1914 133.282 27.1914C136.45 27.1914 138.442 29.3822 138.442 32.8774V33.688H130.356V33.831C130.319 34.2553 130.371 34.6826 130.511 35.0848C130.65 35.4869 130.873 35.8546 131.164 36.1634C131.455 36.4722 131.808 36.7151 132.2 36.8759C132.592 37.0367 133.013 37.1118 133.436 37.0961C133.991 37.1485 134.548 37.019 135.025 36.7269C135.501 36.4348 135.871 35.9956 136.079 35.4748L138.311 35.4748ZM130.367 32.0344H136.09C136.112 31.6529 136.054 31.2712 135.922 30.9131C135.789 30.5551 135.585 30.2285 135.321 29.9538C135.058 29.679 134.74 29.4622 134.39 29.3167C134.039 29.1713 133.662 29.1005 133.282 29.1087C132.9 29.1064 132.521 29.1804 132.166 29.3265C131.812 29.4726 131.49 29.6879 131.219 29.9599C130.948 30.2319 130.733 30.5552 130.587 30.9113C130.441 31.2673 130.366 31.649 130.367 32.0344V32.0344Z" fill="white"/>
<path d="M47.8288 11.1453C48.3214 11.1097 48.8158 11.1847 49.2762 11.3648C49.7366 11.5448 50.1515 11.8256 50.4912 12.1867C50.8308 12.5478 51.0866 12.9803 51.2401 13.453C51.3936 13.9257 51.441 14.4268 51.3789 14.9202C51.3789 17.3473 50.0761 18.7424 47.8288 18.7424H45.1035V11.1453H47.8288ZM46.2754 17.668H47.6979C48.0499 17.6892 48.4022 17.6311 48.7291 17.4979C49.056 17.3647 49.3493 17.1598 49.5877 16.8981C49.826 16.6363 50.0034 16.3244 50.1069 15.9849C50.2104 15.6454 50.2374 15.287 50.186 14.9357C50.2337 14.5858 50.2039 14.2296 50.0988 13.8926C49.9937 13.5556 49.8159 13.2462 49.5781 12.9866C49.3403 12.7269 49.0484 12.5235 48.7234 12.3907C48.3983 12.258 48.0481 12.1994 47.6979 12.2189H46.2754V17.668Z" fill="white"/>
<path d="M52.7022 15.8771C52.6664 15.5003 52.7092 15.1201 52.8278 14.761C52.9465 14.4019 53.1384 14.0717 53.3912 13.7916C53.644 13.5115 53.9522 13.2877 54.2959 13.1346C54.6397 12.9814 55.0114 12.9023 55.3873 12.9023C55.7632 12.9023 56.1349 12.9814 56.4786 13.1346C56.8224 13.2877 57.1305 13.5115 57.3834 13.7916C57.6362 14.0717 57.8281 14.4019 57.9467 14.761C58.0654 15.1201 58.1082 15.5003 58.0724 15.8771C58.1089 16.2542 58.0666 16.6349 57.9482 16.9946C57.8299 17.3543 57.6381 17.6851 57.3852 17.9658C57.1323 18.2464 56.8239 18.4706 56.4799 18.6241C56.1358 18.7776 55.7636 18.8569 55.3873 18.8569C55.0109 18.8569 54.6388 18.7776 54.2947 18.6241C53.9506 18.4706 53.6422 18.2464 53.3893 17.9658C53.1364 17.6851 52.9447 17.3543 52.8263 16.9946C52.708 16.6349 52.6657 16.2542 52.7022 15.8771V15.8771ZM56.9166 15.8771C56.9166 14.6343 56.3621 13.9076 55.3891 13.9076C54.4124 13.9076 53.8629 14.6343 53.8629 15.8771C53.8629 17.1298 54.4124 17.8509 55.3891 17.8509C56.3622 17.8509 56.9166 17.1248 56.9166 15.8771H56.9166Z" fill="white"/>
<path d="M65.2115 18.7449H64.0458L62.869 14.5224H62.7801L61.6083 18.7449H60.4537L58.8843 13.0117H60.024L61.044 17.3865H61.128L62.2986 13.0117H63.3766L64.5472 17.3865H64.6361L65.6511 13.0117H66.7748L65.2115 18.7449Z" fill="white"/>
<path d="M68.0942 13.0108H69.1759V13.9216H69.2599C69.4024 13.5945 69.6426 13.3203 69.9472 13.1372C70.2518 12.9541 70.6055 12.8712 70.959 12.9002C71.2361 12.8792 71.5142 12.9213 71.7729 13.0232C72.0317 13.1252 72.2643 13.2845 72.4535 13.4893C72.6428 13.6941 72.7839 13.9391 72.8663 14.2063C72.9488 14.4734 72.9705 14.7558 72.9298 15.0326V18.744H71.8061V15.3167C71.8061 14.3954 71.4085 13.9372 70.5775 13.9372C70.3894 13.9283 70.2016 13.9606 70.027 14.0317C69.8525 14.1027 69.6952 14.211 69.5661 14.349C69.437 14.487 69.339 14.6515 69.2789 14.8312C69.2188 15.0108 69.198 15.2015 69.2179 15.39V18.744H68.0942L68.0942 13.0108Z" fill="white"/>
<path d="M74.7212 10.7734H75.8449V18.7447H74.7212V10.7734Z" fill="white"/>
<path d="M77.4062 15.8733C77.3705 15.4965 77.4133 15.1163 77.532 14.7572C77.6507 14.398 77.8426 14.0678 78.0954 13.7877C78.3483 13.5076 78.6565 13.2838 79.0002 13.1307C79.344 12.9775 79.7157 12.8984 80.0917 12.8984C80.4676 12.8984 80.8393 12.9775 81.1831 13.1307C81.5269 13.2838 81.835 13.5076 82.0879 13.7877C82.3407 14.0678 82.5326 14.398 82.6513 14.7572C82.77 15.1163 82.8128 15.4965 82.7771 15.8733C82.8135 16.2504 82.7712 16.6311 82.6528 16.9908C82.5344 17.3505 82.3426 17.6813 82.0897 17.962C81.8368 18.2426 81.5284 18.4668 81.1843 18.6203C80.8402 18.7737 80.468 18.853 80.0917 18.853C79.7153 18.853 79.3431 18.7737 78.999 18.6203C78.6549 18.4668 78.3465 18.2426 78.0936 17.962C77.8407 17.6813 77.6489 17.3505 77.5305 16.9908C77.4121 16.6311 77.3698 16.2504 77.4062 15.8733V15.8733ZM81.6207 15.8733C81.6207 14.6305 81.0662 13.9038 80.0932 13.9038C79.1165 13.9038 78.567 14.6305 78.567 15.8733C78.567 17.126 79.1165 17.8471 80.0932 17.8471C81.0662 17.8471 81.6207 17.121 81.6207 15.8733H81.6207Z" fill="white"/>
<path d="M83.96 17.1209C83.96 16.0889 84.7231 15.494 86.0777 15.4094L87.62 15.3199V14.825C87.62 14.2195 87.2224 13.8776 86.4543 13.8776C85.827 13.8776 85.3924 14.1095 85.2676 14.5148H84.1798C84.2946 13.5301 85.2145 12.8984 86.5062 12.8984C87.9336 12.8984 88.7387 13.614 88.7387 14.825V18.7423H87.657V17.9366H87.5681C87.3876 18.2256 87.1342 18.4612 86.8338 18.6194C86.5333 18.7775 86.1966 18.8525 85.8579 18.8368C85.6189 18.8618 85.3773 18.8361 85.1487 18.7614C84.9201 18.6866 84.7097 18.5645 84.5309 18.4028C84.352 18.2412 84.2089 18.0436 84.1105 17.8228C84.0122 17.602 83.9609 17.3629 83.96 17.1209V17.1209ZM87.62 16.631V16.1517L86.2296 16.2412C85.4454 16.2941 85.0898 16.5627 85.0898 17.0681C85.0898 17.5841 85.5343 17.8844 86.1456 17.8844C86.3247 17.9026 86.5057 17.8844 86.6776 17.8308C86.8496 17.7772 87.0091 17.6893 87.1467 17.5724C87.2842 17.4555 87.397 17.3119 87.4783 17.1502C87.5596 16.9884 87.6078 16.8119 87.62 16.631V16.631Z" fill="white"/>
<path d="M90.2158 15.8756C90.2158 14.0641 91.1407 12.9164 92.5793 12.9164C92.9351 12.8999 93.2883 12.9857 93.5974 13.1638C93.9066 13.342 94.1591 13.605 94.3253 13.9223H94.4093V10.7734H95.533V18.7447H94.4562V17.8389H94.3673C94.1882 18.154 93.927 18.4138 93.6118 18.5901C93.2966 18.7664 92.9396 18.8526 92.5793 18.8392C91.1308 18.8393 90.2158 17.6916 90.2158 15.8756ZM91.3766 15.8756C91.3766 17.0917 91.9458 17.8234 92.8979 17.8234C93.845 17.8234 94.4303 17.0811 94.4303 15.8806C94.4303 14.6857 93.8388 13.9329 92.8979 13.9329C91.952 13.9329 91.3766 14.6696 91.3766 15.8756H91.3766Z" fill="white"/>
<path d="M100.182 15.8771C100.146 15.5003 100.189 15.1201 100.308 14.761C100.426 14.4019 100.618 14.0717 100.871 13.7916C101.124 13.5115 101.432 13.2877 101.776 13.1346C102.12 12.9814 102.491 12.9023 102.867 12.9023C103.243 12.9023 103.615 12.9814 103.959 13.1346C104.302 13.2877 104.61 13.5115 104.863 13.7916C105.116 14.0717 105.308 14.4019 105.427 14.761C105.545 15.1201 105.588 15.5003 105.552 15.8771C105.589 16.2542 105.547 16.6349 105.428 16.9946C105.31 17.3543 105.118 17.6851 104.865 17.9658C104.612 18.2464 104.304 18.4706 103.96 18.6241C103.616 18.7776 103.244 18.8569 102.867 18.8569C102.491 18.8569 102.119 18.7776 101.775 18.6241C101.431 18.4706 101.122 18.2464 100.869 17.9658C100.616 17.6851 100.425 17.3543 100.306 16.9946C100.188 16.6349 100.146 16.2542 100.182 15.8771V15.8771ZM104.397 15.8771C104.397 14.6343 103.842 13.9076 102.869 13.9076C101.892 13.9076 101.343 14.6343 101.343 15.8771C101.343 17.1298 101.892 17.8509 102.869 17.8509C103.842 17.8509 104.397 17.1248 104.397 15.8771Z" fill="white"/>
<path d="M107.06 13.0108H108.142V13.9216H108.226C108.368 13.5945 108.608 13.3203 108.913 13.1372C109.218 12.9541 109.571 12.8712 109.925 12.9002C110.202 12.8792 110.48 12.9213 110.739 13.0232C110.997 13.1252 111.23 13.2845 111.419 13.4893C111.609 13.6941 111.75 13.9391 111.832 14.2063C111.915 14.4734 111.936 14.7558 111.896 15.0326V18.744H110.772V15.3167C110.772 14.3954 110.374 13.9372 109.543 13.9372C109.355 13.9283 109.167 13.9606 108.993 14.0317C108.818 14.1027 108.661 14.211 108.532 14.349C108.403 14.487 108.305 14.6515 108.245 14.8312C108.185 15.0108 108.164 15.2015 108.184 15.39V18.744H107.06V13.0108Z" fill="white"/>
<path d="M118.244 11.582V13.0355H119.478V13.9886H118.244V16.9366C118.244 17.5372 118.49 17.8002 119.049 17.8002C119.192 17.7997 119.336 17.791 119.478 17.774V18.7165C119.276 18.7529 119.071 18.7722 118.866 18.7743C117.617 18.7743 117.119 18.3317 117.119 17.2263V13.9885H116.215V13.0355H117.119V11.582H118.244Z" fill="white"/>
<path d="M121.014 10.7734H122.128V13.9329H122.217C122.366 13.6027 122.613 13.3269 122.924 13.1431C123.234 12.9594 123.594 12.8765 123.953 12.9058C124.229 12.8907 124.504 12.9371 124.76 13.0415C125.016 13.146 125.245 13.306 125.433 13.5101C125.62 13.7143 125.76 13.9575 125.843 14.2225C125.927 14.4875 125.951 14.7677 125.914 15.0432V18.7447H124.789V15.3223C124.789 14.4066 124.365 13.9428 123.572 13.9428C123.378 13.9268 123.184 13.9536 123.002 14.0211C122.821 14.0887 122.656 14.1954 122.519 14.3339C122.382 14.4723 122.278 14.6391 122.212 14.8226C122.146 15.0062 122.121 15.2019 122.138 15.3963V18.7447H121.014L121.014 10.7734Z" fill="white"/>
<path d="M132.465 17.1944C132.313 17.7184 131.982 18.1716 131.531 18.4748C131.08 18.778 130.537 18.9119 129.998 18.8531C129.623 18.863 129.25 18.7907 128.906 18.641C128.561 18.4914 128.253 18.268 128.003 17.9865C127.753 17.7049 127.566 17.3719 127.457 17.0106C127.347 16.6492 127.317 16.2681 127.368 15.8938C127.318 15.5184 127.349 15.1365 127.458 14.774C127.568 14.4116 127.753 14.077 128.002 13.793C128.251 13.509 128.557 13.2821 128.901 13.1278C129.245 12.9735 129.617 12.8953 129.993 12.8985C131.578 12.8985 132.533 13.9884 132.533 15.7887V16.1835H128.513V16.247C128.495 16.4573 128.521 16.6691 128.59 16.8687C128.658 17.0683 128.767 17.2512 128.91 17.4059C129.053 17.5605 129.226 17.6834 129.419 17.7667C129.612 17.8499 129.819 17.8917 130.029 17.8894C130.298 17.9219 130.57 17.8732 130.811 17.7494C131.053 17.6256 131.252 17.4324 131.384 17.1944L132.465 17.1944ZM128.513 15.3467H131.389C131.403 15.1543 131.377 14.961 131.312 14.7793C131.248 14.5976 131.146 14.4315 131.014 14.2916C130.882 14.1517 130.723 14.0412 130.546 13.9672C130.369 13.8931 130.179 13.8571 129.987 13.8615C129.793 13.8591 129.6 13.8958 129.42 13.9696C129.24 14.0434 129.076 14.1527 128.939 14.2911C128.801 14.4295 128.693 14.5942 128.62 14.7755C128.547 14.9568 128.51 15.151 128.513 15.3467H128.513Z" fill="white"/>
</svg>
