<svg width="71" height="87" viewBox="0 0 71 87" fill="none" xmlns="http://www.w3.org/2000/svg">
<path fill-rule="evenodd" clip-rule="evenodd" d="M53.3775 37.7532H43.9479V24.1316H67.5232C67.5232 26.8232 61.5301 37.7532 53.3775 37.7532ZM0.5 4.67001V0L14.2393 0.0318337V0.0159169L51.1434 0C61.4531 0 67.5232 9.45463 67.5232 13.6217H10.267C10.267 9.23179 7.59074 4.67001 0.5 4.67001ZM10.267 24.1316H33.5061V37.7532H10.267V24.1316ZM33.5061 61.8834H10.267V48.2617H33.5061V61.8834ZM43.9465 48.2617H54.3871C64.9694 48.2617 70.2172 58.0538 70.2172 61.8834H43.9479L43.9465 48.2617ZM10.267 72.3932H33.5061V78.2316H43.9465V72.3932L70.2172 72.4027C70.2172 77.2082 62.6568 86.0165 54.7246 86.0165H0.5V81.3449C7.53426 81.3449 10.267 77.0473 10.267 72.3932Z" fill="#3672FF"/>
</svg>
