<svg width="54" height="54" viewBox="0 0 54 54" fill="none" xmlns="http://www.w3.org/2000/svg">
<path d="M32.4411 12.3524C31.37 12.1546 30.3863 12.8381 30.1824 13.8836C29.9785 14.9292 30.6642 15.95 31.7061 16.1546C34.8432 16.7662 37.2655 19.1945 37.8795 22.3423V22.3446C38.0542 23.2507 38.852 23.9095 39.7707 23.9095C39.8939 23.9095 40.0172 23.8983 40.1426 23.8758C41.1846 23.6667 41.8703 22.6481 41.6664 21.6003C40.7499 16.8988 37.131 13.2676 32.4411 12.3524Z" fill="#005490"/>
<path d="M32.3007 4.51784C31.7987 4.44589 31.2946 4.59429 30.8935 4.91357C30.4811 5.23735 30.2235 5.70503 30.1674 6.22892C30.0487 7.28794 30.8128 8.24578 31.8704 8.36495C39.1642 9.17889 44.8333 14.8607 45.6535 22.1772C45.7633 23.1575 46.5856 23.8973 47.5671 23.8973C47.641 23.8973 47.7127 23.8928 47.7867 23.8838C48.2998 23.8276 48.7569 23.5735 49.0796 23.1688C49.4 22.7641 49.5457 22.2604 49.4874 21.7455C48.4656 12.6168 41.4005 5.5319 32.3007 4.51784Z" fill="#005490"/>
<path fill-rule="evenodd" clip-rule="evenodd" d="M24.8214 29.1879C33.7969 38.1608 35.833 27.7801 41.5477 33.4908C47.0571 38.9987 50.2236 40.1022 43.2433 47.0806C42.3689 47.7833 36.8136 56.2371 17.2904 36.7192C-2.23533 17.199 6.21357 11.638 6.91643 10.7639C13.9137 3.76615 14.9982 6.95111 20.5076 12.459C26.2223 18.1721 15.846 20.2149 24.8214 29.1879Z" fill="#005490"/>
</svg>
