<svg width="80" height="80" viewBox="0 0 80 80" fill="none" xmlns="http://www.w3.org/2000/svg">
<path d="M80 62.206C80 72.0333 72.0333 80 62.206 80L4.94279 80C2.21296 80 1.93463e-07 77.787 4.32112e-07 75.0572L6.1296e-06 9.88556C6.6069e-06 4.42591 4.42593 -6.6069e-06 9.88558 -6.1296e-06L75.0572 -4.32112e-07C77.787 -1.93464e-07 80 2.21296 80 4.94278L80 62.206Z" fill="#F5FAFF"/>
<path d="M44.8366 26.9799C43.8845 26.804 43.0101 27.4116 42.8289 28.3409C42.6476 29.2703 43.2571 30.1777 44.1833 30.3596C46.9718 30.9032 49.125 33.0617 49.6707 35.8598V35.8618C49.8261 36.6672 50.5352 37.2528 51.3518 37.2528C51.4614 37.2528 51.5709 37.2428 51.6824 37.2228C52.6086 37.037 53.2181 36.1316 53.0369 35.2002C52.2222 31.0211 49.0055 27.7933 44.8366 26.9799" fill="url(#paint0_linear_191_634)"/>
<path d="M44.7121 20.0159C44.266 19.9519 43.8178 20.0838 43.4613 20.3676C43.0948 20.6554 42.8657 21.0711 42.8159 21.5368C42.7104 22.4782 43.3896 23.3296 44.3297 23.4355C50.813 24.159 55.8523 29.2095 56.5813 35.7131C56.6789 36.5845 57.4099 37.242 58.2823 37.242C58.348 37.242 58.4118 37.238 58.4775 37.23C58.9336 37.1801 59.3399 36.9542 59.6268 36.5945C59.9116 36.2347 60.041 35.787 59.9893 35.3293C59.081 27.2149 52.8008 20.9172 44.7121 20.0159" fill="url(#paint1_linear_191_634)"/>
<path fill-rule="evenodd" clip-rule="evenodd" d="M38.0635 41.9448C46.0416 49.9207 47.8515 40.6934 52.9313 45.7696C57.8286 50.6655 60.6432 51.6464 54.4385 57.8494C53.6613 58.474 48.7232 65.9885 31.3692 48.6393C14.013 31.288 21.5232 26.3449 22.1479 25.5679C28.3677 19.3477 29.3317 22.1788 34.229 27.0747C39.3087 32.153 30.0853 33.9688 38.0635 41.9448Z" fill="url(#paint2_linear_191_634)"/>
<defs>
<linearGradient id="paint0_linear_191_634" x1="42.797" y1="26.9496" x2="53.5165" y2="27.4386" gradientUnits="userSpaceOnUse">
<stop stop-color="#006AB6"/>
<stop offset="1" stop-color="#00406D"/>
</linearGradient>
<linearGradient id="paint1_linear_191_634" x1="42.8051" y1="20" x2="60.7498" y2="20.8188" gradientUnits="userSpaceOnUse">
<stop stop-color="#006AB6"/>
<stop offset="1" stop-color="#00406D"/>
</linearGradient>
<linearGradient id="paint2_linear_191_634" x1="20" y1="22" x2="59.6557" y2="23.8144" gradientUnits="userSpaceOnUse">
<stop stop-color="#006AB6"/>
<stop offset="1" stop-color="#00406D"/>
</linearGradient>
</defs>
</svg>
