<svg width="1920" height="889" viewBox="0 0 1920 889" fill="none" xmlns="http://www.w3.org/2000/svg">
<rect width="1920" height="889" fill="url(#paint0_linear_5067_3775)"/>
<g opacity="0.2">
<mask id="mask0_5067_3775" style="mask-type:alpha" maskUnits="userSpaceOnUse" x="0" y="0" width="1920" height="889">
<rect width="1920" height="889" fill="url(#paint1_linear_5067_3775)"/>
</mask>
<g mask="url(#mask0_5067_3775)">
<mask id="mask1_5067_3775" style="mask-type:luminance" maskUnits="userSpaceOnUse" x="1745" y="278" width="198" height="635">
<path d="M1842 912.988C1830.16 889.507 1815.41 864.124 1797.27 836.701L1797.26 836.675C1683.25 653.63 1779.94 515.055 1881.58 369.394C1902.44 339.497 1923.51 309.3 1943 278.367V281.621C1923.82 311.931 1903.17 341.527 1882.72 370.835C1781.53 515.85 1685.27 653.804 1798.38 835.42C1816.83 863.324 1831.8 889.133 1843.77 912.991H1842V912.988Z" fill="white"/>
</mask>
<g mask="url(#mask1_5067_3775)">
<path d="M1943 278.363H1683.25V912.987H1943V278.363Z" fill="url(#paint2_linear_5067_3775)"/>
</g>
<mask id="mask2_5067_3775" style="mask-type:luminance" maskUnits="userSpaceOnUse" x="1739" y="-210" width="204" height="1123">
<path d="M1942.99 -185.313C1938.17 -193.466 1933.06 -201.687 1927.59 -209.988H1929.58C1934.29 -202.793 1938.76 -195.656 1942.99 -188.57V-185.313ZM1842.82 912.995C1830.38 890.378 1815.05 866.065 1796.37 839.947L1796.35 839.925C1677.05 662.885 1769.04 518.616 1865.74 366.967C1892.62 324.827 1919.85 282.111 1942.99 237.983V241.621C1920.09 284.966 1893.33 326.93 1866.93 368.343C1770.65 519.321 1679.07 662.952 1797.45 838.625C1816.48 865.237 1832.04 889.988 1844.64 912.993H1842.82V912.995Z" fill="white"/>
</mask>
<g mask="url(#mask2_5067_3775)">
<path d="M1943 -209.988H1677.05V912.995H1943V-209.988Z" fill="url(#paint3_linear_5067_3775)"/>
</g>
<mask id="mask3_5067_3775" style="mask-type:luminance" maskUnits="userSpaceOnUse" x="1734" y="-210" width="209" height="1123">
<path d="M1943 -132.657C1931.52 -157.848 1916.87 -183.612 1898.67 -210H1900.69C1917.86 -184.991 1931.86 -160.532 1943 -136.59V-132.657ZM1844.41 912.986C1831.3 891.004 1815.25 867.477 1795.81 842.328L1795.79 842.302C1671.41 671.573 1758.54 521.861 1850.13 364.491C1883.98 306.328 1918.44 247.112 1943 185.451V189.854C1918.48 250.453 1884.62 308.638 1851.35 365.807C1760.17 522.473 1673.43 671.517 1796.82 840.916C1816.67 866.59 1832.99 890.583 1846.27 912.984H1844.41V912.986Z" fill="white"/>
</mask>
<g mask="url(#mask3_5067_3775)">
<path d="M1943 -209.996H1671.41V912.988H1943V-209.996Z" fill="url(#paint4_linear_5067_3775)"/>
</g>
<mask id="mask4_5067_3775" style="mask-type:luminance" maskUnits="userSpaceOnUse" x="1728" y="-210" width="215" height="1123">
<path d="M1942.99 -53.5972C1931.91 -104.025 1908.88 -156.045 1869.81 -209.988H1871.87C1908.87 -158.62 1931.42 -108.966 1942.99 -60.7563V-53.5972H1942.99ZM1846.83 912.995C1832.96 891.389 1816.02 868.359 1795.53 843.841L1795.51 843.819C1666.26 679.702 1748.38 524.807 1834.7 361.987C1870.7 294.093 1907.43 224.81 1929.78 152.978C1935.05 136.043 1939.52 118.962 1942.99 101.719V109.361C1939.74 124.31 1935.77 139.142 1931.19 153.865C1908.77 225.899 1872 295.261 1835.96 363.233C1750.01 525.332 1668.26 679.542 1796.51 842.393C1817.44 867.447 1834.69 890.957 1848.76 912.993H1846.83V912.995Z" fill="white"/>
</mask>
<g mask="url(#mask4_5067_3775)">
<path d="M1942.99 -209.988H1666.25V912.995H1942.99V-209.988Z" fill="url(#paint5_linear_5067_3775)"/>
</g>
<mask id="mask5_5067_3775" style="mask-type:luminance" maskUnits="userSpaceOnUse" x="1722" y="-210" width="205" height="1123">
<path d="M1850.27 912.995C1835.49 891.501 1817.42 868.668 1795.53 844.451L1795.51 844.428C1661.61 687.203 1738.58 527.398 1819.48 359.415C1853.22 289.368 1887.65 217.89 1907.67 144.656C1938.66 31.3096 1935.11 -86.4139 1841 -209.988H1843.14C1936.8 -86.2286 1940.18 31.7869 1909.1 145.471C1889.02 218.903 1854.56 290.466 1820.78 360.597C1740.23 527.836 1663.61 686.937 1796.47 842.949C1818.86 867.716 1837.27 891.052 1852.26 912.998H1850.27V912.995Z" fill="white"/>
</mask>
<g mask="url(#mask5_5067_3775)">
<path d="M1940.18 -209.988H1661.61V912.995H1940.18V-209.988Z" fill="url(#paint6_linear_5067_3775)"/>
</g>
<mask id="mask6_5067_3775" style="mask-type:luminance" maskUnits="userSpaceOnUse" x="1717" y="-210" width="184" height="1123">
<path d="M1854.81 912.995C1838.98 891.333 1819.5 868.387 1795.75 844.145L1795.74 844.128C1657.43 694.07 1729.11 529.627 1804.46 356.776C1835.88 284.694 1867.94 211.14 1885.59 136.644C1912.54 22.9545 1905.88 -93.1182 1812.14 -209.988H1814.33C1907.55 -92.9498 1914.06 23.3841 1887.04 137.374C1869.34 212.089 1837.24 285.724 1805.78 357.885C1730.77 529.97 1659.41 693.683 1796.63 842.575C1820.94 867.388 1840.79 890.855 1856.85 912.993H1854.81V912.995Z" fill="white"/>
</mask>
<g mask="url(#mask6_5067_3775)">
<path d="M1914.06 -209.988H1657.44V912.995H1914.06V-209.988Z" fill="url(#paint7_linear_5067_3775)"/>
</g>
<mask id="mask7_5067_3775" style="mask-type:luminance" maskUnits="userSpaceOnUse" x="1711" y="-210" width="165" height="1123">
<path d="M1860.61 912.995C1843.55 890.87 1822.34 867.5 1796.19 842.912L1796.17 842.89C1653.71 700.264 1719.97 531.475 1789.63 354.053C1818.67 280.073 1848.31 204.582 1863.57 128.929C1886.56 14.9813 1876.87 -99.4603 1783.28 -209.988H1785.55C1878.56 -99.2947 1888.07 15.3743 1865.03 129.583C1849.73 205.424 1820.06 281.013 1790.98 355.092C1721.63 531.722 1655.66 699.758 1797.01 841.278C1823.77 866.45 1845.4 890.367 1862.7 912.995H1860.61Z" fill="white"/>
</mask>
<g mask="url(#mask7_5067_3775)">
<path d="M1888.08 -209.988H1653.71V912.995H1888.08V-209.988Z" fill="url(#paint8_linear_5067_3775)"/>
</g>
<mask id="mask8_5067_3775" style="mask-type:luminance" maskUnits="userSpaceOnUse" x="1706" y="-210" width="164" height="1123">
<path d="M1867.81 912.995C1849.36 890.089 1826.02 865.973 1796.83 840.736L1796.81 840.714C1650.42 705.766 1711.15 532.926 1775 351.242C1801.62 275.485 1828.78 198.184 1841.62 121.517C1860.74 7.3674 1848.01 -105.48 1754.29 -209.988H1756.63C1849.69 -105.317 1862.25 7.72395 1843.1 122.09C1830.23 198.939 1803.03 276.347 1776.38 352.205C1712.82 533.081 1652.35 705.149 1797.59 839.055C1827.47 864.886 1851.25 889.567 1869.95 912.995H1867.81Z" fill="white"/>
</mask>
<g mask="url(#mask8_5067_3775)">
<path d="M1869.95 -209.988H1650.42V912.995H1869.95V-209.988Z" fill="url(#paint9_linear_5067_3775)"/>
</g>
<mask id="mask9_5067_3775" style="mask-type:luminance" maskUnits="userSpaceOnUse" x="1700" y="-210" width="179" height="1123">
<path d="M1876.49 912.995C1856.5 888.966 1830.64 863.769 1797.59 837.603L1797.57 837.586C1647.52 710.553 1702.62 533.957 1760.54 348.325C1784.69 270.926 1809.33 191.946 1819.73 114.403C1835.05 0.0735168 1819.31 -111.229 1725.17 -209.988H1727.61C1821.01 -111.064 1836.57 0.39357 1821.22 114.891C1810.8 192.619 1786.12 271.709 1761.94 349.213C1704.28 534.021 1649.42 709.84 1798.32 835.893C1832.12 862.66 1858.44 888.433 1878.67 912.995H1876.49Z" fill="white"/>
</mask>
<g mask="url(#mask9_5067_3775)">
<path d="M1878.67 -209.988H1647.52V912.995H1878.67V-209.988Z" fill="url(#paint10_linear_5067_3775)"/>
</g>
<mask id="mask10_5067_3775" style="mask-type:luminance" maskUnits="userSpaceOnUse" x="1695" y="-210" width="194" height="1123">
<path d="M1886.74 912.995C1865.14 887.47 1836.34 860.844 1798.49 833.504L1798.47 833.49C1645.01 714.59 1694.38 534.549 1746.27 345.296C1767.91 266.383 1789.99 185.862 1797.92 107.583C1809.52 -6.93398 1790.78 -116.763 1695.87 -209.988H1698.39C1792.47 -116.586 1811.04 -6.64476 1799.43 107.991C1791.48 186.463 1769.37 267.091 1747.7 346.108C1696.03 534.524 1646.88 713.768 1799.15 831.75C1837.84 859.698 1867.11 886.917 1888.93 912.995H1886.74Z" fill="white"/>
</mask>
<g mask="url(#mask10_5067_3775)">
<path d="M1888.93 -209.988H1645.01V912.995H1888.93V-209.988Z" fill="url(#paint11_linear_5067_3775)"/>
</g>
<mask id="mask11_5067_3775" style="mask-type:luminance" maskUnits="userSpaceOnUse" x="1666" y="-210" width="235" height="1123">
<path d="M1898.52 912.986C1875.37 885.543 1843.24 857.12 1799.47 828.425L1799.44 828.411C1642.85 717.852 1686.41 534.68 1732.19 342.134C1751.28 261.849 1770.76 179.923 1776.21 101.044C1784.14 -13.7202 1762.3 -122.151 1666.2 -210H1668.85C1764.01 -121.954 1785.65 -13.4563 1777.72 101.364C1772.25 180.448 1752.75 262.48 1733.63 342.87C1688.05 534.562 1644.69 716.926 1800.07 826.628C1844.76 855.93 1877.38 884.968 1900.72 912.986H1898.52Z" fill="white"/>
</mask>
<g mask="url(#mask11_5067_3775)">
<path d="M1900.72 -209.996H1642.85V912.988H1900.72V-209.996Z" fill="url(#paint12_linear_5067_3775)"/>
</g>
<mask id="mask12_5067_3775" style="mask-type:luminance" maskUnits="userSpaceOnUse" x="1636" y="-210" width="278" height="1123">
<path d="M1911.73 912.989C1908.26 908.756 1904.56 904.505 1900.62 900.24C1876.8 874.465 1844.27 848.24 1800.51 822.375L1800.49 822.358C1641.03 720.331 1678.69 534.352 1718.28 338.85C1734.79 257.326 1751.63 174.137 1754.6 94.7976C1758.9 -20.3065 1733.9 -127.446 1636.13 -210H1638.94C1735.64 -127.218 1760.41 -20.0566 1756.11 95.0363C1753.14 174.598 1736.28 257.882 1719.75 339.501C1680.34 534.13 1642.85 719.284 1801.04 820.522C1844.94 846.466 1877.6 872.8 1901.52 898.694C1905.94 903.472 1910.05 908.236 1913.89 912.981H1911.73V912.989Z" fill="white"/>
</mask>
<g mask="url(#mask12_5067_3775)">
<path d="M1913.89 -209.996H1636.13V912.988H1913.89V-209.996Z" fill="url(#paint13_linear_5067_3775)"/>
</g>
<mask id="mask13_5067_3775" style="mask-type:luminance" maskUnits="userSpaceOnUse" x="1605" y="-210" width="324" height="1123">
<path d="M1926.05 912.995C1919.57 904.609 1912.17 896.187 1903.74 887.767C1879.21 863.278 1845.98 838.816 1801.57 815.345L1801.55 815.331C1639.51 722.019 1671.21 533.547 1704.54 335.431C1718.43 252.812 1732.61 168.512 1733.09 88.8491C1733.77 -26.7548 1705.51 -132.729 1605.49 -209.988H1608.49C1707.29 -132.457 1735.28 -26.5134 1734.6 89.0007C1734.13 168.896 1719.93 253.292 1706.02 336.001C1672.84 533.235 1641.28 720.868 1802.04 813.462C1846.58 837 1879.94 861.562 1904.58 886.176C1913.54 895.123 1921.35 904.079 1928.13 912.995H1926.05Z" fill="white"/>
</mask>
<g mask="url(#mask13_5067_3775)">
<path d="M1928.14 -209.988H1605.5V912.995H1928.14V-209.988Z" fill="url(#paint14_linear_5067_3775)"/>
</g>
<mask id="mask14_5067_3775" style="mask-type:luminance" maskUnits="userSpaceOnUse" x="1574" y="-210" width="369" height="1123">
<path d="M1941 912.993C1933.2 901.816 1923.73 890.62 1912.33 879.522C1886.6 854.487 1851.05 829.958 1802.63 807.313L1802.61 807.305C1638.26 722.867 1663.95 532.233 1690.95 331.843C1702.21 248.283 1713.7 163.02 1711.68 83.1583C1708.74 -33.1671 1677.05 -138.147 1574.05 -209.988H1577.28C1678.88 -137.805 1710.26 -32.9173 1713.2 83.2285C1715.23 163.304 1703.72 248.674 1692.45 332.334C1665.57 531.84 1639.99 721.631 1803.06 805.412C1851.63 828.136 1887.33 852.764 1913.16 877.91C1925.11 889.533 1934.95 901.274 1942.99 912.995H1941V912.993Z" fill="white"/>
</mask>
<g mask="url(#mask14_5067_3775)">
<path d="M1942.99 -209.992H1574.06V912.991H1942.99V-209.992Z" fill="url(#paint15_linear_5067_3775)"/>
</g>
<mask id="mask15_5067_3775" style="mask-type:luminance" maskUnits="userSpaceOnUse" x="1541" y="-210" width="402" height="1105">
<path d="M1942.99 894.084C1933.89 882.391 1922.81 870.796 1909.39 859.468C1883.56 837.654 1849.1 816.853 1803.65 798.295L1803.63 798.287C1637.27 722.87 1656.9 530.411 1677.53 328.1C1686.14 243.738 1694.92 157.658 1690.41 77.7427C1683.78 -39.6496 1648.39 -143.838 1541.44 -209.988H1545.03C1650.32 -143.397 1685.31 -39.366 1691.92 77.7258C1696.45 157.854 1687.66 244.041 1679.04 328.507C1658.5 529.925 1638.95 721.539 1804.02 796.37C1849.61 814.989 1884.19 835.871 1910.13 857.778C1923.15 868.772 1934.01 880.027 1942.99 891.386V894.084Z" fill="white"/>
</mask>
<g mask="url(#mask15_5067_3775)">
<path d="M1942.99 -209.988H1541.44V894.084H1942.99V-209.988Z" fill="url(#paint16_linear_5067_3775)"/>
</g>
<mask id="mask16_5067_3775" style="mask-type:luminance" maskUnits="userSpaceOnUse" x="1507" y="-210" width="436" height="1083">
<path d="M1943 872.509C1935.73 864.322 1927.38 856.259 1917.81 848.398C1890.76 826.182 1854.01 805.573 1804.62 788.284L1804.6 788.276C1636.51 722.013 1650.05 528.058 1664.28 324.181C1670.21 239.156 1676.27 152.399 1669.28 72.5909C1658.86 -46.3707 1619.36 -150.057 1507.1 -209.988H1511.14C1621.39 -149.464 1660.41 -46.0282 1670.79 72.487C1677.8 152.54 1671.74 239.387 1665.8 324.501C1651.63 527.48 1638.15 720.579 1804.92 786.333C1854.46 803.677 1891.36 824.374 1918.54 846.697C1927.78 854.285 1935.89 862.062 1943 869.962V872.509H1943Z" fill="white"/>
</mask>
<g mask="url(#mask16_5067_3775)">
<path d="M1943 -209.988H1507.1V872.509H1943V-209.988Z" fill="url(#paint17_linear_5067_3775)"/>
</g>
<mask id="mask17_5067_3775" style="mask-type:luminance" maskUnits="userSpaceOnUse" x="1469" y="-210" width="474" height="1061">
<path d="M1942.99 850.911C1936.22 844.17 1928.63 837.578 1920.12 831.188C1892.48 810.438 1855.22 791.844 1805.48 777.284L1805.46 777.273C1635.94 720.281 1643.36 525.169 1651.16 320.077C1654.42 234.549 1657.74 147.276 1648.27 67.6863C1633.85 -53.6365 1589.62 -157.238 1469.99 -209.988H1474.81C1591.87 -156.391 1635.43 -53.1424 1649.77 67.5094C1659.26 147.326 1655.94 234.692 1652.68 320.315C1644.91 524.495 1637.52 718.737 1805.7 775.302C1855.61 789.912 1893.02 808.588 1920.79 829.436C1929.01 835.607 1936.38 841.969 1942.99 848.474V850.911Z" fill="white"/>
</mask>
<g mask="url(#mask17_5067_3775)">
<path d="M1943 -209.988H1470V850.913H1943V-209.988Z" fill="url(#paint18_linear_5067_3775)"/>
</g>
<mask id="mask18_5067_3775" style="mask-type:luminance" maskUnits="userSpaceOnUse" x="1427" y="-210" width="516" height="1040">
<path d="M1942.99 829.11C1935.04 822.069 1926.06 815.278 1915.93 808.818C1888.48 791.313 1852.66 776.26 1806.22 765.296L1806.2 765.288C1635.54 717.662 1636.83 521.733 1638.19 315.784C1638.75 229.903 1639.33 142.27 1627.42 63.0398C1608.61 -62.0421 1558.58 -166.312 1427.92 -209.988H1433.94C1561.09 -164.99 1610.25 -61.2925 1628.91 62.7787C1640.85 142.225 1640.28 229.962 1639.71 315.944C1638.36 520.977 1637.07 716.031 1806.38 763.303C1852.97 774.3 1888.93 789.418 1916.5 807.001C1926.37 813.296 1935.17 819.91 1942.99 826.766V829.11Z" fill="white"/>
</mask>
<g mask="url(#mask18_5067_3775)">
<path d="M1943 -209.992H1427.93V829.109H1943V-209.992Z" fill="url(#paint19_linear_5067_3775)"/>
</g>
<mask id="mask19_5067_3775" style="mask-type:luminance" maskUnits="userSpaceOnUse" x="958" y="-210" width="986" height="1017">
<path d="M1173.47 -209.997C1140.18 -205.272 1104.43 -198.472 1065.97 -189.371L1065.92 -189.365C1065.54 -189.309 987.175 -176.891 958.109 -210H961.759C991.057 -179.808 1064.27 -191.165 1065.6 -191.372C1098.95 -199.264 1130.24 -205.41 1159.69 -210H1173.47V-209.997ZM1943 806.965C1935.38 800.951 1926.9 795.204 1917.46 789.791C1889.57 773.786 1853.41 760.706 1806.81 752.317L1806.78 752.314C1635.28 714.138 1630.45 517.737 1625.36 311.286C1623.24 225.197 1621.08 137.356 1606.73 58.626C1582.62 -73.6684 1523.98 -180.328 1373.01 -210H1382.86C1527.51 -177.613 1584.46 -72.0148 1608.21 58.2751C1622.59 137.21 1624.76 225.161 1626.88 311.356C1631.94 516.889 1636.76 712.42 1806.92 750.31C1853.66 758.726 1889.96 771.86 1917.98 787.935C1927.19 793.222 1935.5 798.826 1943 804.688V806.965Z" fill="white"/>
</mask>
<g mask="url(#mask19_5067_3775)">
<path d="M1943 -209.996H958.107V806.969H1943V-209.996Z" fill="url(#paint20_linear_5067_3775)"/>
</g>
<mask id="mask20_5067_3775" style="mask-type:luminance" maskUnits="userSpaceOnUse" x="920" y="-210" width="1023" height="995">
<path d="M1942.99 784.39C1937.42 780.47 1931.42 776.708 1924.97 773.134C1895.84 756.991 1857.46 744.619 1807.19 738.372H1807.17C1635.12 709.713 1624.16 513.178 1612.64 306.589C1607.83 220.433 1602.93 132.522 1586.18 54.4485C1543.8 -143.075 1425.35 -278.093 1039.71 -163.8L1039.67 -163.786C1039.19 -163.688 920.345 -137.949 920.008 -210H922.408C923.913 -140.809 1038.88 -165.698 1039.34 -165.793C1426.13 -280.412 1545.02 -144.588 1587.64 54.0217C1604.44 132.331 1609.35 220.332 1614.16 306.575C1625.63 512.254 1636.54 707.922 1807.25 736.359C1857.69 742.628 1896.22 755.054 1925.47 771.265C1931.72 774.732 1937.56 778.373 1942.99 782.163V784.39H1942.99Z" fill="white"/>
</mask>
<g mask="url(#mask20_5067_3775)">
<path d="M1942.99 -280.41H920.01V784.391H1942.99V-280.41Z" fill="url(#paint21_linear_5067_3775)"/>
</g>
<mask id="mask21_5067_3775" style="mask-type:luminance" maskUnits="userSpaceOnUse" x="893" y="-210" width="1050" height="972">
<path d="M1942.99 761.287C1935.79 756.767 1927.92 752.542 1919.33 748.662C1890.7 735.739 1854.06 726.671 1807.37 723.47H1807.35C1635.06 704.38 1618 508.055 1600.06 301.685C1592.58 215.632 1584.95 127.828 1565.81 50.5101C1517.42 -145.045 1395.19 -273.713 1014.59 -137.611L1014.55 -137.597C1014.02 -137.457 864.823 -96.3047 898.956 -209.988H901.013C868.346 -99.713 1012.66 -139.181 1014.12 -139.579C1395.89 -276.096 1518.59 -146.646 1567.25 49.9963C1586.43 127.505 1594.07 215.425 1601.56 301.586C1619.42 507.044 1636.41 702.501 1807.36 721.446C1854.19 724.658 1890.97 733.763 1919.72 746.745C1928.15 750.549 1935.89 754.687 1942.99 759.106V761.287Z" fill="white"/>
</mask>
<g mask="url(#mask21_5067_3775)">
<path d="M1942.99 -276.098H864.824V761.283H1942.99V-276.098Z" fill="url(#paint22_linear_5067_3775)"/>
</g>
<mask id="mask22_5067_3775" style="mask-type:luminance" maskUnits="userSpaceOnUse" x="868" y="-210" width="1075" height="948">
<path d="M1942.99 737.575C1935.84 733.58 1928.07 729.899 1919.62 726.587C1890.69 715.233 1853.9 708.198 1807.3 707.602H1807.28C1635.05 698.113 1611.91 502.339 1587.59 296.55C1577.45 210.745 1567.1 123.187 1545.62 46.7789C1491.29 -146.474 1365.51 -268.564 990.609 -110.887L990.567 -110.87C990.002 -110.685 816.672 -52.331 884.852 -209.988H886.8C820.18 -55.8544 988.981 -112.47 990.095 -112.838C1366.14 -270.987 1492.41 -148.134 1547.04 46.1893C1568.57 122.775 1578.93 210.453 1589.08 296.376C1613.3 501.249 1636.33 696.151 1807.22 705.581C1853.98 706.176 1890.91 713.243 1919.96 724.641C1928.27 727.901 1935.93 731.514 1943 735.433V737.575H1942.99Z" fill="white"/>
</mask>
<g mask="url(#mask22_5067_3775)">
<path d="M1942.99 -270.992H816.672V737.572H1942.99V-270.992Z" fill="url(#paint23_linear_5067_3775)"/>
</g>
<mask id="mask23_5067_3775" style="mask-type:luminance" maskUnits="userSpaceOnUse" x="845" y="-210" width="1098" height="924">
<path d="M1943 713.198C1937.68 710.556 1932.03 708.105 1926.04 705.862C1895.89 694.584 1856.98 688.627 1806.96 690.794L1806.94 690.797C1635.06 690.923 1605.89 496.041 1575.23 291.188C1562.44 205.767 1549.39 118.603 1525.61 43.2527C1465.44 -147.356 1336.32 -262.662 967.774 -83.685L967.729 -83.6626C967.14 -83.4352 774.51 -6.59984 873.905 -209.988H875.814C777.999 -10.2749 966.32 -85.2628 967.204 -85.6138C1336.87 -265.119 1466.51 -149.08 1527 42.5789C1550.84 118.131 1563.91 205.402 1576.71 290.929C1607.24 494.874 1636.28 688.893 1806.82 688.767C1857.01 686.597 1896.07 692.58 1926.35 703.911C1932.22 706.106 1937.77 708.507 1943 711.084V713.198H1943Z" fill="white"/>
</mask>
<g mask="url(#mask23_5067_3775)">
<path d="M1943 -265.121H774.508V713.196H1943V-265.121Z" fill="url(#paint24_linear_5067_3775)"/>
</g>
<mask id="mask24_5067_3775" style="mask-type:luminance" maskUnits="userSpaceOnUse" x="466" y="-210" width="635" height="198">
<path d="M1100.86 -108.738C1077.38 -96.8934 1052 -82.1428 1024.58 -64.0064L1024.55 -63.9923C841.53 50.0338 702.971 -46.6673 557.327 -148.321C527.434 -169.183 497.24 -190.256 466.311 -209.746L469.564 -209.746C499.87 -190.568 529.463 -169.916 558.767 -149.464C703.765 -48.2649 841.704 48.0095 1023.3 -65.1098C1051.2 -83.5662 1077.01 -98.5329 1100.86 -110.507L1100.86 -108.738L1100.86 -108.738Z" fill="white"/>
</mask>
<g mask="url(#mask24_5067_3775)">
</g>
<mask id="mask25_5067_3775" style="mask-type:luminance" maskUnits="userSpaceOnUse" x="-22" y="-210" width="1123" height="204">
<path d="M2.68189 -209.742C-5.47011 -204.924 -13.6895 -199.806 -21.9902 -194.343L-21.9902 -196.333C-14.7955 -201.044 -7.65969 -205.514 -0.574422 -209.742L2.68189 -209.742ZM1100.86 -109.562C1078.25 -97.1165 1053.94 -81.782 1027.82 -63.1038L1027.8 -63.0869C850.781 56.2313 706.529 -35.773 554.898 -132.485C512.762 -159.361 470.051 -186.597 425.928 -209.742L429.567 -209.742C472.906 -186.838 514.865 -160.077 556.273 -133.667C707.234 -37.3845 850.848 54.2126 1026.5 -64.182C1053.11 -83.2111 1077.86 -98.7813 1100.86 -111.376L1100.86 -109.562L1100.86 -109.562Z" fill="white"/>
</mask>
<g mask="url(#mask25_5067_3775)">
</g>
<mask id="mask26_5067_3775" style="mask-type:luminance" maskUnits="userSpaceOnUse" x="-22" y="-210" width="1123" height="210">
<path d="M55.3364 -209.751C30.1477 -198.268 4.38644 -183.622 -21.9981 -165.412L-21.9981 -167.439C3.00812 -184.61 27.4641 -198.614 51.4036 -209.751L55.3364 -209.751ZM1100.86 -111.146C1078.88 -98.0354 1055.35 -81.9878 1030.21 -62.5431L1030.18 -62.5263C859.472 61.8735 709.778 -25.268 552.425 -116.871C494.269 -150.726 435.061 -185.191 373.407 -209.751L377.809 -209.751C438.401 -185.23 496.58 -151.366 553.742 -118.089C710.39 -26.8965 859.416 59.855 1028.79 -63.5566C1054.47 -83.4027 1078.46 -99.7255 1100.85 -113.013L1100.85 -111.146L1100.86 -111.146Z" fill="white"/>
</mask>
<g mask="url(#mask26_5067_3775)">
</g>
<mask id="mask27_5067_3775" style="mask-type:luminance" maskUnits="userSpaceOnUse" x="-22" y="-210" width="1123" height="215">
<path d="M134.383 -209.743C83.9604 -198.656 31.9465 -175.629 -21.9902 -136.552L-21.9902 -138.618C29.3724 -175.621 79.0198 -198.171 127.224 -209.74L134.383 -209.74L134.383 -209.743ZM1100.86 -113.575C1079.26 -99.6952 1056.23 -82.752 1031.72 -62.263L1031.69 -62.2434C867.596 67.0246 712.719 -15.1057 549.918 -101.442C482.032 -137.442 412.757 -174.178 340.933 -196.534C324.001 -201.804 306.922 -206.273 289.68 -209.746L297.321 -209.746C312.269 -206.492 327.1 -202.519 341.82 -197.938C413.847 -175.52 483.2 -138.742 551.164 -102.696C713.244 -16.7424 867.436 65.0229 1030.27 -63.2456C1055.32 -84.181 1078.83 -101.428 1100.86 -115.501L1100.86 -113.575L1100.86 -113.575Z" fill="white"/>
</mask>
<g mask="url(#mask27_5067_3775)">
<path d="M-21.9922 -209.743L-21.9922 67.0273L1100.86 67.0273L1100.86 -209.743L-21.9922 -209.743Z" fill="url(#paint25_linear_5067_3775)"/>
</g>
<mask id="mask28_5067_3775" style="mask-type:luminance" maskUnits="userSpaceOnUse" x="-22" y="-194" width="1123" height="205">
<path d="M1100.86 -117.005C1079.37 -102.226 1056.54 -84.1569 1032.33 -62.2585L1032.3 -62.2388C875.097 71.6699 715.31 -5.30587 547.347 -86.2205C477.308 -119.961 405.838 -154.392 332.613 -174.418C219.28 -205.412 101.57 -201.858 -21.9902 -107.737L-21.9902 -109.879C101.755 -203.545 219.757 -206.931 333.427 -175.847C406.851 -155.767 478.406 -121.297 548.528 -87.5147C715.748 -6.95663 874.83 69.6765 1030.82 -63.1991C1055.59 -85.5944 1078.92 -104.006 1100.87 -118.995L1100.87 -117.005L1100.86 -117.005Z" fill="white"/>
</mask>
<g mask="url(#mask28_5067_3775)">
<path d="M-21.9922 -206.926L-21.9922 71.6719L1100.86 71.6718L1100.86 -206.926L-21.9922 -206.926Z" fill="url(#paint26_linear_5067_3775)"/>
</g>
<mask id="mask29_5067_3775" style="mask-type:luminance" maskUnits="userSpaceOnUse" x="-22" y="-168" width="1123" height="184">
<path d="M1100.86 -121.55C1079.2 -105.716 1056.26 -86.2377 1032.02 -62.4864L1032 -62.4695C881.963 75.8526 717.539 4.16621 544.708 -71.1896C472.634 -102.614 399.089 -134.678 324.601 -152.337C210.925 -179.283 94.8662 -172.624 -21.9902 -78.8764L-21.9902 -81.0634C95.0346 -174.294 211.355 -180.802 325.331 -153.786C400.038 -136.076 473.664 -103.975 545.817 -72.5175C717.882 2.50418 881.575 73.8705 1030.45 -63.3651C1055.26 -87.6723 1078.72 -107.527 1100.86 -123.591L1100.86 -121.55L1100.86 -121.55Z" fill="white"/>
</mask>
<g mask="url(#mask29_5067_3775)">
<path d="M-21.9922 -180.804L-21.9922 75.8477L1100.86 75.8476L1100.86 -180.804L-21.9922 -180.804Z" fill="url(#paint27_linear_5067_3775)"/>
</g>
<mask id="mask30_5067_3775" style="mask-type:luminance" maskUnits="userSpaceOnUse" x="-22" y="-143" width="1123" height="165">
<path d="M1100.86 -127.354C1078.74 -110.295 1055.37 -89.0764 1030.79 -62.9303L1030.76 -62.9107C888.155 79.5721 719.386 13.3014 541.985 -56.3608C468.013 -85.407 392.532 -115.048 316.887 -130.313C202.953 -153.303 88.5248 -143.62 -21.9902 -50.013L-21.9902 -52.2899C88.6904 -145.31 203.346 -154.822 317.541 -131.778C393.374 -116.475 468.954 -86.7967 543.024 -57.7112C719.633 11.6394 887.65 77.6154 1029.15 -63.7444C1054.32 -90.511 1078.24 -112.143 1100.86 -129.448L1100.86 -127.354Z" fill="white"/>
</mask>
<g mask="url(#mask30_5067_3775)">
<path d="M-21.9922 -154.824L-21.9922 79.5703L1100.86 79.5703L1100.86 -154.824L-21.9922 -154.824Z" fill="url(#paint28_linear_5067_3775)"/>
</g>
<mask id="mask31_5067_3775" style="mask-type:luminance" maskUnits="userSpaceOnUse" x="-22" y="-137" width="1123" height="164">
<path d="M1100.86 -134.554C1077.96 -116.1 1053.85 -92.7616 1028.61 -63.5609L1028.59 -63.5412C893.657 82.8637 720.838 22.1209 539.175 -41.7298C463.427 -68.3532 386.134 -95.5185 309.476 -108.36C195.34 -127.479 82.5063 -114.753 -21.9902 -21.0218L-21.9902 -23.3576C82.6691 -116.429 195.697 -128.998 310.049 -109.842C386.889 -96.9699 464.288 -69.7682 540.138 -43.1083C720.992 20.4588 893.04 80.9292 1026.93 -64.3217C1052.76 -94.2131 1077.44 -117.99 1100.86 -136.699L1100.86 -134.554Z" fill="white"/>
</mask>
<g mask="url(#mask31_5067_3775)">
<path d="M-21.9922 -136.696L-21.9922 82.8633L1100.86 82.8632L1100.86 -136.696L-21.9922 -136.696Z" fill="url(#paint29_linear_5067_3775)"/>
</g>
<mask id="mask32_5067_3775" style="mask-type:luminance" maskUnits="userSpaceOnUse" x="-22" y="-146" width="1123" height="179">
<path d="M1100.86 -143.232C1076.84 -123.24 1051.64 -97.3746 1025.48 -64.3277L1025.46 -64.3052C898.444 85.7634 721.868 30.6552 536.258 -27.2688C458.868 -51.4217 379.897 -76.0685 302.363 -86.4618C188.047 -101.788 76.7572 -86.0436 -21.9902 8.10826L-21.9902 5.66021C76.9228 -87.7505 188.367 -103.307 302.851 -87.9583C380.57 -77.5369 459.651 -52.8563 537.145 -28.6726C721.932 28.9988 897.731 83.8599 1023.77 -65.052C1050.53 -98.8598 1076.3 -125.18 1100.86 -145.414L1100.86 -143.232Z" fill="white"/>
</mask>
<g mask="url(#mask32_5067_3775)">
<path d="M-21.9922 -145.415L-21.9922 85.7617L1100.86 85.7617L1100.86 -145.415L-21.9922 -145.415Z" fill="url(#paint30_linear_5067_3775)"/>
</g>
<mask id="mask33_5067_3775" style="mask-type:luminance" maskUnits="userSpaceOnUse" x="-22" y="-156" width="1123" height="194">
<path d="M1100.86 -153.479C1075.34 -131.879 1048.72 -103.074 1021.38 -65.2205L1021.37 -65.1981C902.48 88.2733 722.46 38.898 533.229 -13.0013C454.326 -34.6414 373.814 -56.725 295.544 -64.6561C181.04 -76.2567 71.2243 -57.5139 -21.9902 37.4073L-21.9902 34.8918C71.4011 -59.1984 181.33 -77.7727 295.951 -66.1582C374.414 -58.2102 455.033 -36.0984 534.041 -14.4246C722.435 37.2472 901.658 86.4035 1019.63 -65.8831C1047.57 -104.573 1074.79 -133.855 1100.86 -155.675L1100.86 -153.479Z" fill="white"/>
</mask>
<g mask="url(#mask33_5067_3775)">
<path d="M-21.9922 -155.674L-21.9922 88.2773L1100.86 88.2773L1100.86 -155.674L-21.9922 -155.674Z" fill="url(#paint31_linear_5067_3775)"/>
</g>
<mask id="mask34_5067_3775" style="mask-type:luminance" maskUnits="userSpaceOnUse" x="-22" y="-168" width="1123" height="236">
<path d="M1100.86 -165.266C1073.42 -142.112 1045 -109.978 1016.31 -66.2007L1016.29 -66.1783C905.746 90.4318 722.595 46.8736 530.072 1.08632C449.796 -18.0046 367.88 -37.4884 289.01 -42.9378C174.259 -50.8689 65.8408 -29.0295 -21.998 67.082L-21.998 64.4345C66.0373 -30.7365 174.523 -52.3851 289.33 -44.4483C368.405 -38.9821 450.427 -19.4757 530.807 -0.359514C722.477 45.2256 904.819 88.5902 1014.51 -66.8071C1043.81 -111.502 1072.84 -144.12 1100.86 -167.464L1100.86 -165.266Z" fill="white"/>
</mask>
<g mask="url(#mask34_5067_3775)">
<path d="M-21.9942 -167.465L-21.9941 90.4336L1100.86 90.4335L1100.86 -167.465L-21.9942 -167.465Z" fill="url(#paint32_linear_5067_3775)"/>
</g>
<mask id="mask35_5067_3775" style="mask-type:luminance" maskUnits="userSpaceOnUse" x="-22" y="-181" width="1123" height="279">
<path d="M1100.86 -178.476C1096.63 -175.003 1092.37 -171.303 1088.11 -167.364C1062.34 -143.545 1036.12 -111.006 1010.25 -67.243L1010.24 -67.2205C908.223 92.2533 722.265 54.588 526.786 14.9968C445.271 -1.51399 362.092 -18.3589 282.762 -21.3236C167.671 -25.6247 60.5445 -0.626835 -22 97.1523L-22 94.3449C60.7719 -2.36748 167.921 -27.1379 283.001 -22.8397C362.553 -19.8693 445.827 -3.00195 527.437 13.5285C722.043 52.9428 907.175 90.4396 1008.4 -67.7707C1034.34 -111.674 1060.67 -144.337 1086.56 -168.268C1091.34 -172.684 1096.11 -176.8 1100.85 -180.637L1100.85 -178.476L1100.86 -178.476Z" fill="white"/>
</mask>
<g mask="url(#mask35_5067_3775)">
<path d="M-21.9942 -180.637L-21.9941 97.1523L1100.86 97.1523L1100.86 -180.637L-21.9942 -180.637Z" fill="url(#paint33_linear_5067_3775)"/>
</g>
<mask id="mask36_5067_3775" style="mask-type:luminance" maskUnits="userSpaceOnUse" x="-22" y="-195" width="1123" height="323">
<path d="M1100.86 -192.797C1092.48 -186.323 1084.06 -178.919 1075.64 -170.486C1051.15 -145.957 1026.69 -112.722 1003.22 -68.3101L1003.21 -68.2876C909.908 93.7718 721.458 62.0669 523.365 28.7392C440.756 14.8394 356.465 0.658682 276.812 0.187029C161.222 -0.497994 55.26 27.765 -21.9902 127.793L-21.9902 124.8C55.5323 25.9879 161.463 -2.01113 276.964 -1.32611C356.85 -0.854463 441.236 13.343 523.935 27.2597C721.146 60.4385 908.757 92.0032 1001.34 -68.776C1024.88 -113.317 1049.44 -146.681 1074.05 -171.331C1082.99 -180.292 1091.95 -188.103 1100.86 -194.883L1100.86 -192.797Z" fill="white"/>
</mask>
<g mask="url(#mask36_5067_3775)">
<path d="M-21.9922 -194.89L-21.9922 127.789L1100.86 127.789L1100.86 -194.89L-21.9922 -194.89Z" fill="url(#paint34_linear_5067_3775)"/>
</g>
<mask id="mask37_5067_3775" style="mask-type:luminance" maskUnits="userSpaceOnUse" x="-22" y="-210" width="1123" height="370">
<path d="M1100.86 -207.748C1089.69 -199.949 1078.49 -190.479 1067.39 -179.075C1042.36 -153.347 1017.84 -117.788 995.194 -69.3641L995.186 -69.3417C910.758 95.0227 720.146 69.3314 519.779 42.3262C436.23 31.0653 350.977 19.5742 271.124 21.5956C154.812 24.5378 49.8441 56.2288 -21.9883 159.238L-21.9883 156.01C50.1866 54.4039 155.062 23.0134 271.194 20.0739C351.26 18.0469 436.62 29.5548 520.271 40.8269C719.753 67.7142 909.523 93.2904 993.294 -69.7938C1016.02 -118.372 1040.64 -154.069 1065.78 -179.909C1077.4 -191.855 1089.14 -201.701 1100.86 -209.741L1100.86 -207.748L1100.86 -207.748Z" fill="white"/>
</mask>
<g mask="url(#mask37_5067_3775)">
<path d="M-21.9922 -209.745L-21.9922 159.234L1100.86 159.234L1100.86 -209.745L-21.9922 -209.745Z" fill="url(#paint35_linear_5067_3775)"/>
</g>
<mask id="mask38_5067_3775" style="mask-type:luminance" maskUnits="userSpaceOnUse" x="-22" y="-210" width="1104" height="402">
<path d="M1081.95 -209.742C1070.26 -200.645 1058.67 -189.556 1047.34 -176.139C1025.53 -150.301 1004.73 -115.845 986.176 -70.3891L986.167 -70.3639C910.759 96.0134 718.322 76.3808 516.036 55.7458C431.683 47.1408 345.613 38.3589 265.707 42.8705C148.329 49.499 44.1521 84.893 -21.9902 191.855L-21.9902 188.262C44.5928 82.9615 148.612 47.9634 265.69 41.3545C345.809 36.8316 431.986 45.6219 516.443 54.2381C717.837 74.7833 909.428 94.329 984.25 -70.7597C1002.87 -116.35 1023.75 -150.93 1045.65 -176.88C1056.64 -189.904 1067.9 -200.758 1079.26 -209.742L1081.95 -209.742Z" fill="white"/>
</mask>
<g mask="url(#mask38_5067_3775)">
<path d="M-21.9922 -209.743L-21.9922 191.852L1081.95 191.852L1081.95 -209.743L-21.9922 -209.743Z" fill="url(#paint36_linear_5067_3775)"/>
</g>
<mask id="mask39_5067_3775" style="mask-type:luminance" maskUnits="userSpaceOnUse" x="-22" y="-210" width="1083" height="437">
<path d="M1060.38 -209.749C1052.19 -202.483 1044.13 -194.131 1036.27 -184.557C1014.06 -157.507 993.452 -120.748 976.166 -71.3592L976.157 -71.3338C909.903 96.7701 715.97 83.2324 512.117 69.0012C427.102 63.0662 340.355 57.0076 260.556 64.0011C141.608 74.4225 37.9342 113.924 -21.9902 226.195L-21.9902 222.158C38.5265 111.894 141.951 72.8755 260.452 62.4934C340.495 55.4803 427.332 61.5446 512.437 67.4852C715.392 81.6546 908.468 95.1334 974.215 -71.6567C991.557 -121.206 1012.25 -158.11 1034.57 -185.287C1042.16 -194.526 1049.93 -202.64 1057.83 -209.751L1060.38 -209.751L1060.38 -209.749Z" fill="white"/>
</mask>
<g mask="url(#mask39_5067_3775)">
<path d="M-21.9922 -209.749L-21.9922 226.195L1060.38 226.195L1060.38 -209.749L-21.9922 -209.749Z" fill="url(#paint37_linear_5067_3775)"/>
</g>
<mask id="mask40_5067_3775" style="mask-type:luminance" maskUnits="userSpaceOnUse" x="-22" y="-210" width="1061" height="474">
<path d="M1038.78 -209.744C1032.04 -202.975 1025.45 -195.38 1019.06 -186.868C998.317 -159.228 979.725 -121.959 965.167 -72.2187L965.156 -72.1935C908.171 97.345 713.081 89.922 508.013 82.12C422.495 78.8661 335.232 75.5449 255.652 85.0089C134.343 99.431 30.7535 143.666 -21.9902 263.312L-21.9902 258.495C31.6012 141.423 134.837 97.856 255.475 83.5125C335.283 74.0232 422.639 77.3473 508.251 80.6067C712.408 88.3751 906.627 95.7644 963.185 -72.4378C977.794 -122.347 996.467 -159.762 1017.31 -187.536C1023.48 -195.757 1029.84 -203.135 1036.35 -209.744L1038.78 -209.744Z" fill="white"/>
</mask>
<g mask="url(#mask40_5067_3775)">
<path d="M-21.9922 -209.747L-21.9922 263.309L1038.79 263.309L1038.79 -209.747L-21.9922 -209.747Z" fill="url(#paint38_linear_5067_3775)"/>
</g>
<mask id="mask41_5067_3775" style="mask-type:luminance" maskUnits="userSpaceOnUse" x="-22" y="-210" width="1039" height="516">
<path d="M1016.99 -209.745C1009.95 -201.789 1003.16 -192.808 996.699 -182.678C979.196 -155.227 964.144 -119.397 953.182 -72.956L953.174 -72.9308C905.553 97.7476 709.647 96.4535 503.722 95.0946C417.851 94.5303 330.229 93.9492 251.008 105.864C125.941 124.674 21.6827 174.718 -21.9883 305.387L-21.9883 299.367C23.0049 172.205 126.69 123.038 250.747 104.376C330.184 92.4304 417.91 93.0086 503.882 93.5757C708.892 94.9289 903.922 96.2148 951.189 -73.116C962.185 -119.706 977.301 -155.676 994.883 -183.251C1001.18 -193.122 1007.79 -201.921 1014.65 -209.745L1016.99 -209.745Z" fill="white"/>
</mask>
<g mask="url(#mask41_5067_3775)">
<path d="M-21.9922 -209.749L-21.9922 305.383L1016.99 305.383L1016.99 -209.749L-21.9922 -209.749Z" fill="url(#paint39_linear_5067_3775)"/>
</g>
<mask id="mask42_5067_3775" style="mask-type:luminance" maskUnits="userSpaceOnUse" x="-22" y="-210" width="1017" height="986">
<path d="M-21.9953 559.866C-17.2708 593.16 -10.4719 628.914 -1.37104 667.382L-1.36543 667.43C-1.30929 667.814 11.1068 746.185 -21.998 775.254L-21.998 771.604C8.19015 742.302 -3.16482 669.077 -3.37255 667.747C-11.2635 634.397 -17.4083 603.104 -21.9981 573.645L-21.9981 559.866L-21.9953 559.866ZM994.848 -209.753C988.835 -202.131 983.089 -193.646 977.676 -184.211C961.673 -156.315 948.594 -120.149 940.206 -73.545L940.204 -73.5197C902.032 98.0009 705.654 102.838 499.227 107.925C413.148 110.048 325.318 112.21 246.597 126.556C114.318 150.667 7.6708 209.321 -21.9981 360.307L-21.9981 350.453C10.3853 205.789 115.971 148.828 246.246 125.082C325.172 110.696 413.112 108.529 499.297 106.407C704.806 101.342 900.314 96.5241 938.199 -73.6517C946.615 -120.405 959.747 -156.708 975.821 -184.724C981.107 -193.936 986.71 -202.251 992.571 -209.753L994.848 -209.753Z" fill="white"/>
</mask>
<g mask="url(#mask42_5067_3775)">
<path d="M-21.9942 -209.756L-21.9941 775.254L994.852 775.254L994.852 -209.756L-21.9942 -209.756Z" fill="url(#paint40_linear_5067_3775)"/>
</g>
<mask id="mask43_5067_3775" style="mask-type:luminance" maskUnits="userSpaceOnUse" x="-22" y="-210" width="995" height="1024">
<path d="M972.275 -209.742C968.357 -204.172 964.595 -198.176 961.021 -191.721C944.88 -162.591 932.509 -124.201 926.263 -73.9274L926.263 -73.9049C897.608 98.1632 701.095 109.121 494.53 120.646C408.384 125.452 320.484 130.354 242.419 147.109C44.919 189.491 -90.0829 307.956 24.1966 693.64L24.2106 693.685C24.3089 694.159 50.0449 813.022 -21.998 813.359L-21.998 810.959C47.1844 809.454 22.2989 694.476 22.2035 694.016C-92.4016 307.178 43.4059 188.27 241.993 145.652C320.293 128.849 408.283 123.942 494.516 119.13C700.172 107.658 895.817 96.7426 924.25 -73.9864C930.519 -124.431 942.943 -162.964 959.152 -192.221C962.619 -198.476 966.26 -204.31 970.049 -209.745L972.275 -209.745L972.275 -209.742Z" fill="white"/>
</mask>
<g mask="url(#mask43_5067_3775)">
<path d="M-92.4004 -209.742L-92.4004 813.359L972.277 813.359L972.277 -209.742L-92.4004 -209.742Z" fill="url(#paint41_linear_5067_3775)"/>
</g>
<mask id="mask44_5067_3775" style="mask-type:luminance" maskUnits="userSpaceOnUse" x="-22" y="-210" width="972" height="1050">
<path d="M949.172 -209.745C944.652 -202.541 940.428 -194.674 936.548 -186.081C923.627 -157.45 914.56 -120.801 911.359 -74.107L911.359 -74.0845C892.271 98.2222 695.969 115.289 489.623 133.229C403.581 140.711 315.787 148.341 238.478 167.477C42.945 215.878 -85.7072 338.117 50.3783 718.761L50.3924 718.806C50.5327 719.331 91.6801 868.549 -21.9902 834.413L-21.9902 832.355C88.2722 865.026 48.8091 720.698 48.4105 719.23C-88.0904 337.417 41.3449 214.708 237.964 166.04C315.464 146.856 403.373 139.214 489.525 131.724C694.958 113.863 890.393 96.8718 909.335 -74.1014C912.547 -120.933 921.651 -157.714 934.631 -186.474C938.435 -194.902 942.572 -202.639 946.991 -209.745L949.172 -209.745Z" fill="white"/>
</mask>
<g mask="url(#mask44_5067_3775)">
<path d="M-88.0918 -209.747L-88.0918 868.547L949.168 868.547L949.168 -209.747L-88.0918 -209.747Z" fill="url(#paint42_linear_5067_3775)"/>
</g>
<mask id="mask45_5067_3775" style="mask-type:luminance" maskUnits="userSpaceOnUse" x="-22" y="-210" width="948" height="1075">
<path d="M925.463 -209.746C921.468 -202.593 917.788 -194.822 914.475 -186.374C903.123 -157.44 896.088 -120.645 895.493 -74.035L895.493 -74.0127C886.005 98.2351 690.254 121.377 484.489 145.701C398.693 155.845 311.147 166.196 234.747 187.676C41.5161 242.009 -80.5588 367.805 77.0997 742.75L77.1165 742.792C77.3018 743.356 135.649 916.708 -21.9902 848.519L-21.9902 846.571C132.126 913.198 75.5164 744.378 75.1487 743.264C-82.9814 367.178 39.8571 240.889 234.157 186.256C310.734 164.725 398.402 154.36 484.315 144.205C689.164 119.99 884.043 96.9493 893.472 -73.9537C894.067 -120.726 901.133 -157.659 912.53 -186.711C915.789 -195.018 919.402 -202.683 923.321 -209.752L925.463 -209.752L925.463 -209.746Z" fill="white"/>
</mask>
<g mask="url(#mask45_5067_3775)">
<path d="M-82.9864 -209.747L-82.9863 916.707L925.461 916.707L925.46 -209.747L-82.9864 -209.747Z" fill="url(#paint43_linear_5067_3775)"/>
</g>
<mask id="mask46_5067_3775" style="mask-type:luminance" maskUnits="userSpaceOnUse" x="-22" y="-210" width="924" height="1098">
<path d="M901.088 -209.749C898.447 -204.429 895.996 -198.783 893.753 -192.789C882.477 -162.631 876.52 -123.719 878.687 -73.6957L878.69 -73.6732C878.816 98.2208 683.957 127.396 479.127 158.065C393.716 170.853 306.562 183.903 231.221 207.69C40.6347 267.86 -74.6582 396.999 104.298 765.589L104.321 765.634C104.548 766.223 181.374 958.876 -21.9902 859.468L-21.9902 857.559C177.7 955.386 102.721 767.043 102.37 766.159C-77.1145 396.455 38.9111 266.799 230.547 206.301C306.091 182.451 393.351 169.385 478.869 156.583C682.789 126.051 876.786 97.0024 876.66 -73.558C874.49 -123.75 880.472 -162.811 891.802 -193.101C893.997 -198.974 896.397 -204.516 898.974 -209.752L901.088 -209.752L901.088 -209.749Z" fill="white"/>
</mask>
<g mask="url(#mask46_5067_3775)">
<path d="M-77.1172 -209.746L-77.1172 958.879L901.085 958.879L901.085 -209.746L-77.1172 -209.746Z" fill="url(#paint44_linear_5067_3775)"/>
</g>
</g>
</g>
<defs>
<linearGradient id="paint0_linear_5067_3775" x1="0" y1="0" x2="1988.43" y2="196.493" gradientUnits="userSpaceOnUse">
<stop stop-color="#006AB6"/>
<stop offset="1" stop-color="#00406D"/>
</linearGradient>
<linearGradient id="paint1_linear_5067_3775" x1="0" y1="0" x2="1988.43" y2="196.493" gradientUnits="userSpaceOnUse">
<stop stop-color="#006AB6"/>
<stop offset="1" stop-color="#00406D"/>
</linearGradient>
<linearGradient id="paint2_linear_5067_3775" x1="2090.87" y1="330.159" x2="1829.56" y2="1076.19" gradientUnits="userSpaceOnUse">
<stop stop-color="#E2EFF8"/>
<stop offset="0.47" stop-color="#CFE1EE"/>
<stop offset="1" stop-color="white"/>
</linearGradient>
<linearGradient id="paint3_linear_5067_3775" x1="2094.39" y1="-118.335" x2="1437.79" y2="966.255" gradientUnits="userSpaceOnUse">
<stop stop-color="#E2EFF8"/>
<stop offset="0.47" stop-color="#CFE1EE"/>
<stop offset="1" stop-color="white"/>
</linearGradient>
<linearGradient id="paint4_linear_5067_3775" x1="2097.61" y1="-118.342" x2="1447.49" y2="978.36" gradientUnits="userSpaceOnUse">
<stop stop-color="#E2EFF8"/>
<stop offset="0.47" stop-color="#CFE1EE"/>
<stop offset="1" stop-color="white"/>
</linearGradient>
<linearGradient id="paint5_linear_5067_3775" x1="2100.53" y1="-118.335" x2="1456.33" y2="988.975" gradientUnits="userSpaceOnUse">
<stop stop-color="#E2EFF8"/>
<stop offset="0.47" stop-color="#CFE1EE"/>
<stop offset="1" stop-color="white"/>
</linearGradient>
<linearGradient id="paint6_linear_5067_3775" x1="2098.76" y1="-118.335" x2="1456.66" y2="992.649" gradientUnits="userSpaceOnUse">
<stop stop-color="#E2EFF8"/>
<stop offset="0.47" stop-color="#CFE1EE"/>
<stop offset="1" stop-color="white"/>
</linearGradient>
<linearGradient id="paint7_linear_5067_3775" x1="2060.15" y1="-118.335" x2="1392.94" y2="945.161" gradientUnits="userSpaceOnUse">
<stop stop-color="#E2EFF8"/>
<stop offset="0.47" stop-color="#CFE1EE"/>
<stop offset="1" stop-color="white"/>
</linearGradient>
<linearGradient id="paint8_linear_5067_3775" x1="2021.5" y1="-118.335" x2="1329.79" y2="888.587" gradientUnits="userSpaceOnUse">
<stop stop-color="#E2EFF8"/>
<stop offset="0.47" stop-color="#CFE1EE"/>
<stop offset="1" stop-color="white"/>
</linearGradient>
<linearGradient id="paint9_linear_5067_3775" x1="1994.93" y1="-118.335" x2="1288.14" y2="845.422" gradientUnits="userSpaceOnUse">
<stop stop-color="#E2EFF8"/>
<stop offset="0.47" stop-color="#CFE1EE"/>
<stop offset="1" stop-color="white"/>
</linearGradient>
<linearGradient id="paint10_linear_5067_3775" x1="2010.26" y1="-118.335" x2="1315.18" y2="879.619" gradientUnits="userSpaceOnUse">
<stop stop-color="#E2EFF8"/>
<stop offset="0.47" stop-color="#CFE1EE"/>
<stop offset="1" stop-color="white"/>
</linearGradient>
<linearGradient id="paint11_linear_5067_3775" x1="2027.79" y1="-118.335" x2="1346.41" y2="914.011" gradientUnits="userSpaceOnUse">
<stop stop-color="#E2EFF8"/>
<stop offset="0.47" stop-color="#CFE1EE"/>
<stop offset="1" stop-color="white"/>
</linearGradient>
<linearGradient id="paint12_linear_5067_3775" x1="2047.52" y1="-118.342" x2="1381.72" y2="948.058" gradientUnits="userSpaceOnUse">
<stop stop-color="#E2EFF8"/>
<stop offset="0.47" stop-color="#CFE1EE"/>
<stop offset="1" stop-color="white"/>
</linearGradient>
<linearGradient id="paint13_linear_5067_3775" x1="2072.01" y1="-118.342" x2="1428.98" y2="991.022" gradientUnits="userSpaceOnUse">
<stop stop-color="#E2EFF8"/>
<stop offset="0.47" stop-color="#CFE1EE"/>
<stop offset="1" stop-color="white"/>
</linearGradient>
<linearGradient id="paint14_linear_5067_3775" x1="2111.81" y1="-118.335" x2="1519.69" y2="1068.28" gradientUnits="userSpaceOnUse">
<stop stop-color="#E2EFF8"/>
<stop offset="0.47" stop-color="#CFE1EE"/>
<stop offset="1" stop-color="white"/>
</linearGradient>
<linearGradient id="paint15_linear_5067_3775" x1="2153.02" y1="-118.338" x2="1609.72" y2="1126.66" gradientUnits="userSpaceOnUse">
<stop stop-color="#E2EFF8"/>
<stop offset="0.47" stop-color="#CFE1EE"/>
<stop offset="1" stop-color="white"/>
</linearGradient>
<linearGradient id="paint16_linear_5067_3775" x1="2171.58" y1="-119.878" x2="1674.44" y2="1141.28" gradientUnits="userSpaceOnUse">
<stop stop-color="#E2EFF8"/>
<stop offset="0.47" stop-color="#CFE1EE"/>
<stop offset="1" stop-color="white"/>
</linearGradient>
<linearGradient id="paint17_linear_5067_3775" x1="2191.14" y1="-121.639" x2="1739.71" y2="1146.29" gradientUnits="userSpaceOnUse">
<stop stop-color="#E2EFF8"/>
<stop offset="0.47" stop-color="#CFE1EE"/>
<stop offset="1" stop-color="white"/>
</linearGradient>
<linearGradient id="paint18_linear_5067_3775" x1="2212.27" y1="-123.401" x2="1804.23" y2="1145.54" gradientUnits="userSpaceOnUse">
<stop stop-color="#E2EFF8"/>
<stop offset="0.47" stop-color="#CFE1EE"/>
<stop offset="1" stop-color="white"/>
</linearGradient>
<linearGradient id="paint19_linear_5067_3775" x1="2236.22" y1="-125.185" x2="1870.2" y2="1140.33" gradientUnits="userSpaceOnUse">
<stop stop-color="#E2EFF8"/>
<stop offset="0.47" stop-color="#CFE1EE"/>
<stop offset="1" stop-color="white"/>
</linearGradient>
<linearGradient id="paint20_linear_5067_3775" x1="2503.69" y1="-126.995" x2="2309.26" y2="1186.39" gradientUnits="userSpaceOnUse">
<stop stop-color="#E2EFF8"/>
<stop offset="0.47" stop-color="#CFE1EE"/>
<stop offset="1" stop-color="white"/>
</linearGradient>
<linearGradient id="paint21_linear_5067_3775" x1="2525.36" y1="-193.505" x2="2320.22" y2="1181.18" gradientUnits="userSpaceOnUse">
<stop stop-color="#E2EFF8"/>
<stop offset="0.47" stop-color="#CFE1EE"/>
<stop offset="1" stop-color="white"/>
</linearGradient>
<linearGradient id="paint22_linear_5067_3775" x1="2556.78" y1="-191.43" x2="2371.44" y2="1152.11" gradientUnits="userSpaceOnUse">
<stop stop-color="#E2EFF8"/>
<stop offset="0.47" stop-color="#CFE1EE"/>
<stop offset="1" stop-color="white"/>
</linearGradient>
<linearGradient id="paint23_linear_5067_3775" x1="2584.19" y1="-188.677" x2="2416.08" y2="1120.82" gradientUnits="userSpaceOnUse">
<stop stop-color="#E2EFF8"/>
<stop offset="0.47" stop-color="#CFE1EE"/>
<stop offset="1" stop-color="white"/>
</linearGradient>
<linearGradient id="paint24_linear_5067_3775" x1="2608.2" y1="-185.274" x2="2455.42" y2="1087.55" gradientUnits="userSpaceOnUse">
<stop stop-color="#E2EFF8"/>
<stop offset="0.47" stop-color="#CFE1EE"/>
<stop offset="1" stop-color="white"/>
</linearGradient>
<linearGradient id="paint25_linear_5067_3775" x1="69.6509" y1="-367.304" x2="516.198" y2="-674.999" gradientUnits="userSpaceOnUse">
<stop stop-color="#EFEFEF"/>
<stop offset="0.47" stop-color="#E0F2FF"/>
<stop offset="1" stop-color="#B9B9B9" stop-opacity="0"/>
</linearGradient>
<linearGradient id="paint26_linear_5067_3775" x1="69.6509" y1="-365.527" x2="518.086" y2="-672.496" gradientUnits="userSpaceOnUse">
<stop stop-color="#EFEFEF"/>
<stop offset="0.47" stop-color="#E0F2FF"/>
<stop offset="1" stop-color="#B9B9B9" stop-opacity="0"/>
</linearGradient>
<linearGradient id="paint27_linear_5067_3775" x1="69.6509" y1="-326.912" x2="493.944" y2="-642.19" gradientUnits="userSpaceOnUse">
<stop stop-color="#EFEFEF"/>
<stop offset="0.47" stop-color="#E0F2FF"/>
<stop offset="1" stop-color="#B9B9B9" stop-opacity="0"/>
</linearGradient>
<linearGradient id="paint28_linear_5067_3775" x1="69.6509" y1="-288.261" x2="465.902" y2="-610.662" gradientUnits="userSpaceOnUse">
<stop stop-color="#EFEFEF"/>
<stop offset="0.47" stop-color="#E0F2FF"/>
<stop offset="1" stop-color="#B9B9B9" stop-opacity="0"/>
</linearGradient>
<linearGradient id="paint29_linear_5067_3775" x1="69.6509" y1="-261.688" x2="445.016" y2="-587.73" gradientUnits="userSpaceOnUse">
<stop stop-color="#EFEFEF"/>
<stop offset="0.47" stop-color="#E0F2FF"/>
<stop offset="1" stop-color="#B9B9B9" stop-opacity="0"/>
</linearGradient>
<linearGradient id="paint30_linear_5067_3775" x1="69.6509" y1="-277.02" x2="461.527" y2="-600.299" gradientUnits="userSpaceOnUse">
<stop stop-color="#EFEFEF"/>
<stop offset="0.47" stop-color="#E0F2FF"/>
<stop offset="1" stop-color="#B9B9B9" stop-opacity="0"/>
</linearGradient>
<linearGradient id="paint31_linear_5067_3775" x1="69.6509" y1="-294.551" x2="478.409" y2="-614.099" gradientUnits="userSpaceOnUse">
<stop stop-color="#EFEFEF"/>
<stop offset="0.47" stop-color="#E0F2FF"/>
<stop offset="1" stop-color="#B9B9B9" stop-opacity="0"/>
</linearGradient>
<linearGradient id="paint32_linear_5067_3775" x1="69.6489" y1="-314.282" x2="495.402" y2="-629.116" gradientUnits="userSpaceOnUse">
<stop stop-color="#EFEFEF"/>
<stop offset="0.47" stop-color="#E0F2FF"/>
<stop offset="1" stop-color="#B9B9B9" stop-opacity="0"/>
</linearGradient>
<linearGradient id="paint33_linear_5067_3775" x1="69.6489" y1="-338.778" x2="517.252" y2="-646.069" gradientUnits="userSpaceOnUse">
<stop stop-color="#EFEFEF"/>
<stop offset="0.47" stop-color="#E0F2FF"/>
<stop offset="1" stop-color="#B9B9B9" stop-opacity="0"/>
</linearGradient>
<linearGradient id="paint34_linear_5067_3775" x1="69.6508" y1="-378.585" x2="557.728" y2="-667.049" gradientUnits="userSpaceOnUse">
<stop stop-color="#EFEFEF"/>
<stop offset="0.47" stop-color="#E0F2FF"/>
<stop offset="1" stop-color="#B9B9B9" stop-opacity="0"/>
</linearGradient>
<linearGradient id="paint35_linear_5067_3775" x1="69.6508" y1="-419.799" x2="589.376" y2="-688.423" gradientUnits="userSpaceOnUse">
<stop stop-color="#EFEFEF"/>
<stop offset="0.47" stop-color="#E0F2FF"/>
<stop offset="1" stop-color="#B9B9B9" stop-opacity="0"/>
</linearGradient>
<linearGradient id="paint36_linear_5067_3775" x1="68.1076" y1="-438.363" x2="599.705" y2="-686.558" gradientUnits="userSpaceOnUse">
<stop stop-color="#EFEFEF"/>
<stop offset="0.47" stop-color="#E0F2FF"/>
<stop offset="1" stop-color="#B9B9B9" stop-opacity="0"/>
</linearGradient>
<linearGradient id="paint37_linear_5067_3775" x1="66.3469" y1="-457.924" x2="605.326" y2="-685.207" gradientUnits="userSpaceOnUse">
<stop stop-color="#EFEFEF"/>
<stop offset="0.47" stop-color="#E0F2FF"/>
<stop offset="1" stop-color="#B9B9B9" stop-opacity="0"/>
</linearGradient>
<linearGradient id="paint38_linear_5067_3775" x1="64.5845" y1="-479.05" x2="607.929" y2="-685.987" gradientUnits="userSpaceOnUse">
<stop stop-color="#EFEFEF"/>
<stop offset="0.47" stop-color="#E0F2FF"/>
<stop offset="1" stop-color="#B9B9B9" stop-opacity="0"/>
</linearGradient>
<linearGradient id="paint39_linear_5067_3775" x1="62.8055" y1="-503.005" x2="608.18" y2="-689.829" gradientUnits="userSpaceOnUse">
<stop stop-color="#EFEFEF"/>
<stop offset="0.47" stop-color="#E0F2FF"/>
<stop offset="1" stop-color="#B9B9B9" stop-opacity="0"/>
</linearGradient>
<linearGradient id="paint40_linear_5067_3775" x1="60.997" y1="-770.505" x2="639.601" y2="-871.954" gradientUnits="userSpaceOnUse">
<stop stop-color="#EFEFEF"/>
<stop offset="0.47" stop-color="#E0F2FF"/>
<stop offset="1" stop-color="#B9B9B9" stop-opacity="0"/>
</linearGradient>
<linearGradient id="paint41_linear_5067_3775" x1="-5.50547" y1="-792.177" x2="600.023" y2="-899.201" gradientUnits="userSpaceOnUse">
<stop stop-color="#EFEFEF"/>
<stop offset="0.47" stop-color="#E0F2FF"/>
<stop offset="1" stop-color="#B9B9B9" stop-opacity="0"/>
</linearGradient>
<linearGradient id="paint42_linear_5067_3775" x1="-3.4346" y1="-823.602" x2="589.113" y2="-920.412" gradientUnits="userSpaceOnUse">
<stop stop-color="#EFEFEF"/>
<stop offset="0.47" stop-color="#E0F2FF"/>
<stop offset="1" stop-color="#B9B9B9" stop-opacity="0"/>
</linearGradient>
<linearGradient id="paint43_linear_5067_3775" x1="-0.680716" y1="-851.018" x2="577.419" y2="-938.918" gradientUnits="userSpaceOnUse">
<stop stop-color="#EFEFEF"/>
<stop offset="0.47" stop-color="#E0F2FF"/>
<stop offset="1" stop-color="#B9B9B9" stop-opacity="0"/>
</linearGradient>
<linearGradient id="paint44_linear_5067_3775" x1="2.72" y1="-875.025" x2="565.08" y2="-954.975" gradientUnits="userSpaceOnUse">
<stop stop-color="#EFEFEF"/>
<stop offset="0.47" stop-color="#E0F2FF"/>
<stop offset="1" stop-color="#B9B9B9" stop-opacity="0"/>
</linearGradient>
</defs>
</svg>
