<svg width="1920" height="855" viewBox="0 0 1920 855" fill="none" xmlns="http://www.w3.org/2000/svg">
<rect width="1920" height="855" fill="#005490"/>
<g opacity="0.1" clip-path="url(#clip0_3120_1185)">
<path d="M942.453 -337.844H1138.66C1141.69 -335.679 1143.42 -333.514 1144.51 -330.482L1154.47 -303.2C1165.08 -274.618 1176.12 -245.17 1184.14 -215.073C1189.12 -197.534 1193.23 -179.346 1197.35 -162.024L1206.23 -125.864C1215.32 -89.2704 1231.35 -58.9565 1255.39 -33.1897C1262.06 -26.0826 1268.85 -19.0806 1275.74 -12.1866C1286.79 -1.14362 1298.05 10.1158 1308.01 22.2414C1338.33 59.0511 1355.65 104.522 1360.85 161.902L1361.93 174.027C1364.53 203.475 1367.13 234.006 1372.76 263.453C1385.32 329.927 1393.77 399 1398.32 474.351C1399.62 494.272 1402.22 520.472 1412.18 545.372C1424.74 577.202 1446.18 596.69 1475.2 603.185C1482.99 604.918 1490.36 605.567 1497.72 605.567C1521.32 605.567 1544.28 597.123 1565.72 580.666C1595.82 557.715 1617.7 524.586 1632.85 479.331C1645.85 441.006 1647.8 400.515 1648.45 365.438C1649.31 338.805 1650.4 310.44 1655.16 281.858C1665.34 220.364 1693.49 170.346 1738.75 132.671C1756.08 118.38 1774.7 105.605 1792.68 93.0459L1805.02 84.6013C1881.47 31.119 1871.51 -59.3896 1863.71 -95.7663C1861.33 -105.943 1855.7 -113.955 1850.07 -121.317C1833.82 -142.103 1811.3 -146.867 1791.38 -149.682C1775.14 -151.847 1759.11 -152.28 1746.98 -152.28L1727.71 -152.063C1721.21 -151.847 1714.93 -151.847 1708.44 -151.847H1698.04C1679.85 -152.497 1664.91 -154.229 1651.26 -157.91C1591.71 -173.5 1539.73 -207.495 1492.31 -261.41C1477.15 -278.732 1465.02 -300.385 1454.19 -329.616C1452.46 -334.163 1452.03 -335.896 1453.11 -337.628H1544.93C1548.4 -335.679 1550.34 -331.998 1552.73 -327.234C1567.45 -298.436 1582.83 -277.65 1601.67 -261.843C1637.84 -231.313 1680.07 -217.022 1734.86 -217.022C1743.95 -217.022 1753.7 -217.455 1763.88 -218.321L1850.93 -226.549C1870.21 -228.714 1889.7 -230.663 1908.54 -236.076C1925 -240.623 1936.04 -251.017 1941.89 -267.256C1947.09 -282.413 1950.98 -299.086 1953.8 -320.306L1954.45 -324.203C1954.88 -329.616 1955.53 -334.38 1958.35 -337.844H2045.62C2048.65 -335.246 2051.04 -331.998 2053.85 -328.534C2067.06 -309.479 2081.57 -296.921 2098.46 -289.342C2114.27 -282.413 2130.95 -277.866 2147.19 -273.319L2148.27 -272.886C2153.47 -271.37 2158.67 -270.071 2163.87 -268.772C2184.66 -263.359 2205.88 -257.512 2225.8 -248.418C2254.82 -235.21 2273.01 -219.837 2284.71 -198.4C2304.42 -161.807 2311.56 -121.966 2305.71 -79.5267C2296.84 -16.3006 2267.6 28.0876 2216.71 56.2362C2174.48 79.6212 2129.43 93.912 2095 104.089C2088.5 106.038 2082.01 107.77 2075.51 109.502C2053.42 115.565 2030.46 122.061 2008.81 132.021C1970.48 148.91 1946.65 179.657 1938.64 222.746C1934.74 243.533 1934.74 264.536 1934.74 284.89V296.149C1934.74 315.42 1937.77 335.99 1944.05 358.942C1960.73 421.302 1997.98 471.103 2058.18 512.027C2090.23 533.68 2125.32 550.786 2159.1 567.458L2183.79 579.584C2214.97 595.39 2248.33 613.146 2279.29 636.098C2293.59 646.491 2308.1 658.616 2317.63 675.722V886.837C2316.11 886.62 2314.38 884.888 2312.64 883.156C2311.56 882.29 2310.7 881.207 2309.83 880.557C2284.71 858.472 2264.78 840.067 2247.03 822.744C2212.16 788.317 2181.41 750.857 2145.67 704.953C2114.49 665.112 2088.5 635.881 2061.65 610.331L2042.16 592.142C2018.55 570.273 1994.3 547.538 1971.99 523.287C1949.47 498.602 1929.76 469.588 1912 434.727C1889.05 389.689 1879.3 339.888 1871.94 297.015L1871.07 291.385C1867.39 269.083 1863.49 246.348 1854.83 224.911C1846.82 205.64 1832.31 194.814 1814.12 194.814C1810.4 194.818 1806.69 195.254 1803.07 196.113C1793.98 198.062 1785.1 201.526 1774.92 207.589C1745.03 224.478 1731.39 253.926 1722.08 280.559C1711.03 311.956 1708.22 345.084 1705.62 377.347L1704.32 392.071C1699.34 453.132 1681.58 509.862 1652.13 560.746C1629.82 599.288 1601.67 629.169 1568.32 649.739C1539.3 667.711 1506.6 676.372 1468.92 676.372C1453.97 676.372 1438.6 675.073 1421.27 672.474C1386.84 667.278 1364.53 647.79 1354.79 614.661C1349.16 595.607 1347.43 575.47 1346.56 558.364L1344.61 507.913L1342.44 450.533C1339.85 409.826 1331.83 369.985 1318.41 331.876C1304.98 293.767 1287.22 253.926 1262.32 206.073C1238.93 160.603 1210.12 129.423 1174.18 111.018C1155.77 101.491 1140.18 94.9947 1126.1 95.2112C1107.04 95.2112 1091.45 106.471 1074.12 133.104C1046.84 174.893 1019.33 211.27 990.097 245.048C963.676 275.579 932.058 305.027 887.88 340.754C849.548 371.284 823.561 401.598 805.802 436.242L790.643 467.639C784.146 481.713 777.216 496.221 769.636 510.078C741.483 561.612 705.534 594.308 659.623 610.114C645.113 615.094 630.17 619.425 615.661 623.755C595.52 629.602 574.73 635.881 554.59 643.46C488.972 668.36 447.175 709.5 426.602 768.829C412.958 808.021 409.277 841.582 415.124 874.495C420.321 903.942 433.532 931.658 454.322 956.992C496.118 1007.66 531.201 1057.46 561.953 1108.99C572.781 1127.62 582.743 1141.91 592.922 1153.82C614.145 1178.72 637.317 1190.84 663.737 1190.84H666.769C705.317 1189.33 739.967 1172.44 776.133 1137.36C803.853 1110.94 821.178 1076.08 838.07 1042.52L839.37 1039.92C864.058 990.77 895.026 948.98 931.192 915.851L1039.69 818.414L1100.76 763.632C1141.91 726.606 1183.92 708.418 1229.18 708.418C1232.65 708.418 1236.11 708.634 1239.79 708.851C1270.76 710.8 1292.85 720.543 1309.74 740.031C1321 753.239 1330.53 768.396 1338.98 786.151L1352.41 814.733C1367.57 846.996 1383.37 880.341 1403.08 910.871C1424.95 944.433 1447.26 967.168 1473.03 982.542C1495.99 996.4 1517.64 1003.11 1539.52 1003.11C1553.81 1003.11 1568.1 1000.08 1581.96 994.234C1596.26 988.172 1609.03 981.676 1620.73 974.53C1628.31 969.983 1635.89 965.22 1643.25 960.456C1661.66 948.98 1680.93 936.854 1700.64 927.111C1729.66 912.603 1759.54 905.242 1789.21 905.242C1801.99 905.242 1815.2 906.541 1828.19 909.356C1885.37 921.048 1925.86 965.003 1936.48 1026.93C1940.37 1050.1 1940.59 1075.22 1937.12 1106.4C1931.49 1158.36 1899.23 1195.82 1850.93 1206.43C1824.3 1212.28 1796.79 1213.58 1770.37 1214.44C1758.16 1214.88 1745.96 1215.53 1733.77 1216.39C1726.92 1216.83 1720.06 1217.04 1713.2 1217.04C1702.59 1217.04 1691.76 1217.26 1680.93 1218.99C1631.34 1226.14 1594.74 1248.22 1568.75 1285.9C1559.87 1298.89 1552.08 1313.61 1543.63 1333.53C1541.68 1338.3 1539.3 1341.33 1535.83 1343.49H1417.38C1415.86 1341.76 1415.21 1340.46 1415.21 1338.51C1415.21 1333.75 1414.56 1328.99 1413.91 1324.44C1413.26 1319.46 1412.83 1314.91 1412.83 1310.15C1413.26 1275.72 1414.56 1235.45 1421.49 1196.04C1425.82 1171.35 1421.71 1147.75 1408.5 1123.72C1395.72 1100.12 1383.59 1073.92 1370.81 1041.22L1357.17 1006.14C1344.61 973.664 1331.83 939.886 1315.81 908.273C1300.21 876.876 1285.49 854.574 1268.16 836.602C1247.81 814.733 1223.77 803.69 1196.91 803.69C1195.4 803.69 1193.88 803.69 1192.37 803.907C1168.98 805.422 1146.24 813.217 1124.15 827.508C1092.96 848.078 1062.65 871.247 1033.63 893.766L1014.79 908.49C986.416 930.142 960.212 955.476 937.256 983.841C910.619 1016.75 893.294 1055.94 878.351 1093.4C854.962 1151.43 821.395 1204.92 775.7 1256.23C757.942 1276.37 738.668 1301.49 730.439 1335.05C729.356 1338.95 727.84 1341.76 725.458 1343.71H590.539L590.106 1343.06C587.724 1340.68 585.558 1338.51 584.476 1335.48C574.081 1307.55 555.889 1283.95 529.036 1263.16L517.991 1254.5C494.386 1236.31 469.914 1217.26 448.258 1195.82C416.207 1163.56 386.537 1126.97 357.951 1084.31C332.613 1046.2 304.893 1016.1 272.626 992.286C257.899 981.243 243.173 967.818 226.498 950.063C198.994 921.481 173.656 890.085 149.185 859.771L125.363 830.323C102.407 802.174 85.9487 777.057 73.6046 751.29C43.2859 688.497 36.5724 620.074 33.9738 561.612C32.0247 522.42 36.789 480.414 48.9165 430.396C56.4962 398.567 63.8593 364.139 62.7765 328.412C61.044 273.847 46.9675 224.262 20.5468 181.173C-5.44067 138.733 -44.4219 117.297 -95.0975 117.297C-97.6963 117.297 -100.078 117.514 -102.677 117.514C-135.378 119.029 -168.729 128.556 -201.43 146.095C-228.067 160.17 -252.538 177.492 -280.692 199.145C-337.214 242.667 -400.884 270.815 -476.248 285.106C-477.33 285.323 -478.63 285.539 -479.713 285.972C-481.878 286.405 -483.827 287.055 -485.56 287.055C-487.076 287.055 -488.159 286.622 -489.241 285.972V168.614C-487.509 166.882 -486.209 166.665 -484.91 166.665C-478.413 166.665 -472.999 165.799 -467.585 165.15C-463.254 164.5 -459.139 164.067 -454.808 163.851C-429.687 162.551 -406.731 158.87 -384.642 152.375C-356.055 144.363 -329.202 131.371 -303.214 119.029L-277.876 107.12C-218.105 79.4047 -161.582 65.9799 -105.276 65.9799C-89.4669 65.9799 -73.4413 67.0626 -57.6322 69.2279C-8.47253 75.7237 29.859 102.357 56.2797 148.694C78.5856 187.236 94.3947 233.139 106.522 293.118C113.885 329.494 115.401 361.757 111.286 392.071C108.471 413.074 103.49 433.861 98.7259 454.214L93.5284 476.517C82.7003 524.586 80.3181 569.19 85.9487 613.146C97.8597 703.871 141.389 771.644 214.803 814.733C234.294 826.209 251.619 831.622 267.645 831.622C292.333 831.622 313.989 818.63 333.696 791.781C347.556 773.593 359.251 753.672 370.728 734.401L383.506 712.965C414.258 663.597 456.704 625.271 509.762 599.721C531.418 589.111 553.94 580.233 575.813 571.356L615.011 555.549C676.515 528.7 711.165 484.095 720.91 418.92C725.458 388.173 727.407 357.21 726.757 325.164C726.324 313.471 727.84 301.779 730.655 290.303C736.286 268 749.28 255.225 770.719 251.761C780.248 250.029 789.993 249.812 798.656 249.812H803.637H808.618H812.083C849.332 249.596 883.765 233.356 908.886 204.125C936.39 172.079 948.517 128.773 942.02 85.684C934.224 34.3669 914.733 -13.4857 897.408 -55.7086L887.663 -78.8771C874.669 -106.593 862.758 -134.092 854.529 -162.89C842.618 -204.463 846.083 -237.159 865.357 -265.957C876.618 -282.846 891.128 -296.271 905.205 -308.396C909.103 -311.644 912.784 -315.325 916.466 -318.79C924.479 -327.018 932.275 -334.596 942.453 -337.844ZM941.804 -342.391C925.128 -337.411 915.167 -322.471 902.173 -311.861C887.23 -299.086 872.72 -285.661 861.459 -268.555C839.153 -234.994 839.37 -199.05 850.198 -161.591C861.026 -124.564 877.051 -90.1365 891.561 -55.0591C910.186 -9.58823 928.377 35.8826 935.956 85.2509C948.301 168.398 889.179 243.966 810.35 244.182H806.885H796.923C787.395 244.182 777.866 244.399 768.337 246.131C744.948 250.245 730.655 264.103 724.591 288.137C721.56 299.83 720.26 311.956 720.477 324.081C721.126 355.225 719.171 386.37 714.63 417.188C704.884 483.229 668.502 525.668 611.546 550.353C576.679 565.293 540.513 577.635 506.08 594.524C453.455 620.075 410.143 657.75 377.875 709.717C361.633 735.917 346.907 763.199 328.282 788.1C309.008 814.516 288.435 826.209 265.696 826.209C249.887 826.209 233.211 820.363 215.237 809.969C142.255 767.097 100.242 700.406 88.5474 611.63C82.7003 565.726 85.9487 521.121 96.1271 476.3C102.407 448.368 109.987 420.436 113.885 391.638C118.433 357.859 115.834 324.081 109.121 291.169C98.9424 240.068 84.4327 190.267 58.4453 145.446C31.5915 98.8922 -7.38971 70.527 -58.715 63.8147C-74.9572 61.4329 -90.9828 60.3503 -107.008 60.3503C-167.213 60.3503 -225.252 75.9402 -281.558 101.924C-316.641 117.947 -350.641 137.001 -387.674 146.961C-410.413 153.457 -433.368 157.138 -456.757 158.221C-466.502 158.654 -476.031 160.819 -485.776 160.819H-486.426H-486.643C-490.324 160.819 -492.923 162.984 -495.522 165.583V286.838C-492.923 289.437 -490.108 290.303 -487.292 290.303C-483.827 290.303 -480.146 289.004 -476.897 288.354C-405.215 274.713 -338.947 247.214 -279.609 201.526C-254.488 182.255 -228.933 163.634 -200.997 148.91C-170.678 132.671 -137.977 122.494 -104.193 120.978C-101.811 120.762 -99.2122 120.761 -96.83 120.761C-50.9188 120.761 -11.721 138.733 14.9162 182.688C41.77 226.644 54.7637 275.362 56.4962 327.762C57.7956 362.406 50.8656 395.535 42.8528 428.664C32.2412 472.186 25.5278 516.358 27.6934 561.179C30.7253 627.22 38.9546 692.611 67.7574 752.589C81.6174 782.037 100.025 808.237 119.949 832.705C153.3 873.195 185.134 914.769 221.517 952.661C236.027 968.035 251.402 982.759 268.294 995.534C301.862 1020.43 329.148 1051.18 352.537 1086.48C379.607 1126.75 409.493 1164.43 443.493 1198.64C468.831 1223.54 496.768 1244.54 524.704 1266.19C548.526 1284.6 567.584 1307.12 578.628 1336.56C580.578 1341.11 583.826 1344.14 587.074 1347.39H725.241C729.572 1344.58 731.955 1340.68 733.254 1335.27C740.617 1304.74 757.726 1280.48 777.433 1258.18C820.529 1209.68 856.045 1155.98 880.95 1094.05C896.326 1055.73 913.217 1017.84 939.205 985.79C961.944 957.641 987.715 932.957 1015.87 911.088C1051.82 883.372 1087.12 855.007 1125.02 830.323C1145.37 817.115 1167.46 808.887 1190.85 807.371H1195.18C1221.39 807.371 1244.34 818.63 1263.18 838.984C1282.67 859.554 1297.4 884.022 1309.96 909.572C1331.4 952.445 1346.99 997.915 1364.75 1042.3C1376.01 1070.89 1388.14 1098.82 1402.65 1125.45C1414.56 1147.1 1419.54 1169.84 1415.21 1194.96C1408.71 1232.85 1406.98 1271.39 1406.55 1309.72C1406.33 1319.46 1408.71 1328.77 1408.71 1338.08C1408.71 1342.19 1410.88 1344.79 1413.48 1347.61H1535.18C1540.38 1344.79 1543.63 1340.9 1545.8 1335.05C1552.94 1318.81 1560.52 1303 1570.7 1288.28C1597.77 1248.65 1635.45 1229.6 1679.85 1223.1C1697.17 1220.29 1714.93 1222.02 1732.26 1220.72C1771.45 1217.69 1811.09 1219.42 1850.07 1210.76C1898.79 1199.94 1933.66 1161.83 1939.72 1106.83C1942.76 1079.98 1943.84 1052.91 1939.29 1026.06C1928.46 962.405 1886.88 917.151 1827.54 904.808C1814.44 902.059 1801.09 900.681 1787.7 900.695C1756.51 900.695 1726.19 908.49 1696.96 922.997C1669.24 936.855 1643.47 954.393 1617.05 970.633C1604.7 978.211 1591.92 984.274 1578.71 989.904C1564.85 995.75 1551.43 998.349 1538 998.349C1515.91 998.349 1494.69 990.987 1473.9 978.645C1445.31 961.539 1423.87 936.638 1405.46 908.49C1380.13 869.515 1361.72 826.426 1341.36 784.419C1333.35 767.313 1323.6 751.507 1311.48 737.216C1291.77 714.047 1266.43 706.253 1238.71 704.52C1235.03 704.304 1231.35 704.087 1227.88 704.087C1177.64 704.087 1134.54 726.173 1096.43 760.385L927.077 912.604C888.746 947.681 858.21 990.12 834.172 1037.97C816.847 1072.62 799.739 1107.69 771.802 1134.33C741.7 1163.56 707.483 1184.78 665.47 1186.51H662.655C635.151 1186.51 613.278 1172.44 595.087 1151.22C583.609 1137.58 573.647 1122.42 564.552 1106.83C532.501 1052.7 496.118 1002.25 456.704 954.393C437.646 931.225 423.786 904.592 418.372 874.062C412.308 838.334 418.156 804.123 429.85 770.561C451.939 706.686 497.201 670.092 555.023 647.79C589.457 634.798 625.189 626.137 659.623 614.445C710.731 596.906 745.815 560.313 772.235 512.027C785.229 487.993 795.841 462.442 808.401 437.975C827.892 399.433 856.695 369.768 889.396 344.002C925.995 314.554 961.078 283.374 992.263 247.647C1022.8 212.353 1050.73 174.893 1076.51 135.485C1093.4 109.502 1107.91 99.3253 1124.8 99.3253C1138.01 99.3253 1152.52 105.171 1170.93 114.915C1209.91 135.052 1236.55 168.181 1256.9 208.022C1278.13 248.513 1297.4 289.653 1312.78 333.175C1326.2 371.068 1334 410.259 1336.6 450.75C1338.76 486.693 1338.98 522.42 1340.71 558.364C1341.79 577.635 1343.74 597.123 1349.16 615.744C1359.77 652.337 1385.54 671.608 1419.32 676.805C1435.57 679.403 1451.59 680.919 1467.62 680.919C1502.92 680.919 1537.13 673.557 1569.62 653.636C1605.57 631.55 1633.29 600.37 1654.73 563.128C1685.05 510.945 1702.59 453.998 1707.57 392.504C1710.82 355.478 1712.33 317.802 1725.11 282.291C1735.29 253.276 1748.93 226.86 1776 211.703C1784.45 206.723 1793.33 202.609 1802.86 200.66C1806.32 199.794 1809.57 199.578 1813.03 199.578C1829.49 199.578 1842.27 209.105 1849.63 226.86C1858.95 249.596 1862.41 273.847 1866.53 298.098C1874.76 346.167 1884.72 393.586 1907.02 437.109C1923.7 469.804 1943.41 499.902 1967.88 526.751C1996.25 557.715 2027.21 585.43 2057.75 614.012C2088.07 642.81 2115.36 674.639 2141.34 707.985C2173.18 749.125 2206.1 789.832 2242.91 826.209C2263.27 846.13 2284.49 865.4 2305.93 884.238C2309.18 886.837 2312.21 891.6 2316.98 891.6C2318.28 891.6 2319.79 891.167 2321.31 890.301V674.64C2311.56 656.668 2296.84 643.893 2281.24 632.417C2251.14 609.898 2218.44 592.359 2185.09 575.47C2142.86 554.25 2099.76 534.763 2060.13 508.13C2006.42 471.753 1965.71 424.333 1947.95 357.643C1942.54 337.722 1938.64 316.936 1938.64 295.932C1938.86 271.681 1937.99 247.647 1942.54 223.612C1950.55 181.389 1973.07 152.591 2010.11 136.135C2037.83 123.793 2067.06 116.864 2095.87 108.419C2137.88 96.2939 2179.24 82.003 2218.44 60.3503C2271.93 30.9025 2300.95 -16.3006 2309.83 -78.6606C2315.89 -121.75 2308.96 -162.457 2288.39 -200.349C2274.31 -226.116 2252.22 -241.056 2227.32 -252.099C2202.2 -263.575 2175.78 -269.422 2149.36 -276.567C2132.9 -281.114 2116.22 -285.878 2100.2 -292.806C2082.44 -300.601 2069.01 -313.81 2057.75 -329.833C2054.5 -334.163 2051.47 -338.494 2047.14 -341.525H1956.4C1950.34 -335.896 1950.55 -327.884 1949.25 -320.089C1946.87 -302.55 1943.62 -284.795 1937.56 -267.906C1932.14 -252.532 1921.97 -243.438 1907.24 -239.324C1888.61 -234.127 1869.56 -232.179 1850.5 -230.013L1763.44 -222.002C1753.91 -221.136 1744.38 -220.703 1734.86 -220.703C1688.08 -220.703 1643.68 -231.313 1604.7 -264.441C1584.13 -281.98 1569.4 -304.066 1556.84 -328.534C1554.24 -333.73 1551.64 -338.71 1546.23 -341.309H1451.16C1446.39 -337.195 1448.13 -332.215 1449.86 -327.234C1459.39 -301.901 1471.3 -277.866 1488.62 -257.946C1533.24 -207.062 1585.86 -169.819 1649.96 -152.93C1665.77 -148.816 1681.58 -147.3 1698.04 -146.867C1701.5 -146.65 1704.97 -146.65 1708.44 -146.65L1746.98 -147.083C1761.71 -147.083 1776.22 -146.65 1790.73 -144.702C1811.95 -141.67 1831.88 -136.69 1846.6 -118.069C1852.02 -110.923 1857.21 -103.345 1859.16 -94.4671C1872.37 -32.9732 1863.49 38.481 1802.21 81.3534C1779.68 96.9435 1756.95 111.884 1735.72 129.639C1688.94 168.398 1660.79 219.498 1650.4 281.642C1645.63 309.574 1644.55 337.722 1643.68 365.871C1642.82 403.98 1640.43 442.089 1628.09 478.465C1614.88 517.873 1595.17 552.951 1562.69 577.635C1542.76 593.009 1520.89 601.453 1497.5 601.453C1490.36 601.453 1483.21 600.587 1476.06 599.071C1446.61 592.576 1427.34 572.655 1416.29 544.073C1407.41 521.771 1404.38 498.169 1402.87 474.135C1398.53 403.114 1390.3 332.742 1377.09 262.804C1371.03 229.458 1368.43 195.464 1365.4 161.469C1360.64 108.636 1345.48 60.1337 1311.48 19.21C1295.02 -0.277527 1275.96 -17.5998 1258.63 -36.2211C1234.6 -61.7714 1219.22 -91.8687 1210.34 -126.946L1188.47 -216.156C1177.64 -255.564 1162.48 -293.24 1148.62 -331.781C1146.89 -336.545 1143.86 -339.576 1139.74 -341.958L941.804 -342.391ZM-485.776 680.486C-484.91 680.486 -484.044 680.486 -483.178 680.702C-456.757 684.167 -435.317 687.415 -416.26 691.096C-338.514 706.253 -274.628 744.578 -226.551 805.639C-213.557 822.095 -202.079 839.201 -192.551 856.739C-163.964 910.438 -155.518 968.684 -150.538 1023.68L-150.104 1026.93C-146.856 1062.44 -143.824 1098.82 -133.646 1133.89C-121.951 1174.82 -104.843 1203.18 -79.9382 1223.54C-61.7469 1238.26 -42.2563 1251.04 -23.1988 1263.38L-1.75909 1277.45C20.3303 1292.18 40.254 1311.45 57.1459 1334.18C60.3943 1338.51 61.4772 1340.68 60.8275 1342.84H-45.0716C-51.5685 1340.46 -58.2819 1339.16 -64.7788 1337.86C-69.3266 1337 -73.8744 1336.13 -78.2057 1334.83C-86.435 1332.45 -94.4478 1331.37 -102.461 1331.37C-116.754 1331.37 -130.83 1335.27 -144.257 1342.84L-488.375 1343.06C-490.324 1343.06 -491.19 1342.84 -491.407 1342.84C-491.19 1342.63 -491.407 1341.98 -491.407 1339.6C-490.974 1323.36 -491.19 1307.33 -491.19 1291.09V1272.04C-489.458 1270.31 -487.509 1269.66 -484.477 1269.66C-482.744 1269.66 -481.012 1269.87 -479.279 1270.31C-470.4 1271.82 -461.521 1271.82 -453.075 1271.82H-436.833H-420.374C-400.234 1271.82 -378.578 1271.39 -356.922 1269.44C-328.985 1266.63 -296.717 1262.95 -265.749 1252.34C-239.761 1243.24 -223.086 1223.97 -216.373 1194.96C-209.009 1163.13 -207.277 1131.51 -205.978 1096.44C-204.245 1063.96 -202.946 1031.91 -204.895 999.215C-208.576 945.516 -219.404 903.509 -239.112 867.133C-267.698 814.95 -306.029 780.738 -356.705 762.766C-384.642 753.023 -411.929 751.94 -432.719 751.94C-444.629 751.94 -456.757 752.373 -468.884 753.023L-475.814 753.239C-477.114 753.456 -478.413 753.456 -479.713 753.672C-481.445 753.889 -483.178 754.105 -484.694 754.105C-487.725 754.105 -489.674 753.456 -491.19 751.94V682.651C-489.674 680.919 -487.942 680.486 -485.776 680.486ZM-485.776 675.939C-487.694 675.896 -489.595 676.306 -491.325 677.133C-493.056 677.96 -494.567 679.183 -495.738 680.702V753.239C-492.49 757.137 -488.592 758.219 -484.694 758.219C-481.662 758.219 -478.63 757.57 -475.598 757.353C-461.305 756.703 -446.795 756.054 -432.719 756.054C-407.814 756.054 -382.909 758.219 -358.221 766.664C-306.896 784.852 -269.647 819.93 -243.01 869.081C-221.137 909.139 -212.474 953.094 -209.226 999.215C-207.277 1031.48 -208.576 1063.52 -210.309 1096C-211.608 1128.7 -213.341 1161.61 -220.704 1193.87C-226.984 1221.37 -242.36 1239.13 -267.048 1248.01C-296.284 1257.97 -326.603 1261.86 -357.138 1264.89C-378.145 1266.84 -399.151 1267.28 -420.158 1267.28C-430.986 1267.28 -442.031 1267.06 -452.859 1267.06C-461.305 1267.06 -469.967 1267.06 -478.413 1265.54C-480.362 1265.11 -482.311 1265.11 -484.26 1265.11C-488.375 1265.11 -492.273 1266.19 -495.522 1270.31L-495.738 1339.38C-495.955 1345.88 -494.439 1347.39 -488.159 1347.39L-142.958 1347.17C-129.964 1339.38 -116.321 1335.7 -102.461 1335.7C-94.881 1335.7 -87.0847 1336.78 -79.505 1338.95C-68.2438 1341.98 -56.766 1343.06 -45.9379 1347.17H63.4261C68.4071 1340.9 64.0759 1335.7 60.8275 1331.37C43.9356 1308.63 24.0118 1289.15 0.839661 1273.56C-25.1479 1256.02 -52.4347 1239.99 -77.1228 1219.86C-104.626 1197.34 -119.569 1166.59 -129.314 1132.6C-139.493 1096.87 -142.525 1060.06 -145.99 1023.03C-151.187 964.137 -160.716 906.757 -188.436 854.358C-198.398 835.953 -209.876 818.63 -222.869 802.607C-273.545 738.515 -338.514 701.272 -415.177 686.332C-437.483 682.218 -460.005 678.754 -482.528 675.939H-485.776Z" fill="url(#paint0_linear_3120_1185)"/>
<path d="M107.605 -337.844H148.968C152.433 -335.679 153.733 -331.998 155.032 -325.502C161.745 -293.673 174.09 -261.843 195.529 -222.218L224.982 -168.736L271.976 -82.7746C289.517 -49.2128 309.224 -14.1353 338.894 13.1472C374.41 45.6263 409.493 61.6494 446.309 61.6494C449.557 61.6494 452.805 61.4329 456.27 61.2163C490.054 58.8345 517.558 43.8941 537.914 16.6116C564.119 -18.2493 573.214 -59.8227 578.628 -95.7663C582.743 -124.131 584.475 -152.93 586.424 -180.862L587.507 -195.369C590.323 -237.808 596.386 -280.464 602.45 -321.605L603.533 -328.967C604.183 -332.648 605.482 -335.029 608.081 -337.844H705.967C701.636 -315.758 694.273 -293.889 684.094 -273.103C660.272 -224.167 643.38 -171.118 632.336 -111.14L630.603 -102.046C623.24 -63.0706 615.66 -23.0129 602.667 14.8794C595.52 36.3156 587.291 58.618 571.915 75.9402C547.227 103.006 516.258 116.214 477.494 116.214C468.614 116.214 459.086 115.565 449.124 114.049C382.423 104.305 325.9 67.4957 276.524 1.45468C254.434 -27.9931 235.593 -61.1218 217.619 -92.7349L215.236 -96.8489L195.313 -130.844C173.44 -167.653 150.917 -205.762 134.025 -246.47C119.083 -281.764 111.07 -310.345 107.605 -337.844ZM102.624 -342.391C106.089 -307.963 116.917 -275.917 129.911 -244.954C152 -191.688 182.969 -144.052 211.555 -94.9002C230.829 -61.1218 249.886 -27.3435 273.059 3.61996C318.537 64.6808 375.276 107.553 448.691 118.163C458.436 119.679 468.181 120.545 477.71 120.545C513.876 120.545 547.66 109.069 575.38 78.5386C591.189 60.9998 599.635 38.6974 606.998 16.1786C621.074 -24.9617 628.654 -67.8342 636.667 -110.49C646.629 -166.571 662.871 -220.053 687.776 -271.154C698.604 -293.673 706.4 -317.274 710.948 -342.391H605.915C602.234 -338.927 599.851 -335.246 598.769 -329.616C592.488 -285.228 585.775 -240.623 582.743 -195.802C580.577 -162.457 578.845 -129.328 574.08 -96.4158C568.233 -56.5747 558.704 -18.2494 534.449 14.0133C514.526 40.6462 487.672 54.504 456.054 56.6693C452.805 57.1023 449.557 57.1023 446.309 57.1023C406.028 57.1023 372.244 37.6148 341.925 9.68271C313.339 -16.5172 293.849 -50.512 275.874 -85.1564C251.186 -132.143 224.982 -178.047 199.427 -224.817C182.102 -256.863 167.159 -290.208 159.58 -326.801C158.28 -333.297 156.548 -339.793 150.051 -342.824C134.242 -342.391 118.433 -342.391 102.624 -342.391ZM-314.909 -337.844H-183.888C-188.003 -322.687 -191.901 -308.18 -198.181 -294.539C-221.354 -243.005 -257.303 -199.483 -305.38 -165.921C-334.616 -145.351 -366.45 -134.958 -399.151 -134.958C-408.464 -134.958 -417.992 -135.824 -427.521 -137.556L-478.197 -146.217L-490.974 -148.383V-298.653C-487.942 -301.035 -484.477 -302.117 -479.496 -302.117C-476.681 -302.117 -473.865 -301.684 -470.834 -301.468C-468.668 -301.035 -466.502 -300.818 -464.337 -300.818L-453.075 -300.168C-440.298 -299.302 -426.871 -298.436 -413.661 -298.436C-406.298 -298.436 -399.585 -298.653 -393.088 -299.302C-364.935 -301.901 -342.845 -311.861 -325.304 -330.266C-322.055 -333.514 -318.374 -335.896 -314.909 -337.844ZM-315.991 -342.391C-320.539 -340.01 -324.87 -337.195 -328.769 -333.081C-346.743 -314.243 -368.833 -305.798 -393.521 -303.633C-400.234 -302.983 -406.948 -302.767 -413.661 -302.767C-430.336 -302.767 -447.228 -304.283 -464.12 -305.149C-469.101 -305.582 -474.515 -306.448 -479.713 -306.448C-485.343 -306.448 -490.757 -305.365 -495.738 -300.602V-144.269L-428.387 -132.793C-418.425 -131.06 -408.897 -130.411 -399.151 -130.411C-364.718 -130.411 -332.667 -141.237 -302.565 -162.024C-255.787 -194.936 -218.322 -237.808 -193.85 -292.59C-186.704 -308.613 -182.372 -325.286 -177.825 -342.391H-315.991Z" fill="url(#paint1_linear_3120_1185)"/>
<path d="M2317.19 1057.89V1202.97L2314.81 1208.16C2313.29 1211.63 2311.99 1214.66 2309.83 1216.61C2294.88 1229.38 2278.21 1243.89 2259.37 1254.93C2234.25 1269.87 2206.74 1279.62 2180.32 1288.93C2172.09 1291.74 2163.86 1294.78 2155.64 1297.81C2133.55 1305.82 2114.05 1313.83 2097.6 1328.99C2091.53 1334.62 2086.12 1339.6 2079.4 1342.84H1988.23C1990.61 1300.4 2015.52 1265.76 2053.85 1252.12L2098.25 1237.18L2146.11 1221.16C2183.79 1207.51 2215.62 1187.38 2240.96 1161.39C2256.77 1144.94 2269.98 1126.1 2282.76 1107.7L2290.34 1097.09C2294.02 1091.89 2297.48 1086.48 2300.95 1081.06C2305.93 1073.48 2311.13 1065.26 2317.19 1057.89ZM2321.52 1045.98C2307.45 1060.49 2297.92 1078.25 2286.44 1094.7C2270.85 1116.57 2256.12 1139.09 2237.5 1158.36C2211.07 1185.65 2179.24 1204.48 2144.37 1217.04C2113.84 1227.87 2082.65 1237.18 2052.12 1248.01C2010.32 1263.16 1984.12 1301.7 1983.47 1347.61H2080.27C2088.07 1344.14 2094.13 1338.51 2100.41 1332.67C2116.87 1317.51 2136.79 1309.72 2156.93 1302.35C2192.45 1289.15 2228.4 1278.97 2261.53 1259.05C2280.16 1248.22 2296.18 1234.36 2312.43 1220.29C2317.19 1216.18 2318.27 1209.68 2321.52 1204.48V1045.98ZM-176.743 -337.844H-87.7363C-86.6534 -335.029 -87.5197 -332.215 -88.8191 -327.668L-89.4687 -325.719C-101.596 -280.898 -125.418 -243.871 -149.24 -210.309L-171.329 -180.645C-186.489 -160.725 -202.081 -139.721 -215.725 -117.636C-223.954 -104.211 -234.132 -86.0226 -238.247 -64.3698C-242.145 -43.5831 -237.164 -27.7766 -222.871 -15.8675C-213.559 -8.07254 -203.381 -4.39157 -195.368 -2.00977C-168.947 6.00177 -141.444 7.9505 -115.023 9.89926L-100.73 10.9819L-94.4497 11.4149C-71.494 13.3637 -47.6722 15.3125 -24.7166 20.2926C34.6216 32.8512 74.4691 65.1139 96.775 119.246C120.164 175.326 139.221 239.202 156.979 320.184C168.024 371.501 166.941 420.003 153.514 468.938C145.935 496.87 139.438 522.42 137.056 549.053C132.075 609.032 143.552 653.853 173.438 690.229C194.012 714.914 219.349 728.555 245.12 728.555C264.394 728.555 283.668 720.543 300.56 705.819C314.637 693.261 328.064 679.187 341.491 662.947C366.612 633.283 388.701 611.413 410.574 594.091C435.912 574.387 464.498 558.797 492.002 543.64L498.282 540.176L507.811 534.979C531.633 522.204 556.321 508.779 577.977 490.158C607.646 464.824 621.939 432.128 620.64 393.153C619.34 358.942 611.328 323.865 595.302 283.374C578.193 240.285 550.474 213.868 510.409 201.959C487.021 195.247 458.001 186.802 430.931 176.409C345.605 143.064 274.14 89.5815 218.483 17.4777C162.827 -54.193 114.966 -137.556 62.7747 -252.532C52.5963 -275.051 44.1503 -299.302 37.6534 -324.853L37.0038 -327.234C35.7044 -331.998 35.0547 -335.029 36.5706 -337.844H100.673C103.272 -334.813 104.355 -330.699 105.221 -325.935C113.883 -282.413 129.909 -239.541 154.381 -194.719C177.336 -152.713 202.241 -110.923 226.063 -70.649L236.241 -53.5434C261.796 -9.80478 285.617 25.2727 318.535 53.4214C370.943 98.0261 419.67 118.813 471.212 118.813H478.575C540.728 116.214 579.493 88.2823 600.716 30.9025C615.659 -9.3717 624.321 -51.8111 631.901 -91.8688C640.78 -139.505 652.258 -194.719 675.43 -244.954L677.163 -248.851C689.073 -275.268 701.418 -302.767 708.564 -332.215C708.997 -334.163 709.864 -335.029 711.596 -336.978L712.679 -338.061H930.541L912.783 -320.739C908.018 -315.975 903.037 -311.644 897.84 -307.097C886.362 -296.921 874.451 -286.311 865.139 -272.669C848.68 -249.068 841.75 -227.632 843.05 -204.68C844.349 -182.161 850.196 -158.126 861.457 -129.112L883.98 -73.897L910.617 -8.28906C924.044 26.3554 937.904 67.7122 937.254 112.1C936.821 170.563 896.54 225.561 843.916 240.285C830.489 244.182 817.279 244.399 802.985 244.615C796.922 244.832 790.641 244.832 784.361 245.265C748.195 247.863 729.571 256.741 722.641 300.696C720.042 316.503 720.042 332.309 720.259 347.899C720.475 360.458 720.475 373.666 718.959 386.441C716.144 411.125 712.246 439.707 701.201 465.907C685.175 504.016 656.589 531.082 611.111 551.002C597.034 557.065 582.525 562.911 568.448 568.541C538.346 580.233 507.378 592.576 478.575 610.114C443.925 631.117 416.638 655.802 395.198 685.466C383.72 701.056 373.325 718.162 363.58 734.618C352.102 753.672 340.408 773.376 326.548 790.698C306.624 816.249 289.949 826.642 268.509 826.642C258.98 826.642 248.585 824.693 236.025 820.579C202.891 809.753 173.222 787.017 143.119 749.125C95.9088 689.363 77.7175 614.878 87.2463 521.338C89.4119 499.469 94.8259 477.816 99.8069 456.813C101.973 448.368 103.922 440.14 105.654 431.695C114.533 390.988 116.915 359.375 113.45 329.061C105.221 258.473 86.38 197.845 56.2778 143.93C36.3541 107.986 7.76782 83.9518 -28.3981 72.2593C-51.5703 64.6808 -76.0419 60.9998 -103.329 60.9998C-114.807 60.9998 -126.934 61.6494 -139.278 62.9486C-197.1 69.0114 -252.973 86.3336 -305.165 114.482C-364.287 146.095 -424.707 161.685 -489.893 161.685H-491.409V-142.536C-490.384 -143.408 -489.073 -143.871 -487.727 -143.835C-486.644 -143.835 -485.778 -143.619 -484.695 -143.402C-477.332 -142.32 -470.402 -140.804 -463.256 -139.505L-439.001 -135.174C-423.625 -132.793 -410.631 -131.71 -398.503 -131.71C-376.414 -131.71 -356.923 -135.607 -338.949 -143.402C-304.732 -158.776 -273.763 -182.594 -244.527 -215.939C-213.342 -251.666 -192.986 -289.126 -182.158 -330.699C-180.858 -333.947 -179.342 -336.329 -176.743 -337.844ZM-177.826 -342.391C-182.158 -340.226 -184.973 -336.545 -186.056 -331.782C-197.317 -288.476 -218.973 -251.45 -247.559 -218.971C-274.197 -188.657 -304.299 -163.973 -340.465 -147.733C-359.306 -139.288 -378.58 -136.257 -398.07 -136.257C-411.281 -136.257 -424.491 -137.556 -437.701 -139.721C-453.077 -142.103 -468.02 -145.568 -483.396 -148.166C-484.695 -148.383 -485.995 -148.599 -487.294 -148.599C-490.543 -148.599 -493.141 -147.733 -495.523 -144.702V165.366H-489.676C-423.841 165.366 -361.904 149.56 -302.783 117.73C-251.024 89.798 -196.234 72.9088 -138.628 66.8461C-126.834 65.5552 -114.977 64.9047 -103.112 64.8973C-78.424 64.8973 -53.7359 68.1452 -29.6975 75.9402C6.03531 87.4162 33.5388 111.667 52.3797 145.662C83.9979 201.959 101.539 263.67 109.119 329.061C113.017 363.489 108.686 396.834 101.323 430.396C94.826 460.277 85.9469 489.725 82.6985 520.472C74.0359 605.351 86.5966 684.6 139.654 751.507C165.209 783.77 195.527 811.702 234.725 824.477C247.503 828.807 258.547 830.756 268.726 830.756C293.197 830.756 310.955 818.198 330.446 793.297C356.433 760.601 374.408 721.626 399.313 687.848C421.835 656.884 449.772 633.066 481.39 613.795C523.187 588.461 569.314 574.387 613.277 555.116C653.557 537.361 687.341 511.594 705.749 467.639C716.36 442.089 720.692 414.59 723.724 386.874C726.972 358.292 722.641 329.711 727.405 301.346C733.685 261.071 748.845 252.194 785.011 249.596C805.368 248.296 825.508 250.245 845.648 244.615C900.655 229.458 941.802 173.161 942.452 112.317C942.885 69.0114 930.541 29.1703 915.381 -9.80475C899.572 -50.512 882.247 -90.3531 866.222 -130.844C856.91 -154.662 849.546 -179.129 848.03 -205.113C846.515 -229.58 855.827 -250.584 869.254 -270.071C882.247 -289.126 900.439 -301.901 916.248 -317.491L942.019 -342.608H710.946C708.564 -339.577 705.099 -337.844 704.449 -333.297C697.086 -302.983 684.093 -275.051 671.532 -246.903C649.01 -197.967 637.532 -145.568 627.786 -92.7349C619.99 -51.3781 611.544 -10.2378 596.818 29.1702C576.894 83.0856 541.161 111.451 478.791 113.833C476.409 114.049 474.027 114.049 471.645 114.049C414.039 114.049 365.962 87.1997 321.783 49.5239C287.567 20.2926 263.095 -17.1667 240.356 -56.1417L158.279 -196.885C135.973 -237.808 118.864 -280.681 109.552 -327.018C108.253 -332.648 106.953 -338.494 102.406 -342.391H34.1884C28.7744 -336.545 31.5897 -330.049 33.1057 -323.77C39.3859 -298.653 47.8318 -274.185 58.4434 -250.8C101.756 -154.662 150.699 -62.2045 214.585 20.2926C271.974 94.5616 344.089 147.178 428.765 180.307C454.969 190.483 481.823 198.278 508.677 206.073C548.524 217.766 574.729 245.048 590.754 284.673C604.614 319.317 614.576 355.044 615.875 392.937C617.391 431.479 603.098 462.442 574.728 486.477C550.473 507.264 522.97 521.121 495.9 536.062C465.581 552.734 435.262 568.974 407.542 590.41C381.771 610.764 359.032 634.582 337.592 659.916C325.032 675.073 311.822 689.363 297.095 702.355C280.203 717.295 262.229 724.008 244.687 724.008C219.999 724.008 195.744 710.583 176.47 687.415C143.769 647.79 136.839 600.371 140.954 549.487C143.336 522.421 150.266 496.221 157.196 470.021C171.056 420.003 171.922 369.985 160.878 319.101C145.718 250.029 127.527 182.255 100.457 117.297C76.2015 58.618 32.6725 27.6545 -24.2834 15.529C-49.4047 10.1158 -75.1756 8.16705 -100.947 6.21829C-132.348 3.61996 -163.966 2.53735 -194.502 -6.55682C-203.814 -9.37167 -212.476 -13.0527 -220.489 -19.5485C-234.566 -31.241 -237.598 -45.9649 -234.349 -63.5036C-230.667 -82.5581 -222.222 -99.2307 -212.26 -115.254C-192.336 -147.949 -168.081 -177.181 -145.992 -207.711C-120.437 -243.655 -97.265 -280.681 -85.3541 -324.636C-83.8381 -330.482 -81.4559 -336.545 -85.5706 -342.391H-177.826ZM1146.24 -337.844H1239.58C1243.91 -335.029 1246.07 -329.833 1248.02 -323.987L1249.54 -320.306C1258.85 -296.704 1272.49 -275.484 1291.77 -255.131C1297.4 -249.284 1304.11 -242.789 1313.42 -242.789C1315.59 -242.789 1317.75 -243.222 1320.14 -243.871C1331.18 -247.985 1333.35 -258.379 1335.08 -267.04L1335.73 -269.638C1338.33 -282.197 1338.11 -294.972 1337.89 -307.314C1337.68 -313.593 1337.68 -319.873 1337.89 -326.152V-328.317C1338.11 -332.648 1338.33 -335.679 1340.06 -337.628H1448.13C1453.32 -317.924 1462.63 -298.436 1476.28 -277.866C1497.07 -246.253 1525.44 -219.187 1565.29 -193.204C1603.83 -167.87 1640.65 -153.796 1677.68 -150.115C1692.41 -148.599 1706.48 -148.383 1717.31 -148.383L1735.5 -148.599H1753.69H1765.61C1785.31 -148.166 1801.34 -146.001 1815.2 -141.237C1841.19 -132.793 1856.78 -114.821 1861.76 -87.5382C1865.22 -69.9995 1865.87 -51.5946 1863.93 -27.7766C1860.89 15.529 1843.35 49.0908 1810.65 74.8576C1798.09 84.8179 1784.66 94.3451 1771.67 103.656L1750.45 118.813C1698.47 156.489 1665.55 208.888 1652.56 274.713C1646.71 304.594 1645.41 335.557 1644.55 365.005L1643.03 396.401C1640.22 444.904 1630.9 482.796 1613.36 515.492C1586.08 566.159 1553.37 593.442 1509.41 600.804C1505.08 601.67 1500.32 601.886 1495.99 601.886C1459.17 601.886 1426.25 577.202 1414.34 540.392C1404.6 510.511 1402.21 478.032 1400.05 449.667L1398.75 431.695C1396.8 403.763 1394.85 374.749 1390.09 346.816C1380.12 285.539 1368.86 214.518 1362.37 144.146C1357.39 90.6641 1336.16 44.3272 1299.13 5.78525L1281.37 -12.6196C1271.19 -23.0129 1261.23 -33.4063 1251.49 -44.0161C1237.63 -58.9565 1227.01 -76.0623 1220.08 -95.3332C1209.91 -121.533 1203.84 -149.682 1198 -176.748C1188.25 -221.785 1172.66 -264.874 1157.5 -306.448L1146.24 -337.844ZM1139.96 -342.391C1159.01 -287.61 1181.1 -233.694 1193.66 -176.315C1199.51 -148.599 1205.58 -120.667 1215.75 -94.034C1223.33 -74.1135 1234.16 -56.3582 1248.24 -41.2013C1263.83 -24.3121 1280.29 -7.85602 1296.1 8.81662C1331.83 45.8429 1353.05 91.5302 1358.04 144.363C1364.53 212.569 1374.93 279.909 1385.76 347.25C1391.6 381.244 1393.33 415.672 1395.72 449.884C1398.1 480.847 1400.48 511.811 1410.01 541.691C1422.79 580.883 1457.87 606.217 1495.99 606.217C1500.85 606.205 1505.71 605.77 1510.5 604.918C1561.39 596.256 1593.44 562.262 1617.48 517.224C1637.4 479.981 1645.2 439.057 1647.58 396.185C1649.74 355.694 1649.1 314.987 1656.89 274.929C1669.67 209.971 1701.72 159.087 1753.05 121.844C1773.19 107.12 1793.76 93.2625 1813.47 77.889C1846.6 51.6891 1865.22 16.8282 1868.47 -27.9931C1869.99 -48.7798 1869.99 -68.7003 1866.09 -89.0539C1860.46 -118.935 1842.92 -137.556 1816.28 -146.217C1799.82 -151.414 1782.71 -153.363 1765.39 -153.579C1761.49 -153.796 1757.38 -153.796 1753.48 -153.796L1717.1 -153.363C1703.89 -153.363 1690.89 -153.796 1677.9 -155.095C1637.83 -159.209 1601.45 -175.449 1567.45 -197.534C1533.67 -219.62 1502.7 -246.037 1479.53 -280.898C1466.97 -299.735 1456.57 -320.089 1451.16 -342.824H1337.89C1332.7 -338.927 1333.35 -332.864 1332.91 -327.018C1332.05 -308.397 1334.65 -289.775 1330.96 -271.154C1329.02 -262.276 1328.15 -252.316 1318.62 -248.851C1316.67 -248.202 1314.94 -247.769 1313.42 -247.769C1306.06 -247.769 1300.21 -253.182 1295.23 -258.595C1277.69 -277.217 1263.61 -298.003 1253.87 -322.254C1250.84 -330.049 1248.89 -338.494 1241.09 -342.824L1139.96 -342.391ZM1196.48 806.722C1215.54 806.722 1232.21 812.351 1247.59 823.827C1262.31 834.87 1275.09 849.161 1288.3 869.082C1313.86 908.057 1331.18 952.878 1347.86 995.967L1351.97 1006.79L1353.49 1010.91C1368.65 1049.67 1384.24 1089.72 1404.6 1126.75C1416.51 1148.4 1420.19 1170.49 1416.07 1194.52C1410.23 1229.82 1407.19 1268.36 1407.41 1312.31C1407.63 1317.29 1408.06 1322.27 1408.49 1327.25C1409.14 1332.23 1409.58 1337.65 1409.58 1342.84H1279.21C1274.44 1339.38 1271.41 1333.97 1268.16 1328.34C1266.86 1326.17 1265.78 1324.01 1264.48 1322.06C1251.49 1301.05 1238.28 1279.83 1230.05 1256.67C1208.39 1194.52 1201.24 1125.67 1207.96 1046.63L1208.82 1035.81C1210.77 1015.02 1212.51 993.585 1209.04 972.149C1204.28 940.536 1180.89 919.099 1151.22 919.099C1148.4 919.099 1145.59 919.316 1142.56 919.749C1109.85 924.296 1077.15 936.855 1039.9 959.59C1019.98 971.932 1001.79 987.522 985.764 1005.49C960.643 1034.73 941.585 1070.89 929.241 1113.11C906.286 1191.92 888.961 1262.51 876.184 1329.2L875.75 1331.15C874.668 1337.21 873.801 1340.9 870.336 1342.84H731.087C736.068 1320.76 743.647 1302.57 754.259 1287.63C766.603 1270.09 780.463 1253.42 792.374 1239.56C817.062 1210.55 836.769 1182.61 851.928 1154.03C864.056 1131.73 874.451 1108.13 884.413 1085.18C890.91 1070.24 897.623 1054.65 904.986 1039.71C922.745 1002.9 947.649 970.2 981.433 939.453C1023.88 900.911 1071.09 866.7 1115.92 835.303C1134.33 822.095 1152.52 813.867 1170.93 809.753C1179.59 807.804 1188.47 806.722 1196.48 806.722ZM1196.48 802.174C1187.6 802.174 1178.72 803.474 1169.63 805.422C1149.05 809.969 1130.64 819.497 1113.1 831.622C1066.76 864.101 1020.63 897.663 978.184 936.205C946.783 964.787 919.929 997.916 900.655 1037.97C882.464 1075.87 867.738 1115.49 847.814 1152.08C831.139 1183.05 811.215 1210.55 788.692 1236.75C775.265 1252.34 762.272 1268.14 750.361 1285.25C737.367 1303.87 730.004 1325.09 725.456 1347.61H871.852C878.999 1344.14 879.649 1337.21 880.948 1330.29C895.025 1257.32 913.216 1185.65 934.006 1114.62C945.484 1075.22 963.242 1039.27 989.446 1008.96C1005.04 991.203 1022.8 976.046 1042.5 963.921C1073.91 944.866 1106.82 929.709 1143.42 924.729C1146.24 924.296 1148.84 924.08 1151.43 924.08C1178.5 924.08 1200.38 943.351 1204.93 973.448C1208.82 997.916 1205.79 1022.38 1203.84 1046.63C1197.78 1118.95 1202.54 1189.98 1226.15 1258.4C1234.59 1282.22 1247.8 1303.65 1261.02 1324.66C1266 1332.67 1269.68 1342.19 1278.12 1347.61H1414.34C1414.99 1335.7 1412.61 1324.01 1412.39 1312.53C1412.18 1273.56 1414.34 1234.15 1420.84 1195.61C1425.17 1170.27 1421.05 1146.89 1408.93 1125.02C1388.14 1086.91 1372.33 1046.2 1356.52 1005.71C1337.89 957.858 1320.14 909.789 1292.2 867.133C1280.51 849.378 1267.08 833.138 1250.4 820.796C1233.51 807.588 1215.54 802.174 1196.48 802.174Z" fill="url(#paint2_linear_3120_1185)"/>
<path d="M2313.29 -342.608V-338.061C2316.11 -338.061 2316.76 -337.628 2316.76 -337.628C2316.76 -337.411 2317.19 -336.329 2317.19 -332.648L2316.98 40.8628V179.441C2316.33 179.874 2315.89 179.874 2315.46 179.874C2314.16 179.874 2312.43 179.224 2310.7 178.791L2309.4 178.358L2291.42 172.079C2282.54 168.831 2273.45 165.366 2264.13 162.768C2238.58 156.056 2212.81 152.591 2187.25 152.591C2146.76 152.591 2106.48 161.252 2067.06 177.925C2014.65 200.227 1988.02 243.966 1989.97 304.377C1991.7 353.962 2012.49 395.102 2051.47 426.715C2088.5 456.38 2133.55 470.887 2188.99 470.887C2199.38 470.887 2209.99 470.454 2221.25 469.588C2243.99 467.639 2266.52 462.226 2288.17 457.029L2308.96 452.049L2310.26 451.832C2311.99 451.399 2313.51 450.966 2314.81 450.966C2315.58 450.949 2316.34 451.176 2316.98 451.616V665.762C2313.51 662.73 2310.26 659.266 2307.01 655.585C2303.77 651.904 2300.52 648.007 2296.62 644.759C2274.96 626.57 2250.06 609.898 2219.74 593.875L2164.08 565.076L2085.47 524.153C2042.16 501.201 2006.64 469.371 1980 429.747C1942.76 374.315 1930.41 307.841 1941.89 226.427C1948.17 180.523 1972.42 149.776 2015.52 132.237C2037.61 123.36 2060.78 116.647 2083.3 110.585L2103.01 104.955C2154.55 90.0146 2192.45 74.4246 2226.02 54.504C2248.54 41.0793 2264.13 27.005 2275.18 10.5489C2309.61 -40.9847 2319.57 -97.715 2305.06 -158.126C2294.24 -202.298 2269.76 -233.261 2232.3 -249.934C2215.19 -257.512 2199.17 -263.359 2182.92 -267.689L2163.43 -272.669C2141.34 -278.299 2118.6 -283.929 2097.81 -294.106C2076.16 -304.716 2061.86 -319.223 2054.07 -338.061H2113.84L2180.32 -337.844L2313.08 -338.277L2313.29 -342.608ZM2313.29 -342.608H2312.86L2180.11 -342.391H2047.14C2055.8 -316.841 2073.78 -300.602 2095.65 -289.775C2122.94 -276.567 2152.6 -270.937 2181.62 -263.142C2198.3 -258.593 2214.6 -252.729 2230.35 -245.603C2268.25 -228.714 2290.34 -198.184 2300.52 -156.827C2315.03 -97.0654 2304.63 -41.6343 2271.28 8.16708C2259.15 26.3554 2242.04 39.7802 2223.64 51.0396C2185.31 73.9915 2143.94 88.7154 2101.71 101.058C2072.26 109.502 2042.37 116.864 2013.57 128.557C1970.91 145.879 1944.05 177.275 1937.12 226.211C1926.73 299.83 1934.09 370.418 1975.89 432.778C2003.83 474.135 2040.21 505.748 2082.87 528.483C2127.48 552.518 2172.53 574.604 2217.14 598.205C2243.99 612.713 2269.55 628.736 2293.15 648.656C2302.9 656.884 2309.4 668.793 2321.09 674.64V450.1C2318.92 447.718 2316.76 446.852 2314.38 446.852C2312.21 446.852 2309.83 447.718 2307.45 448.151C2278.64 454.647 2250.06 463.308 2220.61 465.69C2209.78 466.556 2199.17 467.206 2188.77 467.206C2140.69 467.206 2094.78 456.596 2054.07 423.9C2017.25 394.236 1996.03 354.612 1994.3 304.81C1992.35 249.162 2015.09 205.424 2068.58 182.688C2107.13 166.232 2146.76 157.788 2187.04 157.788C2211.94 157.788 2237.28 161.036 2262.83 167.748C2278.21 171.862 2292.72 178.358 2307.66 183.122C2310.26 183.988 2312.64 185.07 2315.24 185.07C2317.41 185.07 2319.36 184.204 2321.31 182.039L2321.52 -331.998C2321.74 -340.226 2320.66 -342.608 2313.29 -342.608ZM-437.916 755.404L-414.527 755.621C-383.342 756.054 -354.323 764.066 -327.902 779.439C-256.004 822.312 -217.239 890.734 -209.443 989.254C-207.06 1021.3 -206.844 1050.75 -208.793 1079.55C-209.659 1089.94 -210.092 1100.55 -210.525 1110.94C-211.608 1131.3 -212.691 1152.52 -215.723 1173.09C-219.188 1196.04 -223.736 1217.69 -241.277 1233.71C-254.055 1245.84 -269.214 1250.6 -283.724 1254.07C-320.756 1263.38 -360.17 1267.93 -404.132 1267.93L-421.241 1268.14H-438.133C-453.942 1268.14 -472.566 1267.93 -491.19 1266.41V1194.96C-489.458 1193.22 -487.292 1192.57 -483.611 1192.57H-479.28C-465.203 1192.57 -450.91 1191.71 -437.266 1191.06L-429.687 1190.63C-397.852 1188.89 -373.597 1184.13 -351.508 1175.04C-317.074 1161.39 -292.17 1136.06 -277.443 1099.25C-263.8 1065.26 -257.52 1026.5 -258.386 980.377C-259.252 946.382 -266.182 917.584 -279.609 892.033C-307.762 838.551 -350.208 811.485 -405.648 811.052H-407.164C-426.438 811.052 -445.279 814.516 -463.687 817.548L-481.878 820.796C-483.827 821.012 -485.127 821.229 -486.426 821.229C-488.592 821.229 -489.891 820.796 -490.974 819.713V757.353C-475.381 756.054 -458.273 755.404 -437.916 755.404ZM-437.916 751.074C-457.19 751.074 -476.464 751.723 -495.738 753.456V821.662C-493.14 825.126 -490.108 825.993 -486.643 825.993C-484.91 825.993 -483.178 825.776 -481.445 825.559C-456.757 821.662 -432.502 815.816 -407.381 815.816H-405.865C-349.992 816.032 -310.361 843.748 -283.724 894.199C-269.647 920.832 -263.8 949.846 -262.934 980.593C-262.284 1021.08 -266.832 1060.49 -281.775 1097.73C-295.851 1132.6 -319.89 1157.5 -353.457 1170.92C-378.145 1181.1 -403.699 1184.78 -430.12 1186.29C-446.579 1187.16 -462.821 1188.24 -479.28 1188.24H-483.611C-488.159 1188.24 -492.49 1189.33 -495.522 1193.44V1270.52C-476.248 1272.47 -457.19 1272.69 -437.916 1272.69L-403.916 1272.47C-362.985 1272.26 -322.272 1268.36 -282.424 1258.4C-266.399 1254.5 -251.023 1249.09 -238.029 1236.96C-219.405 1219.86 -214.64 1197.12 -210.959 1173.52C-206.411 1142.34 -206.411 1110.94 -204.029 1079.55C-201.863 1049.23 -202.296 1018.92 -204.678 988.605C-212.041 896.364 -247.125 821.878 -325.304 775.325C-352.59 759.302 -382.693 751.29 -414.094 750.857C-422.107 751.074 -430.12 751.074 -437.916 751.074ZM2317.19 1214.88V1243.02L2317.41 1339.38C2317.41 1342.19 2316.98 1342.84 2316.98 1343.06C2316.98 1342.84 2316.98 1342.84 2316.76 1342.84C2316.33 1342.84 2315.46 1343.06 2313.73 1343.06H2089.8C2096.73 1335.05 2105.18 1326.6 2115.57 1320.33C2129.87 1311.45 2145.46 1305.6 2160.83 1299.97L2167.98 1297.16L2189.85 1289.36C2206.1 1283.73 2222.99 1277.89 2239.23 1270.09C2265.22 1257.75 2290.34 1239.99 2317.19 1214.88ZM2321.52 1204.27C2296.19 1229.17 2268.9 1250.82 2237.06 1265.98C2214.11 1277.02 2189.85 1284.17 2166.25 1292.83C2148.27 1299.76 2129.87 1305.82 2112.97 1316.21C2099.98 1324.22 2089.58 1335.27 2080.27 1347.39H2313.51C2319.57 1347.39 2321.74 1346.53 2321.74 1339.16L2321.52 1204.27ZM-102.028 1330.5V1335.05C-88.9029 1335.03 -75.9198 1337.76 -63.9127 1343.06H-133.646C-130.397 1340.03 -126.932 1338.08 -123.467 1337.43C-116.104 1335.92 -108.958 1335.27 -102.028 1335.27V1330.5ZM-102.028 1330.5C-109.391 1330.5 -116.754 1331.37 -124.334 1332.88C-132.13 1334.4 -138.41 1340.25 -142.958 1347.61H-45.938C-63.6961 1336.13 -82.537 1330.5 -102.028 1330.5Z" fill="url(#paint3_linear_3120_1185)"/>
<path d="M1788.78 964.354V968.901C1818.23 968.901 1840.32 981.026 1856.35 1005.71C1874.32 1033.43 1876.05 1092.11 1832.74 1125.88C1809.79 1143.42 1783.37 1146.89 1758.03 1147.75C1722.94 1146.67 1695.44 1140.17 1671.62 1127.83C1660.36 1121.77 1649.96 1115.06 1647.8 1102.07C1645.2 1085.83 1648.01 1071.32 1655.81 1059.19C1662.96 1048.37 1669.89 1038.84 1677.03 1030.18C1707.35 993.585 1738.54 974.314 1775.14 969.984C1779.68 969.334 1784.45 969.117 1788.78 969.117V964.354ZM1788.78 964.354C1784.23 964.354 1779.25 964.787 1774.49 965.22C1732.69 970.2 1700.86 994.234 1673.79 1027.15C1665.99 1036.46 1659.06 1046.42 1652.13 1056.59C1643.03 1070.67 1641.08 1086.69 1643.47 1102.71C1645.85 1117.87 1658.19 1125.45 1669.67 1131.73C1697.61 1146.45 1727.71 1151.22 1758.46 1152.3C1785.96 1151.22 1812.39 1147.54 1835.56 1129.56C1880.6 1094.7 1879.52 1033.21 1860.25 1003.55C1842.27 975.397 1817.58 964.354 1788.78 964.354ZM1125.02 97.8096C1130 97.8096 1135.41 98.6757 1140.82 100.624C1180.67 113.833 1211.21 135.918 1234.16 167.965C1254.09 195.897 1269.25 227.726 1283.54 258.69L1289.82 272.114C1324.25 344.651 1340.5 418.054 1339.85 496.87C1339.63 534.113 1341.58 566.159 1345.91 594.741C1352.62 639.779 1374.71 665.112 1414.99 674.423C1431.67 678.104 1448.56 679.836 1465.02 679.836C1484.29 679.836 1503.78 677.238 1522.41 672.258C1581.31 656.018 1626.36 615.744 1664.47 545.156C1698.04 482.146 1707.14 413.074 1711.9 353.745C1714.93 313.255 1722.73 281.642 1736.59 254.359C1751.1 226.211 1771.89 208.455 1800.04 200.011C1804.81 198.495 1809.79 197.845 1814.12 197.845C1835.34 197.845 1845.95 214.302 1851.58 228.159C1860.68 251.328 1864.79 276.661 1868.69 300.913L1871.94 319.967C1883.42 387.307 1908.11 446.852 1945.35 497.087C1972.64 533.463 2005.78 563.994 2037.83 593.658L2053.2 607.949C2080.49 633.716 2106.48 662.081 2132.46 694.344L2150.87 717.512C2168.41 739.598 2186.6 762.117 2205.23 783.986C2240.96 825.343 2281.68 861.286 2317.19 892.033V1045.12C2315.68 1047.93 2314.59 1050.75 2313.51 1053.56C2311.99 1057.46 2310.7 1061.14 2308.53 1064.17L2297.49 1079.98L2269.77 1119.6C2237.28 1167.67 2194.83 1200.59 2140.26 1219.86C2126.62 1224.62 2112.54 1229.17 2098.9 1233.5C2086.04 1237.35 2073.26 1241.47 2060.57 1245.84C2017.47 1261 1993 1288.71 1985.85 1331.15C1984.99 1335.7 1984.34 1340.25 1981.74 1343.06H1894.03C1890.56 1340.68 1888.18 1338.08 1886.45 1334.18C1877.79 1315.56 1864.14 1302.35 1845.74 1295.21C1817.8 1284.81 1790.08 1279.62 1763.01 1279.62C1743.08 1279.62 1722.94 1282.43 1703.24 1288.28C1672.92 1296.94 1651.48 1312.53 1637.4 1336.13C1635.89 1338.51 1633.72 1340.03 1630.91 1341.76C1630.45 1342.19 1629.94 1342.56 1629.39 1342.84H1542.98C1543.63 1341.11 1544.28 1339.6 1544.93 1338.08C1548.61 1329.64 1552.29 1320.76 1556.41 1312.53C1578.5 1267.71 1612.71 1238.91 1658.19 1226.57C1683.53 1219.42 1709.95 1219.42 1735.51 1219.21C1746.63 1219.2 1757.74 1218.99 1768.86 1218.56L1782.07 1217.69C1805.89 1216.18 1830.58 1214.66 1854.4 1208.81C1895.98 1198.64 1923.05 1172.65 1934.96 1131.73C1942.11 1106.4 1944.49 1078.68 1942.32 1046.42C1940.16 1018.49 1934.53 996.833 1924.56 978.212C1896.19 926.461 1851.15 901.344 1786.18 901.344C1751.96 901.777 1719.48 910.871 1688.94 928.843L1651.26 951.146L1596.91 982.975C1577.63 993.802 1558.14 999.215 1538.87 999.215C1516.56 999.215 1493.82 991.636 1471.3 977.129C1446.83 961.322 1426.04 939.453 1405.68 908.273C1384.46 876.443 1368.22 840.716 1352.19 806.288L1343.74 788.317C1336.6 773.376 1330.75 762.333 1324.04 752.589C1306.49 727.256 1285.92 712.532 1261.45 707.768C1250.41 705.603 1239.58 704.737 1228.97 704.737C1197.56 704.737 1166.6 713.831 1137.14 731.37C1109.21 748.259 1084.95 770.778 1061.56 792.647L1054.85 798.927C1025.83 826.209 995.728 852.625 966.275 878.392L957.18 886.404C928.377 911.737 895.459 942.917 868.822 981.243C853.879 1002.68 841.535 1026.06 829.841 1048.58C822.694 1062.22 815.331 1076.3 807.535 1089.72C779.815 1136.71 742.783 1167.24 694.489 1183.05C685.394 1186.08 676.082 1187.59 666.553 1187.59C638.4 1187.59 611.762 1173.52 593.355 1149.05C578.195 1129.13 564.768 1107.7 553.724 1089.51C532.284 1054.86 506.08 1014.37 474.029 976.696C462.551 963.271 450.64 948.331 440.678 931.658C419.672 896.797 412.308 859.771 418.372 818.197C424.869 770.994 442.194 732.669 471.213 700.839C496.984 672.474 530.768 656.884 557.405 646.491C576.896 638.912 597.253 632.85 616.96 627.003C632.336 622.456 648.362 617.693 663.954 612.28C701.853 599.071 733.037 573.521 759.242 534.33C772.885 513.976 783.28 491.457 793.675 469.804L804.287 447.069C816.631 421.735 830.924 400.515 847.816 382.327C864.924 363.706 884.631 347.466 903.689 331.876C916.033 321.699 929.027 311.089 941.154 300.047C965.842 277.095 989.664 251.761 1013.27 222.746C1032.54 199.361 1050.3 173.811 1067.41 148.91L1085.17 123.36C1096.65 106.038 1109.86 97.8096 1125.02 97.8096ZM1125.02 93.479C1108.34 93.479 1093.83 102.357 1081.27 120.328C1057.66 153.674 1035.58 188.318 1009.59 219.498C987.282 246.781 963.46 272.331 937.689 296.365C907.154 324.731 872.72 347.899 844.134 379.079C825.943 398.567 811.65 420.869 799.955 444.904C785.662 474.135 773.318 504.665 755.344 531.515C731.522 567.025 701.636 593.875 662.438 607.732C627.138 620.075 590.756 628.303 555.889 641.944C523.405 654.719 492.22 670.742 467.965 697.375C437.43 730.937 420.321 771.211 413.824 817.115C407.761 859.338 415.34 898.096 436.78 933.607C446.742 950.063 458.436 964.787 470.78 979.294C500.449 1014.37 525.787 1052.26 550.042 1091.67C562.386 1112.03 575.38 1132.6 589.89 1151.65C609.164 1177.42 637.317 1191.92 666.769 1191.92C676.515 1191.92 686.26 1190.41 696.005 1187.16C745.598 1170.92 783.713 1138.88 811.433 1091.89C832.44 1056.16 849.115 1017.62 872.72 983.625C897.842 947.681 928.377 918.017 960.645 889.652L1058.31 802.174C1084.09 778.14 1109.64 753.456 1139.74 735.267C1168.33 718.162 1198 709.284 1229.4 709.284C1239.79 709.284 1250.19 710.367 1261.02 712.315C1287 717.296 1305.63 733.535 1320.79 755.188C1328.37 766.231 1334.43 778.356 1340.28 790.265C1359.34 831.406 1377.53 872.979 1402.22 910.655C1420.41 938.587 1441.63 963.055 1469.13 980.81C1492.31 995.967 1515.69 1003.55 1539.08 1003.55C1559.22 1003.55 1579.15 998.132 1599.29 986.656C1630.26 969.117 1660.57 950.279 1691.11 932.308C1720.56 915.202 1752.83 905.891 1785.75 905.458H1786.18C1842.49 905.458 1890.56 924.729 1920.67 979.944C1931.71 1000.51 1936.04 1023.25 1937.77 1046.42C1939.94 1074.57 1938.64 1102.71 1930.63 1130.21C1918.93 1171.14 1892.08 1194.52 1853.32 1204.05C1825.6 1210.98 1797.23 1211.84 1768.64 1213.79C1731.39 1215.74 1693.71 1211.84 1657.11 1222.02C1609.47 1234.8 1575.03 1264.68 1552.51 1310.58C1546.66 1322.71 1541.47 1335.27 1536.05 1347.61H1630.91C1634.59 1344.79 1638.7 1342.84 1641.3 1338.51C1656.24 1313.61 1678.77 1299.97 1704.54 1292.61C1724.03 1286.98 1743.73 1284.17 1763.01 1284.17C1790.3 1284.17 1817.37 1289.36 1844.22 1299.32C1861.54 1306.03 1874.32 1318.16 1882.33 1335.92C1884.72 1341.11 1887.97 1344.79 1892.73 1347.39H1983.47C1988.23 1343.49 1989.1 1337.43 1990.4 1331.58C1997.76 1287.85 2023.75 1262.95 2061.86 1249.74C2088.29 1240.64 2115.14 1233.28 2141.78 1223.97C2195.92 1204.7 2240.1 1171.35 2273.45 1121.77L2311.99 1066.34C2316.54 1059.84 2317.84 1052.26 2321.52 1045.77V889.435C2282.11 855.44 2242.91 820.579 2208.48 780.522C2183.36 751.29 2159.75 721.193 2135.71 691.096C2110.81 660.132 2084.6 631.117 2056.02 604.268C2018.55 569.407 1979.79 535.629 1948.6 494.055C1910.27 442.522 1886.88 383.626 1876.05 318.884C1870.64 287.704 1867.18 255.875 1855.48 226.211C1847.03 204.991 1832.74 193.298 1813.9 193.298C1809.14 193.298 1803.94 193.948 1798.53 195.68C1769.07 204.341 1747.2 223.396 1732.26 252.41C1716.23 284.023 1709.52 318.235 1706.92 353.529C1701.94 419.57 1691.76 484.312 1660.36 543.207C1628.31 602.969 1586.08 650.388 1521.11 668.144C1502.7 673.124 1483.86 675.506 1465.02 675.506C1448.78 675.506 1432.32 673.773 1415.86 670.092C1376.44 660.998 1356.95 636.747 1350.46 594.091C1345.69 561.829 1344.18 529.133 1344.39 496.87C1345.26 416.755 1327.72 341.403 1294.15 270.166C1277.04 234.222 1261.23 197.845 1238.06 165.366C1213.37 130.938 1180.89 109.069 1142.56 96.2939C1136.28 94.3451 1130.43 93.479 1125.02 93.479ZM-98.5626 120.545C-90.9829 120.545 -83.1866 121.195 -75.6069 122.061C-43.5557 125.958 -17.7848 139.599 0.83963 162.551C34.84 203.475 53.0312 254.792 56.9293 319.101C59.5281 358.292 51.9484 395.319 43.5024 429.53C31.808 478.032 26.8271 519.173 28.1265 558.797C29.2093 587.812 32.0247 616.827 36.5724 645.192C46.9675 712.315 69.923 767.53 106.955 814.083L172.357 895.714C198.778 928.41 227.581 963.055 263.53 990.77C300.346 1019.35 329.148 1049.67 351.454 1083.44C371.811 1114.41 392.601 1141.91 415.124 1167.67C446.092 1203.18 482.691 1232.2 517.774 1260.13L532.501 1271.82C557.405 1291.74 573.431 1315.13 581.66 1343.28H460.385C459.736 1341.98 459.302 1340.46 458.436 1339.38C435.914 1298.24 404.945 1265.54 374.627 1236.1C338.677 1201.45 297.53 1174.39 248.587 1153.17C199.427 1131.95 164.344 1094.7 144.637 1042.74L137.924 1024.77L105.223 940.969C91.7959 908.923 73.1715 879.475 55.1968 851.326L43.5024 832.488C25.0946 803.257 12.7506 772.727 6.90338 741.763C-4.35788 682.435 -8.47256 622.456 -12.3707 555.982C-15.4026 502.067 -10.205 446.852 3.00525 391.854C15.5659 339.671 14.6996 295.716 0.623047 254.143C-17.1351 202.609 -53.5175 173.161 -99.2122 173.161C-112.206 173.161 -125.849 175.543 -139.926 180.523C-179.773 194.814 -211.175 221.447 -242.577 249.812C-286.106 288.787 -322.055 315.203 -359.52 335.341L-408.464 360.674C-435.967 374.749 -464.12 389.039 -491.407 405.062V291.385L-491.19 291.169L-483.611 289.653C-413.228 275.579 -361.686 256.308 -316.858 226.86C-302.131 217.333 -288.055 207.156 -274.195 196.979C-255.57 183.338 -236.08 169.264 -215.939 157.138C-174.359 132.237 -136.244 120.545 -98.5626 120.545ZM-98.5626 115.998C-141.225 115.998 -180.64 130.722 -217.889 152.808C-253.188 173.811 -284.806 200.227 -319.023 222.53C-369.915 255.875 -426.222 273.197 -484.26 284.673C-487.942 285.539 -491.84 286.189 -495.522 287.055V412.424C-450.477 385.358 -403.049 363.489 -357.138 338.805C-314.259 315.636 -275.927 285.539 -239.328 252.843C-208.793 225.128 -177.175 198.495 -138.194 184.421C-124.55 179.874 -111.556 177.275 -99.2122 177.275C-55.8997 177.275 -20.6001 205.424 -3.49161 255.225C11.8843 300.48 9.50214 345.301 -1.32599 390.555C-14.5363 444.904 -19.9504 500.118 -16.9185 555.766C-13.2369 618.126 -9.12225 680.702 2.35556 742.196C8.63586 775.542 21.8462 806.288 39.6043 834.437C61.4771 869.515 84.8659 903.509 101.108 942.268C114.968 975.83 127.529 1010.04 140.522 1043.82C160.879 1097.52 196.612 1135.19 246.855 1156.85C292.766 1176.55 334.562 1202.97 371.595 1238.69C403.213 1269.44 433.098 1301.49 454.755 1341.11C455.837 1343.06 456.487 1345.23 457.353 1347.17H587.291C579.062 1313.83 560.654 1288.06 535.316 1267.71C494.602 1235.23 453.239 1204.05 418.589 1163.99C395.417 1137.58 374.627 1109.64 355.352 1080.2C330.881 1043.17 300.562 1013.07 266.345 986.44C231.912 959.807 203.759 926.678 176.039 892.033L110.637 810.619C72.3052 762.333 50.8655 706.036 41.1202 643.893C36.789 615.311 33.9737 586.729 32.8909 557.931C31.3749 514.409 37.8718 471.97 48.0502 429.963C57.1459 393.153 64.0759 356.344 61.6937 318.235C58.0121 259.123 41.77 204.341 4.52118 159.087C-16.0522 133.97 -43.5557 120.978 -74.7407 116.864C-83.1866 116.431 -90.9829 115.998 -98.5626 115.998ZM-491.19 581.533C-490.541 581.749 -489.891 582.182 -489.458 582.399C-449.177 607.949 -406.731 630.035 -365.584 651.255L-335.265 667.061C-294.118 688.497 -259.902 712.965 -230.666 741.98L-228.5 744.145C-198.614 773.809 -167.429 804.556 -143.824 841.149C-118.486 880.124 -109.391 925.812 -102.244 969.334L-98.5626 994.234C-93.5816 1028.01 -88.3841 1062.66 -76.2567 1095.57C-63.4795 1130.86 -47.8869 1156.2 -27.3135 1175.25C-7.60632 1193.87 14.9162 1207.95 36.5724 1221.81L54.7637 1233.28C99.8087 1262.95 124.93 1297.81 133.809 1342.63H66.2415C66.025 1342.41 66.025 1341.98 65.8084 1341.76C64.7256 1339.16 63.4261 1336.35 61.6937 1333.75C43.2859 1307.12 19.0309 1285.25 -16.7019 1262.73L-23.1988 1258.61C-44.8551 1244.97 -67.161 1230.9 -86.002 1212.93C-111.123 1188.24 -127.365 1154.03 -136.461 1105.1C-141.442 1078.9 -144.041 1051.61 -146.639 1025.2L-152.92 969.334C-166.563 872.979 -212.691 795.462 -290.437 738.515C-352.59 693.261 -426.438 682.218 -491.19 675.939V581.533ZM-495.522 575.037V680.702C-424.273 687.631 -353.673 698.674 -292.819 742.846C-217.672 797.844 -170.894 873.196 -157.034 970.633C-150.754 1015.67 -148.805 1061.79 -140.359 1106.61C-132.563 1148.19 -118.703 1187.16 -88.6007 1216.61C-67.5941 1236.96 -43.1226 1251.69 -18.651 1267.06C10.8015 1285.46 37.8718 1306.9 58.4453 1336.78C60.6108 1340.03 61.9103 1343.93 63.6428 1347.39H139.873C130.777 1293.26 99.8087 1257.53 57.7956 1229.82C29.859 1211.63 1.27274 1195.39 -23.6319 1172C-46.5876 1150.78 -60.6642 1123.5 -71.4923 1094.05C-86.4351 1053.56 -90.5497 1010.91 -97.2632 968.684C-104.843 922.997 -113.939 878.176 -139.493 838.768C-163.964 800.659 -195.583 769.912 -226.984 738.732C-258.602 707.552 -294.552 683.084 -332.667 663.164C-384.425 635.881 -436.833 610.331 -486.643 578.718C-489.458 577.202 -492.706 576.119 -495.522 575.037ZM155.682 -337.844H201.81C205.708 -315.109 213.721 -292.373 225.632 -270.288C250.32 -224.167 274.142 -176.315 297.314 -129.761L320.486 -83.2076C337.161 -50.0789 357.302 -26.0443 381.99 -10.4543C398.881 0.155548 417.289 5.78531 434.831 5.78531C463.634 5.78531 488.972 -8.72211 506.08 -34.7054C527.52 -66.7515 531.851 -103.345 533.8 -137.989C534.883 -160.725 533.367 -183.46 532.068 -205.546C530.768 -223.085 529.685 -241.056 529.902 -258.595V-337.844H600.501L596.17 -308.397L587.074 -238.675C584.909 -216.805 583.176 -194.503 581.66 -172.85L576.463 -110.707C572.348 -69.1333 563.902 -36.8707 550.042 -9.37167C528.819 33.7173 491.57 58.6181 447.825 58.6181C432.232 58.6181 416.64 55.5867 401.264 49.5239C362.499 34.1504 330.231 5.56873 302.728 -37.5203C288.651 -59.6061 276.091 -83.2076 263.963 -106.16C259.848 -114.171 255.517 -121.966 251.402 -129.761L225.415 -176.748L195.529 -231.096C177.122 -264.225 163.911 -300.168 155.682 -337.844ZM150.051 -342.391C158.497 -302.334 171.924 -264.658 190.982 -228.931L247.071 -127.812C263.963 -96.8489 279.772 -65.0193 298.613 -35.355C324.167 4.70264 356.219 36.3157 399.315 53.4214C415.34 59.7007 431.582 62.9486 447.608 62.9486C490.271 62.9486 530.552 39.9967 553.94 -7.42291C570.182 -39.469 577.329 -74.5465 581.011 -110.274L591.622 -238.242C595.304 -273.103 601.151 -307.747 605.915 -342.391H525.571V-258.812C525.137 -218.754 531.418 -178.48 529.469 -138.206C527.736 -102.479 522.755 -67.6176 502.615 -37.0872C485.29 -11.1039 460.818 1.23819 435.047 1.23819C418.156 1.23819 400.614 -3.9585 384.588 -14.1353C357.735 -31.0244 339.11 -56.5747 324.817 -85.1564L229.746 -272.453C218.052 -293.889 209.389 -317.058 205.708 -342.175L150.051 -342.391ZM1552.94 -337.844H1635.89C1640.49 -335.356 1644.43 -331.79 1647.36 -327.451C1653.21 -319.006 1661.22 -312.294 1672.7 -305.582C1696.31 -292.157 1721 -285.228 1745.9 -285.228C1773.84 -285.228 1802.64 -293.456 1833.82 -310.129C1841.19 -314.026 1847.25 -319.872 1852.67 -325.502C1857.43 -330.049 1861.76 -334.596 1866.96 -337.628H1951.85C1951.42 -323.553 1949.04 -310.129 1946.65 -298.653C1936.26 -248.202 1930.41 -242.356 1882.33 -234.128C1860.46 -230.447 1838.16 -228.714 1816.5 -226.766L1796.79 -225.033L1791.16 -224.6C1772.1 -222.868 1752.4 -220.919 1733.12 -220.919C1720.35 -220.919 1708.65 -221.785 1697.61 -223.301C1629.61 -233.694 1581.1 -272.02 1552.94 -337.844ZM1546.23 -342.391C1574.6 -271.154 1624.84 -229.797 1696.96 -219.187C1709.08 -217.455 1721 -216.805 1733.12 -216.805C1754.56 -216.805 1776 -218.971 1797.44 -220.919C1826.03 -223.518 1854.83 -225.033 1883.2 -229.797C1933.23 -238.242 1940.59 -245.603 1951.2 -298.003C1954.23 -312.511 1956.62 -327.234 1956.62 -342.391H1865.88C1853.1 -334.813 1845.09 -321.388 1831.88 -314.243C1803.29 -298.869 1774.92 -289.992 1746.12 -289.992C1722.51 -289.992 1699.12 -295.838 1675.08 -309.479C1665.77 -314.892 1657.54 -320.955 1651.26 -330.049C1647.36 -335.462 1642.82 -339.577 1637.19 -342.391H1546.23ZM-488.159 -338.061L-402.183 -337.628L-359.087 -337.844H-324.437C-347.609 -306.231 -382.043 -301.684 -413.228 -301.468H-414.96C-427.954 -301.468 -441.381 -302.334 -454.375 -303.2C-466.502 -304.066 -478.846 -304.932 -491.19 -305.149C-491.19 -307.097 -490.974 -309.046 -490.974 -310.995C-490.757 -319.006 -490.757 -327.018 -491.19 -335.029C-491.407 -336.978 -490.974 -337.844 -490.974 -338.061H-490.757H-488.159ZM-488.159 -342.608C-494.222 -342.608 -495.955 -341.092 -495.738 -334.596C-495.089 -323.337 -495.522 -311.861 -495.522 -300.385H-494.222C-467.802 -300.385 -441.381 -296.921 -414.96 -296.921H-413.228C-375.329 -297.137 -338.947 -304.499 -315.991 -342.175H-402.183L-488.159 -342.608ZM2030.68 -201.215C2061 -201.215 2090.02 -194.719 2112.11 -189.09C2129.43 -184.759 2145.24 -177.181 2159.32 -166.354C2181.62 -148.816 2194.62 -125.431 2196.78 -99.0142C2199.38 -67.1846 2186.39 -33.1897 2161.05 -5.90723C2143.94 12.7142 2120.99 25.9224 2088.72 35.8826C2067.06 42.8115 2048.65 47.1421 2029.81 47.1421C2022.02 47.1421 2014.87 46.4925 2007.72 44.9768C1973.72 37.1818 1964.2 28.0876 1954.67 -6.98987C1949.69 -25.1782 1947.74 -43.5831 1948.82 -62.854C1947.52 -71.2986 1948.6 -79.7432 1949.69 -88.8374C1950.12 -92.5183 1950.55 -96.4158 1950.77 -100.313C1952.93 -124.564 1956.83 -145.568 1963.11 -164.622C1969.83 -186.058 1982.82 -196.668 2004.91 -199.7C2013.35 -200.782 2021.8 -201.215 2030.68 -201.215ZM2030.68 -205.762C2022.02 -205.762 2013.14 -205.113 2004.26 -204.03C1981.3 -200.999 1966.36 -189.739 1958.78 -166.138C1952.07 -144.918 1948.39 -122.832 1946.44 -100.746C1945.35 -87.7547 1942.54 -74.7631 1944.27 -63.2871C1943.41 -42.5004 1945.57 -23.879 1950.34 -6.12378C1960.51 30.9025 1971.34 41.2958 2006.86 49.0909C2014.65 50.8231 2022.23 51.4726 2029.81 51.4726C2050.17 51.4726 2070.31 46.276 2090.02 39.9966C2117.74 31.3355 2144.16 18.7769 2164.3 -3.09235C2209.56 -52.0276 2218.87 -125.647 2161.92 -170.035C2147.41 -181.295 2130.95 -189.09 2113.19 -193.637C2086.12 -200.566 2058.62 -205.762 2030.68 -205.762Z" fill="url(#paint4_linear_3120_1185)"/>
<path d="M1036.22 -236.076C1045.1 -236.076 1053.12 -233.478 1060.05 -228.281C1070.44 -220.703 1077.8 -210.743 1083.43 -196.452C1093.83 -169.602 1096.43 -140.804 1091.45 -108.108L1091.23 -106.593C1087.98 -86.4556 1084.73 -65.6689 1074.99 -47.9136C1070.01 -38.3864 1063.73 -33.8393 1056.15 -33.8393C1052.03 -33.8393 1047.48 -35.1385 1042.5 -37.5203C1020.85 -47.9136 1002.87 -65.8854 987.064 -92.3018C972.987 -116.12 965.84 -137.123 964.758 -158.559C964.325 -166.138 966.274 -173.283 968.223 -180.862L968.656 -183.46C975.802 -210.526 1008.5 -236.076 1036.22 -236.076ZM1036.22 -240.623C1005.25 -240.623 971.471 -212.042 964.324 -184.326C962.159 -175.665 959.56 -167.22 960.21 -158.343C961.509 -133.226 970.605 -110.923 982.949 -89.92C997.242 -65.6689 1015.22 -45.5318 1040.34 -33.4063C1045.97 -30.808 1051.17 -29.2922 1055.93 -29.2922C1065.03 -29.2922 1072.82 -34.4889 1078.67 -45.7484C1089.06 -64.5863 1092.31 -86.239 1095.56 -107.675C1100.33 -138.639 1098.81 -168.953 1087.33 -198.184C1082.13 -211.825 1074.55 -223.301 1062.43 -232.179C1054.85 -238.025 1045.54 -240.623 1036.22 -240.623ZM-98.1312 175.76C-72.1437 175.76 -49.1881 186.586 -29.914 207.806C-6.5253 233.789 5.6022 268 8.20093 315.636C9.71689 344.002 4.08627 371.501 -1.97748 397.051C-14.5381 449.234 -19.3025 505.315 -15.8375 563.994C-13.0222 609.465 -8.47437 654.935 -4.35968 693.261C2.13718 752.589 18.5959 801.525 45.8828 842.665C65.59 872.546 86.1635 905.242 101.973 941.402C113.883 968.468 124.278 996.833 134.024 1024.33L136.622 1031.69C158.279 1092.11 193.145 1131.95 243.171 1154.03C253.35 1158.36 263.312 1163.34 273.057 1168.32L280.637 1172C327.847 1195.82 371.16 1231.98 417.288 1285.68C431.364 1301.49 442.192 1316.86 451.071 1332.88C451.721 1333.75 452.154 1334.62 452.804 1335.7C454.969 1339.16 456.052 1341.11 455.186 1343.28H339.108C333.911 1340.68 329.363 1337 324.599 1333.1L322.866 1331.58C313.121 1322.71 302.076 1316.64 289.732 1313.18C285.618 1311.88 281.286 1311.23 277.388 1311.23C262.662 1311.23 250.318 1319.68 243.388 1334.4C241.439 1338.3 239.057 1341.11 235.592 1343.28H141.603C139.221 1340.9 137.705 1337.86 136.189 1332.88C128.393 1303.87 113.667 1279.19 90.7112 1257.1C74.9022 1241.51 56.2778 1230.03 38.5197 1218.99C34.405 1216.39 30.0737 1213.79 25.959 1210.98C5.38562 1197.77 -16.054 1183.26 -32.9459 1163.99C-55.4684 1138.66 -70.8444 1106.4 -81.6725 1062.01C-87.5197 1037.76 -91.4178 1012.42 -95.0994 987.955C-97.6981 970.85 -100.297 953.311 -103.762 935.989C-112.641 890.301 -128.45 853.058 -151.839 822.095C-176.527 789.616 -205.113 760.818 -230.018 737C-260.986 707.335 -297.369 682.218 -341.331 659.916C-383.777 638.263 -432.937 612.929 -479.281 584.564C-484.479 581.316 -488.16 578.068 -490.759 573.954V413.724C-488.377 409.393 -485.345 406.145 -480.797 403.547C-458.708 390.339 -439.001 379.729 -420.593 371.284C-344.796 335.774 -281.127 292.901 -225.687 240.285C-194.068 210.187 -162.667 190.7 -130.182 181.173C-119.354 177.492 -108.526 175.76 -98.1312 175.76ZM-98.1312 171.212C-108.959 171.212 -120.221 172.945 -131.698 176.193C-168.947 187.236 -200.782 209.538 -228.935 236.387C-286.757 291.385 -351.943 333.392 -422.542 366.521C-443.332 376.048 -463.472 387.307 -483.396 399.216C-488.593 402.248 -492.708 406.362 -495.523 411.991V574.604C-492.058 580.45 -487.294 584.347 -481.663 587.812C-436.618 615.311 -390.057 639.562 -343.28 663.38C-303.432 683.517 -265.967 708.201 -233.05 739.598C-205.33 766.014 -178.692 793.297 -155.52 824.26C-130.399 857.389 -116.323 895.281 -108.093 936.422C-99.8637 978.212 -95.9656 1021.08 -86.0038 1062.66C-76.6916 1101.2 -62.3984 1137.14 -36.4109 1166.37C-19.3025 1185.86 1.92062 1200.37 23.3603 1214.23C45.4497 1228.52 68.1887 1241.08 87.4628 1259.7C108.686 1280.27 123.845 1304.3 131.642 1333.53C133.158 1338.95 135.323 1343.71 139.654 1347.17H236.674C241.222 1344.36 244.687 1340.9 247.069 1335.7C253.35 1322.27 264.394 1315.13 276.955 1315.13C280.637 1315.13 284.318 1315.78 288.216 1316.86C299.893 1320.21 310.639 1326.22 319.618 1334.4C325.248 1339.16 330.879 1343.93 337.592 1346.96H457.135C462.333 1340.25 457.135 1334.83 454.536 1330.07C445.008 1312.75 433.097 1296.94 420.319 1282.22C380.255 1235.66 336.077 1194.74 282.153 1167.46C269.592 1161.39 257.248 1155.11 244.471 1149.48C192.496 1126.75 160.011 1084.74 140.304 1029.96C129.259 999.431 118.431 968.901 105.438 939.453C90.0616 903.943 69.9213 871.463 48.9147 839.85C19.4622 795.462 5.38562 745.661 -0.461548 692.611C-5.00937 649.306 -9.34064 606.65 -11.9394 563.561C-15.1878 507.697 -11.2897 452.266 1.92065 397.917C8.41751 370.851 13.615 343.352 12.3156 315.203C10.15 274.28 0.83783 235.305 -26.8822 204.558C-47.4556 181.822 -71.494 171.212 -98.1312 171.212ZM207.438 -337.844H278.688C281.936 -335.896 284.318 -332.864 286.484 -328.101C291.032 -317.058 296.013 -306.664 301.21 -297.354C322 -259.894 343.223 -218.971 358.166 -175.232C365.312 -153.796 372.676 -137.34 381.555 -123.049C387.402 -113.089 394.548 -103.128 406.026 -96.6324C411.873 -93.3845 417.504 -91.8688 423.135 -91.8688C434.612 -91.8688 444.358 -99.0142 450.422 -111.356C458.001 -126.946 460.6 -144.702 458.218 -163.973C454.969 -190.172 449.339 -215.723 443.708 -239.757C435.695 -273.103 431.148 -302.983 428.982 -330.915C428.549 -334.38 429.198 -336.329 430.498 -337.844H523.836C525.785 -335.463 526.002 -332.215 526.002 -327.668V-325.286C526.218 -313.81 526.002 -302.117 525.785 -290.641C525.569 -271.37 525.352 -251.233 526.435 -231.746L527.734 -212.042C529.467 -186.708 530.983 -160.292 529.9 -134.741C528.384 -97.4985 521.671 -69.3499 508.893 -45.7484C493.734 -18.2493 472.944 -2.44284 447.39 1.02161C443.058 1.6712 438.511 1.88776 434.396 1.88776C405.593 1.88776 379.606 -11.537 355.134 -39.2525C338.459 -58.0905 323.733 -82.3416 308.79 -115.037C289.516 -157.477 268.076 -199.7 243.604 -244.088C226.279 -274.835 215.018 -301.684 207.872 -328.967C206.139 -333.73 205.923 -335.896 207.438 -337.844ZM205.489 -342.391C200.508 -338.277 201.591 -333.081 203.107 -327.451C211.337 -296.921 224.33 -268.555 239.273 -241.489C262.662 -199.483 284.318 -156.827 304.458 -112.655C317.019 -84.9399 331.745 -58.307 351.453 -35.7881C374.408 -9.80475 401.478 6.86789 434.179 6.86789C438.727 6.86789 443.275 6.43484 448.039 5.78525C477.275 1.67123 498.065 -16.9502 512.792 -43.5831C527.951 -71.5152 533.148 -102.695 534.448 -134.308C535.964 -166.571 532.932 -199.267 530.983 -231.746C529.467 -262.709 530.766 -294.106 530.55 -325.069C530.333 -331.348 530.983 -337.628 525.569 -342.175H428.549C425.084 -339.143 424.218 -335.246 424.651 -330.482C426.816 -299.519 432.23 -268.988 439.377 -238.675C445.224 -213.774 450.638 -189.09 453.887 -163.539C456.052 -146.001 454.32 -129.112 446.523 -113.305C441.109 -102.046 432.88 -96.4158 423.351 -96.4158C418.803 -96.4158 413.606 -97.715 408.408 -100.53C398.23 -106.16 391.517 -115.254 385.669 -125.214C375.708 -141.237 368.778 -158.776 362.714 -176.531C347.771 -219.837 327.198 -259.678 305.325 -299.302C299.911 -309.046 295.146 -319.006 290.815 -329.833C288.433 -335.246 285.184 -339.577 280.203 -342.175L205.489 -342.391ZM1759.33 1278.97V1283.52C1776.43 1283.52 1795.06 1285.46 1815.85 1289.58C1853.31 1297.16 1875.19 1313.61 1886.23 1342.84H1637.83C1651.04 1316.64 1673.57 1299.97 1708.22 1290.23C1724.46 1285.68 1741.13 1283.3 1759.54 1283.3V1278.97M1759.33 1278.97C1741.78 1278.97 1724.24 1281.13 1706.7 1286.11C1674 1295.21 1645.63 1312.31 1630.69 1347.61H1892.73C1880.6 1308.63 1852.23 1292.39 1816.93 1285.25C1797.66 1281.57 1778.6 1278.97 1759.33 1278.97ZM1644.98 -337.844H1858.08C1854.61 -331.998 1850.71 -327.234 1845.73 -323.12C1817.15 -300.818 1783.8 -289.559 1746.76 -289.559C1743.95 -289.559 1740.92 -289.559 1738.1 -289.775C1695.44 -291.724 1665.12 -307.53 1644.98 -337.844ZM1636.97 -342.391C1659.92 -302.117 1696.09 -287.177 1737.89 -285.228C1740.92 -285.012 1743.73 -285.012 1746.76 -285.012C1783.58 -285.012 1817.8 -295.621 1848.55 -319.656C1856.35 -325.502 1861.33 -333.73 1865.87 -342.391H1636.97ZM1126.1 266.701H1127.83C1159.01 267.351 1187.17 280.992 1211.42 307.625C1266.21 367.82 1285.49 436.675 1269.03 511.811C1260.8 548.404 1244.34 574.171 1218.14 590.843C1204.49 599.504 1193.01 606.433 1181.54 612.713C1139.52 635.664 1102.92 664.03 1072.17 696.942L1019.76 754.538C984.465 795.029 942.452 833.787 891.343 873.196C836.769 915.202 798.005 955.693 769.418 1000.08L768.119 1002.03C757.94 1017.62 747.329 1033.64 732.819 1045.12C716.577 1058.11 702.284 1064.17 687.991 1064.17C681.494 1064.17 674.78 1062.87 668.284 1060.28C649.876 1053.13 633.634 1040.14 619.773 1021.3C588.589 978.861 561.085 929.926 532.715 867.349C520.371 839.85 516.69 818.197 521.021 796.761C527.951 761.9 548.524 738.948 587.506 722.276C604.181 714.914 621.723 709.5 638.831 704.087C651.608 699.973 664.602 695.859 677.596 690.879C715.927 676.805 747.762 656.018 774.832 627.22C798.221 602.319 817.712 571.139 836.12 529.566C861.457 471.32 894.375 424.766 936.821 387.957L950.248 376.048C979.917 349.848 1010.89 322.782 1043.8 299.83C1069.57 282.508 1095.56 266.701 1126.1 266.701ZM1126.1 262.371C1094.05 262.371 1067.19 278.827 1041.2 296.582C1003.09 322.782 968.656 354.395 933.573 384.925C888.744 423.9 855.827 472.403 831.788 528.05C816.196 563.344 797.571 596.473 771.151 624.622C743.647 653.636 711.813 673.773 675.647 687.198C645.761 698.458 614.793 705.819 585.34 718.595C551.123 733.318 524.269 755.188 516.257 796.328C511.059 822.312 517.989 846.779 528.384 869.731C553.072 924.296 581.009 976.912 616.092 1024.55C629.735 1042.95 646.194 1057.03 666.551 1065.04C673.914 1067.85 681.061 1069.15 687.991 1069.15C705.316 1069.15 720.908 1060.93 735.851 1049.02C751.444 1036.67 762.488 1019.57 773.316 1002.9C805.801 952.228 848.03 912.604 894.158 877.093C940.503 841.366 984.465 802.391 1023.23 758.003C1040.34 738.515 1058.1 719.461 1075.42 700.406C1107.26 666.195 1143.64 638.912 1183.7 617.043C1196.26 610.114 1208.39 602.752 1220.52 595.174C1249.97 576.336 1265.78 547.321 1273.36 513.11C1291.12 432.128 1267.51 363.056 1214.89 305.027C1191.72 279.693 1162.91 263.02 1128.26 262.587C1127.4 262.371 1126.75 262.371 1126.1 262.371ZM1800.26 448.801C1804.37 448.801 1809.35 450.1 1814.98 452.915C1830.79 461.143 1842.05 475.434 1852.88 489.508L1858.51 496.654C1884.28 529.133 1912.22 563.777 1942.32 596.69L1969.82 625.488C2005.12 662.73 2041.72 701.272 2072.69 743.928C2089.37 767.097 2107.12 790.049 2124.23 812.351C2148.27 843.531 2173.18 875.577 2195.48 908.923C2219.3 944.217 2227.97 973.665 2224.07 1004.63C2215.41 1072.18 2174.26 1122.85 2116.44 1136.93C2108.64 1138.88 2100.63 1139.96 2093.05 1139.96C2072.69 1139.96 2036.74 1132.81 2022.45 1085.18C2017.25 1067.42 2012.92 1049.02 2008.59 1031.26L2002.09 1003.55C1985.85 939.02 1953.37 895.931 1903.34 872.113C1864.57 853.925 1822.78 845.047 1775.57 845.047C1757.59 845.047 1738.54 846.346 1718.83 848.944C1684.18 853.492 1652.34 867.782 1621.59 881.424C1600.8 890.734 1578.28 899.612 1554.02 900.262C1515.91 900.262 1476.71 867.999 1466.53 828.374C1461.34 807.588 1468.48 787.667 1485.59 775.108C1498.37 765.798 1512.88 758.436 1528.9 752.806C1586.94 732.236 1634.37 693.694 1673.57 635.015C1696.09 601.02 1717.96 564.643 1742.65 520.039L1747.41 511.378C1757.81 492.107 1767.55 473.918 1782.06 458.545C1788.56 451.832 1794.19 448.801 1800.26 448.801ZM1800.26 444.254C1792.68 444.254 1786.18 447.935 1778.82 455.73C1761.92 473.918 1750.88 496.437 1738.97 518.306C1717.31 557.498 1694.79 595.823 1670.1 633.066C1633.72 687.198 1587.59 727.905 1527.6 749.125C1512.01 754.538 1497.07 761.9 1483.21 772.077C1464.58 785.718 1456.57 807.155 1462.42 830.106C1472.81 871.68 1514.18 905.458 1554.24 905.458C1578.71 904.592 1601.45 896.148 1623.54 886.187C1654.73 872.329 1685.91 858.472 1719.69 854.141C1738.54 851.543 1757.16 850.244 1775.78 850.244C1818.66 850.244 1860.89 857.822 1901.39 876.66C1953.8 901.561 1983.25 947.248 1997.76 1005.06C2004.47 1032.34 2010.1 1059.84 2018.33 1086.91C2030.68 1128.05 2061 1144.94 2093.26 1144.94C2101.49 1144.94 2109.72 1143.86 2117.74 1141.91C2182.49 1126.1 2220.39 1069.37 2228.62 1005.71C2233.6 968.035 2219.09 935.989 2199.38 906.974C2160.83 849.811 2116.65 797.627 2076.37 741.98C2037.39 688.064 1990.61 642.16 1945.79 594.091C1916.33 562.262 1889.05 528.483 1862.19 494.272C1848.98 477.816 1836.85 459.411 1817.36 449.667C1810.87 445.986 1805.45 444.254 1800.26 444.254ZM-81.6725 -337.844H30.7234C37.6534 -305.798 49.3478 -272.453 67.106 -233.478C87.0297 -190.172 109.336 -147.516 133.158 -106.376C170.19 -41.8509 211.12 25.7058 269.592 78.7551C298.896 105.465 330.903 129.049 365.096 149.127C411.657 176.626 463.848 191.783 509.976 205.424C547.658 216.25 574.945 242.45 591.404 283.374C607.213 323.215 615.009 355.045 616.525 386.658C618.258 420.652 611.761 445.553 595.735 465.69C583.174 481.497 567.798 495.138 550.257 505.964C529.9 518.523 508.46 530.216 487.887 541.475L465.798 553.601C424.651 576.119 391.733 601.67 364.663 631.117L346.905 650.821C333.911 665.545 320.268 680.486 306.408 694.777C288 714.048 269.592 723.575 248.585 724.441C247.286 724.657 245.987 724.657 244.687 724.657C203.757 724.657 169.757 688.064 154.381 651.688C138.788 615.744 135.323 576.119 143.553 530.432C147.234 510.511 151.998 489.941 156.763 470.454L163.043 444.037C168.89 418.054 170.623 392.287 168.024 367.603C164.559 333.825 158.062 300.047 148.1 264.753L144.202 250.029C130.992 201.526 117.132 151.725 94.826 105.821C88.5457 92.8294 78.3672 73.9915 62.9913 59.4841C43.5006 41.5123 19.4622 28.3041 -7.82468 20.5091C-39.6594 11.6315 -72.7934 9.24969 -104.628 6.86789C-118.921 5.78525 -133.864 4.70261 -148.157 2.97037C-168.731 0.588562 -189.304 -1.79321 -207.928 -10.8874C-219.406 -16.5171 -238.464 -29.7253 -235.432 -54.626C-233.699 -71.0821 -228.502 -87.1052 -219.623 -103.561C-204.68 -129.978 -187.138 -153.796 -170.247 -175.665C-132.132 -225.033 -96.8319 -274.835 -81.6725 -337.844ZM-85.1375 -342.391C-99.8637 -278.299 -135.813 -227.848 -173.928 -178.263C-191.903 -155.095 -209.228 -131.493 -223.737 -105.51C-232.183 -89.7035 -238.031 -73.4639 -239.98 -55.0591C-242.795 -30.5914 -226.986 -15.0014 -209.878 -6.77338C-190.387 2.75385 -169.38 5.13565 -148.59 7.51746C-102.029 12.7141 -54.6022 12.0645 -8.90747 24.8397C16.6469 32.2016 40.2522 44.3272 60.176 62.732C73.1697 75.0741 82.915 91.0972 90.9278 107.77C115.399 157.788 129.043 212.136 143.986 265.835C153.298 299.18 160.228 333.175 163.693 368.036C166.292 393.153 164.343 418.487 158.712 443.171C152.215 471.97 144.419 500.768 139.221 529.782C131.642 572.005 133.374 613.795 150.266 653.42C167.158 692.828 202.674 729.205 244.687 729.205C245.987 729.205 247.503 729.205 248.802 728.988C273.49 727.689 292.981 715.347 309.656 697.808C329.58 677.021 348.421 655.152 367.695 633.932C396.714 602.103 430.714 577.635 467.53 557.281C495.9 541.475 524.486 526.535 552.206 509.429C569.748 498.602 585.34 484.745 598.767 468.072C617.391 444.254 621.939 416.322 620.423 386.008C618.691 348.982 608.296 314.77 595.085 281.209C578.843 240.501 551.773 212.353 510.843 200.66C461.466 186.153 412.307 171.429 367.045 144.796C333.045 125.092 301.643 101.707 272.191 75.0741C215.451 23.5405 174.954 -42.0674 136.622 -108.974C112.801 -150.115 90.9279 -192.554 70.7875 -235.86C55.195 -270.288 41.7681 -305.365 33.9719 -342.824L-85.1375 -342.391ZM1154.68 922.997C1166.81 922.997 1177.64 927.328 1186.73 935.989C1207.52 955.693 1208.17 981.243 1206.66 1010.26L1204.28 1047.07C1203.19 1061.57 1201.89 1076.52 1201.46 1091.24C1200.38 1121.55 1203.84 1151.43 1207.52 1179.58C1214.02 1228.52 1227.66 1269.01 1248.67 1303.44C1250.62 1306.68 1252.79 1309.93 1254.73 1312.96C1260.8 1322.49 1267.3 1332.23 1271.41 1343.06H877.699C886.795 1289.36 900.655 1235.66 914.082 1183.91L921.662 1154.9C937.254 1094.27 958.477 1032.13 1009.8 988.172C1053.55 950.279 1099.03 929.276 1148.62 923.646C1150.61 923.205 1152.64 922.987 1154.68 922.997ZM1154.68 918.666C1152.52 918.666 1150.35 918.883 1148.19 919.099C1094.91 924.946 1048.35 948.764 1006.77 984.707C956.095 1028.45 933.789 1089.51 917.33 1153.82C901.305 1216.61 884.196 1279.19 873.368 1343.49C873.152 1345.01 872.502 1346.31 872.069 1347.82H1278.34C1273.14 1330.29 1262.31 1316.21 1253 1301.49C1230.26 1264.24 1218.35 1222.89 1212.51 1179.37C1208.39 1150.35 1205.36 1121.12 1206.22 1091.89C1207.31 1065.04 1210.34 1038.19 1211.64 1010.91C1212.72 982.542 1212.72 954.827 1189.98 933.174C1179.15 922.564 1167.03 918.666 1154.68 918.666ZM2187.04 156.489C2205.09 156.499 2223.11 157.875 2240.96 160.603C2258.29 163.201 2275.18 169.48 2291.64 175.76L2317.19 184.854V446.203L2282.32 455.08C2249.19 463.525 2219.3 467.422 2190.93 467.422C2164.95 467.422 2140.69 464.175 2116.65 457.246C2062.51 441.872 2001.44 386.874 1994.95 315.203C1989.96 258.473 2013.35 209.538 2056.67 187.235C2096.51 166.665 2139.18 156.489 2187.04 156.489ZM2187.04 152.158C2141.56 152.158 2096.95 161.252 2054.5 183.338C2007.72 207.373 1985.42 260.422 1990.4 315.636C1996.68 385.792 2054.72 444.254 2115.35 461.576C2140.48 468.722 2165.81 471.97 2190.93 471.97C2221.9 471.97 2252.66 467.206 2283.41 459.411L2321.52 449.667V181.389C2294.67 173.161 2269.33 160.386 2241.61 156.056C2223.2 153.457 2205.01 152.158 2187.04 152.158ZM-407.816 814.3C-398.937 814.3 -390.707 814.95 -382.694 816.465C-325.089 826.859 -286.757 865.617 -269.432 931.225C-258.171 973.015 -259.254 1019.14 -272.897 1072.18C-287.84 1129.35 -320.324 1163.99 -372.083 1178.07C-408.032 1188.03 -443.765 1188.68 -486.644 1188.68H-491.192H-491.409V1102.5C-489.243 1100.33 -486.644 1100.12 -482.097 1099.9H-480.581C-477.116 1099.68 -473.651 1099.68 -470.186 1099.68H-467.587H-464.338C-452.211 1099.68 -440.3 1099.68 -428.389 1097.52C-364.503 1086.26 -324.656 1034.94 -326.821 966.736C-328.337 924.513 -354.108 893.116 -392.656 886.837C-396.771 885.971 -401.102 885.754 -405.867 885.754C-411.064 885.754 -416.695 886.187 -422.975 887.053C-442.899 889.868 -461.74 895.714 -482.53 902.21L-483.829 902.643C-485.778 903.293 -487.511 903.943 -488.81 903.943C-489.46 903.943 -490.326 903.726 -491.192 903.076V825.126H-490.759C-480.364 823.611 -469.536 822.095 -459.141 819.93C-445.064 817.331 -426.223 814.3 -407.816 814.3ZM-407.816 809.753C-425.141 809.753 -442.682 812.351 -459.791 815.816C-471.485 818.198 -483.396 819.713 -495.523 821.445V905.025C-493.358 907.84 -491.192 908.706 -488.593 908.706C-486.211 908.706 -483.613 907.623 -481.014 906.974C-461.523 900.911 -442.032 894.848 -422.109 892.034C-416.695 891.167 -411.281 890.734 -405.65 890.734C-401.535 890.734 -397.204 891.167 -393.306 891.817C-356.49 897.88 -332.452 927.328 -331.152 967.602C-328.987 1033.43 -367.752 1083.01 -428.822 1093.84C-440.517 1095.79 -452.211 1095.79 -464.122 1095.79H-469.536C-473.217 1095.79 -476.683 1095.79 -480.148 1096C-485.778 1096.22 -491.409 1095.79 -495.307 1101.42V1193.66H-486.211C-447.23 1193.66 -408.465 1193.22 -370.35 1182.83C-315.993 1168.11 -282.859 1130.86 -267.916 1073.7C-255.789 1026.28 -251.674 977.995 -264.451 930.359C-281.343 867.349 -318.375 823.611 -381.612 812.135C-390.707 810.402 -399.153 809.753 -407.816 809.753ZM1246.94 -337.844H1333.35L1333.13 -328.75L1333.35 -294.972C1333.56 -282.846 1332.26 -271.37 1329.45 -260.327C1327.93 -254.914 1324.03 -245.603 1315.16 -245.603C1311.91 -245.603 1308.01 -246.903 1304.33 -249.284C1300.86 -251.45 1297.61 -254.265 1294.8 -257.296C1273.14 -280.248 1257.12 -307.097 1246.94 -337.844ZM1240.87 -342.391C1250.84 -308.613 1267.73 -279.165 1291.33 -254.481C1294.37 -251.017 1298.26 -247.985 1301.95 -245.387C1306.49 -242.572 1311.04 -241.056 1315.16 -241.056C1323.82 -241.056 1330.53 -247.336 1333.78 -259.245C1336.81 -270.937 1338.11 -282.63 1337.89 -295.188C1337.46 -310.778 1337.68 -326.368 1337.68 -342.391H1240.87Z" fill="url(#paint5_linear_3120_1185)"/>
<path d="M749.28 -78.2275C755.776 -78.2275 762.057 -76.0622 767.688 -71.7317C789.777 -54.8425 802.554 -30.1583 805.153 1.45471C806.885 20.9422 802.554 36.5322 793.242 46.9255C785.229 55.5866 773.318 60.1337 758.808 60.1337C757.292 60.3503 755.993 60.3503 754.91 60.3503C727.623 60.3503 711.381 40.4297 707.7 21.8083C701.203 -12.4031 706.833 -40.9847 725.241 -65.4524C731.521 -73.6804 740.184 -78.2275 749.28 -78.2275ZM749.28 -82.9911C738.885 -82.9911 728.923 -78.011 721.776 -68.2672C701.419 -41.2012 697.088 -10.2378 703.368 22.6744C707.7 44.9768 726.757 64.6808 754.91 64.6808H758.808C793.242 64.6808 812.949 40.6462 809.7 1.02164C806.885 -30.1584 794.758 -56.5747 770.503 -75.4126C763.789 -80.3928 756.426 -82.9911 749.28 -82.9911ZM1443.36 -124.564C1478.01 -124.564 1509.2 -113.305 1546.23 -98.3646C1587.81 -81.4754 1637.4 -62.6375 1688.51 -51.1615C1696.74 -49.6458 1706.05 -47.4806 1713.42 -42.9335C1734.21 -29.9418 1737.45 -20.1981 1728.58 1.23816C1724.68 10.3323 1721 17.0447 1716.45 22.891L1712.33 28.3041L1671.4 79.8377C1635.45 125.742 1610.77 170.563 1595.82 216.9C1583.91 254.359 1578.93 297.232 1580.88 344.002L1581.1 366.087C1581.1 379.079 1581.31 389.472 1580.66 399.866C1579.58 422.385 1576.76 448.801 1564.42 473.269C1557.27 486.91 1548.18 497.736 1536.92 505.315C1528.9 510.728 1520.46 513.759 1512.45 513.759C1495.55 513.759 1481.04 501.417 1472.81 479.548C1465.02 458.761 1463.94 436.459 1462.64 414.59L1462.42 409.826C1461.55 392.937 1461.55 375.615 1461.55 358.942C1461.55 340.754 1461.77 321.699 1460.47 303.078C1457.66 260.205 1457.66 216.683 1457.87 174.244V149.56C1457.66 124.876 1455.27 98.6757 1450.29 66.8461C1446.61 44.1107 1440.98 22.0248 1435.13 0.588593L1426.9 -32.5401L1422.79 -48.5632C1418.24 -65.8854 1413.69 -82.3416 1414.34 -100.097C1414.78 -110.923 1419.11 -123.698 1437.3 -124.564H1443.36ZM1443.36 -129.112C1441.2 -129.112 1439.25 -129.112 1437.08 -128.895C1420.41 -128.245 1410.66 -117.852 1409.8 -100.313C1408.71 -76.0622 1416.94 -54.1929 1422.36 -31.4575C1430.15 1.67123 1440.33 33.9339 1445.53 67.4957C1449.86 94.7782 1453.11 121.844 1453.11 149.56C1453.11 200.66 1452.24 251.977 1455.71 303.078C1457.87 338.805 1455.71 374.316 1457.66 409.826C1458.95 433.644 1459.6 458.328 1468.27 481.064C1477.8 505.964 1494.25 518.306 1512.23 518.306C1521.11 518.306 1530.42 515.275 1539.52 508.996C1551.64 500.768 1561.39 489.075 1568.32 475.001C1580.23 451.399 1583.91 425.849 1585.21 399.866C1585.86 383.626 1585.21 367.603 1585.21 343.569C1583.7 306.109 1586.51 261.288 1600.15 217.982C1616.4 167.315 1643.03 123.143 1674.87 82.4361L1720.13 25.4893C1725.54 18.5604 1729.44 10.9819 1732.91 2.75385C1742.22 -19.5485 1739.4 -32.3236 1716.01 -47.0475C1708 -51.8111 1698.69 -54.1929 1689.59 -55.9251C1640.87 -66.7515 1594.31 -84.0738 1547.96 -102.695C1514.18 -116.12 1480.18 -129.112 1443.36 -129.112ZM-403.916 889.651C-402.616 889.651 -401.317 889.868 -400.018 889.868C-369.915 890.951 -344.361 911.088 -335.049 941.185C-325.52 973.015 -330.068 1008.53 -347.393 1038.41C-363.635 1066.34 -389.623 1086.04 -418.209 1092.32C-435.101 1096 -452.426 1096.44 -469.967 1096.44H-474.082H-478.197C-482.311 1096.44 -486.426 1096.44 -490.541 1096.65V908.706C-486.859 907.84 -483.394 906.757 -479.713 905.675L-476.031 904.592C-453.075 897.23 -428.82 889.651 -403.916 889.651ZM-403.916 885.104C-430.77 885.104 -456.107 893.549 -481.662 901.344C-486.21 902.86 -490.757 903.942 -495.738 905.025V1101.2C-490.108 1100.98 -484.477 1100.98 -478.846 1100.98H-470.4C-452.859 1100.98 -435.101 1100.77 -417.559 1096.87C-352.59 1082.36 -310.794 1007.01 -330.934 939.886C-340.896 908.056 -368.183 886.404 -400.018 885.321C-401.317 885.321 -402.616 885.104 -403.916 885.104ZM216.752 137.651C220.434 137.651 224.765 138.3 229.313 139.383C250.753 145.229 270.027 157.355 288.435 169.264L292.766 172.079C332.83 197.629 372.461 224.262 410.576 250.029C436.78 267.351 461.901 284.89 482.475 308.275C503.914 332.742 513.443 357.426 512.36 385.792C513.876 407.011 506.296 426.282 489.405 444.904C467.532 468.938 440.895 485.394 420.105 497.087L404.729 505.748C374.41 522.854 343.008 540.609 313.772 561.179C300.995 570.49 290.384 576.986 279.772 581.966C273.492 584.997 267.645 586.513 262.231 586.513C247.071 586.513 237.542 574.171 236.676 553.384C236.026 541.042 237.109 527.834 239.925 511.811C247.504 462.442 245.988 416.971 235.377 372.8C230.396 352.013 224.332 331.443 218.485 311.522C211.988 289.22 205.275 266.052 200.077 242.883C195.096 220.148 190.548 195.464 191.415 170.346C192.281 148.694 200.727 137.651 216.752 137.651ZM216.752 132.887C198.345 132.887 187.95 145.662 187.3 170.13C186.434 195.247 190.765 219.715 196.179 244.182C205.924 288.137 221.084 330.144 231.479 373.882C242.307 419.353 242.956 464.824 236.026 511.161C233.644 525.235 232.128 539.31 232.778 553.601C233.861 577.635 245.339 591.06 262.88 591.06C268.727 591.06 275.441 589.328 282.371 586.08C294.715 580.233 305.976 572.871 317.021 564.86C350.805 540.825 386.971 521.338 422.703 501.201C448.258 486.91 472.729 470.67 493.086 448.151C508.895 430.613 518.857 410.476 517.341 386.008C518.641 353.312 506.296 327.979 486.373 305.46C464.933 281.209 439.595 263.67 413.608 246.348L295.581 168.181C275.008 155.189 254.434 141.548 230.829 135.052C225.415 133.753 220.867 132.887 216.752 132.887ZM-35.1098 -153.146C-18.8676 -153.146 -5.00766 -142.32 3.22174 -123.265C7.98611 -112.439 8.20267 -101.613 3.87143 -93.3844C0.18985 -86.0225 -6.52359 -81.0424 -15.1861 -79.0936C-22.1161 -77.3614 -29.4792 -76.7118 -36.6258 -76.7118C-46.1545 -76.7118 -55.6833 -78.011 -66.0783 -80.6093C-76.2567 -83.4242 -84.7026 -94.6836 -84.7026 -105.727C-84.7026 -117.636 -83.6198 -120.45 -68.2439 -136.907C-58.0655 -147.516 -46.5876 -153.146 -35.1098 -153.146ZM-35.1098 -157.693C-47.4539 -157.693 -60.2311 -152.063 -71.7089 -139.938C-87.3014 -123.482 -89.2505 -119.368 -89.2505 -105.727C-89.2505 -92.9514 -79.7217 -79.7432 -67.1611 -76.2788C-56.9826 -73.6804 -46.8042 -72.1647 -36.6258 -72.1647C-29.0461 -72.1647 -21.683 -73.0308 -14.1033 -74.7631C8.20267 -79.9597 17.5148 -101.829 7.55298 -125.214C-1.97577 -146.434 -18.0014 -157.693 -35.1098 -157.693ZM1053.12 1099.03C1056.8 1099.03 1060.48 1100.98 1063.94 1104.66C1078.67 1119.6 1082.57 1145.8 1072.82 1162.91C1066.33 1175.04 1058.75 1181.1 1049.44 1181.96C1045.1 1181.75 1040.77 1180.02 1036.44 1176.77C1023.88 1167.02 1023.01 1151.43 1023.66 1142.99C1024.75 1125.88 1034.06 1107.7 1044.45 1101.63C1047.7 1100.12 1050.52 1099.03 1053.12 1099.03ZM1053.12 1094.7C1049.65 1094.7 1045.97 1096 1042.07 1098.17C1021.93 1109.86 1006.12 1159.23 1033.63 1180.66C1038.39 1184.56 1043.8 1186.73 1049.87 1186.94C1062.86 1185.64 1071.09 1175.9 1076.72 1165.51C1087.55 1146.02 1082.35 1117.44 1067.19 1101.85C1062.65 1096.87 1058.1 1094.7 1053.12 1094.7ZM2157.15 238.12C2197.65 238.12 2238.58 257.607 2266.08 290.519C2282.33 310.007 2281.68 334.691 2264.57 351.797C2240.1 376.048 2210.21 387.74 2170.8 388.173H2167.76C2138.74 388.173 2115.57 380.162 2096.51 364.139C2076.37 346.6 2067.28 326.679 2068.79 303.078C2070.74 276.878 2084.6 257.824 2108.86 247.647C2124.02 241.367 2140.26 238.12 2157.15 238.12ZM2157.15 233.572C2140.26 233.572 2123.15 236.82 2107.34 243.749C2082.87 253.926 2066.63 274.063 2064.46 303.078C2062.73 329.927 2074.43 350.931 2093.7 367.603C2115.36 386.225 2140.69 392.72 2167.76 392.72H2170.8C2207.4 392.287 2239.88 382.76 2267.82 355.045C2285.79 337.289 2287.96 309.79 2269.76 287.704C2240.31 252.843 2198.52 233.572 2157.15 233.572ZM286.486 -337.844H424.219L425.086 -328.967L429.2 -292.59C432.016 -272.236 436.563 -252.316 440.895 -232.828C444.576 -216.156 448.691 -199.05 451.29 -181.944C454.321 -163.106 456.487 -146.001 452.372 -129.328C449.557 -117.419 446.525 -107.026 437.646 -100.963C432.449 -97.0654 427.035 -95.1167 421.404 -95.1167C414.041 -95.1167 406.678 -98.5811 399.315 -105.51C385.455 -118.718 377.442 -136.69 370.295 -153.579C365.964 -164.189 361.849 -175.015 357.951 -185.625C349.722 -207.278 341.492 -229.58 330.448 -250.367C326.55 -258.162 322.435 -265.524 318.32 -273.102C307.276 -293.889 295.798 -315.325 286.486 -337.844ZM279.989 -342.391C292.549 -309.479 310.524 -279.382 326.766 -248.418C343.008 -217.671 353.187 -183.893 366.397 -151.847C373.977 -133.659 382.423 -115.903 396.499 -102.262C404.512 -94.4671 413.175 -90.5696 421.621 -90.5696C427.901 -90.5696 434.181 -92.7349 440.461 -97.282C450.64 -104.644 454.105 -116.553 456.92 -128.245C461.468 -146.434 458.869 -164.622 455.837 -182.594C449.99 -219.837 438.729 -255.78 433.748 -293.24C431.366 -309.479 430.066 -325.719 428.334 -342.391H279.989ZM276.74 1314.48C281.505 1314.48 286.919 1315.56 292.333 1317.51C307.925 1323.36 320.053 1331.8 328.932 1343.06H243.606C243.823 1342.41 244.256 1341.76 244.472 1341.11C249.02 1328.77 258.332 1314.48 276.74 1314.48ZM276.74 1309.93C260.281 1309.93 247.504 1320.11 240.141 1339.38C239.058 1342.19 237.759 1344.58 236.676 1347.61H337.811C326.983 1330.5 311.823 1319.89 294.065 1313.18C287.785 1311.01 282.154 1309.93 276.74 1309.93ZM-114.155 275.579C-101.378 275.579 -89.6836 282.724 -81.6708 295.283C-77.5561 301.562 -74.9573 309.141 -73.2248 319.101C-68.8936 343.352 -71.4923 368.036 -74.0911 391.638C-74.9573 398.567 -75.607 405.062 -76.2567 411.991C-79.7217 449.234 -80.588 479.331 -79.072 506.831L-77.5561 528.05L-73.0083 616.394C-72.142 650.605 -76.2567 678.104 -85.3523 703.005C-91.6326 720.327 -101.595 728.555 -115.671 728.555C-119.786 728.555 -124.334 727.689 -129.315 726.39C-144.041 721.843 -158.767 714.264 -175.875 702.139L-181.939 697.808L-314.259 602.752C-329.635 591.709 -345.444 579.367 -358.438 563.777C-389.623 525.668 -391.572 492.54 -365.151 456.596C-357.571 446.636 -348.692 437.758 -337.648 429.097C-320.106 415.456 -301.698 402.031 -284.157 389.472C-253.621 366.954 -221.787 344.002 -192.334 318.451C-175.875 304.161 -153.786 286.838 -127.365 277.961C-123.251 276.445 -118.703 275.579 -114.155 275.579ZM-114.155 271.248C-118.92 271.248 -124.117 272.114 -129.098 273.847C-154.003 282.291 -175.442 297.665 -195.583 314.987C-241.71 355.045 -292.386 388.173 -340.68 425.416C-351.075 433.644 -360.603 442.738 -369.049 453.781C-399.151 494.488 -391.572 530.649 -362.119 566.592C-349.125 582.399 -333.1 594.741 -317.074 606.433L-178.474 705.819C-163.531 716.429 -147.939 725.307 -130.614 730.72C-125.796 732.321 -120.748 733.125 -115.671 733.102C-99.6454 733.102 -87.9511 723.358 -81.0211 704.52C-70.4095 676.155 -67.5942 646.491 -68.2439 616.177C-69.1101 579.584 -71.9254 543.207 -74.0911 506.614C-76.0401 475.217 -74.3076 443.604 -71.2758 412.208C-68.4604 380.811 -62.6133 349.848 -68.4604 318.235C-69.9764 309.357 -72.5751 300.48 -77.5561 292.901C-86.8683 278.827 -99.6454 271.248 -114.155 271.248ZM1108.56 370.418C1112.67 370.418 1117 371.501 1121.33 372.583L1123.07 373.016C1141.26 377.13 1157.5 389.689 1167.68 407.661C1178.29 426.499 1180.89 448.368 1174.82 467.639C1169.41 484.095 1160.32 499.469 1147.97 512.893C1136.06 525.885 1123.07 538.227 1110.72 550.353C1103.58 556.848 1096.86 563.561 1089.93 570.273C1053.12 607.299 1015 649.955 969.957 705.17C946.135 734.185 916.466 766.88 877.918 789.616C854.096 803.906 833.089 811.269 811.866 812.568C810.567 812.784 809.484 812.784 808.185 812.784C795.624 812.784 786.961 808.67 781.114 799.792C774.617 789.832 776.783 780.305 782.847 767.097C788.477 754.538 794.758 741.547 803.42 730.504C844.134 678.753 875.319 621.807 896.759 561.612C912.784 517.44 933.358 483.229 959.562 456.813C987.26 428.888 1019.02 405.309 1053.77 386.874C1073.26 376.914 1089.93 371.717 1105.96 370.851C1106.82 370.418 1107.69 370.418 1108.56 370.418ZM1108.56 365.871C1107.69 365.871 1106.61 366.087 1105.74 366.087C1086.68 367.17 1068.71 373.883 1051.82 382.76C1016.73 401.382 984.9 424.766 956.53 453.348C927.077 483.012 907.154 519.822 892.644 559.88C870.771 621.59 839.586 677.021 799.955 727.472C791.076 738.732 784.796 751.723 778.732 764.932C773.101 777.057 768.987 789.399 777.433 801.958C785.229 813.434 796.274 816.898 808.185 816.898C809.484 816.898 811 816.898 812.299 816.682C836.771 815.166 859.077 805.855 880.3 793.08C916.899 771.427 946.135 740.897 973.422 707.552C1011.54 661.215 1050.95 615.527 1093.18 573.088C1112.45 553.817 1132.6 535.845 1151.22 515.492C1163.56 501.85 1173.09 486.477 1179.16 468.722C1192.8 426.932 1165.95 377.78 1124.15 368.469C1118.95 367.387 1113.75 365.871 1108.56 365.871ZM1812.6 602.536V607.083C1824.3 607.083 1837.72 612.063 1853.1 622.889C1889.05 647.357 1919.15 678.537 1943.19 715.13C1955.53 733.968 1962.46 749.775 1965.71 766.014C1967.01 772.727 1965.93 779.222 1962.46 784.203C1959.21 788.75 1954.45 791.781 1949.04 792.647C1941.24 794.163 1934.53 795.245 1927.6 795.245H1924.35C1889.7 792.864 1855.91 788.75 1823.65 783.12C1798.74 778.789 1772.32 773.376 1748.5 759.302C1730.31 748.692 1722.51 729.854 1727.71 708.851C1734.42 681.352 1745.47 658.616 1760.19 640.645C1779.68 617.043 1795.49 606.866 1812.17 606.866V602.536M1812.6 602.536C1792.89 602.536 1776 615.094 1756.94 638.046C1740.49 657.967 1729.87 682.218 1723.38 707.985C1717.53 731.37 1726.41 751.94 1746.33 763.416C1770.37 777.49 1796.36 783.12 1822.78 787.667C1856.35 793.513 1890.13 797.627 1923.91 799.792C1925.21 800.009 1926.51 800.009 1927.6 800.009C1935.18 800.009 1942.32 798.71 1949.69 797.194C1964.41 794.596 1973.29 780.738 1970.26 765.148C1966.58 745.661 1957.7 728.771 1947.09 712.748C1922.62 675.073 1892.08 643.893 1855.7 619.208C1839.24 607.732 1825.16 602.536 1812.6 602.536ZM-206.844 481.497L-206.411 486.044C-192.767 486.044 -184.971 497.303 -180.64 506.831C-175.442 518.09 -172.844 528.7 -173.06 538.444C-173.277 553.384 -180.64 569.19 -194.283 569.19C-198.615 569.19 -203.379 567.675 -208.576 564.643L-212.908 562.045C-219.405 558.148 -225.468 554.467 -230.233 549.053C-237.812 539.959 -242.144 530.865 -243.443 520.688C-243.01 516.358 -241.494 511.378 -238.895 506.397C-231.315 492.973 -220.487 485.827 -206.844 485.827V481.497ZM-206.844 481.497C-222.003 481.497 -234.78 489.725 -242.793 504.449C-245.609 509.645 -247.341 515.059 -247.774 521.554C-246.042 533.03 -240.844 543.207 -233.265 552.085C-226.984 559.663 -218.538 563.777 -210.525 568.757C-204.462 572.438 -199.048 573.954 -194.067 573.954C-177.825 573.954 -168.512 556.415 -168.512 538.877C-168.296 527.401 -171.544 515.925 -176.525 505.098C-182.589 491.241 -192.551 481.497 -206.194 481.497H-206.844Z" fill="url(#paint6_linear_3120_1185)"/>
</g>
<defs>
<linearGradient id="paint0_linear_3120_1185" x1="912.775" y1="-342.391" x2="912.775" y2="1347.61" gradientUnits="userSpaceOnUse">
<stop stop-color="#005490"/>
<stop offset="1" stop-color="white"/>
</linearGradient>
<linearGradient id="paint1_linear_3120_1185" x1="107.605" y1="-342.824" x2="107.605" y2="120.545" gradientUnits="userSpaceOnUse">
<stop stop-color="#005490"/>
<stop offset="1" stop-color="white"/>
</linearGradient>
<linearGradient id="paint2_linear_3120_1185" x1="912.999" y1="-342.824" x2="912.999" y2="1347.61" gradientUnits="userSpaceOnUse">
<stop stop-color="#005490"/>
<stop offset="1" stop-color="white"/>
</linearGradient>
<linearGradient id="paint3_linear_3120_1185" x1="913.001" y1="-342.608" x2="913.001" y2="1347.61" gradientUnits="userSpaceOnUse">
<stop stop-color="#005490"/>
<stop offset="1" stop-color="white"/>
</linearGradient>
<linearGradient id="paint4_linear_3120_1185" x1="912.884" y1="-342.608" x2="912.884" y2="1347.61" gradientUnits="userSpaceOnUse">
<stop stop-color="#005490"/>
<stop offset="1" stop-color="white"/>
</linearGradient>
<linearGradient id="paint5_linear_3120_1185" x1="912.999" y1="-342.824" x2="912.999" y2="1347.82" gradientUnits="userSpaceOnUse">
<stop stop-color="#005490"/>
<stop offset="1" stop-color="white"/>
</linearGradient>
<linearGradient id="paint6_linear_3120_1185" x1="893.329" y1="-342.391" x2="893.329" y2="1347.61" gradientUnits="userSpaceOnUse">
<stop stop-color="#005490"/>
<stop offset="1" stop-color="white"/>
</linearGradient>
<clipPath id="clip0_3120_1185">
<rect width="1920" height="855" fill="white"/>
</clipPath>
</defs>
</svg>
