<svg width="261" height="241" viewBox="0 0 261 241" fill="none" xmlns="http://www.w3.org/2000/svg">
<g clip-path="url(#clip0_3909_1538)">
<path fill-rule="evenodd" clip-rule="evenodd" d="M244.366 177.094H17.0883C14.7921 177.092 12.5899 176.18 10.965 174.555C9.34206 172.93 8.42812 170.73 8.42624 168.431V161.883H253.026V168.431C253.022 170.728 252.11 172.93 250.485 174.555C248.862 176.178 246.66 177.092 244.364 177.094H244.366ZM158.672 207.788H102.783C106.766 200.744 109.686 193.148 111.448 185.25H150.004C151.768 193.148 154.689 200.744 158.672 207.788ZM176.152 224.369V232.796H85.3014V224.369C85.3033 222.135 86.1928 219.993 87.7725 218.412C89.3522 216.832 91.4942 215.942 93.7283 215.941H167.724C169.958 215.942 172.102 216.83 173.682 218.412C175.261 219.991 176.151 222.135 176.153 224.369H176.152ZM17.0878 8.54009H244.365C246.663 8.54197 248.866 9.45404 250.491 11.0789C252.115 12.7018 253.029 14.9058 253.031 17.2021V153.74H8.43187V17.2021C8.43187 14.906 9.34581 12.7038 10.9688 11.0808C12.5917 9.45596 14.7939 8.54202 17.0901 8.54014L17.0878 8.54009ZM244.365 0.385655H17.0878C12.6308 0.391297 8.35614 2.16468 5.20423 5.31645C2.05236 8.46831 0.279215 12.741 0.273438 17.2V168.431C0.28096 172.888 2.05434 177.161 5.20615 180.313C8.35797 183.465 12.6307 185.238 17.0878 185.246H103.071C101.07 193.253 97.7507 200.873 93.2522 207.794C88.9401 207.922 84.8479 209.725 81.8429 212.819C78.8377 215.912 77.1527 220.053 77.1489 224.367V236.872V236.87C77.147 237.951 77.5777 238.989 78.3412 239.753C79.1066 240.518 80.1428 240.947 81.2242 240.947H180.23C181.311 240.947 182.347 240.518 183.113 239.753C183.876 238.989 184.307 237.951 184.305 236.87V224.369C184.301 220.057 182.616 215.915 179.611 212.821C176.606 209.727 172.514 207.926 168.202 207.796C163.7 200.877 160.383 193.257 158.383 185.249H244.366C248.823 185.242 253.096 183.469 256.248 180.317C259.4 177.165 261.173 172.892 261.181 168.435V17.1991C261.175 12.7421 259.404 8.46744 256.25 5.3136C253.098 2.16174 248.825 0.38859 244.366 0.382812L244.365 0.385655Z" fill="black"/>
<path d="M72.6174 75V42H97.3674V47.55H79.5174V55.75H93.5674V61.05H79.5174V69.45H98.0674V75H72.6174ZM103.558 75V50H109.508L109.958 54.9C110.625 53.1667 111.591 51.8333 112.858 50.9C114.158 49.9667 115.775 49.5 117.708 49.5C118.275 49.5 118.791 49.55 119.258 49.65C119.725 49.75 120.108 49.8833 120.408 50.05L119.608 55.8C119.275 55.6667 118.858 55.5667 118.358 55.5C117.891 55.4333 117.275 55.4 116.508 55.4C115.508 55.4 114.541 55.65 113.608 56.15C112.675 56.6167 111.908 57.35 111.308 58.35C110.708 59.3167 110.408 60.55 110.408 62.05V75H103.558ZM124.652 75V50H130.602L131.052 54.9C131.718 53.1667 132.685 51.8333 133.952 50.9C135.252 49.9667 136.868 49.5 138.802 49.5C139.368 49.5 139.885 49.55 140.352 49.65C140.818 49.75 141.202 49.8833 141.502 50.05L140.702 55.8C140.368 55.6667 139.952 55.5667 139.452 55.5C138.985 55.4333 138.368 55.4 137.602 55.4C136.602 55.4 135.635 55.65 134.702 56.15C133.768 56.6167 133.002 57.35 132.402 58.35C131.802 59.3167 131.502 60.55 131.502 62.05V75H124.652ZM156.657 49.5C159.191 49.5 161.407 50.0167 163.307 51.05C165.241 52.0833 166.741 53.5667 167.807 55.5C168.907 57.4333 169.457 59.7667 169.457 62.5C169.457 65.2 168.907 67.5333 167.807 69.5C166.741 71.4333 165.241 72.9167 163.307 73.95C161.407 74.9833 159.191 75.5 156.657 75.5C154.157 75.5 151.941 74.9833 150.007 73.95C148.074 72.9167 146.557 71.4333 145.457 69.5C144.391 67.5333 143.857 65.2 143.857 62.5C143.857 59.7667 144.391 57.4333 145.457 55.5C146.557 53.5667 148.074 52.0833 150.007 51.05C151.941 50.0167 154.157 49.5 156.657 49.5ZM156.657 54.6C155.391 54.6 154.307 54.9 153.407 55.5C152.541 56.0667 151.874 56.9333 151.407 58.1C150.941 59.2667 150.707 60.7333 150.707 62.5C150.707 64.2667 150.941 65.7333 151.407 66.9C151.874 68.0667 152.541 68.95 153.407 69.55C154.307 70.1167 155.391 70.4 156.657 70.4C157.891 70.4 158.941 70.1167 159.807 69.55C160.707 68.95 161.391 68.0667 161.857 66.9C162.324 65.7333 162.557 64.2667 162.557 62.5C162.557 60.7333 162.324 59.2667 161.857 58.1C161.391 56.9333 160.707 56.0667 159.807 55.5C158.941 54.9 157.891 54.6 156.657 54.6ZM175.189 75V50H181.139L181.589 54.9C182.256 53.1667 183.222 51.8333 184.489 50.9C185.789 49.9667 187.406 49.5 189.339 49.5C189.906 49.5 190.422 49.55 190.889 49.65C191.356 49.75 191.739 49.8833 192.039 50.05L191.239 55.8C190.906 55.6667 190.489 55.5667 189.989 55.5C189.522 55.4333 188.906 55.4 188.139 55.4C187.139 55.4 186.172 55.65 185.239 56.15C184.306 56.6167 183.539 57.35 182.939 58.35C182.339 59.3167 182.039 60.55 182.039 62.05V75H175.189Z" fill="#005490"/>
<path d="M107.198 126V118.25H91.0984V113.75C91.2651 113.417 91.4984 113.017 91.7984 112.55C92.1318 112.05 92.4984 111.483 92.8984 110.85L105.198 93H113.448V113.25H118.798V118.25H113.448V126H107.198ZM96.9984 113.25H107.248V102.35C107.248 101.65 107.265 100.9 107.298 100.1C107.332 99.3 107.365 98.5167 107.398 97.75H107.298C106.932 98.4833 106.482 99.2833 105.948 100.15C105.448 100.983 104.982 101.733 104.548 102.4L97.6484 112.3C97.5484 112.467 97.4318 112.633 97.2984 112.8C97.1984 112.933 97.0984 113.083 96.9984 113.25ZM129.364 126V105.1C129.364 104.333 129.364 103.55 129.364 102.75C129.397 101.917 129.43 101.067 129.464 100.2C128.33 101.233 127.064 102.133 125.664 102.9C124.264 103.667 122.83 104.2 121.364 104.5L120.464 98.7C121.23 98.6333 122.08 98.4167 123.014 98.05C123.98 97.65 124.947 97.1833 125.914 96.65C126.914 96.0833 127.814 95.5 128.614 94.9C129.447 94.2667 130.08 93.6333 130.514 93H136.114V126H129.364ZM156.214 126.5C151.981 126.5 148.714 125.067 146.414 122.2C144.148 119.333 143.014 115.1 143.014 109.5C143.014 103.9 144.148 99.6667 146.414 96.8C148.714 93.9333 151.981 92.5 156.214 92.5C160.448 92.5 163.698 93.9333 165.964 96.8C168.264 99.6667 169.414 103.9 169.414 109.5C169.414 115.1 168.264 119.333 165.964 122.2C163.698 125.067 160.448 126.5 156.214 126.5ZM156.214 120.95C157.648 120.95 158.814 120.55 159.714 119.75C160.648 118.917 161.348 117.667 161.814 116C162.281 114.3 162.514 112.133 162.514 109.5C162.514 106.867 162.281 104.717 161.814 103.05C161.348 101.35 160.648 100.1 159.714 99.3C158.814 98.4667 157.648 98.05 156.214 98.05C154.781 98.05 153.598 98.4667 152.664 99.3C151.731 100.1 151.031 101.35 150.564 103.05C150.131 104.717 149.914 106.867 149.914 109.5C149.914 112.133 150.131 114.3 150.564 116C151.031 117.667 151.731 118.917 152.664 119.75C153.598 120.55 154.781 120.95 156.214 120.95Z" fill="black"/>
</g>
<defs>
<clipPath id="clip0_3909_1538">
<rect width="261" height="241" fill="white"/>
</clipPath>
</defs>
</svg>
