<svg width="337" height="337" viewBox="0 0 337 337" fill="none" xmlns="http://www.w3.org/2000/svg">
<path fill-rule="evenodd" clip-rule="evenodd" d="M282.366 225.094H55.0883C52.7921 225.092 50.5899 224.18 48.965 222.555C47.3421 220.93 46.4281 218.73 46.4262 216.431V209.883H291.026V216.431C291.022 218.728 290.11 220.93 288.485 222.555C286.862 224.178 284.66 225.092 282.364 225.094H282.366ZM196.672 255.788H140.783C144.766 248.744 147.686 241.148 149.448 233.25H188.004C189.768 241.148 192.689 248.744 196.672 255.788ZM214.152 272.369V280.796H123.301V272.369C123.303 270.135 124.193 267.993 125.772 266.412C127.352 264.832 129.494 263.942 131.728 263.941H205.724C207.958 263.942 210.102 264.83 211.682 266.412C213.261 267.991 214.151 270.135 214.153 272.369H214.152ZM55.0878 56.5401H282.365C284.663 56.542 286.866 57.454 288.491 59.0789C290.115 60.7018 291.029 62.9058 291.031 65.2021V201.74H46.4319V65.2021C46.4319 62.906 47.3458 60.7038 48.9688 59.0808C50.5917 57.456 52.7939 56.542 55.0901 56.5401L55.0878 56.5401ZM282.365 48.3857H55.0878C50.6308 48.3913 46.3561 50.1647 43.2042 53.3164C40.0524 56.4683 38.2792 60.741 38.2734 65.2V216.431C38.281 220.888 40.0543 225.161 43.2062 228.313C46.358 231.465 50.6307 233.238 55.0878 233.246H141.071C139.07 241.253 135.751 248.873 131.252 255.794C126.94 255.922 122.848 257.725 119.843 260.819C116.838 263.912 115.153 268.053 115.149 272.367V284.872V284.87C115.147 285.951 115.578 286.989 116.341 287.753C117.107 288.518 118.143 288.947 119.224 288.947H218.23C219.311 288.947 220.347 288.518 221.113 287.753C221.876 286.989 222.307 285.951 222.305 284.87V272.369C222.301 268.057 220.616 263.915 217.611 260.821C214.606 257.727 210.514 255.926 206.202 255.796C201.7 248.877 198.383 241.257 196.383 233.249H282.366C286.823 233.242 291.096 231.469 294.248 228.317C297.4 225.165 299.173 220.892 299.181 216.435V65.1991C299.175 60.7421 297.404 56.4674 294.25 53.3136C291.098 50.1617 286.825 48.3886 282.366 48.3828L282.365 48.3857Z" fill="black"/>
<path d="M110.617 123V90H135.367V95.55H117.517V103.75H131.567V109.05H117.517V117.45H136.067V123H110.617ZM141.558 123V98H147.508L147.958 102.9C148.625 101.167 149.591 99.8333 150.858 98.9C152.158 97.9667 153.775 97.5 155.708 97.5C156.275 97.5 156.791 97.55 157.258 97.65C157.725 97.75 158.108 97.8833 158.408 98.05L157.608 103.8C157.275 103.667 156.858 103.567 156.358 103.5C155.891 103.433 155.275 103.4 154.508 103.4C153.508 103.4 152.541 103.65 151.608 104.15C150.675 104.617 149.908 105.35 149.308 106.35C148.708 107.317 148.408 108.55 148.408 110.05V123H141.558ZM162.652 123V98H168.602L169.052 102.9C169.718 101.167 170.685 99.8333 171.952 98.9C173.252 97.9667 174.868 97.5 176.802 97.5C177.368 97.5 177.885 97.55 178.352 97.65C178.818 97.75 179.202 97.8833 179.502 98.05L178.702 103.8C178.368 103.667 177.952 103.567 177.452 103.5C176.985 103.433 176.368 103.4 175.602 103.4C174.602 103.4 173.635 103.65 172.702 104.15C171.768 104.617 171.002 105.35 170.402 106.35C169.802 107.317 169.502 108.55 169.502 110.05V123H162.652ZM194.657 97.5C197.191 97.5 199.407 98.0167 201.307 99.05C203.241 100.083 204.741 101.567 205.807 103.5C206.907 105.433 207.457 107.767 207.457 110.5C207.457 113.2 206.907 115.533 205.807 117.5C204.741 119.433 203.241 120.917 201.307 121.95C199.407 122.983 197.191 123.5 194.657 123.5C192.157 123.5 189.941 122.983 188.007 121.95C186.074 120.917 184.557 119.433 183.457 117.5C182.391 115.533 181.857 113.2 181.857 110.5C181.857 107.767 182.391 105.433 183.457 103.5C184.557 101.567 186.074 100.083 188.007 99.05C189.941 98.0167 192.157 97.5 194.657 97.5ZM194.657 102.6C193.391 102.6 192.307 102.9 191.407 103.5C190.541 104.067 189.874 104.933 189.407 106.1C188.941 107.267 188.707 108.733 188.707 110.5C188.707 112.267 188.941 113.733 189.407 114.9C189.874 116.067 190.541 116.95 191.407 117.55C192.307 118.117 193.391 118.4 194.657 118.4C195.891 118.4 196.941 118.117 197.807 117.55C198.707 116.95 199.391 116.067 199.857 114.9C200.324 113.733 200.557 112.267 200.557 110.5C200.557 108.733 200.324 107.267 199.857 106.1C199.391 104.933 198.707 104.067 197.807 103.5C196.941 102.9 195.891 102.6 194.657 102.6ZM213.189 123V98H219.139L219.589 102.9C220.256 101.167 221.222 99.8333 222.489 98.9C223.789 97.9667 225.406 97.5 227.339 97.5C227.906 97.5 228.422 97.55 228.889 97.65C229.356 97.75 229.739 97.8833 230.039 98.05L229.239 103.8C228.906 103.667 228.489 103.567 227.989 103.5C227.522 103.433 226.906 103.4 226.139 103.4C225.139 103.4 224.172 103.65 223.239 104.15C222.306 104.617 221.539 105.35 220.939 106.35C220.339 107.317 220.039 108.55 220.039 110.05V123H213.189Z" fill="#005490"/>
<path d="M145.198 174V166.25H129.098V161.75C129.265 161.417 129.498 161.017 129.798 160.55C130.132 160.05 130.498 159.483 130.898 158.85L143.198 141H151.448V161.25H156.798V166.25H151.448V174H145.198ZM134.998 161.25H145.248V150.35C145.248 149.65 145.265 148.9 145.298 148.1C145.332 147.3 145.365 146.517 145.398 145.75H145.298C144.932 146.483 144.482 147.283 143.948 148.15C143.448 148.983 142.982 149.733 142.548 150.4L135.648 160.3C135.548 160.467 135.432 160.633 135.298 160.8C135.198 160.933 135.098 161.083 134.998 161.25ZM167.364 174V153.1C167.364 152.333 167.364 151.55 167.364 150.75C167.397 149.917 167.43 149.067 167.464 148.2C166.33 149.233 165.064 150.133 163.664 150.9C162.264 151.667 160.83 152.2 159.364 152.5L158.464 146.7C159.23 146.633 160.08 146.417 161.014 146.05C161.98 145.65 162.947 145.183 163.914 144.65C164.914 144.083 165.814 143.5 166.614 142.9C167.447 142.267 168.08 141.633 168.514 141H174.114V174H167.364ZM194.214 174.5C189.981 174.5 186.714 173.067 184.414 170.2C182.148 167.333 181.014 163.1 181.014 157.5C181.014 151.9 182.148 147.667 184.414 144.8C186.714 141.933 189.981 140.5 194.214 140.5C198.448 140.5 201.698 141.933 203.964 144.8C206.264 147.667 207.414 151.9 207.414 157.5C207.414 163.1 206.264 167.333 203.964 170.2C201.698 173.067 198.448 174.5 194.214 174.5ZM194.214 168.95C195.648 168.95 196.814 168.55 197.714 167.75C198.648 166.917 199.348 165.667 199.814 164C200.281 162.3 200.514 160.133 200.514 157.5C200.514 154.867 200.281 152.717 199.814 151.05C199.348 149.35 198.648 148.1 197.714 147.3C196.814 146.467 195.648 146.05 194.214 146.05C192.781 146.05 191.598 146.467 190.664 147.3C189.731 148.1 189.031 149.35 188.564 151.05C188.131 152.717 187.914 154.867 187.914 157.5C187.914 160.133 188.131 162.3 188.564 164C189.031 165.667 189.731 166.917 190.664 167.75C191.598 168.55 192.781 168.95 194.214 168.95Z" fill="black"/>
</svg>
