<svg width="517" height="111" viewBox="0 0 517 111" fill="none" xmlns="http://www.w3.org/2000/svg">
<path d="M3 20C1.34315 20 1.44847e-07 21.3431 0 23C-1.44847e-07 24.6569 1.34315 26 3 26L3 20ZM516.121 25.1214C517.293 23.9498 517.293 22.0503 516.121 20.8787L497.029 1.78684C495.858 0.615266 493.958 0.615266 492.787 1.78684C491.615 2.95841 491.615 4.85791 492.787 6.02948L509.757 23L492.787 39.9706C491.615 41.1422 491.615 43.0417 492.787 44.2132C493.958 45.3848 495.858 45.3848 497.029 44.2132L516.121 25.1214ZM3 26L514 26L514 20L3 20L3 26Z" fill="#005490"/>
<path d="M514 85.6074C515.657 85.6074 517 86.9506 517 88.6074C517 90.2643 515.657 91.6074 514 91.6074L514 85.6074ZM0.878662 90.7288C-0.292908 89.5572 -0.292908 87.6577 0.878662 86.4861L19.9705 67.3943C21.1421 66.2227 23.0416 66.2227 24.2132 67.3943C25.3848 68.5658 25.3848 70.4653 24.2132 71.6369L7.24265 88.6075L24.2132 105.578C25.3848 106.75 25.3848 108.649 24.2132 109.821C23.0416 110.992 21.1422 110.992 19.9706 109.821L0.878662 90.7288ZM514 91.6074L3 91.6075L3 85.6075L514 85.6074L514 91.6074Z" fill="#005490"/>
</svg>
