<svg width="337" height="337" viewBox="0 0 337 337" fill="none" xmlns="http://www.w3.org/2000/svg">
<path d="M219.794 65.9856C214.33 60.5212 213.288 60 211.69 60L208.306 60.0363H100.374C94.6474 60.0363 90 64.6837 90 70.3707V267.718C90 273.444 94.6474 278.092 100.374 278.092H235.333C241.06 278.092 245.707 273.444 245.707 267.718V94.723C245.707 92.9387 245.707 91.4138 219.791 65.9856L219.794 65.9856ZM215.37 72.0437C222.247 78.8097 229.499 86.1339 234.071 91.0044H219.794C217.341 91.0044 215.37 88.9971 215.37 86.5437L215.37 72.0437ZM238.272 267.718C238.272 269.316 236.934 270.657 235.334 270.657H100.374C98.7766 270.657 97.4358 269.318 97.4358 267.718L97.441 70.3707C97.441 68.7732 98.7792 67.4713 100.379 67.4713H207.94V86.5434C207.94 93.0866 213.256 98.442 219.799 98.442H238.277L238.272 267.718Z" fill="black"/>
<path d="M161.088 179.48C161.088 177.2 161.298 175.25 161.718 173.63C162.198 171.95 162.978 170.36 164.058 168.86C165.198 167.36 166.728 165.8 168.648 164.18C170.988 162.2 172.788 160.55 174.048 159.23C175.368 157.91 176.298 156.62 176.838 155.36C177.378 154.1 177.648 152.57 177.648 150.77C177.648 147.89 176.718 145.67 174.858 144.11C172.998 142.55 170.298 141.77 166.758 141.77C163.818 141.77 161.208 142.16 158.928 142.94C156.648 143.66 154.458 144.53 152.358 145.55L149.568 139.25C151.968 137.99 154.608 136.94 157.488 136.1C160.428 135.26 163.698 134.84 167.298 134.84C172.998 134.84 177.408 136.25 180.528 139.07C183.648 141.89 185.208 145.73 185.208 150.59C185.208 153.29 184.758 155.6 183.858 157.52C183.018 159.38 181.788 161.12 180.168 162.74C178.608 164.3 176.748 165.98 174.588 167.78C172.608 169.46 171.078 170.93 169.998 172.19C168.978 173.45 168.288 174.71 167.928 175.97C167.568 177.17 167.388 178.64 167.388 180.38V181.91H161.088V179.48ZM159.018 195.14C159.018 192.92 159.528 191.36 160.548 190.46C161.628 189.56 162.978 189.11 164.598 189.11C166.098 189.11 167.388 189.56 168.468 190.46C169.548 191.36 170.088 192.92 170.088 195.14C170.088 197.3 169.548 198.86 168.468 199.82C167.388 200.78 166.098 201.26 164.598 201.26C162.978 201.26 161.628 200.78 160.548 199.82C159.528 198.86 159.018 197.3 159.018 195.14Z" fill="#005490"/>
</svg>
