<svg width="37" height="68" viewBox="0 0 37 68" fill="none" xmlns="http://www.w3.org/2000/svg">
<path d="M12.0883 45.48C12.0883 43.2 12.2983 41.25 12.7183 39.63C13.1983 37.95 13.9783 36.36 15.0583 34.86C16.1983 33.36 17.7283 31.8 19.6483 30.18C21.9883 28.2 23.7883 26.55 25.0483 25.23C26.3683 23.91 27.2983 22.62 27.8383 21.36C28.3783 20.1 28.6483 18.57 28.6483 16.77C28.6483 13.89 27.7183 11.67 25.8583 10.11C23.9983 8.55 21.2983 7.77 17.7583 7.77C14.8183 7.77 12.2083 8.16 9.92828 8.94C7.64828 9.66 5.45828 10.53 3.35828 11.55L0.568281 5.25C2.96828 3.99 5.60828 2.94 8.48828 2.1C11.4283 1.26 14.6983 0.839997 18.2983 0.839997C23.9983 0.839997 28.4083 2.25 31.5283 5.07C34.6483 7.89 36.2083 11.73 36.2083 16.59C36.2083 19.29 35.7583 21.6 34.8583 23.52C34.0183 25.38 32.7883 27.12 31.1683 28.74C29.6083 30.3 27.7483 31.98 25.5883 33.78C23.6083 35.46 22.0783 36.93 20.9983 38.19C19.9783 39.45 19.2883 40.71 18.9283 41.97C18.5683 43.17 18.3883 44.64 18.3883 46.38V47.91H12.0883V45.48ZM10.0183 61.14C10.0183 58.92 10.5283 57.36 11.5483 56.46C12.6283 55.56 13.9783 55.11 15.5983 55.11C17.0983 55.11 18.3883 55.56 19.4683 56.46C20.5483 57.36 21.0883 58.92 21.0883 61.14C21.0883 63.3 20.5483 64.86 19.4683 65.82C18.3883 66.78 17.0983 67.26 15.5983 67.26C13.9783 67.26 12.6283 66.78 11.5483 65.82C10.5283 64.86 10.0183 63.3 10.0183 61.14Z" fill="#005490"/>
</svg>
