<svg width="156" height="219" viewBox="0 0 156 219" fill="none" xmlns="http://www.w3.org/2000/svg">
<path d="M129.794 5.98555C124.33 0.521233 123.288 0 121.69 0L118.306 0.0363076H10.3736C4.64738 0.0363076 0 4.68368 0 10.3707V207.718C0 213.444 4.64738 218.092 10.3736 218.092H145.333C151.06 218.092 155.707 213.444 155.707 207.718V34.723C155.707 32.9387 155.707 31.4138 129.791 5.98561L129.794 5.98555ZM125.37 12.0437C132.247 18.8097 139.499 26.1339 144.071 31.0044H129.794C127.341 31.0044 125.37 28.9971 125.37 26.5437L125.37 12.0437ZM148.272 207.718C148.272 209.316 146.934 210.657 145.334 210.657H10.3741C8.77663 210.657 7.4358 209.318 7.4358 207.718L7.44099 10.3707C7.44099 8.77318 8.77916 7.47125 10.3793 7.47125H117.94V26.5434C117.94 33.0866 123.256 38.442 129.799 38.442H148.277L148.272 207.718Z" fill="black"/>
</svg>
