<svg width="172" height="241" viewBox="0 0 172 241" fill="none" xmlns="http://www.w3.org/2000/svg">
<path d="M143.012 7.13272C136.999 1.11949 135.852 0.545898 134.094 0.545898L130.37 0.585853H11.5954C5.29391 0.585853 0.179688 5.70008 0.179688 11.9584V229.13C0.179688 235.432 5.29391 240.546 11.5954 240.546H160.112C166.414 240.546 171.528 235.432 171.528 229.13V38.7569C171.528 36.7934 171.528 35.1153 143.009 7.13279L143.012 7.13272ZM138.144 13.7995C145.712 21.2451 153.692 29.3051 158.723 34.6648H143.012C140.313 34.6648 138.144 32.4559 138.144 29.756L138.144 13.7995ZM163.346 229.13C163.346 230.888 161.874 232.364 160.113 232.364H11.5959C9.83797 232.364 8.36244 230.891 8.36244 229.13L8.36815 11.9584C8.36815 10.2004 9.84075 8.76766 11.6017 8.76766H129.967V29.7557C129.967 36.9562 135.817 42.8496 143.017 42.8496H163.352L163.346 229.13Z" fill="black"/>
<path d="M78.2436 127.919C78.2436 125.41 78.4747 123.264 78.9369 121.481C79.4651 119.632 80.3234 117.883 81.5119 116.232C82.7664 114.581 84.4501 112.864 86.563 111.082C89.1381 108.903 91.1189 107.087 92.5055 105.635C93.9581 104.182 94.9815 102.762 95.5757 101.376C96.17 99.9892 96.4671 98.3055 96.4671 96.3247C96.4671 93.1554 95.4437 90.7123 93.3968 88.9956C91.35 87.2789 88.3788 86.4206 84.4832 86.4206C81.2478 86.4206 78.3756 86.8498 75.8666 87.7081C73.3576 88.5004 70.9476 89.4578 68.6366 90.5803L65.5664 83.6474C68.2074 82.2609 71.1126 81.1054 74.282 80.181C77.5173 79.2566 81.1158 78.7944 85.0774 78.7944C91.35 78.7944 96.203 80.3461 99.6364 83.4494C103.07 86.5526 104.787 90.7784 104.787 96.1266C104.787 99.0978 104.291 101.64 103.301 103.753C102.377 105.8 101.023 107.714 99.2402 109.497C97.5235 111.214 95.4767 113.063 93.0997 115.043C90.9208 116.892 89.2371 118.51 88.0486 119.896C86.9262 121.283 86.1669 122.67 85.7707 124.056C85.3745 125.377 85.1764 126.994 85.1764 128.909V130.593H78.2436V127.919ZM75.9656 145.152C75.9656 142.709 76.5269 140.992 77.6493 140.002C78.8378 139.011 80.3234 138.516 82.1062 138.516C83.7569 138.516 85.1764 139.011 86.3649 140.002C87.5534 140.992 88.1477 142.709 88.1477 145.152C88.1477 147.529 87.5534 149.245 86.3649 150.302C85.1764 151.358 83.7569 151.887 82.1062 151.887C80.3234 151.887 78.8378 151.358 77.6493 150.302C76.5269 149.245 75.9656 147.529 75.9656 145.152Z" fill="#005490"/>
</svg>
