<svg width="35" height="35" viewBox="0 0 110 110" fill="none" xmlns="http://www.w3.org/2000/svg">
<path d="M49.1006 20V17.9643L47.0649 17.9643L11.8149 17.9643L9.77922 17.9643L9.77922 20L9.77922 52.6271L9.77922 54.5523L11.7014 54.6597L21.9745 55.2335L6.1552 89.1393L4.80382 92.0357H8H21.1234H22.2498L22.8481 91.0814L48.7897 49.7042L49.1006 49.2083V48.6229V20ZM104.036 20V17.9643L102 17.9643L66.75 17.9643H64.7143V20L64.7143 52.6271V54.551L66.6352 54.6596L76.7578 55.2316L60.9377 89.1393L59.5863 92.0357H62.7825H75.9059H77.0288L77.6278 91.0859L103.722 49.7088L104.036 49.2112V48.6229V20Z" stroke="#005490" stroke-width="4.07143"/>
</svg>
