<svg width="148" height="60" viewBox="0 0 148 60" fill="none" xmlns="http://www.w3.org/2000/svg">
<path fill-rule="evenodd" clip-rule="evenodd" d="M15.2586 11.6602H6.5625V18.1024H15.2586V11.6602ZM15.1849 21.0307H6.5625V43.725H15.1849V21.0307Z" fill="white"/>
<path fill-rule="evenodd" clip-rule="evenodd" d="M46.7951 7.1968C46.2056 6.75756 45.3949 6.90397 44.9528 7.48963L41.1206 12.6142C41.0469 12.6874 41.0469 12.7606 40.9732 12.8338H28.2976C28.2976 12.7606 28.2239 12.7606 28.2239 12.6874L24.4655 7.48963C24.0233 6.90397 23.2126 6.75756 22.6231 7.1968C22.0335 7.63605 21.8861 8.44133 22.3283 9.02699L25.055 12.8338H19.6016V31.7945H28.0028H43.4051H50.9221C50.9221 31.7945 54.8279 26.8164 52.0275 19.2028C50.4062 14.8104 45.8371 13.3462 44.0684 12.9802L47.0899 9.1002C47.5321 8.51454 47.3847 7.63605 46.7951 7.1968ZM28.0765 26.1575V19.5689H40.8258C40.8258 19.5689 43.3315 19.4224 43.3315 22.79C43.3315 26.1575 40.7521 26.1575 40.7521 26.1575H28.0765ZM27.9291 36.0405V43.6541H19.6016V34.0639H48.4164L51.8801 43.6541H42.5208L39.3519 36.0405H27.9291Z" fill="white"/>
<path fill-rule="evenodd" clip-rule="evenodd" d="M114.902 43.8032H126.545C135.463 43.8032 142.685 36.6288 142.685 27.7707C142.685 18.9126 135.463 11.7383 126.545 11.7383H110.922H108.269C107.016 11.7383 105.984 12.7632 105.984 14.0077V41.6069C105.984 42.8515 107.016 43.8764 108.269 43.8764H114.902V43.8032ZM114.68 34.7986C114.68 35.0183 114.902 35.2379 115.123 35.2379H126.472C130.672 35.2379 134.062 31.8703 134.062 27.6975C134.062 23.5247 130.672 20.1571 126.472 20.1571H114.975C114.754 20.1571 114.607 20.3036 114.607 20.5232V34.7986H114.68Z" fill="white"/>
<path d="M101.118 11.7383H92.4961V43.6567H101.118V11.7383Z" fill="white"/>
<path d="M83.5762 24.7644C83.5762 23.227 84.0184 21.6896 84.7554 20.3719C85.566 19.0542 86.5241 17.59 87.8506 16.7847C86.9662 15.6134 86.0082 14.7349 84.7554 14.0029C83.4289 13.2708 81.9549 13.1244 80.481 13.0512C77.3121 12.7583 74.2906 14.8814 72.6693 14.8814C71.048 14.8814 68.5424 13.0512 65.8894 13.1244C64.1944 13.1976 62.4994 13.71 61.0255 14.5885C59.5516 15.467 58.3724 16.7115 57.4881 18.2489C53.877 24.4715 56.5301 33.6225 60.0674 38.6738C61.8361 41.1628 63.8259 43.8715 66.4789 43.7983C69.0583 43.7251 70.09 42.1877 73.1852 42.1877C76.2804 42.1877 77.2384 43.7983 79.9652 43.7983C82.7656 43.7251 84.6817 41.3824 86.3767 38.8934C87.6295 37.1364 88.5875 35.0134 89.1771 32.9636C87.5558 32.3047 86.0819 31.2798 85.0501 29.8157C84.0921 28.2051 83.5762 26.5213 83.5762 24.7644Z" fill="white"/>
<path d="M78.4164 9.75765C79.964 7.92746 80.7009 5.65803 80.4799 3.24219C78.1216 3.46181 75.9844 4.55992 74.4368 6.3169C73.6999 7.19539 73.1103 8.14709 72.7418 9.2452C72.3734 10.3433 72.226 11.4414 72.2997 12.6127C73.4788 12.6127 74.5842 12.3931 75.6897 11.8807C76.7214 11.3682 77.6794 10.6361 78.4164 9.75765Z" fill="white"/>
<path d="M13.5545 56.0936C13.3334 56.3132 13.1123 56.4596 12.8912 56.606C12.6701 56.7525 12.3753 56.7524 12.0805 56.7524C11.7121 56.7524 11.3436 56.6792 10.9751 56.4596C10.6066 56.3132 10.2382 55.9472 9.79599 55.5079C9.28013 55.4347 8.76426 55.2883 8.32209 55.0687C7.87991 54.7759 7.58513 54.4098 7.29035 54.0438C7.06927 53.6045 6.92188 53.0921 6.92188 52.5796C6.92188 51.994 7.06927 51.4815 7.36405 51.0423C7.65883 50.603 8.02731 50.237 8.46948 49.9442C8.98534 49.6513 9.50121 49.5781 10.0908 49.5781C10.6803 49.5781 11.1962 49.7245 11.7121 49.9442C12.2279 50.1638 12.5964 50.5298 12.8175 51.0423C13.1123 51.4815 13.2597 51.994 13.2597 52.5796C13.2597 53.0189 13.186 53.4581 12.9649 53.8242C12.8175 54.1902 12.5227 54.5562 12.2279 54.8491C11.9332 55.1419 11.491 55.2883 11.0488 55.4347C11.1962 55.5811 11.3436 55.7275 11.491 55.8008C11.6384 55.9472 11.8595 55.9472 12.0069 55.9472C12.3753 55.9472 12.7438 55.8008 13.0386 55.5079L13.5545 56.0936ZM8.02731 52.6528C8.02731 53.0189 8.101 53.3849 8.32209 53.6777C8.46948 53.9706 8.76426 54.2634 9.05904 54.4098C9.35382 54.5562 9.7223 54.7026 10.0908 54.7026C10.4593 54.7026 10.8277 54.6294 11.1225 54.4098C11.4173 54.2634 11.7121 53.9706 11.8595 53.6777C12.0069 53.3849 12.1542 53.0189 12.1542 52.6528C12.1542 52.2868 12.0805 51.9208 11.8595 51.6279C11.7121 51.3351 11.4173 51.0423 11.1225 50.8959C10.8277 50.7494 10.4593 50.603 10.0908 50.603C9.7223 50.603 9.35382 50.6762 9.05904 50.8959C8.76426 51.0423 8.46948 51.3351 8.32209 51.6279C8.101 51.8476 8.02731 52.2136 8.02731 52.6528Z" fill="white"/>
<path d="M20.5559 55.5861C19.7453 55.5861 19.082 55.3664 18.6398 54.9272C18.1976 54.4879 17.9766 53.8291 17.9766 52.9506V49.6562H19.082V52.8774C19.082 54.0487 19.5979 54.5611 20.5559 54.5611C21.5139 54.5611 22.0298 53.9755 22.0298 52.8774V49.6562H23.1352V53.0238C23.1352 53.9023 22.9142 54.4879 22.472 55.0004C22.0298 55.3664 21.3665 55.5861 20.5559 55.5861Z" fill="white"/>
<path d="M32.0647 54.1951H29.1169L28.5273 55.5128H27.4219L30.0749 49.6562H31.1803L33.8334 55.5128H32.7279L32.0647 54.1951ZM31.6962 53.3166L30.5908 50.8276L29.4853 53.3898H31.6962V53.3166Z" fill="white"/>
<path d="M38.1797 49.7266H39.2855V54.6315H42.3819V55.51H38.2534V49.7266H38.1797Z" fill="white"/>
<path d="M46.8711 49.7266H47.977V55.5832H46.8711V49.7266Z" fill="white"/>
<path d="M54.463 50.605H52.5469V49.7266H57.4845V50.605H55.5684V55.51H54.463V50.605Z" fill="white"/>
<path d="M64.4134 53.463V55.5128H63.308V53.463L61.0234 49.6562H62.2026L63.8976 52.5113L65.6662 49.6562H66.7717L64.4134 53.463Z" fill="white"/>
<path d="M82.4657 55.5128V51.6328L80.5496 54.854H80.0338L78.1177 51.7061V55.5128H77.0859V49.6562H77.9703L80.3285 53.5362L82.6131 49.6562H83.4974V55.5128H82.4657Z" fill="white"/>
<path d="M92.5647 54.1951H89.6169L89.0273 55.5128H87.9219L90.5749 49.6562H91.6803L94.3334 55.5128H93.2279L92.5647 54.1951ZM92.1962 53.3166L91.0908 50.7544L89.9853 53.3166H92.1962Z" fill="white"/>
<path d="M99.6426 50.605H97.7266V49.7266H102.664V50.605H100.748V55.51H99.6426V50.605Z" fill="white"/>
<path d="M108.408 50.605H106.492V49.7266H111.43V50.605H109.514V55.51H108.408V50.605Z" fill="white"/>
<path d="M120.344 54.6344V55.5128H115.922V49.6562H120.196V50.5347H117.027V52.0721H119.828V53.0238H117.027V54.6344H120.344Z" fill="white"/>
<path d="M129.047 55.5128L127.868 53.8291C127.794 53.8291 127.72 53.8291 127.647 53.8291H126.32V55.5128H125.215V49.6562H127.647C128.163 49.6562 128.605 49.7295 128.973 49.8759C129.342 50.0223 129.637 50.3151 129.858 50.6079C130.079 50.9008 130.152 51.2668 130.152 51.7061C130.152 52.1453 130.079 52.5113 129.858 52.8042C129.637 53.097 129.342 53.3898 128.973 53.5362L130.3 55.4396H129.047V55.5128ZM129.047 51.7793C129.047 51.4132 128.9 51.1204 128.679 50.9008C128.457 50.6812 128.089 50.6079 127.573 50.6079H126.32V52.9506H127.573C128.015 52.9506 128.384 52.8774 128.679 52.6578C128.9 52.4381 129.047 52.1453 129.047 51.7793Z" fill="white"/>
<path d="M136.85 55.584C136.408 55.584 135.966 55.5108 135.524 55.3644C135.082 55.218 134.787 55.0716 134.492 54.852L134.861 54.0467C135.082 54.2663 135.377 54.4127 135.745 54.4859C136.113 54.6323 136.482 54.6323 136.777 54.6323C137.219 54.6323 137.514 54.5591 137.735 54.4127C137.956 54.2663 138.03 54.1199 138.03 53.9003C138.03 53.7538 137.956 53.6074 137.882 53.461C137.735 53.3146 137.587 53.2414 137.44 53.1682C137.293 53.095 136.998 53.0218 136.703 52.9486C136.261 52.8754 135.892 52.7289 135.598 52.6557C135.303 52.5825 135.082 52.3629 134.861 52.1433C134.64 51.9237 134.566 51.6308 134.566 51.2648C134.566 50.972 134.64 50.6791 134.861 50.3863C135.008 50.0935 135.303 49.8738 135.671 49.7274C136.04 49.581 136.482 49.5078 136.998 49.5078C137.366 49.5078 137.735 49.581 138.03 49.6542C138.398 49.7274 138.693 49.8739 138.914 50.0203L138.545 50.8255C138.324 50.6791 138.03 50.5327 137.735 50.4595C137.44 50.3863 137.219 50.3131 136.924 50.3131C136.482 50.3131 136.187 50.3863 135.966 50.5327C135.745 50.6791 135.671 50.8988 135.671 51.1184C135.671 51.2648 135.745 51.4112 135.819 51.5576C135.966 51.6308 136.113 51.7772 136.261 51.7772C136.408 51.7772 136.703 51.9237 136.998 51.9969C137.44 52.0701 137.808 52.2165 138.103 52.2897C138.398 52.3629 138.619 52.5825 138.84 52.8021C139.061 53.0218 139.135 53.3146 139.135 53.6806C139.135 53.9735 139.061 54.2663 138.84 54.5591C138.693 54.852 138.398 54.9984 138.03 55.218C137.661 55.4376 137.366 55.584 136.85 55.584Z" fill="white"/>
</svg>
