<svg width="1320" height="682" viewBox="0 0 1320 682" fill="none" xmlns="http://www.w3.org/2000/svg">
<g clip-path="url(#clip0_2_3)">
<rect width="1320" height="682" rx="40" fill="url(#paint0_linear_2_3)"/>
<path d="M447 85L451.243 110.757L477 115L451.243 119.243L447 145L442.757 119.243L417 115L442.757 110.757L447 85Z" fill="#86B9DD"/>
<path d="M500 52L501.98 64.0201L514 66L501.98 67.9799L500 80L498.02 67.9799L486 66L498.02 64.0201L500 52Z" fill="#ABD2EE"/>
<path d="M53 543L54.9799 555.02L67 557L54.9799 558.98L53 571L51.0201 558.98L39 557L51.0201 555.02L53 543Z" fill="#ABD2EE"/>
<path d="M1671.61 554.407C1665.35 559.802 1660.71 566.821 1658.19 574.689C1655.67 582.557 1655.38 590.969 1657.34 598.995C1651.49 597.84 1645.44 598.14 1639.73 599.869C1634.02 601.597 1628.83 604.701 1624.6 608.908C1620.37 613.115 1617.24 618.295 1615.48 623.995C1613.72 629.695 1613.39 635.739 1614.51 641.597C1601.66 632.747 1582 636.056 1572.74 648.643C1572.55 640.338 1572.22 631.579 1567.86 624.506C1563.5 617.434 1553.59 613.074 1546.6 617.564C1549.25 614.544 1550.86 610.751 1551.19 606.746C1551.52 602.741 1550.56 598.736 1548.44 595.319C1546.33 591.903 1543.17 589.258 1539.43 587.772C1535.7 586.287 1531.59 586.04 1527.7 587.069C1527.51 577.103 1521.21 506.537 1516.02 447H1471.69C1466.5 505.498 1460.57 572.691 1460.38 582.41C1456.48 581.359 1452.35 581.594 1448.6 583.078C1444.85 584.562 1441.68 587.218 1439.56 590.65C1437.44 594.081 1436.48 598.106 1436.83 602.125C1437.18 606.144 1438.82 609.943 1441.5 612.957C1434.5 608.467 1424.63 612.841 1420.23 619.9C1415.83 626.959 1415.53 635.731 1415.34 644.036C1406.09 631.462 1386.44 628.14 1373.57 636.99C1374.69 631.132 1374.36 625.088 1372.6 619.388C1370.84 613.689 1367.71 608.508 1363.48 604.301C1359.26 600.095 1354.06 596.991 1348.35 595.262C1342.64 593.534 1336.6 593.233 1330.74 594.388C1332.82 586.362 1332.58 577.911 1330.05 570.017C1327.51 562.123 1322.79 555.111 1316.43 549.795C1310.07 544.479 1302.32 541.079 1294.11 539.989C1285.89 538.898 1277.53 540.163 1270 543.636V694.852H1718.08V548.217C1710.52 544.858 1702.17 543.658 1693.97 544.75C1685.77 545.843 1678.03 549.185 1671.61 554.407Z" fill="#CCDDE9"/>
<path d="M827.191 564.69C829.71 556.822 834.354 549.803 840.612 544.408C847.031 539.187 854.77 535.844 862.972 534.752C871.175 533.659 879.519 534.859 887.081 538.219V684.854H741.745H710.001C688.502 669 707.502 637.5 741.745 645.5C746.501 617 770.655 622.748 783.515 631.598C782.391 625.74 782.722 619.696 784.48 613.997C786.238 608.297 789.369 603.116 793.597 598.909C797.826 594.703 803.023 591.599 808.731 589.87C814.44 588.142 820.486 587.841 826.338 588.996C824.377 580.97 824.672 572.559 827.191 564.69Z" fill="#CCDDE9"/>
<path d="M1256.11 549.247C1249.85 554.641 1245.2 561.66 1242.68 569.529C1240.17 577.397 1239.87 585.809 1241.83 593.834C1235.98 592.68 1229.93 592.98 1224.23 594.709C1218.52 596.437 1213.32 599.541 1209.09 603.748C1204.86 607.955 1201.73 613.135 1199.97 618.835C1198.22 624.535 1197.88 630.579 1199.01 636.436C1186.15 627.586 1166.49 630.895 1157.24 643.483C1157.04 635.178 1156.72 626.419 1152.36 619.346C1148 612.274 1138.08 607.914 1131.09 612.404C1133.74 609.383 1135.35 605.591 1135.68 601.586C1136.02 597.581 1135.05 593.575 1132.94 590.159C1130.82 586.743 1127.66 584.097 1123.93 582.612C1120.19 581.127 1116.08 580.88 1112.2 581.909C1112 571.943 1105.71 501.376 1100.52 441.84H1056.19C1051 500.338 1045.07 567.531 1044.87 577.25C1040.98 576.199 1036.85 576.433 1033.1 577.918C1029.35 579.402 1026.17 582.058 1024.05 585.489C1021.93 588.921 1020.97 592.946 1021.32 596.965C1021.67 600.984 1023.31 604.783 1025.99 607.797C1019 603.307 1009.12 607.68 1004.72 614.74C1000.32 621.799 1000.03 630.571 999.832 638.876C990.579 626.302 970.933 622.98 958.06 631.83C959.184 625.972 958.853 619.928 957.095 614.228C955.337 608.529 952.206 603.348 947.978 599.141C943.749 594.934 938.552 591.83 932.844 590.102C927.135 588.373 921.089 588.073 915.237 589.228C917.317 581.202 917.075 572.751 914.541 564.857C912.007 556.963 907.284 549.951 900.922 544.635C894.559 539.319 886.819 535.919 878.6 534.828C870.382 533.738 862.022 535.003 854.494 538.476V689.692H1302.58V543.057C1295.01 539.698 1286.67 538.498 1278.47 539.59C1270.26 540.683 1262.52 544.025 1256.11 549.247Z" fill="#005490"/>
<path d="M1256.11 549.247C1249.85 554.641 1245.21 561.66 1242.69 569.529C1240.17 577.397 1239.87 585.809 1241.83 593.834C1235.98 592.68 1229.94 592.98 1224.23 594.709C1218.52 596.437 1213.32 599.541 1209.09 603.748C1204.86 607.955 1201.73 613.135 1199.98 618.835C1198.22 624.535 1197.89 630.579 1199.01 636.436C1186.15 627.586 1166.49 630.895 1157.24 643.483C1157.04 635.178 1156.72 626.419 1152.36 619.346C1148 612.274 1138.09 607.914 1131.09 612.404C1133.74 609.383 1135.35 605.591 1135.69 601.586C1136.02 597.581 1135.05 593.575 1132.94 590.159C1130.82 586.743 1127.66 584.097 1123.93 582.612C1120.2 581.127 1116.08 580.88 1112.2 581.909C1112 571.943 1105.71 501.376 1100.52 441.84H1056.19C1051 500.338 1045.07 567.531 1044.88 577.25C1040.98 576.199 1036.85 576.433 1033.1 577.918C1029.35 579.402 1026.18 582.058 1024.05 585.489C1021.93 588.921 1020.98 592.946 1021.33 596.965C1021.68 600.984 1023.31 604.783 1025.99 607.797C1019 603.307 1009.12 607.68 1004.73 614.74C1000.33 621.799 1000.03 630.571 999.834 638.876C990.581 626.302 970.935 622.98 958.062 631.83C959.186 625.972 958.855 619.928 957.097 614.228C955.339 608.529 952.208 603.348 947.98 599.141C943.751 594.934 938.554 591.83 932.846 590.102C927.137 588.373 921.091 588.073 915.239 589.228C917.319 581.202 917.077 572.751 914.543 564.857C912.009 556.963 907.286 549.951 900.924 544.635C894.561 539.319 886.821 535.919 878.602 534.828C870.384 533.738 862.024 535.003 854.496 538.476V689.692H1302.58V543.057C1295.02 539.698 1286.67 538.498 1278.47 539.59C1270.27 540.683 1262.53 544.025 1256.11 549.247Z" fill="#CCDDE9"/>
<path d="M1253.37 659.496C1245.33 654.094 1236.26 650.4 1226.74 648.642C1217.21 646.883 1207.43 647.098 1197.99 649.273C1188.55 651.448 1179.65 655.536 1171.86 661.285C1164.06 667.035 1157.53 674.322 1152.66 682.698C1148.72 677.372 1143.57 673.058 1137.63 670.111C1138.05 668.992 1138.4 667.847 1138.68 666.685C1139.83 661.713 1139.69 656.531 1138.28 651.628C1136.86 646.726 1134.22 642.266 1130.6 638.67C1126.98 635.075 1122.5 632.463 1117.59 631.082C1112.68 629.701 1107.49 629.596 1102.53 630.779L1089.27 441.84H1071.88V615.583C1061.11 617.231 1053.59 629.987 1057.4 640.239C1053.64 640.822 1050.09 642.308 1047.04 644.569C1043.99 646.829 1041.53 649.796 1039.88 653.215C1038.84 655.447 1038.68 660.171 1039.58 665.517C1033.01 665.637 1026.56 667.252 1020.72 670.241C1014.87 673.229 1009.78 677.512 1005.84 682.763C1000.97 674.387 994.439 667.099 986.643 661.35C978.846 655.601 969.953 651.512 960.513 649.338C951.073 647.163 941.288 646.948 931.761 648.706C922.235 650.465 913.171 654.159 905.13 659.561C900.575 637.501 875.906 621.825 854.002 627.119V690.095L1056.16 689.835C1057.55 690.231 1058.99 690.432 1060.43 690.432L1109.85 689.848L1304.59 690.095V627.003C1282.63 621.76 1257.96 637.436 1253.37 659.496Z" fill="#005490"/>
<path d="M1253.37 659.496C1245.33 654.094 1236.26 650.4 1226.74 648.642C1217.21 646.883 1207.42 647.098 1197.98 649.273C1188.54 651.448 1179.65 655.536 1171.85 661.285C1164.06 667.035 1157.52 674.322 1152.66 682.698C1148.71 677.372 1143.56 673.058 1137.63 670.111C1138.05 668.992 1138.4 667.847 1138.68 666.685C1139.83 661.713 1139.69 656.531 1138.27 651.628C1136.86 646.726 1134.22 642.266 1130.6 638.67C1126.98 635.075 1122.5 632.463 1117.59 631.082C1112.67 629.701 1107.49 629.596 1102.53 630.779L1089.27 441.84H1071.88V615.583C1061.11 617.231 1053.59 629.987 1057.39 640.239C1053.64 640.822 1050.09 642.308 1047.04 644.569C1043.99 646.829 1041.53 649.796 1039.88 653.215C1038.84 655.447 1038.68 660.171 1039.58 665.517C1033.01 665.637 1026.56 667.252 1020.72 670.241C1014.87 673.229 1009.78 677.512 1005.84 682.763C1000.97 674.387 994.437 667.099 986.641 661.35C978.844 655.601 969.951 651.512 960.511 649.338C951.071 647.163 941.286 646.948 931.759 648.706C922.233 650.465 913.169 654.159 905.128 659.561C900.573 637.501 875.904 621.825 854 627.119V690.095L1056.16 689.835C1057.55 690.231 1058.99 690.432 1060.43 690.432L1109.85 689.848L1304.59 690.095V627.003C1282.63 621.76 1257.96 637.436 1253.37 659.496Z" fill="#99BBD3"/>
<path d="M1689.37 659.496C1681.33 654.094 1672.26 650.4 1662.74 648.642C1653.21 646.883 1643.42 647.098 1633.98 649.273C1624.54 651.448 1615.65 655.536 1607.85 661.285C1600.06 667.035 1593.52 674.322 1588.66 682.698C1584.71 677.372 1579.56 673.058 1573.63 670.111C1574.05 668.992 1574.4 667.847 1574.68 666.685C1575.83 661.713 1575.69 656.531 1574.27 651.628C1572.86 646.726 1570.22 642.266 1566.6 638.67C1562.98 635.075 1558.5 632.463 1553.59 631.082C1548.67 629.701 1543.49 629.596 1538.53 630.779L1525.27 441.84H1507.88V615.583C1497.11 617.231 1489.59 629.987 1493.39 640.239C1489.64 640.822 1486.09 642.308 1483.04 644.569C1479.99 646.829 1477.53 649.796 1475.88 653.215C1474.84 655.447 1474.68 660.171 1475.58 665.517C1469.01 665.637 1462.56 667.252 1456.72 670.241C1450.87 673.229 1445.78 677.512 1441.84 682.763C1436.97 674.387 1430.44 667.099 1422.64 661.35C1414.84 655.601 1405.95 651.512 1396.51 649.338C1387.07 647.163 1377.29 646.948 1367.76 648.706C1358.23 650.465 1349.17 654.159 1341.13 659.561C1336.57 637.501 1311.9 621.825 1290 627.119V690.095L1492.16 689.835C1493.55 690.231 1494.99 690.432 1496.43 690.432L1545.85 689.848L1740.59 690.095V627.003C1718.63 621.76 1693.96 637.436 1689.37 659.496Z" fill="#99BBD3"/>
<path d="M789.736 648.643C799.262 650.402 808.326 654.096 816.368 659.498C820.961 637.438 845.63 621.762 867.586 627.004V690.096H715.656L715.657 682.7C720.524 674.324 727.058 667.036 734.855 661.287C742.651 655.538 751.544 651.449 760.984 649.275C770.424 647.1 780.21 646.885 789.736 648.643Z" fill="#99BBD3"/>
<path d="M548.08 659.655C557.606 661.414 566.67 665.108 574.712 670.509C579.305 648.449 603.974 632.774 625.93 638.016V701.108H474L474 693.712C478.868 685.336 485.402 678.048 493.198 672.299C500.995 666.55 509.888 662.461 519.328 660.286C528.768 658.111 538.554 657.897 548.08 659.655Z" fill="#99BBD3"/>
<path d="M691.85 659.655C682.324 661.414 673.26 665.108 665.218 670.509C660.624 648.449 635.956 632.774 614 638.016V701.108H765.93L765.929 693.712C761.062 685.336 754.528 678.048 746.731 672.299C738.935 666.55 730.041 662.461 720.602 660.286C711.162 658.111 701.376 657.897 691.85 659.655Z" fill="#99BBD3"/>
<path d="M1054.4 378.465C1039.82 385.394 1033.21 405.363 1040.81 419.619C1043.81 425.314 1048.7 430.193 1049.35 436.533C1050.34 446.252 1041.15 453.845 1038.3 463.109C1036.86 468.661 1037.62 474.556 1040.42 479.562C1043.22 484.568 1047.85 488.297 1053.34 489.969C1058.33 491.279 1064.31 491.051 1067.65 494.981C1071.92 499.992 1068.83 508.268 1072.49 513.792C1075.77 518.747 1083.46 518.994 1088.42 515.691C1093.37 512.388 1096.1 506.674 1098.06 501.055C1100.01 495.436 1101.48 489.532 1104.86 484.635C1108.65 479.263 1114.25 475.58 1118.77 470.854C1129.63 459.464 1132.95 442.38 1130.5 426.795C1128.05 411.21 1120.52 396.954 1111.99 383.723" fill="#005490"/>
<g opacity="0.3">
<path d="M1054.4 378.473C1039.82 385.401 1033.21 405.371 1040.81 419.627C1043.81 425.322 1048.7 430.2 1049.35 436.541C1050.34 446.26 1041.15 453.853 1038.3 463.116C1036.86 468.668 1037.62 474.564 1040.42 479.57C1043.22 484.576 1047.85 488.305 1053.34 489.977C1058.33 491.287 1064.31 491.059 1067.65 494.988C1071.92 500 1068.83 508.276 1072.49 513.8C1075.77 518.755 1083.46 519.001 1088.42 515.698C1093.37 512.395 1096.1 506.682 1098.06 501.063C1100.01 495.444 1101.48 489.54 1104.86 484.643C1108.65 479.271 1114.25 475.588 1118.77 470.861C1129.63 459.472 1132.95 442.387 1130.5 426.803C1128.05 411.218 1120.52 396.962 1111.99 383.731" fill="white"/>
</g>
<path d="M1067.21 386.668C1054.85 392.116 1049.44 409.257 1056.43 420.837C1060.7 427.898 1068.98 434.277 1066.96 442.268C1065.6 447.697 1059.79 451.019 1058.12 456.353C1055.9 463.453 1062.62 470.989 1070.02 471.881C1077.42 472.773 1084.56 468.825 1090.16 463.908C1109.54 446.824 1110.32 409.466 1098.23 386.668" fill="#005490"/>
<path d="M1130.92 278.012C1130.92 278.012 1194.4 320.001 1187.47 392.648L1129.12 366.452L1130.92 278.012Z" fill="#005490"/>
<path d="M1025.46 364.988L1039.88 388.887H1114.69L1129.12 366.355L1025.46 364.988Z" fill="#263238"/>
<path d="M1073.4 123.855C1059.17 124.809 1045.85 131.211 1036.21 141.732C1026.57 152.253 1021.36 166.083 1021.66 180.347L1025.45 366.378H1129.12L1132.57 180.252C1132.72 172.568 1131.27 164.937 1128.31 157.844C1125.35 150.751 1120.95 144.35 1115.38 139.047C1109.82 133.745 1103.22 129.656 1095.99 127.041C1088.76 124.425 1081.07 123.341 1073.4 123.855Z" fill="#005490"/>
<g opacity="0.8">
<path d="M1073.4 123.851C1059.17 124.805 1045.85 131.208 1036.21 141.728C1026.57 152.249 1021.36 166.079 1021.66 180.343L1025.45 366.374H1129.12L1132.57 180.248C1132.72 172.564 1131.27 164.934 1128.31 157.84C1125.35 150.747 1120.95 144.346 1115.38 139.044C1109.82 133.741 1103.22 129.652 1095.99 127.037C1088.76 124.422 1081.07 123.337 1073.4 123.851Z" fill="white"/>
</g>
<path d="M1023.56 278.012C1023.56 278.012 960.155 320.001 967.102 392.648L1025.46 366.414L1023.56 278.012Z" fill="#005490"/>
<path d="M1022.23 174.174C1044.15 154.982 1112.96 155.4 1131.44 171.023C1126.69 101.964 1073.96 76.1094 1073.96 76.1094C1020.01 113.467 1022.23 174.174 1022.23 174.174Z" fill="#005490"/>
<path d="M1073.96 76.1328L1074.58 76.7023C1074.98 77.082 1075.59 77.6324 1076.35 78.3728L1079.23 81.1063L1081.13 82.8527L1083.03 84.9787C1084.4 86.4784 1085.95 88.1299 1087.61 89.9902L1092.65 96.2924C1093.51 97.4504 1094.36 98.7032 1095.26 99.9561C1096.15 101.209 1097.15 102.5 1097.95 103.923C1099.64 106.733 1101.52 109.618 1103.13 112.94C1106.84 120.001 1109.71 127.466 1111.69 135.188C1112.81 139.481 1113.64 143.844 1114.18 148.248C1114.5 150.526 1114.67 152.842 1115 155.139C1115.2 157.525 1115.29 159.92 1115.24 162.314C1115.24 181.582 1115 202.766 1114.75 224.957C1114.22 269.452 1113.59 309.715 1113.12 338.853C1112.87 353.413 1112.66 365.201 1112.51 373.364C1112.51 377.426 1112.36 380.596 1112.32 382.855C1112.32 383.918 1112.32 384.753 1112.32 385.285C1112.32 385.816 1112.32 386.12 1112.32 386.12C1112.32 386.12 1112.32 385.835 1112.32 385.285C1112.32 384.734 1112.32 383.918 1112.32 382.855C1112.32 380.691 1112.32 377.521 1112.42 373.364C1112.51 365.201 1112.66 353.413 1112.83 338.853C1113.21 309.677 1113.73 269.414 1114.31 224.957C1114.56 202.709 1114.85 181.525 1114.85 162.314C1114.9 159.945 1114.82 157.575 1114.6 155.215C1114.3 152.88 1114.12 150.583 1113.82 148.324C1113.29 143.933 1112.47 139.582 1111.35 135.302C1109.39 127.613 1106.56 120.174 1102.91 113.13C1101.2 109.808 1099.32 106.923 1097.59 104.113C1096.76 102.69 1095.69 101.437 1094.91 100.146C1094.14 98.8551 1093.21 97.6402 1092.35 96.4822L1087.34 90.161C1085.71 88.2628 1084.17 86.6492 1082.8 85.1306L1080.9 82.9856L1079.1 81.2202L1076.25 78.4487L1074.53 76.7403L1073.96 76.1328Z" fill="#263238"/>
<path d="M1098.2 221.219C1101.46 206.457 1092.98 192.034 1079.26 189.006C1065.54 185.977 1051.78 195.489 1048.52 210.251C1045.26 225.013 1053.74 239.436 1067.46 242.464C1081.18 245.493 1094.94 235.981 1098.2 221.219Z" fill="#FAFAFA"/>
<path d="M1079.25 188.997C1079.11 189.018 1078.96 189.018 1078.82 188.997L1077.58 188.826L1076.67 188.674H1075.55H1074.26C1073.79 188.674 1073.29 188.674 1072.78 188.674C1071.63 188.746 1070.48 188.898 1069.34 189.13C1068 189.416 1066.68 189.816 1065.4 190.326C1062.27 191.573 1059.41 193.402 1056.97 195.717C1054.01 198.511 1051.69 201.919 1050.19 205.702C1049.77 206.734 1049.42 207.793 1049.15 208.872C1049.01 209.422 1048.84 209.973 1048.71 210.523L1048.42 212.232L1048.27 213.105V213.978C1048.27 214.567 1048.18 215.174 1048.14 215.763C1048.1 216.351 1048.14 216.959 1048.14 217.566V218.477L1048.24 219.407C1048.74 224.565 1050.71 229.468 1053.93 233.53C1057.32 237.945 1062.15 241.024 1067.59 242.225C1073.02 243.426 1078.7 242.673 1083.64 240.098C1088.24 237.738 1092.08 234.109 1094.69 229.639L1095.16 228.861L1095.56 228.025L1096.36 226.412L1096.98 224.741L1097.29 223.906L1097.53 223.052L1097.99 221.381C1098.12 220.831 1098.18 220.262 1098.29 219.711C1098.48 218.612 1098.61 217.503 1098.67 216.389C1098.92 212.324 1098.28 208.253 1096.77 204.468C1095.04 200.037 1092.11 196.17 1088.33 193.287C1087.39 192.592 1086.42 191.958 1085.4 191.389C1084.93 191.161 1084.51 190.895 1084.09 190.705L1082.9 190.212L1081.85 189.794L1080.98 189.529L1079.77 189.168C1079.63 189.132 1079.49 189.081 1079.37 189.016H1079.78L1081 189.32L1081.91 189.567L1082.95 189.965L1084.17 190.44L1085.5 191.104C1086.54 191.671 1087.54 192.305 1088.5 193.002C1089.61 193.842 1090.65 194.762 1091.63 195.755C1093.99 198.205 1095.86 201.085 1097.13 204.24C1098.7 208.069 1099.4 212.201 1099.17 216.332C1099.12 217.465 1099 218.594 1098.81 219.711C1098.69 220.281 1098.63 220.85 1098.5 221.419C1098.37 221.989 1098.2 222.558 1098.03 223.128L1097.8 223.982L1097.5 224.817L1096.85 226.526L1096.05 228.177L1095.65 229.032L1095.16 229.829C1092.53 234.397 1088.62 238.103 1083.92 240.497C1078.88 243.142 1073.07 243.92 1067.51 242.694C1061.95 241.468 1057.01 238.316 1053.55 233.796C1050.3 229.636 1048.32 224.626 1047.86 219.369V218.439V217.509C1047.86 216.902 1047.86 216.275 1047.86 215.611C1047.86 214.946 1047.86 214.396 1048.01 213.712V212.82L1048.14 211.928C1048.25 211.359 1048.35 210.77 1048.44 210.201C1048.54 209.631 1048.75 209.081 1048.9 208.511C1049.18 207.417 1049.54 206.344 1049.98 205.303C1051.51 201.458 1053.88 198.001 1056.91 195.185C1059.4 192.861 1062.31 191.038 1065.49 189.813C1066.79 189.309 1068.13 188.915 1069.5 188.636C1070.64 188.417 1071.8 188.278 1072.97 188.219C1073.5 188.219 1073.99 188.219 1074.47 188.219H1075.78H1076.9L1077.81 188.39L1079.04 188.617L1079.25 188.997Z" fill="#263238"/>
<path d="M1047.13 211.627C1047.13 211.949 1041.28 211.797 1034.24 213.069C1027.2 214.341 1021.77 216.467 1021.66 216.163C1022.7 215.404 1023.87 214.832 1025.11 214.474C1030.92 212.293 1037.09 211.199 1043.3 211.247C1044.59 211.164 1045.88 211.293 1047.13 211.627Z" fill="#263238"/>
<path d="M1130.94 211.591C1129.37 211.601 1127.81 211.455 1126.27 211.154C1123.42 210.812 1119.48 210.357 1115.11 210.034C1110.74 209.711 1106.78 209.635 1103.89 209.578C1102.33 209.662 1100.77 209.592 1099.22 209.37C1100.74 208.976 1102.3 208.797 1103.87 208.838C1107.67 208.666 1111.47 208.717 1115.26 208.99C1119.02 209.251 1122.76 209.727 1126.46 210.414C1128 210.619 1129.5 211.014 1130.94 211.591Z" fill="#263238"/>
<path d="M1131.51 318.043C1131.14 318.093 1130.77 318.093 1130.41 318.043L1127.28 317.796L1115.75 316.923C1106.04 316.239 1092.58 315.575 1077.79 315.594C1063 315.613 1049.47 316.296 1039.73 316.999L1028.23 317.91L1025.09 318.138C1024.73 318.191 1024.36 318.191 1023.99 318.138C1024.34 318.014 1024.71 317.938 1025.07 317.91L1028.19 317.473C1030.88 317.113 1034.81 316.676 1039.58 316.239C1049.3 315.328 1062.79 314.531 1077.69 314.512C1092.6 314.493 1106.17 315.271 1115.79 316.164C1120.67 316.6 1124.58 317.018 1127.3 317.378L1130.41 317.796C1130.79 317.828 1131.16 317.911 1131.51 318.043Z" fill="#263238"/>
<path d="M1049.89 238.301C1049.89 238.453 1049.24 238.51 1048.8 239.25C1048.68 239.441 1048.59 239.656 1048.56 239.882C1048.52 240.108 1048.53 240.34 1048.59 240.56C1048.69 240.794 1048.85 240.994 1049.06 241.135C1049.27 241.277 1049.52 241.354 1049.77 241.357C1050.03 241.396 1050.28 241.358 1050.52 241.25C1050.75 241.142 1050.95 240.968 1051.08 240.75C1051.18 240.541 1051.22 240.315 1051.22 240.085C1051.22 239.856 1051.18 239.63 1051.08 239.421C1050.76 238.624 1050.13 238.472 1050.17 238.32C1050.21 238.168 1051.04 238.035 1051.75 239.06C1051.94 239.366 1052.07 239.715 1052.11 240.077C1052.15 240.44 1052.1 240.807 1051.97 241.149C1051.78 241.574 1051.46 241.927 1051.05 242.156C1050.65 242.385 1050.18 242.478 1049.71 242.42C1049.32 242.399 1048.93 242.266 1048.6 242.036C1048.28 241.806 1048.02 241.488 1047.87 241.12C1047.71 240.751 1047.66 240.346 1047.73 239.952C1047.79 239.557 1047.97 239.189 1048.23 238.89C1049.07 237.883 1049.96 238.168 1049.89 238.301Z" fill="#263238"/>
<path d="M1072.47 250.462C1072.47 250.633 1071.83 250.69 1071.39 251.43C1071.27 251.619 1071.18 251.831 1071.15 252.053C1071.11 252.275 1071.12 252.503 1071.18 252.721C1071.27 252.959 1071.43 253.165 1071.64 253.31C1071.85 253.456 1072.1 253.535 1072.36 253.537C1072.61 253.571 1072.87 253.53 1073.11 253.418C1073.34 253.307 1073.53 253.131 1073.67 252.911C1073.76 252.704 1073.8 252.481 1073.8 252.256C1073.8 252.03 1073.76 251.807 1073.67 251.601C1073.33 250.803 1072.7 250.652 1072.74 250.5C1072.78 250.348 1073.61 250.215 1074.31 251.24C1074.51 251.543 1074.63 251.888 1074.67 252.247C1074.71 252.607 1074.67 252.971 1074.54 253.309C1074.35 253.736 1074.03 254.092 1073.62 254.324C1073.22 254.556 1072.75 254.653 1072.28 254.6C1071.86 254.595 1071.46 254.467 1071.11 254.232C1070.77 253.996 1070.5 253.665 1070.34 253.278C1070.18 252.891 1070.14 252.466 1070.22 252.057C1070.31 251.647 1070.51 251.27 1070.8 250.974C1071.66 250.063 1072.55 250.272 1072.47 250.462Z" fill="#263238"/>
<path d="M1097.39 240.082C1097.39 240.253 1096.77 240.31 1096.31 241.05C1096.19 241.239 1096.11 241.451 1096.07 241.674C1096.03 241.896 1096.05 242.123 1096.1 242.341C1096.2 242.578 1096.37 242.782 1096.58 242.927C1096.79 243.071 1097.04 243.152 1097.3 243.158C1097.55 243.195 1097.81 243.156 1098.04 243.044C1098.27 242.932 1098.46 242.753 1098.59 242.531C1098.68 242.324 1098.72 242.101 1098.72 241.876C1098.72 241.651 1098.68 241.428 1098.59 241.221C1098.27 240.424 1097.62 240.272 1097.66 240.101C1097.7 239.93 1098.53 239.836 1099.23 240.861C1099.44 241.16 1099.57 241.504 1099.61 241.865C1099.66 242.225 1099.61 242.591 1099.48 242.93C1099.28 243.355 1098.96 243.708 1098.55 243.939C1098.14 244.17 1097.67 244.269 1097.2 244.221C1096.74 244.201 1096.29 244.035 1095.93 243.745C1095.56 243.455 1095.3 243.056 1095.17 242.607C1095.1 242.252 1095.11 241.884 1095.2 241.534C1095.3 241.184 1095.48 240.862 1095.72 240.595C1096.58 239.684 1097.47 239.968 1097.39 240.082Z" fill="#263238"/>
<path d="M1105.5 221.459C1105.5 221.611 1104.86 221.668 1104.4 222.408C1104.28 222.602 1104.2 222.818 1104.17 223.043C1104.14 223.269 1104.15 223.498 1104.21 223.718C1104.3 223.956 1104.46 224.162 1104.67 224.307C1104.88 224.453 1105.13 224.532 1105.39 224.534C1105.64 224.567 1105.9 224.525 1106.13 224.413C1106.36 224.302 1106.55 224.126 1106.68 223.908C1106.77 223.701 1106.81 223.478 1106.81 223.253C1106.81 223.028 1106.77 222.805 1106.68 222.598C1106.36 221.801 1105.73 221.63 1105.75 221.478C1105.77 221.326 1106.62 221.212 1107.34 222.237C1107.54 222.539 1107.67 222.884 1107.71 223.244C1107.75 223.604 1107.7 223.968 1107.57 224.306C1107.38 224.73 1107.06 225.081 1106.65 225.31C1106.24 225.539 1105.78 225.632 1105.31 225.578C1104.84 225.56 1104.39 225.394 1104.03 225.104C1103.66 224.814 1103.39 224.416 1103.26 223.965C1103.19 223.61 1103.2 223.242 1103.3 222.893C1103.39 222.543 1103.57 222.221 1103.81 221.953C1104.67 221.06 1105.56 221.345 1105.5 221.459Z" fill="#263238"/>
<path d="M1041.65 219.658C1041.65 219.81 1041 219.867 1040.57 220.607C1040.44 220.8 1040.36 221.015 1040.33 221.241C1040.29 221.466 1040.3 221.696 1040.36 221.917C1040.45 222.154 1040.61 222.358 1040.82 222.503C1041.03 222.649 1041.28 222.729 1041.54 222.733C1041.79 222.763 1042.05 222.719 1042.28 222.608C1042.51 222.498 1042.71 222.324 1042.85 222.107C1042.94 221.901 1042.99 221.678 1042.99 221.452C1042.99 221.226 1042.94 221.003 1042.85 220.797C1042.52 220 1041.9 219.829 1041.93 219.677C1041.97 219.525 1042.81 219.411 1043.51 220.437C1043.71 220.738 1043.83 221.084 1043.87 221.444C1043.91 221.803 1043.87 222.167 1043.74 222.506C1043.55 222.931 1043.22 223.284 1042.82 223.513C1042.41 223.742 1041.94 223.835 1041.48 223.777C1041.01 223.759 1040.56 223.593 1040.19 223.303C1039.82 223.014 1039.56 222.615 1039.43 222.164C1039.35 221.807 1039.37 221.438 1039.47 221.088C1039.57 220.738 1039.75 220.416 1040 220.152C1040.83 219.26 1041.73 219.544 1041.65 219.658Z" fill="#263238"/>
<path d="M1097.36 194.108C1097.36 193.957 1098.01 193.9 1098.44 193.159C1098.57 192.969 1098.65 192.753 1098.69 192.527C1098.72 192.301 1098.71 192.07 1098.65 191.849C1098.55 191.615 1098.39 191.414 1098.18 191.269C1097.97 191.125 1097.73 191.043 1097.47 191.033C1097.22 191.001 1096.96 191.043 1096.73 191.154C1096.51 191.265 1096.31 191.441 1096.18 191.66C1096.08 191.864 1096.03 192.088 1096.03 192.315C1096.03 192.541 1096.08 192.765 1096.18 192.969C1096.51 193.767 1097.13 193.938 1097.09 194.089C1097.06 194.241 1096.22 194.355 1095.52 193.33C1095.32 193.028 1095.19 192.683 1095.15 192.323C1095.11 191.963 1095.16 191.599 1095.29 191.261C1095.48 190.835 1095.8 190.482 1096.21 190.253C1096.62 190.025 1097.09 189.932 1097.55 189.989C1097.97 189.994 1098.37 190.122 1098.72 190.358C1099.07 190.593 1099.33 190.924 1099.49 191.311C1099.65 191.698 1099.69 192.123 1099.61 192.533C1099.53 192.942 1099.32 193.319 1099.03 193.615C1098.18 194.526 1097.28 194.222 1097.36 194.108Z" fill="#263238"/>
<path d="M1072.44 183.062C1072.44 182.91 1073.08 182.853 1073.52 182.112C1073.64 181.92 1073.72 181.704 1073.76 181.479C1073.79 181.254 1073.78 181.024 1073.73 180.803C1073.63 180.567 1073.46 180.365 1073.25 180.22C1073.04 180.076 1072.79 179.995 1072.53 179.986C1072.28 179.954 1072.02 179.996 1071.79 180.107C1071.56 180.218 1071.37 180.394 1071.24 180.613C1071.15 180.82 1071.11 181.042 1071.11 181.268C1071.11 181.493 1071.15 181.716 1071.24 181.923C1071.56 182.739 1072.21 182.891 1072.17 183.043C1072.13 183.194 1071.3 183.327 1070.6 182.283C1070.34 181.947 1070.2 181.542 1070.18 181.122C1070.16 180.702 1070.26 180.286 1070.48 179.927C1070.7 179.567 1071.02 179.282 1071.4 179.106C1071.79 178.931 1072.21 178.874 1072.63 178.942C1073.09 178.962 1073.54 179.128 1073.91 179.418C1074.27 179.708 1074.53 180.107 1074.66 180.556C1074.73 180.911 1074.72 181.278 1074.62 181.628C1074.53 181.978 1074.35 182.3 1074.11 182.568C1073.25 183.479 1072.36 183.194 1072.44 183.062Z" fill="#263238"/>
<path d="M1047.8 194.108C1047.8 193.957 1048.44 193.9 1048.88 193.159C1049 192.967 1049.08 192.751 1049.12 192.526C1049.15 192.301 1049.14 192.071 1049.09 191.85C1048.99 191.614 1048.82 191.412 1048.61 191.267C1048.4 191.123 1048.15 191.041 1047.89 191.033C1047.64 191.001 1047.38 191.043 1047.15 191.154C1046.92 191.265 1046.73 191.441 1046.6 191.66C1046.51 191.866 1046.46 192.089 1046.46 192.315C1046.46 192.54 1046.51 192.763 1046.6 192.969C1046.92 193.767 1047.57 193.938 1047.53 194.089C1047.49 194.241 1046.66 194.355 1045.96 193.33C1045.7 192.993 1045.56 192.589 1045.54 192.169C1045.52 191.749 1045.62 191.333 1045.84 190.973C1046.06 190.614 1046.38 190.328 1046.76 190.153C1047.15 189.978 1047.57 189.921 1047.99 189.989C1048.45 190.009 1048.9 190.175 1049.26 190.465C1049.63 190.755 1049.89 191.153 1050.02 191.603C1050.09 191.958 1050.08 192.325 1049.98 192.675C1049.89 193.025 1049.71 193.347 1049.47 193.615C1048.61 194.526 1047.72 194.222 1047.8 194.108Z" fill="#263238"/>
<path d="M1069.28 285.641L1071.51 396.708C1071.54 398.251 1072.19 399.716 1073.3 400.784C1074.41 401.851 1075.9 402.434 1077.45 402.403C1078.95 402.369 1080.38 401.759 1081.44 400.698C1082.5 399.637 1083.11 398.208 1083.14 396.708C1083.37 376.701 1084.11 309.388 1084.22 285.527C1084.23 284.45 1084 283.385 1083.55 282.406C1083.11 281.426 1082.45 280.554 1081.64 279.851C1080.82 279.148 1079.86 278.629 1078.83 278.331C1077.79 278.033 1076.71 277.962 1075.64 278.124C1073.85 278.395 1072.22 279.306 1071.05 280.688C1069.88 282.071 1069.25 283.83 1069.28 285.641Z" fill="#005490"/>
<g opacity="0.3">
<path d="M1069.28 285.641L1071.51 396.708C1071.54 398.251 1072.19 399.716 1073.3 400.784C1074.41 401.851 1075.9 402.434 1077.45 402.403C1078.95 402.369 1080.38 401.759 1081.44 400.698C1082.5 399.637 1083.11 398.208 1083.14 396.708C1083.37 376.701 1084.11 309.388 1084.22 285.527C1084.23 284.45 1084 283.385 1083.55 282.406C1083.11 281.426 1082.45 280.554 1081.64 279.851C1080.82 279.148 1079.86 278.629 1078.83 278.331C1077.79 278.033 1076.71 277.962 1075.64 278.124C1073.85 278.395 1072.22 279.306 1071.05 280.688C1069.88 282.071 1069.25 283.83 1069.28 285.641Z" fill="black"/>
</g>
<path d="M1072.72 82.4642C1073.04 82.8438 1069.36 86.4126 1063.98 92.6768C1061.29 95.79 1058.29 99.6625 1055.12 104.066C1051.75 108.899 1048.64 113.911 1045.82 119.082C1043.06 124.283 1040.6 129.631 1038.43 135.103C1036.53 140.172 1034.92 144.822 1033.8 148.79C1031.54 156.724 1030.59 161.774 1030 161.698C1029.42 161.622 1029.8 156.459 1031.54 148.239C1032.59 143.436 1033.94 138.706 1035.6 134.078C1037.66 128.409 1040.11 122.891 1042.93 117.563C1045.83 112.292 1049.08 107.219 1052.65 102.377C1055.6 98.4401 1058.8 94.699 1062.24 91.1772C1068.22 85.1217 1072.47 82.1794 1072.72 82.4642Z" fill="white"/>
<path d="M1021.22 289.058C1021.52 289.532 1016.26 292.854 1008.93 299.726L1006.1 302.422C1005.12 303.371 1004.21 304.453 1003.18 305.497C1001.11 307.585 999.176 310.053 997.069 312.577C992.67 318.191 988.764 324.174 985.395 330.459C982.11 336.797 979.367 343.401 977.194 350.201C976.302 353.352 975.296 356.352 974.802 359.218C974.499 360.661 974.138 362.027 973.91 363.375C973.682 364.723 973.474 365.995 973.284 367.172C971.803 377.062 971.936 383.307 971.386 383.326C971.158 383.326 970.949 381.788 970.759 378.941C970.759 378.22 970.664 377.422 970.626 376.568C970.588 375.714 970.626 374.765 970.626 373.759C970.641 371.469 970.774 369.182 971.025 366.906C971.158 365.634 971.31 364.305 971.461 362.92C971.613 361.534 971.936 360.11 972.183 358.648C972.657 355.668 973.512 352.574 974.366 349.309C978.395 335.148 985.347 321.989 994.772 310.679C996.817 308.218 998.984 305.862 1001.26 303.618C1002.33 302.574 1003.33 301.511 1004.38 300.599L1007.41 297.999C1009.15 296.505 1010.97 295.104 1012.86 293.804C1013.68 293.215 1014.44 292.646 1015.16 292.171L1017.19 290.956C1019.75 289.57 1021.08 288.868 1021.22 289.058Z" fill="white"/>
<path d="M983.108 569.138C981.362 568.148 979.962 566.647 979.097 564.836C978.231 563.026 977.941 560.994 978.266 559.014C978.592 557.034 979.517 555.201 980.916 553.763C982.315 552.324 984.122 551.35 986.093 550.971C989.648 550.27 994.099 551.282 996.331 548.375C998.368 545.78 996.837 542.354 997.733 538.202C998.628 534.049 1002.2 532.09 1006.13 532.142C1008.1 532.256 1010.01 532.868 1011.68 533.921C1013.35 534.974 1014.73 536.434 1015.68 538.163C1017.78 542.008 1018.73 546.378 1018.42 550.75C1017.37 559.717 1012.58 564.311 1006.62 568.113C1000.67 571.915 989.389 572.784 983.108 569.06" fill="#005490"/>
<g opacity="0.8">
<path d="M983.108 569.138C981.362 568.148 979.962 566.647 979.097 564.836C978.231 563.026 977.941 560.994 978.266 559.014C978.592 557.034 979.517 555.201 980.916 553.763C982.315 552.324 984.122 551.35 986.093 550.971C989.648 550.27 994.099 551.282 996.331 548.375C998.368 545.78 996.837 542.354 997.733 538.202C998.628 534.049 1002.2 532.09 1006.13 532.142C1008.1 532.256 1010.01 532.868 1011.68 533.921C1013.35 534.974 1014.73 536.434 1015.68 538.163C1017.78 542.008 1018.73 546.378 1018.42 550.75C1017.37 559.717 1012.58 564.311 1006.62 568.113C1000.67 571.915 989.389 572.784 983.108 569.06" fill="white"/>
</g>
<path d="M1128.69 497.265C1130.14 494.498 1132.39 492.24 1135.16 490.793C1137.93 489.345 1141.07 488.778 1144.16 489.166C1147.26 489.554 1150.17 490.88 1152.49 492.965C1154.81 495.05 1156.44 497.796 1157.16 500.833C1158.46 506.348 1157.16 513.33 1161.74 516.665C1165.91 519.688 1171.18 517.08 1177.72 518.222C1184.26 519.364 1187.53 524.814 1187.67 530.965C1187.81 537.116 1184.05 542.955 1178.84 546.225C1172.97 549.738 1166.22 551.486 1159.38 551.26C1145.33 550.157 1137.86 542.955 1131.57 533.898C1125.28 524.84 1123.25 507.283 1128.69 497.265Z" fill="#005490"/>
<g opacity="0.8">
<path d="M1128.69 497.265C1130.13 494.498 1132.39 492.24 1135.16 490.793C1137.92 489.345 1141.07 488.778 1144.16 489.166C1147.26 489.554 1150.16 490.88 1152.49 492.965C1154.81 495.05 1156.44 497.796 1157.16 500.833C1158.46 506.348 1157.16 513.33 1161.74 516.665C1165.91 519.688 1171.17 517.08 1177.71 518.222C1184.25 519.364 1187.52 524.814 1187.67 530.965C1187.81 537.116 1184.05 542.955 1178.84 546.225C1172.97 549.738 1166.22 551.486 1159.38 551.26C1145.32 550.157 1137.86 542.955 1131.57 533.898C1125.28 524.84 1123.25 507.283 1128.69 497.265Z" fill="white"/>
</g>
<path d="M1023.83 478.858C1022.26 479.663 1020.95 480.883 1020.04 482.385C1019.12 483.887 1018.64 485.612 1018.64 487.371C1018.7 489.325 1019.4 491.206 1020.62 492.734C1021.84 494.262 1023.52 495.356 1025.41 495.853C1027.3 496.35 1029.3 496.224 1031.11 495.493C1032.93 494.762 1034.45 493.466 1035.47 491.797C1036.49 490.128 1036.94 488.175 1036.76 486.228C1036.58 484.281 1035.78 482.445 1034.47 480.992C1033.16 479.538 1031.42 478.546 1029.5 478.162C1027.59 477.777 1025.6 478.022 1023.83 478.858Z" fill="#005490"/>
<g opacity="0.8">
<path d="M1023.83 478.858C1022.26 479.663 1020.95 480.883 1020.04 482.385C1019.12 483.887 1018.64 485.612 1018.64 487.371C1018.7 489.325 1019.4 491.206 1020.62 492.734C1021.84 494.262 1023.52 495.356 1025.41 495.853C1027.3 496.35 1029.3 496.224 1031.11 495.493C1032.93 494.762 1034.45 493.466 1035.47 491.797C1036.49 490.128 1036.94 488.175 1036.76 486.228C1036.58 484.281 1035.78 482.445 1034.47 480.992C1033.16 479.538 1031.42 478.546 1029.5 478.162C1027.59 477.777 1025.6 478.022 1023.83 478.858Z" fill="white"/>
</g>
</g>
<defs>
<linearGradient id="paint0_linear_2_3" x1="-4.79332e-06" y1="36.0382" x2="1346.03" y2="526.123" gradientUnits="userSpaceOnUse">
<stop stop-color="#F1F9FF"/>
<stop offset="1" stop-color="#EFEFEF"/>
</linearGradient>
<clipPath id="clip0_2_3">
<rect width="1320" height="682" rx="40" fill="white"/>
</clipPath>
</defs>
</svg>
