<svg width="342" height="133" viewBox="0 0 342 133" fill="none" xmlns="http://www.w3.org/2000/svg">
<path d="M1.91974 35.9533V22.367H21.2809V35.9533H1.91974ZM1.91974 99.481V45.6H21.0966V99.481H1.91974Z" fill="url(#paint0_linear_1103_1458)" fill-opacity="0.5" stroke="white" stroke-width="2.38636"/>
<path d="M54.3579 69.8959H34.5408V25.2717H46.9859H49.3199L47.953 23.3798L41.1339 13.9414L41.1251 13.9292L41.116 13.9172C40.4485 13.0408 40.6265 11.7908 41.6129 11.0622C42.5229 10.39 43.8152 10.5796 44.5555 11.5426L53.8203 24.2453C53.8448 24.3055 53.8725 24.3612 53.9019 24.4125V25.2717H55.0951H86.7947H87.2836L87.6319 24.9287C87.8649 24.6992 87.9849 24.4614 88.0359 24.3602C88.0384 24.3553 88.0407 24.3507 88.0429 24.3464C88.0444 24.3436 88.0457 24.3409 88.047 24.3384L88.063 24.3226L88.1159 24.2525L97.6962 11.5514C97.6966 11.5508 97.6971 11.5502 97.6975 11.5496C98.4369 10.5806 99.7332 10.3884 100.645 11.0622C101.614 11.7773 101.821 13.2005 101.147 14.0927L93.597 23.7045L92.4047 25.2224L94.2955 25.6104C98.6448 26.5028 109.497 30.0153 113.321 40.2847C116.723 49.4546 116.042 56.9958 114.537 62.2283C113.783 64.8508 112.819 66.9 112.049 68.2863C111.664 68.9791 111.329 69.5051 111.093 69.853C111.083 69.8676 111.074 69.8819 111.064 69.8959H92.8766H54.3579ZM53.349 57.1129V58.3061H54.5422H86.2418V57.1129C86.2418 58.3061 86.2426 58.3061 86.2434 58.3061L86.2451 58.3061L86.249 58.3061L86.2587 58.306L86.2852 58.3056C86.306 58.3052 86.3329 58.3044 86.3657 58.303C86.4311 58.3001 86.5199 58.2948 86.6288 58.2847C86.8461 58.2646 87.146 58.2255 87.5013 58.1488C88.2084 57.9963 89.1585 57.6902 90.1153 57.071C92.1013 55.7857 93.8855 53.3012 93.8855 48.7636C93.8855 44.2409 92.1566 41.8228 90.1793 40.62C89.2325 40.0441 88.294 39.7877 87.5984 39.6736C87.2487 39.6162 86.9536 39.5936 86.7397 39.5856C86.6325 39.5816 86.545 39.5813 86.4803 39.5821C86.4481 39.5826 86.4214 39.5833 86.4008 39.5841H54.5422H53.349V40.7772V57.1129ZM54.1736 86.4233H52.9804V87.6165V99.3001H34.5408V77.909H104.574L112.367 99.3001H91.3317L83.7562 86.9911L83.4068 86.4233H82.7401H54.1736Z" fill="url(#paint1_linear_1103_1458)" fill-opacity="0.5" stroke="white" stroke-width="2.38636"/>
<path d="M271.648 99.6631L271.635 99.6632L255.061 99.8446C255.059 99.8446 255.057 99.8446 255.055 99.8446C252.566 99.8415 250.541 97.8188 250.541 95.4111V26.9827C250.541 24.5732 252.57 22.5491 255.061 22.5491H261.696H300.767C322.426 22.5491 339.936 39.8198 339.936 61.1061C339.936 82.3925 322.426 99.6631 300.767 99.6631L271.648 99.6631ZM269.718 78.5309C269.718 79.323 270.218 79.9012 270.6 80.2087C271.001 80.5318 271.579 80.8131 272.201 80.8131H300.583C311.73 80.8131 320.759 71.9466 320.759 60.9246C320.759 49.9026 311.73 41.0362 300.583 41.0362H271.832C271.29 41.0362 270.743 41.2189 270.327 41.6288C269.909 42.0403 269.718 42.5879 269.718 43.1369V78.5309Z" fill="url(#paint2_linear_1103_1458)" fill-opacity="0.5" stroke="white" stroke-width="2.38636"/>
<path d="M216.814 99.3001V22.5491H235.991V99.3001H216.814Z" fill="url(#paint3_linear_1103_1458)" fill-opacity="0.5" stroke="white" stroke-width="2.38636"/>
<path d="M195.254 42.1436L195.241 42.1648L195.229 42.1865C193.295 45.6145 192.126 49.6264 192.126 53.6632C192.126 58.2665 193.492 62.6509 195.982 66.8011L196.006 66.8408L196.033 66.8785C198.555 70.4265 202.05 72.9663 205.875 74.6723C204.417 79.3238 202.19 84.0546 199.354 87.9975L199.347 88.008L199.339 88.0186C197.229 91.0914 195.043 93.9778 192.563 96.1174C190.105 98.238 187.416 99.5764 184.273 99.662C181.219 99.6591 179.147 98.8032 176.806 97.8357C176.741 97.8091 176.677 97.7824 176.612 97.7556C174.156 96.7422 171.445 95.6688 167.333 95.6688C163.234 95.6688 160.484 96.6891 158.017 97.684C157.871 97.7429 157.727 97.8015 157.583 97.8597C155.319 98.7772 153.328 99.5837 150.528 99.6625C147.654 99.7408 145.042 98.3347 142.525 96.0085C140.003 93.6774 137.722 90.5577 135.5 87.458C131.179 81.3393 127.378 72.7011 125.773 63.7088C124.167 54.707 124.785 45.496 129.107 38.1118L129.107 38.1118L129.109 38.1078C131.228 34.4566 134.036 31.5257 137.531 29.4609C141.048 27.3825 145.093 26.1704 149.129 25.996C152.185 25.9145 155.211 26.9191 158.106 28.0278C158.492 28.1757 158.879 28.3267 159.264 28.4769C160.288 28.8763 161.297 29.27 162.237 29.5849C163.53 30.018 164.831 30.3528 166.043 30.3528C167.272 30.3528 168.668 29.9621 170.08 29.4769C170.874 29.2039 171.761 28.8676 172.676 28.5207C173.366 28.2592 174.072 27.9916 174.765 27.7406C178.125 26.5252 181.785 25.4726 185.47 25.8102L185.495 25.8125L185.52 25.8137C189.191 25.9945 192.628 26.3543 195.683 28.0214C198.298 29.5381 200.37 31.3154 202.272 33.6097C199.257 35.8484 197.048 39.2537 195.254 42.1436Z" fill="url(#paint4_linear_1103_1458)" fill-opacity="0.5" stroke="white" stroke-width="2.38636"/>
<path d="M179.513 15.6802L179.51 15.6837C177.785 17.7229 175.529 19.4371 173.089 20.6407C170.858 21.6642 168.628 22.1853 166.272 22.3102C166.249 19.9889 166.611 17.7812 167.36 15.5665C168.222 13.0216 169.605 10.794 171.37 8.70537C174.77 4.88384 179.366 2.39047 184.472 1.63482C184.654 6.83642 182.914 11.6934 179.513 15.6802Z" fill="url(#paint5_linear_1103_1458)" fill-opacity="0.5" stroke="white" stroke-width="2.38636"/>
<path d="M10.0904 129.076L9.80027 129.171C9.77357 129.145 9.74667 129.118 9.71956 129.092C9.84155 129.09 9.96532 129.084 10.0904 129.076ZM4.13655 125.995C4.4134 126.508 4.81326 127.003 5.27418 127.421C4.6454 126.908 4.14115 126.307 3.57904 125.616C3.12549 124.687 2.84162 123.644 2.84162 122.636C2.84162 121.397 3.15259 120.365 3.74233 119.493C4.38301 118.547 5.17955 117.758 6.139 117.122C7.16839 116.552 8.21891 116.388 9.57342 116.388C10.8383 116.388 11.9662 116.696 13.1641 117.201C14.1753 117.628 14.8693 118.314 15.2985 119.301L15.3426 119.402L15.4045 119.493C15.9943 120.365 16.3052 121.397 16.3052 122.636C16.3052 123.609 16.1377 124.452 15.7422 125.101L15.692 125.183L15.6557 125.273C15.3765 125.96 14.7714 126.733 14.0809 127.413C13.8052 127.684 13.4358 127.894 12.9613 128.093C13.8234 127.591 14.6213 126.764 15.0606 125.899C15.4496 125.133 15.9271 124.017 15.9271 122.818C15.9271 121.797 15.728 120.633 15.0103 119.64C14.5119 118.717 13.6149 117.851 12.6808 117.391C11.9027 117.008 10.7779 116.542 9.57342 116.542C8.54502 116.542 7.37303 116.736 6.37085 117.439C5.49387 117.898 4.66077 118.707 4.17345 119.573C3.37545 120.474 3.21979 121.74 3.21979 122.818C3.21979 123.838 3.41881 125.002 4.13655 125.995Z" fill="url(#paint6_linear_1103_1458)" fill-opacity="0.5" stroke="white" stroke-width="2.38636"/>
<path d="M35.7434 128.885C33.9124 128.885 32.6 128.393 31.7889 127.594C30.9897 126.807 30.4862 125.533 30.4862 123.544V116.569H30.8643V123.362C30.8643 124.965 31.217 126.354 32.1212 127.344C33.045 128.355 34.3422 128.73 35.7434 128.73C37.1886 128.73 38.4742 128.284 39.3786 127.261C40.2612 126.263 40.6225 124.893 40.6225 123.362V116.569H41.0006V123.725C41.0006 125.607 40.5507 126.759 39.7022 127.764C38.8577 128.421 37.5183 128.885 35.7434 128.885Z" fill="url(#paint7_linear_1103_1458)" fill-opacity="0.5" stroke="white" stroke-width="2.38636"/>
<path d="M65.5577 126.089L65.2262 125.436H64.7655V124.633V124.451V124.196L64.6612 123.964L61.8967 117.792L61.3488 116.569H61.5156L67.06 128.703H66.8849L65.5577 126.089ZM56.3924 125.436H56.3512L56.0342 126.139L54.8767 128.703H54.7398L59.5861 118.097L56.9492 124.157L56.3924 125.436Z" fill="url(#paint8_linear_1103_1458)" fill-opacity="0.5" stroke="white" stroke-width="2.38636"/>
<path d="M81.3643 127.719V128.704H81.1704V116.751H81.3643V127.719Z" fill="url(#paint9_linear_1103_1458)" fill-opacity="0.5" stroke="white" stroke-width="2.38636"/>
<path d="M102.732 116.751H103.111V128.885H102.732V116.751Z" fill="url(#paint10_linear_1103_1458)" fill-opacity="0.5" stroke="white" stroke-width="2.38636"/>
<path d="M121.712 117.736V116.751H122.09V117.736V128.704H121.712V117.736Z" fill="url(#paint11_linear_1103_1458)" fill-opacity="0.5" stroke="white" stroke-width="2.38636"/>
<path d="M144.092 124.741L144.21 124.551V124.814V128.703H143.832V124.814V124.481L143.66 124.196L139.043 116.569H139.198L143.09 123.068L144.092 124.741Z" fill="url(#paint12_linear_1103_1458)" fill-opacity="0.5" stroke="white" stroke-width="2.38636"/>
<path d="M191.749 120.277V116.569H191.943V128.703H191.749V120.277ZM178.295 116.569H178.489V120.458V128.703H178.295V116.569Z" fill="url(#paint13_linear_1103_1458)" fill-opacity="0.5" stroke="white" stroke-width="2.38636"/>
<path d="M216.87 126.089L216.644 125.645H216.705L215.979 123.975L213.214 117.622L212.756 116.569H212.828L218.373 128.703H218.197L216.87 126.089ZM207.57 125.645L207.347 126.139L206.189 128.703H206.052L209.24 121.728L208.262 123.975L207.535 125.645H207.57Z" fill="url(#paint14_linear_1103_1458)" fill-opacity="0.5" stroke="white" stroke-width="2.38636"/>
<path d="M234.696 117.736V116.751H235.074V117.736V128.704H234.696V117.736Z" fill="url(#paint15_linear_1103_1458)" fill-opacity="0.5" stroke="white" stroke-width="2.38636"/>
<path d="M256.626 117.736V116.751H257.004V117.736V128.704H256.626V117.736Z" fill="url(#paint16_linear_1103_1458)" fill-opacity="0.5" stroke="white" stroke-width="2.38636"/>
<path d="M275.802 127.718V128.703H275.424V116.569H275.802V117.554V121.366V122.532V122.559V123.725V127.718Z" fill="url(#paint17_linear_1103_1458)" fill-opacity="0.5" stroke="white" stroke-width="2.38636"/>
<path d="M299.024 125.722V128.703H298.646V116.569H299.024V117.736V123.544V124.529V124.737V125.722ZM306.953 117.611C306.395 117.063 305.674 116.787 304.903 116.654C305.48 116.732 305.982 116.86 306.415 117.031C307.047 117.28 307.623 117.813 308.115 118.458C308.44 118.886 308.608 119.487 308.608 120.458C308.608 121.43 308.44 122.03 308.115 122.458C307.824 122.84 307.504 123.182 307.16 123.45C307.8 122.73 308.23 121.784 308.23 120.64C308.23 119.376 307.706 118.354 306.953 117.611ZM304.773 124.624C304.879 124.606 304.984 124.584 305.088 124.56L305.876 125.682L307.873 128.522H307.527L305.063 125.034L304.773 124.624Z" fill="url(#paint18_linear_1103_1458)" fill-opacity="0.5" stroke="white" stroke-width="2.38636"/>
<path d="M330.213 124.276L330.125 124.102L329.987 123.966C329.48 123.467 328.966 123.214 328.599 123.033C328.589 123.029 328.58 123.024 328.571 123.02C328.28 122.876 327.91 122.761 327.584 122.669C327.242 122.573 326.858 122.478 326.498 122.39L326.486 122.387L326.44 122.376L326.394 122.368C325.913 122.289 325.46 122.169 325.018 122.038C324.901 122.004 324.777 121.966 324.651 121.927C324.338 121.832 324.009 121.732 323.722 121.661C323.358 121.571 323.034 121.293 322.431 120.699C322.203 120.475 322.049 120.129 322.049 119.371C322.049 118.875 322.166 118.41 322.543 117.916L322.608 117.829L322.657 117.733C322.696 117.656 322.746 117.579 322.807 117.502C322.529 117.991 322.427 118.525 322.427 119.008C322.427 119.667 322.734 120.264 322.895 120.577C322.906 120.598 322.916 120.618 322.925 120.637L323.105 120.992L323.462 121.167C323.49 121.181 323.535 121.207 323.618 121.261C323.635 121.271 323.657 121.286 323.682 121.302C323.749 121.347 323.84 121.406 323.917 121.453C324.109 121.572 324.525 121.82 325.05 121.834C325.062 121.837 325.083 121.842 325.115 121.85C325.205 121.876 325.321 121.914 325.482 121.971C325.518 121.984 325.556 121.997 325.596 122.012C325.884 122.113 326.267 122.25 326.653 122.344L326.698 122.356L326.745 122.363C327.226 122.442 327.679 122.563 328.12 122.693C328.238 122.728 328.361 122.766 328.487 122.804C328.801 122.9 329.13 123 329.417 123.071C329.78 123.16 330.105 123.438 330.708 124.033C330.936 124.256 331.089 124.603 331.089 125.361C331.089 125.857 330.973 126.321 330.596 126.816L330.541 126.889C330.67 126.555 330.711 126.22 330.711 125.905C330.711 125.246 330.405 124.649 330.244 124.336C330.233 124.315 330.223 124.295 330.213 124.276Z" fill="url(#paint19_linear_1103_1458)" fill-opacity="0.5" stroke="white" stroke-width="2.38636"/>
<defs>
<linearGradient id="paint0_linear_1103_1458" x1="0.712088" y1="62.6367" x2="22.7869" y2="62.6571" gradientUnits="userSpaceOnUse">
<stop stop-color="white" stop-opacity="0.6"/>
<stop offset="1" stop-color="white" stop-opacity="0"/>
</linearGradient>
<linearGradient id="paint1_linear_1103_1458" x1="33.292" y1="56.9422" x2="118.17" y2="57.2061" gradientUnits="userSpaceOnUse">
<stop stop-color="white" stop-opacity="0.6"/>
<stop offset="1" stop-color="white" stop-opacity="0"/>
</linearGradient>
<linearGradient id="paint2_linear_1103_1458" x1="249.287" y1="62.9135" x2="342.448" y2="63.2766" gradientUnits="userSpaceOnUse">
<stop stop-color="white" stop-opacity="0.6"/>
<stop offset="1" stop-color="white" stop-opacity="0"/>
</linearGradient>
<linearGradient id="paint3_linear_1103_1458" x1="215.607" y1="62.6295" x2="237.495" y2="62.6497" gradientUnits="userSpaceOnUse">
<stop stop-color="white" stop-opacity="0.6"/>
<stop offset="1" stop-color="white" stop-opacity="0"/>
</linearGradient>
<linearGradient id="paint4_linear_1103_1458" x1="123.714" y1="64.3498" x2="208.527" y2="64.6642" gradientUnits="userSpaceOnUse">
<stop stop-color="white" stop-opacity="0.6"/>
<stop offset="1" stop-color="white" stop-opacity="0"/>
</linearGradient>
<linearGradient id="paint5_linear_1103_1458" x1="165.064" y1="12.4173" x2="185.974" y2="12.48" gradientUnits="userSpaceOnUse">
<stop stop-color="white" stop-opacity="0.6"/>
<stop offset="1" stop-color="white" stop-opacity="0"/>
</linearGradient>
<linearGradient id="paint6_linear_1103_1458" x1="1.6374" y1="124.471" x2="18.4741" y2="124.525" gradientUnits="userSpaceOnUse">
<stop stop-color="white" stop-opacity="0.6"/>
<stop offset="1" stop-color="white" stop-opacity="0"/>
</linearGradient>
<linearGradient id="paint7_linear_1103_1458" x1="29.2844" y1="123.044" x2="42.3793" y2="123.083" gradientUnits="userSpaceOnUse">
<stop stop-color="white" stop-opacity="0.6"/>
<stop offset="1" stop-color="white" stop-opacity="0"/>
</linearGradient>
<linearGradient id="paint8_linear_1103_1458" x1="52.8721" y1="122.949" x2="69.1475" y2="123.01" gradientUnits="userSpaceOnUse">
<stop stop-color="white" stop-opacity="0.6"/>
<stop offset="1" stop-color="white" stop-opacity="0"/>
</linearGradient>
<linearGradient id="paint9_linear_1103_1458" x1="79.786" y1="123.036" x2="90.4492" y2="123.063" gradientUnits="userSpaceOnUse">
<stop stop-color="white" stop-opacity="0.6"/>
<stop offset="1" stop-color="white" stop-opacity="0"/>
</linearGradient>
<linearGradient id="paint10_linear_1103_1458" x1="101.537" y1="123.131" x2="104.344" y2="123.133" gradientUnits="userSpaceOnUse">
<stop stop-color="white" stop-opacity="0.6"/>
<stop offset="1" stop-color="white" stop-opacity="0"/>
</linearGradient>
<linearGradient id="paint11_linear_1103_1458" x1="115.718" y1="123.036" x2="128.252" y2="123.073" gradientUnits="userSpaceOnUse">
<stop stop-color="white" stop-opacity="0.6"/>
<stop offset="1" stop-color="white" stop-opacity="0"/>
</linearGradient>
<linearGradient id="paint12_linear_1103_1458" x1="136.916" y1="122.949" x2="151.508" y2="122.998" gradientUnits="userSpaceOnUse">
<stop stop-color="white" stop-opacity="0.6"/>
<stop offset="1" stop-color="white" stop-opacity="0"/>
</linearGradient>
<linearGradient id="paint13_linear_1103_1458" x1="177.091" y1="122.949" x2="193.366" y2="123.01" gradientUnits="userSpaceOnUse">
<stop stop-color="white" stop-opacity="0.6"/>
<stop offset="1" stop-color="white" stop-opacity="0"/>
</linearGradient>
<linearGradient id="paint14_linear_1103_1458" x1="204.185" y1="122.949" x2="220.46" y2="123.01" gradientUnits="userSpaceOnUse">
<stop stop-color="white" stop-opacity="0.6"/>
<stop offset="1" stop-color="white" stop-opacity="0"/>
</linearGradient>
<linearGradient id="paint15_linear_1103_1458" x1="228.703" y1="123.036" x2="241.237" y2="123.073" gradientUnits="userSpaceOnUse">
<stop stop-color="white" stop-opacity="0.6"/>
<stop offset="1" stop-color="white" stop-opacity="0"/>
</linearGradient>
<linearGradient id="paint16_linear_1103_1458" x1="250.632" y1="123.036" x2="263.166" y2="123.073" gradientUnits="userSpaceOnUse">
<stop stop-color="white" stop-opacity="0.6"/>
<stop offset="1" stop-color="white" stop-opacity="0"/>
</linearGradient>
<linearGradient id="paint17_linear_1103_1458" x1="274.223" y1="122.949" x2="285.447" y2="122.978" gradientUnits="userSpaceOnUse">
<stop stop-color="white" stop-opacity="0.6"/>
<stop offset="1" stop-color="white" stop-opacity="0"/>
</linearGradient>
<linearGradient id="paint18_linear_1103_1458" x1="297.445" y1="122.949" x2="310.353" y2="122.987" gradientUnits="userSpaceOnUse">
<stop stop-color="white" stop-opacity="0.6"/>
<stop offset="1" stop-color="white" stop-opacity="0"/>
</linearGradient>
<linearGradient id="paint19_linear_1103_1458" x1="320.664" y1="122.872" x2="332.45" y2="122.903" gradientUnits="userSpaceOnUse">
<stop stop-color="white" stop-opacity="0.6"/>
<stop offset="1" stop-color="white" stop-opacity="0"/>
</linearGradient>
</defs>
</svg>
