<svg width="451" height="492" viewBox="0 0 451 492" fill="none" xmlns="http://www.w3.org/2000/svg">
<rect width="450.545" height="491.591" rx="24.8182" fill="url(#paint0_linear_1_433)"/>
<path d="M34.6033 361.154V347.567H53.9645V361.154H34.6033ZM34.6033 424.681V370.8H53.7802V424.681H34.6033Z" fill="url(#paint1_linear_1_433)" fill-opacity="0.5" stroke="white" stroke-width="2.38636"/>
<path d="M87.0415 395.096H67.2244V350.472H79.6695H82.0035L80.6366 348.58L73.8175 339.142L73.8087 339.129L73.7996 339.117C73.1321 338.241 73.3101 336.991 74.2965 336.262C75.2065 335.59 76.4988 335.78 77.239 336.743L86.5039 349.445C86.5284 349.506 86.5561 349.561 86.5855 349.613V350.472H87.7787H119.478H119.967L120.316 350.129C120.548 349.899 120.668 349.662 120.72 349.56C120.722 349.555 120.724 349.551 120.727 349.547C120.728 349.544 120.729 349.541 120.731 349.539L120.747 349.523L120.799 349.453L130.38 336.752C130.38 336.751 130.381 336.75 130.381 336.75C131.12 335.781 132.417 335.589 133.329 336.262C134.297 336.977 134.504 338.401 133.831 339.293L126.281 348.905L125.088 350.423L126.979 350.811C131.328 351.703 142.18 355.215 146.005 365.485C149.407 374.655 148.726 382.196 147.221 387.428C146.466 390.051 145.502 392.1 144.732 393.487C144.348 394.179 144.012 394.705 143.777 395.053C143.767 395.068 143.757 395.082 143.748 395.096H125.56H87.0415ZM86.0326 382.313V383.506H87.2258H118.925V382.313C118.925 383.506 118.926 383.506 118.927 383.506L118.929 383.506L118.933 383.506L118.942 383.506L118.969 383.506C118.99 383.505 119.017 383.505 119.049 383.503C119.115 383.5 119.204 383.495 119.312 383.485C119.53 383.465 119.83 383.426 120.185 383.349C120.892 383.196 121.842 382.89 122.799 382.271C124.785 380.986 126.569 378.501 126.569 373.964C126.569 369.441 124.84 367.023 122.863 365.82C121.916 365.244 120.978 364.988 120.282 364.874C119.932 364.816 119.637 364.794 119.423 364.786C119.316 364.782 119.229 364.781 119.164 364.782C119.132 364.783 119.105 364.784 119.084 364.784H87.2258H86.0326V365.977V382.313ZM86.8572 411.623H85.664V412.817V424.5H67.2244V403.109H137.257L145.05 424.5H124.015L116.44 412.191L116.09 411.623H115.424H86.8572Z" fill="url(#paint2_linear_1_433)" fill-opacity="0.5" stroke="white" stroke-width="2.38636"/>
<path d="M304.332 424.863L304.319 424.863L287.745 425.045C287.743 425.045 287.741 425.045 287.739 425.045C285.25 425.042 283.224 423.019 283.224 420.611V352.183C283.224 349.773 285.253 347.749 287.745 347.749H294.379H333.451C355.11 347.749 372.62 365.02 372.62 386.306C372.62 407.593 355.11 424.863 333.451 424.863L304.332 424.863ZM302.401 403.731C302.401 404.523 302.902 405.101 303.283 405.409C303.684 405.732 304.263 406.013 304.884 406.013H333.267C344.414 406.013 353.443 397.147 353.443 386.125C353.443 375.103 344.414 366.236 333.267 366.236H304.516C303.974 366.236 303.427 366.419 303.011 366.829C302.593 367.241 302.401 367.788 302.401 368.337V403.731Z" fill="url(#paint3_linear_1_433)" fill-opacity="0.5" stroke="white" stroke-width="2.38636"/>
<path d="M249.498 347.749H268.675V424.5H249.498V347.749Z" fill="url(#paint4_linear_1_433)" fill-opacity="0.5" stroke="white" stroke-width="2.38636"/>
<path d="M227.938 367.344L227.925 367.365L227.913 367.387C225.979 370.815 224.81 374.826 224.81 378.863C224.81 383.467 226.176 387.851 228.666 392.001L228.69 392.041L228.717 392.079C231.238 395.627 234.734 398.166 238.559 399.872C237.101 404.524 234.874 409.255 232.038 413.198L232.03 413.208L232.023 413.219C229.912 416.292 227.727 419.178 225.247 421.318C222.789 423.438 220.099 424.776 216.957 424.862C213.903 424.859 211.831 424.003 209.489 423.036C209.425 423.009 209.36 422.982 209.295 422.956C206.84 421.942 204.128 420.869 200.017 420.869C195.917 420.869 193.168 421.889 190.701 422.884C190.555 422.943 190.41 423.002 190.267 423.06C188.002 423.977 186.012 424.784 183.212 424.863C180.338 424.941 177.726 423.535 175.209 421.209C172.687 418.877 170.405 415.758 168.184 412.658C163.862 406.539 160.061 397.901 158.457 388.909C156.85 379.907 157.468 370.696 161.791 363.312L161.791 363.312L161.793 363.308C163.911 359.657 166.72 356.726 170.214 354.661C173.732 352.583 177.776 351.37 181.813 351.196C184.869 351.115 187.895 352.119 190.79 353.228C191.176 353.376 191.563 353.527 191.948 353.677C192.972 354.076 193.981 354.47 194.921 354.785C196.214 355.218 197.515 355.553 198.727 355.553C199.956 355.553 201.352 355.162 202.763 354.677C203.557 354.404 204.445 354.068 205.36 353.721C206.05 353.459 206.755 353.192 207.449 352.941C210.809 351.725 214.469 350.673 218.154 351.01L218.179 351.013L218.204 351.014C221.875 351.195 225.312 351.554 228.367 353.222C230.981 354.738 233.054 356.515 234.956 358.81C231.941 361.048 229.731 364.454 227.938 367.344Z" fill="url(#paint5_linear_1_433)" fill-opacity="0.5" stroke="white" stroke-width="2.38636"/>
<path d="M212.197 340.88L212.194 340.884C210.469 342.923 208.212 344.637 205.773 345.841C203.541 346.864 201.312 347.385 198.956 347.51C198.932 345.189 199.294 342.981 200.044 340.767C200.905 338.222 202.288 335.994 204.054 333.906C207.454 330.084 212.05 327.591 217.155 326.835C217.338 332.037 215.597 336.894 212.197 340.88Z" fill="url(#paint6_linear_1_433)" fill-opacity="0.5" stroke="white" stroke-width="2.38636"/>
<path d="M42.7739 454.276L42.4839 454.371C42.4572 454.345 42.4303 454.319 42.4032 454.292C42.5251 454.29 42.6489 454.285 42.7739 454.276ZM36.8201 451.195C37.097 451.708 37.4969 452.203 37.9578 452.621C37.329 452.109 36.8247 451.507 36.2626 450.816C35.8091 449.887 35.5252 448.844 35.5252 447.836C35.5252 446.597 35.8362 445.565 36.4259 444.694C37.0666 443.747 37.8631 442.959 38.8226 442.322C39.852 441.753 40.9025 441.588 42.257 441.588C43.5219 441.588 44.6498 441.896 45.8477 442.401C46.8589 442.828 47.5529 443.514 47.9821 444.501L48.0262 444.602L48.0881 444.694C48.6779 445.565 48.9888 446.597 48.9888 447.836C48.9888 448.809 48.8212 449.652 48.4258 450.301L48.3756 450.384L48.3393 450.473C48.0601 451.161 47.455 451.933 46.7645 452.613C46.4887 452.885 46.1194 453.095 45.6449 453.294C46.507 452.791 47.3049 451.964 47.7442 451.099C48.1332 450.333 48.6107 449.217 48.6107 448.018C48.6107 446.997 48.4116 445.834 47.6939 444.841C47.1955 443.918 46.2985 443.051 45.3644 442.591C44.5863 442.208 43.4615 441.742 42.257 441.742C41.2286 441.742 40.0566 441.937 39.0544 442.64C38.1775 443.098 37.3444 443.907 36.857 444.774C36.059 445.674 35.9034 446.94 35.9034 448.018C35.9034 449.038 36.1024 450.202 36.8201 451.195Z" fill="url(#paint7_linear_1_433)" fill-opacity="0.5" stroke="white" stroke-width="2.38636"/>
<path d="M68.427 454.085C66.596 454.085 65.2836 453.593 64.4725 452.795C63.6733 452.008 63.1697 450.734 63.1697 448.744V441.769H63.5478V448.563C63.5478 450.165 63.9006 451.554 64.8048 452.544C65.7286 453.555 67.0258 453.93 68.427 453.93C69.8722 453.93 71.1578 453.484 72.0622 452.461C72.9448 451.463 73.3061 450.093 73.3061 448.563V441.769H73.6842V448.926C73.6842 450.807 73.2342 451.959 72.3858 452.965C71.5413 453.621 70.2019 454.085 68.427 454.085Z" fill="url(#paint8_linear_1_433)" fill-opacity="0.5" stroke="white" stroke-width="2.38636"/>
<path d="M98.2413 451.29L97.9098 450.636H97.4491V449.833V449.652V449.397L97.3448 449.164L94.5803 442.992L94.0324 441.769H94.1992L99.7436 453.904H99.5685L98.2413 451.29ZM89.076 450.636H89.0348L88.7178 451.339L87.5603 453.904H87.4234L92.2697 443.297L89.6328 449.357L89.076 450.636Z" fill="url(#paint9_linear_1_433)" fill-opacity="0.5" stroke="white" stroke-width="2.38636"/>
<path d="M114.048 452.919V453.904H113.854V441.951H114.048V452.919Z" fill="url(#paint10_linear_1_433)" fill-opacity="0.5" stroke="white" stroke-width="2.38636"/>
<path d="M135.416 441.951H135.794V454.085H135.416V441.951Z" fill="url(#paint11_linear_1_433)" fill-opacity="0.5" stroke="white" stroke-width="2.38636"/>
<path d="M154.395 442.936V441.951H154.773V442.936V453.904H154.395V442.936Z" fill="url(#paint12_linear_1_433)" fill-opacity="0.5" stroke="white" stroke-width="2.38636"/>
<path d="M176.775 449.941L176.894 449.752V450.015V453.904H176.516V450.015V449.682L176.343 449.397L171.726 441.769H171.882L175.773 448.268L176.775 449.941Z" fill="url(#paint13_linear_1_433)" fill-opacity="0.5" stroke="white" stroke-width="2.38636"/>
<path d="M224.432 445.477V441.769H224.626V453.904H224.432V445.477ZM211.172 445.658V453.904H210.978V441.769H211.172V445.658Z" fill="url(#paint14_linear_1_433)" fill-opacity="0.5" stroke="white" stroke-width="2.38636"/>
<path d="M249.554 451.29L249.328 450.845H249.389L248.662 449.175L245.898 442.823L245.44 441.769H245.512L251.056 453.904H250.881L249.554 451.29ZM240.253 450.845L240.03 451.339L238.873 453.904H238.736L241.923 446.928L240.945 449.175L240.219 450.845H240.253Z" fill="url(#paint15_linear_1_433)" fill-opacity="0.5" stroke="white" stroke-width="2.38636"/>
<path d="M266.186 442.936V441.951H267.758V442.936V453.904H267.38V442.936H266.186Z" fill="url(#paint16_linear_1_433)" fill-opacity="0.5" stroke="white" stroke-width="2.38636"/>
<path d="M289.309 442.936V441.951H289.687V442.936V453.904H289.309V442.936Z" fill="url(#paint17_linear_1_433)" fill-opacity="0.5" stroke="white" stroke-width="2.38636"/>
<path d="M308.485 452.919V453.904H308.107V441.769H308.485V442.754V446.566V447.732V447.759V448.926V452.919Z" fill="url(#paint18_linear_1_433)" fill-opacity="0.5" stroke="white" stroke-width="2.38636"/>
<path d="M331.708 450.922V453.904H331.33V441.769H331.708V442.936V448.744V449.729V449.937V450.922ZM339.636 442.812C339.079 442.263 338.358 441.987 337.587 441.855C338.163 441.932 338.665 442.06 339.099 442.231C339.731 442.48 340.307 443.013 340.798 443.659C341.124 444.086 341.292 444.687 341.292 445.658C341.292 446.63 341.124 447.231 340.798 447.658C340.508 448.04 340.187 448.383 339.843 448.65C340.484 447.931 340.914 446.984 340.914 445.84C340.914 444.577 340.39 443.554 339.636 442.812ZM337.457 449.824C337.562 449.806 337.667 449.784 337.771 449.76L338.56 450.882L340.556 453.722H340.21L337.746 450.234L337.457 449.824Z" fill="url(#paint19_linear_1_433)" fill-opacity="0.5" stroke="white" stroke-width="2.38636"/>
<path d="M355.341 442.933C355.38 442.857 355.429 442.779 355.491 442.702C355.212 443.191 355.111 443.726 355.111 444.208C355.111 444.867 355.417 445.464 355.578 445.777C355.589 445.798 355.599 445.818 355.609 445.837L355.789 446.192L356.146 446.367C356.173 446.381 356.218 446.407 356.301 446.461C356.318 446.471 356.34 446.486 356.365 446.502C356.433 446.547 356.524 446.606 356.6 446.653C356.793 446.772 357.208 447.02 357.733 447.034C357.745 447.037 357.766 447.042 357.798 447.051C357.888 447.076 358.005 447.115 358.166 447.171C358.202 447.184 358.24 447.197 358.28 447.212C358.567 447.314 358.951 447.45 359.336 447.545L359.382 447.556L359.428 447.563C359.91 447.642 360.362 447.763 360.804 447.893C360.921 447.928 361.045 447.966 361.171 448.004C361.484 448.1 361.813 448.2 362.101 448.271C362.464 448.36 362.788 448.638 363.392 449.233C363.619 449.457 363.773 449.803 363.773 450.561C363.773 451.057 363.656 451.521 363.28 452.016L363.224 452.089C363.353 451.755 363.395 451.42 363.395 451.105C363.395 450.446 363.089 449.849 362.928 449.536C362.917 449.515 362.906 449.495 362.897 449.476L362.809 449.303L362.67 449.166C362.164 448.667 361.649 448.414 361.282 448.233C361.273 448.229 361.264 448.224 361.254 448.22C360.963 448.076 360.594 447.961 360.267 447.869C359.926 447.773 359.542 447.679 359.181 447.59L359.17 447.587L359.124 447.576L359.078 447.568C358.596 447.489 358.144 447.369 357.702 447.238C357.584 447.204 357.461 447.166 357.335 447.127C357.021 447.032 356.693 446.932 356.405 446.861C356.042 446.772 355.718 446.493 355.114 445.899C354.887 445.675 354.733 445.329 354.733 444.571C354.733 444.075 354.849 443.61 355.226 443.116L355.292 443.03L355.341 442.933Z" fill="url(#paint20_linear_1_433)" fill-opacity="0.5" stroke="white" stroke-width="2.38636"/>
<defs>
<linearGradient id="paint0_linear_1_433" x1="-4.17322e-06" y1="-7.15909" x2="475.364" y2="516.409" gradientUnits="userSpaceOnUse">
<stop stop-color="#207BBC"/>
<stop offset="1" stop-color="#192F40"/>
</linearGradient>
<linearGradient id="paint1_linear_1_433" x1="33.3957" y1="387.837" x2="55.4705" y2="387.857" gradientUnits="userSpaceOnUse">
<stop stop-color="white" stop-opacity="0.6"/>
<stop offset="1" stop-color="white" stop-opacity="0"/>
</linearGradient>
<linearGradient id="paint2_linear_1_433" x1="65.9756" y1="382.142" x2="150.854" y2="382.406" gradientUnits="userSpaceOnUse">
<stop stop-color="white" stop-opacity="0.6"/>
<stop offset="1" stop-color="white" stop-opacity="0"/>
</linearGradient>
<linearGradient id="paint3_linear_1_433" x1="281.97" y1="388.114" x2="375.132" y2="388.477" gradientUnits="userSpaceOnUse">
<stop stop-color="white" stop-opacity="0.6"/>
<stop offset="1" stop-color="white" stop-opacity="0"/>
</linearGradient>
<linearGradient id="paint4_linear_1_433" x1="248.29" y1="387.829" x2="270.178" y2="387.85" gradientUnits="userSpaceOnUse">
<stop stop-color="white" stop-opacity="0.6"/>
<stop offset="1" stop-color="white" stop-opacity="0"/>
</linearGradient>
<linearGradient id="paint5_linear_1_433" x1="156.398" y1="389.55" x2="241.211" y2="389.864" gradientUnits="userSpaceOnUse">
<stop stop-color="white" stop-opacity="0.6"/>
<stop offset="1" stop-color="white" stop-opacity="0"/>
</linearGradient>
<linearGradient id="paint6_linear_1_433" x1="197.748" y1="337.617" x2="218.658" y2="337.68" gradientUnits="userSpaceOnUse">
<stop stop-color="white" stop-opacity="0.6"/>
<stop offset="1" stop-color="white" stop-opacity="0"/>
</linearGradient>
<linearGradient id="paint7_linear_1_433" x1="34.321" y1="449.672" x2="51.1577" y2="449.725" gradientUnits="userSpaceOnUse">
<stop stop-color="white" stop-opacity="0.6"/>
<stop offset="1" stop-color="white" stop-opacity="0"/>
</linearGradient>
<linearGradient id="paint8_linear_1_433" x1="61.968" y1="448.244" x2="75.0629" y2="448.283" gradientUnits="userSpaceOnUse">
<stop stop-color="white" stop-opacity="0.6"/>
<stop offset="1" stop-color="white" stop-opacity="0"/>
</linearGradient>
<linearGradient id="paint9_linear_1_433" x1="85.5557" y1="448.149" x2="101.831" y2="448.21" gradientUnits="userSpaceOnUse">
<stop stop-color="white" stop-opacity="0.6"/>
<stop offset="1" stop-color="white" stop-opacity="0"/>
</linearGradient>
<linearGradient id="paint10_linear_1_433" x1="112.47" y1="448.236" x2="123.133" y2="448.263" gradientUnits="userSpaceOnUse">
<stop stop-color="white" stop-opacity="0.6"/>
<stop offset="1" stop-color="white" stop-opacity="0"/>
</linearGradient>
<linearGradient id="paint11_linear_1_433" x1="134.221" y1="448.331" x2="137.027" y2="448.333" gradientUnits="userSpaceOnUse">
<stop stop-color="white" stop-opacity="0.6"/>
<stop offset="1" stop-color="white" stop-opacity="0"/>
</linearGradient>
<linearGradient id="paint12_linear_1_433" x1="148.402" y1="448.236" x2="160.936" y2="448.273" gradientUnits="userSpaceOnUse">
<stop stop-color="white" stop-opacity="0.6"/>
<stop offset="1" stop-color="white" stop-opacity="0"/>
</linearGradient>
<linearGradient id="paint13_linear_1_433" x1="169.6" y1="448.149" x2="184.191" y2="448.198" gradientUnits="userSpaceOnUse">
<stop stop-color="white" stop-opacity="0.6"/>
<stop offset="1" stop-color="white" stop-opacity="0"/>
</linearGradient>
<linearGradient id="paint14_linear_1_433" x1="209.774" y1="448.149" x2="226.05" y2="448.21" gradientUnits="userSpaceOnUse">
<stop stop-color="white" stop-opacity="0.6"/>
<stop offset="1" stop-color="white" stop-opacity="0"/>
</linearGradient>
<linearGradient id="paint15_linear_1_433" x1="236.868" y1="448.149" x2="253.144" y2="448.21" gradientUnits="userSpaceOnUse">
<stop stop-color="white" stop-opacity="0.6"/>
<stop offset="1" stop-color="white" stop-opacity="0"/>
</linearGradient>
<linearGradient id="paint16_linear_1_433" x1="261.386" y1="448.236" x2="273.92" y2="448.273" gradientUnits="userSpaceOnUse">
<stop stop-color="white" stop-opacity="0.6"/>
<stop offset="1" stop-color="white" stop-opacity="0"/>
</linearGradient>
<linearGradient id="paint17_linear_1_433" x1="283.316" y1="448.236" x2="295.85" y2="448.273" gradientUnits="userSpaceOnUse">
<stop stop-color="white" stop-opacity="0.6"/>
<stop offset="1" stop-color="white" stop-opacity="0"/>
</linearGradient>
<linearGradient id="paint18_linear_1_433" x1="306.907" y1="448.149" x2="318.131" y2="448.178" gradientUnits="userSpaceOnUse">
<stop stop-color="white" stop-opacity="0.6"/>
<stop offset="1" stop-color="white" stop-opacity="0"/>
</linearGradient>
<linearGradient id="paint19_linear_1_433" x1="330.128" y1="448.149" x2="343.036" y2="448.188" gradientUnits="userSpaceOnUse">
<stop stop-color="white" stop-opacity="0.6"/>
<stop offset="1" stop-color="white" stop-opacity="0"/>
</linearGradient>
<linearGradient id="paint20_linear_1_433" x1="353.348" y1="448.072" x2="365.133" y2="448.103" gradientUnits="userSpaceOnUse">
<stop stop-color="white" stop-opacity="0.6"/>
<stop offset="1" stop-color="white" stop-opacity="0"/>
</linearGradient>
</defs>
</svg>
