<svg width="356" height="154" viewBox="0 0 356 154" fill="none" xmlns="http://www.w3.org/2000/svg">
<path d="M9.19318 46.6535V33.0672H28.5543V46.6535H9.19318ZM9.19318 110.181V56.3002H28.37V110.181H9.19318Z" fill="url(#paint0_linear_3790_1525)" fill-opacity="0.5" stroke="white" stroke-width="2.38636"/>
<path d="M61.6313 80.5956H41.8143V35.9714H54.2593H56.5934L55.2265 34.0795L48.4074 24.6411L48.3986 24.6289L48.3895 24.617C47.722 23.7405 47.8999 22.4905 48.8863 21.7619C49.7964 21.0897 51.0886 21.2793 51.8289 22.2423L61.0938 34.945C61.1183 35.0052 61.1459 35.0609 61.1753 35.1122V35.9714H62.3685H94.0681H94.557L94.9054 35.6284C95.1383 35.3989 95.2583 35.1611 95.3094 35.0599C95.3119 35.055 95.3142 35.0504 95.3163 35.0461C95.3178 35.0433 95.3192 35.0406 95.3205 35.0381L95.3365 35.0223L95.3893 34.9522L104.97 22.2511C104.97 22.2505 104.97 22.2499 104.971 22.2493C105.71 21.2803 107.007 21.0881 107.919 21.7619C108.887 22.477 109.094 23.9002 108.42 24.7924L100.87 34.4042L99.6781 35.9222L101.569 36.3101C105.918 37.2025 116.77 40.715 120.594 50.9844C123.997 60.1543 123.316 67.6955 121.81 72.928C121.056 75.5505 120.092 77.5997 119.322 78.986C118.938 79.6788 118.602 80.2048 118.367 80.5527C118.357 80.5673 118.347 80.5816 118.337 80.5956H100.15H61.6313ZM60.6224 67.8126V69.0058H61.8156H93.5152V67.8126C93.5152 69.0058 93.516 69.0058 93.5168 69.0058L93.5186 69.0058L93.5225 69.0058L93.5322 69.0057L93.5586 69.0053C93.5794 69.0049 93.6064 69.0041 93.6391 69.0027C93.7045 68.9999 93.7934 68.9945 93.9022 68.9844C94.1196 68.9644 94.4195 68.9252 94.7747 68.8485C95.4818 68.696 96.432 68.3899 97.3888 67.7707C99.3748 66.4854 101.159 64.0009 101.159 59.4633C101.159 54.9406 99.43 52.5225 97.4527 51.3197C96.506 50.7438 95.5675 50.4874 94.8719 50.3733C94.5222 50.3159 94.2271 50.2933 94.0132 50.2853C93.906 50.2813 93.8184 50.281 93.7538 50.2818C93.7215 50.2823 93.6948 50.283 93.6742 50.2838H61.8156H60.6224V51.477V67.8126ZM61.447 97.123H60.2538V98.3162V110H41.8143V88.6087H111.847L119.64 110H98.6051L91.0297 97.6908L90.6802 97.123H90.0135H61.447Z" fill="url(#paint1_linear_3790_1525)" fill-opacity="0.5" stroke="white" stroke-width="2.38636"/>
<path d="M278.921 110.363L278.908 110.363L262.334 110.544C262.332 110.544 262.331 110.544 262.329 110.544C259.84 110.541 257.814 108.518 257.814 106.111V37.6824C257.814 35.2729 259.843 33.2488 262.334 33.2488H268.969H308.041C329.699 33.2488 347.209 50.5195 347.209 71.8058C347.209 93.0922 329.699 110.363 308.041 110.363L278.921 110.363ZM276.991 89.2306C276.991 90.0227 277.492 90.6009 277.873 90.9084C278.274 91.2315 278.853 91.5128 279.474 91.5128H307.857C319.003 91.5128 328.033 82.6464 328.033 71.6243C328.033 60.6023 319.003 51.7359 307.857 51.7359H279.106C278.564 51.7359 278.017 51.9186 277.6 52.3285C277.183 52.74 276.991 53.2876 276.991 53.8366V89.2306Z" fill="url(#paint2_linear_3790_1525)" fill-opacity="0.5" stroke="white" stroke-width="2.38636"/>
<path d="M224.088 110V33.2488H243.265V110H224.088Z" fill="url(#paint3_linear_3790_1525)" fill-opacity="0.5" stroke="white" stroke-width="2.38636"/>
<path d="M202.528 52.8433L202.515 52.8645L202.502 52.8862C200.569 56.3142 199.4 60.3261 199.4 64.3629C199.4 68.9663 200.766 73.3506 203.256 77.5008L203.28 77.5405L203.306 77.5782C205.828 81.1262 209.323 83.666 213.148 85.372C211.691 90.0236 209.463 94.7543 206.628 98.6972L206.62 98.7077L206.613 98.7183C204.502 101.791 202.316 104.677 199.836 106.817C197.379 108.938 194.689 110.276 191.547 110.362C188.493 110.359 186.421 109.503 184.079 108.535C184.015 108.509 183.95 108.482 183.885 108.455C181.429 107.442 178.718 106.369 174.607 106.369C170.507 106.369 167.758 107.389 165.291 108.384C165.145 108.443 165 108.501 164.856 108.559C162.592 109.477 160.601 110.283 157.802 110.362C154.928 110.44 152.315 109.034 149.799 106.708C147.277 104.377 144.995 101.257 142.773 98.1577C138.452 92.039 134.651 83.4008 133.047 74.4085C131.44 65.4067 132.058 56.1957 136.38 48.8115L136.38 48.8115L136.383 48.8075C138.501 45.1563 141.31 42.2254 144.804 40.1606C148.321 38.0822 152.366 36.8701 156.403 36.6957C159.458 36.6142 162.485 37.6188 165.379 38.7275C165.766 38.8754 166.153 39.0264 166.538 39.1766C167.562 39.576 168.571 39.9697 169.511 40.2846C170.803 40.7177 172.104 41.0526 173.316 41.0526C174.545 41.0526 175.942 40.6618 177.353 40.1766C178.147 39.9036 179.034 39.5673 179.949 39.2204C180.639 38.9589 181.345 38.6913 182.039 38.4403C185.398 37.2249 189.058 36.1723 192.743 36.5099L192.768 36.5122L192.794 36.5134C196.465 36.6942 199.902 37.054 202.956 38.7212C205.571 40.2378 207.644 42.0151 209.545 44.3094C206.531 46.5481 204.321 49.9535 202.528 52.8433Z" fill="url(#paint4_linear_3790_1525)" fill-opacity="0.5" stroke="white" stroke-width="2.38636"/>
<path d="M186.787 26.3799L186.784 26.3835C185.058 28.4226 182.802 30.1368 180.363 31.3404C178.131 32.3639 175.901 32.885 173.546 33.0099C173.522 30.6886 173.884 28.481 174.634 26.2662C175.495 23.7213 176.878 21.4938 178.644 19.4051C182.044 15.5835 186.64 13.0902 191.745 12.3345C191.928 17.5361 190.187 22.3931 186.787 26.3799Z" fill="url(#paint5_linear_3790_1525)" fill-opacity="0.5" stroke="white" stroke-width="2.38636"/>
<path d="M25.5091 142.049C24.9561 142.593 24.4032 142.956 23.8503 143.319C23.2974 143.682 22.5602 143.682 21.823 143.682C20.9015 143.682 19.98 143.501 19.0585 142.956C18.137 142.593 17.2155 141.686 16.1097 140.597C14.8195 140.415 13.5294 140.052 12.4236 139.508C11.3178 138.782 10.5806 137.874 9.84338 136.967C9.29048 135.877 8.92188 134.607 8.92188 133.336C8.92188 131.884 9.29048 130.614 10.0277 129.525C10.7649 128.436 11.6864 127.528 12.7922 126.802C14.0823 126.076 15.3724 125.895 16.8469 125.895C18.3213 125.895 19.6114 126.258 20.9015 126.802C22.1916 127.347 23.1131 128.254 23.666 129.525C24.4032 130.614 24.7718 131.884 24.7718 133.336C24.7718 134.425 24.5875 135.514 24.0346 136.422C23.666 137.33 22.9288 138.237 22.1916 138.963C21.4544 139.689 20.3486 140.052 19.2428 140.415C19.6114 140.778 19.98 141.141 20.3486 141.323C20.7172 141.686 21.2701 141.686 21.6387 141.686C22.5602 141.686 23.4817 141.323 24.2189 140.597L25.5091 142.049ZM11.6864 133.518C11.6864 134.425 11.8707 135.333 12.4236 136.059C12.7922 136.785 13.5294 137.511 14.2666 137.874C15.0038 138.237 15.9254 138.6 16.8469 138.6C17.7684 138.6 18.6899 138.419 19.4271 137.874C20.1643 137.511 20.9015 136.785 21.2701 136.059C21.6387 135.333 22.0073 134.425 22.0073 133.518C22.0073 132.61 21.823 131.703 21.2701 130.977C20.9015 130.251 20.1643 129.525 19.4271 129.162C18.6899 128.799 17.7684 128.436 16.8469 128.436C15.9254 128.436 15.0038 128.617 14.2666 129.162C13.5294 129.525 12.7922 130.251 12.4236 130.977C11.8707 131.521 11.6864 132.429 11.6864 133.518Z" fill="white"/>
<path d="M43.0168 140.778C40.9896 140.778 39.3309 140.234 38.2251 139.145C37.1193 138.056 36.5664 136.422 36.5664 134.244V126.076H39.3309V134.063C39.3309 136.967 40.621 138.237 43.0168 138.237C45.4127 138.237 46.7028 136.785 46.7028 134.063V126.076H49.4672V134.426C49.4672 136.604 48.9144 138.056 47.8086 139.326C46.7028 140.234 45.0441 140.778 43.0168 140.778Z" fill="white"/>
<path d="M71.7673 137.33H64.3952L62.9208 140.597H60.1562L66.7911 126.076H69.5556L76.1905 140.597H73.426L71.7673 137.33ZM70.8457 135.152L68.0812 128.98L65.3167 135.333H70.8457V135.152Z" fill="white"/>
<path d="M87.0664 126.258H89.8309V138.419H97.5716V140.597H87.2507V126.258H87.0664Z" fill="white"/>
<path d="M108.812 126.258H111.577V140.778H108.812V126.258Z" fill="white"/>
<path d="M127.792 128.436H123V126.258H135.348V128.436H130.556V140.597H127.792V128.436Z" fill="white"/>
<path d="M152.677 135.515V140.597H149.913V135.515L144.199 126.076H147.148L151.387 133.155L155.81 126.076H158.575L152.677 135.515Z" fill="white"/>
<path d="M197.829 140.597V130.977L193.037 138.963H191.747L186.955 131.158V140.597H184.375V126.076H186.587L192.484 135.696L198.198 126.076H200.409V140.597H197.829Z" fill="white"/>
<path d="M223.08 137.33H215.708L214.233 140.597H211.469L218.104 126.076H220.868L227.503 140.597H224.738L223.08 137.33ZM222.158 135.152L219.394 128.799L216.629 135.152H222.158Z" fill="white"/>
<path d="M240.776 128.436H235.984V126.258H248.332V128.436H243.541V140.597H240.776V128.436Z" fill="white"/>
<path d="M262.706 128.436H257.914V126.258H270.262V128.436H265.47V140.597H262.706V128.436Z" fill="white"/>
<path d="M292.562 138.419V140.597H281.504V126.076H292.193V128.254H284.268V132.066H291.272V134.426H284.268V138.419H292.562Z" fill="white"/>
<path d="M314.31 140.597L311.361 136.422C311.177 136.422 310.993 136.422 310.809 136.422H307.491V140.597H304.727V126.076H310.809C312.099 126.076 313.204 126.258 314.126 126.621C315.047 126.984 315.785 127.71 316.338 128.436C316.89 129.162 317.075 130.069 317.075 131.158C317.075 132.247 316.89 133.155 316.338 133.881C315.785 134.607 315.047 135.333 314.126 135.696L317.443 140.415H314.31V140.597ZM314.31 131.34C314.31 130.432 313.942 129.706 313.389 129.162C312.836 128.617 311.914 128.436 310.624 128.436H307.491V134.244H310.624C311.73 134.244 312.652 134.063 313.389 133.518C313.942 132.973 314.31 132.247 314.31 131.34Z" fill="white"/>
<path d="M333.843 140.779C332.737 140.779 331.631 140.597 330.525 140.234C329.42 139.871 328.683 139.508 327.945 138.964L328.867 136.967C329.42 137.512 330.157 137.875 331.078 138.056C332 138.419 332.921 138.419 333.659 138.419C334.764 138.419 335.502 138.238 336.054 137.875C336.607 137.512 336.792 137.149 336.792 136.604C336.792 136.241 336.607 135.878 336.423 135.515C336.054 135.152 335.686 134.971 335.317 134.789C334.949 134.608 334.211 134.426 333.474 134.245C332.368 134.063 331.447 133.7 330.71 133.519C329.973 133.337 329.42 132.793 328.867 132.248C328.314 131.704 328.13 130.978 328.13 130.07C328.13 129.344 328.314 128.618 328.867 127.892C329.235 127.166 329.973 126.621 330.894 126.258C331.816 125.895 332.921 125.714 334.211 125.714C335.133 125.714 336.054 125.895 336.792 126.077C337.713 126.258 338.45 126.621 339.003 126.984L338.082 128.981C337.529 128.618 336.792 128.255 336.054 128.073C335.317 127.892 334.764 127.71 334.027 127.71C332.921 127.71 332.184 127.892 331.631 128.255C331.078 128.618 330.894 129.163 330.894 129.707C330.894 130.07 331.078 130.433 331.263 130.796C331.631 130.978 332 131.341 332.368 131.341C332.737 131.341 333.474 131.704 334.211 131.885C335.317 132.067 336.239 132.43 336.976 132.611C337.713 132.793 338.266 133.337 338.819 133.882C339.372 134.426 339.556 135.152 339.556 136.06C339.556 136.786 339.372 137.512 338.819 138.238C338.45 138.964 337.713 139.327 336.792 139.871C335.87 140.416 335.133 140.779 333.843 140.779Z" fill="white"/>
<defs>
<linearGradient id="paint0_linear_3790_1525" x1="7.98553" y1="73.3368" x2="30.0603" y2="73.3573" gradientUnits="userSpaceOnUse">
<stop stop-color="white" stop-opacity="0.6"/>
<stop offset="1" stop-color="white" stop-opacity="0"/>
</linearGradient>
<linearGradient id="paint1_linear_3790_1525" x1="40.5654" y1="67.6419" x2="125.444" y2="67.9058" gradientUnits="userSpaceOnUse">
<stop stop-color="white" stop-opacity="0.6"/>
<stop offset="1" stop-color="white" stop-opacity="0"/>
</linearGradient>
<linearGradient id="paint2_linear_3790_1525" x1="256.56" y1="73.6132" x2="349.722" y2="73.9763" gradientUnits="userSpaceOnUse">
<stop stop-color="white" stop-opacity="0.6"/>
<stop offset="1" stop-color="white" stop-opacity="0"/>
</linearGradient>
<linearGradient id="paint3_linear_3790_1525" x1="222.88" y1="73.3292" x2="244.768" y2="73.3494" gradientUnits="userSpaceOnUse">
<stop stop-color="white" stop-opacity="0.6"/>
<stop offset="1" stop-color="white" stop-opacity="0"/>
</linearGradient>
<linearGradient id="paint4_linear_3790_1525" x1="130.987" y1="75.0495" x2="215.801" y2="75.3639" gradientUnits="userSpaceOnUse">
<stop stop-color="white" stop-opacity="0.6"/>
<stop offset="1" stop-color="white" stop-opacity="0"/>
</linearGradient>
<linearGradient id="paint5_linear_3790_1525" x1="172.338" y1="23.117" x2="193.248" y2="23.1797" gradientUnits="userSpaceOnUse">
<stop stop-color="white" stop-opacity="0.6"/>
<stop offset="1" stop-color="white" stop-opacity="0"/>
</linearGradient>
</defs>
</svg>
