<svg width="1920" height="1123" viewBox="0 0 1920 1123" fill="none" xmlns="http://www.w3.org/2000/svg">
<mask id="mask0_4808_2994" style="mask-type:luminance" maskUnits="userSpaceOnUse" x="1767" y="488" width="198" height="635">
<path d="M1864 1122.99C1852.16 1099.51 1837.41 1074.12 1819.27 1046.7L1819.26 1046.68C1705.25 863.63 1801.94 725.055 1903.58 579.394C1924.44 549.497 1945.51 519.3 1965 488.367V491.621C1945.82 521.931 1925.17 551.527 1904.72 580.835C1803.53 725.85 1707.27 863.804 1820.38 1045.42C1838.83 1073.32 1853.8 1099.13 1865.77 1122.99H1864V1122.99Z" fill="white"/>
</mask>
<g mask="url(#mask0_4808_2994)">
<path d="M1965 488.363H1705.25V1122.99H1965V488.363Z" fill="url(#paint0_linear_4808_2994)"/>
</g>
<mask id="mask1_4808_2994" style="mask-type:luminance" maskUnits="userSpaceOnUse" x="1761" y="0" width="204" height="1123">
<path d="M1964.99 24.6867C1960.17 16.5338 1955.06 8.31346 1949.59 0.0117188H1951.58C1956.29 7.20731 1960.76 14.3439 1964.99 21.43V24.6867ZM1864.82 1123C1852.38 1100.38 1837.05 1076.07 1818.37 1049.95L1818.35 1049.92C1699.05 872.885 1791.04 728.616 1887.74 576.967C1914.62 534.827 1941.85 492.111 1964.99 447.983V451.621C1942.09 494.966 1915.33 536.93 1888.93 578.343C1792.65 729.321 1701.07 872.952 1819.45 1048.63C1838.48 1075.24 1854.04 1099.99 1866.64 1122.99H1864.82V1123Z" fill="white"/>
</mask>
<g mask="url(#mask1_4808_2994)">
<path d="M1965 0.0117188H1699.05V1123H1965V0.0117188Z" fill="url(#paint1_linear_4808_2994)"/>
</g>
<mask id="mask2_4808_2994" style="mask-type:luminance" maskUnits="userSpaceOnUse" x="1756" y="0" width="209" height="1123">
<path d="M1965 77.3435C1953.52 52.1519 1938.87 26.3876 1920.67 0H1922.69C1939.86 25.0091 1953.86 49.4679 1965 73.4102V77.3435ZM1866.41 1122.99C1853.3 1101 1837.25 1077.48 1817.81 1052.33L1817.79 1052.3C1693.41 881.573 1780.54 731.861 1872.13 574.491C1905.98 516.328 1940.44 457.112 1965 395.451V399.854C1940.48 460.453 1906.62 518.638 1873.35 575.807C1782.17 732.473 1695.43 881.517 1818.82 1050.92C1838.67 1076.59 1854.99 1100.58 1868.27 1122.98H1866.41V1122.99Z" fill="white"/>
</mask>
<g mask="url(#mask2_4808_2994)">
<path d="M1965 0.00390625H1693.41V1122.99H1965V0.00390625Z" fill="url(#paint2_linear_4808_2994)"/>
</g>
<mask id="mask3_4808_2994" style="mask-type:luminance" maskUnits="userSpaceOnUse" x="1750" y="0" width="215" height="1123">
<path d="M1964.99 156.403C1953.91 105.975 1930.88 53.9548 1891.81 0.0117188H1893.87C1930.87 51.3803 1953.42 101.034 1964.99 149.244V156.403H1964.99ZM1868.83 1123C1854.96 1101.39 1838.02 1078.36 1817.53 1053.84L1817.51 1053.82C1688.26 889.702 1770.38 734.807 1856.7 571.987C1892.7 504.093 1929.43 434.81 1951.78 362.978C1957.05 346.043 1961.52 328.962 1964.99 311.719V319.361C1961.74 334.31 1957.77 349.142 1953.19 363.865C1930.77 435.899 1894 505.261 1857.96 573.233C1772.01 735.332 1690.26 889.542 1818.51 1052.39C1839.44 1077.45 1856.69 1100.96 1870.76 1122.99H1868.83V1123Z" fill="white"/>
</mask>
<g mask="url(#mask3_4808_2994)">
<path d="M1964.99 0.0117188H1688.25V1123H1964.99V0.0117188Z" fill="url(#paint3_linear_4808_2994)"/>
</g>
<mask id="mask4_4808_2994" style="mask-type:luminance" maskUnits="userSpaceOnUse" x="1744" y="0" width="205" height="1123">
<path d="M1872.27 1123C1857.49 1101.5 1839.42 1078.67 1817.53 1054.45L1817.51 1054.43C1683.61 897.203 1760.58 737.398 1841.48 569.415C1875.22 499.368 1909.65 427.89 1929.67 354.656C1960.66 241.31 1957.11 123.586 1863 0.0117188H1865.14C1958.8 123.771 1962.18 241.787 1931.1 355.471C1911.02 428.903 1876.56 500.466 1842.78 570.597C1762.23 737.836 1685.61 896.937 1818.47 1052.95C1840.86 1077.72 1859.27 1101.05 1874.26 1123H1872.27V1123Z" fill="white"/>
</mask>
<g mask="url(#mask4_4808_2994)">
<path d="M1962.18 0.0117188H1683.61V1123H1962.18V0.0117188Z" fill="url(#paint4_linear_4808_2994)"/>
</g>
<mask id="mask5_4808_2994" style="mask-type:luminance" maskUnits="userSpaceOnUse" x="1739" y="0" width="184" height="1123">
<path d="M1876.81 1123C1860.98 1101.33 1841.5 1078.39 1817.75 1054.14L1817.74 1054.13C1679.43 904.07 1751.11 739.627 1826.46 566.776C1857.88 494.694 1889.94 421.14 1907.59 346.644C1934.54 232.955 1927.88 116.882 1834.14 0.0117188H1836.33C1929.55 117.05 1936.06 233.384 1909.04 347.374C1891.34 422.089 1859.24 495.724 1827.78 567.885C1752.77 739.97 1681.41 903.683 1818.63 1052.58C1842.94 1077.39 1862.79 1100.86 1878.85 1122.99H1876.81V1123Z" fill="white"/>
</mask>
<g mask="url(#mask5_4808_2994)">
<path d="M1936.06 0.0117188H1679.44V1123H1936.06V0.0117188Z" fill="url(#paint5_linear_4808_2994)"/>
</g>
<mask id="mask6_4808_2994" style="mask-type:luminance" maskUnits="userSpaceOnUse" x="1733" y="0" width="165" height="1123">
<path d="M1882.61 1123C1865.55 1100.87 1844.34 1077.5 1818.19 1052.91L1818.17 1052.89C1675.71 910.264 1741.97 741.475 1811.63 564.053C1840.67 490.073 1870.31 414.582 1885.57 338.929C1908.56 224.981 1898.87 110.54 1805.28 0.0117188H1807.55C1900.56 110.705 1910.07 225.374 1887.03 339.583C1871.73 415.424 1842.06 491.013 1812.98 565.092C1743.63 741.722 1677.66 909.758 1819.01 1051.28C1845.77 1076.45 1867.4 1100.37 1884.7 1123H1882.61Z" fill="white"/>
</mask>
<g mask="url(#mask6_4808_2994)">
<path d="M1910.08 0.0117188H1675.71V1123H1910.08V0.0117188Z" fill="url(#paint6_linear_4808_2994)"/>
</g>
<mask id="mask7_4808_2994" style="mask-type:luminance" maskUnits="userSpaceOnUse" x="1728" y="0" width="164" height="1123">
<path d="M1889.81 1123C1871.36 1100.09 1848.02 1075.97 1818.83 1050.74L1818.81 1050.71C1672.42 915.766 1733.15 742.926 1797 561.242C1823.62 485.485 1850.78 408.184 1863.62 331.517C1882.74 217.367 1870.01 104.52 1776.29 0.0117188H1778.63C1871.69 104.683 1884.25 217.724 1865.1 332.09C1852.23 408.939 1825.03 486.347 1798.38 562.205C1734.82 743.081 1674.35 915.149 1819.59 1049.05C1849.47 1074.89 1873.25 1099.57 1891.95 1123H1889.81Z" fill="white"/>
</mask>
<g mask="url(#mask7_4808_2994)">
<path d="M1891.95 0.0117188H1672.42V1123H1891.95V0.0117188Z" fill="url(#paint7_linear_4808_2994)"/>
</g>
<mask id="mask8_4808_2994" style="mask-type:luminance" maskUnits="userSpaceOnUse" x="1722" y="0" width="179" height="1123">
<path d="M1898.49 1123C1878.5 1098.97 1852.64 1073.77 1819.59 1047.6L1819.57 1047.59C1669.52 920.553 1724.62 743.957 1782.54 558.325C1806.69 480.926 1831.33 401.946 1841.73 324.403C1857.05 210.074 1841.31 98.7707 1747.17 0.0117188H1749.61C1843.01 98.9363 1858.57 210.394 1843.22 324.891C1832.8 402.619 1808.12 481.709 1783.94 559.213C1726.28 744.021 1671.42 919.84 1820.32 1045.89C1854.12 1072.66 1880.44 1098.43 1900.67 1123H1898.49Z" fill="white"/>
</mask>
<g mask="url(#mask8_4808_2994)">
<path d="M1900.67 0.0117188H1669.52V1123H1900.67V0.0117188Z" fill="url(#paint8_linear_4808_2994)"/>
</g>
<mask id="mask9_4808_2994" style="mask-type:luminance" maskUnits="userSpaceOnUse" x="1717" y="0" width="194" height="1123">
<path d="M1908.74 1123C1887.14 1097.47 1858.34 1070.84 1820.49 1043.5L1820.47 1043.49C1667.01 924.59 1716.38 744.549 1768.27 555.296C1789.91 476.383 1811.99 395.862 1819.92 317.583C1831.52 203.066 1812.78 93.2371 1717.87 0.0117188H1720.39C1814.47 93.414 1833.04 203.355 1821.43 317.991C1813.48 396.463 1791.37 477.091 1769.7 556.108C1718.03 744.524 1668.88 923.768 1821.15 1041.75C1859.84 1069.7 1889.11 1096.92 1910.93 1123H1908.74Z" fill="white"/>
</mask>
<g mask="url(#mask9_4808_2994)">
<path d="M1910.93 0.0117188H1667.01V1123H1910.93V0.0117188Z" fill="url(#paint9_linear_4808_2994)"/>
</g>
<mask id="mask10_4808_2994" style="mask-type:luminance" maskUnits="userSpaceOnUse" x="1688" y="0" width="235" height="1123">
<path d="M1920.52 1122.99C1897.37 1095.54 1865.24 1067.12 1821.47 1038.42L1821.44 1038.41C1664.85 927.852 1708.41 744.68 1754.19 552.134C1773.28 471.849 1792.76 389.923 1798.21 311.044C1806.14 196.28 1784.3 87.8491 1688.2 0H1690.85C1786.01 88.0456 1807.65 196.544 1799.72 311.364C1794.25 390.448 1774.75 472.48 1755.63 552.87C1710.05 744.562 1666.69 926.926 1822.07 1036.63C1866.76 1065.93 1899.38 1094.97 1922.72 1122.99H1920.52Z" fill="white"/>
</mask>
<g mask="url(#mask10_4808_2994)">
<path d="M1922.72 0.00390625H1664.85V1122.99H1922.72V0.00390625Z" fill="url(#paint10_linear_4808_2994)"/>
</g>
<mask id="mask11_4808_2994" style="mask-type:luminance" maskUnits="userSpaceOnUse" x="1658" y="0" width="278" height="1123">
<path d="M1933.73 1122.99C1930.26 1118.76 1926.56 1114.51 1922.62 1110.24C1898.8 1084.46 1866.27 1058.24 1822.51 1032.37L1822.49 1032.36C1663.03 930.331 1700.69 744.352 1740.28 548.85C1756.79 467.326 1773.63 384.137 1776.6 304.798C1780.9 189.693 1755.9 82.5542 1658.13 0H1660.94C1757.64 82.7816 1782.41 189.943 1778.11 305.036C1775.14 384.598 1758.28 467.882 1741.75 549.501C1702.34 744.13 1664.85 929.284 1823.04 1030.52C1866.94 1056.47 1899.6 1082.8 1923.52 1108.69C1927.94 1113.47 1932.05 1118.24 1935.89 1122.98H1933.73V1122.99Z" fill="white"/>
</mask>
<g mask="url(#mask11_4808_2994)">
<path d="M1935.89 0.00390625H1658.13V1122.99H1935.89V0.00390625Z" fill="url(#paint11_linear_4808_2994)"/>
</g>
<mask id="mask12_4808_2994" style="mask-type:luminance" maskUnits="userSpaceOnUse" x="1627" y="0" width="324" height="1123">
<path d="M1948.05 1123C1941.57 1114.61 1934.17 1106.19 1925.74 1097.77C1901.21 1073.28 1867.98 1048.82 1823.57 1025.35L1823.55 1025.33C1661.51 932.019 1693.21 743.547 1726.54 545.431C1740.43 462.812 1754.61 378.512 1755.09 298.849C1755.77 183.245 1727.51 77.271 1627.49 0.0117188H1630.49C1729.29 77.5433 1757.28 183.487 1756.6 299.001C1756.13 378.896 1741.93 463.292 1728.02 546.001C1694.84 743.235 1663.28 930.868 1824.04 1023.46C1868.58 1047 1901.94 1071.56 1926.58 1096.18C1935.54 1105.12 1943.35 1114.08 1950.13 1123H1948.05Z" fill="white"/>
</mask>
<g mask="url(#mask12_4808_2994)">
<path d="M1950.14 0.0117188H1627.5V1123H1950.14V0.0117188Z" fill="url(#paint12_linear_4808_2994)"/>
</g>
<mask id="mask13_4808_2994" style="mask-type:luminance" maskUnits="userSpaceOnUse" x="1596" y="0" width="369" height="1123">
<path d="M1963 1122.99C1955.2 1111.82 1945.73 1100.62 1934.33 1089.52C1908.6 1064.49 1873.05 1039.96 1824.63 1017.31L1824.61 1017.3C1660.26 932.867 1685.95 742.233 1712.95 541.843C1724.21 458.283 1735.7 373.02 1733.68 293.158C1730.74 176.833 1699.05 71.8525 1596.05 0.0117188H1599.28C1700.88 72.195 1732.26 177.083 1735.2 293.228C1737.23 373.304 1725.72 458.674 1714.45 542.334C1687.57 741.84 1661.99 931.631 1825.06 1015.41C1873.63 1038.14 1909.33 1062.76 1935.16 1087.91C1947.11 1099.53 1956.95 1111.27 1964.99 1123H1963V1122.99Z" fill="white"/>
</mask>
<g mask="url(#mask13_4808_2994)">
<path d="M1964.99 0.0078125H1596.06V1122.99H1964.99V0.0078125Z" fill="url(#paint13_linear_4808_2994)"/>
</g>
<mask id="mask14_4808_2994" style="mask-type:luminance" maskUnits="userSpaceOnUse" x="1563" y="0" width="402" height="1105">
<path d="M1964.99 1104.08C1955.89 1092.39 1944.81 1080.8 1931.39 1069.47C1905.56 1047.65 1871.1 1026.85 1825.65 1008.3L1825.63 1008.29C1659.27 932.87 1678.9 740.411 1699.53 538.1C1708.14 453.738 1716.92 367.658 1712.41 287.743C1705.78 170.35 1670.39 66.1617 1563.44 0.0117188H1567.03C1672.32 66.6025 1707.31 170.634 1713.92 287.726C1718.45 367.854 1709.66 454.041 1701.04 538.507C1680.5 739.925 1660.95 931.539 1826.02 1006.37C1871.61 1024.99 1906.19 1045.87 1932.13 1067.78C1945.15 1078.77 1956.01 1090.03 1964.99 1101.39V1104.08Z" fill="white"/>
</mask>
<g mask="url(#mask14_4808_2994)">
<path d="M1964.99 0.0117188H1563.44V1104.08H1964.99V0.0117188Z" fill="url(#paint14_linear_4808_2994)"/>
</g>
<mask id="mask15_4808_2994" style="mask-type:luminance" maskUnits="userSpaceOnUse" x="1529" y="0" width="436" height="1083">
<path d="M1965 1082.51C1957.73 1074.32 1949.38 1066.26 1939.81 1058.4C1912.76 1036.18 1876.01 1015.57 1826.62 998.284L1826.6 998.276C1658.51 932.013 1672.05 738.058 1686.28 534.181C1692.21 449.156 1698.27 362.399 1691.28 282.591C1680.86 163.629 1641.36 59.9431 1529.1 0.0117188H1533.14C1643.39 60.5355 1682.41 163.972 1692.79 282.487C1699.8 362.54 1693.74 449.387 1687.8 534.501C1673.63 737.48 1660.15 930.579 1826.92 996.333C1876.46 1013.68 1913.36 1034.37 1940.54 1056.7C1949.78 1064.29 1957.89 1072.06 1965 1079.96V1082.51H1965Z" fill="white"/>
</mask>
<g mask="url(#mask15_4808_2994)">
<path d="M1965 0.0117188H1529.1V1082.51H1965V0.0117188Z" fill="url(#paint15_linear_4808_2994)"/>
</g>
<mask id="mask16_4808_2994" style="mask-type:luminance" maskUnits="userSpaceOnUse" x="1491" y="0" width="474" height="1061">
<path d="M1964.99 1060.91C1958.22 1054.17 1950.63 1047.58 1942.12 1041.19C1914.48 1020.44 1877.22 1001.84 1827.48 987.284L1827.46 987.273C1657.94 930.281 1665.36 735.169 1673.16 530.077C1676.42 444.549 1679.74 357.276 1670.27 277.686C1655.85 156.363 1611.62 52.7616 1491.99 0.0117188H1496.81C1613.87 53.6095 1657.43 156.858 1671.77 277.509C1681.26 357.326 1677.94 444.692 1674.68 530.315C1666.91 734.495 1659.52 928.737 1827.7 985.302C1877.61 999.912 1915.02 1018.59 1942.79 1039.44C1951.01 1045.61 1958.38 1051.97 1964.99 1058.47V1060.91Z" fill="white"/>
</mask>
<g mask="url(#mask16_4808_2994)">
<path d="M1965 0.0117188H1492V1060.91H1965V0.0117188Z" fill="url(#paint16_linear_4808_2994)"/>
</g>
<mask id="mask17_4808_2994" style="mask-type:luminance" maskUnits="userSpaceOnUse" x="1449" y="0" width="516" height="1040">
<path d="M1964.99 1039.11C1957.04 1032.07 1948.06 1025.28 1937.93 1018.82C1910.48 1001.31 1874.66 986.26 1828.22 975.296L1828.2 975.288C1657.54 927.662 1658.83 731.733 1660.19 525.784C1660.75 439.903 1661.33 352.27 1649.42 273.04C1630.61 147.958 1580.58 43.6878 1449.92 0.0117188H1455.94C1583.09 45.0101 1632.25 148.707 1650.91 272.779C1662.85 352.225 1662.28 439.962 1661.71 525.944C1660.36 730.977 1659.07 926.031 1828.38 973.303C1874.97 984.3 1910.93 999.418 1938.5 1017C1948.37 1023.3 1957.17 1029.91 1964.99 1036.77V1039.11Z" fill="white"/>
</mask>
<g mask="url(#mask17_4808_2994)">
<path d="M1965 0.0078125H1449.93V1039.11H1965V0.0078125Z" fill="url(#paint17_linear_4808_2994)"/>
</g>
<mask id="mask18_4808_2994" style="mask-type:luminance" maskUnits="userSpaceOnUse" x="980" y="0" width="986" height="1017">
<path d="M1195.47 0.00280595C1162.18 4.72781 1126.43 11.5275 1087.97 20.6294L1087.92 20.635C1087.54 20.6912 1009.17 33.1087 980.109 0H983.759C1013.06 30.1917 1086.27 18.8354 1087.6 18.6277C1120.95 10.7358 1152.24 4.59024 1181.69 0H1195.47V0.00280595ZM1965 1016.96C1957.38 1010.95 1948.9 1005.2 1939.46 999.791C1911.57 983.786 1875.41 970.706 1828.81 962.317L1828.78 962.314C1657.28 924.138 1652.45 727.737 1647.36 521.286C1645.24 435.197 1643.08 347.356 1628.73 268.626C1604.62 136.332 1545.98 29.6723 1395.01 0H1404.86C1549.51 32.3872 1606.46 137.985 1630.21 268.275C1644.59 347.21 1646.76 435.161 1648.88 521.356C1653.94 726.889 1658.76 922.42 1828.92 960.31C1875.66 968.726 1911.96 981.86 1939.98 997.935C1949.19 1003.22 1957.5 1008.83 1965 1014.69V1016.96Z" fill="white"/>
</mask>
<g mask="url(#mask18_4808_2994)">
<path d="M1965 0.00390625H980.107V1016.97H1965V0.00390625Z" fill="url(#paint18_linear_4808_2994)"/>
</g>
<mask id="mask19_4808_2994" style="mask-type:luminance" maskUnits="userSpaceOnUse" x="942" y="0" width="1023" height="995">
<path d="M1964.99 994.39C1959.42 990.47 1953.42 986.708 1946.97 983.134C1917.84 966.991 1879.46 954.619 1829.19 948.372H1829.17C1657.12 919.713 1646.16 723.178 1634.64 516.589C1629.83 430.433 1624.93 342.522 1608.18 264.448C1565.8 66.9249 1447.35 -68.0928 1061.71 46.2L1061.67 46.214C1061.19 46.3123 942.345 72.0514 942.008 0H944.408C945.913 69.1905 1060.88 44.3022 1061.34 44.2067C1448.13 -70.4118 1567.02 65.4116 1609.64 264.022C1626.44 342.331 1631.35 430.332 1636.16 516.575C1647.63 722.254 1658.54 917.922 1829.25 946.359C1879.69 952.628 1918.22 965.054 1947.47 981.265C1953.72 984.732 1959.56 988.373 1964.99 992.163V994.39H1964.99Z" fill="white"/>
</mask>
<g mask="url(#mask19_4808_2994)">
<path d="M1964.99 -70.4102H942.01V994.391H1964.99V-70.4102Z" fill="url(#paint19_linear_4808_2994)"/>
</g>
<mask id="mask20_4808_2994" style="mask-type:luminance" maskUnits="userSpaceOnUse" x="915" y="0" width="1050" height="972">
<path d="M1964.99 971.287C1957.79 966.767 1949.92 962.542 1941.33 958.662C1912.7 945.739 1876.06 936.671 1829.37 933.47H1829.35C1657.06 914.38 1640 718.055 1622.06 511.685C1614.58 425.632 1606.95 337.828 1587.81 260.51C1539.42 64.9545 1417.19 -63.7126 1036.59 72.3887L1036.55 72.4028C1036.02 72.5432 886.823 113.695 920.956 0.0117188H923.013C890.346 110.287 1034.66 70.8194 1036.12 70.4207C1417.89 -66.0962 1540.59 63.3543 1589.25 259.996C1608.43 337.505 1616.07 425.425 1623.56 511.586C1641.42 717.044 1658.41 912.501 1829.36 931.446C1876.19 934.658 1912.97 943.763 1941.72 956.745C1950.15 960.549 1957.89 964.687 1964.99 969.106V971.287Z" fill="white"/>
</mask>
<g mask="url(#mask20_4808_2994)">
<path d="M1964.99 -66.0977H886.824V971.283H1964.99V-66.0977Z" fill="url(#paint20_linear_4808_2994)"/>
</g>
<mask id="mask21_4808_2994" style="mask-type:luminance" maskUnits="userSpaceOnUse" x="890" y="0" width="1075" height="948">
<path d="M1964.99 947.575C1957.84 943.58 1950.07 939.899 1941.62 936.587C1912.69 925.233 1875.9 918.198 1829.3 917.602H1829.28C1657.05 908.113 1633.91 712.339 1609.59 506.55C1599.45 420.745 1589.1 333.187 1567.62 256.779C1513.29 63.5255 1387.51 -58.5637 1012.61 99.1132L1012.57 99.1301C1012 99.3153 838.672 157.669 906.852 0.0117188H908.8C842.18 154.146 1010.98 97.5298 1012.1 97.162C1388.14 -60.9866 1514.41 61.8663 1569.04 256.189C1590.57 332.775 1600.93 420.453 1611.08 506.376C1635.3 711.249 1658.33 906.151 1829.22 915.581C1875.98 916.176 1912.91 923.243 1941.96 934.641C1950.27 937.901 1957.93 941.514 1965 945.433V947.575H1964.99Z" fill="white"/>
</mask>
<g mask="url(#mask21_4808_2994)">
<path d="M1964.99 -60.9922H838.672V947.572H1964.99V-60.9922Z" fill="url(#paint21_linear_4808_2994)"/>
</g>
<mask id="mask22_4808_2994" style="mask-type:luminance" maskUnits="userSpaceOnUse" x="867" y="0" width="1098" height="924">
<path d="M1965 923.198C1959.68 920.556 1954.03 918.105 1948.04 915.862C1917.89 904.584 1878.98 898.627 1828.96 900.794L1828.94 900.797C1657.06 900.923 1627.89 706.041 1597.23 501.188C1584.44 415.767 1571.39 328.603 1547.61 253.253C1487.44 62.6439 1358.32 -52.6624 989.774 126.315L989.729 126.337C989.14 126.565 796.51 203.4 895.905 0.0117188H897.814C799.999 199.725 988.32 124.737 989.204 124.386C1358.87 -55.1189 1488.51 60.9202 1549 252.579C1572.84 328.131 1585.91 415.402 1598.71 500.929C1629.24 704.874 1658.28 898.893 1828.82 898.767C1879.01 896.597 1918.07 902.58 1948.35 913.911C1954.22 916.106 1959.77 918.507 1965 921.084V923.198H1965Z" fill="white"/>
</mask>
<g mask="url(#mask22_4808_2994)">
<path d="M1965 -55.1211H796.508V923.196H1965V-55.1211Z" fill="url(#paint22_linear_4808_2994)"/>
</g>
<mask id="mask23_4808_2994" style="mask-type:luminance" maskUnits="userSpaceOnUse" x="488" y="0" width="635" height="198">
<path d="M1122.86 101.262C1099.38 113.107 1074 127.857 1046.58 145.994L1046.55 146.008C863.53 260.034 724.971 163.333 579.327 61.6792C549.434 40.8168 519.24 19.7437 488.311 0.254166L491.564 0.254166C521.87 19.4321 551.463 40.0839 580.767 60.5364C725.765 161.735 863.704 258.009 1045.3 144.89C1073.2 126.434 1099.01 111.467 1122.86 99.4932L1122.86 101.262L1122.86 101.262Z" fill="white"/>
</mask>
<g mask="url(#mask23_4808_2994)">
<path d="M488.309 0.252655L488.309 260.035L1122.86 260.035L1122.86 0.252627L488.309 0.252655Z" fill="url(#paint23_linear_4808_2994)"/>
</g>
<mask id="mask24_4808_2994" style="mask-type:luminance" maskUnits="userSpaceOnUse" x="0" y="0" width="1123" height="204">
<path d="M24.6819 0.258361C16.5299 5.076 8.31053 10.1941 0.00975742 15.6575L0.00975733 13.6669C7.20451 8.95589 14.3403 4.48643 21.4256 0.258361L24.6819 0.258361ZM1122.86 100.438C1100.25 112.883 1075.94 128.218 1049.82 146.896L1049.8 146.913C872.781 266.231 728.529 174.227 576.898 77.5147C534.762 50.6386 492.051 23.4033 447.928 0.258342L451.567 0.258342C494.906 23.1618 536.865 49.9227 578.273 76.3327C729.234 172.616 872.848 264.213 1048.5 145.818C1075.11 126.789 1099.86 111.219 1122.86 98.6243L1122.86 100.438L1122.86 100.438Z" fill="white"/>
</mask>
<g mask="url(#mask24_4808_2994)">
<path d="M0.00780088 0.253601L0.0078125 266.227L1122.86 266.227L1122.86 0.253552L0.00780088 0.253601Z" fill="url(#paint24_linear_4808_2994)"/>
</g>
<mask id="mask25_4808_2994" style="mask-type:luminance" maskUnits="userSpaceOnUse" x="0" y="0" width="1123" height="210">
<path d="M77.3364 0.249173C52.1477 11.7318 26.3864 26.3784 0.00194593 44.5877L0.00194584 42.5608C25.0081 25.3902 49.4641 11.3865 73.4036 0.249173L77.3364 0.249173ZM1122.86 98.8536C1100.88 111.965 1077.35 128.012 1052.21 147.457L1052.18 147.474C881.472 271.874 731.778 184.732 574.425 93.1293C516.269 59.2738 457.061 24.8091 395.407 0.249159L399.809 0.249159C460.401 24.7698 518.58 58.6336 575.742 91.9107C732.39 183.104 881.416 269.855 1050.79 146.443C1076.47 126.597 1100.46 110.275 1122.85 96.9867L1122.85 98.8536L1122.86 98.8536Z" fill="white"/>
</mask>
<g mask="url(#mask25_4808_2994)">
<path d="M0.0058475 0.25061L0.00585938 271.875L1122.86 271.875L1122.86 0.250561L0.0058475 0.25061Z" fill="url(#paint25_linear_4808_2994)"/>
</g>
<mask id="mask26_4808_2994" style="mask-type:luminance" maskUnits="userSpaceOnUse" x="0" y="0" width="1123" height="215">
<path d="M156.383 0.256921C105.96 11.3437 53.9465 34.3706 0.00975944 73.448L0.00975935 71.3818C51.3724 34.3791 101.02 11.8293 149.224 0.259668L156.383 0.259667L156.383 0.256921ZM1122.86 96.4246C1101.26 110.305 1078.23 127.248 1053.72 147.737L1053.69 147.757C889.596 277.025 734.719 194.894 571.918 108.558C504.032 72.5581 434.757 35.8221 362.933 13.4661C346.001 8.19643 328.922 3.7269 311.68 0.25403L319.321 0.25403C334.269 3.50792 349.1 7.48053 363.82 12.0623C435.847 34.4801 505.2 71.2583 573.164 107.304C735.244 193.258 889.436 275.023 1052.27 146.754C1077.32 125.819 1100.83 108.572 1122.86 94.4985L1122.86 96.4246L1122.86 96.4246Z" fill="white"/>
</mask>
<g mask="url(#mask26_4808_2994)">
<path d="M0.0078004 0.256775L0.0078125 277.027L1122.86 277.027L1122.86 0.256726L0.0078004 0.256775Z" fill="url(#paint26_linear_4808_2994)"/>
</g>
<mask id="mask27_4808_2994" style="mask-type:luminance" maskUnits="userSpaceOnUse" x="0" y="16" width="1123" height="205">
<path d="M1122.86 92.9955C1101.37 107.774 1078.54 125.843 1054.33 147.741L1054.3 147.761C897.097 281.67 737.31 204.694 569.347 123.78C499.308 90.0392 427.838 55.6082 354.613 35.5824C241.28 4.58773 123.57 8.14207 0.00976046 102.263L0.00976036 100.121C123.755 6.45468 241.757 3.06891 355.427 34.1534C428.851 54.2326 500.406 88.7028 570.528 122.485C737.748 203.043 896.83 279.676 1052.82 146.801C1077.59 124.406 1100.92 105.994 1122.87 91.005L1122.87 92.9955L1122.86 92.9955Z" fill="white"/>
</mask>
<g mask="url(#mask27_4808_2994)">
<path d="M0.00780032 3.07373L0.0078125 281.672L1122.86 281.672L1122.86 3.07368L0.00780032 3.07373Z" fill="url(#paint27_linear_4808_2994)"/>
</g>
<mask id="mask28_4808_2994" style="mask-type:luminance" maskUnits="userSpaceOnUse" x="0" y="42" width="1123" height="184">
<path d="M1122.86 88.4497C1101.2 104.284 1078.26 123.762 1054.02 147.514L1054 147.531C903.963 285.853 739.539 214.166 566.708 138.81C494.634 107.386 421.089 75.3219 346.601 57.6628C232.925 30.7166 116.866 37.376 0.00976148 131.124L0.00976138 128.937C117.035 35.7055 233.355 29.1977 347.331 56.2141C422.038 73.9237 495.664 106.025 567.817 137.483C739.882 212.504 903.575 283.871 1052.45 146.635C1077.26 122.328 1100.72 102.473 1122.86 86.4087L1122.86 88.4497L1122.86 88.4497Z" fill="white"/>
</mask>
<g mask="url(#mask28_4808_2994)">
<path d="M0.00780128 29.1956L0.0078125 285.848L1122.86 285.848L1122.86 29.1956L0.00780128 29.1956Z" fill="url(#paint28_linear_4808_2994)"/>
</g>
<mask id="mask29_4808_2994" style="mask-type:luminance" maskUnits="userSpaceOnUse" x="0" y="67" width="1123" height="165">
<path d="M1122.86 82.6463C1100.74 99.7046 1077.37 120.924 1052.79 147.07L1052.76 147.089C910.155 289.572 741.386 223.301 563.985 153.639C490.013 124.593 414.532 94.9515 338.887 79.6872C224.953 56.6967 110.525 66.3797 0.0097625 159.987L0.0097624 157.71C110.69 64.6897 225.346 55.1779 339.541 78.2218C415.374 93.5254 490.954 123.203 565.024 152.289C741.633 221.639 909.65 287.615 1051.15 146.256C1076.32 119.489 1100.24 97.8572 1122.86 80.5519L1122.86 82.6463Z" fill="white"/>
</mask>
<g mask="url(#mask29_4808_2994)">
<path d="M0.00780226 55.176L0.0078125 289.57L1122.86 289.57L1122.86 55.1759L0.00780226 55.176Z" fill="url(#paint29_linear_4808_2994)"/>
</g>
<mask id="mask30_4808_2994" style="mask-type:luminance" maskUnits="userSpaceOnUse" x="0" y="73" width="1123" height="164">
<path d="M1122.86 75.4462C1099.96 93.8999 1075.85 117.238 1050.61 146.439L1050.59 146.459C915.657 292.864 742.838 232.121 561.175 168.27C485.427 141.647 408.134 114.482 331.476 101.64C217.34 82.5211 104.506 95.2474 0.00976353 188.978L0.00976343 186.642C104.669 93.5714 217.697 81.0023 332.049 100.158C408.889 113.03 486.288 140.232 562.138 166.892C742.992 230.459 915.04 290.929 1048.93 145.678C1074.76 115.787 1099.44 92.0104 1122.86 73.3013L1122.86 75.4462Z" fill="white"/>
</mask>
<g mask="url(#mask30_4808_2994)">
<path d="M0.0078029 73.3037L0.0078125 292.863L1122.86 292.863L1122.86 73.3036L0.0078029 73.3037Z" fill="url(#paint30_linear_4808_2994)"/>
</g>
<mask id="mask31_4808_2994" style="mask-type:luminance" maskUnits="userSpaceOnUse" x="0" y="64" width="1123" height="179">
<path d="M1122.86 66.7679C1098.84 86.7601 1073.64 112.625 1047.48 145.672L1047.46 145.695C920.444 295.763 743.868 240.655 558.258 182.731C480.868 158.578 401.897 133.931 324.363 123.538C210.047 108.212 98.7572 123.956 0.00976457 218.108L0.00976446 215.66C98.9228 122.249 210.367 106.693 324.851 122.042C402.57 132.463 481.651 157.144 559.145 181.327C743.932 238.999 919.731 293.86 1045.77 144.948C1072.53 111.14 1098.3 84.8201 1122.86 64.5865L1122.86 66.7679Z" fill="white"/>
</mask>
<g mask="url(#mask31_4808_2994)">
<path d="M0.0078024 64.5849L0.0078125 295.762L1122.86 295.762L1122.86 64.5848L0.0078024 64.5849Z" fill="url(#paint31_linear_4808_2994)"/>
</g>
<mask id="mask32_4808_2994" style="mask-type:luminance" maskUnits="userSpaceOnUse" x="0" y="54" width="1123" height="194">
<path d="M1122.86 56.5206C1097.34 78.1214 1070.72 106.926 1043.38 144.779L1043.37 144.802C924.48 298.273 744.46 248.898 555.229 196.999C476.326 175.359 395.814 153.275 317.544 145.344C203.04 133.743 93.2243 152.486 0.0097656 247.407L0.00976549 244.892C93.4011 150.802 203.33 132.227 317.951 143.842C396.414 151.79 477.033 173.902 556.041 195.575C744.435 247.247 923.658 296.403 1041.63 144.117C1069.57 105.427 1096.79 76.1448 1122.86 54.325L1122.86 56.5206Z" fill="white"/>
</mask>
<g mask="url(#mask32_4808_2994)">
<path d="M0.00780184 54.3263L0.0078125 298.277L1122.86 298.277L1122.86 54.3263L0.00780184 54.3263Z" fill="url(#paint32_linear_4808_2994)"/>
</g>
<mask id="mask33_4808_2994" style="mask-type:luminance" maskUnits="userSpaceOnUse" x="0" y="42" width="1123" height="236">
<path d="M1122.86 44.7343C1095.42 67.8877 1067 100.022 1038.31 143.799L1038.29 143.822C927.746 300.432 744.595 256.874 552.072 211.086C471.796 191.995 389.88 172.512 311.01 167.062C196.259 159.131 87.8408 180.971 0.00195312 277.082L0.00195301 274.435C88.0373 179.264 196.523 157.615 311.33 165.552C390.405 171.018 472.427 190.524 552.807 209.64C744.477 255.226 926.819 298.59 1036.51 143.193C1065.81 98.4978 1094.84 65.8803 1122.86 42.536L1122.86 44.7343Z" fill="white"/>
</mask>
<g mask="url(#mask33_4808_2994)">
<path d="M0.0058481 42.535L0.00585938 300.434L1122.86 300.434L1122.86 42.535L0.0058481 42.535Z" fill="url(#paint33_linear_4808_2994)"/>
</g>
<mask id="mask34_4808_2994" style="mask-type:luminance" maskUnits="userSpaceOnUse" x="0" y="29" width="1123" height="279">
<path d="M1122.86 31.5245C1118.63 34.9973 1114.37 38.6975 1110.11 42.6364C1084.34 66.4551 1058.12 98.9939 1032.25 142.757L1032.24 142.78C930.223 302.253 744.265 264.588 548.786 224.997C467.271 208.486 384.092 191.641 304.762 188.676C189.671 184.375 82.5445 209.373 0 307.152L-1.22705e-07 304.345C82.7719 207.633 189.921 182.862 305.001 187.16C384.553 190.131 467.827 206.998 549.437 223.529C744.043 262.943 929.175 300.44 1030.4 142.229C1056.34 98.3258 1082.67 65.6635 1108.56 41.7325C1113.34 37.3163 1118.11 33.2005 1122.85 29.3627L1122.85 31.5245L1122.86 31.5245Z" fill="white"/>
</mask>
<g mask="url(#mask34_4808_2994)">
<path d="M0.00584723 29.3627L0.00585938 307.152L1122.86 307.152L1122.86 29.3627L0.00584723 29.3627Z" fill="url(#paint34_linear_4808_2994)"/>
</g>
<mask id="mask35_4808_2994" style="mask-type:luminance" maskUnits="userSpaceOnUse" x="0" y="15" width="1123" height="323">
<path d="M1122.86 17.2032C1114.48 23.6773 1106.06 31.0805 1097.64 39.5142C1073.15 64.0433 1048.69 97.2783 1025.22 141.69L1025.21 141.712C931.908 303.772 743.458 272.067 545.365 238.739C462.756 224.839 378.465 210.659 298.812 210.187C183.222 209.502 77.26 237.765 0.00976562 337.793L0.00976549 334.8C77.5323 235.988 183.463 207.989 298.964 208.674C378.85 209.146 463.236 223.343 545.935 237.26C743.146 270.439 930.757 302.003 1023.34 141.224C1046.88 96.6832 1071.44 63.319 1096.05 38.6692C1104.99 29.7077 1113.95 21.8973 1122.86 15.1172L1122.86 17.2032Z" fill="white"/>
</mask>
<g mask="url(#mask35_4808_2994)">
<path d="M0.0077984 15.1105L0.0078125 337.789L1122.86 337.789L1122.86 15.1104L0.0077984 15.1105Z" fill="url(#paint35_linear_4808_2994)"/>
</g>
<mask id="mask36_4808_2994" style="mask-type:luminance" maskUnits="userSpaceOnUse" x="0" y="0" width="1123" height="370">
<path d="M1122.86 2.25193C1111.69 10.0511 1100.49 19.5208 1089.39 30.9248C1064.36 56.6526 1039.84 92.2123 1017.19 140.636L1017.19 140.658C932.758 305.023 742.146 279.331 541.779 252.326C458.23 241.065 372.977 229.574 293.124 231.596C176.812 234.538 71.8441 266.229 0.0117188 369.238L0.0117186 366.01C72.1866 264.404 177.062 233.013 293.194 230.074C373.26 228.047 458.62 239.555 542.271 250.827C741.753 277.714 931.523 303.29 1015.29 140.206C1038.02 91.6283 1062.64 55.9311 1087.78 30.091C1099.4 18.1452 1111.14 8.29924 1122.86 0.258587L1122.86 2.25193L1122.86 2.25193Z" fill="white"/>
</mask>
<g mask="url(#mask36_4808_2994)">
<path d="M0.00779637 0.25473L0.0078125 369.234L1122.86 369.234L1122.86 0.254681L0.00779637 0.25473Z" fill="url(#paint36_linear_4808_2994)"/>
</g>
<mask id="mask37_4808_2994" style="mask-type:luminance" maskUnits="userSpaceOnUse" x="0" y="0" width="1104" height="402">
<path d="M1103.95 0.258436C1092.26 9.35472 1080.67 20.4443 1069.34 33.8613C1047.53 59.6986 1026.73 94.1548 1008.18 139.611L1008.17 139.636C932.759 306.013 740.322 286.381 538.036 265.746C453.683 257.141 367.613 248.359 287.707 252.871C170.329 259.499 66.1521 294.893 0.00976562 401.855L0.00976547 398.262C66.5928 292.961 170.612 257.963 287.69 251.355C367.809 246.832 453.986 255.622 538.443 264.238C739.837 284.783 931.428 304.329 1006.25 139.24C1024.87 93.6495 1045.75 59.0697 1067.65 33.12C1078.64 20.0961 1089.9 9.24241 1101.26 0.258436L1103.95 0.258436Z" fill="white"/>
</mask>
<g mask="url(#mask37_4808_2994)">
<path d="M0.00779495 0.257385L0.0078125 401.852L1103.95 401.852L1103.95 0.257337L0.00779495 0.257385Z" fill="url(#paint37_linear_4808_2994)"/>
</g>
<mask id="mask38_4808_2994" style="mask-type:luminance" maskUnits="userSpaceOnUse" x="0" y="0" width="1083" height="437">
<path d="M1082.38 0.251448C1074.19 7.51723 1066.13 15.8695 1058.27 25.443C1036.06 52.4931 1015.45 89.2515 998.166 138.641L998.157 138.666C931.903 306.77 737.97 293.232 534.117 279.001C449.102 273.066 362.355 267.008 282.556 274.001C163.608 284.422 59.9342 323.924 0.00976562 436.195L0.00976545 432.158C60.5265 321.894 163.951 282.876 282.452 272.493C362.495 265.48 449.332 271.545 534.437 277.485C737.392 291.655 930.468 305.133 996.215 138.343C1013.56 88.794 1034.25 51.8895 1056.57 24.7131C1064.16 15.4736 1071.93 7.35994 1079.83 0.248549L1082.38 0.248549L1082.38 0.251448Z" fill="white"/>
</mask>
<g mask="url(#mask38_4808_2994)">
<path d="M0.00779345 0.251434L0.0078125 436.195L1082.38 436.195L1082.38 0.251387L0.00779345 0.251434Z" fill="url(#paint38_linear_4808_2994)"/>
</g>
<mask id="mask39_4808_2994" style="mask-type:luminance" maskUnits="userSpaceOnUse" x="0" y="0" width="1061" height="474">
<path d="M1060.78 0.256484C1054.04 7.02531 1047.45 14.6196 1041.06 23.1319C1020.32 50.7716 1001.73 88.041 987.167 137.781L987.156 137.806C930.171 307.345 735.081 299.922 530.013 292.12C444.495 288.866 357.232 285.545 277.652 295.009C156.343 309.431 52.7535 353.666 0.00976562 473.312L0.00976541 468.495C53.6012 351.423 156.837 307.856 277.475 293.513C357.283 284.023 444.639 287.347 530.251 290.607C734.408 298.375 928.627 305.764 985.185 137.562C999.794 87.6535 1018.47 50.2382 1039.31 22.4637C1045.48 14.2434 1051.84 6.86531 1058.35 0.256484L1060.78 0.256484Z" fill="white"/>
</mask>
<g mask="url(#mask39_4808_2994)">
<path d="M0.00779183 0.252625L0.0078125 473.309L1060.79 473.309L1060.79 0.252578L0.00779183 0.252625Z" fill="url(#paint39_linear_4808_2994)"/>
</g>
<mask id="mask40_4808_2994" style="mask-type:luminance" maskUnits="userSpaceOnUse" x="0" y="0" width="1039" height="516">
<path d="M1038.99 0.254776C1031.95 8.21123 1025.16 17.1924 1018.7 27.3218C1001.2 54.7734 986.144 90.6026 975.182 137.044L975.174 137.069C927.553 307.748 731.647 306.453 525.722 305.095C439.851 304.53 352.229 303.949 273.008 315.864C147.941 334.674 43.6827 384.718 0.0117188 515.387L0.0117185 509.367C45.0049 382.205 148.69 333.038 272.747 314.376C352.184 302.43 439.91 303.009 525.882 303.576C730.892 304.929 925.922 306.215 973.189 136.884C984.185 90.2938 999.301 54.3242 1016.88 26.7491C1023.18 16.8779 1029.79 8.07927 1036.65 0.254776L1038.99 0.254776Z" fill="white"/>
</mask>
<g mask="url(#mask40_4808_2994)">
<path d="M0.00778998 0.250916L0.0078125 515.383L1038.99 515.383L1038.99 0.25087L0.00778998 0.250916Z" fill="url(#paint40_linear_4808_2994)"/>
</g>
<mask id="mask41_4808_2994" style="mask-type:luminance" maskUnits="userSpaceOnUse" x="0" y="0" width="1017" height="986">
<path d="M0.00474933 769.866C4.7292 803.16 11.5281 838.914 20.629 877.382L20.6346 877.43C20.6907 877.814 33.1068 956.185 0.00195312 985.254L0.00195297 981.604C30.1901 952.302 18.8352 879.077 18.6275 877.747C10.7365 844.397 4.59165 813.104 0.00194431 783.645L0.00194371 769.866L0.00474933 769.866ZM1016.85 0.246965C1010.83 7.86928 1005.09 16.3535 999.676 25.7894C983.673 53.6846 970.594 89.8508 962.206 136.455L962.204 136.48C924.032 308.001 727.654 312.838 521.227 317.925C435.148 320.048 347.318 322.21 268.597 336.556C136.318 360.667 29.6708 419.321 0.00193499 570.307L0.00193456 560.453C32.3853 415.789 137.971 358.828 268.246 335.082C347.172 320.696 435.112 318.529 521.297 316.407C726.806 311.342 922.314 306.524 960.199 136.348C968.615 89.5952 981.747 53.2916 997.821 25.2757C1003.11 16.0643 1008.71 7.74855 1014.57 0.246965L1016.85 0.246965Z" fill="white"/>
</mask>
<g mask="url(#mask41_4808_2994)">
<path d="M0.00581632 0.244141L0.00585938 985.254L1016.85 985.254L1016.85 0.244096L0.00581632 0.244141Z" fill="url(#paint41_linear_4808_2994)"/>
</g>
<mask id="mask42_4808_2994" style="mask-type:luminance" maskUnits="userSpaceOnUse" x="0" y="0" width="995" height="1024">
<path d="M994.275 0.257647C990.357 5.82772 986.595 11.8245 983.021 18.2789C966.88 47.4094 954.509 85.7989 948.263 136.073L948.263 136.095C919.608 308.163 723.095 319.121 516.53 330.646C430.384 335.452 342.484 340.354 264.419 357.109C66.919 399.491 -68.0829 517.956 46.1966 903.64L46.2106 903.685C46.3089 904.159 72.0449 1023.02 0.00195312 1023.36L0.00195302 1020.96C69.1844 1019.45 44.2989 904.476 44.2035 904.016C-70.4016 517.178 65.4059 398.27 263.993 355.652C342.293 338.849 430.283 333.942 516.516 329.13C722.172 317.658 917.817 306.743 946.25 136.014C952.519 85.5687 964.943 47.036 981.152 17.7793C984.619 11.5241 988.26 5.69008 992.049 0.254778L994.275 0.254778L994.275 0.257647Z" fill="white"/>
</mask>
<g mask="url(#mask42_4808_2994)">
<path d="M-70.4004 0.257568L-70.4004 1023.36L994.277 1023.36L994.277 0.257522L-70.4004 0.257568Z" fill="url(#paint42_linear_4808_2994)"/>
</g>
<mask id="mask43_4808_2994" style="mask-type:luminance" maskUnits="userSpaceOnUse" x="0" y="0" width="972" height="1050">
<path d="M971.172 0.25484C966.652 7.45894 962.428 15.3255 958.548 23.9191C945.627 52.5499 936.56 89.1989 933.359 135.893L933.359 135.915C914.271 308.222 717.969 325.289 511.623 343.229C425.581 350.711 337.787 358.341 260.478 377.477C64.945 425.878 -63.7072 548.117 72.3783 928.761L72.3924 928.806C72.5327 929.331 113.68 1078.55 0.0097654 1044.41L0.00976531 1042.35C110.272 1075.03 70.8091 930.698 70.4105 929.23C-66.0904 547.417 63.3449 424.708 259.964 376.04C337.464 356.856 425.373 349.214 511.525 341.724C716.958 323.863 912.393 306.872 931.335 135.899C934.547 89.0669 943.651 52.2861 956.631 23.5262C960.435 15.0981 964.572 7.36068 968.991 0.25484L971.172 0.25484Z" fill="white"/>
</mask>
<g mask="url(#mask43_4808_2994)">
<path d="M-66.0918 0.252686L-66.0918 1078.55L971.168 1078.55L971.168 0.25264L-66.0918 0.252686Z" fill="url(#paint43_linear_4808_2994)"/>
</g>
<mask id="mask44_4808_2994" style="mask-type:luminance" maskUnits="userSpaceOnUse" x="0" y="0" width="948" height="1075">
<path d="M947.463 0.253865C943.468 7.40731 939.788 15.1784 936.475 23.6262C925.123 52.5601 918.088 89.3551 917.493 135.965L917.493 135.987C908.005 308.235 712.254 331.377 506.489 355.701C420.693 365.845 333.147 376.196 256.747 397.676C63.5161 452.009 -58.5588 577.805 99.0997 952.75L99.1165 952.792C99.3018 953.356 157.649 1126.71 0.00976493 1058.52L0.00976485 1056.57C154.126 1123.2 97.5164 954.378 97.1487 953.264C-60.9814 577.178 61.8571 450.889 256.157 396.256C332.734 374.725 420.402 364.36 506.315 354.205C711.164 329.99 906.043 306.949 915.472 136.046C916.067 89.2736 923.133 52.3411 934.53 23.2893C937.789 14.9819 941.402 7.31746 945.321 0.24825L947.463 0.24825L947.463 0.253865Z" fill="white"/>
</mask>
<g mask="url(#mask44_4808_2994)">
<path d="M-60.9864 0.253296L-60.9863 1126.71L947.461 1126.71L947.46 0.253252L-60.9864 0.253296Z" fill="url(#paint44_linear_4808_2994)"/>
</g>
<mask id="mask45_4808_2994" style="mask-type:luminance" maskUnits="userSpaceOnUse" x="0" y="0" width="924" height="1098">
<path d="M923.088 0.250692C920.447 5.57088 917.996 11.2168 915.753 17.2108C904.477 47.3689 898.52 86.2805 900.687 136.304L900.69 136.327C900.816 308.221 705.957 337.396 501.127 368.065C415.716 380.853 328.562 393.903 253.221 417.69C62.6347 477.86 -52.6582 606.999 126.298 975.589L126.321 975.634C126.548 976.223 203.374 1168.88 0.00976438 1069.47L0.0097643 1067.56C199.7 1165.39 124.721 977.043 124.37 976.159C-55.1145 606.455 60.9111 476.799 252.547 416.301C328.091 392.451 415.351 379.385 500.869 366.583C704.789 336.051 898.786 307.002 898.66 136.442C896.49 86.2497 902.472 47.189 913.802 16.8991C915.997 11.0258 918.397 5.48385 920.974 0.247885L923.088 0.247884L923.088 0.250692Z" fill="white"/>
</mask>
<g mask="url(#mask45_4808_2994)">
<path d="M-55.1172 0.253784L-55.1172 1168.88L923.085 1168.88L923.085 0.253741L-55.1172 0.253784Z" fill="url(#paint45_linear_4808_2994)"/>
</g>
<defs>
<linearGradient id="paint0_linear_4808_2994" x1="2112.87" y1="540.159" x2="1851.56" y2="1286.19" gradientUnits="userSpaceOnUse">
<stop stop-color="#E2EFF8"/>
<stop offset="0.47" stop-color="#CFE1EE"/>
<stop offset="1" stop-color="white"/>
</linearGradient>
<linearGradient id="paint1_linear_4808_2994" x1="2116.39" y1="91.6655" x2="1459.79" y2="1176.26" gradientUnits="userSpaceOnUse">
<stop stop-color="#E2EFF8"/>
<stop offset="0.47" stop-color="#CFE1EE"/>
<stop offset="1" stop-color="white"/>
</linearGradient>
<linearGradient id="paint2_linear_4808_2994" x1="2119.61" y1="91.6577" x2="1469.49" y2="1188.36" gradientUnits="userSpaceOnUse">
<stop stop-color="#E2EFF8"/>
<stop offset="0.47" stop-color="#CFE1EE"/>
<stop offset="1" stop-color="white"/>
</linearGradient>
<linearGradient id="paint3_linear_4808_2994" x1="2122.53" y1="91.6655" x2="1478.33" y2="1198.98" gradientUnits="userSpaceOnUse">
<stop stop-color="#E2EFF8"/>
<stop offset="0.47" stop-color="#CFE1EE"/>
<stop offset="1" stop-color="white"/>
</linearGradient>
<linearGradient id="paint4_linear_4808_2994" x1="2120.76" y1="91.6655" x2="1478.66" y2="1202.65" gradientUnits="userSpaceOnUse">
<stop stop-color="#E2EFF8"/>
<stop offset="0.47" stop-color="#CFE1EE"/>
<stop offset="1" stop-color="white"/>
</linearGradient>
<linearGradient id="paint5_linear_4808_2994" x1="2082.15" y1="91.6655" x2="1414.94" y2="1155.16" gradientUnits="userSpaceOnUse">
<stop stop-color="#E2EFF8"/>
<stop offset="0.47" stop-color="#CFE1EE"/>
<stop offset="1" stop-color="white"/>
</linearGradient>
<linearGradient id="paint6_linear_4808_2994" x1="2043.5" y1="91.6655" x2="1351.79" y2="1098.59" gradientUnits="userSpaceOnUse">
<stop stop-color="#E2EFF8"/>
<stop offset="0.47" stop-color="#CFE1EE"/>
<stop offset="1" stop-color="white"/>
</linearGradient>
<linearGradient id="paint7_linear_4808_2994" x1="2016.93" y1="91.6655" x2="1310.14" y2="1055.42" gradientUnits="userSpaceOnUse">
<stop stop-color="#E2EFF8"/>
<stop offset="0.47" stop-color="#CFE1EE"/>
<stop offset="1" stop-color="white"/>
</linearGradient>
<linearGradient id="paint8_linear_4808_2994" x1="2032.26" y1="91.6655" x2="1337.18" y2="1089.62" gradientUnits="userSpaceOnUse">
<stop stop-color="#E2EFF8"/>
<stop offset="0.47" stop-color="#CFE1EE"/>
<stop offset="1" stop-color="white"/>
</linearGradient>
<linearGradient id="paint9_linear_4808_2994" x1="2049.79" y1="91.6655" x2="1368.41" y2="1124.01" gradientUnits="userSpaceOnUse">
<stop stop-color="#E2EFF8"/>
<stop offset="0.47" stop-color="#CFE1EE"/>
<stop offset="1" stop-color="white"/>
</linearGradient>
<linearGradient id="paint10_linear_4808_2994" x1="2069.52" y1="91.6577" x2="1403.72" y2="1158.06" gradientUnits="userSpaceOnUse">
<stop stop-color="#E2EFF8"/>
<stop offset="0.47" stop-color="#CFE1EE"/>
<stop offset="1" stop-color="white"/>
</linearGradient>
<linearGradient id="paint11_linear_4808_2994" x1="2094.01" y1="91.6577" x2="1450.98" y2="1201.02" gradientUnits="userSpaceOnUse">
<stop stop-color="#E2EFF8"/>
<stop offset="0.47" stop-color="#CFE1EE"/>
<stop offset="1" stop-color="white"/>
</linearGradient>
<linearGradient id="paint12_linear_4808_2994" x1="2133.81" y1="91.6655" x2="1541.69" y2="1278.28" gradientUnits="userSpaceOnUse">
<stop stop-color="#E2EFF8"/>
<stop offset="0.47" stop-color="#CFE1EE"/>
<stop offset="1" stop-color="white"/>
</linearGradient>
<linearGradient id="paint13_linear_4808_2994" x1="2175.02" y1="91.6616" x2="1631.72" y2="1336.66" gradientUnits="userSpaceOnUse">
<stop stop-color="#E2EFF8"/>
<stop offset="0.47" stop-color="#CFE1EE"/>
<stop offset="1" stop-color="white"/>
</linearGradient>
<linearGradient id="paint14_linear_4808_2994" x1="2193.58" y1="90.122" x2="1696.44" y2="1351.28" gradientUnits="userSpaceOnUse">
<stop stop-color="#E2EFF8"/>
<stop offset="0.47" stop-color="#CFE1EE"/>
<stop offset="1" stop-color="white"/>
</linearGradient>
<linearGradient id="paint15_linear_4808_2994" x1="2213.14" y1="88.3611" x2="1761.71" y2="1356.29" gradientUnits="userSpaceOnUse">
<stop stop-color="#E2EFF8"/>
<stop offset="0.47" stop-color="#CFE1EE"/>
<stop offset="1" stop-color="white"/>
</linearGradient>
<linearGradient id="paint16_linear_4808_2994" x1="2234.27" y1="86.5986" x2="1826.23" y2="1355.54" gradientUnits="userSpaceOnUse">
<stop stop-color="#E2EFF8"/>
<stop offset="0.47" stop-color="#CFE1EE"/>
<stop offset="1" stop-color="white"/>
</linearGradient>
<linearGradient id="paint17_linear_4808_2994" x1="2258.22" y1="84.8154" x2="1892.2" y2="1350.33" gradientUnits="userSpaceOnUse">
<stop stop-color="#E2EFF8"/>
<stop offset="0.47" stop-color="#CFE1EE"/>
<stop offset="1" stop-color="white"/>
</linearGradient>
<linearGradient id="paint18_linear_4808_2994" x1="2525.69" y1="83.0048" x2="2331.26" y2="1396.39" gradientUnits="userSpaceOnUse">
<stop stop-color="#E2EFF8"/>
<stop offset="0.47" stop-color="#CFE1EE"/>
<stop offset="1" stop-color="white"/>
</linearGradient>
<linearGradient id="paint19_linear_4808_2994" x1="2547.36" y1="16.495" x2="2342.22" y2="1391.18" gradientUnits="userSpaceOnUse">
<stop stop-color="#E2EFF8"/>
<stop offset="0.47" stop-color="#CFE1EE"/>
<stop offset="1" stop-color="white"/>
</linearGradient>
<linearGradient id="paint20_linear_4808_2994" x1="2578.78" y1="18.5695" x2="2393.44" y2="1362.11" gradientUnits="userSpaceOnUse">
<stop stop-color="#E2EFF8"/>
<stop offset="0.47" stop-color="#CFE1EE"/>
<stop offset="1" stop-color="white"/>
</linearGradient>
<linearGradient id="paint21_linear_4808_2994" x1="2606.19" y1="21.3231" x2="2438.08" y2="1330.82" gradientUnits="userSpaceOnUse">
<stop stop-color="#E2EFF8"/>
<stop offset="0.47" stop-color="#CFE1EE"/>
<stop offset="1" stop-color="white"/>
</linearGradient>
<linearGradient id="paint22_linear_4808_2994" x1="2630.2" y1="24.7255" x2="2477.42" y2="1297.55" gradientUnits="userSpaceOnUse">
<stop stop-color="#E2EFF8"/>
<stop offset="0.47" stop-color="#CFE1EE"/>
<stop offset="1" stop-color="white"/>
</linearGradient>
<linearGradient id="paint23_linear_4808_2994" x1="540.098" y1="-147.637" x2="857.619" y2="-279.365" gradientUnits="userSpaceOnUse">
<stop stop-color="#EFEFEF"/>
<stop offset="0.47" stop-color="#E0F2FF"/>
<stop offset="1" stop-color="#B9B9B9" stop-opacity="0"/>
</linearGradient>
<linearGradient id="paint24_linear_4808_2994" x1="91.6509" y1="-151.16" x2="526.598" y2="-463.029" gradientUnits="userSpaceOnUse">
<stop stop-color="#EFEFEF"/>
<stop offset="0.47" stop-color="#E0F2FF"/>
<stop offset="1" stop-color="#B9B9B9" stop-opacity="0"/>
</linearGradient>
<linearGradient id="paint25_linear_4808_2994" x1="91.6489" y1="-154.381" x2="532.764" y2="-464.091" gradientUnits="userSpaceOnUse">
<stop stop-color="#EFEFEF"/>
<stop offset="0.47" stop-color="#E0F2FF"/>
<stop offset="1" stop-color="#B9B9B9" stop-opacity="0"/>
</linearGradient>
<linearGradient id="paint26_linear_4808_2994" x1="91.6509" y1="-157.304" x2="538.198" y2="-464.999" gradientUnits="userSpaceOnUse">
<stop stop-color="#EFEFEF"/>
<stop offset="0.47" stop-color="#E0F2FF"/>
<stop offset="1" stop-color="#B9B9B9" stop-opacity="0"/>
</linearGradient>
<linearGradient id="paint27_linear_4808_2994" x1="91.6509" y1="-155.527" x2="540.086" y2="-462.496" gradientUnits="userSpaceOnUse">
<stop stop-color="#EFEFEF"/>
<stop offset="0.47" stop-color="#E0F2FF"/>
<stop offset="1" stop-color="#B9B9B9" stop-opacity="0"/>
</linearGradient>
<linearGradient id="paint28_linear_4808_2994" x1="91.6509" y1="-116.912" x2="515.944" y2="-432.19" gradientUnits="userSpaceOnUse">
<stop stop-color="#EFEFEF"/>
<stop offset="0.47" stop-color="#E0F2FF"/>
<stop offset="1" stop-color="#B9B9B9" stop-opacity="0"/>
</linearGradient>
<linearGradient id="paint29_linear_4808_2994" x1="91.6509" y1="-78.2608" x2="487.902" y2="-400.662" gradientUnits="userSpaceOnUse">
<stop stop-color="#EFEFEF"/>
<stop offset="0.47" stop-color="#E0F2FF"/>
<stop offset="1" stop-color="#B9B9B9" stop-opacity="0"/>
</linearGradient>
<linearGradient id="paint30_linear_4808_2994" x1="91.6509" y1="-51.6879" x2="467.016" y2="-377.73" gradientUnits="userSpaceOnUse">
<stop stop-color="#EFEFEF"/>
<stop offset="0.47" stop-color="#E0F2FF"/>
<stop offset="1" stop-color="#B9B9B9" stop-opacity="0"/>
</linearGradient>
<linearGradient id="paint31_linear_4808_2994" x1="91.6509" y1="-67.0202" x2="483.527" y2="-390.299" gradientUnits="userSpaceOnUse">
<stop stop-color="#EFEFEF"/>
<stop offset="0.47" stop-color="#E0F2FF"/>
<stop offset="1" stop-color="#B9B9B9" stop-opacity="0"/>
</linearGradient>
<linearGradient id="paint32_linear_4808_2994" x1="91.6509" y1="-84.5509" x2="500.409" y2="-404.099" gradientUnits="userSpaceOnUse">
<stop stop-color="#EFEFEF"/>
<stop offset="0.47" stop-color="#E0F2FF"/>
<stop offset="1" stop-color="#B9B9B9" stop-opacity="0"/>
</linearGradient>
<linearGradient id="paint33_linear_4808_2994" x1="91.6489" y1="-104.282" x2="517.402" y2="-419.116" gradientUnits="userSpaceOnUse">
<stop stop-color="#EFEFEF"/>
<stop offset="0.47" stop-color="#E0F2FF"/>
<stop offset="1" stop-color="#B9B9B9" stop-opacity="0"/>
</linearGradient>
<linearGradient id="paint34_linear_4808_2994" x1="91.6489" y1="-128.778" x2="539.252" y2="-436.069" gradientUnits="userSpaceOnUse">
<stop stop-color="#EFEFEF"/>
<stop offset="0.47" stop-color="#E0F2FF"/>
<stop offset="1" stop-color="#B9B9B9" stop-opacity="0"/>
</linearGradient>
<linearGradient id="paint35_linear_4808_2994" x1="91.6508" y1="-168.585" x2="579.728" y2="-457.049" gradientUnits="userSpaceOnUse">
<stop stop-color="#EFEFEF"/>
<stop offset="0.47" stop-color="#E0F2FF"/>
<stop offset="1" stop-color="#B9B9B9" stop-opacity="0"/>
</linearGradient>
<linearGradient id="paint36_linear_4808_2994" x1="91.6508" y1="-209.799" x2="611.376" y2="-478.423" gradientUnits="userSpaceOnUse">
<stop stop-color="#EFEFEF"/>
<stop offset="0.47" stop-color="#E0F2FF"/>
<stop offset="1" stop-color="#B9B9B9" stop-opacity="0"/>
</linearGradient>
<linearGradient id="paint37_linear_4808_2994" x1="90.1076" y1="-228.363" x2="621.705" y2="-476.558" gradientUnits="userSpaceOnUse">
<stop stop-color="#EFEFEF"/>
<stop offset="0.47" stop-color="#E0F2FF"/>
<stop offset="1" stop-color="#B9B9B9" stop-opacity="0"/>
</linearGradient>
<linearGradient id="paint38_linear_4808_2994" x1="88.3469" y1="-247.924" x2="627.326" y2="-475.207" gradientUnits="userSpaceOnUse">
<stop stop-color="#EFEFEF"/>
<stop offset="0.47" stop-color="#E0F2FF"/>
<stop offset="1" stop-color="#B9B9B9" stop-opacity="0"/>
</linearGradient>
<linearGradient id="paint39_linear_4808_2994" x1="86.5845" y1="-269.05" x2="629.929" y2="-475.987" gradientUnits="userSpaceOnUse">
<stop stop-color="#EFEFEF"/>
<stop offset="0.47" stop-color="#E0F2FF"/>
<stop offset="1" stop-color="#B9B9B9" stop-opacity="0"/>
</linearGradient>
<linearGradient id="paint40_linear_4808_2994" x1="84.8055" y1="-293.005" x2="630.18" y2="-479.829" gradientUnits="userSpaceOnUse">
<stop stop-color="#EFEFEF"/>
<stop offset="0.47" stop-color="#E0F2FF"/>
<stop offset="1" stop-color="#B9B9B9" stop-opacity="0"/>
</linearGradient>
<linearGradient id="paint41_linear_4808_2994" x1="82.997" y1="-560.505" x2="661.601" y2="-661.954" gradientUnits="userSpaceOnUse">
<stop stop-color="#EFEFEF"/>
<stop offset="0.47" stop-color="#E0F2FF"/>
<stop offset="1" stop-color="#B9B9B9" stop-opacity="0"/>
</linearGradient>
<linearGradient id="paint42_linear_4808_2994" x1="16.4945" y1="-582.177" x2="622.023" y2="-689.201" gradientUnits="userSpaceOnUse">
<stop stop-color="#EFEFEF"/>
<stop offset="0.47" stop-color="#E0F2FF"/>
<stop offset="1" stop-color="#B9B9B9" stop-opacity="0"/>
</linearGradient>
<linearGradient id="paint43_linear_4808_2994" x1="18.5654" y1="-613.602" x2="611.113" y2="-710.412" gradientUnits="userSpaceOnUse">
<stop stop-color="#EFEFEF"/>
<stop offset="0.47" stop-color="#E0F2FF"/>
<stop offset="1" stop-color="#B9B9B9" stop-opacity="0"/>
</linearGradient>
<linearGradient id="paint44_linear_4808_2994" x1="21.3193" y1="-641.018" x2="599.419" y2="-728.918" gradientUnits="userSpaceOnUse">
<stop stop-color="#EFEFEF"/>
<stop offset="0.47" stop-color="#E0F2FF"/>
<stop offset="1" stop-color="#B9B9B9" stop-opacity="0"/>
</linearGradient>
<linearGradient id="paint45_linear_4808_2994" x1="24.72" y1="-665.025" x2="587.08" y2="-744.975" gradientUnits="userSpaceOnUse">
<stop stop-color="#EFEFEF"/>
<stop offset="0.47" stop-color="#E0F2FF"/>
<stop offset="1" stop-color="#B9B9B9" stop-opacity="0"/>
</linearGradient>
</defs>
</svg>
