<svg width="1520" height="682" viewBox="0 0 1520 682" fill="none" xmlns="http://www.w3.org/2000/svg">
<g clip-path="url(#clip0_4803_2238)">
<rect width="1520" height="682" rx="40" fill="url(#paint0_linear_4803_2238)"/>
<path d="M1748.61 554.407C1742.35 559.802 1737.71 566.821 1735.19 574.689C1732.67 582.557 1732.38 590.969 1734.34 598.995C1728.49 597.84 1722.44 598.14 1716.73 599.869C1711.02 601.597 1705.83 604.701 1701.6 608.908C1697.37 613.115 1694.24 618.295 1692.48 623.995C1690.72 629.695 1690.39 635.739 1691.51 641.597C1678.66 632.747 1659 636.056 1649.74 648.643C1649.55 640.338 1649.22 631.579 1644.86 624.507C1640.5 617.434 1630.59 613.074 1623.6 617.564C1626.25 614.544 1627.86 610.751 1628.19 606.746C1628.52 602.741 1627.56 598.736 1625.44 595.319C1623.33 591.903 1620.17 589.258 1616.43 587.772C1612.7 586.287 1608.59 586.04 1604.7 587.069C1604.51 577.103 1598.21 506.537 1593.02 447H1548.69C1543.5 505.498 1537.57 572.691 1537.38 582.41C1533.48 581.359 1529.35 581.594 1525.6 583.078C1521.85 584.562 1518.68 587.218 1516.56 590.65C1514.44 594.081 1513.48 598.106 1513.83 602.125C1514.18 606.144 1515.82 609.943 1518.5 612.957C1511.5 608.467 1501.63 612.841 1497.23 619.9C1492.83 626.959 1492.53 635.731 1492.34 644.036C1483.09 631.462 1463.44 628.14 1450.57 636.99C1451.69 631.132 1451.36 625.088 1449.6 619.388C1447.84 613.689 1444.71 608.508 1440.48 604.301C1436.26 600.095 1431.06 596.991 1425.35 595.262C1419.64 593.534 1413.6 593.233 1407.74 594.388C1409.82 586.362 1409.58 577.911 1407.05 570.017C1404.51 562.123 1399.79 555.111 1393.43 549.795C1387.07 544.479 1379.32 541.079 1371.11 539.989C1362.89 538.898 1354.53 540.163 1347 543.636V694.852H1795.08V548.217C1787.52 544.858 1779.17 543.658 1770.97 544.75C1762.77 545.843 1755.03 549.185 1748.61 554.407Z" fill="#CCDDE9"/>
<path d="M904.191 564.69C906.71 556.822 911.354 549.803 917.612 544.408C924.031 539.187 931.77 535.844 939.972 534.752C948.175 533.659 956.519 534.859 964.081 538.219V684.854H818.745H787.001C765.502 669 784.502 637.5 818.745 645.5C823.501 617 847.655 622.748 860.515 631.598C859.391 625.74 859.722 619.696 861.48 613.997C863.238 608.297 866.369 603.116 870.597 598.909C874.826 594.703 880.023 591.599 885.731 589.87C891.44 588.142 897.486 587.841 903.338 588.996C901.377 580.97 901.672 572.559 904.191 564.69Z" fill="#CCDDE9"/>
<path d="M447 85L451.243 110.757L477 115L451.243 119.243L447 145L442.757 119.243L417 115L442.757 110.757L447 85Z" fill="#86B9DD"/>
<path d="M500 52L501.98 64.0201L514 66L501.98 67.9799L500 80L498.02 67.9799L486 66L498.02 64.0201L500 52Z" fill="#ABD2EE"/>
<path d="M53 543L54.9799 555.02L67 557L54.9799 558.98L53 571L51.0201 558.98L39 557L51.0201 555.02L53 543Z" fill="#ABD2EE"/>
<path d="M1333.11 549.247C1326.85 554.641 1322.2 561.66 1319.68 569.529C1317.17 577.397 1316.87 585.809 1318.83 593.834C1312.98 592.68 1306.93 592.98 1301.23 594.709C1295.52 596.437 1290.32 599.541 1286.09 603.748C1281.86 607.955 1278.73 613.135 1276.97 618.835C1275.22 624.535 1274.88 630.579 1276.01 636.436C1263.15 627.586 1243.49 630.895 1234.24 643.483C1234.04 635.178 1233.72 626.419 1229.36 619.346C1225 612.274 1215.08 607.914 1208.09 612.404C1210.74 609.383 1212.35 605.591 1212.68 601.586C1213.02 597.581 1212.05 593.575 1209.94 590.159C1207.82 586.743 1204.66 584.097 1200.93 582.612C1197.19 581.127 1193.08 580.88 1189.2 581.909C1189 571.943 1182.71 501.376 1177.52 441.84H1133.19C1128 500.338 1122.07 567.531 1121.87 577.25C1117.98 576.199 1113.85 576.433 1110.1 577.918C1106.35 579.402 1103.17 582.058 1101.05 585.489C1098.93 588.921 1097.97 592.946 1098.32 596.965C1098.67 600.984 1100.31 604.783 1102.99 607.797C1096 603.307 1086.12 607.68 1081.72 614.74C1077.32 621.799 1077.03 630.571 1076.83 638.876C1067.58 626.302 1047.93 622.98 1035.06 631.83C1036.18 625.972 1035.85 619.928 1034.09 614.228C1032.34 608.529 1029.21 603.348 1024.98 599.141C1020.75 594.934 1015.55 591.83 1009.84 590.102C1004.14 588.373 998.089 588.073 992.237 589.228C994.317 581.202 994.075 572.751 991.541 564.857C989.007 556.963 984.284 549.951 977.922 544.635C971.559 539.319 963.819 535.919 955.6 534.828C947.382 533.738 939.022 535.003 931.494 538.476V689.692H1379.58V543.057C1372.01 539.698 1363.67 538.498 1355.47 539.59C1347.26 540.683 1339.52 544.025 1333.11 549.247Z" fill="#005490"/>
<path d="M1333.11 549.247C1326.85 554.641 1322.21 561.66 1319.69 569.529C1317.17 577.397 1316.87 585.809 1318.83 593.834C1312.98 592.68 1306.94 592.98 1301.23 594.709C1295.52 596.437 1290.32 599.541 1286.09 603.748C1281.86 607.955 1278.73 613.135 1276.98 618.835C1275.22 624.535 1274.89 630.579 1276.01 636.436C1263.15 627.586 1243.49 630.895 1234.24 643.483C1234.04 635.178 1233.72 626.419 1229.36 619.346C1225 612.274 1215.09 607.914 1208.09 612.404C1210.74 609.383 1212.35 605.591 1212.69 601.586C1213.02 597.581 1212.05 593.575 1209.94 590.159C1207.82 586.743 1204.66 584.097 1200.93 582.612C1197.2 581.127 1193.08 580.88 1189.2 581.909C1189 571.943 1182.71 501.376 1177.52 441.84H1133.19C1128 500.338 1122.07 567.531 1121.88 577.25C1117.98 576.199 1113.85 576.433 1110.1 577.918C1106.35 579.402 1103.18 582.058 1101.05 585.489C1098.93 588.921 1097.98 592.946 1098.33 596.965C1098.68 600.984 1100.31 604.783 1102.99 607.797C1096 603.307 1086.12 607.68 1081.73 614.74C1077.33 621.799 1077.03 630.571 1076.83 638.876C1067.58 626.302 1047.93 622.98 1035.06 631.83C1036.19 625.972 1035.85 619.928 1034.1 614.228C1032.34 608.529 1029.21 603.348 1024.98 599.141C1020.75 594.934 1015.55 591.83 1009.85 590.102C1004.14 588.373 998.091 588.073 992.239 589.228C994.319 581.202 994.077 572.751 991.543 564.857C989.009 556.963 984.286 549.951 977.924 544.635C971.561 539.319 963.821 535.919 955.602 534.828C947.384 533.738 939.024 535.003 931.496 538.476V689.692H1379.58V543.057C1372.02 539.698 1363.67 538.498 1355.47 539.59C1347.27 540.683 1339.53 544.025 1333.11 549.247Z" fill="#CCDDE9"/>
<path d="M1330.37 659.496C1322.33 654.094 1313.26 650.4 1303.74 648.642C1294.21 646.883 1284.43 647.098 1274.99 649.273C1265.55 651.448 1256.65 655.536 1248.86 661.285C1241.06 667.035 1234.53 674.322 1229.66 682.698C1225.72 677.372 1220.57 673.058 1214.63 670.111C1215.05 668.992 1215.4 667.847 1215.68 666.685C1216.83 661.713 1216.69 656.531 1215.28 651.628C1213.86 646.726 1211.22 642.266 1207.6 638.67C1203.98 635.075 1199.5 632.463 1194.59 631.082C1189.68 629.701 1184.49 629.596 1179.53 630.779L1166.27 441.84H1148.88V615.583C1138.11 617.231 1130.59 629.987 1134.4 640.239C1130.64 640.822 1127.09 642.308 1124.04 644.569C1120.99 646.829 1118.53 649.796 1116.88 653.215C1115.84 655.447 1115.68 660.171 1116.58 665.517C1110.01 665.637 1103.56 667.252 1097.72 670.241C1091.87 673.229 1086.78 677.512 1082.84 682.763C1077.97 674.387 1071.44 667.099 1063.64 661.35C1055.85 655.601 1046.95 651.512 1037.51 649.338C1028.07 647.163 1018.29 646.948 1008.76 648.706C999.235 650.465 990.171 654.159 982.13 659.561C977.575 637.501 952.906 621.825 931.002 627.119V690.095L1133.16 689.835C1134.55 690.231 1135.99 690.432 1137.43 690.432L1186.85 689.848L1381.59 690.095V627.003C1359.63 621.76 1334.96 637.436 1330.37 659.496Z" fill="#005490"/>
<path d="M1330.37 659.496C1322.33 654.094 1313.26 650.4 1303.74 648.642C1294.21 646.883 1284.42 647.098 1274.98 649.273C1265.54 651.448 1256.65 655.536 1248.85 661.285C1241.06 667.035 1234.52 674.322 1229.66 682.698C1225.71 677.372 1220.56 673.058 1214.63 670.111C1215.05 668.992 1215.4 667.847 1215.68 666.685C1216.83 661.713 1216.69 656.531 1215.27 651.628C1213.86 646.726 1211.22 642.266 1207.6 638.67C1203.98 635.075 1199.5 632.463 1194.59 631.082C1189.67 629.701 1184.49 629.596 1179.53 630.779L1166.27 441.84H1148.88V615.583C1138.11 617.231 1130.59 629.987 1134.39 640.239C1130.64 640.822 1127.09 642.308 1124.04 644.569C1120.99 646.829 1118.53 649.796 1116.88 653.215C1115.84 655.447 1115.68 660.171 1116.58 665.517C1110.01 665.637 1103.56 667.252 1097.72 670.241C1091.87 673.229 1086.78 677.512 1082.84 682.763C1077.97 674.387 1071.44 667.099 1063.64 661.35C1055.84 655.601 1046.95 651.512 1037.51 649.338C1028.07 647.163 1018.29 646.948 1008.76 648.706C999.233 650.465 990.169 654.159 982.128 659.561C977.573 637.501 952.904 621.825 931 627.119V690.095L1133.16 689.835C1134.55 690.231 1135.99 690.432 1137.43 690.432L1186.85 689.848L1381.59 690.095V627.003C1359.63 621.76 1334.96 637.436 1330.37 659.496Z" fill="#99BBD3"/>
<path d="M1766.37 659.496C1758.33 654.094 1749.26 650.4 1739.74 648.642C1730.21 646.883 1720.42 647.098 1710.98 649.273C1701.54 651.448 1692.65 655.536 1684.85 661.285C1677.06 667.035 1670.52 674.322 1665.66 682.698C1661.71 677.372 1656.56 673.058 1650.63 670.111C1651.05 668.992 1651.4 667.847 1651.68 666.685C1652.83 661.713 1652.69 656.531 1651.27 651.628C1649.86 646.726 1647.22 642.266 1643.6 638.67C1639.98 635.075 1635.5 632.463 1630.59 631.082C1625.67 629.701 1620.49 629.596 1615.53 630.779L1602.27 441.84H1584.88V615.583C1574.11 617.231 1566.59 629.987 1570.39 640.239C1566.64 640.822 1563.09 642.308 1560.04 644.569C1556.99 646.829 1554.53 649.796 1552.88 653.215C1551.84 655.447 1551.68 660.171 1552.58 665.517C1546.01 665.637 1539.56 667.252 1533.72 670.241C1527.87 673.229 1522.78 677.512 1518.84 682.763C1513.97 674.387 1507.44 667.099 1499.64 661.35C1491.84 655.601 1482.95 651.512 1473.51 649.338C1464.07 647.163 1454.29 646.948 1444.76 648.706C1435.23 650.465 1426.17 654.159 1418.13 659.561C1413.57 637.501 1388.9 621.825 1367 627.119V690.095L1569.16 689.835C1570.55 690.231 1571.99 690.432 1573.43 690.432L1622.85 689.848L1817.59 690.095V627.003C1795.63 621.76 1770.96 637.436 1766.37 659.496Z" fill="#99BBD3"/>
<path d="M866.736 648.643C876.262 650.402 885.326 654.096 893.368 659.498C897.961 637.438 922.63 621.762 944.586 627.004V690.096H792.656L792.657 682.7C797.524 674.324 804.058 667.036 811.855 661.287C819.651 655.538 828.544 651.449 837.984 649.275C847.424 647.1 857.21 646.885 866.736 648.643Z" fill="#99BBD3"/>
<path d="M625.08 659.655C634.606 661.414 643.67 665.108 651.712 670.509C656.305 648.449 680.974 632.774 702.93 638.016V701.108H551L551 693.712C555.868 685.336 562.402 678.048 570.198 672.299C577.995 666.55 586.888 662.461 596.328 660.286C605.768 658.111 615.554 657.897 625.08 659.655Z" fill="#99BBD3"/>
<path d="M768.85 659.655C759.324 661.414 750.26 665.108 742.218 670.509C737.624 648.449 712.956 632.774 691 638.016V701.108H842.93L842.929 693.712C838.062 685.336 831.528 678.048 823.731 672.299C815.935 666.55 807.041 662.461 797.602 660.286C788.162 658.111 778.376 657.897 768.85 659.655Z" fill="#99BBD3"/>
<path d="M1131.4 378.465C1116.82 385.394 1110.21 405.363 1117.81 419.619C1120.81 425.314 1125.7 430.193 1126.35 436.533C1127.34 446.252 1118.15 453.845 1115.3 463.109C1113.86 468.661 1114.62 474.556 1117.42 479.562C1120.22 484.568 1124.85 488.297 1130.34 489.969C1135.33 491.279 1141.31 491.051 1144.65 494.981C1148.92 499.992 1145.83 508.268 1149.49 513.792C1152.77 518.747 1160.46 518.994 1165.42 515.691C1170.37 512.388 1173.1 506.674 1175.06 501.055C1177.01 495.436 1178.48 489.532 1181.86 484.635C1185.65 479.263 1191.25 475.58 1195.77 470.854C1206.63 459.464 1209.95 442.38 1207.5 426.795C1205.05 411.21 1197.52 396.954 1188.99 383.723" fill="#005490"/>
<g opacity="0.3">
<path d="M1131.4 378.473C1116.82 385.401 1110.21 405.371 1117.81 419.627C1120.81 425.322 1125.7 430.2 1126.35 436.541C1127.34 446.26 1118.15 453.853 1115.3 463.116C1113.86 468.668 1114.62 474.564 1117.42 479.57C1120.22 484.576 1124.85 488.305 1130.34 489.977C1135.33 491.287 1141.31 491.059 1144.65 494.988C1148.92 500 1145.83 508.276 1149.49 513.8C1152.77 518.755 1160.46 519.001 1165.42 515.698C1170.37 512.395 1173.1 506.682 1175.06 501.063C1177.01 495.444 1178.48 489.54 1181.86 484.643C1185.65 479.271 1191.25 475.588 1195.77 470.861C1206.63 459.472 1209.95 442.387 1207.5 426.803C1205.05 411.218 1197.52 396.962 1188.99 383.731" fill="white"/>
</g>
<path d="M1144.21 386.668C1131.85 392.116 1126.44 409.257 1133.43 420.837C1137.7 427.898 1145.98 434.277 1143.96 442.268C1142.6 447.697 1136.79 451.019 1135.12 456.353C1132.9 463.453 1139.62 470.989 1147.02 471.881C1154.42 472.773 1161.56 468.825 1167.16 463.908C1186.54 446.824 1187.32 409.466 1175.23 386.668" fill="#005490"/>
<path d="M1207.92 278.012C1207.92 278.012 1271.4 320.001 1264.47 392.648L1206.12 366.452L1207.92 278.012Z" fill="#005490"/>
<path d="M1102.46 364.988L1116.88 388.887H1191.69L1206.12 366.355L1102.46 364.988Z" fill="#263238"/>
<path d="M1150.4 123.855C1136.17 124.809 1122.85 131.211 1113.21 141.732C1103.57 152.253 1098.36 166.083 1098.66 180.347L1102.45 366.378H1206.12L1209.57 180.252C1209.72 172.568 1208.27 164.937 1205.31 157.844C1202.35 150.751 1197.95 144.35 1192.38 139.047C1186.82 133.745 1180.22 129.656 1172.99 127.041C1165.76 124.425 1158.07 123.341 1150.4 123.855Z" fill="#005490"/>
<g opacity="0.8">
<path d="M1150.4 123.851C1136.17 124.805 1122.85 131.208 1113.21 141.728C1103.57 152.249 1098.36 166.079 1098.66 180.343L1102.45 366.374H1206.12L1209.57 180.248C1209.72 172.564 1208.27 164.934 1205.31 157.84C1202.35 150.747 1197.95 144.346 1192.38 139.044C1186.82 133.741 1180.22 129.652 1172.99 127.037C1165.76 124.422 1158.07 123.337 1150.4 123.851Z" fill="white"/>
</g>
<path d="M1100.56 278.012C1100.56 278.012 1037.15 320.001 1044.1 392.648L1102.46 366.414L1100.56 278.012Z" fill="#005490"/>
<path d="M1099.23 174.174C1121.15 154.982 1189.96 155.4 1208.44 171.023C1203.69 101.964 1150.96 76.1094 1150.96 76.1094C1097.01 113.467 1099.23 174.174 1099.23 174.174Z" fill="#005490"/>
<path d="M1150.96 76.1328L1151.58 76.7023C1151.98 77.082 1152.59 77.6324 1153.35 78.3728L1156.23 81.1063L1158.13 82.8527L1160.03 84.9787C1161.4 86.4784 1162.95 88.1299 1164.61 89.9902L1169.65 96.2924C1170.51 97.4504 1171.36 98.7032 1172.26 99.9561C1173.15 101.209 1174.15 102.5 1174.95 103.923C1176.64 106.733 1178.52 109.618 1180.13 112.94C1183.84 120.001 1186.71 127.466 1188.69 135.188C1189.81 139.481 1190.64 143.844 1191.18 148.248C1191.5 150.526 1191.67 152.842 1192 155.139C1192.2 157.525 1192.29 159.92 1192.24 162.314C1192.24 181.582 1192 202.766 1191.75 224.957C1191.22 269.452 1190.59 309.715 1190.12 338.853C1189.87 353.413 1189.66 365.201 1189.51 373.364C1189.51 377.426 1189.36 380.596 1189.32 382.855C1189.32 383.918 1189.32 384.753 1189.32 385.285C1189.32 385.816 1189.32 386.12 1189.32 386.12C1189.32 386.12 1189.32 385.835 1189.32 385.285C1189.32 384.734 1189.32 383.918 1189.32 382.855C1189.32 380.691 1189.32 377.521 1189.42 373.364C1189.51 365.201 1189.66 353.413 1189.83 338.853C1190.21 309.677 1190.73 269.414 1191.31 224.957C1191.56 202.709 1191.85 181.525 1191.85 162.314C1191.9 159.945 1191.82 157.575 1191.6 155.215C1191.3 152.88 1191.12 150.583 1190.82 148.324C1190.29 143.933 1189.47 139.582 1188.35 135.302C1186.39 127.613 1183.56 120.174 1179.91 113.13C1178.2 109.808 1176.32 106.923 1174.59 104.113C1173.76 102.69 1172.69 101.437 1171.91 100.146C1171.14 98.8551 1170.21 97.6402 1169.35 96.4822L1164.34 90.161C1162.71 88.2628 1161.17 86.6492 1159.8 85.1306L1157.9 82.9856L1156.1 81.2202L1153.25 78.4487L1151.53 76.7403L1150.96 76.1328Z" fill="#263238"/>
<path d="M1175.2 221.219C1178.46 206.457 1169.98 192.034 1156.26 189.006C1142.54 185.977 1128.78 195.489 1125.52 210.251C1122.26 225.013 1130.74 239.436 1144.46 242.464C1158.18 245.493 1171.94 235.981 1175.2 221.219Z" fill="#FAFAFA"/>
<path d="M1156.25 188.997C1156.11 189.018 1155.96 189.018 1155.82 188.997L1154.58 188.826L1153.67 188.674H1152.55H1151.26C1150.79 188.674 1150.29 188.674 1149.78 188.674C1148.63 188.746 1147.48 188.898 1146.34 189.13C1145 189.416 1143.68 189.816 1142.4 190.326C1139.27 191.573 1136.41 193.402 1133.97 195.717C1131.01 198.511 1128.69 201.919 1127.19 205.702C1126.77 206.734 1126.42 207.793 1126.15 208.872C1126.01 209.422 1125.84 209.973 1125.71 210.523L1125.42 212.232L1125.27 213.105V213.978C1125.27 214.567 1125.18 215.174 1125.14 215.763C1125.1 216.351 1125.14 216.959 1125.14 217.566V218.477L1125.24 219.407C1125.74 224.565 1127.71 229.468 1130.93 233.53C1134.32 237.945 1139.15 241.024 1144.59 242.225C1150.02 243.426 1155.7 242.673 1160.64 240.098C1165.24 237.738 1169.08 234.109 1171.69 229.639L1172.16 228.861L1172.56 228.025L1173.36 226.412L1173.98 224.741L1174.29 223.906L1174.53 223.052L1174.99 221.381C1175.12 220.831 1175.18 220.262 1175.29 219.711C1175.48 218.612 1175.61 217.503 1175.67 216.389C1175.92 212.324 1175.28 208.253 1173.77 204.468C1172.04 200.037 1169.11 196.17 1165.33 193.287C1164.39 192.592 1163.42 191.958 1162.4 191.389C1161.93 191.161 1161.51 190.895 1161.09 190.705L1159.9 190.212L1158.85 189.794L1157.98 189.529L1156.77 189.168C1156.63 189.132 1156.49 189.081 1156.37 189.016H1156.78L1158 189.32L1158.91 189.567L1159.95 189.965L1161.17 190.44L1162.5 191.104C1163.54 191.671 1164.54 192.305 1165.5 193.002C1166.61 193.842 1167.65 194.762 1168.63 195.755C1170.99 198.205 1172.86 201.085 1174.13 204.24C1175.7 208.069 1176.4 212.201 1176.17 216.332C1176.12 217.465 1176 218.594 1175.81 219.711C1175.69 220.281 1175.63 220.85 1175.5 221.419C1175.37 221.989 1175.2 222.558 1175.03 223.128L1174.8 223.982L1174.5 224.817L1173.85 226.526L1173.05 228.177L1172.65 229.032L1172.16 229.829C1169.53 234.397 1165.62 238.103 1160.92 240.497C1155.88 243.142 1150.07 243.92 1144.51 242.694C1138.95 241.468 1134.01 238.316 1130.55 233.796C1127.3 229.636 1125.32 224.626 1124.86 219.369V218.439V217.509C1124.86 216.902 1124.86 216.275 1124.86 215.611C1124.86 214.946 1124.86 214.396 1125.01 213.712V212.82L1125.14 211.928C1125.25 211.359 1125.35 210.77 1125.44 210.201C1125.54 209.631 1125.75 209.081 1125.9 208.511C1126.18 207.417 1126.54 206.344 1126.98 205.303C1128.51 201.458 1130.88 198.001 1133.91 195.185C1136.4 192.861 1139.31 191.038 1142.49 189.813C1143.79 189.309 1145.13 188.915 1146.5 188.636C1147.64 188.417 1148.8 188.278 1149.97 188.219C1150.5 188.219 1150.99 188.219 1151.47 188.219H1152.78H1153.9L1154.81 188.39L1156.04 188.617L1156.25 188.997Z" fill="#263238"/>
<path d="M1124.13 211.627C1124.13 211.949 1118.28 211.797 1111.24 213.069C1104.2 214.341 1098.77 216.467 1098.66 216.163C1099.7 215.404 1100.87 214.832 1102.11 214.474C1107.92 212.293 1114.09 211.199 1120.3 211.247C1121.59 211.164 1122.88 211.293 1124.13 211.627Z" fill="#263238"/>
<path d="M1207.94 211.591C1206.37 211.601 1204.81 211.455 1203.27 211.154C1200.42 210.812 1196.48 210.357 1192.11 210.034C1187.74 209.711 1183.78 209.635 1180.89 209.578C1179.33 209.662 1177.77 209.592 1176.22 209.37C1177.74 208.976 1179.3 208.797 1180.87 208.838C1184.67 208.666 1188.47 208.717 1192.26 208.99C1196.02 209.251 1199.76 209.727 1203.46 210.414C1205 210.619 1206.5 211.014 1207.94 211.591Z" fill="#263238"/>
<path d="M1208.51 318.043C1208.14 318.093 1207.77 318.093 1207.41 318.043L1204.28 317.796L1192.75 316.923C1183.04 316.239 1169.58 315.575 1154.79 315.594C1140 315.613 1126.47 316.296 1116.73 316.999L1105.23 317.91L1102.09 318.138C1101.73 318.191 1101.36 318.191 1100.99 318.138C1101.34 318.014 1101.71 317.938 1102.07 317.91L1105.19 317.473C1107.88 317.113 1111.81 316.676 1116.58 316.239C1126.3 315.328 1139.79 314.531 1154.69 314.512C1169.6 314.493 1183.17 315.271 1192.79 316.164C1197.67 316.6 1201.58 317.018 1204.3 317.378L1207.41 317.796C1207.79 317.828 1208.16 317.911 1208.51 318.043Z" fill="#263238"/>
<path d="M1126.89 238.301C1126.89 238.453 1126.24 238.51 1125.8 239.25C1125.68 239.441 1125.59 239.656 1125.56 239.882C1125.52 240.108 1125.53 240.34 1125.59 240.56C1125.69 240.794 1125.85 240.994 1126.06 241.135C1126.27 241.277 1126.52 241.354 1126.77 241.357C1127.03 241.396 1127.28 241.358 1127.52 241.25C1127.75 241.142 1127.95 240.968 1128.08 240.75C1128.18 240.541 1128.22 240.315 1128.22 240.085C1128.22 239.856 1128.18 239.63 1128.08 239.421C1127.76 238.624 1127.13 238.472 1127.17 238.32C1127.21 238.168 1128.04 238.035 1128.75 239.06C1128.94 239.366 1129.07 239.715 1129.11 240.077C1129.15 240.44 1129.1 240.807 1128.97 241.149C1128.78 241.574 1128.46 241.927 1128.05 242.156C1127.65 242.385 1127.18 242.478 1126.71 242.42C1126.32 242.399 1125.93 242.266 1125.6 242.036C1125.28 241.806 1125.02 241.488 1124.87 241.12C1124.71 240.751 1124.66 240.346 1124.73 239.952C1124.79 239.557 1124.97 239.189 1125.23 238.89C1126.07 237.883 1126.96 238.168 1126.89 238.301Z" fill="#263238"/>
<path d="M1149.47 250.462C1149.47 250.633 1148.83 250.69 1148.39 251.43C1148.27 251.619 1148.18 251.831 1148.15 252.053C1148.11 252.275 1148.12 252.503 1148.18 252.721C1148.27 252.959 1148.43 253.165 1148.64 253.31C1148.85 253.456 1149.1 253.535 1149.36 253.537C1149.61 253.571 1149.87 253.53 1150.11 253.418C1150.34 253.307 1150.53 253.131 1150.67 252.911C1150.76 252.704 1150.8 252.481 1150.8 252.256C1150.8 252.03 1150.76 251.807 1150.67 251.601C1150.33 250.803 1149.7 250.652 1149.74 250.5C1149.78 250.348 1150.61 250.215 1151.31 251.24C1151.51 251.543 1151.63 251.888 1151.67 252.247C1151.71 252.607 1151.67 252.971 1151.54 253.309C1151.35 253.736 1151.03 254.092 1150.62 254.324C1150.22 254.556 1149.75 254.653 1149.28 254.6C1148.86 254.595 1148.46 254.467 1148.11 254.232C1147.77 253.996 1147.5 253.665 1147.34 253.278C1147.18 252.891 1147.14 252.466 1147.22 252.057C1147.31 251.647 1147.51 251.27 1147.8 250.974C1148.66 250.063 1149.55 250.272 1149.47 250.462Z" fill="#263238"/>
<path d="M1174.39 240.082C1174.39 240.253 1173.77 240.31 1173.31 241.05C1173.19 241.239 1173.11 241.451 1173.07 241.674C1173.03 241.896 1173.05 242.123 1173.1 242.341C1173.2 242.578 1173.37 242.782 1173.58 242.927C1173.79 243.071 1174.04 243.152 1174.3 243.158C1174.55 243.195 1174.81 243.156 1175.04 243.044C1175.27 242.932 1175.46 242.753 1175.59 242.531C1175.68 242.324 1175.72 242.101 1175.72 241.876C1175.72 241.651 1175.68 241.428 1175.59 241.221C1175.27 240.424 1174.62 240.272 1174.66 240.101C1174.7 239.93 1175.53 239.836 1176.23 240.861C1176.44 241.16 1176.57 241.504 1176.61 241.865C1176.66 242.225 1176.61 242.591 1176.48 242.93C1176.28 243.355 1175.96 243.708 1175.55 243.939C1175.14 244.17 1174.67 244.269 1174.2 244.221C1173.74 244.201 1173.29 244.035 1172.93 243.745C1172.56 243.455 1172.3 243.056 1172.17 242.607C1172.1 242.252 1172.11 241.884 1172.2 241.534C1172.3 241.184 1172.48 240.862 1172.72 240.595C1173.58 239.684 1174.47 239.968 1174.39 240.082Z" fill="#263238"/>
<path d="M1182.5 221.459C1182.5 221.611 1181.86 221.668 1181.4 222.408C1181.28 222.602 1181.2 222.818 1181.17 223.043C1181.14 223.269 1181.15 223.498 1181.21 223.718C1181.3 223.956 1181.46 224.162 1181.67 224.307C1181.88 224.453 1182.13 224.532 1182.39 224.534C1182.64 224.567 1182.9 224.525 1183.13 224.413C1183.36 224.302 1183.55 224.126 1183.68 223.908C1183.77 223.701 1183.81 223.478 1183.81 223.253C1183.81 223.028 1183.77 222.805 1183.68 222.598C1183.36 221.801 1182.73 221.63 1182.75 221.478C1182.77 221.326 1183.62 221.212 1184.34 222.237C1184.54 222.539 1184.67 222.884 1184.71 223.244C1184.75 223.604 1184.7 223.968 1184.57 224.306C1184.38 224.73 1184.06 225.081 1183.65 225.31C1183.24 225.539 1182.78 225.632 1182.31 225.578C1181.84 225.56 1181.39 225.394 1181.03 225.104C1180.66 224.814 1180.39 224.416 1180.26 223.965C1180.19 223.61 1180.2 223.242 1180.3 222.893C1180.39 222.543 1180.57 222.221 1180.81 221.953C1181.67 221.06 1182.56 221.345 1182.5 221.459Z" fill="#263238"/>
<path d="M1118.65 219.658C1118.65 219.81 1118 219.867 1117.57 220.607C1117.44 220.8 1117.36 221.015 1117.33 221.241C1117.29 221.466 1117.3 221.696 1117.36 221.917C1117.45 222.154 1117.61 222.358 1117.82 222.503C1118.03 222.649 1118.28 222.729 1118.54 222.733C1118.79 222.763 1119.05 222.719 1119.28 222.608C1119.51 222.498 1119.71 222.324 1119.85 222.107C1119.94 221.901 1119.99 221.678 1119.99 221.452C1119.99 221.226 1119.94 221.003 1119.85 220.797C1119.52 220 1118.9 219.829 1118.93 219.677C1118.97 219.525 1119.81 219.411 1120.51 220.437C1120.71 220.738 1120.83 221.084 1120.87 221.444C1120.91 221.803 1120.87 222.167 1120.74 222.506C1120.55 222.931 1120.22 223.284 1119.82 223.513C1119.41 223.742 1118.94 223.835 1118.48 223.777C1118.01 223.759 1117.56 223.593 1117.19 223.303C1116.82 223.014 1116.56 222.615 1116.43 222.164C1116.35 221.807 1116.37 221.438 1116.47 221.088C1116.57 220.738 1116.75 220.416 1117 220.152C1117.83 219.26 1118.73 219.544 1118.65 219.658Z" fill="#263238"/>
<path d="M1174.36 194.108C1174.36 193.957 1175.01 193.9 1175.44 193.159C1175.57 192.969 1175.65 192.753 1175.69 192.527C1175.72 192.301 1175.71 192.07 1175.65 191.849C1175.55 191.615 1175.39 191.414 1175.18 191.269C1174.97 191.125 1174.73 191.043 1174.47 191.033C1174.22 191.001 1173.96 191.043 1173.73 191.154C1173.51 191.265 1173.31 191.441 1173.18 191.66C1173.08 191.864 1173.03 192.088 1173.03 192.315C1173.03 192.541 1173.08 192.765 1173.18 192.969C1173.51 193.767 1174.13 193.938 1174.09 194.089C1174.06 194.241 1173.22 194.355 1172.52 193.33C1172.32 193.028 1172.19 192.683 1172.15 192.323C1172.11 191.963 1172.16 191.599 1172.29 191.261C1172.48 190.835 1172.8 190.482 1173.21 190.253C1173.62 190.025 1174.09 189.932 1174.55 189.989C1174.97 189.994 1175.37 190.122 1175.72 190.358C1176.07 190.593 1176.33 190.924 1176.49 191.311C1176.65 191.698 1176.69 192.123 1176.61 192.533C1176.53 192.942 1176.32 193.319 1176.03 193.615C1175.18 194.526 1174.28 194.222 1174.36 194.108Z" fill="#263238"/>
<path d="M1149.44 183.062C1149.44 182.91 1150.08 182.853 1150.52 182.112C1150.64 181.92 1150.72 181.704 1150.76 181.479C1150.79 181.254 1150.78 181.024 1150.73 180.803C1150.63 180.567 1150.46 180.365 1150.25 180.22C1150.04 180.076 1149.79 179.995 1149.53 179.986C1149.28 179.954 1149.02 179.996 1148.79 180.107C1148.56 180.218 1148.37 180.394 1148.24 180.613C1148.15 180.82 1148.11 181.042 1148.11 181.268C1148.11 181.493 1148.15 181.716 1148.24 181.923C1148.56 182.739 1149.21 182.891 1149.17 183.043C1149.13 183.194 1148.3 183.327 1147.6 182.283C1147.34 181.947 1147.2 181.542 1147.18 181.122C1147.16 180.702 1147.26 180.286 1147.48 179.927C1147.7 179.567 1148.02 179.282 1148.4 179.106C1148.79 178.931 1149.21 178.874 1149.63 178.942C1150.09 178.962 1150.54 179.128 1150.91 179.418C1151.27 179.708 1151.53 180.107 1151.66 180.556C1151.73 180.911 1151.72 181.278 1151.62 181.628C1151.53 181.978 1151.35 182.3 1151.11 182.568C1150.25 183.479 1149.36 183.194 1149.44 183.062Z" fill="#263238"/>
<path d="M1124.8 194.108C1124.8 193.957 1125.44 193.9 1125.88 193.159C1126 192.967 1126.08 192.751 1126.12 192.526C1126.15 192.301 1126.14 192.071 1126.09 191.85C1125.99 191.614 1125.82 191.412 1125.61 191.267C1125.4 191.123 1125.15 191.041 1124.89 191.033C1124.64 191.001 1124.38 191.043 1124.15 191.154C1123.92 191.265 1123.73 191.441 1123.6 191.66C1123.51 191.866 1123.46 192.089 1123.46 192.315C1123.46 192.54 1123.51 192.763 1123.6 192.969C1123.92 193.767 1124.57 193.938 1124.53 194.089C1124.49 194.241 1123.66 194.355 1122.96 193.33C1122.7 192.993 1122.56 192.589 1122.54 192.169C1122.52 191.749 1122.62 191.333 1122.84 190.973C1123.06 190.614 1123.38 190.328 1123.76 190.153C1124.15 189.978 1124.57 189.921 1124.99 189.989C1125.45 190.009 1125.9 190.175 1126.26 190.465C1126.63 190.755 1126.89 191.153 1127.02 191.603C1127.09 191.958 1127.08 192.325 1126.98 192.675C1126.89 193.025 1126.71 193.347 1126.47 193.615C1125.61 194.526 1124.72 194.222 1124.8 194.108Z" fill="#263238"/>
<path d="M1146.28 285.641L1148.51 396.708C1148.54 398.251 1149.19 399.716 1150.3 400.784C1151.41 401.851 1152.9 402.434 1154.45 402.403C1155.95 402.369 1157.38 401.759 1158.44 400.698C1159.5 399.637 1160.11 398.208 1160.14 396.708C1160.37 376.701 1161.11 309.388 1161.22 285.527C1161.23 284.45 1161 283.385 1160.55 282.406C1160.11 281.426 1159.45 280.554 1158.64 279.851C1157.82 279.148 1156.86 278.629 1155.83 278.331C1154.79 278.033 1153.71 277.962 1152.64 278.124C1150.85 278.395 1149.22 279.306 1148.05 280.688C1146.88 282.071 1146.25 283.83 1146.28 285.641Z" fill="#005490"/>
<g opacity="0.3">
<path d="M1146.28 285.641L1148.51 396.708C1148.54 398.251 1149.19 399.716 1150.3 400.784C1151.41 401.851 1152.9 402.434 1154.45 402.403C1155.95 402.369 1157.38 401.759 1158.44 400.698C1159.5 399.637 1160.11 398.208 1160.14 396.708C1160.37 376.701 1161.11 309.388 1161.22 285.527C1161.23 284.45 1161 283.385 1160.55 282.406C1160.11 281.426 1159.45 280.554 1158.64 279.851C1157.82 279.148 1156.86 278.629 1155.83 278.331C1154.79 278.033 1153.71 277.962 1152.64 278.124C1150.85 278.395 1149.22 279.306 1148.05 280.688C1146.88 282.071 1146.25 283.83 1146.28 285.641Z" fill="black"/>
</g>
<path d="M1149.72 82.4642C1150.04 82.8438 1146.36 86.4126 1140.98 92.6768C1138.29 95.79 1135.29 99.6625 1132.12 104.066C1128.75 108.899 1125.64 113.911 1122.82 119.082C1120.06 124.283 1117.6 129.631 1115.43 135.103C1113.53 140.172 1111.92 144.822 1110.8 148.79C1108.54 156.724 1107.59 161.774 1107 161.698C1106.42 161.622 1106.8 156.459 1108.54 148.239C1109.59 143.436 1110.94 138.706 1112.6 134.078C1114.66 128.409 1117.11 122.891 1119.93 117.563C1122.83 112.292 1126.08 107.219 1129.65 102.377C1132.6 98.4401 1135.8 94.699 1139.24 91.1772C1145.22 85.1217 1149.47 82.1794 1149.72 82.4642Z" fill="white"/>
<path d="M1098.22 289.058C1098.52 289.532 1093.26 292.854 1085.93 299.726L1083.1 302.422C1082.12 303.371 1081.21 304.453 1080.18 305.497C1078.11 307.585 1076.18 310.053 1074.07 312.577C1069.67 318.191 1065.76 324.174 1062.39 330.459C1059.11 336.797 1056.37 343.401 1054.19 350.201C1053.3 353.352 1052.3 356.352 1051.8 359.218C1051.5 360.661 1051.14 362.027 1050.91 363.375C1050.68 364.723 1050.47 365.995 1050.28 367.172C1048.8 377.062 1048.94 383.307 1048.39 383.326C1048.16 383.326 1047.95 381.788 1047.76 378.941C1047.76 378.22 1047.66 377.422 1047.63 376.568C1047.59 375.714 1047.63 374.765 1047.63 373.759C1047.64 371.469 1047.77 369.182 1048.02 366.906C1048.16 365.634 1048.31 364.305 1048.46 362.92C1048.61 361.534 1048.94 360.11 1049.18 358.648C1049.66 355.668 1050.51 352.574 1051.37 349.309C1055.4 335.148 1062.35 321.989 1071.77 310.679C1073.82 308.218 1075.98 305.862 1078.26 303.618C1079.33 302.574 1080.33 301.511 1081.38 300.599L1084.41 297.999C1086.15 296.505 1087.97 295.104 1089.86 293.804C1090.68 293.215 1091.44 292.646 1092.16 292.171L1094.19 290.956C1096.75 289.57 1098.08 288.868 1098.22 289.058Z" fill="white"/>
<path d="M1060.11 569.138C1058.36 568.148 1056.96 566.647 1056.1 564.836C1055.23 563.026 1054.94 560.994 1055.27 559.014C1055.59 557.034 1056.52 555.201 1057.92 553.763C1059.32 552.324 1061.12 551.35 1063.09 550.971C1066.65 550.27 1071.1 551.282 1073.33 548.375C1075.37 545.78 1073.84 542.354 1074.73 538.202C1075.63 534.049 1079.2 532.09 1083.13 532.142C1085.1 532.256 1087.01 532.868 1088.68 533.921C1090.35 534.974 1091.73 536.434 1092.68 538.163C1094.78 542.008 1095.73 546.378 1095.42 550.75C1094.37 559.717 1089.58 564.311 1083.62 568.113C1077.67 571.915 1066.39 572.784 1060.11 569.06" fill="#005490"/>
<g opacity="0.8">
<path d="M1060.11 569.138C1058.36 568.148 1056.96 566.647 1056.1 564.836C1055.23 563.026 1054.94 560.994 1055.27 559.014C1055.59 557.034 1056.52 555.201 1057.92 553.763C1059.32 552.324 1061.12 551.35 1063.09 550.971C1066.65 550.27 1071.1 551.282 1073.33 548.375C1075.37 545.78 1073.84 542.354 1074.73 538.202C1075.63 534.049 1079.2 532.09 1083.13 532.142C1085.1 532.256 1087.01 532.868 1088.68 533.921C1090.35 534.974 1091.73 536.434 1092.68 538.163C1094.78 542.008 1095.73 546.378 1095.42 550.75C1094.37 559.717 1089.58 564.311 1083.62 568.113C1077.67 571.915 1066.39 572.784 1060.11 569.06" fill="white"/>
</g>
<path d="M1205.69 497.265C1207.14 494.498 1209.39 492.24 1212.16 490.793C1214.93 489.345 1218.07 488.778 1221.16 489.166C1224.26 489.554 1227.17 490.88 1229.49 492.965C1231.81 495.05 1233.44 497.796 1234.16 500.833C1235.46 506.348 1234.16 513.33 1238.74 516.665C1242.91 519.688 1248.18 517.08 1254.72 518.222C1261.26 519.364 1264.53 524.814 1264.67 530.965C1264.81 537.116 1261.05 542.955 1255.84 546.225C1249.97 549.738 1243.22 551.486 1236.38 551.26C1222.33 550.157 1214.86 542.955 1208.57 533.898C1202.28 524.84 1200.25 507.283 1205.69 497.265Z" fill="#005490"/>
<g opacity="0.8">
<path d="M1205.69 497.265C1207.13 494.498 1209.39 492.24 1212.16 490.793C1214.92 489.345 1218.07 488.778 1221.16 489.166C1224.26 489.554 1227.16 490.88 1229.49 492.965C1231.81 495.05 1233.44 497.796 1234.16 500.833C1235.46 506.348 1234.16 513.33 1238.74 516.665C1242.91 519.688 1248.17 517.08 1254.71 518.222C1261.25 519.364 1264.52 524.814 1264.67 530.965C1264.81 537.116 1261.05 542.955 1255.84 546.225C1249.97 549.738 1243.22 551.486 1236.38 551.26C1222.32 550.157 1214.86 542.955 1208.57 533.898C1202.28 524.84 1200.25 507.283 1205.69 497.265Z" fill="white"/>
</g>
<path d="M1100.83 478.858C1099.26 479.663 1097.95 480.883 1097.04 482.385C1096.12 483.887 1095.64 485.612 1095.64 487.371C1095.7 489.325 1096.4 491.206 1097.62 492.734C1098.84 494.262 1100.52 495.356 1102.41 495.853C1104.3 496.35 1106.3 496.224 1108.11 495.493C1109.93 494.762 1111.45 493.466 1112.47 491.797C1113.49 490.128 1113.94 488.175 1113.76 486.228C1113.58 484.281 1112.78 482.445 1111.47 480.992C1110.16 479.538 1108.42 478.546 1106.5 478.162C1104.59 477.777 1102.6 478.022 1100.83 478.858Z" fill="#005490"/>
<g opacity="0.8">
<path d="M1100.83 478.858C1099.26 479.663 1097.95 480.883 1097.04 482.385C1096.12 483.887 1095.64 485.612 1095.64 487.371C1095.7 489.325 1096.4 491.206 1097.62 492.734C1098.84 494.262 1100.52 495.356 1102.41 495.853C1104.3 496.35 1106.3 496.224 1108.11 495.493C1109.93 494.762 1111.45 493.466 1112.47 491.797C1113.49 490.128 1113.94 488.175 1113.76 486.228C1113.58 484.281 1112.78 482.445 1111.47 480.992C1110.16 479.538 1108.42 478.546 1106.5 478.162C1104.59 477.777 1102.6 478.022 1100.83 478.858Z" fill="white"/>
</g>
</g>
<defs>
<linearGradient id="paint0_linear_4803_2238" x1="-5.51958e-06" y1="36.0382" x2="1493" y2="662" gradientUnits="userSpaceOnUse">
<stop stop-color="#F1F9FF"/>
<stop offset="1" stop-color="#EFEFEF"/>
</linearGradient>
<clipPath id="clip0_4803_2238">
<rect width="1520" height="682" rx="40" fill="white"/>
</clipPath>
</defs>
</svg>
