<svg width="80" height="80" viewBox="0 0 80 80" fill="none" xmlns="http://www.w3.org/2000/svg">
<rect width="80" height="80" rx="10" fill="#DBDAD8"/>
<path d="M57.5 22.5H53.3V21.1C53.3 20.543 53.0788 20.0089 52.6849 19.6151C52.2911 19.2212 51.757 19 51.2 19C50.643 19 50.1089 19.2212 49.7151 19.6151C49.3212 20.0089 49.1 20.543 49.1 21.1V22.5H42.1V21.1C42.1 20.543 41.8787 20.0089 41.4849 19.6151C41.0911 19.2212 40.557 19 40 19C39.443 19 38.9089 19.2212 38.5151 19.6151C38.1213 20.0089 37.9 20.543 37.9 21.1V22.5H30.9V21.1C30.9 20.543 30.6788 20.0089 30.2849 19.6151C29.8911 19.2212 29.357 19 28.8 19C28.243 19 27.7089 19.2212 27.3151 19.6151C26.9212 20.0089 26.7 20.543 26.7 21.1V22.5H22.5C21.5721 22.5011 20.6825 22.8702 20.0264 23.5264C19.3702 24.1825 19.0011 25.0721 19 26V57.5C19.0011 58.4279 19.3702 59.3175 20.0264 59.9736C20.6825 60.6298 21.5721 60.9989 22.5 61H57.5C58.4279 60.9989 59.3175 60.6298 59.9736 59.9736C60.6298 59.3175 60.9989 58.4279 61 57.5V26C60.9989 25.0721 60.6298 24.1825 59.9736 23.5264C59.3175 22.8702 58.4279 22.5011 57.5 22.5ZM50.5 21.1C50.5 20.9143 50.5737 20.7363 50.705 20.605C50.8363 20.4737 51.0143 20.4 51.2 20.4C51.3857 20.4 51.5637 20.4737 51.695 20.605C51.8263 20.7363 51.9 20.9143 51.9 21.1V25.3C51.9 25.4857 51.8263 25.6637 51.695 25.795C51.5637 25.9262 51.3857 26 51.2 26C51.0143 26 50.8363 25.9262 50.705 25.795C50.5737 25.6637 50.5 25.4857 50.5 25.3V21.1ZM39.3 21.1C39.3 20.9143 39.3737 20.7363 39.505 20.605C39.6363 20.4737 39.8143 20.4 40 20.4C40.1857 20.4 40.3637 20.4737 40.495 20.605C40.6263 20.7363 40.7 20.9143 40.7 21.1V25.3C40.7 25.4857 40.6263 25.6637 40.495 25.795C40.3637 25.9262 40.1857 26 40 26C39.8143 26 39.6363 25.9262 39.505 25.795C39.3737 25.6637 39.3 25.4857 39.3 25.3V21.1ZM28.1 21.1C28.1 20.9143 28.1737 20.7363 28.305 20.605C28.4363 20.4737 28.6143 20.4 28.8 20.4C28.9857 20.4 29.1637 20.4737 29.295 20.605C29.4263 20.7363 29.5 20.9143 29.5 21.1V25.3C29.5 25.4857 29.4263 25.6637 29.295 25.795C29.1637 25.9262 28.9857 26 28.8 26C28.6143 26 28.4363 25.9262 28.305 25.795C28.1737 25.6637 28.1 25.4857 28.1 25.3V21.1ZM20.4 26C20.4 25.443 20.6212 24.9089 21.0151 24.5151C21.4089 24.1212 21.943 23.9 22.5 23.9H26.7V25.3C26.7 25.857 26.9212 26.3911 27.3151 26.7849C27.7089 27.1788 28.243 27.4 28.8 27.4C29.357 27.4 29.8911 27.1788 30.2849 26.7849C30.6788 26.3911 30.9 25.857 30.9 25.3V23.9H37.9V25.3C37.9 25.857 38.1213 26.3911 38.5151 26.7849C38.9089 27.1788 39.443 27.4 40 27.4C40.557 27.4 41.0911 27.1788 41.4849 26.7849C41.8787 26.3911 42.1 25.857 42.1 25.3V23.9H49.1V25.3C49.1 25.857 49.3212 26.3911 49.7151 26.7849C50.1089 27.1788 50.643 27.4 51.2 27.4C51.757 27.4 52.2911 27.1788 52.6849 26.7849C53.0788 26.3911 53.3 25.857 53.3 25.3V23.9H57.5C58.057 23.9 58.5911 24.1212 58.9849 24.5151C59.3787 24.9089 59.6 25.443 59.6 26V30.9H20.4V26ZM57.5 59.6H22.5C21.943 59.6 21.4089 59.3787 21.0151 58.9849C20.6212 58.5911 20.4 58.057 20.4 57.5V57.4818C21.0023 57.9451 21.7402 58.1974 22.5 58.2H50.738C51.2203 58.1971 51.6968 58.0952 52.138 57.9004C52.1782 57.8838 52.2167 57.8631 52.2528 57.8388C52.6082 57.6736 52.9332 57.4495 53.2139 57.1759L59.6 50.7898V57.5C59.6 58.057 59.3787 58.5911 58.9849 58.9849C58.5911 59.3787 58.057 59.6 57.5 59.6ZM52.6 55.8102V51.501C52.6006 51.05 52.7799 50.6177 53.0988 50.2988C53.4177 49.9799 53.85 49.8006 54.301 49.8H58.6102L52.6 55.8102ZM59.6 47.938C59.5983 48.0936 59.5793 48.2486 59.5433 48.4H54.301C53.4788 48.4009 52.6906 48.7279 52.1093 49.3093C51.5279 49.8906 51.2009 50.6788 51.2 51.501V56.7433C51.0486 56.7793 50.8936 56.7983 50.738 56.8H22.5C21.943 56.8 21.4089 56.5788 21.0151 56.1849C20.6212 55.7911 20.4 55.257 20.4 54.7V32.3H59.6V47.938Z" fill="black"/>
<path d="M29.776 54.4253C29.8606 54.4253 29.9445 54.4102 30.0238 54.3805L44.378 48.9359C44.4873 48.8944 44.5844 48.8262 44.6605 48.7376C44.7367 48.6489 44.7894 48.5426 44.8139 48.4283C44.8384 48.314 44.8339 48.1954 44.8008 48.0833C44.7677 47.9712 44.7071 47.8692 44.6244 47.7865L35.7155 38.8769C35.6329 38.7943 35.5308 38.7336 35.4187 38.7005C35.3066 38.6674 35.188 38.6629 35.0738 38.6874C34.9595 38.7119 34.8532 38.7647 34.7645 38.8408C34.6758 38.9169 34.6076 39.0141 34.5661 39.1233L29.1215 53.4775C29.0814 53.5835 29.0676 53.6976 29.0813 53.81C29.095 53.9225 29.1358 54.0299 29.2002 54.1231C29.2645 54.2163 29.3506 54.2925 29.4509 54.3452C29.5511 54.3978 29.6627 54.4253 29.776 54.4253ZM39.5291 49.2775L39.1791 44.3166L42.8702 48.0105L39.5291 49.2775ZM35.4915 40.6311L37.6615 42.8011L38.1606 49.7913L35.67 50.7356L35.0337 41.8267L35.4915 40.6311ZM33.857 44.9396L34.3071 51.2571L30.9814 52.5171L33.857 44.9396Z" fill="black"/>
<path d="M41.159 41.3497C41.0922 41.4142 41.0388 41.4915 41.0021 41.5769C40.9655 41.6623 40.9461 41.7541 40.9453 41.8471C40.9445 41.94 40.9622 42.0322 40.9974 42.1182C41.0326 42.2043 41.0846 42.2824 41.1503 42.3481C41.2161 42.4139 41.2942 42.4658 41.3802 42.501C41.4663 42.5362 41.5584 42.5539 41.6514 42.5531C41.7443 42.5523 41.8362 42.533 41.9216 42.4963C42.007 42.4596 42.0842 42.4063 42.1488 42.3395L45.1182 39.3694C45.2405 39.2365 45.3068 39.0614 45.303 38.8808C45.2993 38.7002 45.2259 38.5281 45.0981 38.4003C44.9704 38.2726 44.7983 38.1992 44.6177 38.1955C44.4371 38.1917 44.262 38.2579 44.1291 38.3803L41.159 41.3497Z" fill="black"/>
<path d="M39.0698 39.9617C39.145 39.9615 39.2197 39.9492 39.291 39.9253C39.8462 39.7211 40.3504 39.3987 40.7688 38.9803C41.1871 38.562 41.5095 38.0578 41.7137 37.5026C41.8422 36.7512 41.8533 35.9845 41.7466 35.2297C41.7275 35.045 41.6358 34.8754 41.4916 34.7583C41.3475 34.6412 41.1627 34.5862 40.978 34.6053C40.7933 34.6244 40.6237 34.7161 40.5066 34.8603C40.3895 35.0044 40.3345 35.1892 40.3536 35.3739C40.4272 35.933 40.4382 36.4986 40.3865 37.0602C40.2506 37.4096 40.0435 37.727 39.7784 37.9921C39.5133 38.2572 39.1959 38.4643 38.8465 38.6002C38.6886 38.6526 38.5546 38.7596 38.4684 38.9019C38.3822 39.0443 38.3496 39.2126 38.3763 39.3769C38.403 39.5411 38.4873 39.6904 38.6141 39.7981C38.741 39.9058 38.902 39.9648 39.0684 39.9645L39.0698 39.9617Z" fill="black"/>
<path d="M45.997 41.7872C45.4422 41.9917 44.9384 42.3142 44.5202 42.7324C44.1021 43.1505 43.7796 43.6543 43.575 44.2092C43.5163 44.3852 43.5299 44.5775 43.6129 44.7435C43.6958 44.9096 43.8414 45.0359 44.0174 45.0947C44.0889 45.1189 44.1639 45.1312 44.2393 45.1311C44.3862 45.1309 44.5293 45.0847 44.6484 44.9987C44.7675 44.9128 44.8565 44.7916 44.9029 44.6523C45.0377 44.303 45.2438 43.9856 45.5081 43.7204C45.7725 43.4553 46.0892 43.2481 46.438 43.1123C47.0005 43.0598 47.567 43.0704 48.1271 43.1438C48.3098 43.1592 48.4913 43.1023 48.6325 42.9854C48.7737 42.8684 48.8634 42.7007 48.8823 42.5184C48.9012 42.336 48.8478 42.1535 48.7335 42.0101C48.6193 41.8667 48.4533 41.7738 48.2713 41.7515C47.516 41.645 46.7487 41.657 45.997 41.7872Z" fill="black"/>
<path d="M46.2996 37.9C46.6862 37.9 46.9996 37.5866 46.9996 37.2C46.9996 36.8134 46.6862 36.5 46.2996 36.5C45.913 36.5 45.5996 36.8134 45.5996 37.2C45.5996 37.5866 45.913 37.9 46.2996 37.9Z" fill="black"/>
<path d="M41.3992 34.4C41.7858 34.4 42.0992 34.0866 42.0992 33.7C42.0992 33.3134 41.7858 33 41.3992 33C41.0126 33 40.6992 33.3134 40.6992 33.7C40.6992 34.0866 41.0126 34.4 41.3992 34.4Z" fill="black"/>
<path d="M47.0027 40.7008C47.3893 40.7008 47.7027 40.3874 47.7027 40.0008C47.7027 39.6142 47.3893 39.3008 47.0027 39.3008C46.6161 39.3008 46.3027 39.6142 46.3027 40.0008C46.3027 40.3874 46.6161 40.7008 47.0027 40.7008Z" fill="black"/>
<path d="M43.5008 37.1969C43.8874 37.1969 44.2008 36.8835 44.2008 36.4969C44.2008 36.1103 43.8874 35.7969 43.5008 35.7969C43.1142 35.7969 42.8008 36.1103 42.8008 36.4969C42.8008 36.8835 43.1142 37.1969 43.5008 37.1969Z" fill="black"/>
<path d="M37.2 37.1969C37.5866 37.1969 37.9 36.8835 37.9 36.4969C37.9 36.1103 37.5866 35.7969 37.2 35.7969C36.8134 35.7969 36.5 36.1103 36.5 36.4969C36.5 36.8835 36.8134 37.1969 37.2 37.1969Z" fill="black"/>
<path d="M47.698 47.7008C48.0846 47.7008 48.398 47.3874 48.398 47.0008C48.398 46.6142 48.0846 46.3008 47.698 46.3008C47.3114 46.3008 46.998 46.6142 46.998 47.0008C46.998 47.3874 47.3114 47.7008 47.698 47.7008Z" fill="black"/>
</svg>
