<svg width="80" height="80" viewBox="0 0 80 80" fill="none" xmlns="http://www.w3.org/2000/svg">
<rect width="80" height="80" rx="8.30603" fill="#C6C5FF"/>
<path d="M39.387 57.9419H23.0878C22.5109 57.9419 22.0416 57.4726 22.0416 56.8957C22.0416 56.7689 22.0629 56.6467 22.1024 56.5433C22.1081 56.5282 22.106 56.5121 22.1102 56.497C22.1169 56.4742 22.1294 56.4539 22.1325 56.4295C22.395 54.5974 31.4235 48.7128 37.1625 48.3646C37.1927 48.3625 37.2181 48.349 37.2467 48.3422C37.281 48.3339 37.3158 48.3303 37.347 48.3152C37.3782 48.3012 37.4021 48.2793 37.4291 48.2601C37.4562 48.2404 37.4848 48.2243 37.5076 48.2003C37.5305 48.1759 37.545 48.1463 37.5627 48.1177C37.5804 48.0896 37.6007 48.0642 37.6126 48.033C37.6251 48.0008 37.6272 47.9659 37.6329 47.9316C37.6381 47.9025 37.65 47.876 37.65 47.8454L37.6454 45.1915C37.6454 45.151 37.6308 45.1151 37.622 45.0772C37.6152 45.0481 37.6157 45.0169 37.6043 44.9899C37.5923 44.9608 37.57 44.9389 37.5528 44.9135C37.5331 44.8833 37.518 44.8501 37.4926 44.8246C37.4775 44.81 37.4567 44.8022 37.4395 44.7893C37.4037 44.7612 37.3694 44.7316 37.3273 44.7134C37.2649 44.6874 37.1968 44.6728 37.1251 44.6728C35.2613 44.6728 32.3767 40.4172 32.3767 37.6672C32.3767 37.3803 32.1439 37.1474 31.857 37.1474C31.8559 37.1474 31.8544 37.148 31.8533 37.148C31.2255 37.1454 30.7156 36.4978 30.7156 35.7015V34.6641C30.7156 34.373 30.9438 34.1449 31.2353 34.1449H31.6974C31.9843 34.1449 32.2171 33.912 32.2171 33.6251C32.2171 33.6205 32.2145 33.6168 32.2145 33.6127V30.227C32.2145 30.2208 32.2182 30.2161 32.2182 30.2094C32.2182 25.7047 35.9822 22.04 40.6095 22.04C45.2357 22.04 48.9997 25.7047 48.9997 30.2094V33.6121C48.9997 33.6168 48.9971 33.6205 48.9971 33.6246C48.9971 33.9115 49.2294 34.1444 49.5169 34.1444H49.98C50.2715 34.1444 50.4997 34.3725 50.4997 34.6636V35.7031C50.4997 35.7046 50.5007 35.7062 50.5007 35.7083C50.4997 36.1407 50.3443 36.5456 50.0735 36.8216C49.8718 37.0263 49.875 37.3553 50.0797 37.5565C50.1811 37.6558 50.3126 37.7056 50.4441 37.7056C50.5787 37.7056 50.7133 37.6537 50.8147 37.5502C51.283 37.0736 51.5408 36.4177 51.5408 35.7031C51.5408 35.7005 51.5392 35.6984 51.5392 35.6953V34.6631C51.5392 33.8237 50.8713 33.1423 50.0392 33.1106V30.2062C50.0371 25.1294 45.808 21 40.6095 21C35.4188 21 31.1953 25.1164 31.1802 30.1818C31.1797 30.1907 31.1751 30.1979 31.1751 30.2062V33.1106C30.3435 33.1433 29.6761 33.8242 29.6761 34.6631V35.7026C29.6761 35.7031 29.6761 35.7036 29.6761 35.7041C29.6777 36.8798 30.4001 37.8611 31.3642 38.1173C31.62 41.0133 34.2249 45.1021 36.6059 45.6479L36.609 47.3698C30.9406 47.9971 21.7006 53.5828 21.1258 56.1852C21.0431 56.4056 21 56.6436 21 56.8941C21 58.0433 21.9345 58.9783 23.0831 58.9793C23.0837 58.9793 23.0837 58.9799 23.0842 58.9799H39.3844C39.6713 58.9799 39.9042 58.7475 39.9042 58.4601C39.9042 58.1727 39.6739 57.9419 39.387 57.9419Z" fill="black" stroke="black" stroke-width="0.4"/>
<path d="M49.3568 39.6594C44.155 39.6594 39.923 43.8913 39.923 49.0932C39.923 54.295 44.155 58.527 49.3568 58.527C54.5582 58.527 58.7896 54.295 58.7896 49.0932C58.7896 43.8913 54.5577 39.6594 49.3568 39.6594ZM49.3568 57.087C44.9491 57.087 41.3625 53.5008 41.3625 49.0926C41.3625 44.6844 44.9486 41.0983 49.3568 41.0983C53.764 41.0983 57.3501 44.6844 57.3501 49.0926C57.3501 53.5009 53.764 57.087 49.3568 57.087Z" fill="black" stroke="black" stroke-width="0.4"/>
<path d="M53.6 49.3859C53.2021 49.3859 52.8803 49.7078 52.8803 50.1057C52.8803 51.2482 52.5926 52.0446 52.0352 52.5595C51.4744 53.0775 50.6026 53.3464 49.3558 53.3464C48.109 53.3464 47.2372 53.0774 46.6764 52.5593C46.1189 52.0443 45.8313 51.248 45.8313 50.1057C45.8313 49.7078 45.5094 49.3859 45.1115 49.3859C44.7137 49.3859 44.3918 49.7078 44.3918 50.1057C44.3918 51.6084 44.8149 52.7885 45.6681 53.5907C46.5192 54.3911 47.767 54.7859 49.3558 54.7859C50.9445 54.7859 52.1923 54.3911 53.0434 53.5907C53.8966 52.7885 54.3198 51.6084 54.3198 50.1057C54.3198 49.7077 53.9972 49.3859 53.6 49.3859Z" fill="black" stroke="black" stroke-width="0.4"/>
<path d="M46.8076 47.0965C47.555 47.0965 48.1609 46.4906 48.1609 45.7432C48.1609 44.9957 47.555 44.3898 46.8076 44.3898C46.0602 44.3898 45.4543 44.9957 45.4543 45.7432C45.4543 46.4906 46.0602 47.0965 46.8076 47.0965Z" fill="black" stroke="black" stroke-width="0.4"/>
<path d="M51.9033 47.0965C52.6507 47.0965 53.2566 46.4906 53.2566 45.7432C53.2566 44.9957 52.6507 44.3898 51.9033 44.3898C51.1559 44.3898 50.55 44.9957 50.55 45.7432C50.55 46.4906 51.1559 47.0965 51.9033 47.0965Z" fill="black" stroke="black" stroke-width="0.4"/>
</svg>
