<svg width="80" height="80" viewBox="0 0 80 80" fill="none" xmlns="http://www.w3.org/2000/svg">
<rect width="80" height="80" rx="10" fill="#93E7FE"/>
<path d="M59.4418 20.5549H54.7752V18.9993C54.7752 18.3805 54.5293 17.787 54.0917 17.3494C53.6542 16.9118 53.0607 16.666 52.4418 16.666C51.823 16.666 51.2295 16.9118 50.7919 17.3494C50.3543 17.787 50.1085 18.3805 50.1085 18.9993V20.5549H42.3307V18.9993C42.3307 18.3805 42.0849 17.787 41.6473 17.3494C41.2097 16.9118 40.6162 16.666 39.9974 16.666C39.3786 16.666 38.7851 16.9118 38.3475 17.3494C37.9099 17.787 37.6641 18.3805 37.6641 18.9993V20.5549H29.8863V18.9993C29.8863 18.3805 29.6404 17.787 29.2029 17.3494C28.7653 16.9118 28.1718 16.666 27.5529 16.666C26.9341 16.666 26.3406 16.9118 25.903 17.3494C25.4654 17.787 25.2196 18.3805 25.2196 18.9993V20.5549H20.553C19.5219 20.5561 18.5335 20.9663 17.8045 21.6953C17.0754 22.4243 16.6653 23.4128 16.6641 24.4438V59.4438C16.6653 60.4748 17.0754 61.4632 17.8045 62.1923C18.5335 62.9213 19.5219 63.3314 20.553 63.3327H59.4418C60.4729 63.3314 61.4613 62.9213 62.1903 62.1923C62.9194 61.4632 63.3295 60.4748 63.3307 59.4438V24.4438C63.3295 23.4128 62.9194 22.4243 62.1903 21.6953C61.4613 20.9663 60.4729 20.5561 59.4418 20.5549ZM51.6641 18.9993C51.6641 18.7931 51.746 18.5952 51.8919 18.4494C52.0377 18.3035 52.2356 18.2216 52.4418 18.2216C52.6481 18.2216 52.8459 18.3035 52.9918 18.4494C53.1377 18.5952 53.2196 18.7931 53.2196 18.9993V23.666C53.2196 23.8723 53.1377 24.0701 52.9918 24.216C52.8459 24.3618 52.6481 24.4438 52.4418 24.4438C52.2356 24.4438 52.0377 24.3618 51.8919 24.216C51.746 24.0701 51.6641 23.8723 51.6641 23.666V18.9993ZM39.2196 18.9993C39.2196 18.7931 39.3016 18.5952 39.4474 18.4494C39.5933 18.3035 39.7911 18.2216 39.9974 18.2216C40.2037 18.2216 40.4015 18.3035 40.5474 18.4494C40.6932 18.5952 40.7752 18.7931 40.7752 18.9993V23.666C40.7752 23.8723 40.6932 24.0701 40.5474 24.216C40.4015 24.3618 40.2037 24.4438 39.9974 24.4438C39.7911 24.4438 39.5933 24.3618 39.4474 24.216C39.3016 24.0701 39.2196 23.8723 39.2196 23.666V18.9993ZM26.7752 18.9993C26.7752 18.7931 26.8571 18.5952 27.003 18.4494C27.1488 18.3035 27.3467 18.2216 27.5529 18.2216C27.7592 18.2216 27.9571 18.3035 28.1029 18.4494C28.2488 18.5952 28.3307 18.7931 28.3307 18.9993V23.666C28.3307 23.8723 28.2488 24.0701 28.1029 24.216C27.9571 24.3618 27.7592 24.4438 27.5529 24.4438C27.3467 24.4438 27.1488 24.3618 27.003 24.216C26.8571 24.0701 26.7752 23.8723 26.7752 23.666V18.9993ZM18.2196 24.4438C18.2196 23.825 18.4655 23.2315 18.903 22.7939C19.3406 22.3563 19.9341 22.1105 20.553 22.1105H25.2196V23.666C25.2196 24.2849 25.4654 24.8783 25.903 25.3159C26.3406 25.7535 26.9341 25.9993 27.5529 25.9993C28.1718 25.9993 28.7653 25.7535 29.2029 25.3159C29.6404 24.8783 29.8863 24.2849 29.8863 23.666V22.1105H37.6641V23.666C37.6641 24.2849 37.9099 24.8783 38.3475 25.3159C38.7851 25.7535 39.3786 25.9993 39.9974 25.9993C40.6162 25.9993 41.2097 25.7535 41.6473 25.3159C42.0849 24.8783 42.3307 24.2849 42.3307 23.666V22.1105H50.1085V23.666C50.1085 24.2849 50.3543 24.8783 50.7919 25.3159C51.2295 25.7535 51.823 25.9993 52.4418 25.9993C53.0607 25.9993 53.6542 25.7535 54.0917 25.3159C54.5293 24.8783 54.7752 24.2849 54.7752 23.666V22.1105H59.4418C60.0607 22.1105 60.6542 22.3563 61.0917 22.7939C61.5293 23.2315 61.7752 23.825 61.7752 24.4438V29.8882H18.2196V24.4438ZM59.4418 61.7771H20.553C19.9341 61.7771 19.3406 61.5313 18.903 61.0937C18.4655 60.6561 18.2196 60.0626 18.2196 59.4438V59.4236C18.8888 59.9383 19.7087 60.2187 20.553 60.2216H51.9285C52.4644 60.2184 52.9938 60.1051 53.4841 59.8887C53.5288 59.8702 53.5715 59.8473 53.6116 59.8202C54.0065 59.6367 54.3676 59.3876 54.6795 59.0837L61.7752 51.988V59.4438C61.7752 60.0626 61.5293 60.6561 61.0917 61.0937C60.6542 61.5313 60.0607 61.7771 59.4418 61.7771ZM53.9974 57.5662V52.7782C53.998 52.2772 54.1973 51.7968 54.5516 51.4425C54.9059 51.0882 55.3863 50.8888 55.8874 50.8882H60.6754L53.9974 57.5662ZM61.7752 48.8193C61.7733 48.9923 61.7522 49.1644 61.7122 49.3327H55.8874C54.9739 49.3337 54.0981 49.697 53.4521 50.343C52.8062 50.9889 52.4429 51.8647 52.4418 52.7782V58.603C52.2736 58.643 52.1014 58.6642 51.9285 58.666H20.553C19.9341 58.666 19.3406 58.4202 18.903 57.9826C18.4655 57.545 18.2196 56.9515 18.2196 56.3327V31.4438H61.7752V48.8193Z" fill="black"/>
<path d="M28.637 56.0263C28.731 56.0263 28.8242 56.0094 28.9123 55.9765L44.8614 49.927C44.9828 49.8809 45.0907 49.8051 45.1753 49.7066C45.2599 49.608 45.3185 49.4899 45.3457 49.3629C45.373 49.2359 45.368 49.1041 45.3312 48.9796C45.2944 48.855 45.227 48.7417 45.1352 48.6499L35.2364 38.7503C35.1446 38.6585 35.0312 38.5911 34.9067 38.5543C34.7821 38.5175 34.6503 38.5125 34.5234 38.5397C34.3964 38.567 34.2782 38.6255 34.1797 38.7101C34.0812 38.7948 34.0054 38.9027 33.9593 39.0241L27.9097 54.9732C27.8652 55.0909 27.8499 55.2177 27.8651 55.3426C27.8803 55.4675 27.9256 55.5869 27.9971 55.6905C28.0687 55.794 28.1642 55.8787 28.2757 55.9372C28.3871 55.9957 28.5111 56.0263 28.637 56.0263ZM39.4737 50.3065L39.0848 44.7944L43.1861 48.8988L39.4737 50.3065ZM34.9875 40.6994L37.3986 43.1105L37.9532 50.8774L35.1858 51.9266L34.4789 42.0279L34.9875 40.6994ZM33.1714 45.4866L33.6715 52.5061L29.9763 53.9061L33.1714 45.4866Z" fill="black"/>
<path d="M41.2843 41.5C41.21 41.5717 41.1508 41.6575 41.11 41.7524C41.0693 41.8473 41.0478 41.9494 41.0469 42.0526C41.046 42.1559 41.0657 42.2583 41.1048 42.3539C41.1439 42.4495 41.2017 42.5363 41.2747 42.6094C41.3477 42.6824 41.4345 42.7401 41.5301 42.7793C41.6257 42.8184 41.7281 42.838 41.8314 42.8371C41.9347 42.8362 42.0367 42.8148 42.1316 42.774C42.2265 42.7333 42.3124 42.674 42.3841 42.5997L45.6834 39.2996C45.8194 39.1519 45.8929 38.9574 45.8888 38.7568C45.8846 38.5561 45.803 38.3648 45.6611 38.2229C45.5192 38.081 45.3279 37.9994 45.1273 37.9953C44.9266 37.9911 44.7321 38.0647 44.5844 38.2006L41.2843 41.5Z" fill="black"/>
<path d="M38.9643 39.9557C39.0478 39.9555 39.1308 39.9418 39.2101 39.9152C39.827 39.6884 40.3872 39.3301 40.852 38.8653C41.3168 38.4005 41.675 37.8403 41.9019 37.2234C42.0447 36.3885 42.057 35.5366 41.9385 34.6979C41.9172 34.4927 41.8153 34.3043 41.6552 34.1742C41.495 34.044 41.2897 33.9829 41.0845 34.0041C40.8792 34.0254 40.6908 34.1273 40.5607 34.2875C40.4306 34.4476 40.3695 34.6529 40.3907 34.8581C40.4725 35.4794 40.4848 36.1078 40.4273 36.7318C40.2763 37.1201 40.0462 37.4727 39.7516 37.7672C39.457 38.0618 39.1044 38.2919 38.7162 38.4429C38.5407 38.5012 38.3918 38.6201 38.296 38.7782C38.2003 38.9363 38.164 39.1234 38.1937 39.3059C38.2234 39.4884 38.3171 39.6543 38.458 39.7739C38.5989 39.8936 38.7779 39.9591 38.9627 39.9588L38.9643 39.9557Z" fill="black"/>
<path d="M46.6608 41.9846C46.0443 42.212 45.4845 42.5703 45.0199 43.0349C44.5553 43.4995 44.197 44.0593 43.9697 44.6758C43.9044 44.8714 43.9195 45.085 44.0117 45.2695C44.1039 45.454 44.2656 45.5943 44.4612 45.6596C44.5406 45.6866 44.6239 45.7003 44.7078 45.7001C44.8709 45.7 45.0299 45.6485 45.1623 45.5531C45.2946 45.4576 45.3935 45.3229 45.4451 45.1681C45.5948 44.78 45.8239 44.4273 46.1175 44.1327C46.4112 43.8381 46.7631 43.608 47.1508 43.457C47.7757 43.3987 48.4052 43.4105 49.0275 43.492C49.2305 43.5091 49.4322 43.4459 49.5891 43.316C49.746 43.186 49.8456 42.9997 49.8666 42.7971C49.8876 42.5944 49.8282 42.3917 49.7013 42.2323C49.5744 42.073 49.39 41.9698 49.1878 41.945C48.3485 41.8267 47.4959 41.8401 46.6608 41.9846Z" fill="black"/>
<path d="M46.9965 37.6659C47.4261 37.6659 47.7743 37.3177 47.7743 36.8881C47.7743 36.4586 47.4261 36.1104 46.9965 36.1104C46.567 36.1104 46.2188 36.4586 46.2188 36.8881C46.2188 37.3177 46.567 37.6659 46.9965 37.6659Z" fill="black"/>
<path d="M41.5512 33.7772C41.9808 33.7772 42.329 33.429 42.329 32.9995C42.329 32.5699 41.9808 32.2217 41.5512 32.2217C41.1217 32.2217 40.7734 32.5699 40.7734 32.9995C40.7734 33.429 41.1217 33.7772 41.5512 33.7772Z" fill="black"/>
<path d="M47.7778 40.7772C48.2073 40.7772 48.5556 40.429 48.5556 39.9995C48.5556 39.5699 48.2073 39.2217 47.7778 39.2217C47.3482 39.2217 47 39.5699 47 39.9995C47 40.429 47.3482 40.7772 47.7778 40.7772Z" fill="black"/>
<path d="M43.8872 36.8876C44.3167 36.8876 44.6649 36.5394 44.6649 36.1098C44.6649 35.6803 44.3167 35.332 43.8872 35.332C43.4576 35.332 43.1094 35.6803 43.1094 36.1098C43.1094 36.5394 43.4576 36.8876 43.8872 36.8876Z" fill="black"/>
<path d="M36.8872 36.8876C37.3167 36.8876 37.6649 36.5394 37.6649 36.1098C37.6649 35.6803 37.3167 35.332 36.8872 35.332C36.4576 35.332 36.1094 35.6803 36.1094 36.1098C36.1094 36.5394 36.4576 36.8876 36.8872 36.8876Z" fill="black"/>
<path d="M48.5512 48.5546C48.9808 48.5546 49.329 48.2064 49.329 47.7768C49.329 47.3472 48.9808 46.999 48.5512 46.999C48.1217 46.999 47.7734 47.3472 47.7734 47.7768C47.7734 48.2064 48.1217 48.5546 48.5512 48.5546Z" fill="black"/>
</svg>
