<svg width="80" height="80" viewBox="0 0 80 80" fill="none" xmlns="http://www.w3.org/2000/svg">
<rect width="80" height="80" rx="10" fill="#E3C6A8"/>
<path d="M52.9805 38.0014C55.918 37.5887 58.1796 35.0702 58.186 32.0189C58.186 29.0118 55.9938 26.5186 53.1195 26.0469" stroke="black" stroke-width="2.5" stroke-linecap="round" stroke-linejoin="round"/>
<path d="M56.8633 45.0586C59.7082 45.484 61.6939 46.48 61.6939 48.5331C61.6939 49.9461 60.759 50.8642 59.247 51.4412" stroke="black" stroke-width="2.5" stroke-linecap="round" stroke-linejoin="round"/>
<path fill-rule="evenodd" clip-rule="evenodd" d="M40.3452 45.9336C33.5773 45.9336 27.7969 46.9591 27.7969 51.0549C27.7969 55.1485 33.5415 56.2035 40.3452 56.2035C47.1132 56.2035 52.8915 55.1885 52.8915 51.0907C52.8915 46.9928 47.149 45.9336 40.3452 45.9336Z" stroke="black" stroke-width="2.5" stroke-linecap="round" stroke-linejoin="round"/>
<path fill-rule="evenodd" clip-rule="evenodd" d="M40.3487 40.084C44.7898 40.084 48.3907 36.4852 48.3907 32.042C48.3907 27.6009 44.7898 24 40.3487 24C35.9076 24 32.3067 27.6009 32.3067 32.042C32.2899 36.4683 35.8634 40.0692 40.2897 40.084H40.3487Z" stroke="black" stroke-width="2.5" stroke-linecap="round" stroke-linejoin="round"/>
<path d="M27.7055 38.0014C24.7658 37.5887 22.5063 35.0702 22.5 32.0189C22.5 29.0118 24.6921 26.5186 27.5665 26.0469" stroke="black" stroke-width="2.5" stroke-linecap="round" stroke-linejoin="round"/>
<path d="M23.8307 45.0586C20.9858 45.484 19 46.48 19 48.5331C19 49.9461 19.935 50.8642 21.4469 51.4412" stroke="black" stroke-width="2.5" stroke-linecap="round" stroke-linejoin="round"/>
</svg>
