<svg width="80" height="80" viewBox="0 0 80 80" fill="none" xmlns="http://www.w3.org/2000/svg">
<rect width="80" height="80" rx="10" fill="#FFD978"/>
<path d="M54.1484 37.3016C57.3599 36.8504 59.8324 34.097 59.8393 30.7612C59.8393 27.4738 57.4428 24.7481 54.3004 24.2324" stroke="black" stroke-width="2.5" stroke-linecap="round" stroke-linejoin="round"/>
<path d="M58.3906 45.0225C61.5008 45.4875 63.6717 46.5764 63.6717 48.821C63.6717 50.3657 62.6496 51.3694 60.9966 52.0002" stroke="black" stroke-width="2.5" stroke-linecap="round" stroke-linejoin="round"/>
<path fill-rule="evenodd" clip-rule="evenodd" d="M40.3355 45.9746C32.9365 45.9746 26.6172 47.0957 26.6172 51.5734C26.6172 56.0487 32.8974 57.2021 40.3355 57.2021C47.7346 57.2021 54.0516 56.0924 54.0516 51.6125C54.0516 47.1326 47.7737 45.9746 40.3355 45.9746Z" stroke="black" stroke-width="2.5" stroke-linecap="round" stroke-linejoin="round"/>
<path fill-rule="evenodd" clip-rule="evenodd" d="M40.3387 39.5836C45.1939 39.5836 49.1305 35.6493 49.1305 30.7918C49.1305 25.9366 45.1939 22 40.3387 22C35.4836 22 31.5469 25.9366 31.5469 30.7918C31.5285 35.6309 35.4352 39.5675 40.2743 39.5836H40.3387Z" stroke="black" stroke-width="2.5" stroke-linecap="round" stroke-linejoin="round"/>
<path d="M26.519 37.3016C23.3052 36.8504 20.835 34.097 20.8281 30.7612C20.8281 27.4738 23.2246 24.7481 26.367 24.2324" stroke="black" stroke-width="2.5" stroke-linecap="round" stroke-linejoin="round"/>
<path d="M22.2811 45.0225C19.1709 45.4875 17 46.5764 17 48.821C17 50.3657 18.0221 51.3694 19.6751 52.0002" stroke="black" stroke-width="2.5" stroke-linecap="round" stroke-linejoin="round"/>
</svg>
