<svg width="80" height="80" viewBox="0 0 80 80" fill="none" xmlns="http://www.w3.org/2000/svg">
<rect width="80" height="80" rx="10" fill="#FFA666"/>
<path d="M33.0439 38.8778C35.0572 38.8778 36.6893 37.2457 36.6893 35.2324C36.6893 33.219 35.0572 31.5869 33.0439 31.5869C31.0306 31.5869 29.3984 33.219 29.3984 35.2324C29.3984 37.2457 31.0306 38.8778 33.0439 38.8778Z" fill="black"/>
<path d="M47.6259 38.8778C49.6392 38.8778 51.2714 37.2457 51.2714 35.2324C51.2714 33.219 49.6392 31.5869 47.6259 31.5869C45.6126 31.5869 43.9805 33.219 43.9805 35.2324C43.9805 37.2457 45.6126 38.8778 47.6259 38.8778Z" fill="black"/>
<path d="M40.335 17C35.7198 17 31.2082 18.3686 27.3708 20.9327C23.5334 23.4967 20.5425 27.1412 18.7763 31.4051C17.0101 35.669 16.548 40.3609 17.4484 44.8874C18.3488 49.414 20.5712 53.5719 23.8347 56.8353C27.0981 60.0988 31.256 62.3212 35.7826 63.2216C40.3091 64.122 45.001 63.6599 49.2649 61.8937C53.5288 60.1275 57.1733 57.1366 59.7373 53.2992C62.3014 49.4618 63.67 44.9502 63.67 40.335C63.67 34.1462 61.2115 28.2108 56.8353 23.8347C52.4592 19.4585 46.5238 17 40.335 17ZM40.335 60.7557C36.2962 60.7557 32.348 59.558 28.9899 57.3142C25.6317 55.0703 23.0143 51.8811 21.4687 48.1497C19.9231 44.4183 19.5187 40.3123 20.3067 36.3511C21.0946 32.3899 23.0395 28.7513 25.8954 25.8954C28.7513 23.0395 32.3899 21.0946 36.3511 20.3067C40.3124 19.5187 44.4183 19.9231 48.1497 21.4687C51.8811 23.0143 55.0703 25.6317 57.3142 28.9899C59.5581 32.348 60.7557 36.2962 60.7557 40.335C60.7502 45.7492 58.597 50.9401 54.7686 54.7686C50.9401 58.597 45.7492 60.7502 40.335 60.7557Z" fill="black"/>
<path d="M49.615 46.6981C47.1515 49.1567 43.8132 50.5374 40.3328 50.5374C36.8524 50.5374 33.5142 49.1567 31.0507 46.6981C30.9145 46.5619 30.7528 46.4539 30.5749 46.3802C30.3969 46.3065 30.2062 46.2686 30.0136 46.2686C29.821 46.2686 29.6302 46.3065 29.4523 46.3802C29.2743 46.4539 29.1127 46.5619 28.9765 46.6981C28.8403 46.8343 28.7322 46.996 28.6585 47.174C28.5848 47.3519 28.5469 47.5426 28.5469 47.7352C28.5469 47.9279 28.5848 48.1186 28.6585 48.2965C28.7322 48.4745 28.8403 48.6362 28.9765 48.7724C31.9892 51.7727 36.0679 53.4572 40.3199 53.4572C44.5718 53.4572 48.6505 51.7727 51.6633 48.7724C51.9383 48.4973 52.0928 48.1242 52.0928 47.7352C52.0928 47.3463 51.9383 46.9732 51.6633 46.6981C51.3882 46.4231 51.0151 46.2686 50.6261 46.2686C50.2372 46.2686 49.8641 46.4231 49.589 46.6981H49.615Z" fill="black"/>
</svg>
