<svg width="80" height="80" viewBox="0 0 80 80" fill="none" xmlns="http://www.w3.org/2000/svg">
<rect width="80" height="80" rx="10" fill="#8FFEA1"/>
<path d="M33.4389 38.6863C35.2507 38.6863 36.7195 37.2175 36.7195 35.4057C36.7195 33.5938 35.2507 32.125 33.4389 32.125C31.627 32.125 30.1582 33.5938 30.1582 35.4057C30.1582 37.2175 31.627 38.6863 33.4389 38.6863Z" fill="black"/>
<path d="M46.5619 38.6863C48.3738 38.6863 49.8426 37.2175 49.8426 35.4057C49.8426 33.5938 48.3738 32.125 46.5619 32.125C44.7501 32.125 43.2812 33.5938 43.2812 35.4057C43.2812 37.2175 44.7501 38.6863 46.5619 38.6863Z" fill="black"/>
<path d="M40 19C35.8466 19 31.7865 20.2316 28.333 22.5391C24.8796 24.8466 22.188 28.1264 20.5985 31.9636C19.0091 35.8009 18.5932 40.0233 19.4035 44.0969C20.2138 48.1705 22.2139 51.9123 25.1508 54.8492C28.0877 57.7861 31.8295 59.7862 35.9031 60.5965C39.9767 61.4068 44.1991 60.9909 48.0364 59.4015C51.8736 57.812 55.1534 55.1204 57.4609 51.667C59.7684 48.2135 61 44.1534 61 40C61 34.4304 58.7875 29.089 54.8492 25.1508C50.911 21.2125 45.5695 19 40 19ZM40 58.3773C36.3653 58.3773 32.8122 57.2995 29.7901 55.2802C26.768 53.2609 24.4125 50.3907 23.0216 47.0327C21.6306 43.6747 21.2667 39.9796 21.9758 36.4148C22.6849 32.8499 24.4352 29.5754 27.0053 27.0053C29.5754 24.4351 32.8499 22.6849 36.4148 21.9758C39.9796 21.2667 43.6747 21.6306 47.0327 23.0216C50.3907 24.4125 53.2609 26.768 55.2802 29.7901C57.2995 32.8122 58.3773 36.3653 58.3773 40C58.3724 44.8724 56.4346 49.5439 52.9893 52.9893C49.5439 56.4346 44.8725 58.3724 40 58.3773Z" fill="black"/>
<path d="M48.3506 45.7264C46.1336 47.939 43.1294 49.1816 39.9972 49.1816C36.8651 49.1816 33.8609 47.939 31.6439 45.7264C31.5213 45.6039 31.3758 45.5067 31.2157 45.4403C31.0555 45.374 30.8839 45.3398 30.7106 45.3398C30.5372 45.3398 30.3656 45.374 30.2054 45.4403C30.0453 45.5067 29.8998 45.6039 29.7772 45.7264C29.6547 45.849 29.5574 45.9945 29.4911 46.1547C29.4248 46.3148 29.3906 46.4864 29.3906 46.6598C29.3906 46.8331 29.4248 47.0048 29.4911 47.1649C29.5574 47.325 29.6547 47.4705 29.7772 47.5931C32.4885 50.2932 36.1591 51.8092 39.9856 51.8092C43.812 51.8092 47.4826 50.2932 50.1939 47.5931C50.4414 47.3456 50.5805 47.0098 50.5805 46.6598C50.5805 46.3097 50.4414 45.974 50.1939 45.7264C49.9464 45.4789 49.6106 45.3398 49.2606 45.3398C48.9105 45.3398 48.5748 45.4789 48.3272 45.7264H48.3506Z" fill="black"/>
</svg>
