<svg width="80" height="80" viewBox="0 0 80 80" fill="none" xmlns="http://www.w3.org/2000/svg">
<rect width="80" height="80" rx="10" fill="#ACDCFF"/>
<path d="M34.6874 22.3624C34.0327 22.5723 33.333 22.2075 33.1231 21.5528C32.9182 20.898 33.278 20.1983 33.9377 19.9934C37.6312 18.8189 41.5845 18.684 45.3329 19.5986C48.9713 20.4832 52.4148 22.3424 55.2436 25.1712C59.3618 29.2894 61.421 34.6821 61.421 40.0798C61.421 44.5879 59.9816 49.091 57.1128 52.8543H62.4205C63.1102 52.8543 63.67 53.4141 63.67 54.1038C63.67 54.7935 63.1102 55.3533 62.4205 55.3533H54.359C54.1491 55.3533 53.9542 55.3033 53.7792 55.2133L53.7642 55.2033L53.7592 55.1983L53.7443 55.1933L53.7393 55.1883L53.7243 55.1833V55.1783L53.6993 55.1683L53.6943 55.1633L53.6743 55.1484H53.6693L53.6493 55.1334L53.6443 55.1284L53.6243 55.1134H53.6193C53.5193 55.0384 53.4294 54.9484 53.3544 54.8435H53.3494L53.3344 54.8235L53.3294 54.8135L53.3194 54.7935L53.3144 54.7885L53.2994 54.7685V54.7635L53.2845 54.7435V54.7385L53.2745 54.7285V54.7185L53.2645 54.7085L53.2595 54.6985L53.2545 54.6836C53.1595 54.5136 53.1095 54.3137 53.1095 54.1038V46.0423C53.1095 45.3526 53.6693 44.7928 54.359 44.7928C55.0487 44.7928 55.6085 45.3526 55.6085 46.0423V50.6703C57.8175 47.4966 58.917 43.7882 58.917 40.0798C58.917 35.3219 57.1028 30.5689 53.4744 26.9404C50.9754 24.4365 47.9417 22.7972 44.7481 22.0226C41.4345 21.2129 37.946 21.3278 34.6874 22.3624ZM27.5605 34.1174C27.5605 34.8071 27.0007 35.3668 26.311 35.3668C25.6213 35.3668 25.0615 34.8071 25.0615 34.1174V29.4894C22.8525 32.663 21.753 36.3714 21.753 40.0798C21.753 44.8378 23.5672 49.5907 27.1956 53.2192C29.6946 55.7231 32.7283 57.3624 35.9219 58.1371C39.2355 58.9467 42.724 58.8318 45.9826 57.7972C46.6373 57.5873 47.337 57.9522 47.5469 58.6069C47.7518 59.2616 47.392 59.9613 46.7323 60.1662C43.0388 61.3407 39.0855 61.4756 35.3371 60.561C31.6987 59.6764 28.2552 57.8172 25.4264 54.9884C21.3082 50.8702 19.249 45.4775 19.249 40.0798C19.249 35.5717 20.6884 31.0687 23.5572 27.3053H18.2495C17.5598 27.3053 17 26.7455 17 26.0558C17 25.3661 17.5598 24.8064 18.2495 24.8064H26.311C26.5209 24.8064 26.7158 24.8563 26.8908 24.9463L26.9058 24.9563L26.9108 24.9613L26.9257 24.9663L26.9307 24.9713L26.9457 24.9763V24.9813L26.9707 24.9913L26.9757 24.9963L26.9957 25.0113H27.0007L27.0207 25.0263L27.0257 25.0313L27.0457 25.0463H27.0507C27.1506 25.1212 27.2406 25.2112 27.3156 25.3161H27.3206L27.3356 25.3361L27.3406 25.3461L27.3506 25.3661L27.3556 25.3711L27.3706 25.3911V25.3961L27.3855 25.4161V25.4211L27.3955 25.4311V25.4411L27.4055 25.4511L27.4105 25.4611L27.4155 25.4761C27.5105 25.646 27.5605 25.8459 27.5605 26.0558V34.1174Z" fill="black"/>
<path d="M39.9974 40.0026C41.8383 40.0026 43.3307 38.5102 43.3307 36.6693C43.3307 34.8283 41.8383 33.3359 39.9974 33.3359C38.1564 33.3359 36.6641 34.8283 36.6641 36.6693C36.6641 38.5102 38.1564 40.0026 39.9974 40.0026Z" stroke="black" stroke-width="2" stroke-linecap="round" stroke-linejoin="round"/>
<path d="M45.7268 47.6667C45.7268 45.0867 43.1601 43 40.0001 43C36.8401 43 34.2734 45.0867 34.2734 47.6667" stroke="black" stroke-width="2" stroke-linecap="round" stroke-linejoin="round"/>
</svg>
