<svg width="80" height="80" viewBox="0 0 80 80" fill="none" xmlns="http://www.w3.org/2000/svg">
<rect width="80" height="80" rx="10" fill="#FAA9E4"/>
<path d="M53.8109 23.5121L53.7274 17.8349C53.7274 17.334 53.3935 17 52.8926 17H26.8442C26.3433 17 26.0093 17.334 26.0093 17.8349V23.5121H25.9258C23.1707 23.5121 21 25.6828 21 28.4379C21 31.193 23.1707 33.3637 25.9258 33.3637H26.9277C27.2616 34.5326 27.6791 35.6179 28.2635 36.7033C28.4305 37.1207 28.9314 37.2877 29.3488 37.1207C29.7663 36.9537 29.9333 36.4528 29.7663 36.0353C28.4305 33.3637 27.7626 30.2747 27.7626 27.0186V18.6698H52.2247V27.0186C52.2247 34.6995 48.3007 41.2116 42.707 42.9649C40.9537 43.5493 39.0335 43.5493 37.1967 42.9649C35.36 42.3805 33.6067 41.2951 32.1874 39.6253C31.8535 39.2914 31.3526 39.2914 31.0186 39.5419C30.6847 39.8758 30.6847 40.3767 30.9351 40.7107C32.6049 42.5474 34.5251 43.7998 36.6123 44.4677V56.156L28.7644 59.3286C28.4305 59.4121 28.18 59.746 28.18 60.08V62.8351C28.18 63.336 28.514 63.67 29.0149 63.67H41.2877C41.7886 63.67 42.1226 63.336 42.1226 62.8351C42.1226 62.3342 41.7886 62.0002 41.2877 62.0002H29.8498V60.6644L37.6977 57.4919C38.0316 57.3249 38.1986 57.0744 38.1986 56.7405V44.8016C38.6995 44.8851 39.284 44.8851 39.8684 44.8851C40.4528 44.8851 40.9537 44.8016 41.5381 44.7181V52.4826V56.5735C41.5381 56.9074 41.7051 57.2414 42.0391 57.3249L49.887 60.4974V61.8333H45.7126C45.2116 61.8333 44.8777 62.1672 44.8777 62.6681C44.8777 63.1691 45.2116 63.503 45.7126 63.503H50.7219C51.2228 63.503 51.5567 63.1691 51.5567 62.6681V59.913C51.5567 59.5791 51.3898 59.2451 51.0558 59.1616L43.2079 56.0726V52.566V44.3842C47.7998 42.9649 51.3063 38.707 52.8926 33.2802H52.976H53.8944C56.6495 33.2802 58.8202 31.1095 58.8202 28.3544C58.8202 25.5993 56.5661 23.5121 53.8109 23.5121ZM25.9258 31.694C24.1726 31.694 22.6698 30.2747 22.6698 28.4379C22.6698 26.6847 24.0891 25.1819 25.9258 25.1819H26.0093V26.9351C26.0093 28.5214 26.1763 30.1077 26.5102 31.6105H25.9258V31.694ZM53.8109 31.694H53.2265C53.5605 30.1912 53.7274 28.6049 53.7274 27.0186V25.1819H53.8109C55.5642 25.1819 57.067 26.6012 57.067 28.4379C57.067 30.1912 55.6477 31.694 53.8109 31.694Z" fill="black"/>
<path d="M46.5467 27.352C46.4632 27.018 46.2127 26.851 45.8788 26.7676L42.2888 26.2666L40.7025 23.0106C40.452 22.4262 39.4502 22.4262 39.1997 23.0106L37.6134 26.2666L34.0234 26.7676C33.6895 26.851 33.439 27.018 33.3555 27.352C33.272 27.6859 33.3555 28.0199 33.606 28.1869L36.1941 30.775L35.4427 34.365C35.3592 34.699 35.5262 35.0329 35.7767 35.1999C35.9437 35.2834 36.1106 35.3669 36.2776 35.3669C36.4446 35.3669 36.5281 35.3669 36.6951 35.2834L39.9511 33.6136L43.2072 35.2834C43.4576 35.4503 43.7916 35.3669 44.1255 35.1999C44.376 35.0329 44.543 34.699 44.4595 34.365L43.8751 30.775L46.4632 28.1869C46.5467 28.0199 46.6302 27.6859 46.5467 27.352ZM42.2053 29.8566C42.0383 30.0236 41.9548 30.3576 41.9548 30.608L42.3723 32.9457L40.2851 31.8603C40.0346 31.6934 39.7841 31.6934 39.5337 31.8603L37.363 32.9457L37.7804 30.608C37.8639 30.3576 37.6969 30.0236 37.5299 29.8566L35.7767 28.1869L38.1979 27.8529C38.4483 27.8529 38.6988 27.6024 38.8658 27.4355L39.9511 25.2648L41.0365 27.4355C41.1199 27.6859 41.3704 27.8529 41.7044 27.8529L44.1255 28.1869L42.2053 29.8566Z" fill="black"/>
</svg>
