<svg width="80" height="80" viewBox="0 0 80 80" fill="none" xmlns="http://www.w3.org/2000/svg">
<rect width="80" height="80" rx="10" fill="#FDB3C4"/>
<path d="M32.5197 36.7147L31.568 37.4818V36.7202V36.6202H31.468H19H18.9V36.7202V62.5552V62.6552H19H31.468H31.568V62.5552V60.5761C33.8462 61.9282 36.4315 62.6552 39.0859 62.6552H53.135C55.1665 62.6552 56.8282 60.9935 56.8282 58.962C56.8282 58.175 56.5747 57.4188 56.1534 56.84C58.1695 56.4414 59.7027 54.6419 59.7027 52.4944C59.7027 51.2644 59.1986 50.1691 58.4169 49.3693C60.0299 48.7073 61.14 47.1292 61.14 45.308C61.14 43.8872 60.4539 42.6043 59.4139 41.7902C60.4536 41.0457 61.14 39.833 61.14 38.481C61.14 36.234 59.3346 34.4285 57.0875 34.4285H48.4639C47.9083 34.4285 47.486 34.0062 47.486 33.4506V23.7491C47.486 20.5318 44.8541 17.9 41.6369 17.9C40.5756 17.9 39.7403 18.7353 39.7403 19.7966V26.4991C38.38 30.5344 35.8787 34.0703 32.5206 36.7139L32.5197 36.7147ZM56.7282 40.8962H56.6282V40.9962V42.4335V42.5335H56.7282C58.254 42.5335 59.5027 43.7823 59.5027 45.308C59.5027 46.8338 58.254 48.0826 56.7282 48.0826H55.2909H55.1909V48.1826V49.6198V49.7198H55.2909C56.8167 49.7198 58.0655 50.9686 58.0655 52.4944C58.0655 54.0201 56.8167 55.2689 55.2909 55.2689H53.135H53.035V55.3689V56.8061V56.9061H53.135C54.2656 56.9061 55.1909 57.8315 55.1909 58.962C55.1909 60.0926 54.2656 61.0179 53.135 61.0179H39.0859C36.3934 61.0179 33.7705 60.1728 31.568 58.6225V39.5718L33.5425 38.0207L33.5428 38.0204C37.1873 35.1338 39.8573 31.3085 41.3366 26.9067L41.3367 26.9065L41.3725 26.7991L41.3776 26.7837V26.7675V19.7966C41.3776 19.7115 41.4055 19.6484 41.4471 19.6068C41.4887 19.5652 41.5519 19.5373 41.6369 19.5373C43.9532 19.5373 45.8487 21.4328 45.8487 23.7491V33.4506C45.8487 34.9072 47.0074 36.0658 48.4639 36.0658H57.0875C58.4336 36.0658 59.5027 37.1349 59.5027 38.481C59.5027 39.8271 58.4336 40.8962 57.0875 40.8962H56.7282ZM20.5373 38.2575H29.9307V61.0179H20.5373V38.2575ZM25.2522 57.4606C24.9398 57.4606 24.6402 57.5847 24.4193 57.8056C24.1984 58.0265 24.0743 58.3261 24.0743 58.6385C24.0743 58.9509 24.1984 59.2505 24.4193 59.4715C24.6402 59.6924 24.9398 59.8165 25.2522 59.8165C25.5647 59.8165 25.8643 59.6924 26.0852 59.4715C26.3061 59.2505 26.4302 58.9509 26.4302 58.6385C26.4302 58.3261 26.3061 58.0265 26.0852 57.8056C25.8643 57.5847 25.5647 57.4606 25.2522 57.4606Z" fill="black" stroke="black" stroke-width="0.2"/>
</svg>
