<svg width="80" height="80" viewBox="0 0 80 80" fill="none" xmlns="http://www.w3.org/2000/svg">
<rect width="80" height="80" rx="10" fill="#9EEB8B"/>
<path d="M32.1644 36.6066L31.1598 37.4164V36.6088V36.5088H31.0598H18H17.9V36.6088V63.67V63.77H18H31.0598H31.1598V63.67V61.5887C33.5472 63.0072 36.2569 63.77 39.0393 63.77H53.7552C55.8805 63.77 57.6189 62.0316 57.6189 59.9063C57.6189 59.0802 57.352 58.2866 56.9087 57.6803C59.0218 57.2661 60.6299 55.3814 60.6299 53.1316C60.6299 51.842 60.1003 50.6939 59.2794 49.8565C60.9708 49.1654 62.1354 47.5123 62.1354 45.6042C62.1354 44.1152 61.4153 42.771 60.3242 41.9192C61.4149 41.1405 62.1354 39.8699 62.1354 38.4531C62.1354 36.1021 60.2464 34.2131 57.8953 34.2131H48.8624C48.2778 34.2131 47.8333 33.7686 47.8333 33.184V23.0219C47.8333 19.6546 45.0787 16.9 41.7114 16.9C40.6023 16.9 39.7295 17.7728 39.7295 18.8819V25.9033C38.3044 30.1313 35.6837 33.8361 32.1653 36.6059L32.1644 36.6066ZM57.519 40.9877H57.419V41.0877V42.5932V42.6932H57.519C59.1198 42.6932 60.4299 44.0034 60.4299 45.6042C60.4299 47.205 59.1198 48.5152 57.519 48.5152H56.0135H55.9135V48.6152V50.1206V50.2206H56.0135C57.6143 50.2206 58.9244 51.5308 58.9244 53.1316C58.9244 54.7324 57.6143 56.0426 56.0135 56.0426H53.7552H53.6552V56.1426V57.6481V57.7481H53.7552C54.942 57.7481 55.9135 58.7195 55.9135 59.9063C55.9135 61.0931 54.942 62.0645 53.7552 62.0645H39.0393C36.2172 62.0645 33.468 61.1784 31.1598 59.5531V39.5934L33.2298 37.9672L33.2301 37.967C37.0468 34.9439 39.8431 30.9378 41.3923 26.3279L41.3924 26.3277L41.4299 26.2152L41.435 26.1998V26.1836V18.8819C41.435 18.7917 41.4646 18.7243 41.5092 18.6797C41.5538 18.6351 41.6212 18.6055 41.7114 18.6055C44.1402 18.6055 46.1278 20.5931 46.1278 23.0219V33.184C46.1278 34.707 47.3393 35.9185 48.8624 35.9185H57.8953C59.3079 35.9185 60.4299 37.0405 60.4299 38.4531C60.4299 39.8658 59.3079 40.9877 57.8953 40.9877H57.519ZM19.6055 38.2143H29.4543V62.0645H19.6055V38.2143ZM24.549 58.3383C24.223 58.3383 23.9104 58.4678 23.6799 58.6983C23.4494 58.9288 23.3199 59.2414 23.3199 59.5674C23.3199 59.8934 23.4494 60.206 23.6799 60.4365C23.9104 60.667 24.223 60.7965 24.549 60.7965C24.875 60.7965 25.1876 60.667 25.4181 60.4365C25.6486 60.206 25.7781 59.8934 25.7781 59.5674C25.7781 59.2414 25.6486 58.9288 25.4181 58.6983C25.1876 58.4678 24.875 58.3383 24.549 58.3383Z" fill="black" stroke="black" stroke-width="0.2"/>
</svg>
