<svg width="80" height="80" viewBox="0 0 80 80" fill="none" xmlns="http://www.w3.org/2000/svg">
<rect width="80" height="80" rx="10" fill="#E1BBFA"/>
<path d="M32.3381 31.9397H37.5202C38.0948 31.9397 38.5613 32.4062 38.5613 32.9808V38.1629C38.5613 38.7375 38.0948 39.204 37.5202 39.204H32.3381C31.7634 39.204 31.297 38.7375 31.297 38.1629V32.9808C31.297 32.4062 31.7634 31.9397 32.3381 31.9397ZM32.1352 61.0129C31.5606 61.0129 31.0942 60.5464 31.0942 59.9718C31.0942 59.3972 31.5606 58.9307 32.1352 58.9307H47.8647C48.4394 58.9307 48.9058 59.3972 48.9058 59.9718C48.9058 60.5464 48.4394 61.0129 47.8647 61.0129H32.1352ZM33.7743 18.0822L35.3175 20.2443H44.0322L45.5754 18.0822H33.7743ZM48.1259 18.0822L45.4568 21.8219C45.2743 22.1243 44.943 22.3265 44.5645 22.3265H34.7853C34.4608 22.3228 34.1418 22.171 33.9396 21.887L31.2238 18.0822H30.1778C29.3272 18.0822 28.5523 18.4313 27.9918 18.9918C27.4313 19.5523 27.0822 20.3272 27.0822 21.1778V59.7899C27.0822 60.6411 27.4313 61.4155 27.9918 61.9759C28.5523 62.5364 29.3272 62.8855 30.1778 62.8855H49.8222C50.6734 62.8855 51.4477 62.5364 52.0082 61.9759C52.5687 61.4155 52.9178 60.6411 52.9178 59.7899V21.1778C52.9178 20.3272 52.5687 19.5523 52.0082 18.9918C51.4477 18.4313 50.6734 18.0822 49.8222 18.0822H48.1259ZM30.1778 16H49.8222C51.2468 16 52.5417 16.5826 53.4795 17.5205C54.4174 18.4583 55 19.7538 55 21.1778V59.7899C55 61.2145 54.4174 62.5094 53.4795 63.4472C52.5417 64.3851 51.2468 64.9677 49.8222 64.9677H30.1778C28.7538 64.9677 27.4583 64.3851 26.5205 63.4472C25.5826 62.5094 25 61.2145 25 59.7899V21.1778C25 19.7538 25.5826 18.4583 26.5205 17.5205C27.4583 16.5826 28.7538 16 30.1778 16ZM42.481 46.4363C41.9064 46.4363 41.44 45.9699 41.44 45.3953C41.44 44.8206 41.9064 44.3542 42.481 44.3542H44.0304V42.8042C44.0304 42.2296 44.4969 41.7631 45.0715 41.7631C45.6461 41.7631 46.1126 42.2296 46.1126 42.8042V44.3542H47.6626C48.2372 44.3542 48.7036 44.8206 48.7036 45.3953C48.7036 45.9699 48.2372 46.4363 47.6626 46.4363H46.1126V47.9863C46.1126 48.5609 45.6461 49.0274 45.0715 49.0274C44.4969 49.0274 44.0304 48.5609 44.0304 47.9863V46.4363H42.481ZM42.481 31.9397H47.6626C48.2372 31.9397 48.7036 32.4062 48.7036 32.9808V38.1629C48.7036 38.7375 48.2372 39.204 47.6626 39.204H42.481C41.9064 39.204 41.44 38.7375 41.44 38.1629V32.9808C41.44 32.4062 41.9064 31.9397 42.481 31.9397ZM46.6215 34.0219H43.5221V37.1218H46.6215V34.0219ZM32.3381 41.7631H37.5202C38.0948 41.7631 38.5613 42.2296 38.5613 42.8042V47.9863C38.5613 48.5609 38.0948 49.0274 37.5202 49.0274H32.3381C31.7634 49.0274 31.297 48.5609 31.297 47.9863V42.8042C31.297 42.2296 31.7634 41.7631 32.3381 41.7631ZM36.4791 43.8453H33.3792V46.9452H36.4791V43.8453ZM36.4791 34.0219H33.3792V37.1218H36.4791V34.0219Z" fill="black"/>
</svg>
