<svg width="80" height="80" viewBox="0 0 80 80" fill="none" xmlns="http://www.w3.org/2000/svg">
<rect width="80" height="80" rx="10" fill="#EDF258"/>
<path d="M18.4387 60H61.1188C62.9899 60 64.5575 58.4829 64.5575 56.5613V23.4387C64.5575 21.5676 63.0405 20 61.1188 20H18.4387C16.5676 20 15 21.5171 15 23.4387V56.5613C15 58.4829 16.5676 60 18.4387 60ZM61.1188 58.2301H18.4387C17.5284 58.2301 16.7699 57.4716 16.7699 56.5613V31.378H62.7876V56.6119C62.7876 57.5221 62.0291 58.2301 61.1188 58.2301ZM18.4387 21.8205H61.1188C62.0291 21.8205 62.7876 22.579 62.7876 23.4893V29.6081H16.7699V23.4387C16.7699 22.5284 17.5284 21.8205 18.4387 21.8205ZM20.0569 26.3211C19.9052 26.1694 19.804 25.9166 19.804 25.7143C19.804 25.512 19.9052 25.2592 20.0569 25.1075C20.4109 24.804 20.9671 24.804 21.3211 25.1075C21.4728 25.2592 21.574 25.512 21.574 25.7143C21.574 25.9166 21.4728 26.1694 21.3211 26.3211C21.1694 26.4728 20.9166 26.574 20.7143 26.574C20.512 26.574 20.2086 26.4728 20.0569 26.3211ZM24.8104 26.3211C24.6587 26.1694 24.5575 25.9166 24.5575 25.7143C24.5575 25.512 24.6587 25.2592 24.8104 25.1075C25.1138 24.804 25.7206 24.804 26.0746 25.1075C26.2263 25.2592 26.3274 25.512 26.3274 25.7143C26.3274 25.9166 26.2263 26.1694 26.0746 26.3211C25.9229 26.4728 25.67 26.574 25.4678 26.574C25.2655 26.574 24.9621 26.4728 24.8104 26.3211ZM29.6144 26.3211C29.4627 26.1694 29.3616 25.9166 29.3616 25.7143C29.3616 25.512 29.4627 25.2592 29.6144 25.1075C29.9684 24.804 30.5247 24.804 30.8786 25.1075C31.0303 25.2592 31.1315 25.512 31.1315 25.7143C31.1315 25.9166 31.0303 26.1694 30.8786 26.3211C30.7269 26.4728 30.4741 26.574 30.2718 26.574C30.0695 26.574 29.7661 26.4728 29.6144 26.3211ZM49.4374 35.5752H30.2212C29.7156 35.5752 29.311 35.9798 29.311 36.4855V47.5095C29.311 48.0152 29.7156 48.4197 30.2212 48.4197H49.4374C49.9431 48.4197 50.3477 48.0152 50.3477 47.5095V36.4855C50.3477 35.9798 49.9431 35.5752 49.4374 35.5752ZM48.5778 46.5992H31.1315V37.3451H48.5778V46.5992ZM47.1618 53.0215C47.1618 53.5272 46.7573 53.9317 46.2516 53.9317H33.4071C32.9014 53.9317 32.4968 53.5272 32.4968 53.0215C32.4968 52.5158 32.9014 52.1113 33.4071 52.1113H46.3022C46.7573 52.1618 47.1618 52.5158 47.1618 53.0215Z" fill="black"/>
</svg>
