<svg width="80" height="80" viewBox="0 0 80 80" fill="none" xmlns="http://www.w3.org/2000/svg">
<rect width="80" height="80" rx="10" fill="#FDCA7E"/>
<path d="M20.6818 37.3946C20.3121 38.5365 20.6284 39.7912 21.4971 40.6209L28.3478 47.2582C28.5696 47.4738 28.6702 47.786 28.6169 48.0899L26.9801 57.4768C26.785 58.6494 27.2717 59.8303 28.2349 60.5264C29.198 61.2226 30.4713 61.313 31.5248 60.7626L39.959 56.3268C40.2322 56.183 40.5607 56.183 40.8339 56.3268L49.2682 60.7626C50.3217 61.3089 51.5929 61.2165 52.554 60.5203C53.5151 59.8262 54.0038 58.6474 53.8128 57.4768L52.2028 48.0899C52.1494 47.7839 52.2521 47.4718 52.478 47.2582L59.2961 40.6209C60.1505 39.7871 60.4585 38.5426 60.0909 37.4069C59.7212 36.2734 58.7396 35.4457 57.5588 35.2753L48.1346 33.9055C47.8265 33.8603 47.5616 33.6652 47.4219 33.3859L43.2059 24.8491C42.6781 23.7792 41.5897 23.1015 40.3965 23.1015C39.2033 23.1015 38.1149 23.7792 37.5871 24.8491L33.371 33.3859C33.2313 33.6652 32.9664 33.8603 32.6584 33.9055L23.2341 35.2753C22.0451 35.4293 21.0515 36.2549 20.6818 37.3946ZM32.9544 36.0577C33.975 35.9078 34.856 35.2691 35.314 34.345L39.5486 25.8345C39.6964 25.4977 40.0291 25.2841 40.3967 25.2862C40.7623 25.2821 41.095 25.4977 41.2408 25.8345L45.4569 34.3713C45.9148 35.2954 46.7979 35.9362 47.8165 36.0861L57.2407 37.4558L57.2428 37.4538C57.6001 37.501 57.902 37.7475 58.017 38.0883C58.1341 38.4313 58.0458 38.8092 57.7891 39.0638L50.9441 45.6849C50.2048 46.4057 49.87 47.4448 50.0467 48.4613L51.6567 57.8482C51.7183 58.2035 51.5746 58.5629 51.2829 58.7744C50.9913 58.9859 50.6052 59.0147 50.287 58.8442L41.8527 54.4084C40.9409 53.9319 39.8524 53.9319 38.9406 54.4084L30.5064 58.8442C30.188 59.0147 29.802 58.9859 29.5104 58.7744C29.2187 58.5629 29.075 58.2035 29.1366 57.8482L30.7466 48.4613C30.9233 47.4448 30.5885 46.4056 29.8492 45.6849L23.0253 39.037C22.7706 38.7824 22.6823 38.4025 22.7994 38.0615C22.9144 37.7186 23.2163 37.4742 23.5736 37.427L32.9544 36.0577ZM54.6901 26.1015C54.4847 25.8961 54.3697 25.6189 54.3697 25.3272C54.3697 25.0356 54.4847 24.7584 54.6901 24.553L57.1976 22.0455V22.0435C57.6309 21.6533 58.2962 21.6697 58.709 22.0845C59.1198 22.4973 59.1362 23.1627 58.7419 23.594L56.2344 26.1014C55.8073 26.5265 55.1173 26.5266 54.6901 26.1015ZM50.3097 23.6433V20.0946C50.3097 19.4888 50.7985 19 51.4043 19C52.0101 19 52.4989 19.4888 52.4989 20.0946V23.6433C52.4989 24.2491 52.0101 24.7378 51.4043 24.7378C50.7985 24.7378 50.3097 24.2491 50.3097 23.6433ZM57.1668 28.3091H60.7155H60.7134C61.3192 28.3091 61.81 28.7999 61.81 29.4037C61.81 30.0095 61.3192 30.5003 60.7134 30.5003H57.1484C56.5446 30.5003 56.0538 30.0095 56.0538 29.4037C56.0538 28.7999 56.5446 28.3091 57.1484 28.3091H57.1668ZM22.0518 23.5939C21.6575 23.1627 21.6739 22.4973 22.0847 22.0845C22.4974 21.6697 23.1628 21.6533 23.5961 22.0435L26.1036 24.5509V24.553C26.3254 24.7542 26.4568 25.0376 26.465 25.3354C26.4733 25.6352 26.3562 25.9269 26.1447 26.1384C25.9331 26.3499 25.6436 26.4669 25.3438 26.4608C25.0439 26.4526 24.7605 26.3232 24.5593 26.1014L22.0518 23.5939ZM28.3111 23.6432V20.0946C28.3111 19.4888 28.7999 19 29.4057 19C30.0115 19 30.5003 19.4888 30.5003 20.0946V23.6432C30.5003 24.249 30.0115 24.7378 29.4057 24.7378C28.7999 24.7378 28.3111 24.249 28.3111 23.6432ZM19 29.4036C19 28.7999 19.4908 28.3091 20.0966 28.3091H23.6453C24.249 28.3091 24.7399 28.7999 24.7399 29.4036C24.7399 30.0094 24.249 30.5003 23.6453 30.5003H20.0966C19.4908 30.5003 19 30.0094 19 29.4036Z" fill="black"/>
</svg>
