<svg width="80" height="80" viewBox="0 0 80 80" fill="none" xmlns="http://www.w3.org/2000/svg">
<rect width="80" height="80" rx="8.30603" fill="#9AF1E7"/>
<g clip-path="url(#clip0_148_602)">
<path d="M40.3666 22.9192C28.797 22.9192 21.0221 31.2212 21.0221 41.4604C21.0221 51.6995 29.3234 60 39.5636 60C49.8037 60 58.105 51.6995 58.105 41.4604C58.105 36.5487 56.6437 32.9959 53.5256 29.6787" stroke="black" stroke-width="2.5"/>
<path d="M30.4095 56.0545C31.3085 54.3165 34.0149 50.5051 37.6575 49.1702C41.0642 47.9216 43.2844 44.8604 42.3772 41.3319C42.0292 39.976 40.687 38.8711 39.3358 39.237C38.9185 39.3488 38.5092 39.5333 38.144 39.7463C37.5878 40.0865 36.9249 40.2073 36.2845 40.0852C33.7405 39.596 32.5593 37.6092 30.8802 36.2357C30.1355 35.6272 29.3776 35.0912 28.8363 34.9119C27.3396 34.4127 23.3608 34.4789 22.1997 35.2391M57.6102 37.8968C57.6102 37.8968 52.2565 39.0173 52.2565 40.8846C52.2565 42.752 49.3021 43.4192 49.6014 46.2772C49.9371 49.4828 53.7502 52.4002 53.7502 52.4002" stroke="black" stroke-width="2.5"/>
<path d="M48.5891 34.9317C48.4338 35.0425 48.2478 35.1021 48.057 35.1021C47.8662 35.1021 47.6801 35.0425 47.5248 34.9317C42.9361 31.6613 38.0661 24.9342 42.9893 20.0732C44.3404 18.7431 46.1609 17.9984 48.057 18C49.9575 18 51.781 18.7459 53.1246 20.0723C58.0478 24.9332 53.1778 31.6594 48.5891 34.9317Z" stroke="black" stroke-width="2.5" stroke-linecap="round" stroke-linejoin="round"/>
<path d="M48.0566 27.3888C48.6713 27.3888 49.2608 27.1447 49.6955 26.71C50.1301 26.2754 50.3743 25.686 50.3743 25.0714C50.3743 24.4567 50.1301 23.8673 49.6955 23.4327C49.2608 22.9981 48.6713 22.7539 48.0566 22.7539C47.442 22.7539 46.8524 22.9981 46.4178 23.4327C45.9831 23.8673 45.739 24.4567 45.739 25.0714C45.739 25.686 45.9831 26.2754 46.4178 26.71C46.8524 27.1447 47.442 27.3888 48.0566 27.3888Z" fill="black"/>
</g>
<defs>
<clipPath id="clip0_148_602">
<rect width="44" height="44" fill="white" transform="translate(19 17)"/>
</clipPath>
</defs>
</svg>
