<svg width="450" height="63" viewBox="0 0 450 63" fill="none" xmlns="http://www.w3.org/2000/svg">
<path d="M84.9441 36.4476H78V30.7857L85.2671 30.5905L86.0745 22H91.2422V30.5905H103.193V36.4476H91.0807V49.5286C90.9193 51.6762 91.4037 53.6286 92.3727 55.3857C93.6646 56.7524 95.441 57.5333 97.0559 57.1429C98.1863 57.1429 99.1553 57.1429 100.124 56.7524C101.093 56.5571 101.901 56.1667 102.87 55.7762L104 61.2429C102.708 61.8286 101.416 62.219 100.124 62.4143C98.6708 62.8048 97.0559 63 95.6025 63C93.8261 63 92.2112 62.8048 90.5963 62.0238C89.3043 61.4381 88.1739 60.4619 87.3665 59.2905C86.3975 58.119 85.7516 56.5571 85.4286 54.9952C85.1056 53.2381 84.7826 51.2857 84.9441 49.3333V36.4476Z" fill="#070809"/>
<path d="M110 46.6941C110 44.3647 110.325 42.0353 111.139 39.7059C111.79 37.7647 112.929 36.0176 114.231 34.4647C115.532 33.1059 116.997 31.9412 118.624 31.1647C121.878 29.6118 125.621 29.6118 128.875 31.1647C130.34 31.9412 131.642 32.9118 132.781 34.2706C133.92 35.6294 134.733 37.1824 135.221 38.9294C135.872 41.4529 136.198 44.1706 135.872 46.8882C135.872 47.4706 135.71 47.8588 135.71 48.4412H116.346C116.509 50.9647 117.485 53.4882 119.275 55.0412C121.065 56.5941 123.18 57.3706 125.296 57.3706C126.597 57.3706 127.899 57.1765 129.038 56.5941C130.34 56.0118 131.479 55.4294 132.618 54.6529L134.733 59.3118C133.269 60.4765 131.642 61.2529 129.852 62.0294C128.062 62.8059 126.109 63 124.319 63C122.367 63 120.414 62.6118 118.624 61.8353C116.997 61.0588 115.37 60.0882 114.068 58.5353C112.766 57.1765 111.79 55.2353 110.976 53.2941C110.325 51.5471 110 49.2176 110 46.6941ZM130.177 43.9765C130.34 41.8412 129.689 39.7059 128.55 38.1529C127.248 36.6 125.458 35.8235 123.668 36.0176C122.855 36.0176 121.878 36.2118 121.065 36.6C120.251 36.9882 119.438 37.3765 118.787 38.1529C117.322 39.7059 116.346 41.8412 116.183 44.1706L130.177 43.9765Z" fill="#070809"/>
<path d="M142 46.6941C142 44.3647 142.323 41.8412 143.129 39.7059C143.935 37.7647 145.065 36.0176 146.355 34.4647C147.806 33.1059 149.419 31.9412 151.194 31.1647C152.968 30.3882 154.903 30 156.839 30C158.774 30 160.71 30.3882 162.484 31.3588C163.935 32.1353 165.387 33.1059 166.516 34.4647L163.613 39.1235C162.645 38.1529 161.677 37.3765 160.548 36.7941C159.419 36.2118 158.29 36.0176 157.161 36.0176C154.742 35.8235 152.484 36.9882 150.71 38.9294C149.097 41.0647 148.129 43.7824 148.29 46.6941C148.29 48.2471 148.452 49.6059 148.935 50.9647C149.258 52.1294 149.903 53.2941 150.71 54.2647C151.516 55.2353 152.484 56.0118 153.452 56.4C154.581 56.9824 155.71 57.1765 157 57.1765C158.452 57.1765 159.742 56.7882 161.032 56.0118C162.161 55.4294 163.452 54.4588 164.419 53.4882L167 58.3412C165.548 59.8941 163.774 61.0588 162 61.8353C160.226 62.6118 158.29 63 156.355 63C154.419 63 152.484 62.6118 150.548 61.8353C148.774 61.2529 147.323 60.0882 146.032 58.5353C144.742 57.1765 143.613 55.2353 142.968 53.2941C142.323 51.5471 142 49.2176 142 46.6941Z" fill="#070809"/>
<path d="M173.168 17H179.537V28.5385L179.202 35.2692C180.543 33.7308 181.884 32.5769 183.392 31.4231C185.068 30.2692 186.912 29.6923 188.924 29.8846C191.606 29.6923 194.12 30.8462 195.796 33.1538C197.472 35.8462 198.143 39.3077 197.975 42.5769V62H191.606V43.5385C191.773 41.6154 191.27 39.6923 190.432 37.9615C189.427 36.6154 187.918 36.0385 186.409 36.2308C185.236 36.2308 183.895 36.6154 182.889 37.3846C181.548 38.3462 180.543 39.5 179.369 40.6538V62H173L173.168 17Z" fill="#070809"/>
<path d="M208 30.5749H213.176L213.662 37.6647H213.824C214.956 35.3653 216.735 33.2575 218.676 31.9162C220.618 30.5749 222.721 30 224.985 30C225.956 30 226.765 30 227.735 30.3832C228.544 30.5748 229.353 30.9581 230 31.3413L228.706 37.4731C227.897 37.0898 227.25 36.8982 226.441 36.7066C225.632 36.515 224.824 36.515 224.015 36.515C222.074 36.515 220.294 37.2814 218.838 38.4311C216.897 39.9641 215.279 42.2635 214.309 44.7545V62H208.162L208 30.5749Z" fill="#070809"/>
<path d="M236 46.6941C236 44.3647 236.327 42.0353 237.145 39.7059C237.799 37.7647 238.943 36.0176 240.252 34.4647C241.56 33.1059 243.031 31.9412 244.667 31.1647C246.302 30.3882 247.937 30 249.736 30C251.535 30 253.333 30.3882 254.969 31.1647C257.912 32.5235 260.201 35.4353 261.182 38.9294C261.673 40.8706 262 43.0059 262 44.9471C262 45.5294 262 46.3059 261.836 46.8882C261.673 47.4706 261.673 47.8588 261.673 48.4412H242.377C242.541 50.9647 243.522 53.4882 245.321 55.0412C247.12 56.5941 249.245 57.3706 251.371 57.3706C252.679 57.3706 253.987 57.1765 255.296 56.5941C256.604 56.0118 257.748 55.4294 258.893 54.6529L261.019 59.3118C259.547 60.4765 257.912 61.2529 256.277 62.0294C254.478 62.8059 252.516 63 250.717 63C248.755 63 246.792 62.6118 244.994 61.8353C243.358 61.0588 241.723 60.0882 240.415 58.5353C239.107 57.1765 237.962 55.2353 237.308 53.2941C236.327 51.3529 236 49.0235 236 46.6941ZM256.277 43.9765C256.44 41.8412 255.786 39.7059 254.642 38.1529C253.333 36.6 251.535 35.8235 249.736 36.0176C248.918 36.0176 247.937 36.2118 247.119 36.6C246.302 36.9882 245.484 37.3765 244.83 38.1529C243.359 39.7059 242.377 41.8412 242.214 44.1706L256.277 43.9765Z" fill="#070809"/>
<path d="M266 31H272.386L277.462 47.1656C277.953 48.6871 278.444 50.2086 278.772 51.7301C279.263 53.2515 279.591 54.773 280.082 56.4847H280.246L281.556 51.7301C282.047 50.2086 282.374 48.6871 283.029 47.1656L288.105 31H294L283.684 62H276.643L266 31Z" fill="#070809"/>
<path d="M300 30.6021H317.061V62H311.113V36.4165H300V30.6021ZM313.617 25.1753C312.522 25.1753 311.426 24.7876 310.643 23.8186C309.861 22.8495 309.391 21.4928 309.391 20.1361C309.391 18.7794 309.861 17.4227 310.643 16.4536C312.365 14.5155 315.026 14.5155 316.748 16.4536C317.53 17.4227 318 18.7794 318 20.1361C318 21.4928 317.687 22.8495 316.748 23.8186C315.809 24.5938 314.713 25.1753 313.617 25.1753Z" fill="#070809"/>
<path d="M330 46.6941C330 44.3647 330.325 42.0353 331.137 39.7059C331.787 37.7647 332.925 36.0176 334.225 34.4647C335.525 33.1059 336.988 31.9412 338.613 31.1647C341.863 29.6118 345.6 29.6118 348.85 31.1647C350.313 31.9412 351.612 32.9118 352.75 34.2706C353.888 35.6294 354.7 37.1824 355.188 38.9294C355.675 40.8706 356 43.0059 356 44.9471C356 45.5294 356 46.3059 355.837 46.8882C355.837 47.4706 355.675 47.8588 355.675 48.4412H336.5C336.662 50.9647 337.638 53.4882 339.425 55.0412C341.213 56.5941 343.325 57.3706 345.438 57.3706C346.737 57.3706 348.037 57.1765 349.337 56.5941C350.637 56.0118 351.775 55.4294 352.913 54.6529L355.025 59.3118C353.562 60.4765 351.938 61.2529 350.312 62.0294C348.525 62.8059 346.575 63 344.788 63C342.838 63 340.888 62.6118 339.1 61.8353C337.475 61.0588 335.85 60.0882 334.55 58.5353C333.25 57.1765 332.112 55.2353 331.462 53.2941C330.487 51.5471 330 49.0235 330 46.6941ZM350.15 43.9765C350.312 41.8412 349.662 39.7059 348.525 38.1529C347.225 36.6 345.6 35.8235 343.812 36.0176C343 36.0176 342.025 36.2118 341.212 36.6C340.4 36.9882 339.587 37.3765 338.938 38.1529C337.475 39.7059 336.5 41.8412 336.337 44.1706L350.15 43.9765Z" fill="#070809"/>
<path d="M358 31H364.173L366.609 47.4848C366.772 49.0364 366.934 50.3939 367.259 51.9455C367.584 53.497 367.584 55.0485 367.746 56.6H367.909C368.071 55.0485 368.234 53.497 368.558 51.9455C368.883 50.3939 369.046 49.0364 369.371 47.4848L371.97 34.103H376.518L379.117 47.4848C379.442 49.0364 379.604 50.3939 379.929 51.9455C380.254 53.497 380.416 55.0485 380.579 56.6H380.741C380.904 55.0485 381.066 53.497 381.391 51.9455C381.716 50.3939 381.716 49.0364 381.878 47.4848L384.152 31.1939H390L385.127 62.8061H377.817L375.543 49.6182C375.381 48.0667 375.056 46.7091 374.893 45.1576C374.731 43.6061 374.406 42.0545 374.244 40.503H374.081C373.919 41.6667 373.756 43.0242 373.594 44.5758C373.431 46.1273 373.269 47.6788 372.944 49.8121L370.67 63H363.523L358 31Z" fill="#070809"/>
<path d="M393.031 46.6941C393.031 44.3647 393.358 42.0353 394.174 39.7059C394.828 37.7647 395.971 36.0176 397.277 34.4647C398.584 33.1059 400.054 31.9412 401.687 31.1647C403.321 30.3882 405.117 30 406.75 30C408.547 30 410.344 30.3882 411.977 31.1647C413.447 31.9412 414.753 32.9118 415.897 34.2706C416.877 35.6294 417.693 37.1824 418.183 38.9294C418.673 40.8706 419 43.0059 419 44.9471C419 45.5294 419 46.3059 418.837 46.8882C418.673 47.4706 418.673 47.8588 418.673 48.4412H399.401C399.564 50.9647 400.544 53.4882 402.341 55.0412C404.137 56.5941 406.26 57.5647 408.384 57.3706C409.69 57.3706 410.997 57.1765 412.304 56.5941C413.61 56.0118 414.753 55.4294 415.897 54.6529L418.02 59.3118C416.55 60.4765 414.917 61.2529 413.284 62.0294C411.487 62.8059 409.527 63 407.73 63C405.77 63 403.811 62.6118 402.014 61.8353C400.381 61.0588 398.747 60.0882 397.441 58.5353C396.134 57.1765 394.991 55.4294 394.338 53.2941C393.358 51.5471 392.868 49.2176 393.031 46.6941ZM413.12 43.9765C413.284 41.8412 412.63 39.7059 411.487 38.1529C410.18 36.6 408.384 35.8235 406.75 36.0176C405.934 36.0176 404.954 36.2118 404.137 36.6C403.321 36.9882 402.504 37.3765 401.851 38.1529C400.381 39.7059 399.401 41.8412 399.237 44.1706L413.12 43.9765Z" fill="#070809"/>
<path d="M428.162 30.5783H433.176L433.662 37.7108H433.824C434.956 35.3976 436.735 33.2771 438.676 31.9277C440.618 30.5783 442.721 30 444.985 30C445.956 30 446.765 30 447.735 30.3855C448.544 30.5783 449.353 30.9639 450 31.3494L448.706 37.5181C447.897 37.1325 447.25 36.9398 446.441 36.747C445.632 36.5542 444.824 36.3614 444.015 36.3614C442.074 36.3614 440.294 37.1325 438.838 38.2892C436.897 39.8313 435.279 42.1446 434.309 44.6506V62H428L428.162 30.5783Z" fill="#070809"/>
<path d="M0 0H21.228C21.228 11.4369 11.5968 20.9354 0 20.9354V0Z" fill="#B41D1B"/>
<path d="M42.4565 0V20.9354H21.2285C21.2285 9.49846 30.6632 0 42.4565 0Z" fill="#FF7E6E"/>
<path d="M42.4565 20.9336H21.2285V62.8044H42.4565V20.9336Z" fill="#FC584E"/>
<path d="M63.6831 0H42.4551V20.9354H63.6831V0Z" fill="#FFA090"/>
</svg>
