<svg width="196" height="74" viewBox="0 0 196 74" fill="none" xmlns="http://www.w3.org/2000/svg">
<path d="M89.9793 13.7562V19.3019H88.61L87.9254 15.6049H84.6733V29.4816L86.9412 30.0731V31.5027H79.6241V30.0731L81.8967 29.4816V15.6049H78.6184L77.9552 19.3019H76.5859V13.7562H89.9793ZM93.21 25.1928C93.1835 26.1455 93.3292 27.0939 93.6378 27.9781C93.8217 28.5166 94.1479 28.9747 94.5703 29.2878C94.9926 29.6008 95.4898 29.753 95.9913 29.7227C96.6417 29.7204 97.2839 29.5565 97.8742 29.242C98.5028 28.9072 99.0476 28.3941 99.4573 27.7507L100.613 28.7859C100.078 29.6443 99.3891 30.3592 98.5921 30.8811C97.6334 31.4878 96.5507 31.7857 95.4576 31.7438C94.5161 31.7752 93.5835 31.5246 92.7512 31.0166C91.9994 30.5284 91.3976 29.7834 91.0288 28.8846C90.8057 28.3487 90.6458 27.7809 90.5534 27.1962C90.4495 26.5251 90.3992 25.8443 90.4036 25.1627C90.2973 23.252 90.7824 21.3598 91.7729 19.8223C92.2586 19.1858 92.8642 18.6857 93.5434 18.3606C94.2227 18.0354 94.9576 17.8937 95.6919 17.9463C96.4065 17.9367 97.1168 18.0758 97.7885 18.3571C98.3861 18.6065 98.9298 19.0016 99.3825 19.5157C99.8302 20.0404 100.173 20.6712 100.388 21.3643C100.634 22.1589 100.755 22.9978 100.745 23.8413C100.745 24.0239 100.741 24.2006 100.734 24.3713C100.727 24.542 100.709 24.8159 100.68 25.1928H93.21ZM95.649 19.6471C94.1799 19.6471 93.374 20.9708 93.2313 23.6181H97.9431V22.9774C97.9938 22.1017 97.7843 21.2324 97.3488 20.5125C97.1452 20.2236 96.8848 19.9944 96.5893 19.844C96.2939 19.6936 95.9715 19.6261 95.649 19.6471ZM107.908 17.9463C108.523 17.9409 109.135 18.0331 109.727 18.2202C110.244 18.3798 110.733 18.6426 111.171 18.9966C111.563 19.3162 111.889 19.7331 112.122 20.2167C112.352 20.6999 112.47 21.2432 112.465 21.7941C112.483 22.1011 112.447 22.4091 112.359 22.6994C112.271 22.9897 112.132 23.2562 111.951 23.4826C111.785 23.6721 111.588 23.821 111.371 23.9205C111.154 24.0201 110.922 24.0681 110.689 24.0618C110.446 24.0718 110.204 24.0169 109.983 23.9016C109.805 23.8017 109.648 23.6588 109.523 23.4826C109.403 23.3126 109.315 23.1151 109.266 22.9034C109.216 22.6944 109.191 22.4789 109.191 22.2625C109.182 21.8857 109.276 21.5153 109.458 21.2026C109.656 20.8913 109.938 20.6655 110.261 20.5617C110.023 20.2346 109.712 19.9876 109.362 19.847C108.932 19.6588 108.475 19.566 108.014 19.5731C107.599 19.5645 107.187 19.6579 106.805 19.847C106.445 20.0385 106.138 20.3414 105.918 20.722C105.645 21.21 105.456 21.754 105.361 22.3241C105.221 23.1314 105.157 23.9535 105.169 24.7766C105.154 25.479 105.205 26.1814 105.318 26.8716C105.404 27.3336 105.54 27.7809 105.725 28.2027C105.933 28.6537 106.234 29.0388 106.602 29.3241C107.013 29.6139 107.49 29.7568 107.971 29.735C108.278 29.7321 108.583 29.6908 108.881 29.6117C109.204 29.5286 109.519 29.4089 109.822 29.2543C110.135 29.0943 110.429 28.8915 110.699 28.6504C110.982 28.3984 111.231 28.0994 111.438 27.763L112.593 28.7983C112.008 29.7797 111.207 30.5642 110.273 31.0715C109.387 31.5252 108.428 31.7564 107.459 31.7492C106.523 31.7853 105.595 31.5433 104.763 31.0468C104.03 30.5714 103.434 29.8568 103.052 28.9928C102.795 28.4202 102.604 27.811 102.485 27.1811C102.345 26.4556 102.277 25.7143 102.282 24.9711C102.27 23.9878 102.4 23.0091 102.667 22.0749C102.901 21.2576 103.276 20.5032 103.768 19.8566C104.254 19.234 104.858 18.7489 105.534 18.4394C106.29 18.0986 107.096 17.931 107.908 17.9463ZM122.628 24.8971C122.628 24.3713 122.621 23.9148 122.607 23.5278C122.593 23.1407 122.573 22.8042 122.548 22.5186C122.532 22.2727 122.497 22.0292 122.441 21.7914C122.397 21.615 122.343 21.442 122.28 21.2739C122.107 20.8819 121.836 20.558 121.503 20.343C121.17 20.128 120.789 20.0317 120.408 20.0661C120.004 20.0675 119.607 20.1862 119.253 20.4112C118.885 20.6375 118.581 20.9794 118.375 21.3971C118.242 21.6849 118.141 21.9915 118.076 22.3091C117.982 22.7693 117.939 23.2413 117.948 23.714V29.6541L119.381 30.1224V31.5027H113.578V30.1224L115.226 29.6541V14.1259L113.578 13.6576V12.2773H117.943V20.5098C118.287 19.7521 118.791 19.1061 119.408 18.631C120.001 18.1781 120.698 17.9397 121.409 17.9463C121.935 17.9312 122.459 18.0187 122.96 18.2052C123.378 18.375 123.756 18.6566 124.062 19.0267C124.537 19.6223 124.872 20.3477 125.035 21.1342C125.266 22.2602 125.37 23.4159 125.346 24.5725V29.6541L126.993 30.1224V31.5027H121.195V30.1224L122.628 29.6541V24.8971ZM89.423 45.4069C89.4262 46.3272 89.137 47.217 88.61 47.9087C88.3517 48.247 88.044 48.5306 87.7007 48.7468C87.3456 48.9707 86.9575 49.1169 86.5561 49.1781V49.2767C87.5622 49.4896 88.4836 50.0649 89.1877 50.9198C89.8324 51.7443 90.1772 52.823 90.1505 53.9324C90.1579 54.8389 89.9387 55.7288 89.5193 56.4957C89.1354 57.2283 88.5839 57.8253 87.9254 58.2212C87.7154 58.3407 87.4972 58.4397 87.2727 58.5169C87.0026 58.608 86.7275 58.6779 86.449 58.7264C86.0946 58.7886 85.7375 58.8298 85.3793 58.8497C84.9799 58.8762 84.5164 58.8894 83.9886 58.8894H76.9496V57.4598L78.7468 56.9421V43.0901L76.9496 42.5724V41.1428H84.7802C86.0312 41.0491 87.2675 41.4975 88.2462 42.3999C88.6131 42.7878 88.9079 43.2573 89.1128 43.7801C89.3167 44.2903 89.4224 44.8453 89.423 45.4069ZM81.5282 50.5364V57.0408H83.2399C83.7696 57.0513 84.2993 57.0101 84.823 56.9175C85.1755 56.8541 85.5158 56.7206 85.8286 56.5231C86.2303 56.2743 86.5581 55.8929 86.77 55.4277C87.0199 54.8932 87.1453 54.2929 87.1337 53.6859C87.1478 53.182 87.0522 52.6821 86.8555 52.2316C86.6804 51.8516 86.4403 51.5162 86.1496 51.2457C85.8555 50.9952 85.5208 50.815 85.1654 50.7159C84.6592 50.5787 84.1399 50.5166 83.6201 50.531L81.5282 50.5364ZM81.5282 48.7372H83.5607C83.9598 48.7764 84.3618 48.7202 84.741 48.5717C85.1203 48.4231 85.4687 48.1858 85.7644 47.8744C85.9926 47.6222 86.1808 47.3262 86.3207 46.9995C86.476 46.6177 86.5566 46.201 86.5566 45.7795C86.5566 45.3577 86.476 44.9411 86.3207 44.5594C86.1808 44.2326 85.9926 43.9366 85.7644 43.6843C85.1701 43.1268 84.4093 42.8612 83.6464 42.9448H81.5282V48.7372ZM94.603 52.5822C94.5766 53.5347 94.7223 54.4832 95.0309 55.3674C95.214 55.9069 95.5398 56.3662 95.9623 56.6804C96.3848 56.9945 96.8823 57.1474 97.3844 57.1175C98.0348 57.1152 98.6769 56.9513 99.2673 56.6368C99.8959 56.302 100.441 55.789 100.85 55.1456L102.006 56.1808C101.472 57.0391 100.782 57.754 99.9851 58.2759C99.0265 58.8826 97.9438 59.1806 96.8507 59.1386C95.9092 59.1701 94.9766 58.9195 94.1442 58.4114C93.3926 57.9232 92.7907 57.1783 92.4219 56.2795C92.1988 55.7436 92.039 55.1758 91.9465 54.591C91.8424 53.9199 91.7923 53.2392 91.7967 52.5576C91.6902 50.6468 92.1755 48.7546 93.166 47.2172C93.6506 46.5795 94.2556 46.0782 94.9345 45.7516C95.6133 45.425 96.3482 45.2818 97.0826 45.3329C97.7972 45.3233 98.5075 45.4624 99.1792 45.7438C99.7812 45.9888 100.327 46.3869 100.777 46.9084C101.227 47.43 101.57 48.0615 101.779 48.7563C102.025 49.551 102.145 50.3898 102.135 51.2334C102.135 51.416 102.132 51.5927 102.125 51.7634C102.118 51.9341 102.1 52.2079 102.071 52.5849L94.603 52.5822ZM97.0422 47.0364C95.573 47.0364 94.7671 48.3601 94.6244 51.0075H99.3314V50.3666C99.3822 49.4911 99.1725 48.6218 98.7371 47.9018C98.5339 47.6127 98.2742 47.3834 97.9791 47.2325C97.6839 47.0815 97.3621 47.0134 97.0397 47.0337L97.0422 47.0364ZM112.34 52.2864C112.34 51.7606 112.333 51.3042 112.318 50.9171C112.304 50.5301 112.286 50.1932 112.265 49.9065C112.25 49.6608 112.214 49.4173 112.158 49.1795C112.114 49.0031 112.061 48.8301 111.997 48.6618C111.823 48.2677 111.551 47.9424 111.216 47.7273C110.88 47.5123 110.497 47.4171 110.115 47.4541C109.71 47.4554 109.313 47.5741 108.959 47.7991C108.592 48.0254 108.287 48.3673 108.082 48.7851C107.949 49.073 107.848 49.3795 107.782 49.697C107.689 50.1574 107.646 50.6294 107.654 51.102V57.0408L109.088 57.5092V58.8894H103.292V57.5092L104.939 57.0408V41.5125L103.292 41.0443V39.6639H107.657V47.8964C107.999 47.1394 108.501 46.4936 109.116 46.0177C109.709 45.5647 110.405 45.3263 111.117 45.3329C111.643 45.3177 112.167 45.4053 112.668 45.5918C113.086 45.7617 113.464 46.0433 113.77 46.4134C114.245 47.0089 114.58 47.7343 114.743 48.5207C114.974 49.6469 115.078 50.8025 115.053 51.9593V57.0408L116.701 57.5092V58.8894H110.899V57.5092L112.333 57.0408L112.34 52.2864ZM120.577 52.5822C120.55 53.5347 120.696 54.4832 121.005 55.3674C121.189 55.9049 121.515 56.3622 121.937 56.6747C122.359 56.9873 122.855 57.1393 123.356 57.1092C124.006 57.107 124.648 56.943 125.239 56.6285C125.868 56.2961 126.415 55.7849 126.827 55.1428L127.982 56.1781C127.448 57.0364 126.758 57.7513 125.961 58.2732C125.003 58.8798 123.92 59.1779 122.827 59.1359C121.885 59.1674 120.953 58.9168 120.12 58.4087C119.365 57.9225 118.759 57.1774 118.387 56.2767C118.164 55.7409 118.004 55.1729 117.912 54.5883C117.808 53.9172 117.758 53.2365 117.762 52.5549C117.656 50.6441 118.141 48.7519 119.131 47.2145C119.617 46.576 120.224 46.0744 120.904 45.7482C121.584 45.422 122.321 45.28 123.056 45.3329C123.771 45.3233 124.481 45.4624 125.153 45.7438C125.755 45.9888 126.301 46.3869 126.751 46.9084C127.201 47.43 127.543 48.0615 127.753 48.7563C127.998 49.551 128.119 50.3898 128.109 51.2334C128.109 51.416 128.106 51.5927 128.098 51.7634C128.091 51.9341 128.074 52.2079 128.045 52.5849L120.577 52.5822ZM123.016 47.0364C121.547 47.0364 120.741 48.3601 120.598 51.0075H125.305V50.3666C125.356 49.4911 125.146 48.6218 124.711 47.9018C124.508 47.6127 124.248 47.3834 123.953 47.2325C123.658 47.0815 123.336 47.0134 123.013 47.0337L123.016 47.0364ZM131.167 47.4307L129.52 46.9625V45.5794H133.245L133.721 48.0442H133.806C134.203 47.2282 134.776 46.5444 135.47 46.0601C136.135 45.5842 136.902 45.3323 137.685 45.3329C138.227 45.3189 138.766 45.4498 139.257 45.7151C139.657 45.9219 140.001 46.2499 140.252 46.664C140.513 47.1678 140.701 47.7173 140.808 48.2908C141.228 47.3996 141.839 46.6483 142.584 46.1094C143.282 45.6017 144.091 45.3323 144.916 45.3329C145.45 45.3225 145.979 45.4532 146.461 45.7151C146.89 45.942 147.254 46.3054 147.51 46.7625C147.65 47.0233 147.758 47.3055 147.831 47.6006C147.929 48.0003 148.001 48.4082 148.045 48.8206C148.102 49.3054 148.141 49.8765 148.164 50.5337C148.186 51.191 148.197 51.9633 148.196 52.8505V57.0408L149.843 57.5092V58.8894H144.024V57.5092L145.457 57.0408V52.2837C145.457 51.7579 145.45 51.3014 145.436 50.9144C145.421 50.5273 145.4 50.1905 145.372 49.9038C145.349 49.6591 145.314 49.4162 145.265 49.1766C145.228 48.9996 145.177 48.8263 145.115 48.6591C145.01 48.3207 144.81 48.0318 144.548 47.8374C144.324 47.6851 144.069 47.6043 143.81 47.6034C143.476 47.5966 143.143 47.655 142.825 47.7759C142.517 47.908 142.234 48.1089 141.993 48.3675C141.688 48.6824 141.45 49.0748 141.298 49.5135C141.131 50.056 141.04 50.6262 141.031 51.202V57.0408L142.464 57.5092V58.8894H136.878V57.5092L138.311 57.0408V52.2837C138.311 51.7579 138.304 51.3014 138.29 50.9144C138.275 50.5273 138.254 50.1905 138.225 49.9038C138.203 49.6591 138.168 49.4162 138.119 49.1766C138.082 48.9996 138.031 48.8263 137.969 48.6591C137.864 48.3207 137.664 48.0318 137.402 47.8374C137.178 47.6851 136.923 47.6043 136.664 47.6034C136.329 47.5966 135.997 47.655 135.68 47.7759C135.371 47.908 135.088 48.1089 134.848 48.3675C134.542 48.6824 134.304 49.0748 134.152 49.5135C133.985 50.056 133.894 50.6262 133.885 51.202V57.0408L135.318 57.5092V58.8894H129.518V57.5092L131.165 57.0408L131.167 47.4307ZM162.062 52.2372C162.068 53.2451 161.935 54.2478 161.667 55.2072C161.434 56.0692 161.045 56.8633 160.522 57.5352C160.059 58.1048 159.477 58.5289 158.831 58.7674C157.306 59.2605 155.692 59.2605 154.167 58.7674C153.522 58.5289 152.941 58.1048 152.478 57.5352C151.954 56.8633 151.564 56.0692 151.333 55.2072C150.805 53.2739 150.805 51.2005 151.333 49.267C151.564 48.4051 151.954 47.6109 152.478 46.9392C152.941 46.3695 153.522 45.9454 154.167 45.7068C155.692 45.2139 157.306 45.2139 158.831 45.7068C159.477 45.9454 160.059 46.3695 160.522 46.9392C161.045 47.6109 161.434 48.4051 161.667 49.267C161.934 50.2258 162.066 51.2275 162.06 52.2345L162.062 52.2372ZM154.552 56.5013C154.801 56.812 155.101 57.0602 155.436 57.2299C155.771 57.3997 156.133 57.4873 156.499 57.4873C156.866 57.4873 157.228 57.3997 157.562 57.2299C157.897 57.0602 158.199 56.812 158.446 56.5013C158.998 55.175 159.235 53.7033 159.131 52.2372C159.235 50.7709 158.998 49.2994 158.446 47.9731C158.199 47.6622 157.897 47.4142 157.562 47.2444C157.228 47.0746 156.866 46.9871 156.499 46.9871C156.133 46.9871 155.771 47.0746 155.436 47.2444C155.101 47.4142 154.801 47.6622 154.552 47.9731C154 49.2994 153.763 50.7709 153.869 52.2372C153.763 53.7021 153.998 55.1728 154.55 56.4984L154.552 56.5013ZM162.961 45.9246L165.057 45.5794L165.314 42.5231L167.751 42.1287V45.5794H170.484V47.1815H167.751V55.2415C167.751 55.8001 167.757 56.1821 167.772 56.3876C167.78 56.5598 167.81 56.7298 167.858 56.8929C167.91 56.9997 167.994 57.0793 168.095 57.1146C168.276 57.174 168.465 57.199 168.652 57.1886H170.15V58.2732C169.43 58.5373 168.697 58.7552 167.957 58.9264C167.46 59.0478 166.955 59.1179 166.448 59.1359C166.183 59.1698 165.914 59.0979 165.688 58.932C165.462 58.7661 165.293 58.5163 165.207 58.2239C165.127 57.9831 165.08 57.7295 165.068 57.4722C165.047 57.1682 165.036 56.7039 165.036 56.0796V47.1788H162.961V45.9246ZM180.12 52.2837C180.12 51.7579 180.112 51.3014 180.099 50.9144C180.084 50.5273 180.066 50.1905 180.044 49.9038C180.029 49.6581 179.995 49.4146 179.937 49.1766C179.895 49.0002 179.841 48.8274 179.777 48.6591C179.604 48.265 179.331 47.9397 178.996 47.7246C178.66 47.5096 178.277 47.4144 177.895 47.4514C177.491 47.4527 177.093 47.5714 176.74 47.7964C176.372 48.0227 176.067 48.3646 175.862 48.7823C175.729 49.0701 175.628 49.3767 175.563 49.6943C175.47 50.1546 175.426 50.6265 175.435 51.0992V57.0408L176.868 57.5092V58.8894H171.067V57.5092L172.715 57.0408V41.5125L171.067 41.0443V39.6639H175.432V47.8964C175.776 47.1387 176.28 46.4927 176.898 46.0177C177.491 45.5647 178.186 45.3263 178.898 45.3329C179.424 45.3177 179.948 45.4053 180.449 45.5918C180.868 45.7617 181.245 46.0433 181.551 46.4134C182.026 47.0089 182.361 47.7343 182.524 48.5207C182.755 49.6469 182.859 50.8025 182.835 51.9593V57.0408L184.482 57.5092V58.8894H178.684V57.5092L180.117 57.0408L180.12 52.2837ZM189.942 57.6323C190.28 57.6346 190.618 57.5932 190.948 57.5092C191.235 57.4382 191.512 57.322 191.772 57.164C191.992 57.0313 192.182 56.8415 192.328 56.6094C192.463 56.3898 192.534 56.1266 192.532 55.8577C192.535 55.5423 192.44 55.236 192.264 54.995C192.066 54.731 191.826 54.5134 191.558 54.3541C191.242 54.1621 190.914 54.0013 190.574 53.8734C190.211 53.7339 189.85 53.5969 189.493 53.4627C189.051 53.3145 188.618 53.1292 188.199 52.9081C187.788 52.6934 187.405 52.4111 187.064 52.0701C186.732 51.7364 186.459 51.3301 186.262 50.8747C186.054 50.3668 185.951 49.8097 185.963 49.2479C185.947 48.7068 186.039 48.1686 186.23 47.6749C186.423 47.1812 186.713 46.7454 187.076 46.4011C187.995 45.6218 189.125 45.2421 190.263 45.3289C190.862 45.3207 191.46 45.4036 192.039 45.5754C192.521 45.7155 192.977 45.9535 193.387 46.2779C193.742 46.5614 194.037 46.9317 194.253 47.3623C194.46 47.7792 194.567 48.2516 194.564 48.7317C194.579 48.9691 194.552 49.2073 194.484 49.432C194.416 49.6567 194.307 49.8629 194.169 50.038C194.022 50.191 193.852 50.3089 193.666 50.385C193.481 50.4612 193.285 50.494 193.087 50.4817C192.702 50.5083 192.322 50.3725 192.018 50.0997C191.899 49.9927 191.803 49.8563 191.736 49.7005C191.669 49.5448 191.635 49.3737 191.633 49.1999C191.635 48.9146 191.708 48.6359 191.847 48.3989C191.983 48.151 192.175 47.9507 192.402 47.8197C192.196 47.5004 191.918 47.2497 191.601 47.0926C191.203 46.9066 190.778 46.8185 190.349 46.8338C189.817 46.7864 189.286 46.9565 188.852 47.3145C188.686 47.4807 188.556 47.6879 188.472 47.9208C188.386 48.1534 188.348 48.4055 188.36 48.6577C188.342 48.9358 188.383 49.2148 188.479 49.4704C188.577 49.7259 188.726 49.9505 188.915 50.1243C189.371 50.4904 189.877 50.7616 190.413 50.9254C190.984 51.1226 191.547 51.3279 192.104 51.5416C192.624 51.7362 193.123 52.0011 193.591 52.3303C194.007 52.6219 194.365 53.0127 194.639 53.4764C194.912 53.9652 195.051 54.5382 195.034 55.1195C195.043 55.7219 194.906 56.3151 194.639 56.8326C194.366 57.3443 193.992 57.7749 193.547 58.0897C193.042 58.4471 192.488 58.7091 191.911 58.8661C191.245 59.0529 190.564 59.1448 189.879 59.14C188.763 59.2126 187.653 58.9132 186.68 58.2773C186.327 58.0384 186.034 57.696 185.833 57.2846C185.631 56.8732 185.529 56.4077 185.535 55.9358C185.52 55.6481 185.556 55.36 185.64 55.089C185.725 54.8178 185.858 54.5692 186.027 54.3582C186.179 54.1762 186.363 54.032 186.565 53.9345C186.767 53.8369 186.984 53.7882 187.205 53.7913C187.542 53.7904 187.874 53.9064 188.155 54.1242C188.294 54.2236 188.408 54.3638 188.485 54.5304C188.562 54.6972 188.6 54.8843 188.594 55.0731C188.589 55.3812 188.506 55.6813 188.355 55.9358C188.223 56.1876 188.04 56.399 187.821 56.552C188.004 56.8577 188.245 57.1109 188.527 57.2914C188.963 57.5493 189.452 57.6671 189.942 57.6323Z" fill="black"/>
<path fill-rule="evenodd" clip-rule="evenodd" d="M45.6313 32.4791H37.4939V20.7604H57.8385C57.8385 23.076 52.6667 32.4791 45.6313 32.4791ZM0 4.01762V0L11.8565 0.0273866V0.0136933L43.7033 0C52.6002 0 57.8385 8.13382 57.8385 11.7187H8.42852C8.42852 7.94212 6.11903 4.01762 0 4.01762ZM8.42852 20.7604H28.483V32.4791H8.42852V20.7604ZM28.483 53.2383H8.42852V41.5196H28.483V53.2383ZM37.4927 41.5196H46.5025C55.6346 41.5196 60.1633 49.9437 60.1633 53.2383H37.4939L37.4927 41.5196ZM8.42852 62.2799H28.483V67.3027H37.4927V62.2799L60.1633 62.2881C60.1633 66.4222 53.639 74 46.7938 74H0V69.9811C6.0703 69.9811 8.42852 66.2838 8.42852 62.2799Z" fill="#3672FF"/>
</svg>
