<svg width="362" height="70" viewBox="0 0 362 70" fill="none" xmlns="http://www.w3.org/2000/svg">
<path d="M90.8223 19.1172H111.993V22.6827H103.104V48.7758H99.3874V22.6827H90.8223V19.1172Z" fill="#2C2C2C"/>
<path d="M118.458 27.0586C125.892 27.0586 128.155 29.8138 128.155 38.4034C128.155 46.3448 125.892 49.1 118.458 49.1C111.024 49.1 108.762 46.1827 108.762 38.4034C108.762 29.4896 111.186 27.0586 118.458 27.0586ZM118.458 45.5345C122.498 45.5345 124.438 45.0482 124.438 38.2414C124.438 30.9482 122.983 30.462 118.458 30.462C114.256 30.462 112.479 31.1103 112.479 38.2414C112.479 45.0482 114.418 45.5345 118.458 45.5345Z" fill="#2C2C2C"/>
<path d="M132.679 27.2226H135.588L136.396 29.4915C137.527 28.6812 141.406 26.8984 143.992 26.8984C149.81 26.8984 151.102 32.4088 151.102 37.7571C151.102 43.4295 150.133 48.9398 143.992 48.9398C142.214 48.9398 138.82 48.4536 136.235 47.3191V59.4743H132.518V27.2226H132.679ZM143.668 45.6984C146.093 45.6984 147.385 44.2398 147.385 37.9191C147.385 32.7329 146.093 30.464 143.668 30.464C140.76 30.464 138.335 31.2743 136.396 32.2467V44.726C138.82 45.3743 140.76 45.6984 143.668 45.6984Z" fill="#2C2C2C"/>
<path d="M156.598 19.1172H168.233C177.283 19.1172 178.899 27.7068 178.899 34.0275C178.899 41.3206 175.991 48.7758 168.233 48.7758H156.598V19.1172ZM168.072 45.0482C173.082 45.0482 175.021 40.0241 175.021 33.8655C175.021 25.4379 172.435 22.5206 168.072 22.5206H160.315V45.0482H168.072Z" fill="#002C5F"/>
<path d="M191.505 27.0586C197 27.0586 200.07 27.5448 200.07 34.6758C200.07 37.9172 198.292 39.7 194.252 39.7H185.849C185.849 44.4 186.98 45.3724 190.05 45.3724C193.767 45.3724 196.676 45.3724 199.747 44.8862V47.6414C196.515 48.6138 192.636 48.7758 189.242 48.7758C183.748 48.7758 182.132 46.0207 182.132 37.7551C181.97 28.3551 184.717 27.0586 191.505 27.0586ZM193.929 36.6207C195.545 36.6207 196.353 35.9724 196.353 34.6758C196.353 30.7862 195.707 30.462 191.667 30.462C187.465 30.462 185.849 30.462 185.849 36.6207H193.929Z" fill="#002C5F"/>
<path d="M206.534 27.2188L212.837 43.7498L219.14 27.2188H223.18L214.615 48.7739H210.736L202.494 27.2188H206.534Z" fill="#002C5F"/>
<path d="M234.976 27.0586C240.471 27.0586 243.541 27.5448 243.541 34.6758C243.541 37.9172 241.764 39.7 237.724 39.7H229.158C229.158 44.4 230.29 45.3724 233.36 45.3724C237.077 45.3724 239.986 45.3724 243.057 44.8862V47.6414C239.824 48.6138 235.946 48.7758 232.552 48.7758C227.057 48.7758 225.441 46.0207 225.441 37.7551C225.441 28.3551 228.189 27.0586 234.976 27.0586ZM237.4 36.6207C239.016 36.6207 239.824 35.9724 239.824 34.6758C239.824 30.7862 239.178 30.462 235.138 30.462C230.936 30.462 229.32 30.462 229.32 36.6207H237.4Z" fill="#002C5F"/>
<path d="M247.744 17.0117H251.461V40.8359C251.461 44.2393 252.431 45.0497 253.724 45.3738C253.724 45.3738 256.794 46.1841 257.117 46.1841V48.7772H253.239C250.007 48.7772 247.744 46.8324 247.744 41.16V17.0117Z" fill="#002C5F"/>
<path d="M268.269 27.0586C275.703 27.0586 277.965 29.8138 277.965 38.4034C277.965 46.3448 275.703 49.1 268.269 49.1C260.835 49.1 258.572 46.1827 258.572 38.4034C258.572 29.4896 261.158 27.0586 268.269 27.0586ZM268.269 45.5345C272.309 45.5345 274.248 45.0482 274.248 38.2414C274.248 30.9482 272.794 30.462 268.269 30.462C264.067 30.462 262.289 31.1103 262.289 38.2414C262.451 45.0482 264.39 45.5345 268.269 45.5345Z" fill="#002C5F"/>
<path d="M282.652 27.2226H285.561L286.369 29.4915C287.5 28.6812 291.379 26.8984 293.964 26.8984C299.782 26.8984 301.075 32.4088 301.075 37.7571C301.075 43.4295 300.105 48.9398 293.964 48.9398C292.187 48.9398 288.793 48.4536 286.207 47.3191V59.4743H282.49V27.2226H282.652ZM293.48 45.6984C295.904 45.6984 297.196 44.2398 297.196 37.9191C297.196 32.7329 295.904 30.464 293.48 30.464C290.571 30.464 288.146 31.2743 286.207 32.2467V44.726C288.793 45.3743 290.732 45.6984 293.48 45.6984Z" fill="#002C5F"/>
<path d="M314.488 27.0586C319.983 27.0586 323.053 27.5448 323.053 34.6758C323.053 37.9172 321.275 39.7 317.235 39.7H308.67C308.67 44.4 309.801 45.3724 312.872 45.3724C316.589 45.3724 319.498 45.3724 322.568 44.8862V47.6414C319.336 48.6138 315.458 48.7758 312.064 48.7758C306.569 48.7758 304.953 46.0207 304.953 37.7551C304.953 28.3551 307.7 27.0586 314.488 27.0586ZM316.912 36.6207C318.528 36.6207 319.336 35.9724 319.336 34.6758C319.336 30.7862 318.69 30.462 314.65 30.462C310.448 30.462 308.832 30.462 308.832 36.6207H316.912Z" fill="#002C5F"/>
<path d="M327.254 27.2207H330.163L331.132 29.9758C333.395 28.5172 335.496 27.0586 338.728 27.0586C339.859 27.0586 341.152 27.0586 341.637 27.3827V31.1103C341.152 30.9482 339.698 30.9482 338.566 30.9482C335.496 30.9482 333.88 31.5965 331.132 33.3793V49.1H327.416V27.2207H327.254Z" fill="#002C5F"/>
<path d="M344.223 32.5689C344.223 29.1655 345.677 27.0586 349.879 27.0586C352.626 27.0586 358.767 27.3827 360.868 27.8689V30.462H350.364C348.101 30.462 347.94 31.2724 347.94 32.5689V34.1896C347.94 36.1345 348.909 36.2965 350.364 36.2965H356.505C360.222 36.2965 361.999 38.5655 361.999 41.6448V43.7517C361.999 48.1276 359.252 49.1 356.666 49.1C354.081 49.1 346.647 48.6138 345.192 48.2896V45.6965H356.182C356.343 45.6965 358.282 45.8586 358.282 43.7517V41.9689C358.282 40.6724 357.798 40.0241 356.182 40.0241H350.041C346.162 40.0241 344.223 38.7276 344.223 34.5138V32.5689Z" fill="#002C5F"/>
<path fill-rule="evenodd" clip-rule="evenodd" d="M58.1786 3.55859H5.33304C2.42411 3.55859 0 5.50342 0 7.93446V62.0655C0 64.4965 2.42411 66.4414 5.33304 66.4414H58.1786C61.0875 66.4414 63.5116 64.4965 63.5116 62.0655V7.93446C63.6732 5.50342 61.2491 3.55859 58.1786 3.55859Z" fill="#002C5F"/>
<path fill-rule="evenodd" clip-rule="evenodd" d="M45.8963 21.3854C45.8963 21.3854 42.341 16.8475 35.0686 16.1992H10.0195V24.3027H16.4838L16.3222 51.0441H25.5338V24.1406H35.0686C35.0686 24.1406 38.9472 24.6268 40.4017 27.544C40.4017 27.544 43.4722 33.0544 40.4017 39.5372C40.4017 39.5372 38.9472 42.2923 35.8767 42.6165L28.2811 42.7785V50.882H34.907C34.907 50.882 38.1392 50.882 41.2097 49.5854C42.9874 48.7751 45.0883 47.4785 46.2195 45.6958C46.0579 45.6958 56.0776 34.3509 45.8963 21.3854Z" fill="white"/>
</svg>
