<svg width="322" height="73" viewBox="0 0 322 73" fill="none" xmlns="http://www.w3.org/2000/svg">
<g clip-path="url(#clip0_4884_21884)">
<path d="M56.5059 30.0195H67.3316C76.045 30.0195 82.118 35.9706 82.118 43.6409V43.7732C82.118 51.4434 76.177 57.3945 67.3316 57.3945H56.5059V30.0195ZM67.3316 51.8402C72.3484 51.8402 75.649 48.534 75.649 43.7732V43.6409C75.649 38.88 72.3484 35.4416 67.3316 35.4416H62.7109V51.8402H67.3316Z" fill="black"/>
<path d="M87.3984 30.0195H108.39V35.3094H93.6034V40.8637H106.674V46.1536H93.6034V51.8402H108.654V57.13H87.5305L87.3984 30.0195Z" fill="black"/>
<path d="M112.086 53.2971L115.783 49.0652C118.291 51.0489 120.931 52.3714 124.1 52.3714C126.608 52.3714 128.061 51.3134 128.061 49.8587V49.7264C128.061 48.1395 127.004 47.346 122.516 46.288C116.971 44.8333 113.274 43.3786 113.274 37.9565V37.8243C113.274 32.9312 117.235 29.625 123.044 29.625C127.004 29.625 130.569 30.8152 133.341 33.0634L130.173 37.692C127.796 35.9728 125.288 35.0471 122.912 35.0471C120.535 35.0471 119.347 36.1051 119.347 37.4275V37.2953C119.347 39.0145 120.535 39.6757 125.288 40.8659C130.965 42.3207 134.001 44.3043 134.001 48.933V49.0652C134.001 54.4873 129.777 57.529 123.836 57.529C119.611 57.529 115.386 56.0743 112.086 53.2971Z" fill="black"/>
<path d="M139.547 30.0195H145.62V57.2623H139.547V30.0195Z" fill="black"/>
<path d="M151.43 43.6426C151.43 35.84 157.503 29.4922 165.952 29.4922C170.969 29.4922 173.873 30.8147 176.778 33.3273L172.949 37.956C170.837 36.2368 168.989 35.1788 165.688 35.1788C161.199 35.1788 157.767 39.0139 157.767 43.6426V43.7748C157.767 48.8002 161.199 52.5031 166.216 52.5031C168.46 52.5031 170.441 51.9741 172.025 50.7839V46.9487H165.82V41.7911H177.834V53.561C174.929 55.9415 171.101 57.9252 165.952 57.9252C157.239 57.5284 151.43 51.7096 151.43 43.6426Z" fill="black"/>
<path d="M183.643 30.0195H189.319L202.258 46.6826V30.0195H208.199V57.2623H203.05L189.584 39.938V57.2623H183.643V30.0195Z" fill="black"/>
<path d="M214.93 30.0234H227.604C231.169 30.0234 233.809 31.0814 235.657 32.8006C237.242 34.3876 238.034 36.5035 238.034 39.0162V39.1484C238.034 43.5126 235.657 46.2897 232.093 47.6122L238.826 57.2662H231.697L225.756 48.5379H225.624H220.871V57.2662H214.666V30.0234H214.93ZM227.208 43.1158C230.245 43.1158 231.829 41.5289 231.829 39.2807V39.1484C231.829 36.6358 230.113 35.3133 227.076 35.3133H221.003V43.1158H227.208Z" fill="url(#paint0_linear_4884_21884)"/>
<path d="M243.182 45.4951V29.8901H249.255V45.2306C249.255 49.727 251.499 51.843 255.196 51.843C258.892 51.843 261.137 49.5948 261.137 45.2306V29.7578H267.21V45.0984C267.21 53.2977 262.457 57.3973 255.064 57.3973C247.67 57.3973 243.182 53.4299 243.182 45.4951Z" fill="url(#paint1_linear_4884_21884)"/>
<path d="M271.566 53.2971L275.263 49.0652C277.771 51.0489 280.412 52.3714 283.58 52.3714C286.089 52.3714 287.541 51.3134 287.541 49.8587V49.7264C287.541 48.1395 286.485 47.346 281.996 46.288C276.451 44.8333 272.755 43.3786 272.755 37.9565V37.8243C272.755 32.9312 276.715 29.625 282.524 29.625C286.485 29.625 290.049 30.8152 292.822 33.0634L289.653 37.692C287.277 35.9728 284.769 35.0471 282.392 35.0471C280.016 35.0471 278.828 36.1051 278.828 37.4275V37.2953C278.828 39.0145 280.016 39.6757 284.769 40.8659C290.445 42.3207 293.482 44.3043 293.482 48.933V49.0652C293.482 54.4873 289.257 57.529 283.316 57.529C279.224 57.529 274.867 56.0743 271.566 53.2971Z" fill="url(#paint2_linear_4884_21884)"/>
<path d="M298.764 30.0234H304.837V40.8676H316.058V30.0234H322.131V57.2662H316.058V46.422H304.837V57.2662H298.764V30.0234Z" fill="url(#paint3_linear_4884_21884)"/>
<path d="M21.6515 45.3601C21.5195 45.2279 21.5195 45.3601 21.6515 45.3601L20.9914 44.9634L20.8594 44.8311L5.28085 33.7224C5.28085 33.7224 5.14883 33.7224 5.14883 33.5902L4.88479 33.3257L4.75277 33.1934H4.48873L0 30.0195L8.84543 31.342C9.24149 31.342 9.37351 31.4742 9.76958 31.6065C9.9016 31.6065 10.1656 31.7387 10.1656 31.7387C10.5617 31.871 10.6937 32.0032 10.9578 32.1355C11.2218 32.2677 11.3538 32.4 11.6179 32.5322C11.7499 32.6645 12.0139 32.7967 12.0139 32.929C12.146 33.0612 12.278 33.0612 12.41 33.1934C12.674 33.3257 12.8061 33.4579 12.8061 33.5902C13.2021 33.9869 13.4662 34.3837 13.8622 34.6482L20.8594 44.5666L20.9914 44.6989L21.6515 45.3601Z" fill="#2AD2FF"/>
<path d="M21.6523 60.7007L20.9922 59.6427L20.8602 59.5105L0.132812 30.0195L4.62154 33.1934L5.41367 33.7224L20.9922 44.8311H21.1242L21.6523 45.2279C21.6523 45.2279 21.7843 45.2279 21.7843 45.3601L22.4444 44.8311L43.4358 30.0195L22.3124 59.6427L22.1804 59.775L21.6523 60.7007Z" fill="url(#paint4_linear_4884_21884)"/>
<path d="M21.6519 40.3349L20.9918 39.2769L20.8598 39.1446L15.7109 32.0033L20.8598 33.0613H20.9918L21.6519 33.1936L22.312 33.0613L27.3288 31.8711L22.312 39.2769V39.4091L21.6519 40.3349Z" fill="#2AD2FF"/>
<path d="M43.5679 29.8867L36.9668 30.8124L34.4584 31.2092C32.4781 31.4737 30.6298 32.5316 29.4416 34.2508L22.4445 44.3016L22.3125 44.4338L21.6523 45.3595L22.4445 44.5661L22.5765 44.4338L21.6523 45.3595L39.4752 32.6639L43.5679 29.8867Z" fill="#2AD2FF"/>
<path d="M24.9518 8.99332C24.9518 14.8122 14.9181 17.8538 14.9181 24.0694C14.7861 25.5241 15.1822 26.9788 15.8423 28.3013C15.8423 28.3013 12.0137 24.5984 12.0137 20.631C12.0137 16.6636 15.7103 10.7125 15.7103 10.7125C15.7103 13.3575 16.7664 14.1509 17.8226 14.2832H17.9546C19.1428 14.2832 19.8029 13.3575 19.8029 12.035C19.8029 10.7125 18.3507 9.39006 18.3507 6.74513C18.3507 4.23245 21.5192 0.132812 21.5192 0.132812C23.7636 2.77774 24.9518 5.81941 24.9518 8.99332Z" fill="#2AF4FF"/>
<path d="M22.1797 30.151C19.0111 30.151 16.6348 27.6383 16.6348 24.5966V24.4644C16.6348 17.7198 26.0083 17.0586 26.0083 7.93359C26.2723 8.33033 28.7807 11.7687 28.7807 15.4716C28.7807 20.1003 24.424 21.2905 24.424 23.5387C24.424 24.4644 24.8201 25.1256 26.1403 25.1256C26.2723 25.1256 26.4043 25.1256 26.5364 24.9934C29.0448 23.9354 30.761 21.555 30.8931 18.7778C30.8931 18.91 32.2133 30.151 22.1797 30.151Z" fill="#2AF4FF"/>
<path d="M26.2718 25.1256C26.4039 25.1256 26.5359 25.1256 26.6679 24.9934C25.3477 25.3901 20.4629 26.5803 20.4629 23.1419C20.4629 18.91 27.7241 17.9843 27.7241 14.4137C27.7241 12.1655 27.196 9.91729 26.0078 7.93359C26.2718 8.33033 28.7802 11.7687 28.7802 15.4716C28.7802 20.1003 24.4235 21.2905 24.4235 23.5387C24.5556 24.4644 25.0836 25.1256 26.2718 25.1256Z" fill="#2AD2FF"/>
<path d="M22.3129 11.3738C22.3129 14.6799 18.0883 14.4154 17.8242 14.2832H18.2203C19.4085 14.2832 20.0686 13.3575 20.0686 12.035C20.0686 10.7125 18.6163 9.39006 18.6163 6.74513C18.6163 4.23245 21.7849 0.132812 21.7849 0.132812C20.7287 1.85202 20.2006 3.70346 20.0686 5.55491C20.0686 8.59658 22.3129 8.86107 22.3129 11.3738Z" fill="#2AD2FF"/>
<path d="M19.672 69.1637L16.7676 67.18H20.3322L21.5203 63.6094L22.5765 67.18H26.1411L23.2366 69.1637L24.2928 72.6021L21.3883 70.4862L18.3518 72.6021L19.672 69.1637Z" fill="#2AD2FF"/>
<path d="M34.8537 69.1637L31.9492 67.18H35.5138L36.702 63.6094L37.7582 67.18H41.3227L38.4183 69.1637L39.4744 72.6021L36.57 70.4862L33.5335 72.6021L34.8537 69.1637Z" fill="#2AD2FF"/>
<path d="M4.62127 69.1637L1.7168 67.18H5.28137L6.46956 63.6094L7.52573 67.18H11.0903L8.18584 69.1637L9.24201 72.6021L6.33754 70.4862L3.43307 72.6021L4.62127 69.1637Z" fill="#2AD2FF"/>
</g>
<defs>
<linearGradient id="paint0_linear_4884_21884" x1="212.105" y1="0.00350917" x2="323.267" y2="0.00350917" gradientUnits="userSpaceOnUse">
<stop offset="0.73" stop-color="#2AF4FF"/>
<stop offset="0.884" stop-color="#2AF4FF"/>
</linearGradient>
<linearGradient id="paint1_linear_4884_21884" x1="212.104" y1="0.00237443" x2="323.266" y2="0.00237443" gradientUnits="userSpaceOnUse">
<stop offset="0.73" stop-color="#2AF4FF"/>
<stop offset="0.884" stop-color="#2AF4FF"/>
</linearGradient>
<linearGradient id="paint2_linear_4884_21884" x1="212.104" y1="0.00181201" x2="323.266" y2="0.00181201" gradientUnits="userSpaceOnUse">
<stop offset="0.73" stop-color="#2AF4FF"/>
<stop offset="0.884" stop-color="#2AF4FF"/>
</linearGradient>
<linearGradient id="paint3_linear_4884_21884" x1="212.105" y1="0.00350917" x2="323.267" y2="0.00350917" gradientUnits="userSpaceOnUse">
<stop offset="0.73" stop-color="#2AF4FF"/>
<stop offset="0.884" stop-color="#2AF4FF"/>
</linearGradient>
<linearGradient id="paint4_linear_4884_21884" x1="0.000791225" y1="60.7562" x2="0.000791225" y2="44.5243" gradientUnits="userSpaceOnUse">
<stop offset="0.73" stop-color="#2AF4FF"/>
<stop offset="0.884" stop-color="#2AF4FF"/>
</linearGradient>
<clipPath id="clip0_4884_21884">
<rect width="322" height="73" fill="white"/>
</clipPath>
</defs>
</svg>
