<svg width="182" height="73" viewBox="0 0 182 73" fill="none" xmlns="http://www.w3.org/2000/svg">
<path fill-rule="evenodd" clip-rule="evenodd" d="M18.8087 14.1875H8.08594V22.0256H18.8087V14.1875ZM18.7178 25.5883H8.08594V53.1997H18.7178V25.5883Z" fill="white"/>
<path fill-rule="evenodd" clip-rule="evenodd" d="M57.6974 8.75604C56.9704 8.22163 55.9708 8.39977 55.4256 9.11232L50.7003 15.3472C50.6095 15.4362 50.6095 15.5253 50.5186 15.6144H34.8888C34.8888 15.5253 34.7979 15.5253 34.7979 15.4362L30.1635 9.11232C29.6183 8.39977 28.6187 8.22163 27.8917 8.75604C27.1648 9.29046 26.983 10.2702 27.5282 10.9828L30.8905 15.6144H24.166V38.6832H34.5253H53.5173H62.7862C62.7862 38.6832 67.6023 32.6265 64.1492 23.3634C62.1501 18.0192 56.5161 16.2378 54.3352 15.7925L58.0609 11.0718C58.6061 10.3593 58.4244 9.29046 57.6974 8.75604ZM34.6162 31.8249V23.8087H50.3368C50.3368 23.8087 53.4265 23.6306 53.4265 27.7278C53.4265 31.8249 50.246 31.8249 50.246 31.8249H34.6162ZM34.4344 43.8492V53.1124H24.166V41.4444H59.6965L63.9675 53.1124H52.4269L48.5194 43.8492H34.4344Z" fill="white"/>
<path fill-rule="evenodd" clip-rule="evenodd" d="M141.675 53.2974H156.033C167.028 53.2974 175.933 44.5686 175.933 33.7913C175.933 23.0139 167.028 14.2852 156.033 14.2852H136.768H133.497C131.952 14.2852 130.68 15.5321 130.68 17.0463V50.6253C130.68 52.1395 131.952 53.3865 133.497 53.3865H141.675V53.2974ZM141.402 42.3419C141.402 42.6091 141.675 42.8763 141.948 42.8763H155.942C161.121 42.8763 165.302 38.7792 165.302 33.7022C165.302 28.6253 161.121 24.5281 155.942 24.5281H141.766C141.493 24.5281 141.312 24.7062 141.312 24.9734V42.3419H141.402Z" fill="white"/>
<path d="M124.683 14.2852H114.051V53.1193H124.683V14.2852Z" fill="white"/>
<path d="M103.052 30.1285C103.052 28.2581 103.597 26.3876 104.506 24.7844C105.506 23.1811 106.687 21.3998 108.323 20.42C107.232 18.9949 106.051 17.9261 104.506 17.0354C102.87 16.1447 101.053 15.9666 99.2354 15.8775C95.328 15.5212 91.6022 18.1042 89.6031 18.1042C87.6039 18.1042 84.5143 15.8775 81.243 15.9666C79.1529 16.0556 77.0629 16.6791 75.2455 17.7479C73.4281 18.8168 71.9741 20.3309 70.8837 22.2014C66.431 29.7723 69.7024 40.9059 74.0642 47.0517C76.2451 50.08 78.6986 53.3756 81.9699 53.2865C85.1504 53.1974 86.4226 51.327 90.2392 51.327C94.0558 51.327 95.2371 53.2865 98.5993 53.2865C102.052 53.1974 104.415 50.3472 106.505 47.3189C108.05 45.1812 109.231 42.5982 109.958 40.1043C107.959 39.3027 106.142 38.0557 104.869 36.2743C103.688 34.3148 103.052 32.2662 103.052 30.1285Z" fill="white"/>
<path d="M96.692 11.8725C98.6003 9.64573 99.509 6.88459 99.2363 3.94531C96.3285 4.21252 93.6932 5.54856 91.7849 7.68621C90.8762 8.75504 90.1493 9.91294 89.6949 11.249C89.2405 12.585 89.0588 13.921 89.1497 15.3462C90.6036 15.3462 91.9667 15.0789 93.3297 14.4555C94.6019 13.832 95.7833 12.9413 96.692 11.8725Z" fill="white"/>
<path d="M16.7096 68.2514C16.437 68.5186 16.1644 68.6967 15.8918 68.8748C15.6192 69.053 15.2557 69.053 14.8922 69.053C14.4379 69.053 13.9835 68.9639 13.5292 68.6967C13.0748 68.5186 12.6204 68.0732 12.0752 67.5388C11.4391 67.4497 10.803 67.2716 10.2578 67.0044C9.71257 66.6481 9.34909 66.2028 8.9856 65.7574C8.71299 65.223 8.53125 64.5995 8.53125 63.976C8.53125 63.2635 8.71299 62.64 9.07648 62.1056C9.43996 61.5712 9.89431 61.1258 10.4395 60.7696C11.0756 60.4133 11.7117 60.3242 12.4387 60.3242C13.1657 60.3242 13.8018 60.5024 14.4379 60.7696C15.074 61.0368 15.5283 61.4821 15.8009 62.1056C16.1644 62.64 16.3462 63.2635 16.3462 63.976C16.3462 64.5105 16.2553 65.0449 15.9827 65.4902C15.8009 65.9356 15.4374 66.3809 15.074 66.7372C14.7105 67.0935 14.1652 67.2716 13.62 67.4497C13.8018 67.6279 13.9835 67.806 14.1652 67.8951C14.347 68.0732 14.6196 68.0732 14.8013 68.0732C15.2557 68.0732 15.7101 67.8951 16.0735 67.5388L16.7096 68.2514ZM9.89431 64.0651C9.89431 64.5105 9.98519 64.9558 10.2578 65.3121C10.4395 65.6684 10.803 66.0246 11.1665 66.2028C11.53 66.3809 11.9843 66.5591 12.4387 66.5591C12.8931 66.5591 13.3474 66.47 13.7109 66.2028C14.0744 66.0246 14.4379 65.6684 14.6196 65.3121C14.8013 64.9558 14.9831 64.5105 14.9831 64.0651C14.9831 63.6198 14.8922 63.1744 14.6196 62.8182C14.4379 62.4619 14.0744 62.1056 13.7109 61.9275C13.3474 61.7493 12.8931 61.5712 12.4387 61.5712C11.9843 61.5712 11.53 61.6603 11.1665 61.9275C10.803 62.1056 10.4395 62.4619 10.2578 62.8182C9.98519 63.0854 9.89431 63.5307 9.89431 64.0651Z" fill="white"/>
<path d="M25.3406 67.6287C24.3411 67.6287 23.5232 67.3614 22.978 66.827C22.4328 66.2926 22.1602 65.491 22.1602 64.4222V60.4141H23.5232V64.3331C23.5232 65.7582 24.1593 66.3817 25.3406 66.3817C26.522 66.3817 27.1581 65.6691 27.1581 64.3331V60.4141H28.5211V64.5112C28.5211 65.5801 28.2485 66.2926 27.7033 66.9161C27.1581 67.3614 26.3402 67.6287 25.3406 67.6287Z" fill="white"/>
<path d="M39.5393 65.9363H35.9045L35.1775 67.5396H33.8145L37.0858 60.4141H38.4489L41.7202 67.5396H40.3572L39.5393 65.9363ZM39.085 64.8675L37.7219 61.8392L36.3588 64.9566H39.085V64.8675Z" fill="white"/>
<path d="M47.0723 60.5H48.4359V66.4676H52.2539V67.5365H47.1632V60.5H47.0723Z" fill="white"/>
<path d="M57.7891 60.5H59.1527V67.6255H57.7891V60.5Z" fill="white"/>
<path d="M67.1439 61.5688H64.7812V60.5H70.8696V61.5688H68.507V67.5365H67.1439V61.5688Z" fill="white"/>
<path d="M79.4222 65.0457V67.5396H78.0592V65.0457L75.2422 60.4141H76.6961L78.7862 63.8878L80.9671 60.4141H82.3301L79.4222 65.0457Z" fill="white"/>
<path d="M101.679 67.5396V62.8189L99.3159 66.738H98.6798L96.3171 62.908V67.5396H95.0449V60.4141H96.1354L99.0432 65.1347L101.86 60.4141H102.951V67.5396H101.679Z" fill="white"/>
<path d="M114.135 65.9363H110.5L109.773 67.5396H108.41L111.682 60.4141H113.045L116.316 67.5396H114.953L114.135 65.9363ZM113.681 64.8675L112.318 61.7501L110.955 64.8675H113.681Z" fill="white"/>
<path d="M122.859 61.5688H120.496V60.5H126.584V61.5688H124.222V67.5365H122.859V61.5688Z" fill="white"/>
<path d="M133.673 61.5688H131.311V60.5H137.399V61.5688H135.036V67.5365H133.673V61.5688Z" fill="white"/>
<path d="M148.384 66.4708V67.5396H142.932V60.4141H148.202V61.4829H144.295V63.3533H147.748V64.5112H144.295V66.4708H148.384Z" fill="white"/>
<path d="M159.12 67.5396L157.666 65.491C157.575 65.491 157.484 65.491 157.393 65.491H155.758V67.5396H154.395V60.4141H157.393C158.029 60.4141 158.575 60.5031 159.029 60.6813C159.483 60.8594 159.847 61.2157 160.119 61.572C160.392 61.9282 160.483 62.3736 160.483 62.908C160.483 63.4424 160.392 63.8878 160.119 64.244C159.847 64.6003 159.483 64.9566 159.029 65.1347L160.665 67.4505H159.12V67.5396ZM159.12 62.9971C159.12 62.5517 158.938 62.1954 158.665 61.9282C158.393 61.661 157.938 61.572 157.302 61.572H155.758V64.4222H157.302C157.848 64.4222 158.302 64.3331 158.665 64.0659C158.938 63.7987 159.12 63.4424 159.12 62.9971Z" fill="white"/>
<path d="M168.74 67.631C168.195 67.631 167.649 67.5419 167.104 67.3638C166.559 67.1857 166.196 67.0075 165.832 66.7403L166.286 65.7606C166.559 66.0278 166.922 66.2059 167.377 66.295C167.831 66.4731 168.286 66.4731 168.649 66.4731C169.194 66.4731 169.558 66.384 169.83 66.2059C170.103 66.0278 170.194 65.8496 170.194 65.5824C170.194 65.4043 170.103 65.2261 170.012 65.048C169.83 64.8699 169.649 64.7808 169.467 64.6917C169.285 64.6027 168.922 64.5136 168.558 64.4245C168.013 64.3355 167.559 64.1573 167.195 64.0683C166.832 63.9792 166.559 63.712 166.286 63.4448C166.014 63.1776 165.923 62.8213 165.923 62.3759C165.923 62.0197 166.014 61.6634 166.286 61.3071C166.468 60.9508 166.832 60.6836 167.286 60.5055C167.74 60.3273 168.286 60.2383 168.922 60.2383C169.376 60.2383 169.83 60.3274 170.194 60.4164C170.648 60.5055 171.012 60.6836 171.284 60.8618L170.83 61.8415C170.557 61.6634 170.194 61.4852 169.83 61.3962C169.467 61.3071 169.194 61.218 168.831 61.218C168.286 61.218 167.922 61.3071 167.649 61.4852C167.377 61.6634 167.286 61.9306 167.286 62.1978C167.286 62.3759 167.377 62.5541 167.468 62.7322C167.649 62.8213 167.831 62.9994 168.013 62.9994C168.195 62.9994 168.558 63.1776 168.922 63.2666C169.467 63.3557 169.921 63.5338 170.285 63.6229C170.648 63.712 170.921 63.9792 171.193 64.2464C171.466 64.5136 171.557 64.8699 171.557 65.3152C171.557 65.6715 171.466 66.0278 171.193 66.384C171.012 66.7403 170.648 66.9185 170.194 67.1857C169.739 67.4529 169.376 67.631 168.74 67.631Z" fill="white"/>
</svg>
