<svg width="30" height="37" viewBox="0 0 30 37" fill="none" xmlns="http://www.w3.org/2000/svg">
<path d="M24.6077 19.8097C24.6077 18.4556 24.9972 17.1016 25.6462 15.941C26.3602 14.7804 27.204 13.4908 28.3724 12.7816C27.5935 11.7499 26.7497 10.9762 25.6462 10.3314C24.4779 9.68661 23.1798 9.55765 21.8816 9.49317C19.0906 9.23526 16.4293 11.1051 15.0014 11.1051C13.5734 11.1051 11.3665 9.49317 9.02985 9.55765C7.53697 9.62213 6.04409 10.0735 4.74594 10.8472C3.44778 11.621 2.40925 12.7171 1.63036 14.0711C-1.55012 19.5518 0.786558 27.6115 3.90213 32.0605C5.45992 34.2528 7.21243 36.6385 9.54912 36.574C11.8209 36.5095 12.7296 35.1555 15.4557 35.1555C18.1819 35.1555 19.0257 36.574 21.4272 36.574C23.8937 36.5095 25.5813 34.4462 27.0742 32.2539C28.1777 30.7065 29.0215 28.8366 29.5407 27.0312C28.1127 26.4509 26.8146 25.5482 25.9059 24.2587C25.0621 22.8401 24.6077 21.3571 24.6077 19.8097Z" fill="black"/>
<path d="M20.0655 6.59402C21.4285 4.98207 22.0776 2.98325 21.8829 0.855469C19.8058 1.0489 17.9235 2.01607 16.5604 3.56355C15.9114 4.33729 15.3921 5.1755 15.0676 6.14267C14.743 7.10984 14.6132 8.07702 14.6781 9.10867C15.7166 9.10867 16.6903 8.91523 17.6639 8.46389C18.5726 8.01254 19.4164 7.36776 20.0655 6.59402Z" fill="black"/>
</svg>
