<svg width="33" height="29" viewBox="0 0 33 29" fill="none" xmlns="http://www.w3.org/2000/svg">
<path fill-rule="evenodd" clip-rule="evenodd" d="M8.19564 28.5813H18.4511C26.3049 28.5813 32.6659 22.2624 32.6659 14.4605C32.6659 6.6587 26.3049 0.339844 18.4511 0.339844H4.69063H2.35394C1.25051 0.339844 0.341797 1.24254 0.341797 2.33866V26.6469C0.341797 27.743 1.25051 28.6457 2.35394 28.6457H8.19564V28.5813ZM8.00092 20.6504C8.00092 20.8439 8.19565 21.0373 8.39037 21.0373H18.3862C22.0859 21.0373 25.0717 18.0713 25.0717 14.3961C25.0717 10.7208 22.0859 7.75483 18.3862 7.75483H8.26056C8.06583 7.75483 7.93602 7.88378 7.93602 8.07722V20.6504H8.00092Z" fill="#005490"/>
</svg>
