<svg width="80" height="80" viewBox="0 0 80 80" fill="none" xmlns="http://www.w3.org/2000/svg">
<path d="M80 62.206C80 72.0333 72.0333 80 62.206 80L4.94279 80C2.21296 80 1.93463e-07 77.787 4.32112e-07 75.0572L6.1296e-06 9.88556C6.6069e-06 4.42591 4.42593 -6.6069e-06 9.88558 -6.1296e-06L75.0572 -4.32112e-07C77.787 -1.93464e-07 80 2.21296 80 4.94278L80 62.206Z" fill="#F5FAFF"/>
<path fill-rule="evenodd" clip-rule="evenodd" d="M23 36.6355C23 27.4358 30.6878 20 39.9869 20C49.3122 20 57 27.4358 57 36.6355C57 41.2714 55.314 45.5753 52.539 49.2232C49.4776 53.247 45.7043 56.7529 41.4571 59.5049C40.485 60.1408 39.6077 60.1888 38.5409 59.5049C34.2695 56.7529 30.4962 53.247 27.461 49.2232C24.684 45.5753 23 41.2714 23 36.6355ZM34.3885 37.1535C34.3885 40.2354 36.9033 42.6593 39.9869 42.6593C43.0725 42.6593 45.6115 40.2354 45.6115 37.1535C45.6115 34.0956 43.0725 31.5537 39.9869 31.5537C36.9033 31.5537 34.3885 34.0956 34.3885 37.1535Z" fill="url(#paint0_linear_191_637)"/>
<defs>
<linearGradient id="paint0_linear_191_637" x1="23" y1="20" x2="58.502" y2="21.3807" gradientUnits="userSpaceOnUse">
<stop stop-color="#006AB6"/>
<stop offset="1" stop-color="#00406D"/>
</linearGradient>
</defs>
</svg>
