<svg width="123" height="50" viewBox="0 0 123 50" fill="none" xmlns="http://www.w3.org/2000/svg">
<path fill-rule="evenodd" clip-rule="evenodd" d="M12.7135 9.71777H5.4668V15.0863H12.7135V9.71777ZM12.6521 17.5266H5.4668V36.4385H12.6521V17.5266Z" fill="#005490"/>
<path fill-rule="evenodd" clip-rule="evenodd" d="M38.9953 5.99896C38.504 5.63293 37.8285 5.75494 37.46 6.24299L34.2665 10.5134C34.2051 10.5744 34.2051 10.6354 34.1437 10.6964H23.5807C23.5807 10.6354 23.5193 10.6354 23.5193 10.5744L20.3872 6.24299C20.0187 5.75494 19.3432 5.63293 18.8519 5.99896C18.3606 6.365 18.2378 7.03607 18.6063 7.52412L20.8785 10.6964H16.334V26.497H23.335H36.1703H42.4344C42.4344 26.497 45.6893 22.3486 43.3556 16.004C42.0045 12.3436 38.1969 11.1235 36.723 10.8185L39.2409 7.58512C39.6094 7.09707 39.4866 6.365 38.9953 5.99896ZM23.3965 21.7996V16.309H34.0209C34.0209 16.309 36.1089 16.187 36.1089 18.9933C36.1089 21.7996 33.9594 21.7996 33.9594 21.7996H23.3965ZM23.2736 30.0354V36.38H16.334V28.3882H40.3464L43.2328 36.38H35.4334L32.7926 30.0354H23.2736Z" fill="black"/>
<path fill-rule="evenodd" clip-rule="evenodd" d="M95.7474 36.5039H105.451C112.882 36.5039 118.9 30.5253 118.9 23.1436C118.9 15.7618 112.882 9.7832 105.451 9.7832H92.4311H90.2202C89.1762 9.7832 88.3164 10.6373 88.3164 11.6744V34.6737C88.3164 35.7108 89.1762 36.5649 90.2202 36.5649H95.7474V36.5039ZM95.5631 29.0002C95.5631 29.1832 95.7474 29.3662 95.9316 29.3662H105.389C108.89 29.3662 111.715 26.5599 111.715 23.0826C111.715 19.6052 108.89 16.7989 105.389 16.7989H95.8088C95.6245 16.7989 95.5017 16.9209 95.5017 17.1039V29.0002H95.5631Z" fill="#005490"/>
<path d="M84.2634 9.78296H77.0781V36.3817H84.2634V9.78296Z" fill="#005490"/>
<path d="M69.6443 20.6364C69.6443 19.3553 70.0127 18.0741 70.6269 16.976C71.3024 15.8779 72.1008 14.6578 73.2062 13.9867C72.4693 13.0106 71.6709 12.2785 70.6269 11.6685C69.5214 11.0584 68.2932 10.9364 67.0649 10.8754C64.4242 10.6314 61.9063 12.4006 60.5552 12.4006C59.2041 12.4006 57.1161 10.8754 54.9052 10.9364C53.4927 10.9974 52.0802 11.4245 50.852 12.1565C49.6237 12.8886 48.6411 13.9257 47.9041 15.2068C44.8949 20.3924 47.1058 28.0181 50.0536 32.2276C51.5275 34.3018 53.1856 36.559 55.3965 36.498C57.5459 36.437 58.4057 35.1559 60.9851 35.1559C63.5644 35.1559 64.3628 36.498 66.635 36.498C68.9687 36.437 70.5655 34.4848 71.978 32.4106C73.022 30.9464 73.8203 29.1773 74.3116 27.4691C72.9606 26.92 71.7323 26.0659 70.8725 24.8458C70.0742 23.5037 69.6443 22.1005 69.6443 20.6364Z" fill="black"/>
<path d="M65.347 8.13219C66.6367 6.60703 67.2508 4.71584 67.0665 2.70264C65.1013 2.88566 63.3204 3.80075 62.0307 5.2649C61.4166 5.99697 60.9253 6.79005 60.6182 7.70514C60.3111 8.62024 60.1883 9.53533 60.2497 10.5114C61.2323 10.5114 62.1535 10.3284 63.0747 9.90137C63.9345 9.47433 64.7329 8.86426 65.347 8.13219Z" fill="black"/>
<path d="M11.2947 46.7482C11.1105 46.9312 10.9263 47.0532 10.742 47.1752C10.5578 47.2972 10.3121 47.2972 10.0665 47.2972C9.75941 47.2972 9.45235 47.2362 9.14528 47.0532C8.83822 46.9312 8.53115 46.6261 8.16268 46.2601C7.73279 46.1991 7.3029 46.0771 6.93442 45.8941C6.56594 45.65 6.32029 45.345 6.07464 45.04C5.8904 44.6739 5.76758 44.2469 5.76758 43.8199C5.76758 43.3318 5.8904 42.9048 6.13605 42.5387C6.38171 42.1727 6.68877 41.8677 7.05725 41.6236C7.48714 41.3796 7.91703 41.3186 8.40833 41.3186C8.89963 41.3186 9.32952 41.4406 9.75941 41.6236C10.1893 41.8067 10.4964 42.1117 10.6806 42.5387C10.9263 42.9048 11.0491 43.3318 11.0491 43.8199C11.0491 44.1859 10.9877 44.5519 10.8034 44.857C10.6806 45.162 10.4349 45.467 10.1893 45.711C9.94365 45.9551 9.57517 46.0771 9.20669 46.1991C9.32952 46.3211 9.45235 46.4431 9.57517 46.5041C9.698 46.6261 9.88224 46.6261 10.0051 46.6261C10.3121 46.6261 10.6192 46.5041 10.8648 46.2601L11.2947 46.7482ZM6.68877 43.8809C6.68877 44.1859 6.75018 44.4909 6.93442 44.735C7.05725 44.979 7.3029 45.223 7.54855 45.345C7.7942 45.467 8.10126 45.589 8.40833 45.589C8.71539 45.589 9.02246 45.528 9.26811 45.345C9.51376 45.223 9.75941 44.979 9.88223 44.735C10.0051 44.4909 10.1279 44.1859 10.1279 43.8809C10.1279 43.5758 10.0665 43.2708 9.88223 43.0268C9.75941 42.7828 9.51376 42.5387 9.26811 42.4167C9.02246 42.2947 8.71539 42.1727 8.40833 42.1727C8.10126 42.1727 7.7942 42.2337 7.54855 42.4167C7.3029 42.5387 7.05725 42.7828 6.93442 43.0268C6.75018 43.2098 6.68877 43.5148 6.68877 43.8809Z" fill="#005490"/>
<path d="M17.1299 46.3216C16.4544 46.3216 15.9017 46.1386 15.5332 45.7726C15.1647 45.4065 14.9805 44.8575 14.9805 44.1254V41.3801H15.9017V44.0644C15.9017 45.0405 16.3315 45.4675 17.1299 45.4675C17.9283 45.4675 18.3582 44.9795 18.3582 44.0644V41.3801H19.2794V44.1864C19.2794 44.9185 19.0951 45.4065 18.7266 45.8336C18.3582 46.1386 17.8055 46.3216 17.1299 46.3216Z" fill="#005490"/>
<path d="M26.7206 45.1628H24.2641L23.7728 46.2609H22.8516L25.0624 41.3804H25.9836L28.1945 46.2609H27.2733L26.7206 45.1628ZM26.4135 44.4307L25.4923 42.3565L24.5711 44.4917H26.4135V44.4307Z" fill="#005490"/>
<path d="M31.8164 41.4412H32.738V45.5286H35.3183V46.2607H31.8778V41.4412H31.8164Z" fill="#005490"/>
<path d="M39.0566 41.4412H39.9782V46.3217H39.0566V41.4412Z" fill="#005490"/>
<path d="M45.3819 42.1732H43.7852V41.4412H47.8998V42.1732H46.3031V46.2607H45.3819V42.1732Z" fill="#005490"/>
<path d="M53.6765 44.5527V46.2609H52.7554V44.5527L50.8516 41.3804H51.8342L53.2467 43.7596L54.7206 41.3804H55.6418L53.6765 44.5527Z" fill="#005490"/>
<path d="M68.7214 46.2609V43.0275L67.1247 45.7118H66.6948L65.0981 43.0885V46.2609H64.2383V41.3804H64.9752L66.9404 44.6137L68.8442 41.3804H69.5812V46.2609H68.7214Z" fill="#005490"/>
<path d="M77.1346 45.1625H74.6781L74.1868 46.2606H73.2656L75.4765 41.3801H76.3977L78.6085 46.2606H77.6873L77.1346 45.1625ZM76.8276 44.4304L75.9064 42.2952L74.9852 44.4304H76.8276Z" fill="#005490"/>
<path d="M83.0323 42.1732H81.4355V41.4412H85.5502V42.1732H83.9535V46.2607H83.0323V42.1732Z" fill="#005490"/>
<path d="M90.3389 42.1732H88.7422V41.4412H92.8568V42.1732H91.2601V46.2607H90.3389V42.1732Z" fill="#005490"/>
<path d="M100.284 45.5288V46.2609H96.5996V41.3804H100.162V42.1124H97.5208V43.3936H99.8545V44.1867H97.5208V45.5288H100.284Z" fill="#005490"/>
<path d="M107.537 46.2609L106.555 44.8577C106.493 44.8577 106.432 44.8577 106.37 44.8577H105.265V46.2609H104.344V41.3804H106.37C106.8 41.3804 107.169 41.4414 107.476 41.5634C107.783 41.6854 108.029 41.9294 108.213 42.1734C108.397 42.4175 108.458 42.7225 108.458 43.0885C108.458 43.4546 108.397 43.7596 108.213 44.0036C108.029 44.2477 107.783 44.4917 107.476 44.6137L108.581 46.1999H107.537V46.2609ZM107.537 43.1496C107.537 42.8445 107.414 42.6005 107.23 42.4175C107.046 42.2345 106.739 42.1734 106.309 42.1734H105.265V44.1257H106.309C106.677 44.1257 106.984 44.0646 107.23 43.8816C107.414 43.6986 107.537 43.4546 107.537 43.1496Z" fill="#005490"/>
<path d="M114.041 46.3218C113.673 46.3218 113.304 46.2608 112.936 46.1388C112.567 46.0168 112.322 45.8948 112.076 45.7118L112.383 45.0407C112.567 45.2237 112.813 45.3457 113.12 45.4067C113.427 45.5287 113.734 45.5287 113.98 45.5287C114.348 45.5287 114.594 45.4677 114.778 45.3457C114.963 45.2237 115.024 45.1017 115.024 44.9187C115.024 44.7967 114.963 44.6746 114.901 44.5526C114.778 44.4306 114.656 44.3696 114.533 44.3086C114.41 44.2476 114.164 44.1866 113.919 44.1256C113.55 44.0646 113.243 43.9426 112.997 43.8816C112.752 43.8206 112.567 43.6375 112.383 43.4545C112.199 43.2715 112.138 43.0275 112.138 42.7224C112.138 42.4784 112.199 42.2344 112.383 41.9904C112.506 41.7464 112.752 41.5633 113.059 41.4413C113.366 41.3193 113.734 41.2583 114.164 41.2583C114.471 41.2583 114.778 41.3193 115.024 41.3803C115.331 41.4413 115.577 41.5633 115.761 41.6853L115.454 42.3564C115.27 42.2344 115.024 42.1124 114.778 42.0514C114.533 41.9904 114.348 41.9294 114.103 41.9294C113.734 41.9294 113.489 41.9904 113.304 42.1124C113.12 42.2344 113.059 42.4174 113.059 42.6004C113.059 42.7225 113.12 42.8445 113.182 42.9665C113.304 43.0275 113.427 43.1495 113.55 43.1495C113.673 43.1495 113.919 43.2715 114.164 43.3325C114.533 43.3935 114.84 43.5155 115.085 43.5765C115.331 43.6375 115.515 43.8206 115.7 44.0036C115.884 44.1866 115.945 44.4306 115.945 44.7357C115.945 44.9797 115.884 45.2237 115.7 45.4677C115.577 45.7118 115.331 45.8338 115.024 46.0168C114.717 46.1998 114.471 46.3218 114.041 46.3218Z" fill="#005490"/>
</svg>
