<svg width="54" height="54" viewBox="0 0 54 54" fill="none" xmlns="http://www.w3.org/2000/svg">
<path fill-rule="evenodd" clip-rule="evenodd" d="M38.1137 6.75C41.131 6.75 44.0335 7.9425 46.1687 10.0822C48.3062 12.2175 49.501 15.0975 49.501 18.1125V35.8875C49.501 42.165 44.3935 47.25 38.1137 47.25H15.886C9.60623 47.25 4.50098 42.165 4.50098 35.8875V18.1125C4.50098 11.835 9.58373 6.75 15.886 6.75H38.1137ZM41.6935 21.465L41.8735 21.285C42.4112 20.6325 42.4112 19.6875 41.8487 19.035C41.536 18.6997 41.1062 18.495 40.6585 18.45C40.186 18.4252 39.736 18.585 39.3962 18.9L29.251 27C27.946 28.0823 26.0762 28.0823 24.751 27L14.626 18.9C13.9262 18.3825 12.9587 18.45 12.376 19.0575C11.7685 19.665 11.701 20.6325 12.2162 21.3075L12.511 21.6L22.7485 29.5875C24.0085 30.5775 25.5362 31.1175 27.136 31.1175C28.7312 31.1175 30.286 30.5775 31.5437 29.5875L41.6935 21.465Z" fill="#005490"/>
</svg>
