<svg width="80" height="80" viewBox="0 0 80 80" fill="none" xmlns="http://www.w3.org/2000/svg">
<path d="M80 62.206C80 72.0333 72.0333 80 62.206 80L4.94279 80C2.21296 80 1.93463e-07 77.787 4.32112e-07 75.0572L6.1296e-06 9.88556C6.6069e-06 4.42591 4.42593 -6.6069e-06 9.88558 -6.1296e-06L75.0572 -4.32112e-07C77.787 -1.93464e-07 80 2.21296 80 4.94278L80 62.206Z" fill="#F5FAFF"/>
<path fill-rule="evenodd" clip-rule="evenodd" d="M49.8788 22C52.5608 22 55.1408 23.06 57.0388 24.962C58.9388 26.86 60.0008 29.42 60.0008 32.1V47.9C60.0008 53.48 55.4608 58 49.8788 58H30.1208C24.5388 58 20.0008 53.48 20.0008 47.9V32.1C20.0008 26.52 24.5188 22 30.1208 22H49.8788ZM53.0608 35.08L53.2208 34.92C53.6988 34.34 53.6988 33.5 53.1988 32.92C52.9208 32.622 52.5388 32.44 52.1408 32.4C51.7208 32.378 51.3208 32.52 51.0188 32.8L42.0008 40C40.8408 40.962 39.1788 40.962 38.0008 40L29.0008 32.8C28.3788 32.34 27.5188 32.4 27.0008 32.94C26.4608 33.48 26.4008 34.34 26.8588 34.94L27.1208 35.2L36.2208 42.3C37.3408 43.18 38.6988 43.66 40.1208 43.66C41.5388 43.66 42.9208 43.18 44.0388 42.3L53.0608 35.08Z" fill="url(#paint0_linear_191_636)"/>
<defs>
<linearGradient id="paint0_linear_191_636" x1="20.0008" y1="22" x2="61.7232" y2="24.1211" gradientUnits="userSpaceOnUse">
<stop stop-color="#006AB6"/>
<stop offset="1" stop-color="#00406D"/>
</linearGradient>
</defs>
</svg>
