<svg width="167" height="51" viewBox="0 0 167 51" fill="none" xmlns="http://www.w3.org/2000/svg">
<path d="M160.458 50.2852H6.18037C2.78627 50.2852 0.00927734 47.4968 0.00927734 44.0888V6.91092C0.00927734 3.50295 2.78627 0.714607 6.18037 0.714607H160.458C163.852 0.714607 166.629 3.50295 166.629 6.91092V44.0888C166.629 47.4968 163.852 50.2852 160.458 50.2852Z" fill="black"/>
<path d="M160.458 0.714607H6.18037C2.78627 0.714607 0.00927734 3.50295 0.00927734 6.91092V44.0888C0.00927734 47.4968 2.78627 50.2852 6.18037 50.2852H160.458C163.852 50.2852 166.629 47.4968 166.629 44.0888V6.91092C166.629 3.50295 163.852 0.714607 160.458 0.714607ZM160.458 1.70602C163.316 1.70602 165.641 4.04128 165.641 6.91092V44.0888C165.641 46.959 163.316 49.2942 160.458 49.2942H6.18037C3.32241 49.2942 0.996652 46.959 0.996652 44.0888V6.91092C0.996652 4.04128 3.32241 1.70602 6.18037 1.70602H160.458Z" fill="#A6A6A6"/>
<path d="M58.5341 13.41C58.5341 14.4482 58.2279 15.2751 57.6146 15.8918C56.918 16.6252 56.0101 16.9922 54.894 16.9922C53.8252 16.9922 52.9165 16.6204 52.1691 15.8759C51.4205 15.1318 51.0469 14.2092 51.0469 13.1083C51.0469 12.007 51.4205 11.0849 52.1691 10.3403C52.9165 9.59627 53.8252 9.22399 54.894 9.22399C55.4244 9.22399 55.9321 9.32809 56.4142 9.53579C56.8963 9.74399 57.283 10.0203 57.5723 10.3665L56.9214 11.0204C56.4311 10.4323 55.7561 10.1384 54.894 10.1384C54.1145 10.1384 53.4405 10.4134 52.8717 10.9638C52.3027 11.5148 52.0183 12.2292 52.0183 13.1083C52.0183 13.9875 52.3027 14.7019 52.8717 15.2529C53.4405 15.8032 54.1145 16.0782 54.894 16.0782C55.721 16.0782 56.4104 15.8018 56.9623 15.248C57.3206 14.8873 57.5279 14.3859 57.5833 13.742H54.894V12.8488H58.4825C58.5172 13.043 58.5341 13.2294 58.5341 13.41Z" fill="white"/>
<path d="M58.534 13.411H58.4106C58.4096 14.4256 58.1145 15.2137 57.5273 15.8053L57.5259 15.8063L57.5254 15.8073C56.8509 16.5154 55.984 16.8678 54.8939 16.8693C53.8536 16.8678 52.9829 16.5116 52.2558 15.7893C51.5303 15.0656 51.1715 14.1821 51.1702 13.1094C51.1715 12.0362 51.5303 11.1532 52.2558 10.43C52.9829 9.70725 53.8536 9.35047 54.8939 9.34898C55.4084 9.34898 55.8982 9.44973 56.3654 9.65062C56.833 9.85299 57.2024 10.1182 57.4777 10.4475L57.5722 10.3675L57.4849 10.2799L56.834 10.9344L56.9213 11.0215L57.0163 10.9422C56.5032 10.3249 55.7831 10.0137 54.8939 10.0156C54.0855 10.0146 53.3744 10.3046 52.7861 10.8759C52.1922 11.449 51.8938 12.2036 51.8948 13.1094C51.8938 14.0152 52.1922 14.7698 52.7861 15.3429C53.3744 15.9142 54.0855 16.2042 54.8939 16.2032C55.7483 16.2047 56.4763 15.9137 57.0495 15.3367C57.4324 14.9513 57.6493 14.4174 57.7062 13.7537L57.7177 13.6191H55.0174V12.9738H58.4824V12.8499L58.3609 12.8717C58.3947 13.0596 58.4106 13.2382 58.4106 13.411H58.534H58.6574C58.6574 13.2227 58.64 13.0291 58.6039 12.8277L58.5856 12.726H54.7705V13.743V13.867H57.5832V13.743L57.4603 13.7324C57.4058 14.356 57.2081 14.8255 56.875 15.1615C56.3446 15.692 55.6938 15.9539 54.8939 15.9554C54.1433 15.9544 53.5064 15.6949 52.9573 15.1648C52.4135 14.6367 52.143 13.9624 52.1416 13.1094C52.143 12.2564 52.4135 11.5821 52.9573 11.054C53.5064 10.5239 54.1433 10.2644 54.8939 10.2634C55.7285 10.2654 56.3587 10.5423 56.8268 11.1014L56.9136 11.205L57.6595 10.4551L57.7394 10.3748L57.6666 10.2881C57.3634 9.92512 56.9594 9.63699 56.4628 9.42309C55.9652 9.20857 55.4402 9.10113 54.8939 9.10113C53.7967 9.10014 52.8498 9.48741 52.0818 10.2538C51.3109 11.0186 50.9224 11.9801 50.9233 13.1094C50.9224 14.2383 51.3109 15.2002 52.0823 15.9655C52.8498 16.7314 53.7967 17.1182 54.8939 17.1172C56.0366 17.1182 56.9845 16.7371 57.7038 15.9786L57.6145 15.8929L57.7018 15.9805C58.3411 15.3391 58.6583 14.4726 58.6574 13.411H58.534Z" fill="white"/>
<path d="M64.2225 10.306H60.8501V12.6636H63.8914V13.5571H60.8501V15.9147H64.2225V16.8281H59.8994V9.39254H64.2225V10.306Z" fill="white"/>
<path d="M64.2229 10.3032V10.1792H60.7271V12.7847H63.7683V13.43L60.7271 13.4303V16.0358H64.0995V16.7014H60.0232V9.51363H64.0995V10.3032H64.2229V10.1792V10.3032H64.3463V9.3897V9.26578H59.7764V16.9492H64.3463V15.9118V15.7879H60.9739V13.6782H64.0152V12.6607V12.5368H60.9739V10.4271H64.3463V10.3032H64.2229Z" fill="white"/>
<path d="M68.2358 16.8281H67.2836V10.306H65.2153V9.39254H70.3041V10.306H68.2358V16.8281Z" fill="white"/>
<path d="M68.2352 16.8253V16.7014H67.4065V10.1792H65.3382V9.51363H70.1801V10.1792H68.1118V16.8253H68.2352V16.7014V16.8253H68.3587V10.4271H70.427V9.3897V9.26578H65.0913V10.3032V10.4271H67.1596V16.9492H68.2352H68.3587V16.8253H68.2352Z" fill="white"/>
<path d="M73.9854 16.8281V9.39254H74.9366V16.8281H73.9854Z" fill="white"/>
<path d="M73.9857 16.8253H74.1091V9.51363H74.8135V16.7014H73.9857V16.8253H74.1091H73.9857V16.9492H74.9369H75.0604V9.26578H73.9857H73.8623V16.9492H73.9857V16.8253Z" fill="white"/>
<path d="M79.1581 16.8281H78.2059V10.306H76.1377V9.39254H81.2264V10.306H79.1581V16.8281Z" fill="white"/>
<path d="M79.158 16.8253V16.7014H78.3292V10.1792H76.261V9.51363H81.1029V10.1792H79.0345V16.8253H79.158V16.7014V16.8253H79.2814V10.4271H81.3497V9.3897V9.26578H76.0142V10.3032V10.4271H78.0823V16.9492H79.158H79.2814V16.8253H79.158Z" fill="white"/>
<path d="M86.1323 15.2427C86.6804 15.7999 87.3511 16.0782 88.1442 16.0782C88.9373 16.0782 89.6084 15.7999 90.1556 15.2427C90.7042 14.6855 90.9791 13.9733 90.9791 13.1083C90.9791 12.2433 90.7042 11.5311 90.1556 10.974C89.6084 10.4168 88.9373 10.1384 88.1442 10.1384C87.3511 10.1384 86.6804 10.4168 86.1323 10.974C85.5851 11.5311 85.3103 12.2433 85.3103 13.1083C85.3103 13.9733 85.5851 14.6855 86.1323 15.2427ZM90.8595 15.8652C90.1314 16.6169 89.226 16.9922 88.1442 16.9922C87.0613 16.9922 86.1564 16.6169 85.4299 15.8652C84.7014 15.1143 84.3389 14.1952 84.3389 13.1083C84.3389 12.0215 84.7014 11.1022 85.4299 10.3515C86.1564 9.59961 87.0613 9.22399 88.1442 9.22399C89.2203 9.22399 90.1233 9.60159 90.8547 10.3563C91.5851 11.111 91.9505 12.0283 91.9505 13.1083C91.9505 14.1952 91.5859 15.1143 90.8595 15.8652Z" fill="white"/>
<path d="M86.1317 15.2438L86.044 15.3309C86.6124 15.9104 87.3216 16.2047 88.1436 16.2032C88.9651 16.2047 89.6753 15.9104 90.2428 15.3309C90.8149 14.7509 91.1028 14.0006 91.1019 13.1094C91.1028 12.2183 90.8149 11.4679 90.2428 10.8879C89.6753 10.3084 88.9651 10.0141 88.1436 10.0156C87.3216 10.0141 86.6124 10.3084 86.044 10.8879C85.4731 11.4679 85.1848 12.2183 85.1863 13.1094C85.1848 14.0006 85.4731 14.7509 86.044 15.3309L86.1317 15.2438L86.2195 15.1567C85.6959 14.6217 85.4341 13.9488 85.4331 13.1094C85.4341 12.2701 85.6959 11.5971 86.2195 11.0621C86.7478 10.5273 87.3789 10.2649 88.1436 10.2634C88.9077 10.2649 89.5402 10.5273 90.0673 11.0621C90.5918 11.5971 90.8536 12.2701 90.8546 13.1094C90.8536 13.9488 90.5918 14.6217 90.0673 15.1567C89.5402 15.6915 88.9077 15.9539 88.1436 15.9554C87.3789 15.9539 86.7478 15.6915 86.2195 15.1567L86.1317 15.2438ZM90.8589 15.8663L90.7706 15.7801C90.0629 16.5082 89.1975 16.8678 88.1436 16.8693C87.0892 16.8678 86.2238 16.5082 85.5174 15.7801L85.5141 15.7763L85.5174 15.7801C84.8112 15.0496 84.4627 14.1686 84.4617 13.1094C84.4627 12.0502 84.8112 11.1692 85.5174 10.4387C86.2238 9.7106 87.0892 9.35047 88.1436 9.34899C89.1907 9.35047 90.0542 9.71209 90.7658 10.444C91.4745 11.1779 91.825 12.0575 91.8265 13.1094C91.825 14.1686 91.4755 15.0496 90.7706 15.7801L90.8589 15.8663L90.9476 15.9524C91.6958 15.1808 92.0742 14.2238 92.0734 13.1094C92.0742 12.0014 91.6943 11.0463 90.9427 10.2712C90.1907 9.49323 89.2486 9.09977 88.1436 9.10113C87.0328 9.09977 86.0879 9.49137 85.3406 10.2664V10.2659C84.5909 11.038 84.2139 11.9951 84.2148 13.1094C84.2139 14.2238 84.5909 15.1808 85.3406 15.9529L85.3439 15.9564L85.3406 15.9524C86.0879 16.7274 87.0328 17.1182 88.1436 17.1172C89.2539 17.1182 90.1988 16.7274 90.9476 15.9524L90.8589 15.8663Z" fill="white"/>
<path d="M93.2856 16.8281V9.39254H94.4437L98.0427 15.1769H98.0837L98.0427 13.744V9.39254H98.9949V16.8281H98.0017L94.2364 10.7634H94.1954L94.2364 12.1969V16.8281H93.2856Z" fill="white"/>
<path d="M93.286 16.8253H93.4094V9.51363H94.3756L97.9746 15.298H98.084H98.2108L98.1665 13.7393V9.51363H98.8718V16.7014H98.0706L94.3052 10.6367H94.1958H94.069L94.1133 12.196V16.7014H93.286V16.8253H93.4094H93.286V16.9492H94.2367H94.3602V12.1921L94.3192 10.7572L94.1958 10.7606V10.8845H94.2367V10.7606L94.1321 10.8265L97.9336 16.9492H98.9953H99.1187V9.26578H98.0431H97.9196V13.7426L97.9606 15.1774L98.084 15.1741V15.0502H98.0431V15.1741L98.1477 15.1083L94.5125 9.26578H93.286H93.1626V16.9492H93.286V16.8253Z" fill="white"/>
<path d="M131.992 37.8938H134.295V22.4015H131.992V37.8938ZM152.735 27.9822L150.095 34.6989H150.016L147.276 27.9822H144.796L148.904 37.37L146.562 42.5919H148.965L155.296 27.9822H152.735ZM139.675 36.1342C138.92 36.1342 137.868 35.7556 137.868 34.8185C137.868 33.6227 139.179 33.1643 140.309 33.1643C141.323 33.1643 141.798 33.3835 142.414 33.6828C142.235 35.1176 141.004 36.1342 139.675 36.1342ZM139.953 27.6433C138.285 27.6433 136.558 28.381 135.844 30.0153L137.888 30.8722C138.325 30.0153 139.138 29.736 139.992 29.736C141.183 29.736 142.394 30.4539 142.414 31.7295V31.8887C141.996 31.6495 141.104 31.2909 140.012 31.2909C137.809 31.2909 135.565 32.5064 135.565 34.7787C135.565 36.8516 137.372 38.1872 139.396 38.1872C140.945 38.1872 141.798 37.4896 142.335 36.6725H142.414V37.8682H144.636V31.9284C144.636 29.1783 142.593 27.6433 139.953 27.6433ZM125.72 29.8681H122.444V24.5577H125.72C127.441 24.5577 128.419 25.9891 128.419 27.2129C128.419 28.4135 127.441 29.8681 125.72 29.8681ZM125.66 22.4015H120.142V37.8938H122.444V32.0243H125.66C128.213 32.0243 130.722 30.1687 130.722 27.2129C130.722 24.2571 128.213 22.4015 125.66 22.4015ZM95.5689 36.137C93.9778 36.137 92.6457 34.7995 92.6457 32.9624C92.6457 31.106 93.9778 29.7481 95.5689 29.7481C97.1397 29.7481 98.3724 31.106 98.3724 32.9624C98.3724 34.7995 97.1397 36.137 95.5689 36.137ZM98.2133 28.8497H98.1337C97.6169 28.2309 96.6223 27.6719 95.3698 27.6719C92.7451 27.6719 90.3394 29.9877 90.3394 32.9624C90.3394 35.9173 92.7451 38.2133 95.3698 38.2133C96.6223 38.2133 97.6169 37.6542 98.1337 37.0157H98.2133V37.7742C98.2133 39.791 97.1397 40.869 95.4098 40.869C93.9981 40.869 93.1231 39.8505 92.7648 38.9922L90.7569 39.8307C91.3335 41.2282 92.8647 42.9453 95.4098 42.9453C98.1139 42.9453 100.401 41.3478 100.401 37.4548V27.9914H98.2133V28.8497ZM101.991 37.8938H104.298V22.401H101.991V37.8938ZM107.698 32.7829C107.638 30.7462 109.269 29.7084 110.442 29.7084C111.357 29.7084 112.132 30.1673 112.39 30.8267L107.698 32.7829ZM114.856 31.0261C114.419 29.8478 113.086 27.6719 110.362 27.6719C107.658 27.6719 105.411 29.8081 105.411 32.9426C105.411 35.8975 107.638 38.2133 110.621 38.2133C113.027 38.2133 114.419 36.7359 114.995 35.8775L113.206 34.6794C112.61 35.5581 111.794 36.137 110.621 36.137C109.448 36.137 108.613 35.5978 108.075 34.54L115.094 31.6249L114.856 31.0261ZM58.9358 29.2891V31.5251H64.2645C64.1054 32.7829 63.6879 33.7011 63.0515 34.3401C62.2763 35.119 61.0633 35.9773 58.9358 35.9773C55.6549 35.9773 53.09 33.3221 53.09 30.0278C53.09 26.7336 55.6549 24.078 58.9358 24.078C60.7055 24.078 61.9976 24.777 62.9522 25.6754L64.523 24.0983C63.1909 22.8203 61.421 21.842 58.9358 21.842C54.4419 21.842 50.6641 25.5157 50.6641 30.0278C50.6641 34.54 54.4419 38.2133 58.9358 38.2133C61.3618 38.2133 63.1909 37.4151 64.6223 35.9173C66.0938 34.4399 66.5513 32.3636 66.5513 30.6868C66.5513 30.1673 66.5117 29.6885 66.4317 29.2891H58.9358ZM72.6096 36.137C71.0185 36.137 69.6465 34.8193 69.6465 32.9426C69.6465 31.0459 71.0185 29.7481 72.6096 29.7481C74.2 29.7481 75.5721 31.0459 75.5721 32.9426C75.5721 34.8193 74.2 36.137 72.6096 36.137ZM72.6096 27.6719C69.7062 27.6719 67.34 29.8879 67.34 32.9426C67.34 35.9773 69.7062 38.2133 72.6096 38.2133C75.5123 38.2133 77.8786 35.9773 77.8786 32.9426C77.8786 29.8879 75.5123 27.6719 72.6096 27.6719ZM84.1041 36.137C82.5137 36.137 81.1415 34.8193 81.1415 32.9426C81.1415 31.0459 82.5137 29.7481 84.1041 29.7481C85.6946 29.7481 87.0667 31.0459 87.0667 32.9426C87.0667 34.8193 85.6946 36.137 84.1041 36.137ZM84.1041 27.6719C81.2008 27.6719 78.8351 29.8879 78.8351 32.9426C78.8351 35.9773 81.2008 38.2133 84.1041 38.2133C87.007 38.2133 89.3732 35.9773 89.3732 32.9426C89.3732 29.8879 87.007 27.6719 84.1041 27.6719Z" fill="white"/>
<path d="M12.9817 40.8555L12.89 40.7674C12.5309 40.3858 12.3188 39.7933 12.3188 39.0261V39.2066V11.7991C12.3188 11.7966 12.3188 11.7947 12.3188 11.7927C12.3188 11.7951 12.3188 11.7971 12.3188 11.7996V11.9806C12.3188 11.1498 12.5661 10.524 12.9803 10.1487L28.272 25.5026L12.9817 40.8555ZM12.3188 11.7913C12.3188 11.723 12.3207 11.6567 12.3242 11.5914C12.3207 11.6562 12.3188 11.723 12.3188 11.7913ZM12.3242 11.5884C12.3242 11.5875 12.3242 11.5865 12.3245 11.5855C12.3242 11.5865 12.3242 11.5875 12.3242 11.5884ZM12.3245 11.5797C12.3245 11.5792 12.3245 11.5787 12.3245 11.5782C12.3245 11.5787 12.3245 11.5792 12.3245 11.5797Z" fill="url(#paint0_linear_5615_6115)"/>
<path d="M33.3675 30.8008L33.4837 30.7345L39.5226 27.2892C40.0984 26.9605 40.4821 26.5621 40.6735 26.1405C40.4826 26.5621 40.0988 26.961 39.5226 27.2897L33.4837 30.735L33.3675 30.8008ZM33.3689 30.6192L28.271 25.4996L33.3684 20.3808L39.5226 23.8914C40.3041 24.3373 40.7429 24.9119 40.8162 25.4991C40.8162 25.4996 40.8162 25.5006 40.8162 25.5014C40.7429 26.0872 40.3041 26.6624 39.5226 27.1081L33.3689 30.6192Z" fill="url(#paint1_linear_5615_6115)"/>
<path d="M14.07 41.4336C13.6428 41.4336 13.2701 41.2942 12.9794 41.0308L12.9799 41.0303C13.2706 41.2937 13.6438 41.4336 14.071 41.4336C14.108 41.4336 14.1456 41.4326 14.1838 41.4307C14.1451 41.4326 14.107 41.4336 14.07 41.4336ZM14.0705 41.252C13.6433 41.2525 13.2706 41.1126 12.9799 40.8493V40.8489L28.2702 25.496L33.3681 30.6157L15.4532 40.8363C14.9575 41.1184 14.4879 41.252 14.0705 41.252ZM12.9756 41.0275C12.9486 41.0028 12.922 40.9767 12.896 40.9495L12.9756 41.0275Z" fill="url(#paint2_linear_5615_6115)"/>
<path d="M28.2702 25.4961L12.9785 10.1422C13.2692 9.87939 13.6414 9.73997 14.0681 9.73997C14.4866 9.73997 14.9566 9.87406 15.4532 10.1567L33.3677 20.3773L28.2702 25.4961ZM33.483 20.2617L15.4532 9.9758C14.9566 9.693 14.4866 9.55892 14.0681 9.55892C14.0661 9.55892 14.0648 9.55892 14.0628 9.55892C14.0652 9.55892 14.0671 9.55892 14.0701 9.55892C14.4876 9.55892 14.9571 9.69251 15.4532 9.97531L33.483 20.2617Z" fill="url(#paint3_linear_5615_6115)"/>
<path d="M14.1842 41.4375C14.5723 41.4152 15.0019 41.2811 15.4536 41.0241L33.3671 30.804L15.4536 41.0241C15.0023 41.2816 14.5723 41.4152 14.1842 41.4375ZM12.9799 41.0376L12.9761 41.0342C12.9774 41.0352 12.9789 41.0366 12.9799 41.0376ZM12.8964 40.9563L12.8887 40.9486V40.9481C12.8916 40.951 12.894 40.9538 12.8964 40.9563Z" fill="black"/>
<path d="M33.3672 30.8008L33.4834 30.7345L33.3672 30.8008Z" fill="url(#paint4_linear_5615_6115)"/>
<path d="M14.0719 41.4336C13.6447 41.4336 13.2715 41.2937 12.9809 41.0303L12.9804 41.0308C12.9794 41.0298 12.9779 41.0285 12.9765 41.0275L12.8969 40.9495C12.8945 40.9471 12.8921 40.9442 12.8892 40.9414L12.9809 40.8493C13.2715 41.1126 13.6443 41.2525 14.0714 41.252C14.4888 41.252 14.9585 41.1184 15.4541 40.8363L33.369 30.6157L33.4838 30.7309L33.3676 30.7972L15.4541 41.0173C15.0024 41.2743 14.5728 41.4084 14.1847 41.4307C14.1466 41.4326 14.1089 41.4336 14.0719 41.4336Z" fill="url(#paint5_linear_5615_6115)"/>
<path d="M12.8891 40.9492C12.5299 40.5676 12.3179 39.9752 12.3179 39.2079V39.2074C12.3179 39.9752 12.5299 40.5672 12.8891 40.9487V40.9492Z" fill="black"/>
<path d="M12.89 40.9453C12.5309 40.5637 12.3188 39.9717 12.3188 39.204V39.0235C12.3188 39.7907 12.5309 40.3832 12.89 40.7648L12.9817 40.8529L12.89 40.9453Z" fill="url(#paint6_linear_5615_6115)"/>
<path d="M12.8882 40.9453L12.9799 40.8529V40.8532L12.8882 40.9453Z" fill="url(#paint7_linear_5615_6115)"/>
<path d="M40.6733 26.1406C40.7683 25.9314 40.816 25.7165 40.816 25.5015C40.816 25.5012 40.816 25.5007 40.816 25.5007C40.816 25.716 40.7683 25.9309 40.6733 26.1406Z" fill="black"/>
<path d="M33.4839 30.7344L33.3691 30.6191L39.5228 27.108C40.3043 26.6623 40.7431 26.0871 40.8164 25.5013C40.8164 25.7163 40.7686 25.9312 40.6737 26.1404C40.4823 26.562 40.0986 26.9604 39.5228 27.2891L33.4839 30.7344Z" fill="url(#paint8_linear_5615_6115)"/>
<path d="M40.8164 25.5V25.4995C40.8159 24.8512 40.3844 24.2031 39.5228 23.7112L33.4839 20.266H33.4834L33.4839 20.2656L39.5228 23.7108C40.3854 24.2026 40.8174 24.8517 40.8164 25.5Z" fill="#404040"/>
<path d="M40.8164 25.4961C40.7431 24.9089 40.3043 24.3343 39.5228 23.8884L33.3687 20.3778L33.4834 20.2626H33.4839L39.5228 23.7078C40.3844 24.1997 40.8159 24.8478 40.8164 25.4961Z" fill="url(#paint9_linear_5615_6115)"/>
<path d="M12.3179 11.7891C12.3179 11.7886 12.3179 11.7881 12.3179 11.7876C12.3179 11.7881 12.3179 11.7886 12.3179 11.7891ZM12.3232 11.5877C12.3232 11.5867 12.3232 11.5857 12.3232 11.5847C12.3232 11.5857 12.3232 11.5867 12.3232 11.5877ZM12.3235 11.5819C12.3235 11.5799 12.3235 11.578 12.3235 11.576C12.3235 11.578 12.3235 11.5799 12.3235 11.5819ZM12.3235 11.5745C12.395 10.3015 13.0844 9.56607 14.0597 9.56173C13.6369 9.56421 13.2686 9.70363 12.9803 9.96449V9.964L12.9768 9.96747C12.9465 9.99498 12.9176 10.0241 12.8891 10.0541C12.5651 10.3982 12.3607 10.9138 12.3235 11.5745Z" fill="#404040"/>
<path d="M12.3188 11.9844V11.8033C12.3188 11.8008 12.3188 11.7989 12.3188 11.7965C12.3188 11.796 12.3188 11.7955 12.3188 11.795C12.3188 11.7267 12.3207 11.6599 12.3242 11.5951C12.3242 11.5941 12.3242 11.5931 12.3242 11.5921C12.3242 11.5913 12.3242 11.5903 12.3245 11.5893C12.3245 11.5873 12.3245 11.5855 12.3245 11.5835C12.3245 11.583 12.3245 11.5825 12.3245 11.582C12.3617 10.9212 12.5661 10.4057 12.89 10.0615L12.9803 10.1525C12.5661 10.5277 12.3188 11.1536 12.3188 11.9844ZM12.9778 9.97491L12.9813 9.97144C12.9803 9.97292 12.9788 9.97391 12.9778 9.97491Z" fill="url(#paint10_linear_5615_6115)"/>
<path d="M33.369 20.3828L15.4546 10.1622C14.958 9.87955 14.488 9.74547 14.0694 9.74547C13.6428 9.74547 13.2705 9.88488 12.9799 10.1477L12.8896 10.0568C12.9182 10.0268 12.947 9.99765 12.9774 9.97014C12.9784 9.96915 12.9799 9.96816 12.9809 9.96717C13.2692 9.70631 13.6375 9.56689 14.0603 9.56441C14.0613 9.56441 14.0627 9.56441 14.0641 9.56441C14.0661 9.56441 14.0675 9.56441 14.0694 9.56441C14.488 9.56441 14.958 9.6985 15.4546 9.9813L33.4843 20.2672L33.4838 20.2676L33.369 20.3828Z" fill="url(#paint11_linear_5615_6115)"/>
<defs>
<linearGradient id="paint0_linear_5615_6115" x1="26.9161" y1="11.5099" x2="6.1183" y2="32.223" gradientUnits="userSpaceOnUse">
<stop stop-color="#00A0FF"/>
<stop offset="0.00657445" stop-color="#00A1FF"/>
<stop offset="0.2601" stop-color="#00BEFF"/>
<stop offset="0.5122" stop-color="#00D2FF"/>
<stop offset="0.7604" stop-color="#00DFFF"/>
<stop offset="1" stop-color="#00E3FF"/>
</linearGradient>
<linearGradient id="paint1_linear_5615_6115" x1="41.7684" y1="25.5003" x2="11.904" y2="25.5003" gradientUnits="userSpaceOnUse">
<stop stop-color="#FFE000"/>
<stop offset="0.4087" stop-color="#FFBD00"/>
<stop offset="0.7754" stop-color="#FFA500"/>
<stop offset="1" stop-color="#FF9C00"/>
</linearGradient>
<linearGradient id="paint2_linear_5615_6115" x1="30.6505" y1="28.3405" x2="2.44715" y2="56.429" gradientUnits="userSpaceOnUse">
<stop stop-color="#FF3A44"/>
<stop offset="1" stop-color="#C31162"/>
</linearGradient>
<linearGradient id="paint3_linear_5615_6115" x1="9.01507" y1="0.928186" x2="21.609" y2="13.4708" gradientUnits="userSpaceOnUse">
<stop stop-color="#32A071"/>
<stop offset="0.0685" stop-color="#2DA771"/>
<stop offset="0.4762" stop-color="#15CF74"/>
<stop offset="0.8009" stop-color="#06E775"/>
<stop offset="1" stop-color="#00F076"/>
</linearGradient>
<linearGradient id="paint4_linear_5615_6115" x1="41.7678" y1="25.5" x2="11.9046" y2="25.5" gradientUnits="userSpaceOnUse">
<stop stop-color="#CCB300"/>
<stop offset="0.4087" stop-color="#CC9700"/>
<stop offset="0.7754" stop-color="#CC8400"/>
<stop offset="1" stop-color="#CC7D00"/>
</linearGradient>
<linearGradient id="paint5_linear_5615_6115" x1="30.6514" y1="28.3405" x2="2.44809" y2="56.429" gradientUnits="userSpaceOnUse">
<stop stop-color="#CC2E36"/>
<stop offset="1" stop-color="#9C0E4E"/>
</linearGradient>
<linearGradient id="paint6_linear_5615_6115" x1="26.916" y1="11.5073" x2="6.11826" y2="32.2204" gradientUnits="userSpaceOnUse">
<stop stop-color="#008DE0"/>
<stop offset="0.00657445" stop-color="#008DE0"/>
<stop offset="0.2601" stop-color="#00A7E0"/>
<stop offset="0.5122" stop-color="#00B8E0"/>
<stop offset="0.7604" stop-color="#00C4E0"/>
<stop offset="1" stop-color="#00C7E0"/>
</linearGradient>
<linearGradient id="paint7_linear_5615_6115" x1="30.6505" y1="28.3441" x2="2.44638" y2="56.4327" gradientUnits="userSpaceOnUse">
<stop stop-color="#E0333C"/>
<stop offset="1" stop-color="#AB0F56"/>
</linearGradient>
<linearGradient id="paint8_linear_5615_6115" x1="41.7686" y1="25.5002" x2="11.9042" y2="25.5002" gradientUnits="userSpaceOnUse">
<stop stop-color="#E0C500"/>
<stop offset="0.4087" stop-color="#E0A600"/>
<stop offset="0.7754" stop-color="#E09100"/>
<stop offset="1" stop-color="#E08900"/>
</linearGradient>
<linearGradient id="paint9_linear_5615_6115" x1="41.7686" y1="25.4973" x2="11.9043" y2="25.4973" gradientUnits="userSpaceOnUse">
<stop stop-color="#FFE840"/>
<stop offset="0.4087" stop-color="#FFCE40"/>
<stop offset="0.7754" stop-color="#FFBC40"/>
<stop offset="1" stop-color="#FFB540"/>
</linearGradient>
<linearGradient id="paint10_linear_5615_6115" x1="26.9161" y1="11.5137" x2="6.11828" y2="32.2268" gradientUnits="userSpaceOnUse">
<stop stop-color="#40B8FF"/>
<stop offset="0.00657445" stop-color="#40B9FF"/>
<stop offset="0.2601" stop-color="#40CEFF"/>
<stop offset="0.5122" stop-color="#40DDFF"/>
<stop offset="0.7604" stop-color="#40E7FF"/>
<stop offset="1" stop-color="#40EAFF"/>
</linearGradient>
<linearGradient id="paint11_linear_5615_6115" x1="9.01642" y1="0.93368" x2="21.6103" y2="13.4763" gradientUnits="userSpaceOnUse">
<stop stop-color="#65B895"/>
<stop offset="0.0685" stop-color="#62BD95"/>
<stop offset="0.4762" stop-color="#50DB97"/>
<stop offset="0.8009" stop-color="#44ED98"/>
<stop offset="1" stop-color="#40F498"/>
</linearGradient>
</defs>
</svg>
