<svg width="500" height="501" viewBox="0 0 500 501" fill="none" xmlns="http://www.w3.org/2000/svg">
<path d="M0 382.428H500V382.678H0V382.428Z" fill="#E0E0E0"/>
<path d="M94.7796 390.027H121.35V390.277H94.7796V390.027Z" fill="#E0E0E0"/>
<path d="M54.4203 395.027H77.3203V395.277H54.4203V395.027Z" fill="#E0E0E0"/>
<path d="M253.44 394.287H269.54V394.537H253.44V394.287Z" fill="#E0E0E0"/>
<path d="M275.3 394.287H335.39V394.537H275.3V394.287Z" fill="#E0E0E0"/>
<path d="M360.331 392.707H398.561V392.957H360.331V392.707Z" fill="#E0E0E0"/>
<path d="M138.15 388.587H224.78V388.837H138.15V388.587Z" fill="#E0E0E0"/>
<path d="M409.89 392.587H435.07V392.837H409.89V392.587Z" fill="#E0E0E0"/>
<path d="M263 337.827H456.09C457.603 337.825 459.052 337.222 460.121 336.151C461.19 335.081 461.79 333.63 461.79 332.117V60.6873C461.777 59.1834 461.171 57.7453 460.104 56.6856C459.036 55.6258 457.594 55.0299 456.09 55.0273H263C261.486 55.0273 260.033 55.6289 258.962 56.6998C257.892 57.7706 257.29 59.223 257.29 60.7373V332.117C257.29 333.632 257.892 335.084 258.962 336.155C260.033 337.226 261.486 337.827 263 337.827ZM456.09 55.2273C457.536 55.23 458.923 55.8064 459.944 56.8301C460.966 57.8537 461.54 59.241 461.54 60.6873V332.117C461.54 333.564 460.966 334.951 459.944 335.975C458.923 336.998 457.536 337.575 456.09 337.577H263C261.553 337.575 260.166 336.999 259.142 335.975C258.119 334.952 257.543 333.565 257.54 332.117V60.6873C257.543 59.2401 258.119 57.8528 259.142 56.8295C260.166 55.8061 261.553 55.23 263 55.2273H456.09Z" fill="#E0E0E0"/>
<path d="M46.69 337.827H239.79C241.304 337.825 242.754 337.222 243.825 336.152C244.895 335.082 245.497 333.631 245.5 332.117V60.6873C245.484 59.1825 244.876 57.7444 243.807 56.6849C242.738 55.6255 241.295 55.0299 239.79 55.0273H46.69C45.1877 55.0325 43.748 55.6296 42.6829 56.6891C41.6178 57.7486 41.0132 59.1851 41 60.6873V332.117C41 333.628 41.5988 335.078 42.6653 336.148C43.7319 337.218 45.1791 337.822 46.69 337.827ZM239.79 55.2273C241.237 55.23 242.625 55.8061 243.648 56.8295C244.671 57.8528 245.247 59.2401 245.25 60.6873V332.117C245.247 333.565 244.671 334.952 243.648 335.975C242.625 336.999 241.237 337.575 239.79 337.577H46.69C45.2427 337.575 43.8555 336.999 42.8321 335.975C41.8087 334.952 41.2327 333.565 41.23 332.117V60.6873C41.2327 59.2401 41.8087 57.8528 42.8321 56.8295C43.8555 55.8061 45.2427 55.23 46.69 55.2273H239.79Z" fill="#E0E0E0"/>
<path d="M186.1 382.417H166.8L166.8 256.607H186.1V382.417Z" fill="#EBEBEB"/>
<path d="M177.733 345.592L174.74 344.155L200.397 290.726L203.389 292.163L177.733 345.592Z" fill="#EBEBEB"/>
<path d="M184.08 298.247C184.08 298.247 180.54 315.667 161.69 310.537C153.45 308.287 151.69 302.097 152.07 296.177C144.45 301.607 132.99 306.027 134.07 282.227C134.07 282.227 109.52 300.937 101.29 274.037C93.0602 247.137 115.1 244.607 115.1 244.607C115.1 244.607 84.1001 218.997 94.6801 198.007C106.11 175.397 126 187.087 126 187.087C126 187.087 121.89 157.087 144.06 158.397C146.857 158.57 149.493 159.762 151.47 161.747C159.06 157.747 168.64 170.027 168.64 170.027C168.64 170.027 170.55 154.947 185.64 160.387C192.23 162.767 193.95 168.287 193.93 173.457C199.64 169.077 208.43 165.787 208.75 186.587C208.75 186.587 227.11 171.417 234.93 195.407C242.75 219.397 225.55 220.507 225.55 220.507C225.55 220.507 251.21 244.507 243.94 262.377C236.12 281.627 219.94 270.377 219.94 270.377C219.94 270.377 223.89 292.567 211.14 294.587C211.568 296.813 211.306 299.116 210.389 301.189C209.472 303.262 207.945 305.006 206.01 306.187C195.83 312.147 184.08 298.247 184.08 298.247Z" fill="#EBEBEB"/>
<path d="M69.0498 259.938V382.428H426.8V259.498L272.73 238.638L69.0498 259.938Z" fill="#FAFAFA"/>
<path d="M272.73 238.638L426.8 259.498V382.428H272.73V238.638Z" fill="#EBEBEB"/>
<path d="M256.55 382.428H183.07V288.198H256.55V382.428Z" fill="#E0E0E0"/>
<path d="M186.53 382.427V291.377H253.07V382.427H186.53Z" fill="#EBEBEB"/>
<path d="M219.52 382.427V291.377H220.08V382.427H219.52Z" fill="#E0E0E0"/>
<path d="M55.1899 264.397L272.69 241.657L440.57 264.387L441.38 258.447L272.78 235.617L272.42 235.657L54.5599 258.437L55.1899 264.397Z" fill="#E0E0E0"/>
<path d="M70.7004 121.537C64.9004 109.007 69.5004 100.077 83.7004 100.077C92.5904 100.077 103.62 103.597 114.35 109.307C115.57 106.047 118.98 104.097 124.48 104.097C134.15 104.097 147.48 110.097 157.94 118.647C160.47 116.747 164.13 115.587 168.84 115.397C178.1 115.017 189.31 118.487 199.05 124.127C200.209 123.04 201.752 122.458 203.34 122.507C208.68 122.287 215.9 125.787 219.49 130.317L220.11 131.147H63.5104C58.5504 126.707 64.0004 121.757 70.7004 121.537Z" fill="#FAFAFA"/>
<path d="M291.24 88.0269C291.635 87.9867 292.033 87.9667 292.43 87.9669C292.06 83.8669 294.18 81.2469 298.72 81.2469C301.99 81.2469 306.01 82.6169 310.1 84.9269C308.93 76.9269 312.68 71.7969 321.17 71.7969C328.03 71.7969 336.7 75.1669 345.27 80.6469C346.02 77.5269 348.54 75.6469 352.78 75.6469C360.23 75.6469 370.78 81.4269 379.31 89.5869C381.15 87.7669 383.9 86.5869 387.52 86.4569C394.62 86.0969 403.43 89.4569 411.24 94.8269C411.61 94.325 412.096 93.9207 412.657 93.6489C413.218 93.3771 413.837 93.246 414.46 93.2669C418.34 93.0669 423.69 96.0569 426.79 100.047H285C281.67 94.0269 284.32 88.7269 291.24 88.0269Z" fill="#FAFAFA"/>
<path d="M435 382.427H450.21C450.21 382.427 459.58 374.097 462.63 362.927C464.03 357.787 457.12 354.227 452.94 357.927C443.14 366.517 435 382.427 435 382.427Z" fill="#FAFAFA"/>
<path d="M428.58 382.427H443.8C443.8 382.427 452.51 364.547 449.14 351.527C448.884 350.499 448.352 349.559 447.602 348.811C446.852 348.062 445.911 347.533 444.882 347.28C443.853 347.027 442.774 347.059 441.762 347.374C440.75 347.689 439.844 348.275 439.14 349.067C427.66 361.737 428.58 382.427 428.58 382.427Z" fill="#FAFAFA"/>
<path d="M428.561 382.427H418.731C418.731 382.427 412.571 371.557 406.731 358.207C401.331 345.747 410.531 340.547 416.311 352.787C423.711 368.357 428.561 382.427 428.561 382.427Z" fill="#FAFAFA"/>
<path d="M425.87 382.427H410.65C410.65 382.427 395.32 375.177 396.18 361.427C396.4 357.837 400.51 355.497 404.18 356.897C420.48 363.177 425.87 382.427 425.87 382.427Z" fill="#FAFAFA"/>
<path d="M434.42 382.427H419.19C419.19 382.427 414.59 357.027 420 341.027C421.63 336.247 427.42 335.407 430.09 339.567C440.06 355.027 434.42 382.427 434.42 382.427Z" fill="#FAFAFA"/>
<path d="M309.73 272.747H389.8V354.857H309.73V272.747Z" fill="#E0E0E0"/>
<path d="M313.49 350.638V276.978H386.04V350.638H313.49Z" fill="#FAFAFA"/>
<path d="M311.29 310.968H388.25V316.638H311.29V310.968Z" fill="#E0E0E0"/>
<path d="M346.93 353.377V274.247H352.6V353.377H346.93Z" fill="#E0E0E0"/>
<path d="M69.0496 354.857H159.85V274.237H69.0496" fill="#E0E0E0"/>
<path d="M69.0498 350.717V278.397H156.16V350.717H69.0498Z" fill="#FAFAFA"/>
<path d="M208.982 269.329C207.564 263.354 211.258 257.36 217.234 255.942C223.209 254.524 229.203 258.219 230.621 264.194C232.039 270.17 228.344 276.163 222.369 277.581C216.394 278.999 210.4 275.305 208.982 269.329Z" fill="white"/>
<path d="M168.51 379.587H327.34V382.437H168.51V379.587Z" fill="#E0E0E0"/>
<path d="M250 427.587C142.917 427.587 56.1096 422.519 56.1096 416.267C56.1096 410.015 142.917 404.947 250 404.947C357.082 404.947 443.89 410.015 443.89 416.267C443.89 422.519 357.082 427.587 250 427.587Z" fill="#F5F5F5"/>
<path d="M341.4 173.027C341.57 175.877 341.9 178.497 342.27 181.207C342.64 183.917 343.15 186.567 343.72 189.207C344.834 194.618 346.447 199.914 348.54 205.027L349.4 206.947L349.62 207.427L349.73 207.667C349.73 207.747 349.79 207.807 349.87 207.977C350.176 208.584 350.556 209.152 351 209.667C352.054 210.876 353.518 211.653 355.11 211.847C356.296 211.976 357.497 211.85 358.63 211.477C360.22 210.937 361.72 210.161 363.08 209.177C364.259 208.333 365.387 207.421 366.46 206.447C370.45 202.724 374.036 198.591 377.16 194.117L373.84 191.307C371.99 193.047 370.05 194.807 368.12 196.487C366.19 198.167 364.2 199.767 362.21 201.197C361.246 201.891 360.244 202.532 359.21 203.117C358.39 203.609 357.505 203.982 356.58 204.227C356.27 204.287 356.07 204.227 356.21 204.227C356.485 204.255 356.742 204.375 356.94 204.567C357.01 204.627 357.02 204.637 357.01 204.567L356.71 203.777L356.06 202.057C354.427 197.312 353.15 192.452 352.24 187.517C351.74 185.037 351.39 182.517 351.01 179.997C350.63 177.477 350.37 174.897 350.15 172.507L341.4 173.027Z" fill="#EEC1BB"/>
<path d="M347.37 162.587C350.91 163.487 353.37 178.037 353.37 178.037L343.63 184.667C343.63 184.667 334.3 170.027 337 166.097C339.7 162.167 342.22 161.277 347.37 162.587Z" fill="#005490"/>
<path opacity="0.3" d="M347.37 162.587C350.91 163.487 353.37 178.037 353.37 178.037L343.63 184.667C343.63 184.667 334.3 170.027 337 166.097C339.7 162.167 342.22 161.277 347.37 162.587Z" fill="black"/>
<path d="M347.06 165.837L349.77 180.507L344.3 184.217L347.06 165.837Z" fill="#005490"/>
<path opacity="0.5" d="M347.06 165.837L349.77 180.507L344.3 184.217L347.06 165.837Z" fill="black"/>
<path d="M373.74 190.737L378.38 183.417L381 191.737C381 191.737 377.2 195.737 373.76 194.737L373.74 190.737Z" fill="#EEC1BB"/>
<path d="M385.17 180.997L387 188.077L381.01 191.737L378.38 183.417L385.17 180.997Z" fill="#EEC1BB"/>
<path d="M328.24 407.507H336.82L337.4 387.637H328.82L328.24 407.507Z" fill="#EEC1BB"/>
<path d="M252.54 367.657L259.08 373.207L274.04 359.847L267.5 354.297L252.54 367.657Z" fill="#EEC1BB"/>
<path d="M260.87 372.548L254.53 365.288C254.424 365.159 254.274 365.075 254.11 365.051C253.945 365.027 253.778 365.065 253.64 365.158L247.17 369.348C247.016 369.458 246.887 369.6 246.791 369.763C246.695 369.926 246.634 370.107 246.612 370.295C246.589 370.483 246.606 370.673 246.66 370.855C246.715 371.036 246.807 371.204 246.93 371.348C249.18 373.838 250.39 374.928 253.18 378.118C254.9 380.118 257.18 383.118 259.57 385.838C261.96 388.558 264.75 386.358 264 385.018C260.67 379.018 261.47 376.888 261.42 373.928C261.397 373.419 261.203 372.932 260.87 372.548Z" fill="#263238"/>
<path d="M337.12 406.507H327.48C327.313 406.505 327.151 406.564 327.024 406.672C326.897 406.781 326.814 406.932 326.79 407.097L325.7 414.727C325.677 414.919 325.695 415.114 325.754 415.299C325.813 415.484 325.91 415.654 326.04 415.798C326.17 415.941 326.329 416.056 326.506 416.133C326.684 416.211 326.876 416.25 327.07 416.247C330.43 416.187 332.07 415.997 336.29 415.997C338.9 415.997 344.29 416.267 347.89 416.267C351.49 416.267 351.69 412.707 350.19 412.377C343.46 410.937 340.82 408.937 338.55 407.037C338.149 406.7 337.643 406.513 337.12 406.507Z" fill="#263238"/>
<path d="M337.4 387.647L337.1 397.887H328.52L328.81 387.647H337.4Z" fill="#DB9792"/>
<path d="M267.5 354.297L274.04 359.857L266.32 366.737L259.78 361.177L267.5 354.297Z" fill="#DB9792"/>
<path d="M341.22 123.857C335.43 115.247 321.55 112.387 312.91 120.107C301.91 129.937 308.58 149.207 291.67 144.107C274.76 139.007 258.92 140.227 258.83 148.977C258.74 157.727 248.41 146.617 236.25 155.597C211.63 173.767 230.46 220.497 252.11 202.647C266.31 190.947 271.28 185.927 278.36 194.847C285.44 203.767 310.65 199.557 312.91 188.307C315.17 177.057 331.25 182.527 340 172.697C348.75 162.867 353.57 142.207 341.22 123.857Z" fill="#263238"/>
<path d="M347.37 162.587C347.37 162.587 351.46 164.027 343.27 214.367H308.43C309.02 200.187 309.03 191.447 302.25 162.367C307.131 161.365 312.077 160.717 317.05 160.427C322.317 160.046 327.604 160.046 332.87 160.427C339.67 161.027 347.37 162.587 347.37 162.587Z" fill="#005490"/>
<path opacity="0.3" d="M347.37 162.587C347.37 162.587 351.46 164.027 343.27 214.367H308.43C309.02 200.187 309.03 191.447 302.25 162.367C307.131 161.365 312.077 160.717 317.05 160.427C322.317 160.046 327.604 160.046 332.87 160.427C339.67 161.027 347.37 162.587 347.37 162.587Z" fill="black"/>
<path d="M318.62 142.577C319.62 147.667 320.62 156.997 317.05 160.397C317.05 160.397 318.44 165.557 327.9 165.557C338.3 165.557 332.9 160.397 332.9 160.397C327.23 159.037 327.37 154.827 328.36 150.867L318.62 142.577Z" fill="#EEC1BB"/>
<path d="M322.58 145.957L328.33 150.867C328.08 151.786 327.916 152.727 327.84 153.677C325.67 153.357 322.69 150.977 322.46 148.677C322.336 147.771 322.377 146.849 322.58 145.957Z" fill="#DB9792"/>
<path d="M313.25 133.237C315.25 141.517 315.91 145.067 320.9 148.607C328.4 153.947 338.13 149.677 338.65 140.977C339.12 133.137 335.77 120.917 326.99 119.037C325.056 118.613 323.046 118.69 321.15 119.262C319.254 119.834 317.536 120.881 316.159 122.304C314.782 123.727 313.792 125.479 313.283 127.393C312.774 129.306 312.763 131.318 313.25 133.237Z" fill="#EEC1BB"/>
<path d="M343.27 214.367C343.27 214.367 350.04 280.457 349.48 306.617C348.89 333.837 338.92 395.897 338.92 395.897H327.32C327.32 395.897 329.16 335.427 328.13 308.697C327.01 279.567 317.76 214.367 317.76 214.367H343.27Z" fill="#005490"/>
<path opacity="0.5" d="M343.27 214.367C343.27 214.367 350.04 280.457 349.48 306.617C348.89 333.837 338.92 395.897 338.92 395.897H327.32C327.32 395.897 329.16 335.427 328.13 308.697C327.01 279.567 317.76 214.367 317.76 214.367H343.27Z" fill="black"/>
<path d="M326.32 396.317H339.93L340.93 391.977L325.68 391.447L326.32 396.317Z" fill="#005490"/>
<path opacity="0.3" d="M326.32 396.317H339.93L340.93 391.977L325.68 391.447L326.32 396.317Z" fill="white"/>
<path d="M328.25 230.817C336.8 248.027 329.96 279.437 326.94 291.117C325.38 273.577 322.77 252.117 320.73 236.367C322 227.457 324.3 222.877 328.25 230.817Z" fill="#005490"/>
<path opacity="0.6" d="M328.25 230.817C336.8 248.027 329.96 279.437 326.94 291.117C325.38 273.577 322.77 252.117 320.73 236.367C322 227.457 324.3 222.877 328.25 230.817Z" fill="black"/>
<path d="M334.07 214.367C334.07 214.367 326.18 283.077 320.22 305.137C313.14 331.327 269.22 366.567 269.22 366.567L260.31 358.997C260.31 358.997 292.17 320.707 297.58 306.917C309.13 277.467 299.24 233.587 308.47 214.367H334.07Z" fill="#005490"/>
<path opacity="0.5" d="M334.07 214.367C334.07 214.367 326.18 283.077 320.22 305.137C313.14 331.327 269.22 366.567 269.22 366.567L260.31 358.997C260.31 358.997 292.17 320.707 297.58 306.917C309.13 277.467 299.24 233.587 308.47 214.367H334.07Z" fill="black"/>
<path d="M258.84 358.587L269.91 367.987L274.04 365.507L261.53 353.867L258.84 358.587Z" fill="#005490"/>
<path opacity="0.3" d="M258.84 358.587L269.91 367.987L274.04 365.507L261.53 353.867L258.84 358.587Z" fill="white"/>
<path d="M326.369 133.312C326.249 132.632 326.513 132.017 326.959 131.938C327.405 131.859 327.864 132.346 327.984 133.026C328.105 133.706 327.841 134.321 327.395 134.4C326.949 134.479 326.49 133.992 326.369 133.312Z" fill="#263238"/>
<path d="M334.06 131.967C334.18 132.647 334.64 133.137 335.06 133.057C335.48 132.977 335.77 132.357 335.65 131.677C335.53 130.997 335.07 130.507 334.65 130.587C334.23 130.667 333.94 131.287 334.06 131.967Z" fill="#263238"/>
<path d="M334.46 130.657L336.01 129.897C336.01 129.897 335.4 131.327 334.46 130.657Z" fill="#263238"/>
<path d="M332.23 133.497C333.113 134.943 334.19 136.262 335.43 137.417C335.125 137.725 334.757 137.963 334.351 138.115C333.945 138.266 333.512 138.329 333.08 138.297L332.23 133.497Z" fill="#D4827D"/>
<path d="M330 141.517C330.39 141.518 330.778 141.482 331.16 141.407C331.212 141.398 331.257 141.368 331.287 141.325C331.317 141.282 331.329 141.229 331.32 141.177C331.311 141.125 331.281 141.079 331.239 141.047C331.196 141.016 331.143 141.001 331.09 141.007C330.245 141.175 329.372 141.142 328.542 140.911C327.712 140.68 326.948 140.257 326.31 139.677C326.273 139.641 326.223 139.62 326.17 139.62C326.118 139.62 326.068 139.641 326.03 139.677C326.011 139.696 325.995 139.718 325.984 139.743C325.974 139.768 325.968 139.795 325.968 139.822C325.968 139.849 325.974 139.876 325.984 139.901C325.995 139.926 326.011 139.949 326.03 139.967C327.101 140.982 328.525 141.539 330 141.517Z" fill="#263238"/>
<path d="M326.65 118.337C330.48 120.537 321.03 141.337 314.12 138.417C307.21 135.497 309.45 123.887 312.87 120.967C316.29 118.047 321.34 115.297 326.65 118.337Z" fill="#263238"/>
<path d="M328.8 117.357C328.8 117.357 333.41 118.027 336.49 123.777C339.57 129.527 321.87 118.157 324.37 117.357C325.808 116.877 327.363 116.877 328.8 117.357Z" fill="#263238"/>
<path d="M312.9 139.477C313.213 140.23 313.671 140.914 314.25 141.489C314.828 142.064 315.515 142.519 316.27 142.827C318.27 143.647 319.54 141.897 319.18 139.827C318.85 137.997 317.41 135.367 315.28 135.417C314.812 135.434 314.355 135.569 313.952 135.81C313.549 136.051 313.214 136.389 312.977 136.794C312.739 137.199 312.608 137.657 312.595 138.126C312.581 138.594 312.686 139.059 312.9 139.477Z" fill="#EEC1BB"/>
<path d="M324.25 128.847C324.359 128.846 324.463 128.803 324.54 128.727C324.879 128.345 325.305 128.049 325.782 127.864C326.258 127.68 326.772 127.612 327.28 127.667C327.386 127.685 327.495 127.66 327.583 127.598C327.671 127.537 327.731 127.443 327.75 127.337C327.761 127.285 327.76 127.232 327.75 127.18C327.739 127.128 327.718 127.079 327.688 127.036C327.659 126.992 327.621 126.955 327.576 126.926C327.532 126.897 327.482 126.877 327.43 126.867C326.788 126.786 326.136 126.862 325.53 127.089C324.924 127.315 324.382 127.685 323.95 128.167C323.876 128.244 323.835 128.346 323.835 128.452C323.835 128.559 323.876 128.661 323.95 128.737C323.989 128.776 324.036 128.806 324.088 128.825C324.14 128.844 324.195 128.852 324.25 128.847Z" fill="#263238"/>
<path d="M336.861 127.807C336.913 127.807 336.965 127.796 337.013 127.776C337.061 127.755 337.104 127.725 337.141 127.687C337.215 127.611 337.256 127.509 337.256 127.402C337.256 127.296 337.215 127.194 337.141 127.117C336.708 126.637 336.165 126.269 335.559 126.044C334.953 125.82 334.302 125.745 333.661 125.827C333.565 125.858 333.484 125.922 333.433 126.008C333.381 126.094 333.363 126.195 333.382 126.294C333.4 126.392 333.454 126.48 333.533 126.542C333.612 126.603 333.711 126.634 333.811 126.627C334.318 126.574 334.83 126.641 335.307 126.823C335.783 127.006 336.209 127.298 336.551 127.677C336.591 127.719 336.639 127.752 336.692 127.774C336.746 127.796 336.803 127.808 336.861 127.807Z" fill="#263238"/>
<path d="M298.49 171.507C296.613 176.081 294.987 180.755 293.62 185.507C292.182 190.32 291.122 195.238 290.45 200.217C290.32 201.507 290.17 202.777 290.13 204.117V205.117C290.084 205.787 290.134 206.461 290.28 207.117C290.416 207.667 290.636 208.193 290.93 208.677C291.272 209.23 291.717 209.712 292.24 210.097C293.037 210.669 293.973 211.014 294.95 211.097C295.543 211.154 296.141 211.138 296.73 211.047C297.176 210.986 297.617 210.896 298.05 210.777C298.778 210.574 299.493 210.327 300.19 210.037C301.415 209.516 302.607 208.922 303.76 208.257C308.052 205.734 312.106 202.825 315.87 199.567L313.41 195.977C309.2 198.107 304.92 200.327 300.73 202.037C299.73 202.467 298.64 202.837 297.68 203.127C297.25 203.257 296.813 203.36 296.37 203.437C296.217 203.449 296.063 203.449 295.91 203.437C295.81 203.437 295.76 203.437 295.91 203.437C296.276 203.475 296.623 203.617 296.91 203.847C297.399 204.219 297.751 204.743 297.91 205.337C298.01 205.667 297.97 205.947 298.01 205.507L298.1 204.697C298.19 203.627 298.39 202.527 298.57 201.427C298.97 199.207 299.45 196.977 300.06 194.747C300.67 192.517 301.28 190.277 301.97 188.047C303.4 183.617 304.97 179.097 306.61 174.817L298.49 171.507Z" fill="#EEC1BB"/>
<path d="M302.25 162.337C298.76 163.407 294.57 175.427 294.57 175.427L308.11 185.107C308.11 185.107 313.05 175.107 311.59 170.557C310.06 165.857 306.24 161.127 302.25 162.337Z" fill="#005490"/>
<path opacity="0.3" d="M302.25 162.337C298.76 163.407 294.57 175.427 294.57 175.427L308.11 185.107C308.11 185.107 313.05 175.107 311.59 170.557C310.06 165.857 306.24 161.127 302.25 162.337Z" fill="black"/>
<path d="M263.21 376.687C263.388 376.681 263.561 376.636 263.719 376.555C263.876 376.474 264.013 376.358 264.12 376.217C264.206 376.129 264.266 376.019 264.294 375.899C264.323 375.779 264.318 375.654 264.28 375.537C263.97 374.487 260.99 373.637 260.65 373.537C260.612 373.528 260.573 373.53 260.535 373.542C260.498 373.554 260.465 373.577 260.44 373.607C260.419 373.64 260.407 373.678 260.407 373.717C260.407 373.756 260.419 373.794 260.44 373.827C260.98 374.827 262.03 376.557 263.12 376.677L263.21 376.687ZM261.01 374.077C262.19 374.447 263.73 375.077 263.89 375.657C263.911 375.709 263.915 375.766 263.9 375.82C263.886 375.874 263.854 375.922 263.81 375.957C263.734 376.064 263.631 376.15 263.512 376.206C263.393 376.262 263.262 376.286 263.13 376.277C262.55 376.207 261.77 375.397 261 374.077H261.01Z" fill="#005490"/>
<path d="M261.95 374.107C262.837 374.195 263.725 373.949 264.44 373.417C264.54 373.29 264.594 373.134 264.594 372.972C264.594 372.811 264.54 372.654 264.44 372.527C264.357 372.394 264.245 372.282 264.111 372.201C263.977 372.119 263.826 372.07 263.67 372.057C262.44 371.887 260.57 373.517 260.49 373.587C260.464 373.611 260.444 373.641 260.432 373.674C260.419 373.707 260.415 373.742 260.42 373.777C260.428 373.812 260.446 373.844 260.47 373.871C260.495 373.897 260.526 373.916 260.56 373.927C261.012 374.055 261.48 374.116 261.95 374.107ZM263.46 372.447H263.59C263.688 372.459 263.783 372.492 263.867 372.544C263.952 372.596 264.024 372.665 264.08 372.747C264.22 372.957 264.17 373.077 264.08 373.157C263.72 373.637 262.03 373.817 261 373.627C261.698 373.019 262.548 372.611 263.46 372.447Z" fill="#005490"/>
<path d="M340.34 408.027C341.072 408.093 341.805 407.91 342.42 407.507C342.557 407.382 342.662 407.226 342.727 407.052C342.791 406.878 342.813 406.691 342.79 406.507C342.784 406.394 342.748 406.285 342.687 406.19C342.625 406.096 342.54 406.019 342.44 405.967C341.39 405.387 337.97 407.137 337.58 407.337C337.542 407.356 337.512 407.387 337.494 407.425C337.476 407.463 337.471 407.506 337.48 407.547C337.486 407.588 337.504 407.627 337.533 407.658C337.561 407.688 337.599 407.709 337.64 407.717C338.529 407.902 339.433 408.005 340.34 408.027ZM341.87 406.257C342 406.251 342.13 406.275 342.25 406.327C342.288 406.35 342.32 406.382 342.343 406.421C342.365 406.459 342.378 406.502 342.38 406.547C342.4 406.666 342.389 406.788 342.349 406.902C342.309 407.015 342.24 407.117 342.15 407.197C341.63 407.667 340.22 407.747 338.31 407.437C339.419 406.836 340.623 406.43 341.87 406.237V406.257Z" fill="#005490"/>
<path d="M337.68 407.707C337.706 407.717 337.735 407.717 337.76 407.707C338.76 407.247 340.81 405.397 340.65 404.427C340.65 404.197 340.45 403.907 339.89 403.857C339.688 403.831 339.482 403.849 339.287 403.91C339.093 403.97 338.913 404.071 338.76 404.207C337.68 405.097 337.48 407.407 337.48 407.507C337.475 407.542 337.479 407.577 337.494 407.609C337.508 407.641 337.531 407.668 337.56 407.687C337.597 407.707 337.639 407.714 337.68 407.707ZM339.68 404.227H339.8C340.18 404.227 340.2 404.417 340.21 404.457C340.3 405.047 338.93 406.457 337.89 407.137C337.968 406.161 338.349 405.235 338.98 404.487C339.08 404.396 339.197 404.326 339.324 404.281C339.451 404.237 339.586 404.218 339.72 404.227H339.68Z" fill="#005490"/>
<path d="M307.91 212.327L307.02 215.447C306.9 215.687 307.18 215.937 307.59 215.937H343.45C343.76 215.937 344.02 215.777 344.04 215.587L344.36 212.467C344.36 212.247 344.11 212.067 343.76 212.067H308.48C308.371 212.057 308.261 212.076 308.161 212.121C308.061 212.167 307.974 212.238 307.91 212.327Z" fill="#005490"/>
<path opacity="0.6" d="M307.91 212.327L307.02 215.447C306.9 215.687 307.18 215.937 307.59 215.937H343.45C343.76 215.937 344.02 215.777 344.04 215.587L344.36 212.467C344.36 212.247 344.11 212.067 343.76 212.067H308.48C308.371 212.057 308.261 212.076 308.161 212.121C308.061 212.167 307.974 212.238 307.91 212.327Z" fill="white"/>
<path d="M312.65 216.267H311.65C311.47 216.267 311.32 216.177 311.33 216.057L311.78 212.007C311.78 211.887 311.96 211.787 312.14 211.787H313.09C313.28 211.787 313.42 211.887 313.41 212.007L313 216.027C313 216.177 312.84 216.267 312.65 216.267Z" fill="#005490"/>
<path opacity="0.5" d="M312.65 216.267H311.65C311.47 216.267 311.32 216.177 311.33 216.057L311.78 212.007C311.78 211.887 311.96 211.787 312.14 211.787H313.09C313.28 211.787 313.42 211.887 313.41 212.007L313 216.027C313 216.177 312.84 216.267 312.65 216.267Z" fill="black"/>
<path d="M340.79 216.267H339.85C339.66 216.267 339.51 216.177 339.53 216.057L340 212.027C340 211.907 340.18 211.807 340.37 211.807H341.31C341.5 211.807 341.64 211.907 341.63 212.027L341.19 216.077C341.14 216.177 341 216.267 340.79 216.267Z" fill="#005490"/>
<path opacity="0.5" d="M340.79 216.267H339.85C339.66 216.267 339.51 216.177 339.53 216.057L340 212.027C340 211.907 340.18 211.807 340.37 211.807H341.31C341.5 211.807 341.64 211.907 341.63 212.027L341.19 216.077C341.14 216.177 341 216.267 340.79 216.267Z" fill="black"/>
<path d="M326.72 216.267H325.77C325.59 216.267 325.44 216.177 325.46 216.057L325.9 212.027C325.9 211.907 326.08 211.807 326.27 211.807H327.21C327.4 211.807 327.54 211.907 327.53 212.027L327.09 216.077C327.07 216.177 326.91 216.267 326.72 216.267Z" fill="#005490"/>
<path opacity="0.5" d="M326.72 216.267H325.77C325.59 216.267 325.44 216.177 325.46 216.057L325.9 212.027C325.9 211.907 326.08 211.807 326.27 211.807H327.21C327.4 211.807 327.54 211.907 327.53 212.027L327.09 216.077C327.07 216.177 326.91 216.267 326.72 216.267Z" fill="black"/>
<path d="M312.23 196.897L315.11 188.087L319.71 195.507C319.71 195.507 317 200.307 313.44 200.237L312.23 196.897Z" fill="#EEC1BB"/>
<path d="M318.17 178.027L320.43 207.267C320.491 208.029 320.852 208.735 321.433 209.232C322.014 209.729 322.768 209.975 323.53 209.917L379.19 205.627C379.953 205.565 380.66 205.205 381.158 204.625C381.656 204.044 381.905 203.29 381.85 202.527L379.59 173.287C379.556 172.897 379.442 172.519 379.256 172.175C379.071 171.831 378.817 171.529 378.51 171.287C377.944 170.837 377.231 170.613 376.51 170.657L320.85 174.957C320.086 175.016 319.377 175.375 318.878 175.956C318.38 176.538 318.132 177.293 318.19 178.057L318.17 178.027Z" fill="#005490"/>
<path opacity="0.8" d="M318.17 178.027L320.43 207.267C320.491 208.029 320.852 208.735 321.433 209.232C322.014 209.729 322.768 209.975 323.53 209.917L379.19 205.627C379.953 205.565 380.66 205.205 381.158 204.625C381.656 204.044 381.905 203.29 381.85 202.527L379.59 173.287C379.556 172.897 379.442 172.519 379.256 172.175C379.071 171.831 378.817 171.529 378.51 171.287C377.944 170.837 377.231 170.613 376.51 170.657L320.85 174.957C320.086 175.016 319.377 175.375 318.878 175.956C318.38 176.538 318.132 177.293 318.19 178.057L318.17 178.027Z" fill="white"/>
<path d="M318.93 175.807L342.77 192.117C344.976 193.632 347.633 194.349 350.301 194.151C352.97 193.952 355.491 192.851 357.45 191.027L378.51 171.257C377.944 170.808 377.231 170.584 376.51 170.627L320.85 174.927C320.123 174.973 319.439 175.286 318.93 175.807Z" fill="#005490"/>
<path opacity="0.6" d="M318.93 175.807L342.77 192.117C344.976 193.632 347.633 194.349 350.301 194.151C352.97 193.952 355.491 192.851 357.45 191.027L378.51 171.257C377.944 170.808 377.231 170.584 376.51 170.627L320.85 174.927C320.123 174.973 319.439 175.286 318.93 175.807Z" fill="white"/>
<path d="M321.1 184.077L324.61 190.487L318.93 196.677L315.11 188.087L321.1 184.077Z" fill="#EEC1BB"/>
<path d="M326.751 132.028L328.311 131.268C328.311 131.268 327.691 132.688 326.751 132.028Z" fill="#263238"/>
<path d="M166.71 250.027H178.97V416.267H166.71V250.027Z" fill="#005490"/>
<path opacity="0.6" d="M166.71 250.027H178.97V416.267H166.71V250.027Z" fill="white"/>
<path d="M178.97 250.027H166.71V262.287L178.97 257.777V250.027Z" fill="#005490"/>
<path opacity="0.4" d="M178.97 250.027H166.71V262.287L178.97 257.777V250.027Z" fill="white"/>
<path d="M192.2 210.147C192.128 206.249 192.834 202.376 194.276 198.754C195.717 195.132 197.867 191.834 200.598 189.051C203.329 186.269 206.587 184.06 210.182 182.551C213.777 181.043 217.636 180.266 221.535 180.266C225.434 180.266 229.293 181.043 232.888 182.551C236.483 184.06 239.741 186.269 242.472 189.051C245.203 191.834 247.353 195.132 248.794 198.754C250.236 202.376 250.942 206.249 250.87 210.147V250.027H192.2V210.147Z" fill="#005490"/>
<path opacity="0.3" d="M192.2 210.147C192.128 206.249 192.834 202.376 194.276 198.754C195.717 195.132 197.867 191.834 200.598 189.051C203.329 186.269 206.587 184.06 210.182 182.551C213.777 181.043 217.636 180.266 221.535 180.266C225.434 180.266 229.293 181.043 232.888 182.551C236.483 184.06 239.741 186.269 242.472 189.051C245.203 191.834 247.353 195.132 248.794 198.754C250.236 202.376 250.942 206.249 250.87 210.147V250.027H192.2V210.147Z" fill="black"/>
<path d="M256.43 267.137C260.35 283.337 250.43 296.467 234.19 296.467C217.95 296.467 201.68 283.337 197.76 267.137L193.68 250.267C193.623 250.04 193.62 249.803 193.669 249.574C193.718 249.345 193.819 249.13 193.963 248.946C194.108 248.762 194.293 248.613 194.504 248.511C194.714 248.409 194.946 248.357 195.18 248.357H250.67C251.017 248.359 251.353 248.477 251.625 248.693C251.897 248.909 252.089 249.21 252.17 249.547L256.43 267.137Z" fill="#005490"/>
<path opacity="0.4" d="M256.43 267.137C260.35 283.337 250.43 296.467 234.19 296.467C217.95 296.467 201.68 283.337 197.76 267.137L193.68 250.267C193.623 250.04 193.62 249.803 193.669 249.574C193.718 249.345 193.819 249.13 193.963 248.946C194.108 248.762 194.293 248.613 194.504 248.511C194.714 248.409 194.946 248.357 195.18 248.357H250.67C251.017 248.359 251.353 248.477 251.625 248.693C251.897 248.909 252.089 249.21 252.17 249.547L256.43 267.137Z" fill="white"/>
<path d="M258.79 267.137C262.71 283.337 252.79 296.467 236.55 296.467C220.31 296.467 204.04 283.337 200.12 267.137L196 250.267C195.944 250.04 195.94 249.803 195.989 249.574C196.038 249.345 196.139 249.13 196.284 248.946C196.428 248.762 196.613 248.613 196.824 248.511C197.035 248.409 197.266 248.357 197.5 248.357H253C253.347 248.359 253.684 248.477 253.956 248.693C254.228 248.909 254.419 249.21 254.5 249.547L258.79 267.137Z" fill="#005490"/>
<path opacity="0.5" d="M258.79 267.137C262.71 283.337 252.79 296.467 236.55 296.467C220.31 296.467 204.04 283.337 200.12 267.137L196 250.267C195.944 250.04 195.94 249.803 195.989 249.574C196.038 249.345 196.139 249.13 196.284 248.946C196.428 248.762 196.613 248.613 196.824 248.511C197.035 248.409 197.266 248.357 197.5 248.357H253C253.347 248.359 253.684 248.477 253.956 248.693C254.228 248.909 254.419 249.21 254.5 249.547L258.79 267.137Z" fill="white"/>
<path d="M123.16 210.138V250.028H192.16V210.138C192.163 202.36 195.254 194.901 200.754 189.401C206.254 183.901 213.712 180.81 221.49 180.808H152.44C144.662 180.81 137.204 183.901 131.704 189.401C126.204 194.901 123.113 202.36 123.11 210.138H123.16Z" fill="#005490"/>
<path opacity="0.5" d="M123.16 210.138V250.028H192.16V210.138C192.163 202.36 195.254 194.901 200.754 189.401C206.254 183.901 213.712 180.81 221.49 180.808H152.44C144.662 180.81 137.204 183.901 131.704 189.401C126.204 194.901 123.113 202.36 123.11 210.138H123.16Z" fill="white"/>
<path d="M123.16 210.138V220.808H192.16V210.138C192.147 203.615 194.323 197.277 198.34 192.138H129.29C125.291 197.283 123.132 203.621 123.16 210.138Z" fill="#005490"/>
<path opacity="0.7" d="M123.16 210.138V220.808H192.16V210.138C192.147 203.615 194.323 197.277 198.34 192.138H129.29C125.291 197.283 123.132 203.621 123.16 210.138Z" fill="white"/>
<path d="M182.59 225.948V166.948C182.591 166.422 182.478 165.902 182.257 165.424C182.037 164.946 181.716 164.522 181.315 164.182C180.914 163.841 180.444 163.592 179.937 163.451C179.43 163.31 178.899 163.282 178.38 163.368L164.24 165.708C163.733 165.791 163.272 166.052 162.941 166.444C162.609 166.837 162.428 167.334 162.43 167.848V171.508C162.43 172.083 162.658 172.635 163.065 173.042C163.472 173.449 164.024 173.678 164.6 173.678H178.09V225.928C178.09 226.524 178.327 227.097 178.749 227.519C179.171 227.941 179.743 228.178 180.34 228.178C180.933 228.178 181.502 227.943 181.924 227.526C182.345 227.108 182.585 226.541 182.59 225.948Z" fill="#005490"/>
<path opacity="0.3" d="M182.59 225.948V166.948C182.591 166.422 182.478 165.902 182.257 165.424C182.037 164.946 181.716 164.522 181.315 164.182C180.914 163.841 180.444 163.592 179.937 163.451C179.43 163.31 178.899 163.282 178.38 163.368L164.24 165.708C163.733 165.791 163.272 166.052 162.941 166.444C162.609 166.837 162.428 167.334 162.43 167.848V171.508C162.43 172.083 162.658 172.635 163.065 173.042C163.472 173.449 164.024 173.678 164.6 173.678H178.09V225.928C178.09 226.524 178.327 227.097 178.749 227.519C179.171 227.941 179.743 228.178 180.34 228.178C180.933 228.178 181.502 227.943 181.924 227.526C182.345 227.108 182.585 226.541 182.59 225.948Z" fill="black"/>
<path d="M221.54 188.598V217.918C221.543 218.682 221.846 219.414 222.386 219.955C222.925 220.496 223.656 220.803 224.42 220.808H280.25C281.014 220.803 281.745 220.496 282.284 219.955C282.823 219.414 283.127 218.682 283.13 217.918V188.598C283.127 187.834 282.823 187.102 282.284 186.561C281.745 186.02 281.014 185.713 280.25 185.708H224.42C223.656 185.713 222.925 186.02 222.386 186.561C221.846 187.102 221.543 187.834 221.54 188.598Z" fill="#005490"/>
<path opacity="0.8" d="M221.54 188.598V217.918C221.543 218.682 221.846 219.414 222.386 219.955C222.925 220.496 223.656 220.803 224.42 220.808H280.25C281.014 220.803 281.745 220.496 282.284 219.955C282.823 219.414 283.127 218.682 283.13 217.918V188.598C283.127 187.834 282.823 187.102 282.284 186.561C281.745 186.02 281.014 185.713 280.25 185.708H224.42C223.656 185.713 222.925 186.02 222.386 186.561C221.846 187.102 221.543 187.834 221.54 188.598Z" fill="white"/>
<path d="M222.46 186.488L245 204.578C247.09 206.252 249.688 207.164 252.365 207.164C255.043 207.164 257.64 206.252 259.73 204.578L282.24 186.488C281.698 185.981 280.982 185.702 280.24 185.708H224.41C223.685 185.714 222.989 185.993 222.46 186.488Z" fill="#005490"/>
<path opacity="0.6" d="M222.46 186.488L245 204.578C247.09 206.252 249.688 207.164 252.365 207.164C255.043 207.164 257.64 206.252 259.73 204.578L282.24 186.488C281.698 185.981 280.982 185.702 280.24 185.708H224.41C223.685 185.714 222.989 185.993 222.46 186.488Z" fill="white"/>
<path d="M264.32 232.628V261.958C264.32 262.723 264.623 263.456 265.163 263.998C265.703 264.54 266.435 264.845 267.2 264.848H323C323.764 264.843 324.495 264.536 325.034 263.995C325.573 263.454 325.877 262.722 325.88 261.958V232.628C325.88 231.864 325.576 231.132 325.036 230.592C324.496 230.051 323.764 229.748 323 229.748H267.2C266.436 229.748 265.704 230.051 265.163 230.592C264.623 231.132 264.32 231.864 264.32 232.628Z" fill="#005490"/>
<path opacity="0.8" d="M264.32 232.628V261.958C264.32 262.723 264.623 263.456 265.163 263.998C265.703 264.54 266.435 264.845 267.2 264.848H323C323.764 264.843 324.495 264.536 325.034 263.995C325.573 263.454 325.877 262.722 325.88 261.958V232.628C325.88 231.864 325.576 231.132 325.036 230.592C324.496 230.051 323.764 229.748 323 229.748H267.2C266.436 229.748 265.704 230.051 265.163 230.592C264.623 231.132 264.32 231.864 264.32 232.628Z" fill="white"/>
<path d="M265.24 230.517L287.75 248.607C289.837 250.287 292.436 251.202 295.115 251.202C297.794 251.202 300.393 250.287 302.48 248.607L325 230.517C324.457 230.013 323.741 229.737 323 229.747H267.2C266.472 229.744 265.771 230.02 265.24 230.517Z" fill="#005490"/>
<path opacity="0.6" d="M265.24 230.517L287.75 248.607C289.837 250.287 292.436 251.202 295.115 251.202C297.794 251.202 300.393 250.287 302.48 248.607L325 230.517C324.457 230.013 323.741 229.737 323 229.747H267.2C266.472 229.744 265.771 230.02 265.24 230.517Z" fill="white"/>
<path d="M192.2 210.647V245.747H213.06C213.826 245.745 214.559 245.439 215.101 244.898C215.642 244.357 215.948 243.623 215.95 242.857V213.537C215.945 212.773 215.639 212.041 215.098 211.5C214.557 210.959 213.825 210.653 213.06 210.647H192.2Z" fill="#005490"/>
<path opacity="0.8" d="M192.2 210.647V245.747H213.06C213.826 245.745 214.559 245.439 215.101 244.898C215.642 244.357 215.948 243.623 215.95 242.857V213.537C215.945 212.773 215.639 212.041 215.098 211.5C214.557 210.959 213.825 210.653 213.06 210.647H192.2Z" fill="white"/>
<path d="M192.2 210.648V229.748C192.307 229.677 192.411 229.6 192.51 229.518L215 211.428C214.46 210.917 213.743 210.637 213 210.648H192.2Z" fill="#005490"/>
<path opacity="0.6" d="M192.2 210.648V229.748C192.307 229.677 192.411 229.6 192.51 229.518L215 211.428C214.46 210.917 213.743 210.637 213 210.648H192.2Z" fill="white"/>
<path opacity="0.5" d="M192.209 210.647H196.779V245.747H192.209V210.647Z" fill="#005490"/>
</svg>
