<svg width="106" height="80" viewBox="0 0 106 80" fill="none" xmlns="http://www.w3.org/2000/svg">
<path d="M48.1007 5V2.96429L46.0649 2.96429L10.8149 2.96429L8.77922 2.96429L8.77922 5.00001L8.77922 37.6271L8.77922 39.5523L10.7014 39.6597L20.9745 40.2335L5.1552 74.1393L3.80382 77.0357H7H20.1234H21.2498L21.8481 76.0814L47.7897 34.7042L48.1007 34.2083V33.6229V5ZM103.036 5V2.96429L101 2.96429L65.75 2.96429H63.7143V5L63.7143 37.6271V39.551L65.6352 39.6596L75.7578 40.2316L59.9377 74.1393L58.5863 77.0357H61.7825H74.9059H76.0288L76.6278 76.0859L102.722 34.7088L103.036 34.2112V33.6229V5Z" stroke="black" stroke-width="4.07143"/>
</svg>
