<svg width="54" height="54" viewBox="0 0 54 54" fill="none" xmlns="http://www.w3.org/2000/svg">
<g opacity="0.2">
<path d="M49.5 27.7891H36.45C33.0075 27.7891 30.645 30.3991 30.645 33.5941V40.8392C30.645 44.0342 33.0075 46.6441 36.45 46.6441H43.695C46.89 46.6441 49.5 44.0342 49.5 40.8392V27.7891Z" fill="black"/>
<path d="M49.5 27.7891H36.45C33.0075 27.7891 30.645 30.3991 30.645 33.5941V40.8392C30.645 44.0342 33.0075 46.6441 36.45 46.6441H43.695C46.89 46.6441 49.5 44.0342 49.5 40.8392V27.7891" stroke="black" stroke-width="3.375" stroke-linecap="round" stroke-linejoin="round"/>
<path d="M49.5 27.7902C49.5 14.1777 46.9574 11.9278 39.3074 7.38281" stroke="black" stroke-width="3.375" stroke-linecap="round" stroke-linejoin="round"/>
<path d="M23.3301 27.7891H10.2801C6.83761 27.7891 4.47507 30.3991 4.47507 33.5941V40.8392C4.47507 44.0342 6.83761 46.6441 10.2801 46.6441H17.525C20.72 46.6441 23.3301 44.0342 23.3301 40.8392V27.7891Z" fill="black"/>
<path d="M23.3301 27.7891H10.2801C6.83761 27.7891 4.47507 30.3991 4.47507 33.5941V40.8392C4.47507 44.0342 6.83761 46.6441 10.2801 46.6441H17.525C20.72 46.6441 23.3301 44.0342 23.3301 40.8392V27.7891" stroke="black" stroke-width="3.375" stroke-linecap="round" stroke-linejoin="round"/>
<path d="M23.3301 27.7902C23.3301 14.1777 20.7876 11.9278 13.1376 7.38281" stroke="black" stroke-width="3.375" stroke-linecap="round" stroke-linejoin="round"/>
</g>
</svg>
