<svg width="54" height="54" viewBox="0 0 54 54" fill="none" xmlns="http://www.w3.org/2000/svg">
<g opacity="0.2">
<path d="M4.5 27.7891H17.55C20.9925 27.7891 23.355 30.3991 23.355 33.5941V40.8392C23.355 44.0342 20.9925 46.6441 17.55 46.6441H10.305C7.11004 46.6441 4.5 44.0342 4.5 40.8392V27.7891Z" fill="black"/>
<path d="M4.5 27.7891H17.55C20.9925 27.7891 23.355 30.3991 23.355 33.5941V40.8392C23.355 44.0342 20.9925 46.6441 17.55 46.6441H10.305C7.11004 46.6441 4.5 44.0342 4.5 40.8392V27.7891" stroke="black" stroke-width="3.375" stroke-linecap="round" stroke-linejoin="round"/>
<path d="M4.5 27.7902C4.5 14.1777 7.04257 11.9278 14.6926 7.38281" stroke="black" stroke-width="3.375" stroke-linecap="round" stroke-linejoin="round"/>
<path d="M30.6699 27.7891H43.7199C47.1624 27.7891 49.5249 30.3991 49.5249 33.5941V40.8392C49.5249 44.0342 47.1624 46.6441 43.7199 46.6441H36.475C33.28 46.6441 30.6699 44.0342 30.6699 40.8392V27.7891Z" fill="black"/>
<path d="M30.6699 27.7891H43.7199C47.1624 27.7891 49.5249 30.3991 49.5249 33.5941V40.8392C49.5249 44.0342 47.1624 46.6441 43.7199 46.6441H36.475C33.28 46.6441 30.6699 44.0342 30.6699 40.8392V27.7891" stroke="black" stroke-width="3.375" stroke-linecap="round" stroke-linejoin="round"/>
<path d="M30.6699 27.7902C30.6699 14.1777 33.2124 11.9278 40.8624 7.38281" stroke="black" stroke-width="3.375" stroke-linecap="round" stroke-linejoin="round"/>
</g>
</svg>
