<svg width="273" height="69" viewBox="0 0 273 69" fill="none" xmlns="http://www.w3.org/2000/svg">
<path fill-rule="evenodd" clip-rule="evenodd" d="M56.5974 0H15.2661C0.325402 3.65353 0.00585938 16.3787 0.00585938 16.3787V59.384H15.9038V20.2302C15.9038 16.9018 19.0809 16.3136 19.0809 16.3136H56.596V0H56.5974ZM25.1847 22.6324C25.1847 22.6324 22.0896 22.3199 22.0896 25.1237V37.5816H42.5078V41.32C42.5078 41.32 42.5686 43.1877 40.6514 43.1877H22.0911V59.384H44.3657C44.3657 59.384 57.8558 57.2674 57.9774 43.1877V22.6324H25.1847Z" fill="#4385F4"/>
<path d="M103.389 25.8114L101.931 26.7813C100.839 27.4735 99.696 28.0828 98.5124 28.6038C96.9712 29.25 95.5983 29.5738 94.3654 29.5738C90.1336 29.5738 86.6313 28.2504 83.8007 25.5752C80.9701 22.9001 79.5703 19.5506 79.5703 15.4927C79.5703 11.5832 80.8315 8.20259 83.3808 5.32105C85.9301 2.43952 89.0124 1.02844 92.656 1.02844C94.1689 1.02844 95.7949 1.29284 97.476 1.85133C99.6619 2.55687 101.426 3.61589 102.828 4.99727L100.39 7.76004C99.3537 6.73072 98.0076 5.96721 96.4396 5.49638C95.2632 5.1429 93.9738 4.96758 92.5443 4.96758C89.995 4.96758 87.8374 6.02659 86.128 8.11352C84.4186 10.2301 83.5505 12.7285 83.5505 15.668C83.5505 18.5778 84.5317 20.9603 86.4928 22.8704C88.4539 24.7806 90.948 25.752 93.9738 25.752C95.235 25.752 96.523 25.3405 97.8408 24.5473L99.5219 23.2536V17.2275H91.3397L92.516 13.4651H103.389V25.8128V25.8114ZM128.104 18.4619C128.104 21.3717 127.094 23.8998 125.077 26.0164C123.059 28.133 120.565 29.2203 117.596 29.2203C114.85 29.2203 112.439 28.1627 110.367 26.0744C108.294 23.986 107.284 21.4594 107.284 18.4902C107.246 15.6588 108.3 12.9215 110.227 10.8466C112.188 8.67059 114.598 7.613 117.428 7.613C120.565 7.613 123.116 8.64232 125.105 10.7292C127.094 12.7582 128.104 15.3442 128.104 18.4605V18.4619ZM124.264 18.5213C124.264 16.5517 123.621 14.8762 122.331 13.5231C121.042 12.1417 119.445 11.4659 117.539 11.4659C115.746 11.4659 114.232 12.1714 112.972 13.5825C111.713 14.9936 111.095 16.6111 111.095 18.4336C111.095 20.3452 111.739 21.9613 113.001 23.313C114.262 24.6647 115.831 25.3702 117.736 25.3702C119.5 25.3702 121.013 24.6944 122.303 23.3413C122.936 22.71 123.436 21.9579 123.773 21.1296C124.11 20.3014 124.277 19.4139 124.264 18.5199V18.5213ZM152.483 18.4619C152.483 21.3717 151.473 23.8998 149.455 26.0164C147.438 28.133 144.944 29.2203 141.974 29.2203C139.227 29.2203 136.818 28.1627 134.745 26.0744C132.672 23.986 131.663 21.4594 131.663 18.4902C131.624 15.659 132.677 12.9217 134.604 10.8466C136.566 8.67059 138.976 7.613 141.806 7.613C144.944 7.613 147.494 8.64232 149.484 10.7292C151.473 12.7582 152.483 15.3442 152.483 18.4605V18.4619ZM148.642 18.5213C148.642 16.5517 147.999 14.8762 146.71 13.5231C145.42 12.1417 143.824 11.4659 141.918 11.4659C140.125 11.4659 138.611 12.1714 137.351 13.5825C136.091 14.9936 135.473 16.6111 135.473 18.4336C135.442 20.2472 136.126 22.0001 137.378 23.313C138.639 24.6647 140.208 25.3702 142.114 25.3702C143.879 25.3702 145.393 24.6944 146.681 23.3413C147.314 22.71 147.814 21.9579 148.151 21.1296C148.488 20.3014 148.655 19.4139 148.642 18.5199V18.5213ZM175.039 28.6335L171.508 29.192V25.694L170.752 26.5763C170.08 27.2224 169.324 27.7527 168.511 28.1641C167.311 28.7316 165.999 29.023 164.672 29.0167C161.925 29.0167 159.572 27.9874 157.666 25.9004C155.76 23.8135 154.808 21.3434 154.808 18.4633C154.808 15.4941 155.76 12.9363 157.638 10.8197C159.515 8.70312 161.813 7.64551 164.559 7.64551C166.128 7.64551 167.501 7.90991 168.651 8.43871C169.464 8.82047 170.163 9.32099 170.752 9.93745L171.34 10.7603V1.58835L175.095 1.02985L175.039 28.6349V28.6335ZM171.733 18.7263C171.733 16.6691 171.06 14.9342 169.687 13.5231C168.314 12.0823 166.773 11.3768 165.007 11.3768C163.046 11.3768 161.476 12.0527 160.272 13.4058C159.151 14.6995 158.562 16.2873 158.562 18.1395C158.562 20.2264 159.151 21.9613 160.328 23.313C160.875 23.9663 161.562 24.488 162.338 24.8393C163.115 25.1905 163.96 25.3624 164.812 25.3419C166.605 25.3419 168.174 24.7241 169.575 23.46C171.005 22.1663 171.733 20.5785 171.733 18.7277V18.7263ZM194.85 5.40872H184.342V12.7285H192.496V16.4909H184.342V28.6024L180.252 29.2203V1.61804H194.037L194.85 5.41013V5.40872ZM203.284 3.26241L200.763 6.5257L198.352 3.26241L200.903 0.0288086L203.284 3.26241ZM202.528 28.6321L198.774 29.1609V8.73139L202.528 8.14321V28.6335V28.6321ZM219.482 7.93536L217.716 12.1092C217.484 12.0725 217.25 12.0526 217.016 12.0498C216.651 12.0498 216.286 12.0795 215.923 12.1375C215.56 12.1955 215.167 12.3439 214.745 12.5489C213.961 12.9024 213.289 13.6659 212.699 14.8126C212.056 16.1063 211.72 17.5174 211.72 19.0161V28.5996L207.964 29.2175V8.73139L211.44 8.08524V12.3482L212.812 10.1142C213.457 9.34927 214.214 8.79078 215.054 8.46841C215.502 8.29167 216.315 8.14462 217.548 8.02727L219.482 7.93961V7.93536ZM247.446 28.6321L243.692 29.1906V15.1675C243.692 13.8738 243.412 12.9335 242.851 12.3453C242.29 11.7572 241.45 11.4631 240.357 11.4631C239.04 11.4631 238.031 12.0215 237.359 13.1385C236.911 13.9035 236.658 14.7263 236.658 15.5492V28.6024L232.904 29.308V15.2551C232.904 14.0208 232.623 13.0791 232.091 12.433C231.53 11.7868 230.802 11.4631 229.849 11.4631H229.485C228.167 11.4631 227.215 12.0215 226.626 13.1682C226.178 14.0208 225.955 15.1081 225.955 16.4315V28.6024L222.059 29.308V8.73139L225.562 8.11352V10.7292C225.955 10.1114 226.346 9.61226 226.711 9.25878C227.719 8.28884 228.897 7.81801 230.213 7.81801C231.698 7.81801 232.791 8.05272 233.547 8.55324C234.192 8.96469 234.809 9.78758 235.425 10.9639C236.715 8.87702 238.536 7.81801 240.945 7.81801C243.244 7.81801 244.953 8.55324 246.073 10.052C246.998 11.2863 247.446 13.1088 247.446 15.4899V28.6307V28.6321ZM264.595 22.4293C264.595 24.3112 263.951 25.8693 262.663 27.074C261.373 28.3083 259.748 28.8965 257.786 28.8965C256.301 28.8965 254.985 28.5444 253.779 27.8389C252.573 27.1334 251.678 26.3402 251.09 25.3985L253.724 22.9878C253.881 23.2375 254.059 23.4735 254.255 23.6933C255.237 24.7227 256.413 25.2515 257.786 25.2515C258.739 25.2515 259.495 24.9871 260.028 24.4865C260.588 23.986 260.841 23.2819 260.841 22.3699C260.841 21.3406 260.197 20.6351 258.907 20.2533L254.788 18.9299C253.611 18.312 252.771 17.6659 252.238 16.9306C251.65 16.078 251.341 14.9611 251.341 13.5203C251.341 11.7571 251.986 10.2867 253.247 9.11032C254.509 7.93395 256.021 7.37546 257.759 7.37546C259.04 7.36081 260.304 7.67428 261.43 8.28601C262.551 8.90248 263.362 9.55004 263.839 10.315L261.598 12.8133C261.176 12.4019 260.813 12.0781 260.505 11.8731C259.608 11.2269 258.739 10.9032 257.926 10.9032C257.143 10.9032 256.498 11.0799 255.993 11.4319C255.405 11.8731 255.097 12.5192 255.097 13.3718C255.097 14.1947 255.377 14.8126 255.965 15.1944C256.47 15.5181 257.534 15.8702 259.215 16.2534C260.897 16.6648 262.186 17.3704 263.111 18.37C264.147 19.429 264.595 20.751 264.595 22.4265V22.4293ZM138.82 44.1426C139.304 42.9818 140.948 42.9818 141.431 44.1426L144.01 50.3426C144.11 50.5827 144.274 50.7906 144.485 50.9436C144.695 51.0965 144.943 51.1884 145.202 51.2093L151.896 51.7466C153.15 51.847 153.658 53.4122 152.703 54.2294L147.603 58.5984C147.406 58.7677 147.259 58.9882 147.178 59.2356C147.098 59.4831 147.087 59.748 147.148 60.001L148.706 66.5332C148.997 67.7563 147.667 68.7234 146.594 68.0687L140.863 64.5679C140.641 64.4322 140.386 64.3604 140.126 64.3604C139.866 64.3604 139.61 64.4322 139.388 64.5679L133.658 68.0687C132.585 68.7248 131.254 67.7577 131.545 66.5332L133.104 60.001C133.164 59.748 133.154 59.4831 133.073 59.2356C132.993 58.9882 132.846 58.7677 132.648 58.5984L127.548 54.2294C126.594 53.4108 127.102 51.847 128.356 51.7466L135.049 51.2093C135.308 51.1884 135.557 51.0965 135.767 50.9436C135.977 50.7906 136.141 50.5827 136.241 50.3426L138.82 44.1426ZM168.625 44.1426C169.109 42.9818 170.753 42.9818 171.237 44.1426L173.816 50.3426C173.915 50.5827 174.079 50.7906 174.29 50.9436C174.5 51.0965 174.748 51.1884 175.007 51.2093L181.701 51.7466C182.955 51.847 183.464 53.4122 182.508 54.2294L177.408 58.5984C177.211 58.7677 177.064 58.9882 176.983 59.2356C176.903 59.4831 176.893 59.748 176.953 60.001L178.511 66.5332C178.802 67.7563 177.472 68.7234 176.399 68.0687L170.668 64.5679C170.446 64.4322 170.191 64.3604 169.931 64.3604C169.671 64.3604 169.416 64.4322 169.193 64.5679L163.463 68.0687C162.39 68.7248 161.059 67.7577 161.351 66.5332L162.909 60.001C162.969 59.748 162.959 59.4831 162.878 59.2356C162.798 58.9882 162.651 58.7677 162.453 58.5984L157.353 54.2294C156.399 53.4108 156.907 51.847 158.161 51.7466L164.854 51.2093C165.114 51.1887 165.362 51.0968 165.573 50.9439C165.783 50.791 165.948 50.5829 166.048 50.3426L168.625 44.1426ZM198.432 44.1426C198.915 42.9818 200.561 42.9818 201.043 44.1426L203.622 50.3426C203.722 50.5827 203.886 50.7906 204.096 50.9436C204.306 51.0965 204.555 51.1884 204.814 51.2093L211.507 51.7466C212.762 51.847 213.271 53.4122 212.315 54.2294L207.215 58.5984C207.017 58.7677 206.87 58.9882 206.79 59.2356C206.71 59.4831 206.699 59.748 206.76 60.001L208.318 66.5332C208.609 67.7563 207.278 68.7234 206.205 68.0687L200.475 64.5679C200.253 64.4325 199.998 64.3609 199.738 64.3609C199.478 64.3609 199.223 64.4325 199.001 64.5679L193.271 68.0687C192.196 68.7248 190.866 67.7577 191.159 66.5332L192.715 60.001C192.776 59.748 192.765 59.4831 192.685 59.2356C192.605 58.9882 192.458 58.7677 192.26 58.5984L187.16 54.2294C186.206 53.4108 186.713 51.847 187.967 51.7466L194.661 51.2093C194.92 51.1887 195.169 51.0968 195.379 50.9439C195.59 50.791 195.754 50.5829 195.854 50.3426L198.432 44.1426ZM228.237 44.1426C228.719 42.9818 230.365 42.9818 230.847 44.1426L233.426 50.3426C233.526 50.5827 233.69 50.7906 233.9 50.9436C234.11 51.0965 234.359 51.1884 234.618 51.2093L241.313 51.7466C242.565 51.847 243.074 53.4122 242.118 54.2294L237.019 58.5984C236.821 58.7677 236.674 58.9882 236.594 59.2356C236.513 59.4831 236.503 59.748 236.563 60.001L238.121 66.5332C238.414 67.7563 237.082 68.7234 236.009 68.0687L230.278 64.5679C230.057 64.4325 229.802 64.3609 229.542 64.3609C229.282 64.3609 229.027 64.4325 228.805 64.5679L223.075 68.0687C222.001 68.7248 220.67 67.7577 220.962 66.5332L222.52 60.001C222.581 59.7478 222.57 59.4829 222.489 59.2354C222.409 58.9879 222.261 58.7675 222.064 58.5984L216.965 54.2294C216.009 53.4108 216.518 51.847 217.771 51.7466L224.464 51.2093C224.724 51.1887 224.973 51.0968 225.183 50.9439C225.394 50.791 225.558 50.5829 225.658 50.3426L228.237 44.1426ZM258.002 44.1426C258.484 42.9818 260.13 42.9818 260.612 44.1426L263.191 50.3426C263.291 50.5829 263.455 50.791 263.666 50.9439C263.877 51.0968 264.125 51.1887 264.385 51.2093L271.078 51.7466C272.331 51.847 272.84 53.4122 271.884 54.2294L266.784 58.5984C266.586 58.7677 266.439 58.9882 266.359 59.2356C266.279 59.4831 266.268 59.748 266.329 60.001L267.887 66.5332C268.18 67.7563 266.848 68.7234 265.775 68.0687L260.044 64.5679C259.822 64.4325 259.567 64.3609 259.307 64.3609C259.047 64.3609 258.793 64.4325 258.571 64.5679L252.84 68.0687C251.767 68.7248 250.435 67.7577 250.728 66.5332L252.286 60.001C252.346 59.7478 252.336 59.4829 252.255 59.2354C252.174 58.9879 252.027 58.7675 251.829 58.5984L246.731 54.2294C245.775 53.4108 246.284 51.847 247.537 51.7466L254.23 51.2093C254.489 51.1887 254.738 51.0968 254.949 50.9439C255.159 50.791 255.323 50.5829 255.423 50.3426L258.002 44.1426Z" fill="#4385F4"/>
<path d="M81.1377 57.549L82.0652 49.3753H91.0788V52.0376H84.6837L84.2864 55.4946C85.0295 55.0933 85.8611 54.8843 86.7056 54.8867C88.2369 54.8867 89.4373 55.3617 90.3068 56.3119C91.1764 57.262 91.6105 58.5911 91.6105 60.2991C91.6105 61.3369 91.3899 62.2687 90.9473 63.0944C90.5133 63.9116 89.8869 64.5493 89.0697 65.006C88.2524 65.4556 87.2867 65.6804 86.1754 65.6804C85.2041 65.6804 84.302 65.4853 83.4692 65.095C82.6378 64.6977 81.9775 64.1407 81.4926 63.4266C81.0133 62.7126 80.7602 61.8982 80.7305 60.9848H83.8891C83.9556 61.655 84.1875 62.1782 84.5848 62.5528C84.9891 62.9205 85.5165 63.1057 86.1641 63.1057C86.8852 63.1057 87.4423 62.8483 87.8325 62.3323C88.2228 61.8091 88.4179 61.0725 88.4179 60.1238C88.4179 59.2104 88.1931 58.5105 87.7434 58.0255C87.2938 57.5406 86.6576 57.2959 85.8318 57.2959C85.0726 57.2959 84.4589 57.4953 83.9867 57.8926L83.677 58.1796L81.1363 57.5504L81.1377 57.549ZM94.8568 63.889C94.8568 63.3814 95.0265 62.9685 95.3644 62.6518C95.7108 62.3351 96.1406 62.1767 96.6567 62.1767C97.1798 62.1767 97.6097 62.3351 97.949 62.6518C98.12 62.8081 98.255 62.9997 98.3446 63.2133C98.4342 63.4269 98.4763 63.6575 98.4679 63.889C98.4679 64.3895 98.2982 64.7981 97.9603 65.1148C97.621 65.4245 97.1869 65.5786 96.6567 65.5786C96.1335 65.5786 95.7023 65.4245 95.3644 65.1148C95.025 64.7981 94.8568 64.3895 94.8568 63.889ZM112.873 58.8074C112.873 61.0315 112.413 62.7324 111.491 63.9102C110.57 65.088 109.223 65.6776 107.449 65.6776C105.696 65.6776 104.357 65.0993 103.428 63.9427C102.499 62.7861 102.025 61.129 102.003 58.9714V56.0107C102.003 53.7654 102.466 52.0603 103.394 50.8966C104.329 49.733 105.673 49.1519 107.426 49.1519C109.18 49.1519 110.52 49.7301 111.448 50.8853C112.375 52.0348 112.85 53.6877 112.873 55.8453V58.806V58.8074ZM109.68 55.5597C109.68 54.2264 109.496 53.2578 109.127 52.6541C108.767 52.0433 108.2 51.7379 107.426 51.7379C106.676 51.7379 106.12 52.0292 105.758 52.6103C105.405 53.1843 105.216 54.0864 105.195 55.3165V59.2273C105.195 60.538 105.372 61.5136 105.725 62.1541C106.086 62.7876 106.661 63.1043 107.449 63.1043C108.23 63.1043 108.794 62.7989 109.139 62.1881C109.484 61.5773 109.665 60.6412 109.68 59.3829V55.5611V55.5597Z" fill="black"/>
</svg>
