<svg width="293" height="69" viewBox="0 0 293 69" fill="none" xmlns="http://www.w3.org/2000/svg">
<path d="M145.222 35.5412C145.741 34.2955 147.506 34.2955 148.024 35.5412L150.792 42.1947C150.899 42.4524 151.075 42.6755 151.301 42.8396C151.527 43.0037 151.793 43.1024 152.071 43.1249L159.254 43.7015C160.6 43.8092 161.145 45.4889 160.121 46.3659L154.648 51.0545C154.436 51.236 154.278 51.4724 154.192 51.7376C154.106 52.0029 154.094 52.2868 154.159 52.5581L155.831 59.5682C156.144 60.8807 154.716 61.9186 153.564 61.2145L147.414 57.4576C147.176 57.312 146.902 57.235 146.623 57.235C146.344 57.235 146.07 57.312 145.832 57.4576L139.682 61.2145C138.53 61.9186 137.103 60.8807 137.415 59.5682L139.087 52.5581C139.152 52.2868 139.141 52.0029 139.054 51.7376C138.968 51.4724 138.811 51.236 138.599 51.0545L133.126 46.3659C132.102 45.4874 132.646 43.8092 133.992 43.7015L141.175 43.1249C141.453 43.1024 141.72 43.0037 141.946 42.8396C142.171 42.6755 142.347 42.4524 142.454 42.1947L145.222 35.5412Z" fill="#FAB231"/>
<path d="M177.206 35.5417C177.725 34.296 179.49 34.296 180.009 35.5417L182.776 42.1952C182.884 42.4529 183.06 42.676 183.285 42.8401C183.511 43.0042 183.777 43.1029 184.056 43.1254L191.239 43.702C192.585 43.8097 193.129 45.4894 192.105 46.3664L186.632 51.055C186.42 51.2365 186.263 51.4729 186.176 51.7381C186.09 52.0034 186.079 52.2873 186.143 52.5586L187.816 59.5687C188.128 60.8812 186.7 61.9191 185.549 61.215L179.399 57.4581C179.161 57.3125 178.887 57.2354 178.608 57.2354C178.328 57.2354 178.055 57.3125 177.816 57.4581L171.667 61.215C170.515 61.9191 169.087 60.8812 169.4 59.5687L171.072 52.5586C171.136 52.2873 171.125 52.0034 171.039 51.7381C170.953 51.4729 170.795 51.2365 170.583 51.055L165.11 46.3664C164.086 45.4879 164.631 43.8097 165.977 43.702L173.16 43.1254C173.438 43.1029 173.704 43.0042 173.93 42.8401C174.156 42.676 174.332 42.4529 174.439 42.1952L177.206 35.5417Z" fill="#FAB231"/>
<path d="M209.198 35.5417C209.717 34.296 211.482 34.296 212.001 35.5417L214.769 42.1952C214.876 42.4529 215.052 42.676 215.277 42.8401C215.503 43.0042 215.77 43.1029 216.048 43.1254L223.231 43.702C224.577 43.8097 225.121 45.4894 224.097 46.3664L218.624 51.055C218.412 51.2365 218.255 51.4729 218.169 51.7381C218.082 52.0034 218.071 52.2873 218.136 52.5586L219.808 59.5687C220.12 60.8812 218.692 61.9191 217.541 61.215L211.391 57.4581C211.153 57.3125 210.879 57.2354 210.6 57.2354C210.321 57.2354 210.047 57.3125 209.808 57.4581L203.659 61.215C202.507 61.9191 201.079 60.8812 201.392 59.5687L203.064 52.5586C203.129 52.2873 203.117 52.0034 203.031 51.7381C202.945 51.4729 202.787 51.2365 202.575 51.055L197.102 46.3664C196.078 45.4879 196.623 43.8097 197.969 43.702L205.152 43.1254C205.43 43.1029 205.696 43.0042 205.922 42.8401C206.148 42.676 206.324 42.4529 206.431 42.1952L209.198 35.5417Z" fill="#FAB231"/>
<path d="M241.177 35.5417C241.696 34.296 243.461 34.296 243.98 35.5417L246.747 42.1952C246.854 42.4529 247.03 42.676 247.256 42.8401C247.482 43.0042 247.748 43.1029 248.026 43.1254L255.209 43.702C256.555 43.8097 257.1 45.4894 256.076 46.3664L250.603 51.055C250.391 51.2365 250.233 51.4729 250.147 51.7381C250.061 52.0034 250.049 52.2873 250.114 52.5586L251.786 59.5687C252.099 60.8812 250.671 61.9191 249.519 61.215L243.37 57.4581C243.131 57.3125 242.857 57.2354 242.578 57.2354C242.299 57.2354 242.025 57.3125 241.787 57.4581L235.637 61.215C234.486 61.9191 233.058 60.8812 233.37 59.5687L235.042 52.5586C235.107 52.2873 235.096 52.0034 235.009 51.7381C234.923 51.4729 234.766 51.2365 234.554 51.055L229.081 46.3664C228.057 45.4879 228.601 43.8097 229.947 43.702L237.13 43.1254C237.408 43.1029 237.675 43.0042 237.901 42.8401C238.126 42.676 238.302 42.4529 238.409 42.1952L241.177 35.5417Z" fill="#FAB231"/>
<path d="M273.122 35.5417C273.641 34.296 275.406 34.296 275.925 35.5417L278.692 42.1952C278.8 42.4529 278.976 42.676 279.201 42.8401C279.427 43.0042 279.693 43.1029 279.972 43.1254L287.155 43.702C288.501 43.8097 289.045 45.4894 288.021 46.3664L282.548 51.055C282.336 51.2365 282.179 51.4729 282.092 51.7381C282.006 52.0034 281.995 52.2873 282.059 52.5586L283.732 59.5687C284.044 60.8812 282.616 61.9191 281.465 61.215L275.315 57.4581C275.077 57.3125 274.803 57.2354 274.524 57.2354C274.244 57.2354 273.971 57.3125 273.732 57.4581L267.583 61.215C266.431 61.9191 265.003 60.8812 265.316 59.5687L266.988 52.5586C267.052 52.2873 267.041 52.0034 266.955 51.7381C266.869 51.4729 266.711 51.2365 266.499 51.055L261.026 46.3664C260.002 45.4879 260.547 43.8097 261.893 43.702L269.076 43.1254C269.354 43.1029 269.62 43.0042 269.846 42.8401C270.072 42.676 270.248 42.4529 270.355 42.1952L273.122 35.5417Z" fill="#FAB231"/>
<path d="M60.7239 29.1536H58.4798V29.0383H33.418V40.1771H49.1558C46.86 46.6606 40.6906 51.3158 33.418 51.3158C24.1911 51.3158 16.7091 43.8354 16.7091 34.6069C16.7091 25.3785 24.1895 17.898 33.418 17.898C37.6771 17.898 41.5524 19.5049 44.5021 22.1299L52.3786 14.2534C47.4048 9.61794 40.7528 6.75928 33.418 6.75928C18.0398 6.75928 5.57031 19.2272 5.57031 34.6069C5.57031 49.9866 18.0398 62.4546 33.418 62.4546C48.7962 62.4546 61.2656 49.9866 61.2656 34.6069C61.2656 32.7391 61.0729 30.9168 60.7239 29.1536Z" fill="#FFC107"/>
<path d="M8.7793 21.6463L17.9288 28.3559C20.4036 22.2274 26.4001 17.9 33.4163 17.9C37.6754 17.9 41.5507 19.5068 44.5004 22.1318L52.3769 14.2553C47.4031 9.61989 40.7511 6.76123 33.4163 6.76123C22.7206 6.76123 13.4436 12.8002 8.7793 21.6463Z" fill="#FF3D00"/>
<path d="M33.4172 62.455C40.6109 62.455 47.146 59.7026 52.088 55.2264L43.4695 47.9341C40.5799 50.1317 37.049 51.3203 33.4187 51.3178C26.1749 51.3178 20.0252 46.699 17.7082 40.2549L8.62695 47.2513C13.2351 56.2704 22.5955 62.4581 33.4187 62.4581L33.4172 62.455Z" fill="#4CAF50"/>
<path d="M60.7166 29.1522H58.4739V29.0369H33.4121V40.1756H49.1499C48.0516 43.2615 46.0735 45.958 43.4599 47.9322L43.4645 47.9292L52.0829 55.223C51.4729 55.7769 61.2598 48.5301 61.2598 34.607C61.2577 32.7759 61.0763 30.9494 60.7181 29.1537L60.7166 29.1522Z" fill="#1976D2"/>
<path d="M93.2324 20.1949C92.6725 20.8656 91.8805 21.3875 90.8578 21.7608C89.8351 22.134 88.7002 22.3101 87.4559 22.3101C86.1495 22.3101 85.0009 22.0263 84.0116 21.4588C83.0223 20.8914 82.2697 20.0553 81.7295 18.9689C81.1893 17.8825 80.9238 16.6079 80.9102 15.1422V14.1149C80.9102 12.6082 81.162 11.3033 81.6673 10.2048C82.1726 9.10621 82.9115 8.25498 83.8659 7.67385C84.8203 7.09271 85.9507 6.79227 87.2374 6.79227C89.0279 6.79227 90.4284 7.22168 91.4389 8.07897C92.4495 8.93627 93.0473 10.1714 93.234 11.8025H90.2054C90.0673 10.9376 89.7593 10.3049 89.2828 9.90433C88.8064 9.50375 88.163 9.30346 87.333 9.30346C86.2755 9.30346 85.4697 9.701 84.9159 10.4961C84.3621 11.2912 84.0829 12.4732 84.0753 14.0436V15.0086C84.0753 16.5927 84.3757 17.7884 84.9781 18.5971C85.5805 19.4059 86.4606 19.811 87.6228 19.811C88.7851 19.811 89.6242 19.5622 90.1219 19.0645V16.4607H87.2905V14.1696H93.234V20.1964L93.2324 20.1949ZM95.9485 16.3879C95.9485 15.2742 96.1624 14.2818 96.5918 13.4109C96.9939 12.569 97.6365 11.8651 98.4384 11.3883C99.2472 10.9118 100.185 10.6721 101.249 10.6721C102.763 10.6721 103.998 11.1349 104.952 12.062C105.907 12.9891 106.45 14.2469 106.561 15.8371L106.582 16.6049C106.582 18.3271 106.101 19.7093 105.14 20.7533C104.18 21.7972 102.89 22.3085 101.271 22.3085C99.6523 22.3085 98.3595 21.7896 97.3914 20.7533C96.4234 19.7169 95.95 18.3058 95.95 16.5214V16.3894L95.9485 16.3879ZM98.9467 16.6049C98.9467 17.67 99.147 18.4864 99.5491 19.0523C99.9512 19.6183 100.523 19.8929 101.271 19.8929C101.998 19.8929 102.564 19.6168 102.972 19.063C103.38 18.5091 103.584 17.6109 103.584 16.3864C103.584 15.3425 103.38 14.5337 102.972 13.9586C102.782 13.6811 102.523 13.4566 102.222 13.3061C101.921 13.1556 101.586 13.0841 101.25 13.0983C100.517 13.0983 99.9497 13.3851 99.5491 13.9586C99.1485 14.5322 98.9467 15.4077 98.9467 16.6034V16.6049ZM108.809 16.3879C108.809 15.2742 109.023 14.2818 109.453 13.4109C109.855 12.569 110.497 11.8651 111.299 11.3883C112.108 10.9118 113.046 10.6721 114.111 10.6721C115.625 10.6721 116.859 11.1349 117.813 12.062C118.768 12.9891 119.311 14.2469 119.422 15.8371L119.443 16.6049C119.443 18.3271 118.962 19.7093 118.001 20.7533C117.041 21.7972 115.751 22.3085 114.132 22.3085C112.513 22.3085 111.22 21.7896 110.252 20.7533C109.284 19.7169 108.811 18.3058 108.811 16.5214V16.3894L108.809 16.3879ZM111.808 16.6049C111.808 17.67 112.008 18.4864 112.41 19.0523C112.812 19.6183 113.384 19.8929 114.132 19.8929C114.859 19.8929 115.425 19.6168 115.833 19.063C116.241 18.5091 116.445 17.6109 116.445 16.3864C116.445 15.3425 116.241 14.5337 115.833 13.9586C115.642 13.6811 115.384 13.4566 115.083 13.3061C114.782 13.1556 114.447 13.0841 114.111 13.0983C113.378 13.0983 112.811 13.3851 112.41 13.9586C112.009 14.5322 111.808 15.4077 111.808 16.6034V16.6049ZM121.702 16.4076C121.702 14.6855 122.11 13.3001 122.927 12.2486C123.743 11.1971 124.855 10.6721 126.247 10.6721C127.477 10.6721 128.435 11.0939 129.12 11.9376L129.245 10.88H131.962V21.7289C131.962 22.7106 131.738 23.5649 131.289 24.2902C130.843 25.019 130.19 25.5973 129.412 25.9501C128.603 26.331 127.656 26.5207 126.57 26.5207C125.742 26.5197 124.923 26.3504 124.163 26.023C123.382 25.6983 122.79 25.2765 122.39 24.7575L123.717 22.9322C124.464 23.7697 125.37 24.187 126.435 24.187C127.23 24.187 127.849 23.9731 128.292 23.5437C128.735 23.1142 128.957 22.5195 128.957 21.738V21.1372C128.265 21.9186 127.356 22.3085 126.228 22.3085C124.879 22.3085 123.787 21.7835 122.951 20.732C122.115 19.6805 121.707 18.2739 121.707 16.532V16.4076H121.702ZM124.7 16.6261C124.7 17.6427 124.904 18.4409 125.312 19.022C125.72 19.6031 126.28 19.8823 126.992 19.8823C127.905 19.8823 128.558 19.5394 128.952 18.8551V14.1362C128.551 13.4519 127.905 13.1089 127.013 13.1089C126.678 13.0993 126.346 13.1751 126.048 13.3294C125.751 13.4836 125.497 13.7111 125.312 13.9905C124.904 14.5777 124.7 15.4563 124.7 16.6246V16.6261ZM138.288 22.1022H135.281V6.17017H138.288V22.1022ZM146.782 22.3101C145.136 22.3101 143.795 21.8048 142.758 20.7958C141.722 19.7867 141.212 18.4409 141.212 16.7612V16.4714C141.212 15.344 141.431 14.338 141.866 13.4534C142.302 12.5688 142.918 11.8769 143.713 11.3989C144.508 10.9209 145.427 10.6721 146.451 10.6721C147.987 10.6721 149.193 11.1561 150.072 12.1242C150.95 13.0922 151.399 14.4654 151.399 16.2422V17.4667H144.253C144.35 18.1996 144.64 18.7868 145.124 19.2299C145.608 19.6729 146.233 19.8945 146.981 19.8945C148.136 19.8945 149.039 19.4757 149.688 18.6396L151.161 20.289C150.695 20.9389 150.065 21.4539 149.336 21.782C148.568 22.1416 147.718 22.3116 146.784 22.3116L146.782 22.3101ZM146.439 13.0998C145.845 13.0998 145.36 13.3001 144.987 13.7007C144.614 14.1013 144.385 14.6763 144.282 15.4229H148.451V15.1847C148.438 14.5201 148.257 14.0087 147.911 13.6491C147.565 13.2895 147.075 13.0998 146.438 13.0998H146.439ZM166.404 13.6916C166.047 13.6399 165.687 13.612 165.326 13.6081C164.192 13.6081 163.449 13.992 163.095 14.7598V22.1037H160.098V10.8815H162.93L163.013 12.2198C163.614 11.1895 164.447 10.6736 165.512 10.6736C165.845 10.6736 166.156 10.7191 166.445 10.8087L166.404 13.6916ZM174.898 22.1037C174.76 21.8336 174.66 21.4983 174.598 21.0977C173.871 21.9064 172.927 22.3116 171.767 22.3116C170.667 22.3116 169.753 21.9929 169.028 21.3572C168.303 20.7214 167.949 19.9187 167.949 18.9507C167.949 17.7611 168.388 16.8492 169.266 16.2119C170.145 15.5746 171.427 15.2545 173.094 15.2469H174.474V14.6035C174.474 14.0846 174.339 13.6704 174.068 13.3593C173.798 13.0482 173.387 12.892 172.814 12.892C172.308 12.892 171.911 13.0133 171.621 13.2546C171.331 13.4959 171.196 13.8282 171.196 14.25H168.198C168.198 13.5992 168.409 12.9661 168.8 12.4459C169.201 11.892 169.768 11.4611 170.501 11.1501C171.234 10.839 172.056 10.6736 172.97 10.6736C174.352 10.6736 175.448 11.0226 176.258 11.7206C177.068 12.4186 177.481 13.3866 177.481 14.646V19.5106C177.489 20.5757 177.637 21.3815 177.927 21.9277V22.1037H174.898ZM172.419 20.0189C172.862 20.0189 173.27 19.9218 173.644 19.7291C174.017 19.5364 174.293 19.2617 174.474 18.931V17.0024H173.354C171.853 17.0024 171.054 17.5213 170.956 18.5577L170.947 18.7337C170.942 18.9067 170.975 19.0788 171.043 19.238C171.111 19.3973 171.212 19.54 171.34 19.6562C171.604 19.8975 171.964 20.0189 172.419 20.0189ZM184.222 8.12146V10.8815H186.142V13.0801H184.222V18.6806C184.222 19.0948 184.301 19.3922 184.461 19.5728C184.62 19.7534 184.925 19.8429 185.374 19.8429C185.67 19.8459 185.965 19.8215 186.256 19.77V22.0415C185.668 22.2212 185.056 22.3122 184.441 22.3116C182.338 22.3116 181.267 21.2494 181.224 19.1267V13.0801H179.586V10.8815H181.224V8.12146H184.222ZM191.824 22.1037H188.817V10.8815H191.824V22.1052V22.1037ZM188.641 7.97579C188.641 7.52666 188.79 7.15643 189.087 6.86662C189.384 6.57681 189.802 6.43115 190.321 6.43115C190.84 6.43115 191.24 6.57681 191.545 6.86662C191.85 7.15643 192 7.52666 192 7.97579C192.007 8.18483 191.968 8.39281 191.888 8.5859C191.808 8.77899 191.687 8.95274 191.535 9.09559C191.223 9.3854 190.826 9.53106 190.321 9.53106C189.815 9.53106 189.407 9.3854 189.096 9.09559C188.785 8.80578 188.641 8.43251 188.641 7.97579ZM197.912 10.88L198.006 12.1758C198.809 11.1728 199.883 10.6721 201.232 10.6721C202.421 10.6721 203.306 11.0211 203.887 11.7191C204.468 12.417 204.766 13.461 204.779 14.8508V22.1007H201.781V14.9267C201.781 14.2909 201.643 13.8312 201.367 13.5474C201.091 13.2637 200.629 13.112 199.988 13.112C199.144 13.112 198.511 13.4716 198.089 14.1908V22.1052H195.091V10.8815H197.912V10.88ZM207.476 16.4091C207.476 14.687 207.882 13.3016 208.699 12.2501C209.515 11.1986 210.629 10.6736 212.019 10.6736C213.249 10.6736 214.207 11.0954 214.891 11.9391L215.015 10.8815H217.733V21.7304C217.733 22.7122 217.508 23.5664 217.059 24.2917C216.612 25.0187 215.958 25.5965 215.182 25.9517C214.373 26.3325 213.425 26.5222 212.34 26.5222C211.516 26.5222 210.715 26.3568 209.934 26.0245C209.152 25.6922 208.561 25.278 208.16 24.759L209.488 22.9337C210.234 23.7713 211.14 24.1885 212.205 24.1885C213 24.1885 213.619 23.9746 214.061 23.5452C214.502 23.1158 214.725 22.521 214.725 21.7395V21.1387C214.034 21.9201 213.125 22.3101 211.997 22.3101C210.648 22.3101 209.556 21.7851 208.72 20.7335C207.884 19.682 207.476 18.2755 207.476 16.5336V16.4091ZM210.472 16.6276C210.472 17.6443 210.677 18.4424 211.085 19.0235C211.494 19.6047 212.053 19.8838 212.765 19.8838C213.677 19.8838 214.331 19.5409 214.725 18.8566V14.1377C214.325 13.4534 213.677 13.1105 212.786 13.1105C212.451 13.1008 212.119 13.1766 211.822 13.3309C211.524 13.4851 211.271 13.7127 211.085 13.992C210.677 14.5792 210.472 15.4578 210.472 16.6261V16.6276ZM92.9502 51.9239H94.9061V54.6854H92.9502V58.4196H89.5241V54.6854H82.4472L82.2924 52.5278L89.4877 41.1599H92.9487V51.9239H92.9502ZM85.708 51.9239H89.5256V45.8303L89.301 46.2217L85.7095 51.9239H85.708ZM98.0469 56.7369C98.0469 56.1922 98.229 55.7491 98.5917 55.4092C98.9634 55.0693 99.4247 54.8994 99.9785 54.8994C100.54 54.8994 101.001 55.0693 101.365 55.4092C101.549 55.5769 101.694 55.7825 101.79 56.0118C101.886 56.241 101.931 56.4884 101.922 56.7369C101.922 57.274 101.74 57.7125 101.377 58.0524C101.015 58.3923 100.548 58.5501 99.9785 58.5501C99.4095 58.5501 98.9543 58.3847 98.5917 58.0524C98.4119 57.885 98.2703 57.6808 98.1763 57.4539C98.0823 57.2269 98.0382 56.9824 98.0469 56.7369ZM113.777 51.5218C112.885 52.3988 111.841 52.8373 110.648 52.8373C109.123 52.8373 107.902 52.3154 106.986 51.273C106.069 50.2214 105.611 48.8073 105.611 47.029C105.611 45.8986 105.855 44.8637 106.345 43.923C106.843 42.9746 107.535 42.2403 108.419 41.7183C109.323 41.1839 110.357 40.9093 111.407 40.9247C112.545 40.9247 113.557 41.2085 114.442 41.7775C115.326 42.3465 116.015 43.1643 116.504 44.231C116.992 45.2977 117.243 46.5191 117.25 47.8938V49.1623C117.25 52.0392 116.536 54.3 115.105 55.9433C113.674 57.5866 111.647 58.4636 109.023 58.5744L108.181 58.5865V55.7294L108.94 55.7172C111.918 55.5822 113.531 54.1832 113.777 51.5203V51.5218ZM111.489 50.2184C112.043 50.2184 112.516 50.0758 112.912 49.792C113.316 49.5083 113.619 49.1639 113.826 48.7602V47.3491C113.826 46.1868 113.604 45.2871 113.163 44.6468C112.721 44.0064 112.128 43.6863 111.384 43.6863C110.697 43.6863 110.131 44.0019 109.689 44.6346C109.246 45.2582 109.026 46.0457 109.026 46.9941C109.026 47.9424 109.24 48.7087 109.667 49.3171C110.101 49.918 110.711 50.2184 111.492 50.2184H111.489Z" fill="black"/>
</svg>
