<svg width="228" height="69" viewBox="0 0 228 69" fill="none" xmlns="http://www.w3.org/2000/svg">
<g clip-path="url(#clip0_3120_1741)">
<path d="M45.5102 49.2032C42.1986 52.1802 37.897 53.8411 33.259 53.8411C22.6688 53.8411 15.0436 46.2279 15.0436 35.3031C15.0436 24.3783 22.6569 17.0877 33.259 17.0877C37.897 17.0877 42.1986 18.414 45.5102 21.7256L47.8283 23.7091L57.7614 13.7761L55.4432 11.458C49.1564 6.16285 41.5312 2.85126 33.259 2.85126C14.3847 2.51669 0.472656 16.0942 0.472656 35.2911C0.472656 53.8292 14.7074 68.0758 33.2573 68.0758C41.8623 68.0758 49.8118 65.0988 56.1107 59.4708L58.4288 57.1527L47.8386 46.5625L45.5085 49.2049L45.5102 49.2032Z" fill="black"/>
<path d="M32.5889 46.552C35.4863 46.552 38.2651 45.401 40.3139 43.3522C42.3627 41.3034 43.5137 38.5246 43.5137 35.6272C43.5137 32.7297 42.3627 29.951 40.3139 27.9022C38.2651 25.8534 35.4863 24.7024 32.5889 24.7024C29.6914 24.7024 26.9127 25.8534 24.8639 27.9022C22.8151 29.951 21.6641 32.7297 21.6641 35.6272C21.6641 38.5246 22.8151 41.3034 24.8639 43.3522C26.9127 45.401 29.6914 46.552 32.5889 46.552ZM85.2277 4.43854C85.8115 3.03709 87.7967 3.03709 88.3805 4.43854L90.7584 10.1553C90.8789 10.4452 91.0769 10.6962 91.3308 10.8808C91.5847 11.0654 91.8845 11.1764 92.1974 11.2017L98.3682 11.6967C99.8823 11.8179 100.495 13.7076 99.3429 14.6942L94.6418 18.721C94.4033 18.9254 94.2257 19.1916 94.1288 19.4904C94.0318 19.7891 94.0191 20.1089 94.0922 20.4144L95.5278 26.4367C95.8794 27.9132 94.2731 29.0808 92.9775 28.2888L87.6943 25.0625C87.4265 24.8991 87.1188 24.8126 86.805 24.8126C86.4912 24.8126 86.1835 24.8991 85.9156 25.0625L80.6325 28.2888C79.3368 29.0808 77.7306 27.9132 78.0822 26.4367L79.5178 20.4144C79.5908 20.1089 79.5782 19.7891 79.4812 19.4904C79.3842 19.1916 79.2067 18.9254 78.9681 18.721L74.2671 14.6942C73.1131 13.7059 73.7276 11.8179 75.2417 11.6967L81.4126 11.2017C81.7254 11.1764 82.0253 11.0654 82.2792 10.8808C82.533 10.6962 82.7311 10.4452 82.8516 10.1553L85.2277 4.43854ZM116.008 4.43854C116.592 3.03709 118.577 3.03709 119.161 4.43854L121.539 10.1553C121.66 10.4452 121.858 10.6962 122.111 10.8808C122.365 11.0654 122.665 11.1764 122.978 11.2017L129.149 11.6967C130.663 11.8179 131.276 13.7076 130.124 14.6942L125.423 18.721C125.184 18.9254 125.006 19.1916 124.909 19.4904C124.812 19.7891 124.8 20.1089 124.873 20.4144L126.308 26.4367C126.66 27.9132 125.054 29.0808 123.758 28.2888L118.475 25.0625C118.207 24.8987 117.899 24.812 117.585 24.812C117.271 24.812 116.963 24.8987 116.695 25.0625L111.411 28.2888C110.116 29.0808 108.51 27.9132 108.861 26.4367L110.298 20.4144C110.372 20.1089 110.359 19.7891 110.262 19.4904C110.165 19.1916 109.987 18.9254 109.749 18.721L105.048 14.6942C103.895 13.7059 104.508 11.8179 106.022 11.6967L112.193 11.2017C112.506 11.1764 112.806 11.0654 113.06 10.8808C113.314 10.6962 113.512 10.4452 113.632 10.1553L116.008 4.43854ZM146.789 4.43854C147.373 3.03709 149.358 3.03709 149.942 4.43854L152.32 10.1553C152.44 10.4452 152.638 10.6962 152.892 10.8808C153.146 11.0654 153.446 11.1764 153.759 11.2017L159.93 11.6967C161.444 11.8179 162.056 13.7076 160.904 14.6942L156.203 18.721C155.965 18.9254 155.787 19.1916 155.69 19.4904C155.593 19.7891 155.58 20.1089 155.654 20.4144L157.091 26.4367C157.442 27.9132 155.836 29.0808 154.541 28.2888L149.257 25.0625C148.99 24.8991 148.682 24.8126 148.368 24.8126C148.054 24.8126 147.747 24.8991 147.479 25.0625L142.196 28.2888C140.9 29.0808 139.294 27.9132 139.645 26.4367L141.081 20.4144C141.154 20.1089 141.141 19.7891 141.044 19.4904C140.947 19.1916 140.77 18.9254 140.531 18.721L135.83 14.6942C134.678 13.7059 135.291 11.8179 136.805 11.6967L142.976 11.2017C143.288 11.1764 143.588 11.0654 143.842 10.8808C144.096 10.6962 144.294 10.4452 144.415 10.1553L146.789 4.43854ZM177.57 4.43854C178.154 3.03709 180.139 3.03709 180.723 4.43854L183.1 10.1553C183.221 10.4452 183.419 10.6962 183.673 10.8808C183.927 11.0654 184.227 11.1764 184.539 11.2017L190.71 11.6967C192.224 11.8179 192.837 13.7076 191.685 14.6942L186.984 18.721C186.745 18.9252 186.567 19.1913 186.47 19.4901C186.373 19.7889 186.36 20.1087 186.432 20.4144L187.87 26.4367C188.221 27.9132 186.615 29.0808 185.319 28.2888L180.036 25.0625C179.768 24.8987 179.46 24.812 179.146 24.812C178.832 24.812 178.524 24.8987 178.256 25.0625L172.974 28.2888C171.677 29.0808 170.071 27.9132 170.424 26.4367L171.86 20.4144C171.933 20.1089 171.92 19.7891 171.823 19.4904C171.726 19.1916 171.549 18.9254 171.31 18.721L166.609 14.6942C165.455 13.7059 166.07 11.8179 167.584 11.6967L173.755 11.2017C174.068 11.1767 174.368 11.0658 174.622 10.8812C174.876 10.6966 175.075 10.4454 175.195 10.1553L177.571 4.43854H177.57ZM208.352 4.43854C208.934 3.03709 210.921 3.03709 211.503 4.43854L213.881 10.1553C214.002 10.4452 214.2 10.6962 214.453 10.8808C214.707 11.0654 215.007 11.1764 215.32 11.2017L221.491 11.6967C223.005 11.8179 223.62 13.7076 222.466 14.6942L217.764 18.721C217.526 18.9254 217.348 19.1916 217.251 19.4904C217.154 19.7891 217.142 20.1089 217.215 20.4144L218.65 26.4367C219.004 27.9132 217.396 29.0808 216.1 28.2888L210.817 25.0625C210.549 24.8991 210.241 24.8126 209.928 24.8126C209.614 24.8126 209.306 24.8991 209.038 25.0625L203.755 28.2888C202.46 29.0808 200.852 27.9132 201.205 26.4367L202.64 20.4144C202.714 20.1089 202.701 19.7891 202.604 19.4904C202.507 19.1916 202.329 18.9254 202.091 18.721L197.39 14.6942C196.236 13.7059 196.85 11.8179 198.364 11.6967L204.535 11.2017C204.848 11.1764 205.148 11.0654 205.402 10.8808C205.656 10.6962 205.854 10.4452 205.974 10.1553L208.352 4.43854Z" fill="#FF3D2E"/>
<path d="M83.0154 62.9571H80.9158V49.5725C80.4105 50.0556 79.7448 50.5369 78.9203 51.02C78.0958 51.5031 77.3686 51.865 76.7148 52.1057V50.0761C77.8893 49.523 78.9169 48.8555 79.796 48.0686C80.6751 47.2817 81.2981 46.5204 81.6634 45.7812H83.0171V62.9571H83.0154ZM95.0224 62.9571H92.9228V49.5725C92.4176 50.0556 91.7518 50.5369 90.9273 51.02C90.1029 51.5031 89.3757 51.865 88.7219 52.1057V50.0761C89.8963 49.523 90.9239 48.8555 91.803 48.0686C92.6821 47.2817 93.3052 46.5204 93.6705 45.7812H95.0242V62.9571H95.0224ZM108.907 62.9571V45.8495H116.491C118.016 45.8495 119.175 46.0049 119.969 46.3155C120.762 46.6262 121.396 47.1605 121.87 47.9372C122.345 48.7139 122.582 49.5742 122.582 50.5165C122.582 51.7301 122.189 52.7526 121.404 53.5857C120.619 54.4187 119.405 54.9478 117.763 55.1732C118.362 55.4616 118.816 55.745 119.129 56.025C119.789 56.6309 120.416 57.3906 121.008 58.3004L123.983 62.9571H121.136L118.873 59.398L117.239 57.0406C116.811 56.4961 116.427 56.1154 116.083 55.8969C115.769 55.6878 115.422 55.5337 115.056 55.4412C114.8 55.3865 114.38 55.3592 113.796 55.3592H111.171V62.9554H108.907V62.9571ZM111.171 53.3996H116.037C117.072 53.3996 117.881 53.2955 118.465 53.0855C119.049 52.8755 119.492 52.5256 119.794 52.0579C120.097 51.5902 120.25 51.0695 120.25 50.5182C120.25 49.709 119.955 49.0433 119.364 48.5227C118.774 48.002 117.855 47.7409 116.587 47.7409H111.172V53.3996H111.171ZM126.667 62.9571V45.8495H139.036V47.8689H128.93V53.1077H138.394V55.1151H128.93V60.9377H139.432V62.9571H126.667ZM147.928 62.9571L141.299 45.8512H143.751L148.197 58.2782L149.095 61.0794L150.017 58.2782L154.638 45.8512H156.947L150.249 62.9571H147.928ZM159.841 62.9571V45.8495H162.104V62.9554H159.841V62.9571ZM166.631 62.9571V45.8495H179V47.8689H168.896V53.1077H178.358V55.1151H168.896V60.9377H179.4V62.9571H166.633H166.631ZM185.99 62.9571L181.451 45.8512H183.773L186.374 57.0645L187.098 60.5656L187.868 57.4042L191.125 45.8512H193.854L196.306 54.5091C196.885 56.4956 197.33 58.519 197.635 60.5656L198.487 56.8426L201.171 45.8512H203.446L198.755 62.9571H196.574L192.969 49.9224L192.431 47.915L191.929 49.9224L188.3 62.9571H185.99ZM205.278 57.4605L207.413 57.2745C207.516 58.1297 207.748 58.8347 208.115 59.386C208.482 59.9374 209.062 60.3744 209.841 60.7158C210.619 61.0572 211.495 61.2177 212.466 61.2177C213.33 61.2177 214.093 61.0896 214.753 60.8319C215.414 60.5741 215.906 60.2259 216.223 59.7821C216.551 59.3314 216.715 58.8415 216.715 58.3123C216.715 57.7832 216.558 57.3086 216.247 56.9126C215.936 56.5166 215.422 56.17 214.707 55.8969C214.248 55.7177 213.232 55.4412 211.662 55.069C210.091 54.6969 208.989 54.3299 208.359 53.9953C207.543 53.5669 206.932 53.0377 206.527 52.4078C206.123 51.7779 205.932 51.0576 205.932 50.2724C205.931 49.4119 206.187 48.5708 206.667 47.8569C207.157 47.1025 207.872 46.5306 208.815 46.1414C209.757 45.7522 210.802 45.5576 211.954 45.5576C213.22 45.5576 214.337 45.7642 215.301 46.1756C216.266 46.5869 217.022 47.1793 217.543 47.973C218.063 48.7668 218.343 49.6647 218.382 50.6684L216.213 50.8323C216.095 49.7517 215.699 48.9341 215.021 48.381C214.344 47.8279 213.36 47.5531 212.046 47.5531C210.677 47.5531 209.678 47.8057 209.047 48.311C208.425 48.8095 208.115 49.412 208.115 50.1204C208.115 50.735 208.335 51.2402 208.779 51.638C209.214 52.034 210.351 52.4437 212.186 52.8636C214.021 53.2835 215.294 53.6369 215.979 53.9492C216.974 54.4084 217.71 54.9922 218.184 55.6989C218.659 56.4056 218.896 57.2079 218.896 58.1263C218.896 59.0446 218.635 59.8964 218.114 60.7056C217.594 61.5147 216.843 62.1326 215.863 62.585C214.883 63.0373 213.792 63.2507 212.572 63.2507C211.023 63.2507 209.724 63.0254 208.675 62.573C207.625 62.1207 206.811 61.4447 206.211 60.5434C205.612 59.6421 205.31 58.6059 205.278 57.4623V57.4605Z" fill="black"/>
</g>
<defs>
<clipPath id="clip0_3120_1741">
<rect width="227.031" height="68.2801" fill="white"/>
</clipPath>
</defs>
</svg>
