<svg width="196" height="69" viewBox="0 0 196 69" fill="none" xmlns="http://www.w3.org/2000/svg">
<path d="M14.1088 45.7386C14.113 45.8643 14.0921 45.9895 14.0473 46.107C14.0025 46.2245 13.9348 46.3319 13.8481 46.423C13.6743 46.5968 13.381 46.6837 12.9682 46.6837H8.07997L7.36303 50.7681C8.10133 50.6025 8.85501 50.5152 9.61161 50.5074C10.4232 50.5074 11.1355 50.6269 11.7516 50.8658C12.3676 51.1048 12.8953 51.4338 13.3158 51.8544C13.7363 52.275 14.0589 52.7831 14.2609 53.3425C14.4781 53.9152 14.5868 54.5374 14.5868 55.2109C14.5981 55.9789 14.4502 56.7408 14.1522 57.4487C13.8755 58.0964 13.4688 58.6806 12.9573 59.165C12.4577 59.6352 11.868 59.9983 11.1867 60.2513C10.4804 60.5092 9.73347 60.638 8.98157 60.6314C8.53958 60.633 8.09876 60.5857 7.66718 60.4902C7.24664 60.4033 6.85558 60.2838 6.49401 60.1318C6.13243 59.9797 5.79569 59.8059 5.48377 59.6103C5.17186 59.4148 4.89718 59.2084 4.6582 58.9912L5.24479 58.1656C5.30017 58.0777 5.37722 58.0056 5.46854 57.9562C5.55985 57.9067 5.66236 57.8816 5.7662 57.8832C5.90431 57.8832 6.0626 57.9406 6.24416 58.057L6.91765 58.4263C7.21099 58.5776 7.51616 58.7047 7.83012 58.8065C8.18549 58.9151 8.60448 58.9694 9.0902 58.9694C9.63334 58.9694 10.1222 58.8825 10.5567 58.7087C10.9751 58.5456 11.3531 58.2936 11.6647 57.9701C11.9766 57.6442 12.2156 57.2562 12.3816 56.8078C12.5542 56.3234 12.6388 55.812 12.6315 55.2978C12.6315 54.8121 12.5585 54.3745 12.4142 53.9834C12.284 53.6037 12.0641 53.2609 11.7733 52.9841C11.4692 52.6957 11.1059 52.477 10.7088 52.3432C10.2257 52.1823 9.71872 52.1052 9.20969 52.1151C8.81863 52.1151 8.41361 52.1476 7.99307 52.2128C7.55094 52.2833 7.11508 52.3887 6.68954 52.5278L5.47291 52.1694L6.73299 44.8913H14.1088V45.7386ZM17.0433 59.2627C17.0433 59.075 17.0759 58.8965 17.141 58.7305C17.2062 58.5644 17.3071 58.4186 17.4235 58.296C17.5485 58.1716 17.6959 58.0721 17.858 58.0027C18.026 57.9299 18.2072 57.8929 18.3903 57.894C18.5733 57.8929 18.7546 57.9299 18.9225 58.0027C19.0846 58.0721 19.232 58.1716 19.357 58.296C19.4796 58.4186 19.5743 58.5644 19.6395 58.7305C19.7122 58.8984 19.7492 59.0797 19.7481 59.2627C19.7481 59.4583 19.7124 59.6398 19.6395 59.8059C19.5665 59.9719 19.4796 60.1069 19.357 60.2295C19.2345 60.3521 19.0886 60.4468 18.9225 60.512C18.7546 60.5847 18.5733 60.6217 18.3903 60.6206C18.2072 60.6217 18.026 60.5847 17.858 60.512C17.6919 60.4468 17.5461 60.3521 17.4235 60.2295C17.3009 60.1069 17.214 59.9657 17.141 59.8059C17.0746 59.6326 17.0414 59.4483 17.0433 59.2627ZM32.6406 52.6799C32.6406 54.0409 32.4917 55.2218 32.1953 56.2212C31.8989 57.2205 31.5078 58.0353 31.0004 58.687C30.5269 59.3119 29.9078 59.8116 29.1971 60.1426C28.5097 60.4607 27.771 60.6206 26.9811 60.6206C26.1913 60.6206 25.4417 60.4607 24.7543 60.1426C24.0668 59.8245 23.4802 59.3388 22.9728 58.687C22.4653 58.0353 22.0681 57.2128 21.7779 56.2212C21.4877 55.2296 21.3434 54.0409 21.3434 52.6799C21.3434 51.319 21.4877 50.138 21.7779 49.1387C22.0681 48.1393 22.4653 47.3137 22.9728 46.662C23.4802 46.0102 24.073 45.5136 24.7543 45.1955C25.4355 44.8774 26.1851 44.7175 26.9811 44.7175C27.7772 44.7175 28.5097 44.8774 29.1971 45.1955C29.8846 45.5136 30.4929 46.0024 31.0004 46.662C31.5078 47.3215 31.9051 48.1393 32.1953 49.1387C32.4854 50.138 32.6406 51.319 32.6406 52.6799ZM30.631 52.6799C30.631 51.4928 30.5301 50.4965 30.3269 49.6927C30.1236 48.8888 29.8629 48.2293 29.523 47.7374C29.1832 47.2454 28.803 46.8932 28.3607 46.6837C27.9323 46.4698 27.46 46.3584 26.9811 46.3584C26.5023 46.3584 26.03 46.4698 25.6016 46.6837C25.1593 46.8932 24.7729 47.2454 24.4393 47.7374C24.1056 48.2293 23.8387 48.8811 23.6354 49.6927C23.4321 50.5043 23.3421 51.4928 23.3421 52.6799C23.3421 53.8671 23.4399 54.8633 23.6354 55.6672C23.8309 56.471 24.1056 57.1197 24.4393 57.6116C24.7729 58.1035 25.1593 58.4589 25.6016 58.6762C26.0438 58.8934 26.5032 58.9912 26.9811 58.9912C27.4591 58.9912 27.9184 58.8856 28.3607 58.6762C28.803 58.4667 29.1894 58.1035 29.523 57.6116C29.8567 57.1197 30.1313 56.471 30.3269 55.6672C30.5224 54.8633 30.631 53.8671 30.631 52.6799Z" fill="black"/>
<path d="M20.6479 8.49377H16.264C15.9986 8.49377 15.7984 8.6924 15.7984 8.95932V11.2824C14.6687 9.49004 12.4108 8.02822 9.3537 8.02822C4.43753 8.02822 0.185547 11.7479 0.185547 18.323C0.185547 24.8981 4.2389 28.5557 9.55233 28.5557C12.4092 28.5557 14.6671 27.3592 15.9303 25.4986V26.7618C15.9303 29.6171 14.5352 31.8766 10.0846 31.8766C7.82516 31.8766 6.03125 31.1457 4.50426 29.7506C4.30408 29.552 3.97199 29.6187 3.84008 29.8173L1.84755 33.1413C1.58063 33.5386 1.64736 33.8055 1.78082 33.9374C3.84008 35.7313 6.43007 36.7959 10.2848 36.7959C18.6569 36.7959 21.1134 32.1451 21.1134 27.0303V8.89104C21.1134 8.6924 20.9148 8.49377 20.6479 8.49377ZM10.8155 23.7714C7.82516 23.7714 5.63399 21.6454 5.63399 18.458C5.63399 15.2706 7.82671 13.1415 10.8155 13.1415C13.8043 13.1415 15.997 15.2007 15.997 18.458C15.997 21.7153 13.8059 23.7714 10.8155 23.7714ZM30.6788 1.05124V27.9583C30.6788 28.2221 30.4802 28.4238 30.2148 28.4238H25.8294C25.5656 28.4238 25.3654 28.2236 25.3654 27.9583V1.05124C25.3654 0.78743 25.5656 0.585693 25.8294 0.585693H30.2148C30.4802 0.585693 30.6788 0.785878 30.6788 1.05124ZM43.7001 8.0934C39.5149 8.0934 36.3911 9.48849 34.9975 12.2119C34.9308 12.4106 34.9975 12.6775 35.1294 12.7427L38.3184 15.0021C38.5186 15.134 38.784 15.0673 38.9159 14.8686C39.7802 13.2749 41.7743 12.7427 43.7001 12.7427C46.0248 12.7427 47.1545 13.607 47.1545 14.7352V15.0673C47.1545 15.5328 46.8876 15.7997 46.0915 15.8649L40.6431 16.3305C36.9916 16.6626 34.2666 18.9205 34.2666 22.575C34.2666 26.2295 37.0568 28.7528 40.9767 28.7528C44.099 28.7528 46.093 27.2242 47.0878 25.6305V27.8884C47.0878 28.1553 47.2879 28.354 47.5533 28.354H51.9388C52.0003 28.3559 52.0617 28.3452 52.119 28.3225C52.1762 28.2997 52.2282 28.2655 52.2717 28.2219C52.3152 28.1782 52.3493 28.1261 52.3718 28.0687C52.3944 28.0114 52.4049 27.95 52.4027 27.8884V16.0651C52.4027 10.6151 49.4807 8.09185 43.7017 8.09185L43.7001 8.0934ZM47.1545 20.3838C47.1545 22.5765 45.3606 24.5023 42.5689 24.5023C40.7082 24.5023 39.7787 23.638 39.7787 22.3764C39.7787 21.2482 40.6415 20.449 42.2368 20.1852L47.1529 19.5862V20.3838H47.1545ZM73.2623 22.3764C73.2623 26.8953 69.9399 28.8211 64.6916 28.8211C61.0371 28.8211 57.9148 27.8248 56.1225 25.8323C55.9906 25.7004 55.9906 25.4334 56.1225 25.2364L58.6457 21.9806C58.7807 21.7789 59.1128 21.7789 59.3099 21.9806C60.6398 23.3757 62.6991 24.1734 65.2223 24.1734C66.6857 24.1734 67.8806 23.7745 67.8806 22.6448C67.8806 21.5818 66.8176 21.3149 63.4952 20.5856C60.5715 19.9866 56.9185 18.6582 56.9185 14.341C56.9185 10.3544 60.1091 8.02978 65.2906 8.02978C68.745 8.02978 71.203 9.09277 72.9302 10.6865C73.1304 10.8184 73.1304 11.0853 72.9954 11.2839L70.604 14.4062C70.4721 14.6048 70.1401 14.6731 70.0066 14.4729C68.8117 13.4099 66.8843 12.7458 64.957 12.7458C63.2965 12.7458 62.4306 13.278 62.4306 14.1408C62.4306 15.1371 63.4936 15.4025 67.0162 16.1334C70.3387 16.9279 73.2608 18.1911 73.2608 22.3764H73.2623ZM93.4577 22.3764C93.4577 26.8953 90.1353 28.8211 84.8885 28.8211C81.234 28.8211 78.1117 27.8248 76.3178 25.8323C76.1859 25.7004 76.1859 25.4334 76.3178 25.2364L78.8442 21.9806C78.9761 21.7789 79.3082 21.7789 79.5084 21.9806C80.8368 23.3757 82.896 24.1734 85.4208 24.1734C86.8811 24.1734 88.0775 23.7745 88.0775 22.6448C88.0775 21.5818 87.013 21.3149 83.6936 20.5856C80.77 19.9866 77.117 18.6582 77.117 14.341C77.117 10.3544 80.3045 8.02978 85.486 8.02978C88.9404 8.02978 91.3984 9.09277 93.1272 10.6865C93.3273 10.8184 93.3274 11.0853 93.1954 11.2839L90.801 14.4062C90.6691 14.6048 90.337 14.6731 90.2051 14.4729C89.0086 13.4099 87.0828 12.7458 85.1555 12.7458C83.495 12.7458 82.6322 13.278 82.6322 14.1408C82.6322 15.1371 83.6952 15.4025 87.2147 16.1334C90.5372 16.9279 93.4608 18.1911 93.4608 22.3764H93.4577ZM116.777 0.585693H112.393C112.126 0.585693 111.927 0.785878 111.927 1.05124V11.4143C110.599 9.48849 108.34 8.02667 105.286 8.02667C100.436 8.02667 96.3162 11.7464 96.3162 18.4565C96.3162 25.1665 100.436 28.8847 105.354 28.8847C108.276 28.8847 110.534 27.6246 111.929 25.5653V27.8884C111.929 28.1553 112.129 28.354 112.395 28.354H116.778C117.044 28.354 117.244 28.1553 117.244 27.8884V0.986063C117.242 0.78743 117.042 0.585693 116.777 0.585693ZM106.943 23.7714C103.956 23.7714 101.763 21.6454 101.763 18.458C101.763 15.2706 103.956 13.1415 106.943 13.1415C109.867 13.1415 112.125 15.2007 112.125 18.458C112.125 21.7153 109.867 23.7714 106.943 23.7714ZM131.125 8.02667C125.016 8.02667 120.43 12.2119 120.43 18.4565C120.43 24.6343 125.014 28.8847 131.125 28.8847C137.236 28.8847 141.82 24.701 141.82 18.4565C141.82 12.2787 137.304 8.02667 131.125 8.02667ZM131.125 23.7047C128.138 23.7047 125.812 21.5787 125.812 18.3897C125.812 15.2007 128.138 13.0763 131.125 13.0763C134.112 13.0763 136.442 15.2007 136.442 18.3897C136.442 21.6454 134.115 23.7047 131.125 23.7047ZM155.441 8.02667C149.328 8.02667 144.745 12.2119 144.745 18.4565C144.745 24.6343 149.328 28.8847 155.441 28.8847C161.553 28.8847 166.136 24.701 166.136 18.4565C166.136 12.2787 161.552 8.02667 155.441 8.02667ZM155.441 23.7047C152.452 23.7047 150.126 21.5787 150.126 18.3897C150.126 15.2007 152.452 13.0763 155.441 13.0763C158.429 13.0763 160.755 15.2007 160.755 18.3897C160.689 21.6454 158.429 23.7047 155.441 23.7047ZM183.276 8.95776C183.276 8.75758 183.144 8.55895 182.945 8.42549C182.545 8.22686 181.947 8.0934 180.684 8.0934C177.895 8.0934 175.437 9.48849 174.373 11.7464V8.95776C174.375 8.89618 174.364 8.83481 174.342 8.77745C174.319 8.7201 174.285 8.66798 174.242 8.62433C174.198 8.58069 174.146 8.54644 174.089 8.52371C174.032 8.50099 173.97 8.49027 173.909 8.49222H169.723C169.458 8.49222 169.258 8.69085 169.258 8.95776V27.9567C169.258 28.2205 169.458 28.4222 169.723 28.4222H174.107C174.373 28.4222 174.573 28.2221 174.573 27.9567V19.4527C174.573 15.6663 177.231 13.7389 180.684 13.7389C181.482 13.7389 182.281 13.9376 182.677 14.071C182.943 14.1377 183.21 13.9391 183.21 13.6737L183.276 8.95621V8.95776ZM190.288 8.42704C189.626 8.42735 188.978 8.62391 188.428 8.9919C187.877 9.35968 187.447 9.88265 187.194 10.4956C186.941 11.1086 186.874 11.7805 187.003 12.4307C187.132 13.0809 187.451 13.6768 187.92 14.1455C188.271 14.4953 188.694 14.7632 189.16 14.9298C189.627 15.0964 190.124 15.1577 190.617 15.1092C191.11 15.0606 191.585 14.9036 192.01 14.6492C192.435 14.3948 192.798 14.0495 193.074 13.6381C193.504 12.9935 193.697 12.22 193.621 11.4491C193.545 10.6782 193.204 9.95739 192.656 9.40934C192.029 8.78086 191.177 8.42859 190.288 8.42859V8.42704ZM190.288 14.4559C189.759 14.4559 189.241 14.2991 188.8 14.0043C188.36 13.7096 188.016 13.2911 187.813 12.8016C187.609 12.3122 187.555 11.7731 187.658 11.2529C187.762 10.7327 188.017 10.2552 188.393 9.8811C188.674 9.60173 189.013 9.3879 189.386 9.25494C189.759 9.12198 190.157 9.07318 190.551 9.11204C190.945 9.1509 191.326 9.27645 191.665 9.4797C192.005 9.68295 192.296 9.95887 192.517 10.2877C192.811 10.7284 192.968 11.2467 192.968 11.7759C192.968 12.4866 192.686 13.1679 192.183 13.6706C191.68 14.1734 190.999 14.4559 190.288 14.4559Z" fill="#31AF40"/>
<path d="M191.629 11.1067C191.629 10.8397 191.524 10.5852 191.334 10.3959C191.145 10.2066 190.891 10.1011 190.624 10.1011H188.949V13.4499H189.62V12.1107H190.108L191.002 13.4499H191.806L190.886 12.0703C191.098 12.0129 191.286 11.8872 191.42 11.7134C191.553 11.5396 191.628 11.3255 191.629 11.1051V11.1067ZM190.624 11.4418H189.62V10.7715H190.624C190.714 10.7715 190.797 10.8072 190.861 10.8692C190.925 10.9313 190.959 11.0166 190.959 11.1067C190.959 11.1967 190.923 11.2805 190.861 11.3441C190.799 11.4077 190.714 11.4418 190.624 11.4418Z" fill="#31AF40"/>
<path d="M80.293 42.5764H61.5284C60.6713 42.5764 59.9766 43.2712 59.9766 44.1282V62.8928C59.9766 63.7499 60.6713 64.4447 61.5284 64.4447H80.293C81.15 64.4447 81.8448 63.7499 81.8448 62.8928V44.1282C81.8448 43.2712 81.15 42.5764 80.293 42.5764Z" fill="#31AF40"/>
<path d="M105.674 42.5762H86.9092C86.0522 42.5762 85.3574 43.2709 85.3574 44.128V62.8926C85.3574 63.7496 86.0522 64.4444 86.9092 64.4444H105.674C106.531 64.4444 107.226 63.7496 107.226 62.8926V44.128C107.226 43.2709 106.531 42.5762 105.674 42.5762Z" fill="#31AF40"/>
<path d="M131.057 42.5764H112.292C111.435 42.5764 110.74 43.2712 110.74 44.1282V62.8928C110.74 63.7499 111.435 64.4447 112.292 64.4447H131.057C131.914 64.4447 132.608 63.7499 132.608 62.8928V44.1282C132.608 43.2712 131.914 42.5764 131.057 42.5764Z" fill="#31AF40"/>
<path d="M156.022 42.5762H137.257C136.4 42.5762 135.705 43.2709 135.705 44.128V62.8926C135.705 63.7496 136.4 64.4444 137.257 64.4444H156.022C156.879 64.4444 157.573 63.7496 157.573 62.8926V44.128C157.573 43.2709 156.879 42.5762 156.022 42.5762Z" fill="#31AF40"/>
<path d="M180.988 42.5764H162.224C161.367 42.5764 160.672 43.2712 160.672 44.1282V62.8928C160.672 63.7499 161.367 64.4447 162.224 64.4447H180.988C181.845 64.4447 182.54 63.7499 182.54 62.8928V44.1282C182.54 43.2712 181.845 42.5764 180.988 42.5764Z" fill="#31AF40"/>
<path d="M70.6432 45.8743C70.7224 45.6213 71.0808 45.6213 71.1584 45.8743L72.6839 50.7858C72.7196 50.9006 72.8251 50.9767 72.9446 50.9751L78.0873 50.9068C78.3527 50.9037 78.4628 51.2436 78.2471 51.3972L74.0464 54.3658C73.9486 54.4341 73.9082 54.5598 73.947 54.6731L75.6013 59.5427C75.6866 59.7941 75.3964 60.0036 75.1838 59.8453L71.0638 56.7681C70.9676 56.6967 70.8356 56.6967 70.741 56.7681L66.6209 59.8453C66.4083 60.0036 66.1181 59.7941 66.2035 59.5427L67.8577 54.6731C67.8965 54.5598 67.8562 54.4341 67.7584 54.3658L63.5576 51.3972C63.3419 51.2436 63.4521 50.9037 63.7174 50.9068L68.8602 50.9751C68.9797 50.9767 69.0852 50.8991 69.1209 50.7858L70.6463 45.8743H70.6432ZM96.0263 45.8743C96.1055 45.6213 96.464 45.6213 96.5415 45.8743L98.067 50.7858C98.1027 50.9006 98.2082 50.9767 98.3277 50.9751L103.47 50.9068C103.736 50.9037 103.846 51.2436 103.63 51.3972L99.4295 54.3658C99.3317 54.4341 99.2914 54.5598 99.3302 54.6731L100.984 59.5427C101.07 59.7941 100.78 60.0036 100.567 59.8453L96.4469 56.7681C96.3507 56.6967 96.2203 56.6967 96.1241 56.7681L92.004 59.8453C91.7914 60.0036 91.5012 59.7926 91.5866 59.5427L93.2408 54.6731C93.2796 54.5598 93.2393 54.4341 93.1415 54.3658L88.9407 51.3972C88.725 51.2436 88.8352 50.9037 89.1006 50.9068L94.2433 50.9751C94.3628 50.9767 94.4699 50.8991 94.504 50.7858L96.0279 45.8743H96.0263ZM121.411 45.8743C121.49 45.6213 121.849 45.6213 121.926 45.8743L123.452 50.7858C123.487 50.9006 123.593 50.9767 123.712 50.9751L128.855 50.9068C129.12 50.9037 129.231 51.2436 129.015 51.3972L124.814 54.3658C124.716 54.4341 124.676 54.5598 124.715 54.6731L126.369 59.5427C126.454 59.7941 126.164 60.0036 125.952 59.8453L121.832 56.7681C121.735 56.6967 121.605 56.6967 121.509 56.7681L117.387 59.8453C117.175 60.0036 116.884 59.7926 116.97 59.5427L118.624 54.6731C118.663 54.5598 118.622 54.4341 118.525 54.3658L114.324 51.3972C114.108 51.2436 114.218 50.9037 114.484 50.9068L119.626 50.9751C119.746 50.9767 119.853 50.8991 119.887 50.7858L121.413 45.8743H121.411ZM146.377 45.8743C146.456 45.6213 146.814 45.6213 146.892 45.8743L148.417 50.7858C148.453 50.9006 148.559 50.9767 148.678 50.9751L153.821 50.9068C154.086 50.9037 154.196 51.2436 153.981 51.3972L149.78 54.3658C149.682 54.4341 149.642 54.5598 149.681 54.6731L151.335 59.5427C151.42 59.7941 151.13 60.0036 150.917 59.8453L146.797 56.7681C146.701 56.6967 146.571 56.6967 146.474 56.7681L142.354 59.8453C142.142 60.0036 141.852 59.7941 141.937 59.5427L143.591 54.6731C143.63 54.5598 143.59 54.4341 143.492 54.3658L139.291 51.3972C139.075 51.2436 139.186 50.9037 139.451 50.9068L144.594 50.9751C144.713 50.9767 144.82 50.8991 144.854 50.7858L146.38 45.8743H146.377ZM171.341 45.8743C171.42 45.6213 171.778 45.6213 171.858 45.8743L173.381 50.7858C173.417 50.9006 173.523 50.9767 173.644 50.9751L178.786 50.9068C179.05 50.9037 179.162 51.2436 178.945 51.3972L174.744 54.3658C174.646 54.4341 174.606 54.5598 174.645 54.6731L176.299 59.5427C176.384 59.7941 176.094 60.0036 175.881 59.8453L171.761 56.7681C171.665 56.6967 171.533 56.6967 171.437 56.7681L167.317 59.8453C167.104 60.0036 166.814 59.7926 166.9 59.5427L168.554 54.6731C168.593 54.5598 168.552 54.4341 168.454 54.3658L164.254 51.3972C164.036 51.2436 164.148 50.9037 164.412 50.9068L169.556 50.9751C169.676 50.9767 169.781 50.8991 169.817 50.7858L171.341 45.8743Z" fill="white"/>
<path d="M44.8848 40.1858V66.8445" stroke="#E3E3E6" stroke-width="1.54347"/>
</svg>
