<svg width="222" height="56" viewBox="0 0 222 56" fill="none" xmlns="http://www.w3.org/2000/svg">
<path fill-rule="evenodd" clip-rule="evenodd" d="M46.0464 0.015625H12.4181C0.261942 2.98824 0.00195312 13.3418 0.00195312 13.3418V48.3321H12.937V16.4754C12.937 13.7674 15.5219 13.2889 15.5219 13.2889H46.0453V0.015625H46.0464ZM20.4881 18.43C20.4881 18.43 17.9699 18.1757 17.9699 20.457V30.5931H34.5827V33.6347C34.5827 33.6347 34.6322 35.1544 33.0723 35.1544H17.9711V48.3321H36.0944C36.0944 48.3321 47.0703 46.61 47.1692 35.1544V18.43H20.4881Z" fill="#4385F4"/>
<path d="M84.1139 21.0126L82.9278 21.8017C82.039 22.365 81.1092 22.8606 80.1462 23.2846C78.8923 23.8103 77.7752 24.0738 76.7721 24.0738C73.329 24.0738 70.4794 22.997 68.1763 20.8205C65.8733 18.6439 64.7344 15.9186 64.7344 12.617C64.7344 9.43616 65.7605 6.68558 67.8347 4.34108C69.9088 1.99658 72.4167 0.848484 75.3813 0.848484C76.6122 0.848484 77.9351 1.06361 79.3029 1.51801C81.0815 2.09206 82.5171 2.9537 83.6572 4.07764L81.6739 6.3255C80.8307 5.48802 79.7355 4.8668 78.4597 4.48372C77.5026 4.19613 76.4534 4.05348 75.2904 4.05348C73.2162 4.05348 71.4607 4.91512 70.0699 6.6131C68.6791 8.33524 67.9727 10.368 67.9727 12.7596C67.9727 15.1272 68.7711 17.0656 70.3667 18.6197C71.9623 20.1739 73.9916 20.9643 76.4534 20.9643C77.4796 20.9643 78.5276 20.6295 79.5997 19.9841L80.9676 18.9315V14.0285H74.3102L75.2674 10.9673H84.1139V21.0137V21.0126ZM104.223 15.0328C104.223 17.4003 103.401 19.4572 101.76 21.1794C100.118 22.9015 98.0889 23.7862 95.673 23.7862C93.439 23.7862 91.4776 22.9257 89.7911 21.2265C88.1046 19.5274 87.2832 17.4717 87.2832 15.0558C87.2521 12.7522 88.1095 10.525 89.6772 8.83681C91.2728 7.06636 93.2342 6.20586 95.5361 6.20586C98.0889 6.20586 100.164 7.04335 101.783 8.74133C103.401 10.3921 104.223 12.4962 104.223 15.0317V15.0328ZM101.098 15.0811C101.098 13.4786 100.575 12.1154 99.5257 11.0145C98.4765 9.89057 97.1777 9.34068 95.627 9.34068C94.1683 9.34068 92.9363 9.91473 91.9113 11.0628C90.8863 12.2109 90.3835 13.527 90.3835 15.0098C90.3835 16.5651 90.9081 17.88 91.9343 18.9798C92.9604 20.0796 94.2373 20.6536 95.7869 20.6536C97.2226 20.6536 98.4535 20.1038 99.5027 19.0028C100.018 18.4892 100.425 17.8773 100.699 17.2034C100.973 16.5295 101.109 15.8074 101.098 15.08V15.0811ZM124.058 15.0328C124.058 17.4003 123.236 19.4572 121.595 21.1794C119.953 22.9015 117.924 23.7862 115.508 23.7862C113.273 23.7862 111.313 22.9257 109.626 21.2265C107.94 19.5274 107.118 17.4717 107.118 15.0558C107.087 12.7523 107.944 10.5252 109.511 8.83681C111.108 7.06636 113.068 6.20586 115.371 6.20586C117.924 6.20586 119.999 7.04335 121.618 8.74133C123.236 10.3921 124.058 12.4962 124.058 15.0317V15.0328ZM120.933 15.0811C120.933 13.4786 120.41 12.1154 119.361 11.0145C118.312 9.89057 117.013 9.34068 115.462 9.34068C114.003 9.34068 112.771 9.91473 111.746 11.0628C110.721 12.2109 110.219 13.527 110.219 15.0098C110.193 16.4854 110.75 17.9116 111.768 18.9798C112.794 20.0796 114.071 20.6536 115.622 20.6536C117.058 20.6536 118.29 20.1038 119.338 19.0028C119.853 18.4892 120.26 17.8773 120.534 17.2034C120.808 16.5295 120.944 15.8074 120.933 15.08V15.0811ZM142.41 23.3087L139.538 23.7632V20.9171L138.922 21.6349C138.376 22.1607 137.76 22.5921 137.099 22.9268C136.123 23.3886 135.055 23.6256 133.975 23.6205C131.74 23.6205 129.826 22.783 128.275 21.085C126.724 19.3871 125.95 17.3773 125.95 15.034C125.95 12.6182 126.724 10.5371 128.252 8.81495C129.78 7.09281 131.649 6.23232 133.883 6.23232C135.16 6.23232 136.277 6.44744 137.213 6.87769C137.874 7.1883 138.443 7.59554 138.922 8.09711L139.401 8.76664V1.30404L142.456 0.849633L142.41 23.3099V23.3087ZM139.72 15.2479C139.72 13.5741 139.173 12.1626 138.056 11.0145C136.939 9.84225 135.685 9.26821 134.248 9.26821C132.652 9.26821 131.375 9.8181 130.395 10.919C129.483 11.9716 129.005 13.2635 129.005 14.7705C129.005 16.4685 129.483 17.88 130.441 18.9798C130.886 19.5114 131.445 19.9358 132.077 20.2216C132.708 20.5074 133.396 20.6472 134.089 20.6306C135.548 20.6306 136.825 20.1279 137.965 19.0995C139.128 18.0469 139.72 16.755 139.72 15.2491V15.2479ZM158.529 4.4124H149.98V10.368H156.614V13.4292H149.98V23.2834L146.652 23.7862V1.3282H157.868L158.529 4.41355V4.4124ZM165.391 2.6661L163.34 5.32121L161.379 2.6661L163.454 0.0351562L165.391 2.6661ZM164.776 23.3076L161.722 23.7378V7.11582L164.776 6.63726V23.3087V23.3076ZM178.57 6.46815L177.133 9.86411C176.945 9.83422 176.755 9.81807 176.564 9.81579C176.267 9.81579 175.97 9.83995 175.675 9.88712C175.379 9.93428 175.059 10.0551 174.717 10.2219C174.078 10.5095 173.532 11.1307 173.052 12.0637C172.528 13.1163 172.255 14.2644 172.255 15.4838V23.2811L169.199 23.7839V7.11582L172.027 6.59009V10.0585L173.144 8.24091C173.669 7.61854 174.284 7.16414 174.967 6.90185C175.332 6.75805 175.993 6.63841 176.997 6.54293L178.57 6.4716V6.46815ZM201.323 23.3076L198.268 23.762V12.3524C198.268 11.2998 198.041 10.5348 197.584 10.0562C197.127 9.57766 196.444 9.33838 195.555 9.33838C194.484 9.33838 193.662 9.79279 193.116 10.7016C192.751 11.324 192.545 11.9935 192.545 12.663V23.2834L189.491 23.8575V12.4237C189.491 11.4194 189.262 10.6533 188.83 10.1275C188.373 9.60182 187.78 9.33838 187.005 9.33838H186.709C185.637 9.33838 184.862 9.79279 184.383 10.7258C184.019 11.4194 183.837 12.3041 183.837 13.3809V23.2834L180.667 23.8575V7.11582L183.517 6.6131V8.74133C183.837 8.2386 184.155 7.83252 184.452 7.54492C185.273 6.75575 186.231 6.37267 187.302 6.37267C188.51 6.37267 189.399 6.56363 190.014 6.97087C190.539 7.30564 191.041 7.97517 191.542 8.93229C192.591 7.23431 194.073 6.37267 196.033 6.37267C197.904 6.37267 199.295 6.97087 200.206 8.19029C200.958 9.19458 201.323 10.6774 201.323 12.6147V23.3064V23.3076ZM215.276 18.2608C215.276 19.792 214.751 21.0597 213.703 22.0399C212.654 23.0442 211.332 23.5227 209.736 23.5227C208.528 23.5227 207.457 23.2363 206.475 22.6622C205.494 22.0882 204.766 21.4428 204.287 20.6767L206.431 18.7152C206.558 18.9184 206.703 19.1104 206.863 19.2893C207.661 20.1268 208.619 20.557 209.736 20.557C210.511 20.557 211.126 20.3419 211.56 19.9346C212.016 19.5274 212.222 18.9545 212.222 18.2125C212.222 17.375 211.697 16.801 210.648 16.4904L207.297 15.4136C206.339 14.9109 205.655 14.3852 205.221 13.787C204.743 13.0933 204.492 12.1845 204.492 11.0122C204.492 9.57766 205.017 8.38126 206.043 7.42413C207.069 6.467 208.3 6.0126 209.714 6.0126C210.756 6.00068 211.784 6.25572 212.7 6.75345C213.612 7.25502 214.273 7.7819 214.66 8.40426L212.837 10.437C212.494 10.1022 212.199 9.8388 211.948 9.67199C211.218 9.14627 210.511 8.88283 209.85 8.88283C209.212 8.88283 208.688 9.02662 208.277 9.31307C207.798 9.67199 207.548 10.1977 207.548 10.8914C207.548 11.5609 207.775 12.0637 208.254 12.3743C208.665 12.6377 209.531 12.9242 210.899 13.2359C212.266 13.5707 213.316 14.1447 214.068 14.958C214.911 15.8197 215.276 16.8953 215.276 18.2585V18.2608ZM112.942 35.9274C113.335 34.9829 114.673 34.9829 115.066 35.9274L117.165 40.9719C117.246 41.1672 117.379 41.3364 117.55 41.4608C117.722 41.5852 117.924 41.6601 118.134 41.6771L123.58 42.1142C124.601 42.1959 125.014 43.4694 124.237 44.1343L120.088 47.689C119.927 47.8267 119.807 48.0062 119.742 48.2075C119.677 48.4088 119.668 48.6243 119.717 48.8302L120.985 54.145C121.222 55.1401 120.14 55.927 119.266 55.3943L114.604 52.546C114.423 52.4356 114.216 52.3772 114.004 52.3772C113.792 52.3772 113.585 52.4356 113.404 52.546L108.741 55.3943C107.868 55.9281 106.786 55.1413 107.023 54.145L108.291 48.8302C108.34 48.6243 108.331 48.4088 108.266 48.2075C108.201 48.0062 108.081 47.8267 107.92 47.689L103.771 44.1343C102.994 43.4682 103.407 42.1959 104.428 42.1142L109.873 41.6771C110.084 41.6601 110.286 41.5852 110.458 41.4608C110.629 41.3364 110.762 41.1672 110.843 40.9719L112.942 35.9274ZM137.192 35.9274C137.585 34.9829 138.923 34.9829 139.317 35.9274L141.415 40.9719C141.496 41.1672 141.63 41.3364 141.801 41.4608C141.972 41.5852 142.174 41.6601 142.385 41.6771L147.831 42.1142C148.851 42.1959 149.265 43.4694 148.488 44.1343L144.338 47.689C144.177 47.8267 144.058 48.0062 143.992 48.2075C143.927 48.4088 143.918 48.6243 143.968 48.8302L145.235 54.145C145.472 55.1401 144.39 55.927 143.517 55.3943L138.854 52.546C138.674 52.4356 138.466 52.3772 138.254 52.3772C138.043 52.3772 137.835 52.4356 137.654 52.546L132.992 55.3943C132.119 55.9281 131.036 55.1413 131.273 54.145L132.541 48.8302C132.59 48.6243 132.582 48.4088 132.516 48.2075C132.451 48.0062 132.331 47.8267 132.17 47.689L128.021 44.1343C127.244 43.4682 127.657 42.1959 128.678 42.1142L134.124 41.6771C134.335 41.6603 134.537 41.5855 134.708 41.4611C134.88 41.3367 135.013 41.1674 135.095 40.9719L137.192 35.9274ZM161.443 35.9274C161.837 34.9829 163.176 34.9829 163.568 35.9274L165.666 40.9719C165.748 41.1672 165.881 41.3364 166.052 41.4608C166.223 41.5852 166.425 41.6601 166.636 41.6771L172.082 42.1142C173.103 42.1959 173.517 43.4694 172.739 44.1343L168.59 47.689C168.429 47.8267 168.309 48.0062 168.244 48.2075C168.178 48.4088 168.17 48.6243 168.219 48.8302L169.487 54.145C169.724 55.1401 168.641 55.927 167.768 55.3943L163.106 52.546C162.925 52.4358 162.718 52.3775 162.506 52.3775C162.295 52.3775 162.087 52.4358 161.907 52.546L157.244 55.3943C156.37 55.9281 155.288 55.1413 155.526 54.145L156.792 48.8302C156.841 48.6243 156.833 48.4088 156.768 48.2075C156.702 48.0062 156.583 47.8267 156.422 47.689L152.272 44.1343C151.496 43.4682 151.909 42.1959 152.929 42.1142L158.375 41.6771C158.586 41.6603 158.789 41.5855 158.96 41.4611C159.131 41.3367 159.265 41.1674 159.346 40.9719L161.443 35.9274ZM185.694 35.9274C186.086 34.9829 187.425 34.9829 187.817 35.9274L189.915 40.9719C189.997 41.1672 190.13 41.3364 190.301 41.4608C190.472 41.5852 190.674 41.6601 190.885 41.6771L196.332 42.1142C197.352 42.1959 197.766 43.4694 196.988 44.1343L192.839 47.689C192.678 47.8267 192.558 48.0062 192.493 48.2075C192.428 48.4088 192.419 48.6243 192.468 48.8302L193.736 54.145C193.974 55.1401 192.89 55.927 192.017 55.3943L187.355 52.546C187.174 52.4358 186.967 52.3775 186.755 52.3775C186.544 52.3775 186.337 52.4358 186.156 52.546L181.493 55.3943C180.62 55.9281 179.537 55.1413 179.775 54.145L181.043 48.8302C181.092 48.6242 181.083 48.4087 181.017 48.2073C180.952 48.006 180.832 47.8266 180.671 47.689L176.523 44.1343C175.745 43.4682 176.159 42.1959 177.178 42.1142L182.624 41.6771C182.835 41.6603 183.038 41.5855 183.209 41.4611C183.38 41.3367 183.514 41.1674 183.595 40.9719L185.694 35.9274ZM209.912 35.9274C210.304 34.9829 211.643 34.9829 212.035 35.9274L214.134 40.9719C214.215 41.1674 214.348 41.3367 214.52 41.4611C214.691 41.5855 214.893 41.6603 215.105 41.6771L220.55 42.1142C221.57 42.1959 221.984 43.4694 221.206 44.1343L217.057 47.689C216.896 47.8267 216.776 48.0062 216.711 48.2075C216.646 48.4088 216.637 48.6243 216.686 48.8302L217.954 54.145C218.192 55.1401 217.108 55.927 216.235 55.3943L211.573 52.546C211.392 52.4358 211.185 52.3775 210.973 52.3775C210.762 52.3775 210.555 52.4358 210.374 52.546L205.712 55.3943C204.838 55.9281 203.755 55.1413 203.993 54.145L205.261 48.8302C205.31 48.6242 205.301 48.4087 205.235 48.2073C205.17 48.006 205.05 47.8266 204.889 47.689L200.741 44.1343C199.963 43.4682 200.377 42.1959 201.396 42.1142L206.842 41.6771C207.053 41.6603 207.256 41.5855 207.427 41.4611C207.598 41.3367 207.732 41.1674 207.813 40.9719L209.912 35.9274Z" fill="#4385F4"/>
<path d="M66.0149 46.84L66.7696 40.1896H74.1033V42.3558H68.9001L68.5768 45.1685C69.1814 44.842 69.8581 44.6719 70.5452 44.6738C71.791 44.6738 72.7677 45.0603 73.4752 45.8334C74.1827 46.6065 74.5359 47.6878 74.5359 49.0775C74.5359 49.9219 74.3564 50.68 73.9963 51.3518C73.6432 52.0168 73.1335 52.5356 72.4686 52.9072C71.8037 53.273 71.018 53.4559 70.1138 53.4559C69.3234 53.4559 68.5895 53.2971 67.9119 52.9796C67.2355 52.6564 66.6982 52.2031 66.3037 51.6222C65.9137 51.0412 65.7078 50.3786 65.6836 49.6354H68.2536C68.3076 50.1807 68.4963 50.6064 68.8196 50.9112C69.1486 51.2103 69.5777 51.361 70.1046 51.361C70.6913 51.361 71.1445 51.1517 71.462 50.7318C71.7795 50.3061 71.9383 49.7068 71.9383 48.9349C71.9383 48.1917 71.7554 47.6223 71.3895 47.2277C71.0237 46.8331 70.506 46.6341 69.8342 46.6341C69.2165 46.6341 68.7172 46.7963 68.3329 47.1195L68.081 47.3531L66.0138 46.8411L66.0149 46.84ZM77.1772 51.9984C77.1772 51.5854 77.3152 51.2494 77.5902 50.9918C77.872 50.7341 78.2217 50.6052 78.6416 50.6052C79.0673 50.6052 79.417 50.7341 79.6931 50.9918C79.8322 51.1189 79.942 51.2748 80.0149 51.4486C80.0878 51.6224 80.1221 51.81 80.1153 51.9984C80.1153 52.4056 79.9772 52.7381 79.7023 52.9957C79.4262 53.2477 79.073 53.3731 78.6416 53.3731C78.216 53.3731 77.8651 53.2477 77.5902 52.9957C77.3141 52.7381 77.1772 52.4056 77.1772 51.9984ZM91.8355 47.8638C91.8355 49.6734 91.4616 51.0573 90.7115 52.0156C89.9615 52.9739 88.8663 53.4536 87.4226 53.4536C85.9961 53.4536 84.9067 52.9831 84.1508 52.0421C83.395 51.101 83.0097 49.7528 82.9912 47.9973V45.5884C82.9912 43.7615 83.3686 42.3742 84.1232 41.4274C84.8836 40.4806 85.9777 40.0078 87.4042 40.0078C88.8306 40.0078 89.9212 40.4783 90.6759 41.4182C91.4305 42.3535 91.8171 43.6983 91.8355 45.4538V47.8627V47.8638ZM89.2379 45.2214C89.2379 44.1366 89.0883 43.3486 88.7881 42.8573C88.4947 42.3604 88.0334 42.1119 87.4042 42.1119C86.7933 42.1119 86.3412 42.3489 86.0467 42.8217C85.7591 43.2887 85.6061 44.0227 85.5888 45.0235V48.2055C85.5888 49.2719 85.7326 50.0657 86.0202 50.5868C86.3136 51.1022 86.7818 51.3599 87.4226 51.3599C88.0576 51.3599 88.5166 51.1114 88.7973 50.6144C89.078 50.1175 89.2252 49.3559 89.2379 48.3321V45.2225V45.2214Z" fill="black"/>
</svg>
