<svg width="185" height="56" viewBox="0 0 185 56" fill="none" xmlns="http://www.w3.org/2000/svg">
<g clip-path="url(#clip0_4803_2336)">
<path d="M37.0286 40.0502C34.3342 42.4724 30.8342 43.8237 27.0607 43.8237C18.4442 43.8237 12.2401 37.6294 12.2401 28.7407C12.2401 19.8519 18.4345 13.9201 27.0607 13.9201C30.8342 13.9201 34.3342 14.9992 37.0286 17.6936L38.9147 19.3075L46.9965 11.2257L45.1104 9.33961C39.9952 5.03135 33.7911 2.33695 27.0607 2.33695C11.704 2.06474 0.384766 13.1118 0.384766 28.7309C0.384766 43.814 11.9665 55.4055 27.0593 55.4055C34.0606 55.4055 40.5285 52.9833 45.6534 48.4042L47.5395 46.5181L38.923 37.9016L37.0272 40.0516L37.0286 40.0502Z" fill="black"/>
<path d="M26.5157 37.8933C28.8731 37.8933 31.134 36.9568 32.801 35.2899C34.4679 33.6229 35.4044 31.362 35.4044 29.0046C35.4044 26.6471 34.4679 24.3863 32.801 22.7193C31.134 21.0523 28.8731 20.1158 26.5157 20.1158C24.1583 20.1158 21.8974 21.0523 20.2304 22.7193C18.5634 24.3863 17.627 26.6471 17.627 29.0046C17.627 31.362 18.5634 33.6229 20.2304 35.2899C21.8974 36.9568 24.1583 37.8933 26.5157 37.8933ZM69.3441 3.62863C69.8191 2.48837 71.4344 2.48837 71.9094 3.62863L73.844 8.27994C73.9421 8.51578 74.1032 8.72003 74.3098 8.87023C74.5163 9.02043 74.7603 9.11077 75.0149 9.13131L80.0356 9.53408C81.2675 9.63269 81.7661 11.1702 80.8286 11.9729L77.0037 15.2493C76.8096 15.4155 76.6652 15.6321 76.5863 15.8752C76.5074 16.1183 76.4971 16.3785 76.5565 16.627L77.7245 21.5269C78.0106 22.7283 76.7037 23.6783 75.6496 23.0338L71.351 20.4089C71.1331 20.2759 70.8827 20.2055 70.6274 20.2055C70.3721 20.2055 70.1217 20.2759 69.9038 20.4089L65.6053 23.0338C64.5511 23.6783 63.2442 22.7283 63.5303 21.5269L64.6984 16.627C64.7578 16.3785 64.7475 16.1183 64.6686 15.8752C64.5897 15.6321 64.4452 15.4155 64.2512 15.2493L60.4262 11.9729C59.4873 11.1688 59.9873 9.63269 61.2193 9.53408L66.24 9.13131C66.4946 9.11077 66.7385 9.02043 66.9451 8.87023C67.1517 8.72003 67.3128 8.51578 67.4108 8.27994L69.3441 3.62863ZM94.3881 3.62863C94.8631 2.48837 96.4784 2.48837 96.9534 3.62863L98.8881 8.27994C98.9861 8.51578 99.1472 8.72003 99.3538 8.87023C99.5603 9.02043 99.8043 9.11077 100.059 9.13131L105.08 9.53408C106.312 9.63269 106.81 11.1702 105.873 11.9729L102.048 15.2493C101.854 15.4155 101.709 15.6321 101.63 15.8752C101.551 16.1183 101.541 16.3785 101.601 16.627L102.769 21.5269C103.055 22.7283 101.748 23.6783 100.694 23.0338L96.395 20.4089C96.177 20.2756 95.9263 20.2051 95.6708 20.2051C95.4152 20.2051 95.1645 20.2756 94.9465 20.4089L90.6479 23.0338C89.5938 23.6783 88.2868 22.7283 88.573 21.5269L89.7424 16.627C89.8018 16.3785 89.7915 16.1183 89.7126 15.8752C89.6337 15.6321 89.4893 15.4155 89.2952 15.2493L85.4702 11.9729C84.5327 11.1688 85.0313 9.63269 86.2633 9.53408L91.284 9.13131C91.5386 9.11077 91.7826 9.02043 91.9891 8.87023C92.1957 8.72003 92.3568 8.51578 92.4548 8.27994L94.3881 3.62863ZM119.432 3.62863C119.907 2.48837 121.522 2.48837 121.997 3.62863L123.932 8.27994C124.03 8.51578 124.191 8.72003 124.398 8.87023C124.604 9.02043 124.848 9.11077 125.103 9.13131L130.124 9.53408C131.356 9.63269 131.854 11.1702 130.917 11.9729L127.092 15.2493C126.898 15.4155 126.753 15.6321 126.674 15.8752C126.595 16.1183 126.585 16.3785 126.645 16.627L127.814 21.5269C128.1 22.7283 126.793 23.6783 125.739 23.0338L121.44 20.4089C121.223 20.2759 120.972 20.2055 120.717 20.2055C120.462 20.2055 120.211 20.2759 119.993 20.4089L115.695 23.0338C114.641 23.6783 113.334 22.7283 113.62 21.5269L114.788 16.627C114.847 16.3785 114.837 16.1183 114.758 15.8752C114.679 15.6321 114.535 15.4155 114.341 15.2493L110.516 11.9729C109.578 11.1688 110.077 9.63269 111.309 9.53408L116.329 9.13131C116.584 9.11077 116.828 9.02043 117.035 8.87023C117.241 8.72003 117.402 8.51578 117.5 8.27994L119.432 3.62863ZM144.476 3.62863C144.951 2.48837 146.566 2.48837 147.041 3.62863L148.976 8.27994C149.074 8.51578 149.235 8.72003 149.442 8.87023C149.648 9.02043 149.892 9.11077 150.147 9.13131L155.168 9.53408C156.4 9.63269 156.898 11.1702 155.961 11.9729L152.136 15.2493C151.941 15.4154 151.797 15.6319 151.718 15.875C151.638 16.1181 151.628 16.3783 151.687 16.627L152.857 21.5269C153.143 22.7283 151.836 23.6783 150.782 23.0338L146.483 20.4089C146.265 20.2756 146.014 20.2051 145.759 20.2051C145.503 20.2051 145.253 20.2756 145.034 20.4089L140.737 23.0338C139.682 23.6783 138.375 22.7283 138.662 21.5269L139.83 16.627C139.89 16.3785 139.88 16.1183 139.801 15.8752C139.722 15.6321 139.577 15.4155 139.383 15.2493L135.558 11.9729C134.619 11.1688 135.119 9.63269 136.351 9.53408L141.372 9.13131C141.627 9.11102 141.871 9.02079 142.078 8.87058C142.285 8.72036 142.446 8.51598 142.544 8.27994L144.478 3.62863H144.476ZM169.522 3.62863C169.995 2.48837 171.612 2.48837 172.085 3.62863L174.02 8.27994C174.118 8.51578 174.279 8.72003 174.486 8.87023C174.692 9.02043 174.936 9.11077 175.191 9.13131L180.212 9.53408C181.444 9.63269 181.944 11.1702 181.005 11.9729L177.18 15.2493C176.986 15.4155 176.841 15.6321 176.762 15.8752C176.683 16.1183 176.673 16.3785 176.733 16.627L177.901 21.5269C178.188 22.7283 176.88 23.6783 175.826 23.0338L171.527 20.4089C171.309 20.2759 171.059 20.2055 170.803 20.2055C170.548 20.2055 170.298 20.2759 170.08 20.4089L165.781 23.0338C164.727 23.6783 163.419 22.7283 163.706 21.5269L164.874 16.627C164.934 16.3785 164.924 16.1183 164.845 15.8752C164.766 15.6321 164.621 15.4155 164.427 15.2493L160.602 11.9729C159.663 11.1688 160.163 9.63269 161.395 9.53408L166.416 9.13131C166.671 9.11077 166.915 9.02043 167.121 8.87023C167.328 8.72003 167.489 8.51578 167.587 8.27994L169.522 3.62863Z" fill="#FF3D2E"/>
<path d="M88.6113 51.2426V37.3234H94.7821C96.0223 37.3234 96.9653 37.4498 97.6112 37.7026C98.257 37.9554 98.7723 38.3901 99.1584 39.022C99.5445 39.654 99.7375 40.3539 99.7375 41.1206C99.7375 42.1081 99.4181 42.94 98.7792 43.6178C98.1403 44.2955 97.1528 44.7261 95.8168 44.9094C96.3042 45.1441 96.6737 45.3747 96.9279 45.6025C97.4653 46.0955 97.9751 46.7135 98.457 47.4538L100.878 51.2426H98.5612L96.7195 48.3469L95.3904 46.4288C95.0418 45.9858 94.7293 45.6761 94.4501 45.4983C94.1945 45.3282 93.9117 45.2028 93.614 45.1275C93.4057 45.083 93.064 45.0608 92.589 45.0608H90.453V51.2412H88.6113V51.2426ZM90.453 43.4664H94.4126C95.2543 43.4664 95.9126 43.3817 96.3876 43.2108C96.8626 43.04 97.2237 42.7553 97.4695 42.3747C97.7153 41.9942 97.8403 41.5706 97.8403 41.122C97.8403 40.4637 97.6001 39.922 97.1195 39.4984C96.639 39.0748 95.8918 38.8623 94.8598 38.8623H90.4544V43.4664H90.453ZM103.061 51.2426V37.3234H113.125V38.9665H104.903V43.2289H112.603V44.8622H104.903V49.5996H113.447V51.2426H103.061ZM120.359 51.2426L114.966 37.3248H116.961L120.579 47.4358L121.309 49.7149L122.059 47.4358L125.819 37.3248H127.698L122.248 51.2426H120.359ZM130.052 51.2426V37.3234H131.894V51.2412H130.052V51.2426ZM135.577 51.2426V37.3234H145.641V38.9665H137.42V43.2289H145.119V44.8622H137.42V49.5996H145.966V51.2426H135.579H135.577ZM151.328 51.2426L147.635 37.3248H149.524L151.641 46.4483L152.23 49.2968L152.856 46.7247L155.506 37.3248H157.727L159.721 44.3691C160.193 45.9853 160.554 47.6317 160.803 49.2968L161.496 46.2677L163.679 37.3248H165.531L161.714 51.2426H159.939L157.006 40.6373L156.568 39.004L156.16 40.6373L153.207 51.2426H151.328ZM167.021 46.7705L168.759 46.6191C168.842 47.3149 169.031 47.8885 169.329 48.3371C169.628 48.7857 170.1 49.1413 170.734 49.4191C171.367 49.6968 172.079 49.8274 172.87 49.8274C173.572 49.8274 174.193 49.7232 174.731 49.5135C175.268 49.3038 175.668 49.0205 175.926 48.6593C176.193 48.2927 176.326 47.8941 176.326 47.4635C176.326 47.033 176.199 46.6469 175.946 46.3247C175.693 46.0024 175.275 45.7205 174.693 45.4983C174.32 45.3525 173.493 45.1275 172.215 44.8247C170.938 44.5219 170.04 44.2233 169.528 43.9511C168.864 43.6025 168.367 43.1719 168.038 42.6595C167.709 42.147 167.553 41.5609 167.553 40.922C167.552 40.2219 167.761 39.5376 168.152 38.9567C168.55 38.3429 169.132 37.8776 169.899 37.5609C170.665 37.2443 171.515 37.0859 172.453 37.0859C173.483 37.0859 174.392 37.254 175.176 37.5887C175.961 37.9234 176.576 38.4054 177 39.0512C177.424 39.697 177.651 40.4275 177.683 41.2442L175.918 41.3775C175.822 40.4984 175.5 39.8331 174.949 39.3831C174.397 38.9331 173.597 38.7095 172.528 38.7095C171.414 38.7095 170.602 38.9151 170.088 39.3262C169.582 39.7317 169.329 40.222 169.329 40.7984C169.329 41.2984 169.509 41.7095 169.87 42.0331C170.224 42.3553 171.149 42.6886 172.642 43.0303C174.135 43.3719 175.171 43.6594 175.728 43.9136C176.538 44.2872 177.136 44.7622 177.522 45.3372C177.908 45.9122 178.101 46.5649 178.101 47.3121C178.101 48.0594 177.889 48.7524 177.465 49.4107C177.042 50.069 176.431 50.5718 175.633 50.9399C174.836 51.3079 173.949 51.4815 172.956 51.4815C171.696 51.4815 170.639 51.2982 169.785 50.9301C168.931 50.5621 168.268 50.0121 167.781 49.2788C167.293 48.5455 167.047 47.7024 167.021 46.7719V46.7705Z" fill="black"/>
<path d="M66.0477 51.1211H63.7975V42.1489C63.7975 41.8502 63.8007 41.5514 63.807 41.2527C63.8134 40.9539 63.8198 40.6615 63.8261 40.3755C63.8388 40.0894 63.8547 39.8161 63.8738 39.5555C63.7403 39.7017 63.575 39.8606 63.378 40.0322C63.1873 40.2039 62.9839 40.3818 62.7678 40.5662L61.1659 41.8438L60.0408 40.4232L64.1789 37.1814H66.0477V51.1211ZM70.653 45.181C70.653 44.361 70.7102 43.5537 70.8246 42.7592C70.9454 41.9646 71.1488 41.2209 71.4348 40.528C71.7209 39.8352 72.115 39.225 72.6171 38.6974C73.1256 38.1698 73.7645 37.7566 74.5336 37.4579C75.3027 37.1528 76.2276 37.0002 77.3082 37.0002C77.5879 37.0002 77.9025 37.0129 78.2521 37.0383C78.6017 37.0638 78.8909 37.1051 79.1198 37.1623V39.0216C78.8719 38.9516 78.5986 38.8976 78.2998 38.8595C78.0074 38.8213 77.715 38.8023 77.4226 38.8023C76.253 38.8023 75.3409 39.0247 74.6861 39.4697C74.0314 39.9083 73.5642 40.5121 73.2845 41.2813C73.0049 42.0441 72.8428 42.9181 72.7983 43.9033H72.9127C73.1034 43.5855 73.3418 43.3026 73.6278 43.0547C73.9138 42.8068 74.2634 42.6098 74.6766 42.4636C75.0898 42.311 75.5697 42.2348 76.1163 42.2348C76.93 42.2348 77.6387 42.4064 78.2426 42.7496C78.8465 43.0865 79.3105 43.576 79.6347 44.218C79.9652 44.86 80.1305 45.6386 80.1305 46.554C80.1305 47.5392 79.9429 48.3878 79.5679 49.0997C79.1992 49.8117 78.6716 50.3583 77.9852 50.7397C77.305 51.1211 76.4946 51.3118 75.5538 51.3118C74.8609 51.3118 74.2158 51.1847 73.6183 50.9304C73.0271 50.6761 72.5091 50.2948 72.0641 49.7862C71.6191 49.2777 71.2727 48.6421 71.0248 47.8793C70.7769 47.1102 70.653 46.2107 70.653 45.181ZM75.5157 49.4621C76.2403 49.4621 76.8219 49.2269 77.2605 48.7565C77.7055 48.2798 77.9279 47.5519 77.9279 46.573C77.9279 45.7785 77.7309 45.1492 77.3368 44.6852C76.949 44.2211 76.3643 43.9891 75.5824 43.9891C75.0485 43.9891 74.5813 44.1036 74.1808 44.3324C73.7803 44.5612 73.4689 44.8504 73.2464 45.2C73.0303 45.5496 72.9222 45.9056 72.9222 46.2679C72.9222 46.6366 72.9763 47.0085 73.0843 47.3835C73.1924 47.7585 73.3545 48.1049 73.5706 48.4228C73.7867 48.7342 74.0569 48.9853 74.381 49.176C74.7052 49.3667 75.0834 49.4621 75.5157 49.4621Z" fill="black"/>
</g>
<defs>
<clipPath id="clip0_4803_2336">
<rect width="184.719" height="55.5546" fill="white" transform="translate(0 0.0195312)"/>
</clipPath>
</defs>
</svg>
