<svg width="239" height="56" viewBox="0 0 239 56" fill="none" xmlns="http://www.w3.org/2000/svg">
<path d="M118.157 28.936C118.58 27.9224 120.015 27.9224 120.438 28.936L122.689 34.3494C122.777 34.5591 122.92 34.7406 123.103 34.8741C123.287 35.0077 123.504 35.088 123.73 35.1062L129.575 35.5753C130.67 35.663 131.113 37.0296 130.279 37.7432L125.826 41.558C125.654 41.7056 125.526 41.898 125.456 42.1138C125.386 42.3296 125.376 42.5606 125.429 42.7814L126.789 48.485C127.044 49.5529 125.882 50.3973 124.945 49.8245L119.941 46.7677C119.748 46.6493 119.525 46.5866 119.298 46.5866C119.07 46.5866 118.848 46.6493 118.654 46.7677L113.65 49.8245C112.713 50.3973 111.551 49.5529 111.806 48.485L113.166 42.7814C113.219 42.5606 113.209 42.3296 113.139 42.1138C113.069 41.898 112.941 41.7056 112.769 41.558L108.316 37.7432C107.482 37.0284 107.926 35.663 109.021 35.5753L114.865 35.1062C115.091 35.088 115.308 35.0077 115.492 34.8741C115.675 34.7406 115.819 34.5591 115.906 34.3494L118.157 28.936Z" fill="#FAB231"/>
<path d="M144.183 28.936C144.605 27.9224 146.041 27.9224 146.463 28.936L148.715 34.3494C148.802 34.5591 148.945 34.7406 149.129 34.8741C149.312 35.0077 149.529 35.088 149.756 35.1062L155.6 35.5753C156.695 35.663 157.138 37.0296 156.305 37.7432L151.852 41.558C151.68 41.7056 151.551 41.898 151.481 42.1138C151.411 42.3296 151.402 42.5606 151.454 42.7814L152.815 48.485C153.069 49.5529 151.907 50.3973 150.97 49.8245L145.967 46.7677C145.773 46.6493 145.55 46.5866 145.323 46.5866C145.096 46.5866 144.873 46.6493 144.679 46.7677L139.676 49.8245C138.738 50.3973 137.577 49.5529 137.831 48.485L139.192 42.7814C139.244 42.5606 139.235 42.3296 139.165 42.1138C139.095 41.898 138.966 41.7056 138.794 41.558L134.341 37.7432C133.508 37.0284 133.951 35.663 135.046 35.5753L140.89 35.1062C141.117 35.088 141.333 35.0077 141.517 34.8741C141.701 34.7406 141.844 34.5591 141.931 34.3494L144.183 28.936Z" fill="#FAB231"/>
<path d="M170.21 28.936C170.632 27.9224 172.068 27.9224 172.49 28.936L174.742 34.3494C174.829 34.5591 174.973 34.7406 175.156 34.8741C175.34 35.0077 175.557 35.088 175.783 35.1062L181.627 35.5753C182.722 35.663 183.166 37.0296 182.332 37.7432L177.879 41.558C177.707 41.7056 177.579 41.898 177.508 42.1138C177.438 42.3296 177.429 42.5606 177.482 42.7814L178.842 48.485C179.096 49.5529 177.935 50.3973 176.998 49.8245L171.994 46.7677C171.8 46.6493 171.577 46.5866 171.35 46.5866C171.123 46.5866 170.9 46.6493 170.706 46.7677L165.703 49.8245C164.766 50.3973 163.604 49.5529 163.858 48.485L165.219 42.7814C165.272 42.5606 165.262 42.3296 165.192 42.1138C165.122 41.898 164.994 41.7056 164.821 41.558L160.368 37.7432C159.535 37.0284 159.978 35.663 161.073 35.5753L166.918 35.1062C167.144 35.088 167.361 35.0077 167.544 34.8741C167.728 34.7406 167.871 34.5591 167.958 34.3494L170.21 28.936Z" fill="#FAB231"/>
<path d="M196.23 28.936C196.652 27.9224 198.088 27.9224 198.51 28.936L200.762 34.3494C200.849 34.5591 200.992 34.7406 201.176 34.8741C201.359 35.0077 201.576 35.088 201.802 35.1062L207.647 35.5753C208.742 35.663 209.185 37.0296 208.352 37.7432L203.899 41.558C203.726 41.7056 203.598 41.898 203.528 42.1138C203.458 42.3296 203.449 42.5606 203.501 42.7814L204.862 48.485C205.116 49.5529 203.954 50.3973 203.017 49.8245L198.014 46.7677C197.82 46.6493 197.597 46.5866 197.37 46.5866C197.143 46.5866 196.92 46.6493 196.726 46.7677L191.722 49.8245C190.785 50.3973 189.624 49.5529 189.878 48.485L191.238 42.7814C191.291 42.5606 191.282 42.3296 191.212 42.1138C191.142 41.898 191.013 41.7056 190.841 41.558L186.388 37.7432C185.555 37.0284 185.998 35.663 187.093 35.5753L192.937 35.1062C193.163 35.088 193.38 35.0077 193.564 34.8741C193.748 34.7406 193.891 34.5591 193.978 34.3494L196.23 28.936Z" fill="#FAB231"/>
<path d="M222.218 28.936C222.64 27.9224 224.076 27.9224 224.498 28.936L226.75 34.3494C226.837 34.5591 226.98 34.7406 227.164 34.8741C227.348 35.0077 227.564 35.088 227.791 35.1062L233.635 35.5753C234.73 35.663 235.173 37.0296 234.34 37.7432L229.887 41.558C229.715 41.7056 229.586 41.898 229.516 42.1138C229.446 42.3296 229.437 42.5606 229.489 42.7814L230.85 48.485C231.104 49.5529 229.943 50.3973 229.006 49.8245L224.002 46.7677C223.808 46.6493 223.585 46.5866 223.358 46.5866C223.131 46.5866 222.908 46.6493 222.714 46.7677L217.711 49.8245C216.774 50.3973 215.612 49.5529 215.866 48.485L217.227 42.7814C217.279 42.5606 217.27 42.3296 217.2 42.1138C217.13 41.898 217.002 41.7056 216.829 41.558L212.376 37.7432C211.543 37.0284 211.986 35.663 213.081 35.5753L218.925 35.1062C219.152 35.088 219.369 35.0077 219.552 34.8741C219.736 34.7406 219.879 34.5591 219.966 34.3494L222.218 28.936Z" fill="#FAB231"/>
<path d="M49.4058 23.7363H47.5799V23.6425H27.1889V32.7053H39.9936C38.1257 37.9805 33.1061 41.7681 27.1889 41.7681C19.6816 41.7681 13.5941 35.6818 13.5941 28.1733C13.5941 20.6647 19.6804 14.5784 27.1889 14.5784C30.6543 14.5784 33.8073 15.8858 36.2072 18.0216L42.6158 11.613C38.5689 7.84151 33.1567 5.51562 27.1889 5.51562C14.6768 5.51562 4.53125 15.6599 4.53125 28.1733C4.53125 40.6866 14.6768 50.8309 27.1889 50.8309C39.701 50.8309 49.8465 40.6866 49.8465 28.1733C49.8465 26.6535 49.6897 25.1708 49.4058 23.7363Z" fill="#FFC107"/>
<path d="M7.14453 17.6304L14.5888 23.0896C16.6024 18.1033 21.4813 14.5823 27.1899 14.5823C30.6552 14.5823 33.8083 15.8897 36.2082 18.0255L42.6168 11.617C38.5699 7.84542 33.1577 5.51953 27.1899 5.51953C18.4875 5.51953 10.9395 10.433 7.14453 17.6304Z" fill="#FF3D00"/>
<path d="M27.1876 50.8322C33.0406 50.8322 38.3578 48.5927 42.3787 44.9508L35.3665 39.0176C33.0154 40.8056 30.1426 41.7727 27.1888 41.7706C21.2951 41.7706 16.2915 38.0127 14.4063 32.7695L7.01758 38.462C10.7669 45.8002 18.3828 50.8347 27.1888 50.8347L27.1876 50.8322Z" fill="#4CAF50"/>
<path d="M49.4012 23.7384H47.5766V23.6445H27.1855V32.7073H39.9903C39.0967 35.2181 37.4872 37.412 35.3607 39.0183L35.3644 39.0159L42.3766 44.9503C41.8804 45.4009 49.8432 39.5048 49.8432 28.1766C49.8415 26.6867 49.6939 25.2006 49.4024 23.7396L49.4012 23.7384Z" fill="#1976D2"/>
<path d="M75.8558 16.45C75.4003 16.9956 74.7558 17.4203 73.9238 17.724C73.0917 18.0277 72.1682 18.1709 71.1559 18.1709C70.093 18.1709 69.1584 17.9401 68.3535 17.4784C67.5486 17.0166 66.9362 16.3364 66.4967 15.4525C66.0572 14.5685 65.8412 13.5315 65.8301 12.3389V11.5031C65.8301 10.2772 66.035 9.21553 66.4461 8.32172C66.8572 7.42791 67.4584 6.73533 68.235 6.2625C69.0115 5.78967 69.9312 5.54523 70.9781 5.54523C72.4349 5.54523 73.5744 5.8946 74.3966 6.59212C75.2188 7.28964 75.7052 8.29456 75.8571 9.6217H73.3929C73.2806 8.91801 73.03 8.4032 72.6423 8.07728C72.2547 7.75136 71.7312 7.5884 71.0559 7.5884C70.1954 7.5884 69.5399 7.91185 69.0893 8.55875C68.6387 9.20566 68.4115 10.1674 68.4053 11.4451V12.2303C68.4053 13.5192 68.6498 14.492 69.1399 15.15C69.63 15.808 70.346 16.1376 71.2917 16.1376C72.2374 16.1376 72.9201 15.9352 73.325 15.5302V13.4118H71.0213V11.5476H75.8571V16.4512L75.8558 16.45ZM78.0657 13.3525C78.0657 12.4463 78.2397 11.6389 78.5891 10.9303C78.9162 10.2453 79.4391 9.67263 80.0916 9.28467C80.7496 8.89702 81.5125 8.70196 82.3779 8.70196C83.61 8.70196 84.6149 9.0785 85.3915 9.83281C86.168 10.5871 86.61 11.6106 86.7001 12.9044L86.7174 13.529C86.7174 14.9302 86.326 16.0549 85.5445 16.9043C84.7631 17.7537 83.7137 18.1697 82.3965 18.1697C81.0792 18.1697 80.0274 17.7475 79.2397 16.9043C78.4521 16.0611 78.0669 14.913 78.0669 13.4611V13.3537L78.0657 13.3525ZM80.5051 13.529C80.5051 14.3957 80.6681 15.0599 80.9952 15.5204C81.3224 15.9808 81.7878 16.2043 82.3965 16.2043C82.9878 16.2043 83.4483 15.9796 83.7804 15.529C84.1125 15.0784 84.2779 14.3475 84.2779 13.3513C84.2779 12.5019 84.1125 11.8439 83.7804 11.376C83.6252 11.1502 83.4153 10.9675 83.1702 10.845C82.9251 10.7226 82.6529 10.6644 82.3792 10.676C81.7829 10.676 81.3212 10.9093 80.9952 11.376C80.6693 11.8426 80.5051 12.555 80.5051 13.5278V13.529ZM88.5297 13.3525C88.5297 12.4463 88.7038 11.6389 89.0531 10.9303C89.3803 10.2453 89.9031 9.67263 90.5556 9.28467C91.2136 8.89702 91.9765 8.70196 92.8432 8.70196C94.0753 8.70196 95.0789 9.0785 95.8555 9.83281C96.632 10.5871 97.074 11.6106 97.1641 12.9044L97.1814 13.529C97.1814 14.9302 96.79 16.0549 96.0086 16.9043C95.2271 17.7537 94.1777 18.1697 92.8605 18.1697C91.5432 18.1697 90.4914 17.7475 89.7037 16.9043C88.9161 16.0611 88.5309 14.913 88.5309 13.4611V13.3537L88.5297 13.3525ZM90.9691 13.529C90.9691 14.3957 91.1321 15.0599 91.4593 15.5204C91.7864 15.9808 92.2518 16.2043 92.8605 16.2043C93.4518 16.2043 93.9123 15.9796 94.2444 15.529C94.5765 15.0784 94.7419 14.3475 94.7419 13.3513C94.7419 12.5019 94.5765 11.8439 94.2444 11.376C94.0892 11.1502 93.8793 10.9675 93.6342 10.845C93.3891 10.7226 93.1169 10.6644 92.8432 10.676C92.2469 10.676 91.7852 10.9093 91.4593 11.376C91.1333 11.8426 90.9691 12.555 90.9691 13.5278V13.529ZM99.0196 13.3685C99.0196 11.9673 99.3517 10.8402 100.016 9.98466C100.68 9.12911 101.585 8.70196 102.717 8.70196C103.718 8.70196 104.497 9.04517 105.055 9.73157L105.157 8.87109H107.368V17.6981C107.368 18.4969 107.185 19.1919 106.819 19.782C106.457 20.375 105.925 20.8455 105.292 21.1326C104.634 21.4425 103.864 21.5968 102.98 21.5968C102.307 21.5961 101.64 21.4583 101.022 21.1919C100.386 20.9277 99.9048 20.5845 99.5789 20.1623L100.659 18.6771C101.267 19.3586 102.004 19.6981 102.87 19.6981C103.517 19.6981 104.021 19.524 104.381 19.1746C104.742 18.8252 104.922 18.3413 104.922 17.7055V17.2166C104.359 17.8524 103.62 18.1697 102.702 18.1697C101.605 18.1697 100.716 17.7425 100.036 16.887C99.3554 16.0315 99.0233 14.887 99.0233 13.4698V13.3685H99.0196ZM101.459 13.5463C101.459 14.3735 101.625 15.0228 101.957 15.4957C102.289 15.9685 102.744 16.1957 103.323 16.1957C104.066 16.1957 104.597 15.9167 104.918 15.3599V11.5204C104.592 10.9637 104.066 10.6846 103.341 10.6846C103.068 10.6768 102.798 10.7385 102.556 10.864C102.314 10.9895 102.107 11.1746 101.957 11.4019C101.625 11.8797 101.459 12.5945 101.459 13.5451V13.5463ZM112.514 18.0018H110.068V5.03906H112.514V18.0018ZM119.425 18.1709C118.086 18.1709 116.995 17.7598 116.151 16.9389C115.308 16.1179 114.893 15.0228 114.893 13.6562V13.4204C114.893 12.5031 115.071 11.6846 115.426 10.9649C115.78 10.2451 116.281 9.68219 116.928 9.29331C117.575 8.90443 118.323 8.70196 119.156 8.70196C120.406 8.70196 121.387 9.09578 122.102 9.88342C122.817 10.6711 123.182 11.7883 123.182 13.234V14.2303H117.367C117.446 14.8265 117.682 15.3043 118.076 15.6648C118.47 16.0253 118.979 16.2055 119.587 16.2055C120.527 16.2055 121.261 15.8648 121.79 15.1846L122.988 16.5265C122.609 17.0553 122.097 17.4744 121.503 17.7413C120.879 18.0339 120.187 18.1722 119.427 18.1722L119.425 18.1709ZM119.146 10.6772C118.662 10.6772 118.269 10.8402 117.965 11.1661C117.661 11.492 117.475 11.9599 117.391 12.5673H120.783V12.3735C120.772 11.8328 120.625 11.4167 120.344 11.1241C120.062 10.8316 119.664 10.6772 119.145 10.6772H119.146ZM135.391 11.1587C135.1 11.1167 134.807 11.094 134.513 11.0908C133.591 11.0908 132.986 11.4031 132.698 12.0278V18.003H130.26V8.87233H132.563L132.631 9.9612C133.12 9.12294 133.798 8.7032 134.665 8.7032C134.935 8.7032 135.188 8.74023 135.424 8.81307L135.391 11.1587ZM142.302 18.003C142.189 17.7833 142.108 17.5104 142.057 17.1845C141.466 17.8425 140.698 18.1722 139.753 18.1722C138.858 18.1722 138.115 17.9129 137.525 17.3956C136.935 16.8784 136.647 16.2253 136.647 15.4376C136.647 14.4698 137.004 13.7278 137.719 13.2093C138.434 12.6908 139.477 12.4303 140.834 12.4241H141.956V11.9007C141.956 11.4785 141.846 11.1414 141.626 10.8883C141.407 10.6353 141.072 10.5081 140.605 10.5081C140.194 10.5081 139.871 10.6069 139.635 10.8032C139.399 10.9995 139.289 11.2698 139.289 11.613H136.85C136.85 11.0836 137.022 10.5684 137.34 10.1451C137.666 9.69454 138.128 9.34393 138.724 9.09084C139.32 8.83776 139.989 8.7032 140.732 8.7032C141.857 8.7032 142.749 8.98714 143.408 9.55503C144.067 10.1229 144.403 10.9106 144.403 11.9352V15.8932C144.409 16.7598 144.53 17.4154 144.766 17.8598V18.003H142.302ZM140.284 16.3068C140.645 16.3068 140.977 16.2278 141.281 16.071C141.584 15.9142 141.809 15.6907 141.956 15.4216V13.8525H141.045C139.824 13.8525 139.173 14.2747 139.094 15.1179L139.087 15.2611C139.083 15.4019 139.109 15.5419 139.164 15.6715C139.22 15.801 139.302 15.9171 139.407 16.0117C139.621 16.208 139.914 16.3068 140.284 16.3068ZM149.888 6.62669V8.87233H151.45V10.6612H149.888V15.2179C149.888 15.5549 149.952 15.7969 150.082 15.9438C150.211 16.0907 150.459 16.1636 150.825 16.1636C151.065 16.166 151.305 16.1462 151.542 16.1043V17.9524C151.064 18.0986 150.566 18.1727 150.066 18.1722C148.355 18.1722 147.483 17.308 147.448 15.5809V10.6612H146.115V8.87233H147.448V6.62669H149.888ZM156.073 18.003H153.626V8.87233H156.073V18.0043V18.003ZM153.483 6.50817C153.483 6.14275 153.604 5.84152 153.846 5.60572C154.088 5.36992 154.427 5.2514 154.85 5.2514C155.272 5.2514 155.598 5.36992 155.846 5.60572C156.094 5.84152 156.216 6.14275 156.216 6.50817C156.221 6.67825 156.19 6.84747 156.125 7.00457C156.06 7.16168 155.961 7.30305 155.837 7.41927C155.584 7.65507 155.261 7.77358 154.85 7.77358C154.438 7.77358 154.106 7.65507 153.853 7.41927C153.6 7.18347 153.483 6.87977 153.483 6.50817ZM161.026 8.87109L161.103 9.9254C161.756 9.10936 162.63 8.70196 163.727 8.70196C164.695 8.70196 165.415 8.98591 165.888 9.5538C166.36 10.1217 166.602 10.9711 166.614 12.1019V18.0006H164.174V12.1636C164.174 11.6464 164.062 11.2723 163.837 11.0414C163.612 10.8106 163.237 10.6871 162.715 10.6871C162.028 10.6871 161.514 10.9797 161.17 11.5649V18.0043H158.731V8.87233H161.026V8.87109ZM168.807 13.3698C168.807 11.9686 169.138 10.8414 169.802 9.98589C170.467 9.13035 171.373 8.7032 172.504 8.7032C173.505 8.7032 174.284 9.0464 174.841 9.73281L174.942 8.87233H177.153V17.6993C177.153 18.4981 176.97 19.1931 176.605 19.7832C176.241 20.3748 175.709 20.8448 175.078 21.1338C174.42 21.4437 173.648 21.598 172.765 21.598C172.095 21.598 171.443 21.4635 170.807 21.1931C170.171 20.9227 169.69 20.5857 169.364 20.1635L170.444 18.6783C171.052 19.3598 171.789 19.6993 172.655 19.6993C173.302 19.6993 173.806 19.5252 174.165 19.1759C174.524 18.8265 174.706 18.3425 174.706 17.7067V17.2179C174.143 17.8537 173.404 18.1709 172.486 18.1709C171.389 18.1709 170.5 17.7438 169.82 16.8882C169.139 16.0327 168.807 14.8883 168.807 13.471V13.3698ZM171.246 13.5476C171.246 14.3747 171.412 15.0241 171.744 15.4969C172.076 15.9697 172.532 16.1969 173.111 16.1969C173.853 16.1969 174.385 15.9179 174.706 15.3611V11.5217C174.38 10.9649 173.853 10.6859 173.128 10.6859C172.856 10.678 172.585 10.7397 172.343 10.8652C172.101 10.9907 171.895 11.1759 171.744 11.4031C171.412 11.8809 171.246 12.5957 171.246 13.5463V13.5476ZM75.6262 42.2656H77.2175V44.5125H75.6262V47.5507H72.8386V44.5125H67.0807L66.9547 42.7569L72.809 33.5077H75.625V42.2656H75.6262ZM69.7337 42.2656H72.8398V37.3076L72.6571 37.6261L69.7349 42.2656H69.7337ZM79.773 46.1816C79.773 45.7384 79.9212 45.3779 80.2162 45.1013C80.5187 44.8248 80.894 44.6865 81.3446 44.6865C81.8014 44.6865 82.1767 44.8248 82.473 45.1013C82.6223 45.2378 82.7402 45.4051 82.8184 45.5916C82.8967 45.7781 82.9334 45.9794 82.9261 46.1816C82.9261 46.6186 82.7779 46.9754 82.4829 47.2519C82.1878 47.5284 81.8076 47.6568 81.3446 47.6568C80.8817 47.6568 80.5113 47.5223 80.2162 47.2519C80.07 47.1157 79.9548 46.9496 79.8783 46.7649C79.8018 46.5802 79.7659 46.3813 79.773 46.1816ZM92.5716 41.9384C91.8457 42.652 90.9963 43.0088 90.0259 43.0088C88.7852 43.0088 87.7914 42.5841 87.0458 41.736C86.3001 40.8804 85.9273 39.7298 85.9273 38.2829C85.9273 37.3632 86.126 36.5212 86.5248 35.7558C86.9297 34.9842 87.4927 34.3867 88.2124 33.962C88.9478 33.5272 89.789 33.3038 90.6432 33.3163C91.5691 33.3163 92.3926 33.5472 93.1123 34.0102C93.8321 34.4731 94.3925 35.1385 94.7901 36.0064C95.1876 36.8743 95.3913 37.8681 95.3975 38.9866V40.0187C95.3975 42.3594 94.816 44.1989 93.6518 45.5359C92.4876 46.8729 90.8383 47.5865 88.7038 47.6766L88.0186 47.6865V45.3618L88.6359 45.3519C91.0593 45.2421 92.3716 44.1038 92.5716 41.9372V41.9384ZM90.7099 40.8779C91.1605 40.8779 91.5457 40.7619 91.8679 40.531C92.1963 40.3002 92.4432 40.0199 92.6111 39.6915V38.5434C92.6111 37.5978 92.4309 36.8657 92.0716 36.3447C91.7123 35.8237 91.2296 35.5632 90.6247 35.5632C90.0655 35.5632 89.605 35.82 89.2457 36.3348C88.8852 36.8422 88.7062 37.4829 88.7062 38.2545C88.7062 39.0261 88.8803 39.6496 89.2272 40.1446C89.5803 40.6335 90.0766 40.8779 90.7124 40.8779H90.7099Z" fill="black"/>
</svg>
