<svg width="160" height="56" viewBox="0 0 160 56" fill="none" xmlns="http://www.w3.org/2000/svg">
<g clip-path="url(#clip0_4803_2324)">
<path d="M11.4764 37.2331C11.4798 37.3354 11.4628 37.4373 11.4263 37.5329C11.3899 37.6285 11.3348 37.7159 11.2643 37.7899C11.1228 37.9314 10.8842 38.0021 10.5484 38.0021H6.57115L5.98783 41.3252C6.58854 41.1906 7.20175 41.1195 7.81734 41.1131C8.47768 41.1131 9.05722 41.2103 9.55847 41.4048C10.0597 41.5992 10.489 41.8669 10.8312 42.2091C11.1733 42.5513 11.4358 42.9647 11.6001 43.4199C11.7769 43.8858 11.8653 44.3921 11.8653 44.9401C11.8745 45.5649 11.7541 46.1848 11.5117 46.7608C11.2865 47.2878 10.9556 47.7631 10.5395 48.1572C10.133 48.5398 9.65317 48.8352 9.09889 49.041C8.52422 49.2509 7.91649 49.3557 7.30473 49.3504C6.9451 49.3516 6.58644 49.3131 6.2353 49.2355C5.89313 49.1647 5.57496 49.0675 5.28077 48.9438C4.98658 48.8201 4.7126 48.6786 4.45881 48.5196C4.20503 48.3605 3.98155 48.1925 3.78711 48.0158L4.26437 47.3441C4.30943 47.2726 4.37212 47.2139 4.44642 47.1737C4.52072 47.1334 4.60412 47.113 4.68861 47.1143C4.80098 47.1143 4.92977 47.161 5.07749 47.2557L5.62546 47.5562C5.86413 47.6793 6.11242 47.7827 6.36787 47.8655C6.65701 47.9539 6.99791 47.9981 7.39311 47.9981C7.83502 47.9981 8.23274 47.9274 8.58627 47.786C8.92671 47.6532 9.23429 47.4482 9.48777 47.185C9.74155 46.9198 9.93599 46.6042 10.0711 46.2393C10.2115 45.8452 10.2804 45.4291 10.2744 45.0108C10.2744 44.6156 10.215 44.2595 10.0976 43.9414C9.99165 43.6324 9.81278 43.3534 9.57615 43.1282C9.32872 42.8936 9.03315 42.7157 8.71 42.6068C8.31699 42.4759 7.90449 42.4131 7.49033 42.4212C7.17215 42.4212 6.84261 42.4477 6.50045 42.5007C6.14072 42.5581 5.78609 42.6438 5.43986 42.757L4.44998 42.4654L5.47521 36.5438H11.4764V37.2331ZM13.864 48.2367C13.864 48.084 13.8905 47.9388 13.9435 47.8037C13.9965 47.6686 14.0786 47.5499 14.1733 47.4501C14.275 47.349 14.395 47.268 14.5268 47.2115C14.6635 47.1523 14.811 47.1222 14.9599 47.1231C15.1088 47.1222 15.2563 47.1523 15.393 47.2115C15.5248 47.268 15.6448 47.349 15.7465 47.4501C15.8462 47.5499 15.9233 47.6686 15.9763 47.8037C16.0355 47.9403 16.0656 48.0878 16.0647 48.2367C16.0647 48.3958 16.0356 48.5435 15.9763 48.6786C15.917 48.8137 15.8462 48.9236 15.7465 49.0233C15.6468 49.1231 15.5281 49.2001 15.393 49.2531C15.2563 49.3123 15.1088 49.3424 14.9599 49.3415C14.811 49.3424 14.6635 49.3123 14.5268 49.2531C14.3917 49.2001 14.273 49.1231 14.1733 49.0233C14.0735 48.9236 14.0028 48.8087 13.9435 48.6786C13.8894 48.5377 13.8624 48.3877 13.864 48.2367ZM26.5544 42.8808C26.5544 43.9881 26.4332 44.9489 26.192 45.762C25.9509 46.5751 25.6327 47.238 25.2198 47.7683C24.8346 48.2767 24.3309 48.6833 23.7527 48.9526C23.1933 49.2115 22.5923 49.3415 21.9497 49.3415C21.307 49.3415 20.6972 49.2115 20.1378 48.9526C19.5785 48.6938 19.1012 48.2986 18.6884 47.7683C18.2755 47.238 17.9523 46.5688 17.7162 45.762C17.4801 44.9552 17.3626 43.9881 17.3626 42.8808C17.3626 41.7735 17.4801 40.8126 17.7162 39.9995C17.9523 39.1864 18.2755 38.5147 18.6884 37.9844C19.1012 37.4541 19.5836 37.0501 20.1378 36.7912C20.6921 36.5324 21.302 36.4023 21.9497 36.4023C22.5974 36.4023 23.1933 36.5324 23.7527 36.7912C24.312 37.0501 24.8069 37.4478 25.2198 37.9844C25.6327 38.521 25.9559 39.1864 26.192 39.9995C26.4281 40.8126 26.5544 41.7735 26.5544 42.8808ZM24.9193 42.8808C24.9193 41.9149 24.8372 41.1043 24.6718 40.4503C24.5064 39.7962 24.2943 39.2596 24.0178 38.8594C23.7413 38.4591 23.432 38.1725 23.0721 38.0021C22.7236 37.828 22.3393 37.7374 21.9497 37.7374C21.5601 37.7374 21.1758 37.828 20.8272 38.0021C20.4674 38.1725 20.153 38.4591 19.8815 38.8594C19.6101 39.2596 19.3929 39.7899 19.2275 40.4503C19.0621 41.1106 18.9889 41.9149 18.9889 42.8808C18.9889 43.8467 19.0684 44.6573 19.2275 45.3113C19.3866 45.9653 19.6101 46.4931 19.8815 46.8933C20.153 47.2936 20.4674 47.5827 20.8272 47.7595C21.1871 47.9362 21.5608 48.0158 21.9497 48.0158C22.3386 48.0158 22.7123 47.9299 23.0721 47.7595C23.432 47.589 23.7464 47.2936 24.0178 46.8933C24.2893 46.4931 24.5128 45.9653 24.6718 45.3113C24.8309 44.6573 24.9193 43.8467 24.9193 42.8808Z" fill="black"/>
<path d="M16.7991 6.92642H13.2322C13.0163 6.92642 12.8535 7.08803 12.8535 7.3052V9.19532C11.9343 7.73701 10.0972 6.54764 7.60986 6.54764C3.60993 6.54764 0.150391 9.5741 0.150391 14.9238C0.150391 20.2734 3.44831 23.2494 7.77147 23.2494C10.0959 23.2494 11.933 22.2759 12.9608 20.762V21.7898C12.9608 24.113 11.8257 25.9513 8.20454 25.9513C6.36619 25.9513 4.90662 25.3567 3.66422 24.2216C3.50134 24.06 3.23114 24.1143 3.12382 24.2759L1.50264 26.9804C1.28547 27.3036 1.33976 27.5208 1.44835 27.6281C3.12382 29.0877 5.23111 29.9538 8.36742 29.9538C15.1792 29.9538 17.1779 26.1698 17.1779 22.0082V7.24965C17.1779 7.08803 17.0163 6.92642 16.7991 6.92642ZM8.79923 19.3568C6.36619 19.3568 4.58339 17.627 4.58339 15.0336C4.58339 12.4402 6.36745 10.7079 8.79923 10.7079C11.231 10.7079 13.0151 12.3834 13.0151 15.0336C13.0151 17.6838 11.2323 19.3568 8.79923 19.3568ZM24.9606 0.870969V22.7633C24.9606 22.9779 24.799 23.142 24.583 23.142H21.0149C20.8003 23.142 20.6374 22.9792 20.6374 22.7633V0.870969C20.6374 0.656326 20.8003 0.492188 21.0149 0.492188H24.583C24.799 0.492188 24.9606 0.655063 24.9606 0.870969ZM35.5551 6.60067C32.1498 6.60067 29.6082 7.73575 28.4744 9.95162C28.4201 10.1132 28.4744 10.3304 28.5817 10.3834L31.1764 12.2218C31.3392 12.3291 31.5551 12.2748 31.6625 12.1132C32.3657 10.8165 33.9882 10.3834 35.5551 10.3834C37.4465 10.3834 38.3656 11.0867 38.3656 12.0046V12.2748C38.3656 12.6536 38.1485 12.8708 37.5008 12.9238L33.0677 13.3026C30.0968 13.5728 27.8797 15.4099 27.8797 18.3833C27.8797 21.3567 30.1499 23.4097 33.3392 23.4097C35.8796 23.4097 37.502 22.1661 38.3113 20.8694V22.7064C38.3113 22.9236 38.4742 23.0852 38.6901 23.0852H42.2582C42.3084 23.0868 42.3583 23.0781 42.4049 23.0596C42.4515 23.0411 42.4938 23.0133 42.5292 22.9777C42.5646 22.9422 42.5923 22.8998 42.6106 22.8532C42.629 22.8065 42.6375 22.7566 42.6358 22.7064V13.0867C42.6358 8.6524 40.2583 6.59941 35.5563 6.59941L35.5551 6.60067ZM38.3656 16.6005C38.3656 18.3846 36.9061 19.9514 34.6346 19.9514C33.1208 19.9514 32.3645 19.2482 32.3645 18.2217C32.3645 17.3038 33.0665 16.6535 34.3644 16.4389L38.3644 15.9515V16.6005H38.3656ZM59.6077 18.2217C59.6077 21.8984 56.9045 23.4653 52.6343 23.4653C49.6609 23.4653 47.1205 22.6547 45.6622 21.0335C45.5549 20.9262 45.5549 20.709 45.6622 20.5487L47.7152 17.8997C47.8251 17.7356 48.0953 17.7356 48.2556 17.8997C49.3377 19.0348 51.0131 19.6838 53.0661 19.6838C54.2568 19.6838 55.229 19.3593 55.229 18.4401C55.229 17.5752 54.3641 17.3581 51.6609 16.7646C49.2821 16.2773 46.3099 15.1965 46.3099 11.6839C46.3099 8.44028 48.9059 6.5489 53.1217 6.5489C55.9323 6.5489 57.9322 7.41378 59.3375 8.71048C59.5004 8.8178 59.5004 9.03497 59.3905 9.19658L57.4448 11.7369C57.3375 11.8986 57.0673 11.9541 56.9587 11.7912C55.9865 10.9264 54.4184 10.386 52.8502 10.386C51.4992 10.386 50.7947 10.819 50.7947 11.521C50.7947 12.3316 51.6596 12.5475 54.5257 13.1422C57.2289 13.7887 59.6064 14.8164 59.6064 18.2217H59.6077ZM76.0392 18.2217C76.0392 21.8984 73.336 23.4653 69.0671 23.4653C66.0937 23.4653 63.5533 22.6547 62.0938 21.0335C61.9864 20.9262 61.9864 20.709 62.0938 20.5487L64.1493 17.8997C64.2566 17.7356 64.5268 17.7356 64.6897 17.8997C65.7705 19.0348 67.4459 19.6838 69.5002 19.6838C70.6883 19.6838 71.6618 19.3593 71.6618 18.4401C71.6618 17.5752 70.7956 17.3581 68.0949 16.7646C65.7162 16.2773 62.744 15.1965 62.744 11.6839C62.744 8.44028 65.3374 6.5489 69.5532 6.5489C72.3638 6.5489 74.3637 7.41378 75.7703 8.71048C75.9332 8.8178 75.9332 9.03497 75.8258 9.19658L73.8776 11.7369C73.7703 11.8986 73.5001 11.9541 73.3928 11.7912C72.4193 10.9264 70.8524 10.386 69.2843 10.386C67.9333 10.386 67.2313 10.819 67.2313 11.521C67.2313 12.3316 68.0962 12.5475 70.9598 13.1422C73.663 13.7887 76.0417 14.8164 76.0417 18.2217H76.0392ZM95.0124 0.492188H91.4455C91.2284 0.492188 91.0667 0.655063 91.0667 0.870969V9.30264C89.986 7.73575 88.1476 6.54638 85.6628 6.54638C81.7172 6.54638 78.3649 9.57284 78.3649 15.0323C78.3649 20.4918 81.7172 23.517 85.7184 23.517C88.0958 23.517 89.9329 22.4918 91.068 20.8163V22.7064C91.068 22.9236 91.2309 23.0852 91.4468 23.0852H95.0136C95.2296 23.0852 95.3924 22.9236 95.3924 22.7064V0.817939C95.3912 0.656326 95.2283 0.492188 95.0124 0.492188ZM87.0113 19.3568C84.5807 19.3568 82.7967 17.627 82.7967 15.0336C82.7967 12.4402 84.5807 10.7079 87.0113 10.7079C89.39 10.7079 91.2271 12.3834 91.2271 15.0336C91.2271 17.6838 89.39 19.3568 87.0113 19.3568ZM106.686 6.54638C101.716 6.54638 97.9846 9.95162 97.9846 15.0323C97.9846 20.0588 101.714 23.517 106.686 23.517C111.659 23.517 115.388 20.1131 115.388 15.0323C115.388 10.0059 111.714 6.54638 106.686 6.54638ZM106.686 19.3025C104.256 19.3025 102.363 17.5727 102.363 14.978C102.363 12.3834 104.256 10.6549 106.686 10.6549C109.117 10.6549 111.012 12.3834 111.012 14.978C111.012 17.627 109.119 19.3025 106.686 19.3025ZM126.47 6.54638C121.497 6.54638 117.768 9.95162 117.768 15.0323C117.768 20.0588 121.497 23.517 126.47 23.517C131.444 23.517 135.172 20.1131 135.172 15.0323C135.172 10.0059 131.442 6.54638 126.47 6.54638ZM126.47 19.3025C124.038 19.3025 122.146 17.5727 122.146 14.978C122.146 12.3834 124.038 10.6549 126.47 10.6549C128.902 10.6549 130.795 12.3834 130.795 14.978C130.74 17.627 128.902 19.3025 126.47 19.3025ZM149.118 7.30394C149.118 7.14106 149.01 6.97945 148.849 6.87087C148.523 6.70925 148.037 6.60067 147.009 6.60067C144.74 6.60067 142.74 7.73575 141.874 9.57284V7.30394C141.876 7.25383 141.867 7.2039 141.849 7.15723C141.83 7.11057 141.803 7.06816 141.767 7.03265C141.732 6.99714 141.69 6.96927 141.643 6.95078C141.596 6.93229 141.547 6.92357 141.496 6.92516H138.091C137.875 6.92516 137.712 7.08677 137.712 7.30394V22.762C137.712 22.9766 137.875 23.1408 138.091 23.1408H141.658C141.874 23.1408 142.037 22.9779 142.037 22.762V15.8429C142.037 12.7622 144.2 11.194 147.009 11.194C147.658 11.194 148.308 11.3556 148.63 11.4642C148.847 11.5185 149.064 11.3569 149.064 11.141L149.118 7.30268V7.30394ZM154.823 6.87213C154.284 6.87238 153.757 7.0323 153.309 7.33172C152.861 7.63095 152.511 8.05645 152.306 8.55518C152.1 9.05391 152.045 9.60062 152.15 10.1296C152.255 10.6587 152.515 11.1435 152.896 11.5248C153.182 11.8095 153.526 12.0274 153.906 12.163C154.285 12.2985 154.69 12.3484 155.091 12.3089C155.491 12.2694 155.879 12.1416 156.224 11.9346C156.57 11.7277 156.865 11.4467 157.09 11.112C157.439 10.5876 157.597 9.95821 157.535 9.33096C157.473 8.7037 157.195 8.11726 156.75 7.67136C156.24 7.16 155.547 6.87339 154.823 6.87339V6.87213ZM154.823 11.7773C154.393 11.7773 153.971 11.6498 153.612 11.4099C153.254 11.1702 152.975 10.8297 152.809 10.4314C152.643 10.0332 152.599 9.59455 152.683 9.17133C152.767 8.74811 152.976 8.35954 153.282 8.05519C153.51 7.82788 153.786 7.65391 154.089 7.54573C154.393 7.43755 154.716 7.39784 155.037 7.42946C155.358 7.46108 155.667 7.56323 155.944 7.7286C156.22 7.89397 156.457 8.11847 156.636 8.38599C156.876 8.74457 157.004 9.16628 157.004 9.59683C157.004 10.1751 156.774 10.7294 156.365 11.1385C155.956 11.5476 155.401 11.7773 154.823 11.7773Z" fill="#31AF40"/>
<path d="M155.917 9.05254C155.917 8.83537 155.831 8.62831 155.677 8.47427C155.523 8.32023 155.316 8.23438 155.099 8.23438H153.736V10.9591H154.282V9.86945H154.679L155.407 10.9591H156.061L155.312 9.83662C155.485 9.7899 155.638 9.68763 155.746 9.54622C155.855 9.40481 155.916 9.23057 155.917 9.05128V9.05254ZM155.099 9.32527H154.282V8.77982H155.099C155.172 8.77982 155.24 8.80886 155.292 8.85936C155.344 8.90987 155.371 8.97931 155.371 9.05254C155.371 9.12577 155.342 9.19395 155.292 9.24572C155.241 9.29749 155.172 9.32527 155.099 9.32527Z" fill="#31AF40"/>
<path d="M65.3249 34.6562H50.0575C49.3602 34.6562 48.7949 35.2215 48.7949 35.9189V51.1863C48.7949 51.8836 49.3602 52.4489 50.0575 52.4489H65.3249C66.0223 52.4489 66.5875 51.8836 66.5875 51.1863V35.9189C66.5875 35.2215 66.0223 34.6562 65.3249 34.6562Z" fill="#31AF40"/>
<path d="M85.9773 34.6562H70.7099C70.0126 34.6562 69.4473 35.2215 69.4473 35.9189V51.1863C69.4473 51.8836 70.0126 52.4489 70.7099 52.4489H85.9773C86.6746 52.4489 87.2399 51.8836 87.2399 51.1863V35.9189C87.2399 35.2215 86.6746 34.6562 85.9773 34.6562Z" fill="#31AF40"/>
<path d="M106.632 34.6562H91.3642C90.6668 34.6562 90.1016 35.2215 90.1016 35.9189V51.1863C90.1016 51.8836 90.6668 52.4489 91.3642 52.4489H106.632C107.329 52.4489 107.894 51.8836 107.894 51.1863V35.9189C107.894 35.2215 107.329 34.6562 106.632 34.6562Z" fill="#31AF40"/>
<path d="M126.942 34.6562H111.675C110.977 34.6562 110.412 35.2215 110.412 35.9189V51.1863C110.412 51.8836 110.977 52.4489 111.675 52.4489H126.942C127.639 52.4489 128.205 51.8836 128.205 51.1863V35.9189C128.205 35.2215 127.639 34.6562 126.942 34.6562Z" fill="#31AF40"/>
<path d="M147.257 34.6562H131.989C131.292 34.6562 130.727 35.2215 130.727 35.9189V51.1863C130.727 51.8836 131.292 52.4489 131.989 52.4489H147.257C147.954 52.4489 148.519 51.8836 148.519 51.1863V35.9189C148.519 35.2215 147.954 34.6562 147.257 34.6562Z" fill="#31AF40"/>
<path d="M57.4772 37.3419C57.5415 37.136 57.8332 37.136 57.8963 37.3419L59.1375 41.338C59.1665 41.4314 59.2524 41.4933 59.3496 41.492L63.5339 41.4365C63.7498 41.434 63.8394 41.7105 63.6639 41.8355L60.246 44.2508C60.1665 44.3064 60.1337 44.4086 60.1652 44.5008L61.5112 48.4629C61.5806 48.6674 61.3445 48.8379 61.1715 48.7091L57.8193 46.2053C57.741 46.1473 57.6337 46.1473 57.5567 46.2053L54.2045 48.7091C54.0315 48.8379 53.7954 48.6674 53.8648 48.4629L55.2108 44.5008C55.2423 44.4086 55.2095 44.3064 55.13 44.2508L51.7121 41.8355C51.5366 41.7105 51.6262 41.434 51.8421 41.4365L56.0264 41.492C56.1236 41.4933 56.2095 41.4302 56.2385 41.338L57.4797 37.3419H57.4772ZM78.1296 37.3419C78.194 37.136 78.4856 37.136 78.5488 37.3419L79.7899 41.338C79.8189 41.4314 79.9048 41.4933 80.002 41.492L84.1863 41.4365C84.4022 41.434 84.4918 41.7105 84.3163 41.8355L80.8985 44.2508C80.8189 44.3064 80.7861 44.4086 80.8177 44.5008L82.1636 48.4629C82.233 48.6674 81.9969 48.8379 81.8239 48.7091L78.4717 46.2053C78.3935 46.1473 78.2874 46.1473 78.2091 46.2053L74.8569 48.7091C74.6839 48.8379 74.4478 48.6662 74.5173 48.4629L75.8632 44.5008C75.8948 44.4086 75.8619 44.3064 75.7824 44.2508L72.3645 41.8355C72.189 41.7105 72.2787 41.434 72.4946 41.4365L76.6788 41.492C76.7761 41.4933 76.8632 41.4302 76.891 41.338L78.1308 37.3419H78.1296ZM98.7832 37.3419C98.8476 37.136 99.1393 37.136 99.2024 37.3419L100.444 41.338C100.473 41.4314 100.558 41.4933 100.656 41.492L104.84 41.4365C105.056 41.434 105.146 41.7105 104.97 41.8355L101.552 44.2508C101.473 44.3064 101.44 44.4086 101.471 44.5008L102.817 48.4629C102.887 48.6674 102.651 48.8379 102.478 48.7091L99.1254 46.2053C99.0471 46.1473 98.9411 46.1473 98.8628 46.2053L95.5093 48.7091C95.3363 48.8379 95.1002 48.6662 95.1697 48.4629L96.5156 44.5008C96.5472 44.4086 96.5143 44.3064 96.4348 44.2508L93.0169 41.8355C92.8414 41.7105 92.9311 41.434 93.147 41.4365L97.3313 41.492C97.4285 41.4933 97.5156 41.4302 97.5434 41.338L98.7845 37.3419H98.7832ZM119.096 37.3419C119.16 37.136 119.452 37.136 119.515 37.3419L120.756 41.338C120.785 41.4314 120.871 41.4933 120.968 41.492L125.153 41.4365C125.369 41.434 125.458 41.7105 125.283 41.8355L121.865 44.2508C121.785 44.3064 121.753 44.4086 121.784 44.5008L123.13 48.4629C123.2 48.6674 122.963 48.8379 122.79 48.7091L119.438 46.2053C119.36 46.1473 119.254 46.1473 119.176 46.2053L115.823 48.7091C115.65 48.8379 115.414 48.6674 115.484 48.4629L116.83 44.5008C116.861 44.4086 116.828 44.3064 116.749 44.2508L113.331 41.8355C113.155 41.7105 113.245 41.434 113.461 41.4365L117.645 41.492C117.743 41.4933 117.83 41.4302 117.857 41.338L119.099 37.3419H119.096ZM139.408 37.3419C139.472 37.136 139.764 37.136 139.828 37.3419L141.068 41.338C141.097 41.4314 141.183 41.4933 141.281 41.492L145.466 41.4365C145.68 41.434 145.771 41.7105 145.594 41.8355L142.176 44.2508C142.097 44.3064 142.064 44.4086 142.096 44.5008L143.442 48.4629C143.511 48.6674 143.275 48.8379 143.102 48.7091L139.75 46.2053C139.671 46.1473 139.564 46.1473 139.486 46.2053L136.134 48.7091C135.961 48.8379 135.725 48.6662 135.794 48.4629L137.14 44.5008C137.171 44.4086 137.139 44.3064 137.059 44.2508L133.641 41.8355C133.464 41.7105 133.555 41.434 133.77 41.4365L137.956 41.492C138.053 41.4933 138.139 41.4302 138.168 41.338L139.408 37.3419Z" fill="white"/>
<path d="M36.5156 32.7188V54.409" stroke="#E3E3E6" stroke-width="1.25581"/>
</g>
<defs>
<clipPath id="clip0_4803_2324">
<rect width="159.088" height="55.5546" fill="white" transform="translate(0 0.0195312)"/>
</clipPath>
</defs>
</svg>
