<svg width="232" height="58" viewBox="0 0 232 58" fill="none" xmlns="http://www.w3.org/2000/svg">
<path d="M25.5873 3.33294C26.2649 3.70559 26.9311 4.09488 27.5951 4.49111C27.844 4.63694 28.0932 4.78249 28.3424 4.92779C28.8547 5.22683 29.3662 5.52723 29.877 5.82879C30.9979 6.48976 32.1272 7.13611 33.2554 7.7846C33.6859 8.03311 34.1164 8.28174 34.5468 8.53049C35.6272 9.15476 36.7078 9.77853 37.7887 10.4019C38.22 10.6507 38.6512 10.8997 39.0823 11.1489C40.0946 11.7338 41.1077 12.3171 42.124 12.8951C42.4842 13.1 42.8441 13.3055 43.2039 13.511C43.6558 13.769 44.1081 14.026 44.5611 14.282C47.2115 15.7982 47.2115 15.7982 47.6566 16.6883C47.6765 17.0364 47.6836 17.3852 47.6847 17.7338C47.6859 17.9555 47.687 18.1771 47.6882 18.4055C47.6885 18.7719 47.6885 18.7719 47.6889 19.1457C47.6899 19.4022 47.6908 19.6586 47.6919 19.9228C47.6945 20.6274 47.6958 21.332 47.6967 22.0366C47.6973 22.4767 47.6981 22.9169 47.699 23.357C47.7017 24.734 47.7037 26.111 47.7044 27.4879C47.7053 29.0777 47.7089 30.6675 47.7147 32.2573C47.719 33.4859 47.721 34.7145 47.7213 35.943C47.7215 36.6769 47.7227 37.4108 47.7263 38.1447C47.7302 38.9635 47.7293 39.7823 47.728 40.6012C47.7298 40.8443 47.7317 41.0873 47.7336 41.3378C47.7325 41.5611 47.7314 41.7845 47.7302 42.0146C47.7305 42.2082 47.7308 42.4018 47.7311 42.6012C47.6166 43.4232 47.2869 43.9629 46.6285 44.4618C46.3807 44.6015 46.3807 44.6015 46.128 44.744C45.9399 44.8518 45.7518 44.9597 45.5579 45.0707C45.3537 45.1845 45.1495 45.2983 44.9391 45.4156C44.7256 45.5372 44.5121 45.6589 44.2922 45.7842C43.8396 46.0421 43.3865 46.299 42.9328 46.555C42.0558 47.0514 41.1834 47.5558 40.3112 48.0607C39.6592 48.4381 39.0065 48.8144 38.3537 49.1904C37.2629 49.8187 36.1724 50.4476 35.082 51.0768C34.651 51.3255 34.22 51.5741 33.7889 51.8228C32.7803 52.4045 31.7719 52.9865 30.7638 53.5691C30.4085 53.7745 30.0531 53.9798 29.6977 54.185C29.2531 54.4419 28.8085 54.6989 28.3641 54.956C27.7828 55.2917 27.2006 55.6259 26.6183 55.9597C26.446 56.0598 26.2737 56.1599 26.0963 56.2631C25.9377 56.3539 25.7791 56.4446 25.6157 56.5381C25.4105 56.6566 25.4105 56.6566 25.2012 56.7774C24.5173 57.1035 23.93 57.1447 23.2121 56.9616C21.3574 56.0963 19.6093 54.9419 17.8523 53.8935C17.579 53.7308 17.3055 53.5681 17.0321 53.4055C15.7178 52.6233 14.4053 51.838 13.0945 51.05C12.0543 50.4249 11.011 49.8055 9.96534 49.1896C9.69205 49.0284 9.41877 48.8672 9.14549 48.7059C8.73213 48.462 8.31864 48.2184 7.90471 47.9755C3.45967 45.3657 3.45967 45.3657 2.77492 44.3386C2.68626 43.5407 2.66254 43.1027 3.11753 42.428C3.58435 41.9256 3.98058 41.6454 4.58133 41.3214C4.87926 41.1581 4.87926 41.1581 5.1832 40.9915C5.3968 40.8769 5.6104 40.7624 5.83048 40.6444C6.28673 40.3946 6.74276 40.1444 7.19859 39.8938C7.5463 39.7032 7.5463 39.7032 7.90104 39.5088C8.94086 38.932 9.96543 38.3302 10.9899 37.7266C12.6444 36.7546 14.3101 35.8052 15.9865 34.8714C18.1656 33.6554 18.1656 33.6554 20.3319 32.4169C20.529 32.3048 20.529 32.3048 20.7302 32.1905C21.9974 31.4501 23.1244 30.7436 23.6128 29.3113C23.6751 28.8104 23.6751 28.8104 23.671 28.2874C23.6736 28.0889 23.6762 27.8903 23.6788 27.6857C23.6792 27.4737 23.6797 27.2616 23.6801 27.0431C23.6815 26.8236 23.6828 26.604 23.6842 26.3779C23.6862 25.9147 23.6871 25.4516 23.6871 24.9885C23.688 24.2782 23.6953 23.5683 23.7028 22.8581C23.704 22.4081 23.7048 21.958 23.7052 21.508C23.7081 21.2951 23.7109 21.0822 23.7139 20.8629C23.7121 20.5669 23.7121 20.5669 23.7102 20.265C23.7107 20.0914 23.7113 19.9178 23.7119 19.7389C23.6488 19.2607 23.6488 19.2607 23.2359 18.9303C22.8228 18.6488 22.8228 18.6488 22.3326 18.7157C21.7234 18.9214 21.2103 19.192 20.6535 19.5145C20.4284 19.6441 20.2033 19.7736 19.9713 19.9071C19.7283 20.0488 19.4853 20.1906 19.2424 20.3324C18.9895 20.4786 18.7366 20.6247 18.4837 20.7707C17.7211 21.2113 16.9602 21.6546 16.1993 22.0981C15.9851 22.2228 15.7708 22.3475 15.55 22.476C14.5654 23.049 13.5815 23.6234 12.5983 24.1988C11.0727 25.0904 9.5409 25.9712 8.00787 26.8499C7.07733 27.3847 6.15036 27.9214 5.24112 28.4918C5.03697 28.6191 5.03697 28.6191 4.8287 28.7491C4.48632 28.9647 4.14627 29.1839 3.80648 29.4036C3.01934 29.7884 2.44673 29.8663 1.57273 29.9124C0.988525 29.6711 0.685133 29.4919 0.347371 28.9579C0.130639 28.4098 0.1179 27.9787 0.115146 27.3895C0.112281 27.0524 0.112281 27.0524 0.109358 26.7086C0.109541 26.4667 0.109723 26.2247 0.109911 25.9755C0.109053 25.726 0.108194 25.4765 0.10731 25.2194C0.106159 24.6915 0.105871 24.1638 0.106928 23.6359C0.107857 23.0956 0.106466 22.5554 0.102819 22.0152C0.0979081 21.2356 0.0970771 20.4561 0.0973887 19.6765C0.0955434 19.4354 0.0936981 19.1944 0.0917969 18.9459C0.103542 16.8193 0.103542 16.8193 0.771271 15.8868C1.24374 15.5443 1.67707 15.2718 2.18635 14.9977C2.49579 14.8235 2.8052 14.6492 3.1146 14.4749C3.36923 14.3337 3.36923 14.3337 3.62901 14.1896C4.42918 13.7426 5.22141 13.2821 6.01445 12.8226C6.68224 12.4357 7.35081 12.0502 8.01962 11.6651C8.24577 11.5349 8.47193 11.4046 8.70494 11.2704C9.04253 11.076 9.04253 11.076 9.38695 10.8777C11.9655 9.39269 14.5432 7.90627 17.1135 6.40709C17.4096 6.2344 17.4096 6.2344 17.7117 6.05821C18.6232 5.52598 19.5336 4.99195 20.4414 4.45354C20.5996 4.35986 20.7578 4.26619 20.9208 4.16967C21.2116 3.9972 21.5022 3.82423 21.7924 3.65066C23.1584 2.84044 24.1289 2.64591 25.5873 3.33294Z" fill="#5570FA"/>
<path d="M23.6123 30.1133C25.3186 30.9265 26.9681 31.8175 28.6088 32.7556C30.1662 33.6455 31.7351 34.5019 33.3299 35.3228C35.0373 36.2024 36.7122 37.1265 38.3783 38.0815C40.4176 39.2433 42.4943 40.3336 44.5734 41.4219C44.7085 41.493 44.8437 41.564 44.9829 41.6373C45.2379 41.7714 45.4932 41.9049 45.7489 42.0377C46.2513 42.3023 46.6506 42.5323 47.0549 42.9366C47.1342 43.5237 47.1342 43.5237 47.0549 44.1388C46.6961 44.4851 46.6961 44.4851 46.1861 44.7642C45.9961 44.8713 45.806 44.9785 45.6102 45.0889C45.2963 45.2571 45.2963 45.2571 44.9761 45.4286C44.5315 45.677 44.087 45.9253 43.6424 46.1737C43.4113 46.3008 43.1801 46.4279 42.942 46.5588C41.841 47.1681 40.7546 47.8023 39.6665 48.4341C39.2288 48.6866 38.791 48.9389 38.3531 49.191C37.2623 49.8193 36.1718 50.4482 35.0814 51.0773C34.6504 51.326 34.2194 51.5747 33.7883 51.8233C32.7798 52.4051 31.7713 52.987 30.7632 53.5697C30.4079 53.775 30.0525 53.9803 29.6972 54.1856C29.2525 54.4424 28.808 54.6994 28.3635 54.9565C27.7822 55.2922 27.2001 55.6264 26.6177 55.9603C26.4454 56.0604 26.2732 56.1605 26.0957 56.2636C25.9371 56.3544 25.7785 56.4452 25.6151 56.5387C25.41 56.6571 25.41 56.6571 25.2006 56.778C24.5168 57.1041 23.9294 57.1453 23.2115 56.9621C21.3569 56.0968 19.6087 54.9424 17.8518 53.894C17.5784 53.7313 17.305 53.5687 17.0315 53.406C15.7172 52.6239 14.4048 51.8386 13.0939 51.0506C12.0538 50.4255 11.0104 49.8061 9.96477 49.1902C9.69148 49.029 9.4182 48.8677 9.14492 48.7065C8.73156 48.4626 8.31807 48.219 7.90414 47.9761C3.4591 45.3663 3.4591 45.3663 2.77434 44.3392C2.68569 43.5412 2.66197 43.1032 3.11696 42.4286C3.58378 41.9262 3.98 41.646 4.58076 41.322C4.77937 41.2131 4.97799 41.1042 5.18263 40.9921C5.50303 40.8202 5.50303 40.8202 5.8299 40.6449C6.28616 40.3951 6.74219 40.1449 7.19802 39.8944C7.42983 39.7673 7.66163 39.6403 7.90047 39.5094C8.94029 38.9325 9.96486 38.3307 10.9893 37.7271C12.6439 36.7551 14.3095 35.8058 15.9859 34.8719C19.965 32.744 19.965 32.744 23.6123 30.1133Z" fill="#3655FE"/>
<path d="M23.2121 3.86401C23.7087 4.27064 23.982 4.51091 24.1122 5.14897C24.1111 5.42047 24.1111 5.42047 24.1099 5.69746C24.111 5.90592 24.1121 6.11439 24.1133 6.32918C24.1104 6.55674 24.1075 6.78431 24.1045 7.01877C24.1047 7.25926 24.1048 7.49975 24.1049 7.74753C24.1044 8.40616 24.1004 9.06464 24.0948 9.72324C24.0898 10.4118 24.0893 11.1004 24.0884 11.789C24.0859 13.0925 24.0793 14.396 24.0713 15.6996C24.0623 17.1837 24.0579 18.6679 24.0539 20.1521C24.0455 23.2049 24.0314 26.2576 24.0136 29.3103C23.9474 29.3103 23.8813 29.3103 23.8132 29.3103C23.8121 29.124 23.8121 29.124 23.811 28.934C23.8026 27.6436 23.7887 26.3534 23.7716 25.0631C23.766 24.5813 23.7617 24.0995 23.7589 23.6177C23.7546 22.9258 23.7453 22.2341 23.7349 21.5423C23.7347 21.3262 23.7344 21.1102 23.7342 20.8876C23.7302 20.6871 23.7263 20.4866 23.7222 20.28C23.7204 20.1033 23.7186 19.9267 23.7168 19.7447C23.649 19.2606 23.649 19.2606 23.2352 18.9283C22.8225 18.6479 22.8225 18.6479 22.3326 18.7147C21.7234 18.9205 21.2103 19.191 20.6535 19.5136C20.4284 19.6431 20.2033 19.7727 19.9713 19.9061C19.7283 20.0479 19.4853 20.1897 19.2424 20.3315C18.9895 20.4777 18.7366 20.6237 18.4837 20.7697C17.7211 21.2103 16.9602 21.6536 16.1993 22.0972C15.9851 22.2219 15.7708 22.3465 15.55 22.475C14.5654 23.0481 13.5815 23.6225 12.5983 24.1979C11.0727 25.0895 9.5409 25.9703 8.00787 26.8489C7.07733 27.3837 6.15036 27.9204 5.24112 28.4908C5.10502 28.5757 4.96892 28.6606 4.8287 28.7481C4.48632 28.9637 4.14627 29.183 3.80648 29.4027C3.01934 29.7874 2.44673 29.8653 1.57273 29.9114C0.988525 29.6701 0.685133 29.4909 0.347371 28.9569C0.130639 28.4089 0.1179 27.9778 0.115146 27.3885C0.112281 27.0515 0.112281 27.0515 0.109358 26.7076C0.109541 26.4657 0.109723 26.2238 0.109911 25.9745C0.109053 25.725 0.108194 25.4755 0.10731 25.2185C0.106159 24.6906 0.105871 24.1628 0.106928 23.6349C0.107857 23.0947 0.106466 22.5545 0.102819 22.0142C0.0979081 21.2346 0.0970771 20.4552 0.0973887 19.6756C0.0955434 19.4345 0.0936981 19.1934 0.0917969 18.945C0.103542 16.8183 0.103542 16.8183 0.771271 15.8859C1.24374 15.5433 1.67707 15.2708 2.18635 14.9968C2.49579 14.8225 2.8052 14.6483 3.1146 14.4739C3.36923 14.3327 3.36923 14.3327 3.62901 14.1887C4.42918 13.7416 5.22141 13.2811 6.01445 12.8216C6.68224 12.4347 7.35081 12.0492 8.01961 11.6641C8.24577 11.5339 8.47193 11.4037 8.70494 11.2695C9.04253 11.0751 9.04253 11.0751 9.38695 10.8768C11.9946 9.37493 14.6013 7.87149 17.2012 6.35604C17.4898 6.18787 17.4898 6.18787 17.7844 6.01631C17.968 5.90914 18.1516 5.80197 18.3407 5.69155C18.6061 5.53707 18.6061 5.53707 18.8768 5.37946C19.2382 5.16516 19.5969 4.94615 19.9531 4.72319C20.2158 4.5594 20.2158 4.5594 20.4837 4.39231C20.7158 4.24458 20.7158 4.24458 20.9526 4.09387C21.6741 3.73032 22.4337 3.63079 23.2121 3.86401Z" fill="#3B5AF3"/>
<path d="M72.7516 20.1172L71.445 16.4074H66.3372L65.0305 20.1172H62.7188L67.6895 6.70345H70.1201L75.0817 20.1172H72.7516ZM70.8785 14.5251L69.6084 10.8701C69.5596 10.7117 69.4896 10.4894 69.3982 10.2031C69.3068 9.91069 69.2155 9.61524 69.1241 9.31675C69.0327 9.01217 68.9566 8.75632 68.8956 8.54921C68.8347 8.79897 68.7586 9.07918 68.6672 9.38985C68.5819 9.69443 68.4966 9.98074 68.4114 10.2488C68.3322 10.5168 68.2713 10.7239 68.2286 10.8701L66.9494 14.5251H70.8785ZM88.0568 9.81017C89.1899 9.81017 90.0427 10.1026 90.6153 10.6874C91.194 11.2722 91.4834 12.2103 91.4834 13.5017V20.1172H89.3361V13.8855C89.3361 13.1179 89.1868 12.5392 88.8883 12.1494C88.5898 11.7595 88.136 11.5646 87.5269 11.5646C86.674 11.5646 86.0588 11.8387 85.6811 12.3869C85.3095 12.9291 85.1237 13.7179 85.1237 14.7535V20.1172H82.9764V13.8855C82.9764 13.3738 82.9094 12.9474 82.7754 12.6062C82.6475 12.259 82.4495 12.0001 82.1815 11.8295C81.9134 11.6529 81.5753 11.5646 81.1672 11.5646C80.5763 11.5646 80.1042 11.6986 79.7509 11.9666C79.4037 12.2346 79.1539 12.6306 79.0016 13.1545C78.8493 13.6723 78.7732 14.3088 78.7732 15.0642V20.1172H76.6259V10.0021H78.2981L78.5996 11.3635H78.7184C78.9255 11.0102 79.1813 10.7209 79.4859 10.4955C79.7966 10.264 80.1408 10.0934 80.5185 9.98378C80.8961 9.86804 81.289 9.81017 81.6972 9.81017C82.4525 9.81017 83.0891 9.94419 83.6069 10.2122C84.1247 10.4742 84.5115 10.8762 84.7674 11.4184H84.9318C85.2486 10.8701 85.6902 10.465 86.2568 10.2031C86.8233 9.94114 87.4233 9.81017 88.0568 9.81017ZM96.6277 5.89936V9.32589C96.6277 9.72185 96.6155 10.1117 96.5912 10.4955C96.5729 10.8732 96.5546 11.1686 96.5364 11.3818H96.6277C96.9019 10.9432 97.2826 10.5747 97.7699 10.2762C98.2633 9.9716 98.8938 9.81931 99.6614 9.81931C100.861 9.81931 101.827 10.261 102.558 11.1442C103.289 12.0214 103.654 13.322 103.654 15.0459C103.654 16.1911 103.487 17.1536 103.152 17.9333C102.817 18.7131 102.345 19.304 101.736 19.706C101.132 20.102 100.423 20.2999 99.6065 20.2999C98.839 20.2999 98.2176 20.1598 97.7425 19.8796C97.2734 19.5933 96.9049 19.2613 96.6369 18.8836H96.4815L96.0886 20.1172H94.4804V5.89936H96.6277ZM99.0948 11.5646C98.4857 11.5646 98.0014 11.6864 97.642 11.9301C97.2887 12.1737 97.0328 12.5392 96.8744 13.0265C96.7161 13.5078 96.6338 14.12 96.6277 14.8632V15.0551C96.6277 16.182 96.8044 17.044 97.1577 17.6409C97.5171 18.2379 98.1689 18.5364 99.1131 18.5364C99.8624 18.5364 100.438 18.2349 100.84 17.6318C101.242 17.0226 101.443 16.1515 101.443 15.0185C101.443 13.8733 101.242 13.0113 100.84 12.4326C100.444 11.8539 99.8624 11.5646 99.0948 11.5646ZM108.287 10.0021V20.1172H106.14V10.0021H108.287ZM107.227 6.12779C107.556 6.12779 107.839 6.21612 108.077 6.39278C108.321 6.56943 108.442 6.87401 108.442 7.30652C108.442 7.73293 108.321 8.03751 108.077 8.22026C107.839 8.39692 107.556 8.48525 107.227 8.48525C106.886 8.48525 106.597 8.39692 106.359 8.22026C106.128 8.03751 106.012 7.73293 106.012 7.30652C106.012 6.87401 106.128 6.56943 106.359 6.39278C106.597 6.21612 106.886 6.12779 107.227 6.12779ZM115.131 18.5638C115.411 18.5638 115.688 18.5395 115.963 18.4907C116.237 18.4359 116.486 18.3719 116.712 18.2988V19.9253C116.474 20.0289 116.167 20.1172 115.789 20.1903C115.411 20.2634 115.018 20.2999 114.61 20.2999C114.038 20.2999 113.523 20.2055 113.066 20.0167C112.609 19.8217 112.247 19.4898 111.979 19.0207C111.711 18.5516 111.577 17.9029 111.577 17.0744V11.6377H110.197V10.6782L111.677 9.91982L112.381 7.75425H113.733V10.0021H116.63V11.6377H113.733V17.047C113.733 17.5587 113.861 17.9394 114.117 18.1892C114.373 18.4389 114.711 18.5638 115.131 18.5638ZM120.915 10.0021V20.1172H118.768V10.0021H120.915ZM119.855 6.12779C120.184 6.12779 120.467 6.21612 120.705 6.39278C120.949 6.56943 121.07 6.87401 121.07 7.30652C121.07 7.73293 120.949 8.03751 120.705 8.22026C120.467 8.39692 120.184 8.48525 119.855 8.48525C119.514 8.48525 119.225 8.39692 118.987 8.22026C118.756 8.03751 118.64 7.73293 118.64 7.30652C118.64 6.87401 118.756 6.56943 118.987 6.39278C119.225 6.21612 119.514 6.12779 119.855 6.12779ZM132.949 15.0368C132.949 15.8774 132.839 16.6236 132.62 17.2754C132.401 17.9273 132.081 18.4785 131.661 18.9293C131.24 19.374 130.735 19.7151 130.144 19.9527C129.553 20.1842 128.886 20.2999 128.143 20.2999C127.448 20.2999 126.812 20.1842 126.233 19.9527C125.654 19.7151 125.152 19.374 124.725 18.9293C124.305 18.4785 123.979 17.9273 123.748 17.2754C123.516 16.6236 123.4 15.8774 123.4 15.0368C123.4 13.922 123.592 12.9778 123.976 12.2042C124.366 11.4245 124.92 10.8305 125.639 10.4224C126.358 10.0142 127.214 9.81017 128.207 9.81017C129.139 9.81017 129.961 10.0142 130.674 10.4224C131.386 10.8305 131.944 11.4245 132.346 12.2042C132.748 12.9839 132.949 13.9281 132.949 15.0368ZM125.612 15.0368C125.612 15.7739 125.7 16.4043 125.877 16.9282C126.059 17.4521 126.34 17.8542 126.717 18.1344C127.095 18.4085 127.582 18.5456 128.179 18.5456C128.776 18.5456 129.264 18.4085 129.641 18.1344C130.019 17.8542 130.296 17.4521 130.473 16.9282C130.649 16.4043 130.738 15.7739 130.738 15.0368C130.738 14.2997 130.649 13.6753 130.473 13.1636C130.296 12.6458 130.019 12.2529 129.641 11.9849C129.264 11.7108 128.773 11.5737 128.17 11.5737C127.281 11.5737 126.632 11.8722 126.224 12.4692C125.816 13.0661 125.612 13.922 125.612 15.0368ZM140.688 9.81017C141.828 9.81017 142.714 10.1056 143.347 10.6965C143.987 11.2813 144.307 12.2225 144.307 13.52V20.1172H142.16V13.922C142.16 13.1362 141.998 12.5484 141.675 12.1585C141.352 11.7625 140.853 11.5646 140.177 11.5646C139.196 11.5646 138.514 11.8661 138.13 12.4692C137.752 13.0722 137.563 13.9464 137.563 15.0916V20.1172H135.416V10.0021H137.088L137.39 11.3727H137.509C137.728 11.0194 137.999 10.73 138.322 10.5046C138.651 10.2731 139.016 10.0995 139.418 9.98378C139.826 9.86804 140.25 9.81017 140.688 9.81017ZM147.532 6.75827H151.507C153.231 6.75827 154.532 7.00803 155.409 7.50754C156.286 8.00706 156.725 8.86902 156.725 10.0934C156.725 10.6051 156.633 11.0681 156.45 11.4823C156.274 11.8905 156.015 12.2285 155.674 12.4966C155.333 12.7585 154.912 12.9352 154.413 13.0265V13.1179C154.931 13.2093 155.391 13.3707 155.793 13.6022C156.201 13.8337 156.52 14.1657 156.752 14.5982C156.99 15.0307 157.108 15.5911 157.108 16.2795C157.108 17.0957 156.913 17.7902 156.524 18.3628C156.14 18.9354 155.588 19.371 154.87 19.6695C154.157 19.9679 153.31 20.1172 152.329 20.1172H147.532V6.75827ZM149.725 12.2681H151.827C152.82 12.2681 153.508 12.1067 153.892 11.7839C154.276 11.461 154.468 10.9889 154.468 10.3676C154.468 9.73403 154.239 9.27716 153.782 8.99694C153.332 8.71673 152.613 8.57662 151.626 8.57662H149.725V12.2681ZM149.725 14.0408V18.2806H152.037C153.06 18.2806 153.779 18.0826 154.193 17.6866C154.608 17.2907 154.815 16.7546 154.815 16.0784C154.815 15.6642 154.72 15.3048 154.532 15.0002C154.349 14.6956 154.047 14.4611 153.627 14.2966C153.207 14.1261 152.64 14.0408 151.927 14.0408H149.725ZM168.603 15.0368C168.603 15.8774 168.494 16.6236 168.274 17.2754C168.055 17.9273 167.735 18.4785 167.315 18.9293C166.895 19.374 166.389 19.7151 165.798 19.9527C165.207 20.1842 164.54 20.2999 163.797 20.2999C163.102 20.2999 162.466 20.1842 161.887 19.9527C161.309 19.7151 160.806 19.374 160.38 18.9293C159.959 18.4785 159.633 17.9273 159.402 17.2754C159.17 16.6236 159.055 15.8774 159.055 15.0368C159.055 13.922 159.246 12.9778 159.63 12.2042C160.02 11.4245 160.574 10.8305 161.293 10.4224C162.012 10.0142 162.868 9.81017 163.861 9.81017C164.793 9.81017 165.615 10.0142 166.328 10.4224C167.041 10.8305 167.598 11.4245 168 12.2042C168.402 12.9839 168.603 13.9281 168.603 15.0368ZM161.266 15.0368C161.266 15.7739 161.354 16.4043 161.531 16.9282C161.714 17.4521 161.994 17.8542 162.371 18.1344C162.749 18.4085 163.237 18.5456 163.833 18.5456C164.43 18.5456 164.918 18.4085 165.295 18.1344C165.673 17.8542 165.95 17.4521 166.127 16.9282C166.304 16.4043 166.392 15.7739 166.392 15.0368C166.392 14.2997 166.304 13.6753 166.127 13.1636C165.95 12.6458 165.673 12.2529 165.295 11.9849C164.918 11.7108 164.427 11.5737 163.824 11.5737C162.935 11.5737 162.286 11.8722 161.878 12.4692C161.47 13.0661 161.266 13.922 161.266 15.0368ZM173.309 14.9454L169.928 10.0021H172.377L174.689 13.5565L177.01 10.0021H179.449L176.05 14.9454L179.623 20.1172H177.165L174.689 16.3252L172.203 20.1172H169.764L173.309 14.9454Z" fill="black"/>
<path d="M66.304 42.7501L67.0586 36.0997H74.3924V38.2659H69.1892L68.8659 41.0786C69.4705 40.7521 70.1471 40.5821 70.8342 40.584C72.0801 40.584 73.0568 40.9705 73.7643 41.7436C74.4718 42.5166 74.8249 43.598 74.8249 44.9877C74.8249 45.8321 74.6455 46.5902 74.2854 47.262C73.9322 47.9269 73.4226 48.4457 72.7577 48.8173C72.0927 49.1831 71.307 49.3661 70.4028 49.3661C69.6125 49.3661 68.8786 49.2073 68.201 48.8898C67.5245 48.5665 66.9873 48.1133 66.5927 47.5323C66.2027 46.9514 65.9968 46.2888 65.9727 45.5456H68.5426C68.5967 46.0909 68.7854 46.5165 69.1086 46.8214C69.4376 47.1205 69.8667 47.2712 70.3936 47.2712C70.9803 47.2712 71.4336 47.0618 71.7511 46.6419C72.0686 46.2163 72.2273 45.6169 72.2273 44.845C72.2273 44.1019 72.0444 43.5324 71.6786 43.1378C71.3128 42.7432 70.7951 42.5442 70.1233 42.5442C69.5055 42.5442 69.0062 42.7064 68.622 43.0297L68.3701 43.2632L66.3028 42.7513L66.304 42.7501ZM77.4662 47.9085C77.4662 47.4955 77.6043 47.1596 77.8792 46.9019C78.1611 46.6442 78.5108 46.5154 78.9307 46.5154C79.3563 46.5154 79.706 46.6442 79.9821 46.9019C80.1213 47.0291 80.2311 47.1849 80.304 47.3588C80.3769 47.5326 80.4111 47.7202 80.4043 47.9085C80.4043 48.3157 80.2663 48.6482 79.9913 48.9059C79.7153 49.1578 79.3621 49.2832 78.9307 49.2832C78.505 49.2832 78.1542 49.1578 77.8792 48.9059C77.6031 48.6482 77.4662 48.3157 77.4662 47.9085ZM92.1245 43.774C92.1245 45.5836 91.7507 46.9675 91.0006 47.9258C90.2505 48.884 89.1554 49.3638 87.7116 49.3638C86.2851 49.3638 85.1957 48.8932 84.4399 47.9522C83.6841 47.0112 83.2987 45.6629 83.2803 43.9074V41.4985C83.2803 39.6717 83.6576 38.2843 84.4123 37.3376C85.1727 36.3908 86.2667 35.918 87.6932 35.918C89.1197 35.918 90.2103 36.3885 90.9649 37.3284C91.7196 38.2636 92.1061 39.6084 92.1245 41.3639V43.7728V43.774ZM89.5269 41.1315C89.5269 40.0467 89.3774 39.2587 89.0771 38.7675C88.7838 38.2705 88.3225 38.022 87.6932 38.022C87.0824 38.022 86.6303 38.259 86.3358 38.7318C86.0482 39.1989 85.8952 39.9328 85.8779 40.9337V44.1157C85.8779 45.1821 86.0217 45.9759 86.3093 46.497C86.6026 47.0124 87.0709 47.27 87.7116 47.27C88.3466 47.27 88.8057 47.0216 89.0863 46.5246C89.367 46.0276 89.5143 45.2661 89.5269 44.2422V41.1327V41.1315Z" fill="black"/>
<path d="M115.304 30.9867C115.726 29.9732 117.162 29.9732 117.584 30.9867L119.836 36.4002C119.923 36.6099 120.066 36.7914 120.25 36.9249C120.434 37.0584 120.65 37.1387 120.877 37.157L126.721 37.6261C127.816 37.7138 128.259 39.0804 127.426 39.794L122.973 43.6087C122.801 43.7564 122.672 43.9488 122.602 44.1646C122.532 44.3804 122.523 44.6114 122.575 44.8322L123.936 50.5358C124.19 51.6037 123.028 52.4481 122.091 51.8753L117.088 48.8185C116.894 48.7 116.671 48.6374 116.444 48.6374C116.217 48.6374 115.994 48.7 115.8 48.8185L110.797 51.8753C109.86 52.4481 108.698 51.6037 108.952 50.5358L110.313 44.8322C110.365 44.6114 110.356 44.3804 110.286 44.1646C110.216 43.9488 110.087 43.7564 109.915 43.6087L105.462 39.794C104.629 39.0792 105.072 37.7138 106.167 37.6261L112.011 37.157C112.238 37.1387 112.455 37.0584 112.638 36.9249C112.822 36.7914 112.965 36.6099 113.052 36.4002L115.304 30.9867Z" fill="#5570FA"/>
<path d="M141.329 30.9867C141.752 29.9732 143.187 29.9732 143.61 30.9867L145.861 36.4002C145.948 36.6099 146.092 36.7914 146.275 36.9249C146.459 37.0584 146.676 37.1387 146.902 37.157L152.746 37.6261C153.841 37.7138 154.285 39.0804 153.451 39.794L148.998 43.6087C148.826 43.7564 148.698 43.9488 148.628 44.1646C148.558 44.3804 148.548 44.6114 148.601 44.8322L149.961 50.5358C150.216 51.6037 149.054 52.4481 148.117 51.8753L143.113 48.8185C142.919 48.7 142.697 48.6374 142.469 48.6374C142.242 48.6374 142.019 48.7 141.826 48.8185L136.822 51.8753C135.885 52.4481 134.723 51.6037 134.978 50.5358L136.338 44.8322C136.391 44.6114 136.381 44.3804 136.311 44.1646C136.241 43.9488 136.113 43.7564 135.941 43.6087L131.488 39.794C130.654 39.0792 131.097 37.7138 132.192 37.6261L138.037 37.157C138.263 37.1387 138.48 37.0584 138.664 36.9249C138.847 36.7914 138.99 36.6099 139.078 36.4002L141.329 30.9867Z" fill="#5570FA"/>
<path d="M167.357 30.9867C167.779 29.9732 169.215 29.9732 169.637 30.9867L171.889 36.4002C171.976 36.6099 172.119 36.7914 172.303 36.9249C172.486 37.0584 172.703 37.1387 172.929 37.157L178.774 37.6261C179.869 37.7138 180.312 39.0804 179.479 39.794L175.026 43.6087C174.853 43.7564 174.725 43.9488 174.655 44.1646C174.585 44.3804 174.576 44.6114 174.628 44.8322L175.989 50.5358C176.243 51.6037 175.081 52.4481 174.144 51.8753L169.141 48.8185C168.947 48.7 168.724 48.6374 168.497 48.6374C168.27 48.6374 168.047 48.7 167.853 48.8185L162.849 51.8753C161.912 52.4481 160.751 51.6037 161.005 50.5358L162.365 44.8322C162.418 44.6114 162.409 44.3804 162.339 44.1646C162.268 43.9488 162.14 43.7564 161.968 43.6087L157.515 39.794C156.682 39.0792 157.125 37.7138 158.22 37.6261L164.064 37.157C164.29 37.1387 164.507 37.0584 164.691 36.9249C164.875 36.7914 165.018 36.6099 165.105 36.4002L167.357 30.9867Z" fill="#5570FA"/>
<path d="M193.376 30.9867C193.798 29.9732 195.234 29.9732 195.656 30.9867L197.908 36.4002C197.995 36.6099 198.139 36.7914 198.322 36.9249C198.506 37.0584 198.723 37.1387 198.949 37.157L204.793 37.6261C205.888 37.7138 206.332 39.0804 205.498 39.794L201.045 43.6087C200.873 43.7564 200.745 43.9488 200.675 44.1646C200.604 44.3804 200.595 44.6114 200.648 44.8322L202.008 50.5358C202.262 51.6037 201.101 52.4481 200.164 51.8753L195.16 48.8185C194.966 48.7 194.743 48.6374 194.516 48.6374C194.289 48.6374 194.066 48.7 193.872 48.8185L188.869 51.8753C187.932 52.4481 186.77 51.6037 187.024 50.5358L188.385 44.8322C188.438 44.6114 188.428 44.3804 188.358 44.1646C188.288 43.9488 188.16 43.7564 187.987 43.6087L183.534 39.794C182.701 39.0792 183.144 37.7138 184.239 37.6261L190.084 37.157C190.31 37.1387 190.527 37.0584 190.71 36.9249C190.894 36.7914 191.037 36.6099 191.124 36.4002L193.376 30.9867Z" fill="#5570FA"/>
<path d="M219.364 30.9867C219.787 29.9732 221.222 29.9732 221.645 30.9867L223.897 36.4002C223.984 36.6099 224.127 36.7914 224.31 36.9249C224.494 37.0584 224.711 37.1387 224.937 37.157L230.782 37.6261C231.877 37.7138 232.32 39.0804 231.486 39.794L227.033 43.6087C226.861 43.7564 226.733 43.9488 226.663 44.1646C226.593 44.3804 226.583 44.6114 226.636 44.8322L227.996 50.5358C228.251 51.6037 227.089 52.4481 226.152 51.8753L221.148 48.8185C220.955 48.7 220.732 48.6374 220.505 48.6374C220.277 48.6374 220.055 48.7 219.861 48.8185L214.857 51.8753C213.92 52.4481 212.758 51.6037 213.013 50.5358L214.373 44.8322C214.426 44.6114 214.417 44.3804 214.346 44.1646C214.276 43.9488 214.148 43.7564 213.976 43.6087L209.523 39.794C208.689 39.0792 209.133 37.7138 210.228 37.6261L216.072 37.157C216.298 37.1387 216.515 37.0584 216.699 36.9249C216.882 36.7914 217.026 36.6099 217.113 36.4002L219.364 30.9867Z" fill="#5570FA"/>
</svg>
