<svg width="98" height="97" viewBox="0 0 98 97" fill="none" xmlns="http://www.w3.org/2000/svg">
<circle cx="14.5306" cy="25.1302" r="2.29423" fill="white"/>
<circle cx="83.3567" cy="71.013" r="2.29423" fill="white"/>
<path d="M20.7481 12.6499C20.6233 12.7426 20.4832 12.7774 20.3279 12.7544C20.1725 12.7315 20.0485 12.6576 19.9559 12.5328L19.9294 12.4971C19.8367 12.3723 19.8019 12.2322 19.8248 12.0768C19.8478 11.9215 19.9217 11.7975 20.0465 11.7048L20.1 11.6651C20.2249 11.5724 20.3649 11.5376 20.5203 11.5606C20.6756 11.5836 20.7996 11.6575 20.8923 11.7823L20.9188 11.8179C21.0114 11.9428 21.0463 12.0828 21.0233 12.2382C21.0003 12.3935 20.9264 12.5175 20.8016 12.6102L20.7481 12.6499ZM24.8629 18.1557C24.7499 18.2395 24.6262 18.2715 24.4915 18.2515C24.3569 18.2316 24.2477 18.1652 24.1638 18.0523L21.3244 14.2273C21.2406 14.1144 21.2086 13.9906 21.2285 13.856C21.244 13.7154 21.3083 13.6032 21.4212 13.5194C21.5401 13.4311 21.6668 13.3969 21.8015 13.4169C21.9361 13.4368 22.0475 13.5062 22.1358 13.625L24.9752 17.45C25.059 17.5629 25.088 17.6889 25.0622 17.828C25.0422 17.9626 24.9758 18.0718 24.8629 18.1557Z" fill="white"/>
<path d="M28.2019 15.7519C28.0762 15.815 27.9487 15.8252 27.8195 15.7823C27.6904 15.7395 27.5942 15.6552 27.5311 15.5295L24.4822 9.45617C24.4191 9.33047 24.409 9.20302 24.4518 9.07384C24.4913 8.93804 24.5739 8.83859 24.6996 8.77549L27.0118 7.61471C27.9116 7.16302 28.6794 7.0095 29.3153 7.15414C29.9512 7.29879 30.4202 7.67213 30.7224 8.27417C30.9217 8.67112 30.9919 9.09146 30.933 9.53517C30.8775 9.96895 30.6745 10.3649 30.3241 10.723C30.8636 10.6096 31.3372 10.7445 31.745 11.1279C32.1562 11.5014 32.4746 11.913 32.7005 12.3629L32.9296 12.8194C32.9928 12.9451 33.0029 13.0725 32.9601 13.2017C32.9172 13.3309 32.833 13.427 32.7073 13.4901C32.5683 13.5599 32.4359 13.5767 32.3101 13.5404C32.1875 13.4943 32.093 13.4051 32.0266 13.2727L31.8771 12.975C31.7111 12.6442 31.5285 12.3548 31.3295 12.1069C31.1271 11.8523 30.8587 11.6723 30.5241 11.5669C30.1863 11.4549 29.7891 11.5134 29.3326 11.7426L27.2784 12.7739L28.4342 15.0762C28.4973 15.2019 28.5041 15.331 28.4547 15.4635C28.4118 15.5927 28.3276 15.6888 28.2019 15.7519ZM28.6461 11.0187C29.2151 10.7331 29.6085 10.3947 29.8264 10.0037C30.0509 9.60943 30.0602 9.20717 29.8542 8.79699C29.655 8.40004 29.3566 8.16877 28.9593 8.1032C28.5685 8.03431 28.0258 8.17423 27.3311 8.52296L25.5845 9.39977L26.8499 11.9204L28.6461 11.0187Z" fill="white"/>
<path d="M38.9594 11.4509C38.4043 11.5804 37.8899 11.5749 37.4163 11.4346C36.9427 11.2942 36.54 11.0347 36.2085 10.6559C35.8824 10.2683 35.6538 9.79335 35.5226 9.23103C35.3914 8.66872 35.3871 8.14522 35.5097 7.66054C35.6378 7.16696 35.8832 6.75245 36.2458 6.41701C36.6084 6.08157 37.0673 5.8491 37.6224 5.7196C38.1703 5.59179 38.6811 5.59806 39.1547 5.73843C39.6283 5.87879 40.0318 6.14194 40.3651 6.52788C40.6967 6.90662 40.928 7.37714 41.0592 7.93946C41.1904 8.50177 41.1919 9.02972 41.0638 9.52329C40.934 10.0097 40.6878 10.4206 40.3252 10.756C39.9626 11.0914 39.5073 11.3231 38.9594 11.4509ZM38.75 10.5533C39.0456 10.4844 39.3108 10.3503 39.5456 10.1511C39.7876 9.95024 39.9606 9.68183 40.0647 9.3459C40.1759 9.00828 40.1786 8.61238 40.0726 8.1582C39.9684 7.71123 39.7917 7.36098 39.5425 7.10745C39.3005 6.85224 39.0274 6.6917 38.7232 6.62584C38.4245 6.55109 38.1274 6.54819 37.8318 6.61714C37.529 6.68778 37.2566 6.82353 37.0146 7.02441C36.7781 7.2164 36.6079 7.48037 36.5038 7.8163C36.3997 8.15224 36.3998 8.54369 36.5041 8.99066C36.6101 9.44484 36.784 9.79954 37.026 10.0547C37.268 10.31 37.5383 10.4749 37.837 10.5497C38.1429 10.6228 38.4472 10.624 38.75 10.5533Z" fill="white"/>
<path d="M44.724 3.5074C44.5689 3.51845 44.4321 3.47255 44.3134 3.36969C44.1948 3.26682 44.1299 3.13786 44.1189 2.98279L44.1157 2.93849C44.1047 2.78343 44.1506 2.64657 44.2534 2.52791C44.3563 2.40926 44.4853 2.3444 44.6403 2.33335L44.7068 2.32861C44.8618 2.31756 44.9987 2.36346 45.1174 2.46633C45.236 2.56919 45.3009 2.69815 45.3119 2.85322L45.3151 2.89752C45.3261 3.05259 45.2802 3.18945 45.1774 3.3081C45.0745 3.42676 44.9455 3.49161 44.7905 3.50266L44.724 3.5074ZM45.2349 10.3619C45.0946 10.3719 44.973 10.3323 44.8702 10.2431C44.7674 10.154 44.7109 10.0393 44.7009 9.89896L44.3622 5.14737C44.3522 5.00707 44.3918 4.88551 44.481 4.78267C44.5696 4.67245 44.684 4.61234 44.8243 4.60234C44.972 4.59182 45.0973 4.63113 45.2001 4.72028C45.3029 4.80943 45.3596 4.92784 45.3701 5.07552L45.7089 9.82712C45.7189 9.96741 45.6756 10.0892 45.5791 10.1926C45.4899 10.2954 45.3752 10.3519 45.2349 10.3619Z" fill="white"/>
<path d="M51.0747 10.3563C50.6175 10.3157 50.1926 10.1628 49.8 9.8975C49.4154 9.62551 49.1137 9.25685 48.8949 8.7915C48.6842 8.31944 48.6053 7.78477 48.6584 7.1875C48.7114 6.59023 48.8829 6.08152 49.173 5.66137C49.471 5.2345 49.8329 4.92479 50.2588 4.73223C50.6927 4.53295 51.1382 4.45361 51.5954 4.49422C52.318 4.55841 52.9236 4.89461 53.4121 5.50283L53.6528 2.793C53.6659 2.64552 53.7246 2.52811 53.829 2.44077C53.9407 2.35408 54.0666 2.31696 54.2067 2.32941C54.3468 2.34185 54.4602 2.40395 54.5469 2.51569C54.6343 2.62007 54.6717 2.7423 54.6593 2.8824L54.0216 10.0607C54.0092 10.2008 53.9508 10.3145 53.8464 10.4019C53.742 10.4892 53.6198 10.5266 53.4797 10.5142C53.3396 10.5018 53.2222 10.443 53.1275 10.338C53.0401 10.2336 53.0027 10.1114 53.0151 9.97128L53.0407 9.68371C52.4526 10.1963 51.7973 10.4205 51.0747 10.3563ZM51.302 9.42893C51.6411 9.45906 51.9648 9.41349 52.2728 9.29222C52.5889 9.16422 52.8723 8.98503 53.1232 8.75462L53.3295 6.43191C53.1232 6.1609 52.8754 5.93823 52.5862 5.7639C52.305 5.58286 51.9948 5.47727 51.6556 5.44714C51.11 5.39867 50.6559 5.53298 50.2933 5.85007C49.9307 6.16716 49.7212 6.64277 49.6649 7.27691C49.6085 7.91105 49.7309 8.41613 50.0319 8.79217C50.333 9.16821 50.7563 9.38046 51.302 9.42893Z" fill="white"/>
<path d="M63.7609 13.3676C62.9005 12.9888 62.1658 12.4712 61.5569 11.8149C61.4905 11.7452 61.4466 11.6612 61.4253 11.5628C61.4068 11.4577 61.417 11.361 61.4558 11.273C61.5065 11.1578 61.587 11.076 61.6973 11.0275C61.8174 10.9752 61.9384 10.9759 62.0604 11.0296C62.1281 11.0594 62.1865 11.1013 62.2356 11.1552C62.7366 11.7074 63.3428 12.1401 64.0542 12.4533C65.2399 12.9753 66.0042 12.8467 66.3472 12.0675C66.4367 11.8643 66.4334 11.6606 66.3372 11.4565C66.2478 11.2554 66.1077 11.0683 65.9169 10.8954C65.7292 10.7156 65.4525 10.4806 65.0869 10.1902C64.6008 9.80636 64.2166 9.47549 63.9345 9.19762C63.6554 8.91298 63.4521 8.58486 63.3245 8.21324C63.1969 7.84163 63.2301 7.43563 63.424 6.99524C63.594 6.60906 63.8492 6.30487 64.1897 6.08269C64.5331 5.85374 64.9416 5.7343 65.4151 5.72436C65.8983 5.71064 66.4178 5.82607 66.9733 6.07065C67.7186 6.39875 68.3435 6.80733 68.8481 7.29637C69.008 7.44764 69.0432 7.6249 68.9537 7.82816C68.906 7.93656 68.8254 8.0184 68.7121 8.07367C68.5988 8.12893 68.4812 8.12972 68.3593 8.07603C68.3186 8.05814 68.2704 8.02073 68.2145 7.9638C67.7666 7.54821 67.2615 7.21664 66.6991 6.96907C66.1639 6.73344 65.6821 6.64268 65.2539 6.6968C64.8324 6.7539 64.5412 6.96538 64.3801 7.33125C64.2727 7.57515 64.2626 7.80932 64.3499 8.03376C64.4469 8.2544 64.5945 8.46095 64.7929 8.65343C65.001 8.84211 65.2908 9.07485 65.6624 9.35165C66.1409 9.71601 66.5145 10.0341 66.783 10.306C67.0583 10.5809 67.2515 10.9046 67.3626 11.277C67.4804 11.6524 67.4379 12.0705 67.2351 12.5312C67.068 12.9106 66.809 13.205 66.458 13.4145C66.1099 13.6171 65.7021 13.7166 65.2346 13.713C64.7671 13.7094 64.2758 13.5943 63.7609 13.3676Z" fill="white"/>
<path d="M71.1295 17.4793C70.6701 17.1419 70.3397 16.7476 70.1382 16.2966C69.9368 15.8455 69.8721 15.3709 69.9441 14.8727C70.0265 14.3729 70.2386 13.8903 70.5804 13.4249C70.9223 12.9596 71.3171 12.6158 71.765 12.3937C72.2232 12.17 72.6977 12.0868 73.1884 12.1441C73.679 12.2014 74.154 12.3988 74.6134 12.7362C75.0669 13.0693 75.3943 13.4613 75.5957 13.9124C75.7971 14.3634 75.8596 14.8411 75.7832 15.3452C75.7112 15.8434 75.5043 16.3252 75.1625 16.7906C74.8206 17.2559 74.4206 17.6005 73.9624 17.8242C73.5085 18.0419 73.0363 18.1221 72.5456 18.0648C72.0549 18.0076 71.5829 17.8124 71.1295 17.4793ZM71.6751 16.7365C71.9197 16.9162 72.194 17.0304 72.498 17.0792C72.808 17.1324 73.1244 17.0893 73.4473 16.9498C73.7761 16.8148 74.0786 16.5593 74.3547 16.1834C74.6264 15.8135 74.7775 15.4515 74.808 15.0973C74.8445 14.7475 74.7888 14.4357 74.641 14.1618C74.5035 13.8863 74.3124 13.6587 74.0678 13.479C73.8172 13.2949 73.537 13.1763 73.227 13.1231C72.9274 13.0684 72.6161 13.1107 72.2932 13.2502C71.9704 13.3896 71.6731 13.6443 71.4014 14.0142C71.1253 14.3901 70.969 14.7529 70.9325 15.1027C70.896 15.4525 70.9465 15.7651 71.084 16.0406C71.2275 16.3205 71.4245 16.5525 71.6751 16.7365Z" fill="white"/>
<path d="M76.0442 21.5365C75.9453 21.4365 75.8961 21.3185 75.8969 21.1824C75.8976 21.0463 75.9479 20.9288 76.0479 20.8298L81.17 15.7604C81.2699 15.6615 81.388 15.6124 81.5241 15.6131C81.6654 15.6086 81.7856 15.6563 81.8845 15.7563C81.9886 15.8615 82.0404 15.9822 82.0397 16.1183C82.039 16.2544 81.986 16.3745 81.8808 16.4786L76.7587 21.548C76.6587 21.647 76.5381 21.6934 76.3968 21.6875C76.2607 21.6868 76.1431 21.6364 76.0442 21.5365Z" fill="white"/>
<path d="M79.5973 25.6222C79.3597 25.2916 79.2306 24.9468 79.2098 24.588C79.1934 24.2353 79.2729 23.8956 79.4484 23.5689C79.6283 23.2483 79.8805 22.9714 80.2052 22.7382L82.7664 20.8982C82.8806 20.8162 83.0049 20.7862 83.1392 20.8082C83.2778 20.8362 83.3881 20.9073 83.4702 21.0215C83.5523 21.1358 83.5823 21.26 83.5603 21.3943C83.5383 21.5287 83.4701 21.6368 83.3559 21.7189L80.8849 23.494C80.1514 24.021 80.0222 24.6151 80.4973 25.2764C80.7133 25.577 80.9837 25.7884 81.3084 25.9106C81.6375 26.0388 82.0099 26.1131 82.4256 26.1335L85.1311 24.1899C85.2453 24.1078 85.3696 24.0778 85.5039 24.0998C85.6425 24.1278 85.7528 24.199 85.8349 24.3132C85.917 24.4274 85.947 24.5517 85.925 24.686C85.903 24.8203 85.8348 24.9285 85.7206 25.0106L81.8518 27.7899C81.7376 27.8719 81.6103 27.9041 81.47 27.8864C81.3357 27.8644 81.2275 27.7963 81.1454 27.6821C81.0633 27.5678 81.0312 27.4406 81.0489 27.3002C81.0769 27.1616 81.148 27.0513 81.2622 26.9692L81.632 26.7036C81.2153 26.6565 80.8369 26.5547 80.4965 26.3982C80.1562 26.2416 79.8564 25.983 79.5973 25.6222Z" fill="white"/>
<path d="M83.9586 32.8443C83.4954 31.8678 83.7053 31.1701 84.5882 30.7514L87.6984 29.2763L87.3606 28.564C87.3352 28.5105 87.3297 28.4557 87.3441 28.3997C87.3684 28.3473 87.4073 28.3083 87.4608 28.283C87.5277 28.2512 87.5988 28.2544 87.6742 28.2924L89.6557 29.024C89.7444 29.0556 89.8015 29.0982 89.8269 29.1517C89.8522 29.2052 89.8528 29.2582 89.8285 29.3107C89.8074 29.3699 89.7701 29.4121 89.7166 29.4375L88.914 29.8182L89.4517 30.9519C89.5056 31.0656 89.5132 31.1767 89.4746 31.2851C89.4359 31.3936 89.3597 31.4748 89.246 31.5287C89.139 31.5795 89.0279 31.5871 88.9127 31.5516C88.8042 31.5129 88.723 31.4367 88.6691 31.323L88.1314 30.1893L85.1015 31.6263C84.8406 31.7501 84.702 31.8896 84.6855 32.0448C84.6789 32.2037 84.72 32.3767 84.8088 32.564C84.8723 32.6977 84.9558 32.822 85.0593 32.9367C85.0787 32.9603 85.0981 32.9839 85.1175 33.0075C85.14 33.0378 85.1624 33.0763 85.1846 33.1231C85.229 33.2168 85.2319 33.3178 85.1932 33.4263C85.1612 33.5316 85.0951 33.608 84.9947 33.6556C84.8409 33.7286 84.6874 33.7072 84.5341 33.5914C84.29 33.3876 84.0982 33.1386 83.9586 32.8443Z" fill="white"/>
<path d="M92.06 34.3969C92.0108 34.2494 92.0213 34.1055 92.0916 33.965C92.1618 33.8245 92.2707 33.7297 92.4181 33.6806L92.4603 33.6665C92.6078 33.6174 92.7517 33.6279 92.8922 33.6981C93.0326 33.7684 93.1274 33.8772 93.1766 34.0247L93.1977 34.0879C93.2468 34.2354 93.2363 34.3793 93.1661 34.5198C93.0958 34.6603 92.987 34.7551 92.8395 34.8042L92.7974 34.8183C92.6499 34.8674 92.5059 34.8569 92.3655 34.7867C92.225 34.7164 92.1302 34.6076 92.081 34.4601L92.06 34.3969ZM85.5463 36.5915C85.5018 36.4581 85.51 36.3305 85.5709 36.2088C85.6317 36.087 85.7289 36.0039 85.8623 35.9594L90.3815 34.4531C90.5149 34.4086 90.6425 34.4168 90.7643 34.4777C90.893 34.5362 90.9796 34.6322 91.0241 34.7656C91.0709 34.906 91.0639 35.0371 91.003 35.1589C90.9422 35.2806 90.8415 35.3649 90.701 35.4117L86.1818 36.9181C86.0484 36.9625 85.9197 36.9508 85.7956 36.8829C85.6739 36.8221 85.5908 36.7249 85.5463 36.5915Z" fill="white"/>
<path d="M87.0134 42.408C86.9212 41.8455 86.9609 41.3327 87.1326 40.8694C87.3042 40.4062 87.59 40.0218 87.99 39.7162C88.3985 39.4167 88.8876 39.2202 89.4575 39.1269C90.0273 39.0335 90.5499 39.0641 91.0253 39.2187C91.5093 39.3794 91.9065 39.6519 92.217 40.0361C92.5275 40.4203 92.7289 40.8936 92.8211 41.4561C92.9121 42.0113 92.8718 42.5205 92.7001 42.9837C92.5285 43.447 92.239 43.832 91.8317 44.1388C91.4317 44.4444 90.9468 44.6439 90.377 44.7373C89.8072 44.8307 89.2803 44.797 88.7964 44.6363C88.3198 44.4744 87.9262 44.2013 87.6157 43.8171C87.3052 43.4329 87.1044 42.9632 87.0134 42.408ZM87.9229 42.2589C87.972 42.5585 88.0881 42.832 88.2712 43.0795C88.4555 43.3344 88.7118 43.5249 89.04 43.6512C89.3695 43.7847 89.7643 43.8138 90.2245 43.7383C90.6775 43.6641 91.0387 43.5111 91.3083 43.2794C91.5791 43.055 91.7575 42.7932 91.8435 42.494C91.938 42.201 91.9607 41.9047 91.9116 41.6052C91.8613 41.2984 91.744 41.0175 91.5597 40.7627C91.3839 40.5139 91.1319 40.3265 90.8036 40.2002C90.4754 40.074 90.0848 40.048 89.6319 40.1222C89.1716 40.1977 88.8061 40.3476 88.5353 40.572C88.2646 40.7964 88.0819 41.0552 87.9874 41.3482C87.8941 41.6485 87.8726 41.9521 87.9229 42.2589Z" fill="white"/>
<path d="M87.7742 48.8877C87.7817 48.7473 87.836 48.6316 87.9372 48.5406C88.0384 48.4496 88.1593 48.4078 88.2997 48.4153L93.0567 48.6683C93.1971 48.6758 93.3128 48.7301 93.4038 48.8313C93.5022 48.933 93.5477 49.054 93.5402 49.1944C93.5327 49.3349 93.4747 49.4504 93.3661 49.541C93.2645 49.6394 93.1434 49.6848 93.003 49.6774L92.5484 49.6532C92.8439 49.9506 93.0754 50.2669 93.2429 50.602C93.4104 50.937 93.4824 51.3264 93.4588 51.7699C93.4372 52.1765 93.3224 52.5225 93.1145 52.808C92.9061 53.1008 92.6315 53.316 92.2906 53.4536C91.9493 53.5985 91.5791 53.6604 91.1799 53.6391L88.0308 53.4716C87.8903 53.4642 87.7748 53.4061 87.6842 53.2975C87.5932 53.1963 87.5515 53.0755 87.5589 52.935C87.5664 52.7946 87.6208 52.6788 87.722 52.5879C87.8232 52.4969 87.944 52.4551 88.0845 52.4626L91.1227 52.6242C92.0245 52.6721 92.4971 52.2896 92.5403 51.4764C92.56 51.1068 92.4816 50.769 92.3051 50.4631C92.1283 50.1646 91.8841 49.8773 91.5726 49.6013L88.2461 49.4244C88.1056 49.4169 87.9901 49.3588 87.8995 49.2502C87.8085 49.149 87.7667 49.0282 87.7742 48.8877Z" fill="white"/>
<path d="M86.5526 58.5967C86.7354 57.8793 87.0632 57.2677 87.5359 56.7618C87.6531 56.6618 87.787 56.631 87.9377 56.6694C88.0524 56.6986 88.1428 56.7637 88.2088 56.8645C88.2747 56.9654 88.2922 57.0768 88.2611 57.1987C88.2446 57.2633 88.2138 57.3242 88.1687 57.3814C88.0097 57.5854 87.8723 57.7948 87.7564 58.0097C87.6405 58.2246 87.546 58.4756 87.4729 58.7625C87.2699 59.5587 87.4231 60.0218 87.9324 60.1516C88.0973 60.1937 88.2466 60.1324 88.3803 59.9678C88.5121 59.8104 88.6848 59.5374 88.8984 59.1488C89.1068 58.7512 89.3004 58.4262 89.4793 58.1739C89.6564 57.9287 89.8781 57.7331 90.1445 57.5871C90.4163 57.4501 90.7315 57.4274 91.0901 57.5188C91.5923 57.6468 91.9554 57.9303 92.1796 58.3695C92.402 58.8158 92.4272 59.3761 92.2554 60.0504C92.1146 60.6027 91.8923 61.0999 91.5886 61.542C91.5344 61.6351 91.4614 61.6967 91.3696 61.7268C91.2761 61.7641 91.1863 61.7717 91.1002 61.7498C90.9854 61.7205 90.896 61.6519 90.8319 61.5439C90.7659 61.443 90.7485 61.3316 90.7795 61.2097C90.7887 61.1738 90.8077 61.129 90.8367 61.0753C91.0719 60.6922 91.2407 60.2997 91.3431 59.898C91.4418 59.5107 91.4478 59.1875 91.361 58.9286C91.2796 58.6786 91.1277 58.5253 90.9053 58.4686C90.6901 58.4138 90.5067 58.474 90.3551 58.6492C90.2034 58.8245 90.0271 59.1118 89.8259 59.5113C89.6104 59.9071 89.4151 60.224 89.2398 60.462C89.0717 60.7018 88.8527 60.8866 88.5828 61.0164C88.3111 61.1534 87.9887 61.1744 87.6157 61.0793C87.1566 60.9622 86.823 60.6824 86.615 60.2398C86.4051 59.8043 86.3843 59.2566 86.5526 58.5967Z" fill="white"/>
<path d="M77.1406 84.0962C77.2654 84.0035 77.4055 83.9687 77.5608 83.9916C77.7162 84.0146 77.8402 84.0885 77.9329 84.2133L77.9593 84.249C78.052 84.3738 78.0868 84.5139 78.0639 84.6693C78.0409 84.8246 77.967 84.9486 77.8422 85.0413L77.7887 85.081C77.6638 85.1736 77.5238 85.2085 77.3684 85.1855C77.2131 85.1625 77.0891 85.0886 76.9964 84.9638L76.9699 84.9282C76.8773 84.8033 76.8424 84.6632 76.8654 84.5079C76.8884 84.3526 76.9623 84.2286 77.0871 84.1359L77.1406 84.0962ZM73.0258 78.5904C73.1388 78.5066 73.2625 78.4746 73.3972 78.4945C73.5318 78.5145 73.641 78.5809 73.7249 78.6938L76.5643 82.5188C76.6481 82.6317 76.6801 82.7555 76.6602 82.8901C76.6447 83.0307 76.5805 83.1429 76.4675 83.2267C76.3486 83.315 76.2219 83.3492 76.0872 83.3292C75.9526 83.3093 75.8412 83.2399 75.7529 83.1211L72.9135 79.2961C72.8297 79.1832 72.8007 79.0572 72.8266 78.9181C72.8465 78.7835 72.9129 78.6743 73.0258 78.5904Z" fill="white"/>
<path d="M69.6868 80.9942C69.8126 80.9311 69.94 80.9209 70.0692 80.9638C70.1984 81.0066 70.2945 81.0909 70.3576 81.2166L73.4065 87.2899C73.4696 87.4156 73.4798 87.5431 73.4369 87.6723C73.3974 87.8081 73.3148 87.9075 73.1891 87.9706L70.8769 89.1314C69.9771 89.5831 69.2093 89.7366 68.5734 89.592C67.9376 89.4473 67.4685 89.074 67.1663 88.4719C66.967 88.075 66.8968 87.6546 66.9557 87.2109C67.0113 86.7771 67.2142 86.3812 67.5646 86.0231C67.0251 86.1365 66.5515 86.0015 66.1437 85.6182C65.7326 85.2447 65.4141 84.8331 65.1882 84.3832L64.9591 83.9267C64.896 83.801 64.8858 83.6736 64.9287 83.5444C64.9715 83.4152 65.0557 83.3191 65.1814 83.256C65.3204 83.1862 65.4528 83.1694 65.5786 83.2057C65.7012 83.2518 65.7957 83.341 65.8621 83.4734L66.0116 83.7711C66.1776 84.1019 66.3602 84.3912 66.5592 84.6392C66.7616 84.8938 67.03 85.0738 67.3646 85.1792C67.7024 85.2912 68.0996 85.2327 68.5561 85.0035L70.6103 83.9722L69.4545 81.6699C69.3914 81.5442 69.3846 81.4151 69.4341 81.2826C69.4769 81.1534 69.5611 81.0573 69.6868 80.9942ZM69.2426 85.7274C68.6736 86.013 68.2802 86.3513 68.0623 86.7423C67.8378 87.1367 67.8285 87.5389 68.0345 87.9491C68.2337 88.3461 68.5321 88.5773 68.9294 88.6429C69.3202 88.7118 69.8629 88.5719 70.5576 88.2231L72.3042 87.3463L71.0388 84.8257L69.2426 85.7274Z" fill="white"/>
<path d="M58.9293 85.2952C59.4844 85.1657 59.9988 85.1711 60.4724 85.3115C60.946 85.4519 61.3487 85.7114 61.6803 86.0901C62.0063 86.4778 62.235 86.9527 62.3661 87.5151C62.4973 88.0774 62.5016 88.6009 62.379 89.0856C62.2509 89.5791 62.0055 89.9936 61.6429 90.3291C61.2803 90.6645 60.8214 90.897 60.2663 91.0265C59.7184 91.1543 59.2076 91.148 58.734 91.0077C58.2604 90.8673 57.8569 90.6042 57.5237 90.2182C57.1921 89.8395 56.9607 89.369 56.8295 88.8066C56.6983 88.2443 56.6968 87.7164 56.8249 87.2228C56.9547 86.7364 57.2009 86.3255 57.5635 85.9901C57.9262 85.6546 58.3814 85.423 58.9293 85.2952ZM59.1387 86.1927C58.8431 86.2617 58.5779 86.3958 58.3432 86.595C58.1012 86.7959 57.9281 87.0643 57.8241 87.4002C57.7128 87.7378 57.7101 88.1337 57.8161 88.5879C57.9203 89.0349 58.0971 89.3851 58.3462 89.6386C58.5882 89.8939 58.8613 90.0544 59.1655 90.1203C59.4642 90.195 59.7613 90.1979 60.0569 90.129C60.3597 90.0583 60.6321 89.9226 60.8741 89.7217C61.1106 89.5297 61.2808 89.2657 61.3849 88.9298C61.489 88.5939 61.4889 88.2024 61.3846 87.7554C61.2787 87.3013 61.1047 86.9466 60.8627 86.6913C60.6207 86.4361 60.3504 86.2711 60.0517 86.1964C59.7458 86.1233 59.4415 86.1221 59.1387 86.1927Z" fill="white"/>
<path d="M53.1647 93.2387C53.3198 93.2276 53.4566 93.2735 53.5753 93.3764C53.6939 93.4793 53.7588 93.6082 53.7698 93.7633L53.773 93.8076C53.7841 93.9627 53.7381 94.0995 53.6353 94.2182C53.5324 94.3368 53.4035 94.4017 53.2484 94.4127L53.1819 94.4175C53.0269 94.4285 52.89 94.3826 52.7714 94.2798C52.6527 94.1769 52.5878 94.0479 52.5768 93.8929L52.5736 93.8486C52.5626 93.6935 52.6085 93.5566 52.7113 93.438C52.8142 93.3193 52.9432 93.2545 53.0982 93.2434L53.1647 93.2387ZM52.6538 86.3842C52.7941 86.3742 52.9157 86.4138 53.0185 86.503C53.1213 86.5921 53.1778 86.7068 53.1878 86.8471L53.5265 91.5987C53.5365 91.739 53.4969 91.8606 53.4078 91.9634C53.3191 92.0736 53.2047 92.1337 53.0644 92.1437C52.9167 92.1543 52.7914 92.115 52.6886 92.0258C52.5858 91.9367 52.5291 91.8183 52.5186 91.6706L52.1799 86.919C52.1699 86.7787 52.2131 86.6569 52.3096 86.5535C52.3988 86.4507 52.5135 86.3942 52.6538 86.3842Z" fill="white"/>
<path d="M46.8141 86.3898C47.2712 86.4304 47.6961 86.5833 48.0887 86.8486C48.4733 87.1206 48.775 87.4892 48.9938 87.9546C49.2046 88.4267 49.2834 88.9613 49.2303 89.5586C49.1773 90.1559 49.0058 90.6646 48.7158 91.0847C48.4177 91.5116 48.0558 91.8213 47.6299 92.0139C47.196 92.2131 46.7505 92.2925 46.2933 92.2519C45.5707 92.1877 44.9652 91.8515 44.4767 91.2433L44.2359 93.9531C44.2228 94.1006 44.1641 94.218 44.0597 94.3053C43.948 94.392 43.8221 94.4291 43.682 94.4167C43.5419 94.4042 43.4285 94.3421 43.3418 94.2304C43.2544 94.126 43.217 94.0038 43.2294 93.8637L43.8671 86.6854C43.8795 86.5453 43.9379 86.4316 44.0423 86.3442C44.1467 86.2569 44.2689 86.2194 44.409 86.2319C44.5491 86.2443 44.6665 86.3031 44.7612 86.4081C44.8486 86.5125 44.886 86.6347 44.8736 86.7748L44.848 87.0624C45.4361 86.5498 46.0914 86.3256 46.8141 86.3898ZM46.5868 87.3172C46.2476 87.287 45.9239 87.3326 45.6159 87.4539C45.2998 87.5819 45.0164 87.7611 44.7655 87.9915L44.5592 90.3142C44.7655 90.5852 45.0133 90.8079 45.3025 90.9822C45.5837 91.1632 45.8939 91.2688 46.2331 91.299C46.7787 91.3474 47.2328 91.2131 47.5954 90.896C47.958 90.5789 48.1675 90.1033 48.2238 89.4692C48.2802 88.835 48.1578 88.33 47.8568 87.9539C47.5558 87.5779 47.1324 87.3656 46.5868 87.3172Z" fill="white"/>
<path d="M34.1278 83.3785C34.9882 83.7573 35.7229 84.2749 36.3318 84.9312C36.3982 85.0008 36.4421 85.0849 36.4635 85.1833C36.4819 85.2884 36.4717 85.3851 36.4329 85.4731C36.3822 85.5883 36.3017 85.6701 36.1914 85.7186C36.0713 85.7709 35.9503 85.7702 35.8283 85.7165C35.7606 85.6867 35.7022 85.6448 35.6531 85.5909C35.1521 85.0387 34.5459 84.606 33.8345 84.2928C32.6488 83.7708 31.8845 83.8994 31.5415 84.6786C31.452 84.8818 31.4553 85.0855 31.5515 85.2896C31.6409 85.4907 31.781 85.6778 31.9718 85.8507C32.1596 86.0305 32.4362 86.2655 32.8018 86.5559C33.2879 86.9397 33.6721 87.2706 33.9542 87.5485C34.2333 87.8331 34.4366 88.1612 34.5642 88.5328C34.6918 88.9045 34.6586 89.3105 34.4647 89.7509C34.2947 90.137 34.0395 90.4412 33.699 90.6634C33.3556 90.8924 32.9471 91.0118 32.4736 91.0217C31.9904 91.0355 31.471 90.92 30.9154 90.6754C30.1701 90.3473 29.5452 89.9388 29.0406 89.4497C28.8807 89.2985 28.8455 89.1212 28.935 88.9179C28.9828 88.8095 29.0633 88.7277 29.1766 88.6724C29.2899 88.6172 29.4075 88.6164 29.5295 88.6701C29.5701 88.688 29.6183 88.7254 29.6742 88.7823C30.1221 89.1979 30.6272 89.5295 31.1896 89.777C31.7248 90.0127 32.2066 90.1034 32.6348 90.0493C33.0563 89.9922 33.3475 89.7807 33.5086 89.4148C33.616 89.1709 33.6261 88.9368 33.5388 88.7123C33.4419 88.4917 33.2942 88.2851 33.0958 88.0927C32.8877 87.904 32.5979 87.6712 32.2264 87.3944C31.7478 87.0301 31.3742 86.7119 31.1057 86.44C30.8304 86.1652 30.6372 85.8415 30.5261 85.4691C30.4083 85.0937 30.4508 84.6756 30.6537 84.2149C30.8207 83.8355 31.0797 83.5411 31.4307 83.3316C31.7788 83.129 32.1866 83.0295 32.6541 83.0331C33.1216 83.0367 33.6129 83.1518 34.1278 83.3785Z" fill="white"/>
<path d="M26.7612 79.2668C27.2206 79.6042 27.551 79.9985 27.7524 80.4495C27.9538 80.9006 28.0185 81.3752 27.9465 81.8734C27.8641 82.3732 27.6521 82.8558 27.3102 83.3212C26.9684 83.7865 26.5735 84.1303 26.1257 84.3524C25.6674 84.5761 25.193 84.6593 24.7023 84.602C24.2117 84.5447 23.7366 84.3473 23.2772 84.0099C22.8238 83.6768 22.4964 83.2848 22.295 82.8337C22.0935 82.3827 22.031 81.905 22.1074 81.4009C22.1795 80.9027 22.3864 80.4209 22.7282 79.9555C23.07 79.4901 23.4701 79.1456 23.9283 78.9219C24.3822 78.7042 24.8544 78.624 25.3451 78.6812C25.8357 78.7385 26.3078 78.9337 26.7612 79.2668ZM26.2156 80.0096C25.971 79.8299 25.6967 79.7157 25.3927 79.6669C25.0827 79.6137 24.7663 79.6568 24.4434 79.7963C24.1146 79.9313 23.8121 80.1868 23.536 80.5627C23.2643 80.9326 23.1132 81.2946 23.0827 81.6488C23.0462 81.9986 23.1019 82.3104 23.2497 82.5843C23.3872 82.8598 23.5782 83.0874 23.8228 83.2671C24.0734 83.4512 24.3537 83.5698 24.6637 83.6229C24.9633 83.6777 25.2746 83.6354 25.5974 83.4959C25.9203 83.3565 26.2176 83.1018 26.4893 82.7319C26.7654 82.356 26.9216 81.9932 26.9581 81.6434C26.9946 81.2936 26.9441 80.981 26.8066 80.7055C26.6632 80.4256 26.4662 80.1936 26.2156 80.0096Z" fill="white"/>
<path d="M21.8445 75.2096C21.9434 75.3096 21.9926 75.4276 21.9919 75.5637C21.9912 75.6998 21.9408 75.8173 21.8408 75.9163L16.7187 80.9856C16.6188 81.0846 16.5007 81.1337 16.3647 81.133C16.2233 81.1375 16.1031 81.0898 16.0042 80.9898C15.9001 80.8846 15.8483 80.7639 15.849 80.6278C15.8497 80.4917 15.9027 80.3716 16.0079 80.2674L21.13 75.1981C21.23 75.0991 21.3506 75.0527 21.492 75.0586C21.628 75.0593 21.7456 75.1097 21.8445 75.2096Z" fill="white"/>
<path d="M18.2914 71.1239C18.529 71.4545 18.6581 71.7993 18.6789 72.1581C18.6953 72.5108 18.6158 72.8505 18.4403 73.1772C18.2604 73.4978 18.0082 73.7747 17.6835 74.0079L15.1223 75.8479C15.0081 75.9299 14.8838 75.9599 14.7495 75.9379C14.6109 75.9099 14.5006 75.8388 14.4185 75.7245C14.3364 75.6103 14.3064 75.4861 14.3284 75.3517C14.3504 75.2174 14.4186 75.1093 14.5328 75.0272L17.0038 73.2521C17.7373 72.7251 17.8665 72.131 17.3914 71.4697C17.1754 71.1691 16.9051 70.9577 16.5803 70.8355C16.2512 70.7073 15.8788 70.633 15.4631 70.6126L12.7577 72.5562C12.6434 72.6383 12.5192 72.6683 12.3849 72.6463C12.2462 72.6183 12.1359 72.5471 12.0538 72.4329C11.9718 72.3187 11.9417 72.1944 11.9637 72.0601C11.9858 71.9258 12.0539 71.8176 12.1681 71.7355L16.0369 68.9562C16.1512 68.8742 16.2784 68.842 16.4187 68.8597C16.5531 68.8817 16.6612 68.9498 16.7433 69.064C16.8254 69.1783 16.8575 69.3055 16.8399 69.4458C16.8118 69.5845 16.7407 69.6948 16.6265 69.7769L16.2567 70.0425C16.6734 70.0896 17.0519 70.1914 17.3922 70.3479C17.7325 70.5045 18.0323 70.7631 18.2914 71.1239Z" fill="white"/>
<path d="M13.9301 63.9018C14.3933 64.8783 14.1834 65.5759 13.3005 65.9947L10.1903 67.4698L10.5281 68.1821C10.5535 68.2356 10.559 68.2904 10.5446 68.3464C10.5203 68.3988 10.4814 68.4378 10.4279 68.4631C10.361 68.4949 10.2899 68.4917 10.2145 68.4537L8.23303 67.7221C8.14428 67.6905 8.08722 67.6479 8.06184 67.5944C8.03646 67.5409 8.03591 67.4879 8.06018 67.4354C8.08128 67.3762 8.11858 67.334 8.17209 67.3086L8.97472 66.9279L8.43703 65.7942C8.3831 65.6805 8.37548 65.5694 8.41416 65.4609C8.45284 65.3525 8.52903 65.2713 8.64274 65.2174C8.74975 65.1666 8.86084 65.159 8.976 65.1945C9.08447 65.2332 9.16567 65.3094 9.21959 65.4231L9.75729 66.5568L12.7872 65.1198C13.0481 64.996 13.1867 64.8565 13.2032 64.7012C13.2098 64.5424 13.1687 64.3694 13.0799 64.1821C13.0165 64.0483 12.9329 63.9241 12.8294 63.8094C12.81 63.7858 12.7906 63.7622 12.7712 63.7386C12.7487 63.7083 12.7263 63.6698 12.7041 63.623C12.6597 63.5293 12.6568 63.4283 12.6955 63.3198C12.7275 63.2145 12.7937 63.1381 12.894 63.0905C13.0478 63.0175 13.2014 63.0389 13.3546 63.1547C13.5987 63.3585 13.7905 63.6075 13.9301 63.9018Z" fill="white"/>
<path d="M5.82874 62.3492C5.8779 62.4967 5.86736 62.6406 5.79713 62.7811C5.7269 62.9216 5.61805 63.0164 5.47057 63.0655L5.42843 63.0796C5.28095 63.1287 5.13698 63.1182 4.99653 63.048C4.85607 62.9777 4.76126 62.8689 4.7121 62.7214L4.69104 62.6582C4.64188 62.5107 4.65241 62.3667 4.72264 62.2263C4.79287 62.0858 4.90172 61.991 5.0492 61.9419L5.09134 61.9278C5.23882 61.8787 5.38279 61.8892 5.52325 61.9594C5.6637 62.0297 5.75851 62.1385 5.80767 62.286L5.82874 62.3492ZM12.3424 60.1546C12.3869 60.288 12.3787 60.4156 12.3179 60.5373C12.257 60.6591 12.1598 60.7422 12.0264 60.7866L7.5072 62.293C7.37376 62.3375 7.24618 62.3293 7.12445 62.2684C6.9957 62.2099 6.90908 62.1139 6.86461 61.9805C6.81779 61.84 6.82481 61.709 6.88568 61.5872C6.94654 61.4655 7.04721 61.3812 7.18766 61.3344L11.7069 59.828C11.8403 59.7836 11.9691 59.7953 12.0931 59.8631C12.2149 59.924 12.298 60.0212 12.3424 60.1546Z" fill="white"/>
<path d="M10.8753 54.3381C10.9675 54.9006 10.9278 55.4134 10.7562 55.8767C10.5845 56.3399 10.2987 56.7243 9.89872 57.0299C9.49022 57.3294 9.00106 57.5258 8.43125 57.6192C7.86145 57.7126 7.33882 57.682 6.86339 57.5274C6.37946 57.3667 5.98223 57.0942 5.67171 56.71C5.36119 56.3258 5.15983 55.8525 5.06763 55.29C4.97663 54.7348 5.01695 54.2256 5.18857 53.7624C5.3602 53.2991 5.64966 52.9141 6.05697 52.6073C6.45697 52.3017 6.94187 52.1022 7.51168 52.0088C8.08149 51.9154 8.60836 51.9491 9.0923 52.1098C9.56893 52.2717 9.9625 52.5448 10.273 52.929C10.5835 53.3132 10.7843 53.7829 10.8753 54.3381ZM9.9658 54.4871C9.91671 54.1876 9.80061 53.9141 9.61751 53.6666C9.43321 53.4117 9.17693 53.2212 8.84868 53.0949C8.51923 52.9614 8.12439 52.9323 7.66416 53.0078C7.21124 53.082 6.84998 53.235 6.5804 53.4667C6.30963 53.6911 6.13124 53.9529 6.04524 54.2521C5.95075 54.5451 5.92804 54.8414 5.97714 55.1409C6.02742 55.4477 6.14472 55.7286 6.32902 55.9834C6.50482 56.2322 6.75684 56.4196 7.08509 56.5459C7.41334 56.6721 7.80393 56.6981 8.25686 56.6239C8.71709 56.5484 9.08259 56.3985 9.35337 56.1741C9.62415 55.9497 9.80679 55.6909 9.90128 55.3979C9.99458 55.0976 10.0161 54.794 9.9658 54.4871Z" fill="white"/>
<path d="M10.1145 47.8583C10.107 47.9988 10.0527 48.1145 9.95148 48.2055C9.85026 48.2965 9.72943 48.3383 9.58898 48.3308L4.83205 48.0778C4.6916 48.0703 4.57588 48.016 4.48489 47.9147C4.38651 47.8131 4.34105 47.6921 4.34852 47.5517C4.356 47.4112 4.41403 47.2957 4.52264 47.2051C4.62424 47.1067 4.74527 47.0613 4.88572 47.0687L5.34035 47.0929C5.04481 46.7955 4.81329 46.4792 4.64579 46.1441C4.47828 45.809 4.40632 45.4197 4.42991 44.9762C4.45154 44.5696 4.56632 44.2236 4.77424 43.9381C4.98256 43.6453 5.25718 43.4301 5.59809 43.2925C5.93939 43.1476 6.30963 43.0857 6.70881 43.107L9.85792 43.2745C9.99838 43.2819 10.1139 43.34 10.2045 43.4486C10.2955 43.5498 10.3372 43.6706 10.3298 43.8111C10.3223 43.9515 10.268 44.0673 10.1667 44.1582C10.0655 44.2492 9.94471 44.291 9.80425 44.2835L6.76603 44.1219C5.86417 44.0739 5.39162 44.4565 5.34836 45.2697C5.32871 45.6393 5.40711 45.9771 5.58358 46.283C5.76045 46.5815 6.00463 46.8688 6.31613 47.1448L9.64265 47.3217C9.7831 47.3292 9.89863 47.3872 9.98922 47.4959C10.0802 47.5971 10.122 47.7179 10.1145 47.8583Z" fill="white"/>
<path d="M11.3362 38.1494C11.1533 38.8668 10.8255 39.4784 10.3528 39.9843C10.2356 40.0843 10.1017 40.1151 9.95105 40.0767C9.83628 40.0475 9.74591 39.9824 9.67995 39.8816C9.61398 39.7807 9.59654 39.6693 9.62762 39.5474C9.64408 39.4828 9.67488 39.4219 9.72004 39.3647C9.87898 39.1607 10.0164 38.9513 10.1323 38.7364C10.2482 38.5215 10.3427 38.2705 10.4159 37.9836C10.6188 37.1874 10.4657 36.7243 9.95635 36.5945C9.79137 36.5524 9.64206 36.6137 9.50844 36.7783C9.37665 36.9356 9.20392 37.2087 8.99026 37.5973C8.78195 37.9949 8.58834 38.3199 8.40943 38.5722C8.23234 38.8174 8.0106 39.013 7.7442 39.159C7.47246 39.2959 7.15725 39.3187 6.79859 39.2273C6.29645 39.0993 5.93329 38.8157 5.70909 38.3766C5.48672 37.9303 5.46147 37.37 5.63336 36.6957C5.77415 36.1434 5.99639 35.6462 6.30007 35.2041C6.35436 35.111 6.42736 35.0494 6.51906 35.0193C6.6126 34.982 6.70241 34.9744 6.78849 34.9963C6.90326 35.0256 6.99272 35.0942 7.05685 35.2022C7.12282 35.3031 7.14026 35.4145 7.10917 35.5364C7.10003 35.5723 7.08097 35.6171 7.052 35.6708C6.81682 36.0539 6.64803 36.4464 6.54564 36.8481C6.44689 37.2354 6.44091 37.5586 6.5277 37.8175C6.60913 38.0675 6.76104 38.2208 6.98341 38.2775C7.19861 38.3323 7.38202 38.2721 7.53365 38.0969C7.68528 37.9216 7.86166 37.6343 8.0628 37.2348C8.27828 36.839 8.47365 36.5221 8.64891 36.2841C8.81699 36.0443 9.03599 35.8595 9.3059 35.7297C9.57765 35.5927 9.90003 35.5717 10.273 35.6668C10.7321 35.7838 11.0657 36.0637 11.2737 36.5063C11.4836 36.9418 11.5044 37.4895 11.3362 38.1494Z" fill="white"/>
</svg>
