<svg width="68" height="68" viewBox="0 0 68 68" fill="none" xmlns="http://www.w3.org/2000/svg">
<path opacity="0.4" fill-rule="evenodd" clip-rule="evenodd" d="M33.9437 65.9555C51.6826 65.9555 66.0629 51.5752 66.0629 33.8362C66.0629 16.0973 51.6826 1.71699 33.9437 1.71699C16.2047 1.71699 1.82441 16.0973 1.82441 33.8362C1.82441 51.5752 16.2047 65.9555 33.9437 65.9555ZM33.9437 67.485C52.5273 67.485 67.5924 52.4199 67.5924 33.8362C67.5924 15.2526 52.5273 0.1875 33.9437 0.1875C15.36 0.1875 0.294922 15.2526 0.294922 33.8362C0.294922 52.4199 15.36 67.485 33.9437 67.485Z" fill="white"/>
<path d="M34.3663 45.6884V22.7461" stroke="white" stroke-width="2.29423" stroke-linecap="round" stroke-linejoin="round"/>
<path d="M43.5792 36.4336L34.3656 45.687L25.1504 36.4336" stroke="white" stroke-width="2.29423" stroke-linecap="round" stroke-linejoin="round"/>
</svg>
