 <svg
              className="share"
              width="52"
              height="52"
              viewBox="0 0 52 52"
              fill="none"
              xmlns="http://www.w3.org/2000/svg"
              
            >
              <circle cx="26" cy="26" r="26" fill="white" />
              <path
                d="M32.6673 30.4564C31.3247 30.4564 30.1222 31.0619 29.3276 32.0088L21.3863 27.4919C21.5645 27.0279 21.6642 26.524 21.6642 26.0014C21.6642 25.4777 21.5634 24.975 21.3863 24.5109L29.3276 19.9909C30.1221 20.9389 31.3246 21.5433 32.6673 21.5433C35.0566 21.5433 37 19.6252 37 17.2717C37 14.9181 35.0545 13 32.6673 13C30.278 13 28.3346 14.9181 28.3346 17.2717C28.3346 17.7976 28.4355 18.2981 28.6125 18.7621L20.6724 23.2802C19.8779 22.3322 18.6754 21.7278 17.3327 21.7278C14.9434 21.7278 13 23.6459 13 25.9994C13 28.3529 14.9455 30.2711 17.3327 30.2711C18.6753 30.2711 19.8778 29.6656 20.6724 28.7187L28.6103 33.2379C28.4321 33.7019 28.3323 34.2058 28.3323 34.7284C28.3323 37.084 30.2778 39 32.665 39C35.0543 39 36.9977 37.0819 36.9977 34.7284C36.9966 32.3749 35.0567 30.4567 32.6673 30.4567V30.4564ZM29.7671 17.2695C29.7671 15.6939 31.0671 14.4121 32.6653 14.4121C34.2634 14.4121 35.5635 15.6938 35.5635 17.2695C35.5635 18.8451 34.2635 20.1269 32.6653 20.1269C31.8539 20.1269 31.1221 19.7954 30.5943 19.264C30.2581 18.927 30.0093 18.506 29.877 18.0397C29.8075 17.7934 29.7671 17.5358 29.7671 17.2695ZM17.3296 28.8589C15.7315 28.8589 14.4314 27.5772 14.4314 26.0015C14.4314 24.4259 15.7314 23.1441 17.3296 23.1441C18.141 23.1441 18.8728 23.4756 19.4006 24.007C19.7369 24.344 19.9857 24.765 20.1179 25.2312C20.1862 25.4776 20.2266 25.7351 20.2266 26.0003C20.2266 26.2665 20.1862 26.5262 20.1179 26.7693C19.9856 27.2355 19.7369 27.6576 19.4006 27.9935C18.8762 28.5249 18.1421 28.8589 17.3296 28.8589ZM32.6673 37.5874C31.0692 37.5874 29.7691 36.3058 29.7691 34.73C29.7691 34.4616 29.8094 34.2041 29.8778 33.9577C30.01 33.4915 30.2588 33.0694 30.595 32.7335C31.1229 32.202 31.8547 31.8706 32.6661 31.8706C34.2642 31.8706 35.5643 33.1522 35.5643 34.728C35.5643 36.3057 34.2655 37.5874 32.6673 37.5874Z"
                fill="#005490"
              />
            </svg>