<svg width="237" height="56" viewBox="0 0 237 56" fill="none" xmlns="http://www.w3.org/2000/svg">
<rect x="0.078125" y="0.554688" width="55.0899" height="55.0899" rx="13.1046" fill="#E2443F"/>
<path d="M73.6684 28.3224C72.3732 28.3224 71.2911 28.0923 70.422 27.6322C69.5528 27.1721 68.8967 26.4648 68.4536 25.5105C68.0105 24.5391 67.7634 23.2865 67.7123 21.7528L71.6234 21.1648C71.6404 22.051 71.7171 22.7668 71.8535 23.3121C72.0068 23.8574 72.2113 24.2494 72.467 24.488C72.7396 24.7266 73.0634 24.8459 73.4383 24.8459C73.9155 24.8459 74.2223 24.684 74.3586 24.3602C74.512 24.0364 74.5887 23.6955 74.5887 23.3377C74.5887 22.4856 74.3842 21.7698 73.9752 21.1904C73.5662 20.5939 73.0123 19.9975 72.3136 19.401L70.5242 17.8417C69.7403 17.177 69.0756 16.4272 68.5303 15.5922C68.002 14.7401 67.7379 13.692 67.7379 12.4479C67.7379 10.6926 68.2576 9.35486 69.2972 8.4346C70.3367 7.4973 71.7512 7.02865 73.5406 7.02865C74.6483 7.02865 75.5345 7.21611 76.1991 7.59103C76.8808 7.96595 77.392 8.46016 77.7329 9.07367C78.0908 9.67013 78.3293 10.3092 78.4486 10.9909C78.585 11.6555 78.6617 12.2946 78.6787 12.9081L74.742 13.3938C74.725 12.7803 74.6824 12.252 74.6142 11.8089C74.5631 11.3487 74.4438 10.9994 74.2564 10.7608C74.0689 10.5052 73.7792 10.3774 73.3872 10.3774C72.9612 10.3774 72.6459 10.5563 72.4414 10.9142C72.2539 11.2721 72.1602 11.6299 72.1602 11.9878C72.1602 12.7547 72.3392 13.3852 72.697 13.8795C73.0719 14.3566 73.5576 14.8594 74.1541 15.3877L75.8668 16.8959C76.77 17.6627 77.5284 18.5319 78.1419 19.5032C78.7724 20.4746 79.0877 21.6761 79.0877 23.1076C79.0877 24.079 78.8662 24.9651 78.4231 25.7661C77.98 26.55 77.3494 27.1721 76.5314 27.6322C75.7305 28.0923 74.7761 28.3224 73.6684 28.3224ZM81.3033 28.0156V7.30984H88.2563C89.5004 7.30984 90.5229 7.54843 91.3238 8.0256C92.1248 8.48573 92.7213 9.1674 93.1132 10.0706C93.5052 10.9568 93.7012 12.0389 93.7012 13.3171C93.7012 14.919 93.437 16.146 92.9087 16.9981C92.3804 17.8332 91.6647 18.4126 90.7615 18.7364C89.8583 19.0602 88.8443 19.2221 87.7195 19.2221H85.879V28.0156H81.3033ZM85.879 16.0267H87.4128C87.9751 16.0267 88.4012 15.9245 88.6909 15.72C88.9806 15.5155 89.1681 15.2087 89.2533 14.7997C89.3555 14.3907 89.4066 13.8709 89.4066 13.2404C89.4066 12.7121 89.364 12.252 89.2788 11.86C89.2107 11.451 89.0317 11.1272 88.742 10.8886C88.4523 10.65 88.0007 10.5307 87.3872 10.5307H85.879V16.0267ZM93.7118 28.0156L97.6229 7.30984H102.838L106.698 28.0156H102.48L101.79 23.6444H98.7476L98.0319 28.0156H93.7118ZM99.1566 20.9092H101.355L100.256 12.8314L99.1566 20.9092ZM108.788 28.0156V7.30984H114.489C115.886 7.30984 117.096 7.46322 118.119 7.76997C119.141 8.07672 119.933 8.63058 120.496 9.43155C121.075 10.2155 121.365 11.3317 121.365 12.7803C121.365 13.6323 121.297 14.3907 121.161 15.0553C121.024 15.72 120.769 16.2994 120.394 16.7936C120.036 17.2708 119.516 17.6713 118.834 17.995L121.672 28.0156H116.943L114.668 18.7364H113.364V28.0156H108.788ZM113.364 16.1034H114.642C115.29 16.1034 115.792 15.9926 116.15 15.7711C116.508 15.5325 116.755 15.2002 116.892 14.7742C117.045 14.3311 117.122 13.8028 117.122 13.1893C117.122 12.3031 116.96 11.6129 116.636 11.1187C116.312 10.6245 115.716 10.3774 114.847 10.3774H113.364V16.1034ZM124.116 28.0156V7.30984H128.692V15.7711L132.168 7.30984H136.642L132.807 16.6658L136.82 28.0156H132.168L129.177 18.8642L128.692 19.6822V28.0156H124.116ZM138.543 28.0156L138.901 7.30984H143.809L146.084 19.3499L148.538 7.30984H153.267L153.625 28.0156H150.378L149.995 14.2373L147.592 28.0156H144.704L142.147 14.1351L141.841 28.0156H138.543ZM159.026 28.0156V19.5544L155.089 7.30984H159.409L161.378 13.8539L163.142 7.30984H167.283L163.423 19.5544V28.0156H159.026ZM174.322 28.3224C173.026 28.3224 171.944 28.0923 171.075 27.6322C170.206 27.1721 169.55 26.4648 169.107 25.5105C168.664 24.5391 168.417 23.2865 168.365 21.7528L172.276 21.1648C172.294 22.051 172.37 22.7668 172.507 23.3121C172.66 23.8574 172.864 24.2494 173.12 24.488C173.393 24.7266 173.717 24.8459 174.091 24.8459C174.569 24.8459 174.875 24.684 175.012 24.3602C175.165 24.0364 175.242 23.6955 175.242 23.3377C175.242 22.4856 175.037 21.7698 174.628 21.1904C174.219 20.5939 173.665 19.9975 172.967 19.401L171.177 17.8417C170.393 17.177 169.729 16.4272 169.183 15.5922C168.655 14.7401 168.391 13.692 168.391 12.4479C168.391 10.6926 168.911 9.35486 169.95 8.4346C170.99 7.4973 172.404 7.02865 174.194 7.02865C175.301 7.02865 176.188 7.21611 176.852 7.59103C177.534 7.96595 178.045 8.46016 178.386 9.07367C178.744 9.67013 178.982 10.3092 179.102 10.9909C179.238 11.6555 179.315 12.2946 179.332 12.9081L175.395 13.3938C175.378 12.7803 175.335 12.252 175.267 11.8089C175.216 11.3487 175.097 10.9994 174.909 10.7608C174.722 10.5052 174.432 10.3774 174.04 10.3774C173.614 10.3774 173.299 10.5563 173.095 10.9142C172.907 11.2721 172.813 11.6299 172.813 11.9878C172.813 12.7547 172.992 13.3852 173.35 13.8795C173.725 14.3566 174.211 14.8594 174.807 15.3877L176.52 16.8959C177.423 17.6627 178.181 18.5319 178.795 19.5032C179.426 20.4746 179.741 21.6761 179.741 23.1076C179.741 24.079 179.519 24.9651 179.076 25.7661C178.633 26.55 178.003 27.1721 177.185 27.6322C176.384 28.0923 175.429 28.3224 174.322 28.3224ZM181.956 28.0156V7.30984H188.909C190.153 7.30984 191.176 7.54843 191.977 8.0256C192.778 8.48573 193.374 9.1674 193.766 10.0706C194.158 10.9568 194.354 12.0389 194.354 13.3171C194.354 14.919 194.09 16.146 193.562 16.9981C193.034 17.8332 192.318 18.4126 191.415 18.7364C190.511 19.0602 189.497 19.2221 188.373 19.2221H186.532V28.0156H181.956ZM186.532 16.0267H188.066C188.628 16.0267 189.054 15.9245 189.344 15.72C189.634 15.5155 189.821 15.2087 189.906 14.7997C190.009 14.3907 190.06 13.8709 190.06 13.2404C190.06 12.7121 190.017 12.252 189.932 11.86C189.864 11.451 189.685 11.1272 189.395 10.8886C189.105 10.65 188.654 10.5307 188.04 10.5307H186.532V16.0267ZM202.491 28.3224C200.94 28.3224 199.713 28.0497 198.81 27.5044C197.906 26.959 197.259 26.1751 196.867 25.1526C196.475 24.1301 196.279 22.9116 196.279 21.4971V13.8028C196.279 12.3713 196.475 11.1528 196.867 10.1473C197.259 9.14184 197.906 8.37496 198.81 7.84666C199.713 7.30132 200.94 7.02865 202.491 7.02865C204.058 7.02865 205.294 7.30132 206.197 7.84666C207.117 8.37496 207.774 9.14184 208.166 10.1473C208.557 11.1528 208.753 12.3713 208.753 13.8028V21.4971C208.753 22.9116 208.557 24.1301 208.166 25.1526C207.774 26.1751 207.117 26.959 206.197 27.5044C205.294 28.0497 204.058 28.3224 202.491 28.3224ZM202.491 25.0759C202.968 25.0759 203.317 24.9566 203.539 24.718C203.76 24.4795 203.905 24.1727 203.973 23.7978C204.041 23.4229 204.075 23.0394 204.075 22.6475V12.678C204.075 12.269 204.041 11.8856 203.973 11.5277C203.905 11.1528 203.76 10.846 203.539 10.6074C203.317 10.3688 202.968 10.2496 202.491 10.2496C202.048 10.2496 201.715 10.3688 201.494 10.6074C201.272 10.846 201.127 11.1528 201.059 11.5277C200.991 11.8856 200.957 12.269 200.957 12.678V22.6475C200.957 23.0394 200.982 23.4229 201.034 23.7978C201.102 24.1727 201.238 24.4795 201.443 24.718C201.664 24.9566 202.013 25.0759 202.491 25.0759ZM211.538 28.0156V7.30984H217.239C218.636 7.30984 219.846 7.46322 220.869 7.76997C221.891 8.07672 222.684 8.63058 223.246 9.43155C223.825 10.2155 224.115 11.3317 224.115 12.7803C224.115 13.6323 224.047 14.3907 223.911 15.0553C223.774 15.72 223.519 16.2994 223.144 16.7936C222.786 17.2708 222.266 17.6713 221.584 17.995L224.422 28.0156H219.693L217.418 18.7364H216.114V28.0156H211.538ZM216.114 16.1034H217.392C218.04 16.1034 218.542 15.9926 218.9 15.7711C219.258 15.5325 219.505 15.2002 219.642 14.7742C219.795 14.3311 219.872 13.8028 219.872 13.1893C219.872 12.3031 219.71 11.6129 219.386 11.1187C219.062 10.6245 218.466 10.3774 217.597 10.3774H216.114V16.1034ZM228.532 28.0156V10.7097H225.414V7.30984H236.227V10.7097H233.133V28.0156H228.532Z" fill="#E44539"/>
<path d="M76.0558 50.4648V36.3119H77.9254V50.4648H76.0558ZM79.524 50.4648V36.3119H85.0104V37.7796H81.4984V42.4623H84.3465V43.8601H81.4984V49.0495H85.0454V50.4648H79.524ZM88.5789 50.4648L85.4163 36.3119H87.2684L89.5049 46.7431L91.6366 36.3119H93.4363L90.3087 50.4648H88.5789ZM94.4127 50.4648V36.3119H99.8992V37.7796H96.3872V42.4623H99.2352V43.8601H96.3872V49.0495H99.9341V50.4648H94.4127ZM101.004 50.4648V36.3119H102.978V49.0495H106.595V50.4648H101.004ZM112.448 50.4648V37.7796H110.054V36.3119H116.747V37.7796H114.423V50.4648H112.448ZM117.587 50.4648V36.3119H119.561V42.4273H123.196V36.3119H125.17V50.4648H123.196V43.8426H119.561V50.4648H117.587ZM128.692 50.4648L126.385 36.3119H128.028L129.548 46.481L131.452 36.3643H132.85L134.772 46.5335L136.257 36.3119H137.865L135.593 50.4648H134.161L132.186 39.9812L130.194 50.4648H128.692ZM142.531 50.4648V36.3119H146.043C146.893 36.3119 147.569 36.4691 148.069 36.7836C148.582 37.0865 148.955 37.5291 149.188 38.1116C149.421 38.694 149.537 39.3987 149.537 40.2258C149.537 40.9713 149.403 41.6178 149.135 42.1653C148.879 42.7127 148.495 43.1379 147.982 43.4408C147.47 43.732 146.829 43.8776 146.06 43.8776H144.505V50.4648H142.531ZM144.505 42.4623H145.414C145.984 42.4623 146.433 42.3982 146.759 42.2701C147.085 42.142 147.318 41.9206 147.458 41.6061C147.598 41.28 147.668 40.8257 147.668 40.2432C147.668 39.5676 147.615 39.0493 147.51 38.6882C147.417 38.3271 147.213 38.0766 146.899 37.9368C146.584 37.7971 146.095 37.7272 145.431 37.7272H144.505V42.4623ZM150.402 50.4648V36.3119H152.376V49.0495H155.993V50.4648H150.402ZM156.053 50.4648L159.059 36.3119H160.963L163.986 50.4648H162.116L161.47 46.9004H158.587L157.905 50.4648H156.053ZM158.849 45.4851H161.208L160.02 39.1075L158.849 45.4851ZM166.672 50.4648V45.4676L163.614 36.3119H165.449L167.616 43.1437L169.747 36.3119H171.599L168.559 45.4676V50.4648H166.672ZM172.498 50.4648V36.3119H174.438V50.4648H172.498ZM176.203 50.4648V36.3119H177.549L181.567 45.7122V36.3119H183.21V50.4648H181.952L177.881 40.8024V50.4648H176.203ZM188.283 50.6396C187.397 50.6396 186.687 50.4532 186.151 50.0804C185.627 49.696 185.242 49.1427 184.998 48.4205C184.765 47.6983 184.648 46.8305 184.648 45.8171V41.0819C184.648 40.0452 184.753 39.1658 184.963 38.4435C185.184 37.7097 185.568 37.1506 186.116 36.7662C186.675 36.3818 187.45 36.1896 188.44 36.1896C189.325 36.1896 190.036 36.341 190.572 36.6438C191.119 36.9351 191.515 37.3894 191.76 38.0067C192.004 38.6124 192.127 39.3813 192.127 40.3131V40.8373H190.274V40.4005C190.274 39.7831 190.234 39.2822 190.152 38.8978C190.071 38.5018 189.902 38.2106 189.645 38.0242C189.401 37.8262 189.011 37.7272 188.475 37.7272C187.892 37.7272 187.467 37.8611 187.199 38.129C186.943 38.397 186.78 38.7639 186.71 39.2298C186.652 39.6841 186.623 40.2025 186.623 40.7849V46.0267C186.623 46.7024 186.669 47.2673 186.762 47.7216C186.867 48.1759 187.059 48.5137 187.339 48.735C187.619 48.9564 188.015 49.067 188.527 49.067C189.04 49.067 189.436 48.9447 189.715 48.7001C189.995 48.4555 190.187 48.0944 190.292 47.6168C190.397 47.1392 190.449 46.5451 190.449 45.8345V44.8561H188.65V43.4582H192.231V50.4648H190.991L190.799 48.8399C190.612 49.3641 190.321 49.7951 189.925 50.1329C189.529 50.4707 188.981 50.6396 188.283 50.6396ZM197.205 50.4648V36.3119H202.674V37.7272H199.18V42.4448H201.888V43.8426H199.18V50.4648H197.205ZM203.611 50.4648V36.3119H205.551V50.4648H203.611ZM207.316 50.4648V36.3119H212.803V37.7796H209.291V42.4623H212.139V43.8601H209.291V49.0495H212.838V50.4648H207.316ZM213.908 50.4648V36.3119H215.882V49.0495H219.499V50.4648H213.908ZM220.328 50.4648V36.3119H223.403C224.452 36.3119 225.279 36.4749 225.885 36.8011C226.502 37.1156 226.939 37.5932 227.195 38.2339C227.463 38.8745 227.597 39.6725 227.597 40.6276V45.8345C227.597 46.8363 227.463 47.6808 227.195 48.3681C226.939 49.0554 226.514 49.5796 225.92 49.9407C225.337 50.2901 224.551 50.4648 223.561 50.4648H220.328ZM222.303 49.0495H223.421C224.143 49.0495 224.656 48.9098 224.959 48.6302C225.261 48.3506 225.442 47.9429 225.5 47.4071C225.57 46.8713 225.605 46.2248 225.605 45.4676V40.8723C225.605 40.1384 225.558 39.5443 225.465 39.09C225.372 38.6357 225.168 38.3038 224.854 38.0941C224.539 37.8844 224.044 37.7796 223.369 37.7796H222.303V49.0495Z" fill="#E44539"/>
<path d="M27.6245 10.1875C17.7343 10.1875 9.71484 18.207 9.71484 28.0971C9.71484 37.9873 17.7343 46.0068 27.6245 46.0068C37.5147 46.0068 45.5341 37.9873 45.5341 28.0971C45.5341 18.207 37.5147 10.1875 27.6245 10.1875ZM33.9443 30.6436L16.8178 42.0681L26.3135 31.4151L21.4496 28.8686L38.4312 14.1233L29.4778 28.0971L33.9443 30.6436Z" fill="#E3E3D6"/>
</svg>
