<svg width="1920" height="1100" viewBox="0 0 1920 1100" fill="none" xmlns="http://www.w3.org/2000/svg">
<g opacity="0.2" clip-path="url(#clip0_5076_4760)">
<rect width="1100" height="1977" transform="translate(-31 1100) rotate(-90)" fill="url(#paint0_linear_5076_4760)"/>
<mask id="mask0_5076_4760" style="mask-type:luminance" maskUnits="userSpaceOnUse" x="-511" y="-2" width="2069" height="1057">
<path d="M-510.32 1053.41C-480.291 1049.4 -448.309 1046.43 -414.104 1044.72C76.0354 1020.21 157.633 858.971 245.588 685.159C260.819 655.062 276.241 624.586 294.031 594.334C354.296 491.847 420.043 395.381 525.435 345.597C630.846 295.801 775.829 292.737 994.473 377.112C1212.66 461.308 1355.17 480.978 1441.95 424.605C1528.76 368.208 1559.99 235.651 1555.61 15.4193C1555.5 9.72989 1555.43 4.09073 1555.41 -1.50888L1556.69 -1.50888C1556.71 4.08402 1556.77 9.71768 1556.89 15.4003C1561.28 235.988 1529.91 368.815 1442.73 425.45C1355.5 482.11 1212.59 462.462 993.935 378.084C775.73 293.88 631.127 296.894 526.064 346.525C420.978 396.168 355.347 492.476 295.175 594.805C277.431 624.98 262.003 655.468 246.765 685.577C158.651 859.705 76.9069 1021.24 -414.029 1045.79C-448.266 1047.5 -480.275 1050.48 -510.32 1054.49L-510.32 1053.41L-510.32 1053.41Z" fill="white"/>
</mask>
<g mask="url(#mask0_5076_4760)">
<path d="M-510.32 -1.50793L-510.32 1054.49L1561.28 1054.49L1561.28 -1.50803L-510.32 -1.50793Z" fill="#5C5C5C"/>
</g>
<mask id="mask1_5076_4760" style="mask-type:luminance" maskUnits="userSpaceOnUse" x="-511" y="-2" width="2071" height="1063">
<path d="M-510.32 1059.83C-485.439 1057.26 -459.266 1055.41 -431.686 1054.39C58.8493 1036.2 143.403 876.026 234.548 703.366C250.333 673.468 266.314 643.192 284.656 613.178C346.8 511.48 414.315 415.872 520.607 367.451C626.922 319.021 771.943 317.828 989.011 405.009C1205.63 492.009 1347.75 513.512 1435.55 458.261C1523.4 402.991 1557.07 270.851 1556.74 50.5901C1556.71 32.777 1557.12 15.4095 1557.94 -1.5101L1559.22 -1.5101C1558.4 15.4059 1557.99 32.7737 1558.02 50.5865C1558.34 271.203 1524.54 403.61 1436.32 459.115C1348.07 514.644 1205.54 493.159 988.458 405.971C771.83 318.967 627.189 320.119 521.223 368.389C415.233 416.672 347.839 512.124 285.789 613.665C267.49 643.61 251.504 673.894 235.716 703.802C144.406 876.773 59.6977 1037.24 -431.627 1055.46C-459.235 1056.48 -485.423 1058.33 -510.32 1060.91L-510.32 1059.83L-510.32 1059.83Z" fill="white"/>
</mask>
<g mask="url(#mask1_5076_4760)">
<path d="M-510.32 -1.5105L-510.32 1060.91L1559.22 1060.91L1559.22 -1.51059L-510.32 -1.5105Z" fill="#5C5C5C"/>
</g>
<mask id="mask2_5076_4760" style="mask-type:luminance" maskUnits="userSpaceOnUse" x="-511" y="-2" width="2076" height="1071">
<path d="M-510.32 1067C-490.639 1065.53 -470.273 1064.47 -448.994 1063.95C41.8179 1052.09 129.311 893.022 223.62 721.561C239.962 691.851 256.508 661.768 275.379 632.025C339.388 531.141 408.653 436.417 515.828 389.371C623.023 342.315 768.047 342.99 983.483 432.958C1198.47 522.739 1340.18 546.069 1428.99 491.959C1517.85 437.825 1553.94 306.137 1557.67 85.8966C1558.18 55.4306 1559.94 26.2665 1562.86 -1.51205L1564.14 -1.51205C1561.22 26.2665 1559.46 55.4347 1558.94 85.9098C1555.21 306.506 1518.97 438.462 1429.75 492.823C1340.48 547.208 1198.36 523.888 982.912 433.913C767.909 344.127 623.265 343.415 516.423 390.317C409.561 437.226 340.417 531.798 276.507 632.528C257.638 662.267 241.106 692.323 224.779 722.007C130.296 893.78 42.6449 1053.14 -448.954 1065.02C-470.249 1065.54 -490.629 1066.6 -510.32 1068.07L-510.32 1067L-510.32 1067Z" fill="white"/>
</mask>
<g mask="url(#mask2_5076_4760)">
<path d="M-510.32 -1.51233L-510.32 1068.07L1564.14 1068.07L1564.14 -1.51242L-510.32 -1.51233Z" fill="#5C5C5C"/>
</g>
<mask id="mask3_5076_4760" style="mask-type:luminance" maskUnits="userSpaceOnUse" x="-511" y="-2" width="2083" height="1078">
<path d="M-510.32 1074.75C-495.928 1074.08 -481.229 1073.59 -466.026 1073.42C24.9448 1067.88 115.353 909.964 212.81 739.736C229.698 710.237 246.798 680.368 266.21 650.879C332.064 550.834 403.066 457.013 511.096 411.352C619.142 365.685 764.139 368.228 977.893 460.961C1191.2 553.502 1332.47 578.656 1422.27 525.697C1512.1 472.715 1550.62 341.506 1558.39 121.341C1559.94 77.5849 1564 36.548 1570.34 -1.51352L1571.63 -1.51352C1565.28 36.5492 1561.22 77.5946 1559.67 121.37C1551.88 341.892 1513.22 473.365 1423 526.569C1332.75 579.799 1191.07 554.65 977.303 461.909C763.978 369.363 619.363 366.786 511.671 412.305C403.961 457.831 333.085 551.502 267.328 651.398C247.909 680.897 230.828 710.734 213.959 740.201C116.327 910.737 25.7532 1068.94 -466.01 1074.49C-481.219 1074.66 -495.926 1075.15 -510.32 1075.82L-510.32 1074.75Z" fill="white"/>
</mask>
<g mask="url(#mask3_5076_4760)">
<path d="M-510.32 -1.51282L-510.32 1075.82L1571.63 1075.82L1571.63 -1.51291L-510.32 -1.51282Z" fill="#5C5C5C"/>
</g>
<mask id="mask4_5076_4760" style="mask-type:luminance" maskUnits="userSpaceOnUse" x="-511" y="-2" width="2093" height="1087">
<path d="M-510.32 1083.06C-501.288 1082.88 -492.12 1082.79 -482.784 1082.8C8.23218 1083.59 101.536 926.854 202.111 757.903C219.536 728.635 237.178 698.999 257.14 669.746C324.832 570.559 397.553 477.662 506.406 433.401C615.279 389.131 760.21 393.544 972.234 489.02C1183.82 584.298 1324.6 611.271 1415.36 559.474C1506.17 507.654 1547.09 376.958 1558.92 156.92C1562.02 99.1052 1569.44 46.0945 1580.62 -1.51157L1581.92 -1.51157C1570.72 46.0926 1563.3 99.1186 1560.19 156.967C1548.35 377.361 1507.27 508.322 1416.08 560.357C1324.86 612.417 1183.67 585.445 971.631 489.962C760.035 394.678 615.485 390.238 506.966 434.365C398.427 478.497 325.837 571.243 258.25 670.276C238.304 699.505 220.67 729.127 203.254 758.382C102.496 927.64 9.02234 1084.66 -482.786 1083.87C-492.121 1083.86 -501.289 1083.95 -510.32 1084.13L-510.32 1083.06L-510.32 1083.06Z" fill="white"/>
</mask>
<g mask="url(#mask4_5076_4760)">
<path d="M-510.32 -1.51099L-510.32 1084.66L1581.92 1084.66L1581.92 -1.51108L-510.32 -1.51099Z" fill="#5C5C5C"/>
</g>
<mask id="mask5_5076_4760" style="mask-type:luminance" maskUnits="userSpaceOnUse" x="-511" y="-2" width="2107" height="1096">
<path d="M-510.32 1092.05C-506.626 1092.07 -503.007 1092.04 -499.264 1092.09C-8.3226 1099.21 87.8563 943.692 191.529 776.06C209.492 747.012 227.681 717.601 248.173 688.62C317.681 590.317 392.103 498.369 501.759 455.515C611.434 412.654 756.266 418.933 966.51 517.132C1176.31 615.124 1316.58 643.909 1408.29 593.286C1500.03 542.645 1543.36 412.491 1559.23 192.632C1564.49 119.797 1576.45 54.6852 1594.02 -1.50913L1595.34 -1.50913C1577.74 54.6729 1565.77 119.808 1560.51 192.694C1544.61 412.911 1501.12 543.324 1408.99 594.18C1316.82 645.058 1176.14 616.269 965.886 518.063C756.07 420.067 611.617 413.763 502.3 456.487C392.963 499.215 318.676 591.015 249.273 689.166C228.785 718.144 210.61 747.531 192.662 776.553C88.8003 944.493 -7.55206 1100.29 -499.284 1093.16C-503.022 1093.11 -506.632 1093.14 -510.32 1093.12L-510.32 1092.05Z" fill="white"/>
</mask>
<g mask="url(#mask5_5076_4760)">
<path d="M-510.32 -1.50916L-510.32 1100.29L1595.34 1100.29L1595.34 -1.50925L-510.32 -1.50916Z" fill="#5C5C5C"/>
</g>
<mask id="mask6_5076_4760" style="mask-type:luminance" maskUnits="userSpaceOnUse" x="-511" y="-2" width="2124" height="1106">
<path d="M-510.32 1101.41C-24.0595 1113.62 74.6949 959.891 181.063 794.201C199.559 765.391 218.285 736.221 239.311 707.5C310.621 610.105 386.724 519.127 497.154 477.693C607.607 436.249 752.307 444.394 960.717 545.289C1168.69 645.973 1308.42 676.561 1401.04 627.129C1493.71 577.673 1539.42 448.094 1559.34 228.465C1567.42 139.375 1585.32 61.9911 1611.04 -1.51096L1612.38 -1.51096C1586.63 61.9646 1568.7 139.379 1560.61 228.545C1540.66 448.532 1494.78 578.37 1401.73 628.031C1308.63 677.714 1168.5 647.117 960.075 546.214C752.087 445.523 607.769 437.36 497.681 478.667C387.569 519.984 311.598 610.816 240.399 708.061C219.382 736.765 200.669 765.917 182.189 794.706C75.6303 960.693 -23.3048 1114.7 -510.32 1102.48L-510.32 1101.41Z" fill="white"/>
</mask>
<g mask="url(#mask6_5076_4760)">
<path d="M-510.32 -1.51111L-510.32 1114.7L1612.38 1114.7L1612.38 -1.5112L-510.32 -1.51111Z" fill="#5C5C5C"/>
</g>
<mask id="mask7_5076_4760" style="mask-type:luminance" maskUnits="userSpaceOnUse" x="-511" y="-2" width="2145" height="1116">
<path d="M-510.32 1111.16C-37.9983 1125.73 62.5122 974.828 170.714 812.335C189.734 783.772 208.991 754.851 230.55 726.399C303.643 629.934 381.411 539.946 492.59 499.939C603.791 459.924 748.327 469.932 954.854 573.501C1160.95 676.855 1300.1 709.24 1393.62 661.005C1487.19 612.752 1535.28 483.776 1559.24 264.428C1570.93 157.427 1596.5 67.5287 1632.41 -1.50839L1633.81 -1.50839C1597.83 67.4735 1572.21 157.41 1560.51 264.525C1536.51 484.227 1488.25 613.459 1394.29 661.914C1300.29 710.394 1160.74 677.994 954.196 574.42C748.084 471.059 603.934 461.036 493.097 500.921C382.239 540.812 304.608 630.655 231.628 726.97C210.09 755.395 190.839 784.305 171.828 812.857C63.4307 975.644 -37.2601 1126.82 -510.32 1112.23L-510.32 1111.16Z" fill="white"/>
</mask>
<g mask="url(#mask7_5076_4760)">
<path d="M-510.32 -1.50952L-510.32 1126.82L1633.81 1126.82L1633.81 -1.50962L-510.32 -1.50952Z" fill="#5C5C5C"/>
</g>
<mask id="mask8_5076_4760" style="mask-type:luminance" maskUnits="userSpaceOnUse" x="-511" y="-2" width="2172" height="1126">
<path d="M-510.32 1121.08C-51.7147 1137.77 50.5403 989.739 160.475 830.461C180.016 802.154 199.797 773.492 221.888 745.305C296.749 649.793 376.164 560.819 488.067 522.249C599.993 483.671 744.326 495.541 948.924 601.759C1153.09 707.756 1291.63 741.93 1386.03 694.909C1480.47 647.865 1530.93 519.525 1558.92 300.512C1575.19 173.212 1610.73 70.4451 1659.42 -1.50852L1660.88 -1.50852C1612.1 70.3339 1576.49 173.154 1560.19 300.624C1532.16 519.991 1481.52 648.585 1386.68 695.825C1291.8 743.088 1152.86 708.894 948.247 602.667C744.062 496.664 600.113 484.786 488.556 523.237C376.978 561.694 297.701 650.526 222.957 745.892C200.912 774.02 181.126 802.685 161.586 830.996C51.4515 990.563 -50.9873 1138.86 -510.32 1122.15L-510.32 1121.08Z" fill="white"/>
</mask>
<g mask="url(#mask8_5076_4760)">
<path d="M-510.32 -1.5083L-510.32 1138.86L1660.88 1138.86L1660.88 -1.5084L-510.32 -1.5083Z" fill="#5C5C5C"/>
</g>
<mask id="mask9_5076_4760" style="mask-type:luminance" maskUnits="userSpaceOnUse" x="-511" y="-2" width="2208" height="1136">
<path d="M-510.32 1131.22C-65.0878 1149.8 38.7798 1004.64 150.36 848.577C170.419 820.521 190.729 792.114 213.332 764.223C289.939 669.686 370.983 581.747 483.582 544.623C596.203 507.493 740.3 521.221 942.921 630.063C1145.12 738.679 1283 774.634 1378.26 728.834C1473.56 683.013 1526.37 555.339 1558.39 336.712C1580.53 185.525 1629.3 69.4032 1694.2 -1.18564L1694.51 -1.51084L1696.13 -1.51084L1695.22 -0.530614C1630.45 69.9143 1581.77 185.852 1559.66 336.842C1527.59 555.82 1474.59 683.747 1378.9 729.759C1283.16 775.791 1144.86 739.812 942.228 630.962C740.017 522.341 596.305 508.609 484.052 545.618C371.777 582.635 290.876 670.433 214.387 764.823C191.821 792.67 171.512 821.074 151.457 849.126C39.6744 1005.47 -64.3808 1150.89 -510.32 1132.29L-510.32 1131.22Z" fill="white"/>
</mask>
<g mask="url(#mask9_5076_4760)">
<path d="M-510.32 -1.51245L-510.32 1150.89L1696.13 1150.89L1696.13 -1.51255L-510.32 -1.51245Z" fill="#5C5C5C"/>
</g>
<mask id="mask10_5076_4760" style="mask-type:luminance" maskUnits="userSpaceOnUse" x="-511" y="-2" width="2258" height="1147">
<path d="M-510.32 1141.58C-78.1316 1161.85 27.2222 1019.53 140.357 866.69C160.927 838.902 181.753 810.763 204.873 783.158C283.212 689.621 365.866 602.735 479.134 567.067C592.422 531.392 736.251 546.976 936.843 658.417C1137.02 769.624 1274.23 807.352 1370.31 762.784C1466.44 718.196 1521.6 591.218 1557.64 373.03C1582.56 222.146 1633.46 106.668 1699.65 36.9226C1713.84 21.9804 1728.72 9.13528 1744.21 -1.51194L1746.23 -1.51194C1730.38 9.24746 1715.15 22.3167 1700.66 37.591C1634.6 107.192 1583.79 222.49 1558.9 373.178C1522.81 591.717 1467.46 718.944 1370.93 763.719C1274.36 808.512 1136.74 770.755 936.136 659.307C735.951 548.091 592.506 532.51 479.584 568.068C366.642 603.633 284.135 690.378 205.919 783.771C182.849 811.314 162.017 839.46 141.442 867.257C28.1039 1020.38 -77.4393 1162.94 -510.32 1142.65L-510.32 1141.58Z" fill="white"/>
</mask>
<g mask="url(#mask10_5076_4760)">
<path d="M-510.32 -1.51135L-510.32 1162.95L1746.23 1162.95L1746.23 -1.51145L-510.32 -1.51135Z" fill="#5C5C5C"/>
</g>
<mask id="mask11_5076_4760" style="mask-type:luminance" maskUnits="userSpaceOnUse" x="-511" y="1" width="2459" height="1155">
<path d="M-510.32 1152.09C-90.9527 1173.82 15.8826 1034.42 130.47 884.806C151.546 857.288 172.886 829.426 196.518 802.115C276.569 709.598 360.811 623.787 474.72 589.584C588.657 555.372 732.181 572.808 930.698 686.819C1128.8 800.593 1265.3 840.084 1362.19 796.762C1459.13 753.419 1516.62 627.164 1556.67 409.466C1584.37 258.922 1637.39 144.113 1704.85 75.2311C1742.16 37.1408 1783.9 13.0777 1828.24 4.75954C1866.58 -2.43284 1906.84 2.15309 1947.83 19.6228L1947.83 20.8229C1906.91 3.26747 1866.74 -1.37071 1828.52 5.80202C1784.47 14.0646 1742.97 38.0054 1705.84 75.9105C1638.51 144.653 1585.59 259.283 1557.93 409.632C1517.82 627.679 1460.14 754.178 1362.8 797.703C1265.41 841.248 1128.5 801.721 929.973 687.702C731.855 573.919 588.716 556.491 475.157 590.59C361.572 624.695 277.479 710.368 197.552 802.741C173.984 829.978 152.635 857.854 131.548 885.384C16.7535 1035.26 -90.2782 1174.92 -510.32 1153.16L-510.32 1152.09Z" fill="white"/>
</mask>
<g mask="url(#mask11_5076_4760)">
<path d="M-510.32 -2.43384L-510.32 1174.92L1947.83 1174.92L1947.83 -2.43395L-510.32 -2.43384Z" fill="#5C5C5C"/>
</g>
<mask id="mask12_5076_4760" style="mask-type:luminance" maskUnits="userSpaceOnUse" x="-511" y="42" width="2459" height="1125">
<path d="M-510.32 1162.79C-103.46 1185.79 4.75305 1049.29 120.702 902.915C142.3 875.65 164.168 848.043 188.261 821.082C270.005 729.61 355.813 644.898 470.345 612.164C584.896 579.425 728.082 598.708 924.477 715.264C1120.46 831.578 1256.22 872.822 1353.9 830.752C1451.62 788.664 1511.43 663.167 1555.48 446.012C1585.94 295.845 1641.07 181.732 1709.8 113.724C1747.8 76.1172 1789.98 52.595 1834.46 44.8494C1871.06 38.4774 1909.19 42.788 1947.83 58.7161L1947.83 59.9086C1909.26 43.8994 1871.21 39.5457 1834.72 45.8989C1790.53 53.5932 1748.59 76.9944 1710.77 114.416C1642.19 182.278 1587.16 296.213 1556.74 446.189C1512.62 663.696 1452.62 789.439 1354.49 831.704C1256.31 873.988 1120.15 832.7 923.736 716.135C727.734 599.813 584.932 580.543 470.758 613.175C356.566 645.811 270.905 730.39 189.285 821.725C165.18 848.698 143.339 876.273 121.767 903.505C5.60595 1050.15 -102.805 1186.89 -510.32 1163.86L-510.32 1162.79Z" fill="white"/>
</mask>
<g mask="url(#mask12_5076_4760)">
<path d="M-510.32 38.4802L-510.32 1186.89L1947.83 1186.89L1947.83 38.4801L-510.32 38.4802Z" fill="#5C5C5C"/>
</g>
<mask id="mask13_5076_4760" style="mask-type:luminance" maskUnits="userSpaceOnUse" x="-511" y="82" width="2459" height="1092">
<path d="M-344.247 1173.93C-81.0538 1155.54 12.2496 1041.67 111.049 921.024C133.148 894.037 155.526 866.712 180.105 840.072C263.522 749.663 350.879 666.065 466 634.812C581.138 603.554 723.954 624.68 918.181 743.753C1112 862.578 1246.98 905.567 1345.43 864.76C1443.91 823.936 1506.02 699.225 1554.06 482.663C1587.29 332.906 1644.51 219.517 1714.48 152.403C1753.17 115.293 1795.78 92.3153 1840.39 85.1449C1875.29 79.5354 1911.41 83.5951 1947.83 98.1225L1947.83 99.3125C1911.48 84.7066 1875.44 80.6004 1840.64 86.1941C1796.31 93.3178 1753.94 116.179 1715.44 153.109C1645.61 220.08 1588.5 333.292 1555.32 482.857C1507.2 699.769 1444.9 824.723 1345.99 865.719C1247.05 906.731 1111.67 863.696 917.424 744.613C723.588 625.779 581.156 604.672 466.395 635.828C351.615 666.989 264.407 750.455 181.117 840.728C156.514 867.392 134.168 894.68 112.101 921.627C14.8841 1040.34 -77.024 1152.5 -330.04 1173.93L-344.247 1173.93ZM-510.32 1173.69C-508.909 1173.77 -507.525 1173.84 -506.122 1173.93L-510.32 1173.93L-510.32 1173.69Z" fill="white"/>
</mask>
<g mask="url(#mask13_5076_4760)">
<path d="M-510.32 79.5355L-510.32 1173.93L1947.83 1173.93L1947.83 79.5354L-510.32 79.5355Z" fill="#5C5C5C"/>
</g>
<mask id="mask14_5076_4760" style="mask-type:luminance" maskUnits="userSpaceOnUse" x="-255" y="123" width="2203" height="1051">
<path d="M-254.848 1173.93C-67.415 1138.68 14.9958 1041.37 101.512 939.132C124.096 912.446 146.964 885.422 172.052 859.081C257.123 769.756 346.011 687.295 461.69 657.529C577.39 627.759 719.798 650.72 911.811 772.284C1103.42 893.594 1237.6 938.317 1336.78 898.784C1436.01 859.234 1500.4 735.338 1552.43 519.419C1588.4 370.11 1647.7 257.472 1718.9 191.268C1758.27 154.659 1801.29 132.235 1846.04 125.64C1879.3 120.736 1913.49 124.583 1947.83 137.847L1947.83 139.025C1913.55 125.689 1879.43 121.803 1846.26 126.692C1801.8 133.245 1759.02 155.555 1719.85 191.985C1648.8 258.048 1589.61 370.51 1553.68 519.631C1501.57 735.897 1436.97 860.034 1337.33 899.749C1237.65 939.484 1103.07 894.708 911.041 773.138C719.415 651.821 577.388 628.879 462.066 658.553C346.723 688.232 257.991 770.563 173.05 859.751C147.979 886.074 125.125 913.081 102.555 939.753C16.741 1041.16 -65.006 1137.74 -248.825 1173.93L-254.848 1173.93Z" fill="white"/>
</mask>
<g mask="url(#mask14_5076_4760)">
<path d="M-254.848 120.736L-254.848 1173.93L1947.83 1173.93L1947.83 120.736L-254.848 120.736Z" fill="#5C5C5C"/>
</g>
<mask id="mask15_5076_4760" style="mask-type:luminance" maskUnits="userSpaceOnUse" x="-209" y="164" width="2157" height="1010">
<path d="M-208.52 1173.93C-61.3753 1132.75 13.7067 1046.91 92.0899 957.246C115.166 930.851 138.529 904.122 164.094 878.114C250.796 789.899 341.19 708.592 457.407 680.32C573.643 652.043 715.612 676.839 905.364 800.859C1094.72 924.624 1228.06 971.071 1327.96 932.821C1427.9 894.554 1494.57 771.502 1550.55 556.281C1589.27 407.448 1650.64 295.589 1723.05 230.312C1763.09 194.216 1806.52 172.347 1851.38 166.331C1883.06 162.08 1915.44 165.736 1947.83 177.863L1947.83 179.036C1915.5 166.84 1883.18 163.146 1851.58 167.385C1807.01 173.362 1763.83 195.12 1723.98 231.04C1651.72 296.183 1590.47 407.869 1551.8 556.508C1495.72 772.077 1428.85 895.367 1328.49 933.792C1228.08 972.238 1094.34 925.733 904.577 801.703C715.206 677.93 573.619 653.161 457.765 681.345C341.893 709.533 251.655 790.711 165.082 878.795C139.524 904.798 116.178 931.504 93.1228 957.879C15.2418 1046.97 -59.3881 1132.28 -204.388 1173.93L-208.52 1173.93Z" fill="white"/>
</mask>
<g mask="url(#mask15_5076_4760)">
<path d="M-208.52 162.08L-208.52 1173.93L1947.83 1173.93L1947.83 162.08L-208.52 162.08Z" fill="#5C5C5C"/>
</g>
<mask id="mask16_5076_4760" style="mask-type:luminance" maskUnits="userSpaceOnUse" x="-177" y="205" width="2125" height="969">
<path d="M-176.398 1173.93C-57.3559 1130.55 11.3743 1054.47 82.785 975.365C106.333 949.28 130.176 922.868 156.237 897.17C244.557 810.081 336.436 729.947 453.153 703.177C569.896 676.401 711.391 703.023 898.84 829.475C1085.9 955.665 1218.36 1003.83 1318.95 966.869C1419.59 929.895 1488.51 807.715 1548.45 593.24C1589.91 444.928 1653.32 333.871 1726.93 269.533C1767.63 233.956 1811.45 212.651 1856.42 207.211C1886.59 203.563 1917.26 207.057 1947.83 218.171L1947.83 219.339C1917.31 208.157 1886.7 204.629 1856.6 208.269C1811.92 213.673 1768.35 234.871 1727.85 270.272C1654.4 334.474 1591.1 445.358 1549.7 593.484C1489.66 808.303 1420.52 930.716 1319.47 967.844C1218.36 1004.99 1085.5 956.768 898.037 830.308C710.967 704.109 569.853 677.52 453.495 704.207C337.112 730.9 245.393 810.905 157.21 897.861C131.199 923.512 107.354 949.923 83.8052 976.01C12.8144 1054.65 -55.5311 1130.3 -173.09 1173.93L-176.398 1173.93Z" fill="white"/>
</mask>
<g mask="url(#mask16_5076_4760)">
<path d="M-176.398 203.564L-176.398 1173.93L1947.83 1173.93L1947.83 203.563L-176.398 203.564Z" fill="#5C5C5C"/>
</g>
</g>
<defs>
<linearGradient id="paint0_linear_5076_4760" x1="1100" y1="988.5" x2="0" y2="988.5" gradientUnits="userSpaceOnUse">
<stop stop-color="#E2E2E2"/>
<stop offset="1" stop-color="white"/>
</linearGradient>
<clipPath id="clip0_5076_4760">
<rect width="1100" height="1977" fill="white" transform="translate(-31 1100) rotate(-90)"/>
</clipPath>
</defs>
</svg>
