<svg width="134" height="112" viewBox="0 0 134 112" fill="none" xmlns="http://www.w3.org/2000/svg">
<g filter="url(#filter0_d_3900_1532)">
<path d="M31.2734 58.5321V53.4735C31.2734 43.1314 31.2734 37.9585 34.5065 34.6326C37.7431 31.3031 42.8373 31.1602 53.0223 30.8709C57.8451 30.7351 62.775 30.6387 66.9976 30.6387C71.2166 30.6387 76.1465 30.7351 80.9729 30.8709C91.1578 31.1602 96.2521 31.3031 99.4851 34.6326C102.722 37.9585 102.722 43.135 102.722 53.4735V58.5285C102.722 68.8742 102.722 74.0435 99.4887 77.373C96.2521 80.6989 91.1614 80.8454 80.9729 81.1312C76.1501 81.2705 71.2202 81.3669 66.9976 81.3669C62.3383 81.3529 57.6794 81.2743 53.0223 81.1312C42.8373 80.8454 37.7431 80.7025 34.5065 77.373C31.2734 74.0435 31.2734 68.8706 31.2734 58.5321Z" fill="#FF0000"/>
</g>
<path d="M72.688 54.2782C74.0213 55.0401 74.0213 56.9626 72.688 57.7245L63.0436 63.2356C61.7205 63.9917 60.0742 63.0363 60.0742 61.5124V50.4903C60.0742 48.9664 61.7205 48.011 63.0436 48.7671L72.688 54.2782Z" fill="white"/>
<defs>
<filter id="filter0_d_3900_1532" x="0.652748" y="0.0179825" width="132.691" height="111.97" filterUnits="userSpaceOnUse" color-interpolation-filters="sRGB">
<feFlood flood-opacity="0" result="BackgroundImageFix"/>
<feColorMatrix in="SourceAlpha" type="matrix" values="0 0 0 0 0 0 0 0 0 0 0 0 0 0 0 0 0 0 127 0" result="hardAlpha"/>
<feOffset/>
<feGaussianBlur stdDeviation="15.3103"/>
<feComposite in2="hardAlpha" operator="out"/>
<feColorMatrix type="matrix" values="0 0 0 0 0 0 0 0 0 0 0 0 0 0 0 0 0 0 0.65 0"/>
<feBlend mode="normal" in2="BackgroundImageFix" result="effect1_dropShadow_3900_1532"/>
<feBlend mode="normal" in="SourceGraphic" in2="effect1_dropShadow_3900_1532" result="shape"/>
</filter>
</defs>
</svg>
